<svg xmlns="http://www.w3.org/2000/svg" viewBox="0 0 36 36"><path fill="#E6E7E8" d="M32 32c0 2.209-1.791 4-4 4H8c-2.209 0-4-1.791-4-4V4c0-2.209 1.791-4 4-4h20c2.209 0 4 1.791 4 4v28z"/><path fill="#BE1931" d="M8.397 11.891c.53 0 .996.078 1.392.232.244.066.453.143.63.231.796-.044 1.612-.122 2.453-.231 1.104-.134 2.463-.297 4.076-.497V9.307c0-1.613-.188-2.948-.563-4.01-.155-.332-.233-.552-.233-.662 0-.331.133-.498.398-.498.706 0 1.359.089 1.954.266.686.198 1.028.453 1.028.761 0 .111-.042.342-.134.696-.265.685-.395 1.955-.395 3.811v1.723c1.299-.132 2.723-.276 4.271-.43.706-.045 1.381-.166 2.023-.366.463-.088.739-.132.83-.132.264 0 .837.222 1.72.662.928.553 1.394.984 1.394 1.293 0 .242-.12.486-.362.729-.819.881-1.408 1.809-1.759 2.782l-.798 1.691c-.13.329-.276.583-.426.76l.128.067c.508.311.761.586.761.829 0 .198-.183.309-.56.332-1.699 0-3.236.088-4.606.266l-2.614.196-.034 4.442c0 2.009-.069 3.62-.198 4.838-.133 1.368-.333 2.341-.598 2.914-.245.488-.445.733-.598.733-.089 0-.232-.266-.431-.798-.132-.617-.198-1.687-.198-3.214v-8.749l-1.789.167c-1.194.111-2.111.168-2.75.168-.266 0-.488-.024-.664-.069-.044.2-.11.376-.198.533-.133.287-.277.43-.432.43-.198 0-.385-.154-.562-.465-.287-.438-.442-.892-.464-1.358l-.398-2.585c-.155-1.348-.332-2.286-.531-2.818-.111-.551-.409-1.081-.894-1.59-.177-.11-.266-.186-.266-.23 0-.354.133-.531.397-.531zm3.347 7.221c1.812-.085 3.545-.196 5.203-.328v-6.132c-1.702.199-3.347.464-4.937.796-.31.111-.597.188-.862.232 0 .265.022.53.067.793.265 2.013.441 3.561.529 4.639zm7.259-6.69v6.163c.728-.087 1.435-.179 2.119-.265 1.326-.178 2.286-.286 2.879-.331.048-.11.103-.232.168-.363.199-.641.463-1.646.798-3.016.264-1.084.394-1.768.394-2.056 0-.353-.339-.529-1.024-.529-1.041 0-2.696.121-4.973.363-.13-.001-.254.012-.361.034z"/></svg>