<svg xmlns="http://www.w3.org/2000/svg" viewBox="0 0 36 36"><path fill="#3B88C3" d="M36 32c0 2.209-1.791 4-4 4H4c-2.209 0-4-1.791-4-4V4c0-2.209 1.791-4 4-4h28c2.209 0 4 1.791 4 4v28z"/><path d="M1.527 13.121c0-.85.544-1.326 1.275-1.326.323 0 .85.255 1.071.561l5.388 7.191h.034v-6.426c0-.85.544-1.326 1.275-1.326.731 0 1.275.476 1.275 1.326v9.655c0 .85-.544 1.325-1.275 1.325-.323 0-.833-.255-1.071-.561L4.11 16.434h-.033v6.341c0 .85-.544 1.325-1.275 1.325-.731 0-1.275-.476-1.275-1.325v-9.654zm11.067.255c0-.85.425-1.479 1.326-1.479h4.215c.816 0 1.207.578 1.207 1.173 0 .578-.407 1.173-1.207 1.173h-2.992v2.481h2.788c.833 0 1.24.578 1.24 1.173 0 .578-.424 1.173-1.24 1.173h-2.788v2.584h3.145c.816 0 1.206.578 1.206 1.173 0 .578-.407 1.173-1.206 1.173h-4.386c-.748 0-1.309-.51-1.309-1.274v-9.35zm7.31.119c-.051-.221-.068-.34-.068-.578 0-.544.459-1.122 1.207-1.122.816 0 1.207.476 1.359 1.224l1.445 7.224h.034l2.21-7.445c.188-.612.697-1.003 1.326-1.003.629 0 1.139.391 1.326 1.003l2.209 7.445h.033l1.445-7.224c.152-.748.545-1.224 1.359-1.224.748 0 1.207.578 1.207 1.122 0 .238-.016.357-.068.578l-2.158 9.281c-.17.714-.73 1.325-1.682 1.325-.834 0-1.48-.544-1.684-1.24l-1.97-6.561H27.4l-1.972 6.561c-.204.696-.851 1.24-1.683 1.24-.952 0-1.514-.611-1.684-1.325l-2.157-9.281z" fill="#FFF"/></svg>