<svg xmlns="http://www.w3.org/2000/svg" viewBox="0 0 36 36"><path fill="#3B88C3" d="M36 32c0 2.209-1.791 4-4 4H4c-2.209 0-4-1.791-4-4V4c0-2.209 1.791-4 4-4h28c2.209 0 4 1.791 4 4v28z"/><path d="M2.508 10.639c0-1.2.768-1.872 1.8-1.872.456 0 1.2.36 1.512.792l7.608 10.153h.048v-9.073c0-1.2.768-1.872 1.8-1.872s1.8.672 1.8 1.872v13.633c0 1.2-.768 1.872-1.8 1.872-.456 0-1.176-.359-1.512-.792L6.157 15.319h-.048v8.953c0 1.2-.768 1.872-1.8 1.872s-1.8-.672-1.8-1.872V10.639zm29.402 5.232c1.512 0 2.111.768 2.111 2.305 0 4.632-3.024 8.112-7.824 8.112-4.873 0-8.257-3.864-8.257-8.833 0-4.992 3.36-8.833 8.257-8.833 3.623 0 6.6 1.704 6.6 3.384 0 1.032-.647 1.68-1.488 1.68-1.631 0-1.967-1.752-5.111-1.752-3 0-4.513 2.616-4.513 5.52 0 2.929 1.464 5.521 4.513 5.521 1.896 0 4.08-1.056 4.08-3.792H27.83c-.984 0-1.682-.696-1.682-1.681 0-1.008.77-1.632 1.682-1.632h4.08z" fill="#FFF"/></svg>