<svg xmlns="http://www.w3.org/2000/svg" viewBox="0 0 36 36"><path fill="#3B88C3" d="M36 32c0 2.209-1.791 4-4 4H4c-2.209 0-4-1.791-4-4V4c0-2.209 1.791-4 4-4h28c2.209 0 4 1.791 4 4v28z"/><path d="M2.281 11.562c0-1.05.672-1.638 1.575-1.638s1.575.588 1.575 1.638v7.328c0 1.932 1.239 3.464 3.233 3.464 1.911 0 3.212-1.616 3.212-3.464v-7.328c0-1.05.672-1.638 1.575-1.638.903 0 1.575.588 1.575 1.638v7.496c0 3.527-2.898 6.193-6.362 6.193-3.506 0-6.383-2.625-6.383-6.193v-7.496zm14.511.127c0-.987.588-1.638 1.638-1.638h3.717c3.086 0 5.375 2.016 5.375 5.018 0 3.066-2.373 4.976-5.25 4.976h-2.33v3.443c0 1.05-.672 1.638-1.575 1.638-.903 0-1.575-.588-1.575-1.638V11.689zm3.149 5.584h2.142c1.323 0 2.163-.966 2.163-2.225 0-1.26-.84-2.226-2.163-2.226h-2.142v4.451zm9.45 6.341c0-.903.736-1.638 1.639-1.638s1.637.734 1.637 1.638c0 .903-.734 1.638-1.637 1.638s-1.639-.734-1.639-1.638zm.127-12.387c0-.882.65-1.428 1.512-1.428.84 0 1.512.567 1.512 1.428v8.084c0 .86-.672 1.428-1.512 1.428-.861 0-1.512-.547-1.512-1.428v-8.084z" fill="#FFF"/></svg>