<svg xmlns="http://www.w3.org/2000/svg" viewBox="0 0 36 36"><path fill="#DD2E44" d="M36 32c0 2.209-1.791 4-4 4H4c-2.209 0-4-1.791-4-4V4c0-2.209 1.791-4 4-4h28c2.209 0 4 1.791 4 4v28z"/><path d="M9.762 12.518c0 .78-.52 1.48-1.34 1.48-.82 0-1.46-.6-2.661-.6-.86 0-1.641.46-1.641 1.3 0 2.06 6.682.74 6.682 5.901 0 2.861-2.361 4.642-5.121 4.642-1.541 0-4.861-.36-4.861-2.24 0-.78.521-1.421 1.34-1.421.94 0 2.061.78 3.361.78 1.32 0 2.041-.74 2.041-1.721 0-2.36-6.682-.94-6.682-5.581 0-2.801 2.301-4.541 4.961-4.541 1.121 0 3.921.42 3.921 2.001zm1.358 5.361c0-4.161 2.801-7.362 6.882-7.362 4.02 0 6.881 3.3 6.881 7.362 0 4.141-2.78 7.361-6.881 7.361-4.061 0-6.882-3.22-6.882-7.361zm10.643 0c0-2.421-1.261-4.602-3.761-4.602-2.501 0-3.761 2.181-3.761 4.602 0 2.44 1.22 4.601 3.761 4.601 2.541-.001 3.761-2.161 3.761-4.601zm12.38-5.361c0 .78-.521 1.48-1.342 1.48s-1.459-.6-2.66-.6c-.859 0-1.641.46-1.641 1.3 0 2.06 6.682.74 6.682 5.901 0 2.861-2.359 4.642-5.121 4.642-1.539 0-4.861-.36-4.861-2.24 0-.78.521-1.421 1.342-1.421.939 0 2.061.78 3.359.78 1.32 0 2.041-.74 2.041-1.721 0-2.36-6.682-.94-6.682-5.581 0-2.801 2.301-4.541 4.961-4.541 1.121 0 3.922.42 3.922 2.001z" fill="#FFF"/></svg>