<svg xmlns="http://www.w3.org/2000/svg" viewBox="0 0 36 36"><path fill="#3B88C3" d="M36 32c0 2.209-1.791 4-4 4H4c-2.209 0-4-1.791-4-4V4c0-2.209 1.791-4 4-4h28c2.209 0 4 1.791 4 4v28z"/><g fill="#FFF"><path d="M5.97 12.858c1.022 0 3.012.336 3.012 1.569 0 .504-.35.939-.869.939-.574 0-.966-.49-2.143-.49-1.737 0-2.633 1.471-2.633 3.18 0 1.667.911 3.096 2.633 3.096 1.177 0 1.653-.589 2.227-.589.63 0 .925.631.925.953 0 1.345-2.115 1.652-3.152 1.652-2.843 0-4.818-2.255-4.818-5.154-.001-2.914 1.96-5.156 4.818-5.156z"/><path d="M8.865 18.014c0-2.914 1.961-5.155 4.818-5.155 2.815 0 4.819 2.311 4.819 5.155 0 2.899-1.947 5.154-4.819 5.154-2.843 0-4.818-2.255-4.818-5.154zm7.452 0c0-1.695-.882-3.222-2.633-3.222s-2.633 1.526-2.633 3.222c0 1.709.855 3.222 2.633 3.222s2.633-1.513 2.633-3.222zm2.656 0c0-2.914 1.96-5.155 4.818-5.155 2.816 0 4.818 2.311 4.818 5.155 0 2.899-1.945 5.154-4.818 5.154-2.843 0-4.818-2.255-4.818-5.154zm7.453 0c0-1.695-.883-3.222-2.635-3.222-1.75 0-2.633 1.526-2.633 3.222 0 1.709.854 3.222 2.633 3.222 1.779-.001 2.635-1.513 2.635-3.222zm2.767-3.979c0-.7.447-1.093 1.051-1.093.602 0 1.051.393 1.051 1.093v7.032h2.492c.715 0 1.023.532 1.01 1.008-.029.463-.393.925-1.01.925h-3.502c-.686 0-1.092-.448-1.092-1.148v-7.817z"/></g></svg>