<svg xmlns="http://www.w3.org/2000/svg" viewBox="0 0 36 36"><path fill="#DD2E44" d="M36 32c0 2.209-1.791 4-4 4H4c-2.209 0-4-1.791-4-4V4c0-2.209 1.791-4 4-4h28c2.209 0 4 1.791 4 4v28z"/><path d="M12.81 6.552c2.263 0 6.667.744 6.667 3.473 0 1.116-.776 2.077-1.923 2.077-1.271 0-2.139-1.085-4.744-1.085-3.845 0-5.829 3.256-5.829 7.038 0 3.689 2.015 6.852 5.829 6.852 2.605 0 3.658-1.302 4.93-1.302 1.395 0 2.046 1.395 2.046 2.107 0 2.977-4.682 3.659-6.976 3.659-6.294 0-10.666-4.992-10.666-11.41 0-6.448 4.341-11.409 10.666-11.409zm8.522 2.604c0-1.55.992-2.418 2.326-2.418s2.326.868 2.326 2.418V24.72h5.518c1.582 0 2.264 1.179 2.232 2.232-.06 1.025-.867 2.048-2.232 2.048h-7.75c-1.52 0-2.42-.992-2.42-2.543V9.156z" fill="#FFF"/></svg>