<svg xmlns="http://www.w3.org/2000/svg" viewBox="0 0 36 36"><path fill="#F4900C" d="M36 32c0 2.209-1.791 4-4 4H4c-2.209 0-4-1.791-4-4V4c0-2.209 1.791-4 4-4h28c2.209 0 4 1.791 4 4v28z"/><path fill="#FFF" d="M16.98 7.14c-1.02 0-1.649.66-2.04 1.47l-4.649 12.479L5.64 8.61c-.39-.81-1.019-1.47-2.039-1.47-1.201 0-2.311.9-2.311 2.16 0 .42.06.721.21 1.11l6.57 16.71c.391.959.9 1.738 2.221 1.738 1.32 0 1.83-.779 2.22-1.738l6.57-16.71c.15-.39.209-.69.209-1.11-.001-1.26-1.11-2.16-2.31-2.16zm7.71 6.089c0-1.26 1.17-1.949 2.461-1.949 1.799 0 2.76.899 3.99.899 1.228 0 2.01-1.05 2.01-2.22 0-2.37-4.201-3-5.881-3-3.99 0-7.439 2.609-7.439 6.811 0 6.959 10.02 4.828 10.02 8.369 0 1.471-1.08 2.58-3.059 2.58-1.951 0-3.631-1.17-5.041-1.17-1.231 0-2.01.959-2.01 2.129 0 2.82 4.981 3.361 7.289 3.361 4.141 0 7.68-2.67 7.68-6.961-.001-7.738-10.02-5.759-10.02-8.849z"/></svg>