<svg xmlns="http://www.w3.org/2000/svg" viewBox="0 0 36 36"><path fill="#002488" d="M36 27c0 2.209-1.791 4-4 4H4c-2.209 0-4-1.791-4-4V9c0-2.209 1.791-4 4-4h28c2.209 0 4 1.791 4 4v18z"/><path fill="#141414" d="M0 27c0 2.209 1.791 4 4 4h28c2.209 0 4-1.791 4-4V14H0v13z"/><path fill="green" d="M29 28.479s-8.396-4.417-12.458-5.75-5.146-.292-5.375.208c.438-1.188.896-1.479.896-1.479s-1.604.416-1.583 1.416c-.333-.896.791-2 2.271-2.021-1.333-.188-3.646.021-4.062 1.333.021-1.354 2.375-1.729 3.333-1.688-2.396-.75-4.396-.729-4.542.271-.167-.438.292-.797.292-.797s-.938-.079-1.396.338c-.021-.375 1.521-.749 2.271-.666-1.312-.521-2.333-.606-2.583-.012-.085-.694 2.353-.882 3.478-.632-2.625-.958-3.604-1.333-4.583-.312 0-.708.854-.979 1.458-.917-.521-.542-.916-.896-1.458-.917.312-.125.979.125.979.125s-.75-.792-1.271-1.042c.917.146 2.625 1.917 2.75 2.062s.854.312.854.312-2.375-1.938-2.458-2.562c.979.479 2.896 2.583 2.896 2.583s.479.271.5.062c.021-.208-2.875-2.104-2.833-3.188.583.812 1.417 1.729 1.417 1.729s-.604-.792-.542-1.521c.583 1.042 1.458 2.312 2.25 2.75-1.302-1.278-1.438-2.021-1.333-2.292.708 1.292 1.854 2.583 2.042 2.667s.292.062.292.062-.812-.854-.938-1.396c.562.396.958 1.312 1.083 1.354s.271-.042.271-.042-1.208-1.25-1.208-1.854c.583.458 1.354 1.729 1.458 1.917s.583.521.646.375-1.729-1.771-1.208-2.042c.833.688 1.312 1.688 1.396 1.708s.458.167.396.042-1.175-1.531-.896-2.312c.061.829.917 2.417 2.396 2.771s5.875 3.312 8.812 4.188 8.229 2.042 8.229 2.042l-.167.25s-7.771-2.042-7.771-1.979.229.271.229.271 7.459 1.958 7.438 2.021-.168.356-.168.356l-7.562-2.354h-.229s7.542 2.542 7.542 2.604-.146.333-.146.333l-7.792-2.938.25.292s7.438 2.832 7.417 2.916-.209.292-.209.292l-7.083-2.896-.417-.104 7.375 3.188-.229.271-6.854-3.041h-.229l6.938 3.438-.272.207z"/><path fill="#FCDD09" d="M25.351 24.345s-.259-.883-1.971-.919l.004-.004c.933-.933 1.781-.845 2.245-.663 0 0-.433-.78-2.056-.491.716-1.012 1.531-1.094 2.008-1.01 0 0-.598-.724-2.215-.043.01-.023.024-.043.033-.068.471-1.232 1.281-1.498 1.779-1.521 0 0-.711-.544-2.073.381.245-1.205.952-1.611 1.421-1.727 0 0-.837-.415-2.029.851 0-.017.003-.032.002-.048-.065-1.316.567-1.888 1.014-2.109 0 0-.896-.22-1.781 1.247l-.001-.005c-.343-1.272.155-1.965.545-2.276 0 0-.914-.024-1.471 1.576-.579-1.158-.241-1.931.074-2.312 0 0-.895.17-1.109 1.844-.799-1.012-.628-1.836-.399-2.273 0 0-.842.351-.706 2.035-.995-.827-.997-1.669-.862-2.145 0 0-.752.517-.271 2.138-1.144-.601-1.323-1.427-1.29-1.921 0 0-.634.664.184 2.161-1.266-.345-1.616-1.123-1.687-1.616 0 0-.479.774.613 2.054-1.274-.093-1.768-.769-1.936-1.232 0 0-.318.87 1.054 1.913-.008.001-.015 0-.023.002-1.3.205-1.938-.363-2.205-.785 0 0-.117.882 1.351 1.6-1.154.374-1.853-.033-2.183-.382 0 0 .053.938 1.76 1.343-.022.013-.044.021-.066.035-1.106.714-1.919.452-2.333.175 0 0 .259.883 1.97.919l-.005.004c-.93.931-1.78.847-2.244.663 0 0 .433.781 2.055.491-.714 1.01-1.53 1.096-2.007 1.01 0 0 .598.724 2.214.042-.01.024-.024.044-.033.068-.469 1.229-1.28 1.5-1.778 1.521 0 0 .71.544 2.071-.38-.243 1.203-.95 1.612-1.419 1.726 0 0 .836.415 2.028-.851 0 .016-.003.031-.002.048.067 1.314-.565 1.889-1.013 2.109 0 0 .896.22 1.781-1.247l.001.005c.344 1.271-.154 1.965-.544 2.275 0 0 .914.024 1.47-1.575.579 1.156.242 1.93-.074 2.312 0 0 .895-.171 1.109-1.844.8 1.011.629 1.835.399 2.272 0 0 .842-.351.707-2.035.995.826.997 1.669.862 2.144 0 0 .752-.517.271-2.137 1.147.603 1.321 1.429 1.29 1.92 0 0 .633-.663-.183-2.159 1.268.346 1.613 1.124 1.687 1.614 0 0 .478-.772-.611-2.052 1.275.093 1.765.77 1.935 1.23 0 0 .318-.869-1.054-1.913l.021-.001c1.303-.206 1.938.364 2.205.784 0 0 .117-.881-1.351-1.601 1.155-.374 1.852.035 2.183.382 0 0-.053-.937-1.759-1.344.022-.013.044-.021.065-.034 1.107-.711 1.917-.447 2.333-.171zM6.249 11.417s.043-1.479-.916-2.271c-.958-.792-1.562.062-1.521.542.042.479.455 1.104 1.217 1.333-.467-.917.167-.934.387-.812.311.172.479.625.479 1.208h.354zm.439-5.146c-1.042.542-1 2.146-.667 2.958.333.813.417 2.188.417 2.188h.5s.083-1.375.417-2.188c.333-.812.374-2.417-.667-2.958zm.438 5.146s-.043-1.479.916-2.271c.958-.792 1.562.062 1.52.542-.042.479-.455 1.104-1.217 1.333.467-.917-.167-.934-.387-.812-.311.172-.479.625-.479 1.208h-.353zm-.438.187l-.877.073.877.073.876-.073zm1.14 1.084c-.547-.297-.702-.75-.702-.75h-.877s-.155.453-.702.75c.484.078.984-.172.984-.172s-.282.688.156 1.359c.438-.672.156-1.359.156-1.359s.501.25.985.172zm9.734-1.271s.043-1.479-.916-2.271c-.958-.792-1.563.062-1.521.542.042.479.455 1.104 1.217 1.333-.467-.917.167-.934.387-.812.311.172.479.625.479 1.208h.354zM18 6.271c-1.042.542-1 2.146-.667 2.958.333.813.417 2.188.417 2.188h.5s.083-1.375.417-2.188c.333-.812.375-2.417-.667-2.958zm.438 5.146s-.043-1.479.916-2.271c.958-.792 1.562.062 1.521.542-.042.479-.455 1.104-1.218 1.333.468-.917-.167-.934-.387-.812-.311.172-.479.625-.479 1.208h-.353zm-.438.187l-.877.073.877.073.877-.073zm1.141 1.084c-.547-.297-.702-.75-.702-.75h-.877s-.155.453-.702.75c.484.078.984-.172.984-.172s-.282.687.156 1.359c.438-.672.156-1.359.156-1.359s.5.25.985.172zm9.811-1.271s.043-1.479-.915-2.271c-.959-.792-1.563.062-1.521.542.042.479.455 1.104 1.217 1.333-.467-.917.168-.934.388-.812.311.172.479.625.479 1.208h.352zm.439-5.146c-1.042.542-1 2.146-.666 2.958.333.813.416 2.188.416 2.188h.5s.083-1.375.416-2.188c.334-.812.376-2.417-.666-2.958zm.438 5.146s-.043-1.479.916-2.271c.958-.792 1.562.062 1.52.542-.042.479-.455 1.104-1.218 1.333.468-.917-.167-.934-.387-.812-.311.172-.479.625-.479 1.208h-.352zm-.438.187l-.877.073.877.073.877-.073zm1.14 1.084c-.547-.297-.702-.75-.702-.75h-.876s-.155.453-.702.75c.484.078.984-.172.984-.172s-.282.688.156 1.359c.438-.672.156-1.359.156-1.359s.5.25.984.172z"/></svg>