<svg xmlns="http://www.w3.org/2000/svg" viewBox="0 0 36 36"><path fill="#DE2910" d="M36 27c0 2.209-1.791 4-4 4H4c-2.209 0-4-1.791-4-4V9c0-2.209 1.791-4 4-4h28c2.209 0 4 1.791 4 4v18z"/><g fill="#FFF"><path d="M19.626 9.201c-.604-.314-1.289-.481-2.035-.31-.906.208-2.011 1.148-2.312 2.24-.142.515-.261.97-.254 1.391.005.29.004.774.039 1.252.024.339.193 1.071.461 1.717l.017-.006c.147.491.633 1.253 1.109 1.878.546.717.973 1.04 1.059 1.039-.052-.032-.105-.066-.162-.137-.312-.391-.624-1.104-.688-1.587-.124-.943.036-1.625.297-2.444.065-.205.2-.264.289-.211.007.004.011.013.018.019.055.051.089.144.04.314-.125.438-.431 1.54-.268 2.322.15.721.364 1.151.617 1.455-.101-.202-.215-.592-.223-.994-.004-.224-.023-.446.089-.647.188-.337.462-.518.779-.689.219-.118.425-.279.614-.4.86-.548 1.149-1.632 1.125-2.07l-.021-.327c.018-.119-.036-.446-.179-.774-.107-.246-.276-.488-.412-.673-.069-.095-.108-.204-.146-.271-.147-.255-.147-.544-.145-.727.001-.216.029-.241.091-.344.049-.082.102-.193.268-.282.122-.064.397-.045.559.038.138.069.164.063.235.102.064.035.231.123.221.088-.039-.132-.523-.672-1.082-.962zm-3.738 9.867c-.941-.129-1.558-.463-2.28-.931-.179-.116-.202-.261-.13-.333l.006-.003c.059-.052.166-.066.332.034.391.236 1.373.821 2.17.871.649.04 1.087-.031 1.43-.161-.232.024-.564.016-.89-.068-.217-.057-.436-.099-.6-.26-.273-.271-.374-.584-.454-.936-.055-.243-.154-.484-.22-.699-.295-.976-1.261-1.547-1.69-1.642l-.32-.067c-.11-.05-.44-.084-.794-.037-.266.036-.544.135-.759.216-.111.042-.225.049-.3.068-.286.073-.564-.005-.739-.056-.208-.06-.225-.094-.307-.182-.066-.069-.159-.148-.2-.333-.029-.134.064-.394.187-.528.104-.112.105-.14.161-.199.051-.053.181-.189.144-.188-.136 0-.786.32-1.215.78-.466.498-.812 1.112-.848 1.876-.043.929.564 2.247 1.534 2.832.456.274.863.513 1.271.619.281.073.746.205 1.216.301.333.067 1.083.104 1.777.02v-.019c.513-.009 1.377-.272 2.106-.56.921-.366 1.371-.736 1.303-.77l-.012.01c-.009.01-.026.013-.044.016-.039.029-.065.06-.125.086-.457.196-1.228.31-1.71.243zm2.516 1.171c-.061-.864-.228-1.358-.306-1.439.006.026.018.038.022.068.061.496-.047 1.267-.247 1.712-.389.867-.883 1.364-1.535 1.927-.108.092-.214.119-.288.099-.049-.013-.084-.046-.094-.094-.015-.072.024-.176.15-.291.336-.309 1.175-1.085 1.447-1.838.21-.583.269-1.009.25-1.365-.041.229-.151.568-.343.872-.119.189-.225.385-.429.492-.341.179-.67.18-1.029.148-.247-.02-.508.002-.733-.002-1.02-.014-1.856.734-2.076 1.114l-.161.285c-.081.089-.213.393-.274.745-.047.265-.037.56-.025.789.006.118-.022.229-.026.307-.018.294-.176.536-.278.688-.12.179-.157.185-.265.237-.085.041-.19.106-.379.09-.136-.013-.356-.18-.446-.338-.076-.133-.102-.142-.141-.214-.035-.064-.125-.23-.136-.194-.041.13.067.847.375 1.394.334.596.815 1.11 1.533 1.376.871.322 2.311.143 3.162-.606.401-.352.751-.669.976-1.024.155-.245.421-.648.655-1.067.165-.296.425-1.002.556-1.688l-.017-.005c.145-.491.157-1.394.102-2.178z"/><path d="M24.492 23.068c-.181-.503-.346-.943-.596-1.283-.171-.234-.449-.629-.754-1.001-.215-.262-.775-.762-1.367-1.136l-.009.014c-.405-.315-1.241-.657-1.99-.893-.783-.246-1.311-.285-1.453-.252.061-.005.128-.006.218.021.48.141 1.144.549 1.473.908.641.703.898 1.354 1.155 2.176.065.207-.014.334-.12.337-.003 0-.003.005-.006.005-.005 0-.006-.006-.009-.008-.075-.007-.159-.064-.218-.236-.149-.431-.528-1.509-1.109-2.059-.535-.505-.957-.735-1.339-.841-.071-.019-.108-.05-.146-.079-.005.004-.01.003-.015.009l.143.085c.199.107.518.359.756.683.131.182.275.352.3.581.041.382-.078.688-.237 1.013-.11.223-.186.473-.271.681-.387.943.002 1.995.275 2.339l.206.255c.054.108.288.343.593.528.229.141.508.239.727.314.111.037.204.103.275.136.267.123.434.36.538.511.123.177.115.214.124.334.007.094.028.215-.056.384-.062.122-.298.266-.477.293-.152.021-.17.042-.251.052-.072.009-.261.032-.23.056.105.086.812.248 1.434.162.677-.092 1.332-.352 1.842-.921.618-.697.977-2.103.594-3.168z"/><path d="M27.01 15.069c-.496-.786-1.747-1.519-2.878-1.444-.53.036-1.001.074-1.395.219-.273.1-.73.258-1.17.449-.312.135-.946.537-1.468 1.002l.011.013c-.416.302-.976 1.012-1.408 1.667-.455.689-.63 1.171-.635 1.313.014-.057.027-.115.073-.189.266-.424.838-.952 1.274-1.171.85-.425 1.546-.498 2.406-.522.217-.006.317.103.293.205-.004.016-.014.031-.025.046-.041.057-.116.107-.271.115-.454.026-1.595.099-2.281.509-.632.379-.968.723-1.173 1.061-.038.064-.078.093-.117.121.002.005 0 .009.004.015l.122-.115c.157-.161.488-.398.864-.538.21-.078.414-.169.642-.13.379.065.641.265.907.508.185.167.404.309.579.447.802.631 1.921.547 2.327.38l.302-.129c.117-.021.407-.182.671-.424.197-.182.369-.421.499-.611.067-.098.156-.168.208-.227.192-.223.465-.318.638-.377.204-.069.237-.051.355-.026.093.019.215.031.354.159.101.093.174.36.148.54-.021.152-.004.175-.018.255-.012.072-.039.259-.009.237.111-.078.462-.713.551-1.335.096-.675.028-1.376-.38-2.023z"/></g><path d="M17.79 12.618l-.366.552-.627-.147-.017-.004.411.519-.334.55-.009.016.621-.231.433.502-.029-.663.594-.25.017-.007-.639-.177zm-4.579 4.06l-.002-.018-.342.567-.652-.125.433.502-.31.564-.009.016.611-.257.44.469.013.014-.056-.66.583-.274.017-.008-.645-.151zm10.348-.192l-.643-.163-.07-.659-.353.56-.631-.133-.017-.004.423.51-.323.558-.008.016.615-.246.431.479.013.013-.042-.661.588-.262zm-7.84 5.584l-.002-.017-.34.568-.632-.117-.018-.004.435.499-.306.567-.009.016.609-.261.443.467.013.014-.06-.659.582-.279.016-.008-.646-.146zm5.777-.507l-.001-.018-.373.549-.625-.156-.018-.004.405.524-.341.547-.009.015.623-.224.413.493.012.015-.018-.662.596-.243.018-.006-.636-.186z" fill="#DE2910"/></svg>