<svg xmlns="http://www.w3.org/2000/svg" viewBox="0 0 36 36"><path fill="#E41E20" d="M32 5H4C1.791 5 0 6.791 0 9v18c0 2.209 1.791 4 4 4h28c2.209 0 4-1.791 4-4V9c0-2.209-1.791-4-4-4z"/><path fill-rule="evenodd" clip-rule="evenodd" d="M25.335 21.202c-.082-.012-.141-.051-.199-.105-.161-.151-.333-.162-.522-.047-.064.039-.122.085-.174.142-.032.035-.067.049-.114.05l-.777.021c-.02.001-.045.013-.059-.016.116-.112.237-.222.352-.335.058-.058.112-.074.196-.054.255.062.446-.019.548-.224.059-.117.152-.181.271-.213.053-.014.107-.019.171-.032-.154-.147-.319-.146-.492-.077-.052.021-.095.03-.15.01-.241-.092-.352-.04-.445.199-.018.045-.035.09-.081.119-.24.157-.479.316-.718.478-.041.029-.08.035-.13.02-.325-.088-.652-.17-.978-.256-.207-.054-.413-.109-.645-.173.127-.126.241-.235.353-.347.091-.091.065-.19-.059-.226-.102-.029-.205-.05-.309-.076-.812-.196-1.326-.708-1.574-1.498-.028-.088-.045-.175-.019-.267.019-.061.053-.108.119-.119.062-.01.11.025.14.074.031.05.055.105.077.159.145.347.336.656.648.879.079.057.162.077.255.068.078-.007.166-.016.195-.102.028-.085-.038-.142-.101-.184-.272-.189-.411-.46-.484-.774-.035-.145.034-.289.162-.324.117-.032.238.052.283.198.055.179.103.36.168.535.154.418.438.722.846.907.15.069.333.023.436-.095.079-.089.079-.19-.001-.278-.049-.054-.112-.088-.179-.116-.223-.096-.429-.22-.578-.418-.164-.22-.215-.468-.171-.734.022-.138.102-.169.224-.106.057.028.102.072.145.119.49.539.977 1.081 1.499 1.587.269.263.604.374.979.3.231-.045.443-.138.569-.355.054-.093.085-.194.017-.292-.068-.097-.173-.105-.279-.094-.507.06-.959-.076-1.354-.393-.373-.3-.651-.678-.899-1.082-.061-.096-.097-.205-.096-.32.003-.098.047-.122.134-.076.062.032.108.081.151.136.277.345.605.629.998.836.31.164.634.266.989.222.261-.032.382-.118.431-.442.033-.22-.077-.309-.287-.245-.443.135-.863.071-1.263-.153-.385-.217-.686-.53-.953-.874-.077-.1-.106-.226-.091-.355.011-.083.062-.119.146-.109.075.008.133.048.189.094.31.25.638.471 1.003.631.254.112.513.203.797.158.265-.041.462-.272.443-.52-.009-.144-.095-.236-.237-.254-.083-.009-.162.005-.243.014-.413.046-.802-.015-1.155-.248-.264-.175-.506-.377-.744-.584-.021-.018-.04-.04-.054-.064-.054-.082-.064-.191-.016-.226.073-.055.137-.003.195.034.323.203.669.347 1.041.431.286.065.572.103.862.029.198-.05.32-.176.357-.378.041-.222-.108-.375-.331-.341-.071.012-.14.032-.203.067-.261.147-.535.171-.824.097-.284-.073-.539-.209-.786-.363-.125-.077-.256-.146-.359-.253-.083-.088-.092-.196-.033-.272.057-.072.139-.08.255-.021.142.072.284.142.435.196.357.129.72.206 1.102.143.401-.066.696-.352.763-.736.011-.054.011-.105-.004-.158-.033-.12-.121-.173-.242-.145-.095.022-.168.078-.241.138-.367.306-.783.394-1.245.269-.214-.057-.404-.158-.592-.274-.095-.058-.175-.119-.209-.227-.036-.117.013-.184.136-.183.046 0 .092.006.139.015.486.097.973.128 1.455-.014.385-.113.679-.326.787-.737.037-.138-.008-.295-.109-.363-.093-.064-.21-.048-.336.049-.059.046-.113.099-.17.147-.48.401-1.052.42-1.634.392-.151-.007-.252-.152-.237-.287.014-.122.111-.186.273-.197.725-.05 1.353-.332 1.893-.808.188-.166.315-.38.37-.628.045-.196-.009-.373-.15-.516-.119-.12-.257-.108-.361.024-.033.042-.058.089-.088.133-.444.671-1.063 1.082-1.854 1.24-.085.017-.127-.004-.174-.073-.083-.125-.159-.152-.266-.111-.596.232-1.175.506-1.737.81-.061.033-.083.079-.081.144.003.099.031.191.062.282.065.2.05.395-.022.587-.094.254-.312.39-.594.377-.227-.01-.429-.186-.493-.435-.065-.258-.045-.513.081-.747.216-.4.532-.699.954-.874.318-.133.658-.191.992-.268.181-.04.363-.067.518-.181.05-.037.094-.078.103-.156-.141.042-.269.087-.4.12-.179.045-.325-.025-.458-.144.047-.012.092-.014.137-.012.274.014.548.02.82-.037.226-.047.438-.106.574-.312.029-.046.05-.093.049-.148-.001-.125-.085-.175-.194-.111-.077.045-.133.114-.188.182-.106.129-.243.203-.401.242-.179.046-.361.065-.547.053-.049-.003-.096-.01-.15-.035.11-.115.22-.211.358-.269.157-.065.253-.044.372.078.013.013.021.041.049.031.041-.229-.068-.383-.297-.423-.132-.022-.262-.009-.393.005-.023.002-.056.026-.068-.018-.038-.121-.146-.158-.248-.192-.301-.099-.6-.073-.889.044-.256.103-.518.179-.79.227-.161.029-.323.047-.494.072.148.143.322.237.488.364-.298.126-.539.305-.727.551l.006.032h.454l-.002.026c-.141.051-.283.097-.421.153-.142.058-.268.141-.377.265.078.019.147.034.216.052.055.014.066.045.022.084-.198.173-.363.379-.543.569-.046.048-.069.027-.104-.009-.177-.184-.337-.386-.531-.555-.056-.049-.032-.079.028-.094.065-.017.13-.031.205-.048-.218-.247-.517-.318-.802-.417l.007-.032h.475c-.208-.274-.451-.451-.746-.578.166-.128.343-.22.489-.37-.459-.042-.891-.132-1.306-.3-.3-.122-.607-.135-.915-.022-.079.03-.161.064-.192.151-.017.047-.037.05-.082.044-.154-.021-.31-.036-.464.013-.186.059-.271.222-.217.415.068-.067.128-.142.229-.153.161-.019.459.158.528.312-.125.038-.254.033-.382.022-.297-.024-.573-.099-.76-.359-.023-.033-.054-.061-.085-.085-.056-.043-.117-.089-.186-.039-.067.049-.059.127-.038.198.018.058.057.104.097.148.113.122.259.178.417.215.304.071.612.078.922.058.043-.003.091-.012.14.017-.181.154-.373.188-.589.109-.089-.033-.177-.071-.276-.088.006.076.05.115.098.151.104.079.226.117.351.146.247.057.492.115.739.168.501.109.912.36 1.227.768.207.268.301.564.25.902-.042.284-.248.512-.498.519-.332.009-.537-.125-.626-.423-.055-.179-.065-.361-.003-.543.032-.094.061-.19.061-.292-.001-.055-.019-.096-.069-.123-.571-.311-1.157-.587-1.763-.824-.064-.025-.122-.013-.175.03-.042.034-.079.073-.103.119-.025.047-.055.055-.107.046-.599-.099-1.105-.375-1.537-.798-.16-.155-.29-.333-.406-.524-.132-.218-.325-.221-.466-.008-.101.154-.13.322-.073.501.122.381.381.648.713.85.491.298 1.008.522 1.597.53.09.001.161.051.197.136.036.085.021.166-.038.237-.06.073-.14.115-.235.116-.15.001-.3.002-.45-.004-.47-.02-.896-.154-1.241-.493-.051-.05-.11-.093-.179-.119-.129-.047-.243-.001-.305.122-.04.08-.046.164-.026.247.061.243.191.438.404.576.233.151.494.221.766.251.371.042.735.008 1.099-.067.085-.017.185-.048.248.048.039.059-.008.194-.085.271-.009.009-.018.018-.029.024-.145.084-.284.182-.44.246-.549.227-1.06.188-1.521-.213-.061-.054-.132-.094-.213-.112-.116-.026-.203.026-.236.141-.016.055-.016.11-.005.167.079.432.444.73.916.751.34.016.664-.056.98-.174.152-.057.296-.131.441-.204.07-.035.14-.035.2.022.061.059.066.131.036.207-.023.059-.065.108-.118.143-.249.172-.505.334-.785.454-.391.169-.78.214-1.166-.018-.06-.036-.13-.045-.199-.05-.191-.013-.323.135-.292.333.033.206.154.337.355.391.171.046.346.049.521.03.505-.056.97-.227 1.398-.497.019-.012.037-.024.057-.032.042-.016.084-.031.124.002.039.032.037.078.029.122-.012.077-.055.137-.113.188-.177.154-.359.302-.544.444-.366.281-.774.425-1.24.381-.084-.008-.168-.018-.252-.024-.218-.019-.346.108-.327.326.019.219.206.409.438.449.174.031.343.001.508-.049.486-.149.899-.428 1.293-.738.048-.038.095-.073.153-.089.114-.033.187.015.189.135.002.121-.025.239-.102.334-.21.269-.445.516-.722.718-.335.245-.703.387-1.125.364-.142-.008-.277-.044-.413-.08-.116-.031-.203.014-.232.113-.065.22.1.514.322.567.287.071.566.02.834-.085.507-.196.914-.531 1.255-.949.046-.057.093-.111.159-.143.082-.043.126-.017.127.075.002.126-.04.241-.105.345-.216.345-.456.672-.757.949-.385.355-.833.543-1.362.518-.069-.003-.137-.017-.205-.013-.187.008-.275.139-.215.314.03.091.081.168.159.227.49.376 1.071.242 1.413-.089.526-.508 1.014-1.053 1.506-1.593.044-.049.091-.095.15-.125.119-.059.196-.027.22.103.036.194.014.386-.069.567-.136.297-.39.462-.676.588-.06.026-.119.055-.167.102-.101.098-.103.216 0 .31.124.112.268.152.425.079.403-.189.688-.491.841-.91.065-.179.113-.363.17-.545.042-.132.164-.214.275-.185.118.028.202.163.173.293-.068.31-.188.59-.461.78-.041.026-.079.06-.107.102-.054.079-.04.147.049.182.121.048.243.05.358-.028.325-.222.52-.539.668-.895.023-.054.047-.109.078-.158.031-.05.08-.082.142-.07.062.012.096.057.113.113.027.091.012.18-.016.268-.25.798-.768 1.311-1.59 1.505-.101.023-.201.047-.3.074-.118.035-.142.134-.057.221.094.097.19.19.284.287.019.018.047.03.045.067-.026.01-.052.018-.079.024-.504.133-1.008.264-1.511.399-.054.014-.093.009-.139-.023-.204-.138-.408-.277-.616-.409-.095-.06-.164-.13-.204-.241-.059-.161-.164-.222-.324-.169-.125.04-.229.023-.348-.013-.142-.044-.274-.008-.389.109.023.005.034.008.046.009.181.016.327.083.411.262.06.126.172.194.313.208.084.009.168.007.25-.019.053-.017.092-.008.133.032.123.12.251.235.376.353.004.004.003.016.002.007-.247 0-.494-.003-.74.001-.103.003-.178-.027-.256-.099-.229-.214-.469-.25-.702.006-.029.031-.063.035-.1.04-.134.018-.229.088-.281.23.188-.126.344-.043.5.054.01.008.022.011.034.016.198.081.389.086.565-.056.021-.017.044-.022.069-.021.301.02.603.037.923.059-.068.07-.143.094-.203.138-.124.092-.248.127-.412.094-.218-.047-.426.017-.541.227-.116.215-.196.444-.187.695.001.017-.006.037.014.053.027-.053.05-.107.08-.157.075-.127.165-.228.337-.167.031.012.067.009.102.009.205-.002.335-.095.375-.284.017-.086.061-.131.132-.164.051-.024.1-.052.151-.075.16-.07.328-.122.472-.227.031-.022.058-.011.088-.001l.514.174c.03.009.054.021.071.053.144.271.263.329.567.289.108-.014.212-.006.31.047.086.046.08.138.099.223.102-.138.089-.298-.037-.418-.063-.062-.117-.125-.162-.201-.085-.146-.232-.2-.387-.139-.093.038-.167.023-.249-.016-.125-.06-.244-.135-.398-.184.102-.032.181-.059.262-.08.445-.121.901-.199 1.342-.34.046-.014.075.003.108.032.119.105.237.212.359.315.107.087.188.073.263-.041.043-.065.085-.133.127-.198.169-.272.309-.563.49-.83.175-.256.369-.5.628-.675.237-.158.457-.063.515.213.05.242-.006.471-.104.692-.24.546-.63.952-1.143 1.248-.179.103-.361.149-.565.11-.131-.024-.261-.024-.386.032-.129.058-.155.153-.076.271.072.106.176.162.294.203.329.11.632.101.888-.17.062-.066.132-.123.202-.182.056-.046.12-.051.185-.017.063.036.089.093.083.165-.003.049-.025.09-.055.126-.101.12-.206.235-.324.338-.216.188-.46.31-.753.314-.068.001-.136.021-.196.057-.099.054-.115.138-.044.224.043.053.099.086.158.114.293.134.566.072.829-.085.165-.099.299-.235.433-.37.054-.056.116-.148.201-.095.083.051.061.158.035.241-.049.169-.12.328-.226.47-.107.142-.247.236-.42.28-.085.021-.173.021-.261.026-.146.01-.201.115-.13.242.014.025.03.048.049.068.192.217.497.249.726.073.231-.176.364-.423.486-.678.035-.072.066-.163.165-.154.101.009.125.102.15.182.016.048.021.098.02.148-.006.214-.072.404-.191.579-.107.159-.243.295-.387.42-.041.034-.047.06-.017.107.351.527.7 1.057 1.047 1.586.03.046.046.038.07-.002.065-.104.13-.206.198-.308.279-.422.557-.844.839-1.265.038-.056.035-.086-.018-.129-.1-.081-.188-.174-.273-.272-.181-.212-.297-.452-.295-.738 0-.094.022-.182.079-.256.056-.074.126-.076.189-.008.032.036.051.079.071.121.122.255.256.502.49.674.244.179.592.118.753-.127.091-.141.033-.267-.132-.265-.416.006-.668-.213-.819-.578-.044-.105-.099-.21-.087-.331.004-.043.006-.091.05-.114.049-.026.093.002.126.033.076.07.147.145.223.215.194.184.406.332.679.372.204.029.393-.012.555-.142.126-.102.106-.22-.042-.279-.052-.019-.108-.037-.164-.038-.499-.017-.808-.332-1.094-.685-.063-.079-.045-.182.021-.238.068-.06.155-.053.236.019.094.082.186.167.282.246.082.067.171.123.281.138.211.03.409-.011.603-.094.077-.033.136-.086.186-.151.095-.126.065-.227-.079-.288-.127-.055-.257-.048-.387-.026-.189.035-.367.004-.53-.1-.122-.08-.25-.154-.366-.243-.412-.311-.705-.713-.866-1.204-.061-.186-.087-.38-.019-.57.073-.206.249-.275.444-.179.067.032.129.076.183.129.189.183.368.374.511.596.21.325.378.675.595.997.09.134.167.144.29.038.113-.097.227-.194.338-.296.038-.036.073-.049.124-.032.315.1.639.169.961.243.205.047.409.098.627.174-.17.05-.297.143-.441.202-.061.024-.113.029-.178.002-.16-.065-.308-.024-.396.112-.057.088-.119.163-.192.238-.115.117-.119.281-.024.394.033-.256.157-.259.368-.266.031-.001.061.008.093.012.236.034.409-.058.508-.275.02-.045.049-.065.093-.081.146-.046.292-.091.434-.145.082-.031.147-.036.225.021.07.05.155.079.234.114.121.053.243.097.356.166.047.028.077.059.089.121.035.188.139.276.329.303.079.012.157.004.232-.017.066-.018.107.006.15.044.092.08.141.187.194.292.01-.045.01-.087.01-.131 0-.16-.063-.305-.109-.453-.092-.289-.287-.441-.586-.391-.204.033-.352-.027-.505-.129-.044-.029-.099-.045-.134-.103.309-.019.604-.039.9-.059.028-.001.054-.002.079.017.21.172.436.145.646.019.148-.09.285-.109.439-.039.004.002.01-.005.019-.01-.041-.091-.114-.17-.232-.187z"/><path fill-rule="evenodd" clip-rule="evenodd" fill="#E41E20" d="M20.308 10.618c.086-.053.183-.059.28-.059.09 0 .18.008.261.055.097.055.099.133.008.198-.124.089-.427.092-.556.005-.089-.06-.086-.143.007-.199zm-4.732.204c-.175.085-.355.083-.531-.004-.043-.021-.079-.056-.078-.108.002-.054.042-.082.084-.103.08-.04.167-.05.221-.048.128 0 .221.006.305.055.102.06.105.157-.001.208z"/></svg>