<svg xmlns="http://www.w3.org/2000/svg" viewBox="0 0 36 36"><path fill="#4997D0" d="M32 5h-8v26h8c2.209 0 4-1.791 4-4V9c0-2.209-1.791-4-4-4zM4 5C1.791 5 0 6.791 0 9v18c0 2.209 1.791 4 4 4h8V5H4z"/><path fill="#EEE" d="M12 5h12v26H12z"/><path fill="#437E24" d="M22.658 18.736c.113-.242.097-.396-.034-.259-.115.12-.283.162-.492.31l.017-.059c.183-.346.579-.179.813-.731.041-.102.25-.211-.035-.194-.204.012-.461.133-.647.393.142-.386.484-.189.624-1.119.025-.171.045-.52-.068-.234-.046.114-.156.228-.272.364.038-.192.025-.359-.015-.486.072-.111.137-.225.155-.357.031-.227-.023-.428-.109-.189-.03.086-.087.142-.147.2-.022-.08-.043-.108-.105 0-.065.112-.1.255-.12.414l-.002.01c-.015-.084-.035-.167-.054-.249.046-.312.527-.303.36-1.311-.039-.244-.057-.315-.143-.012-.08.281-.328.304-.34.866l-.021-.065c-.055-.539.314-.99.035-1.452-.148-.246-.227-.268-.211-.068.019.233-.121.48-.095.819l-.01-.022c-.059-.417.091-.543-.078-.814-.088-.138-.219-.32-.185-.092.007.046.011.1.016.156-.054-.236-.258-.381-.516-.464-.244-.079-.17.037-.08.131.128.137.095.305.254.512-.172-.083-.321-.091-.42-.215-.195-.241-.094.067-.047.206.095.272.254.418.438.511-.018.02-.01.09.042.236.064.18.143.314.228.422-.064-.04-.122-.084-.165-.148-.205-.303-.285-.337-.246.024.035.313.168.48.329.59.002.063.025.151.089.243.114.165.234.234.345.276.055.128.085.247.114.37-.007-.005-.012-.014-.02-.019-.307-.217-.23-.092-.205.097.115.891.537.585.451 1.16-.012.053-.024.104-.038.155.015-.331-.138-.518-.264-.664-.174-.201-.234-.143-.148.229.02.087.04.195.057.309l-.004-.012c-.174-.351-.225-.25-.209.017.02.257-.197.359-.057.852.042.144.063.421-.077.633l-.024.032c.308-.569-.064-.739-.03-.911.041-.195-.01-.229-.119.012-.125.278-.099.474-.061.64-.023.013-.04.02-.07.04-.099.067-.179.132-.246.194.009-.054.024-.106.029-.16.025-.255-.045-.38-.154-.104-.137.339-.383.332-.539.841-.123.411-.214.494-.405.575l-.028.012c.289-.224.448-.525.491-.875.045-.388-.051-.332-.182-.098-.125.225-.363.192-.514.683-.047.152-.158.385-.45.491.395-.281.568-.745.522-1.023-.021-.138-.086-.223-.148.005-.074.28-.279.212-.445.743-.085.27-.159.325-.513.485l.052-.01c-.207.084-.387.171-.537.26-.141-.085-.316-.168-.517-.249l.029.005c-.35-.159-.424-.213-.508-.48-.162-.525-.367-.457-.44-.733-.06-.227-.124-.143-.146-.007-.046.274.125.731.511 1.009-.285-.106-.394-.334-.441-.483-.148-.485-.383-.452-.507-.674-.129-.232-.225-.287-.179.096.041.345.198.643.483.864l-.06-.025c-.165-.078-.251-.173-.367-.554-.152-.504-.396-.496-.532-.83-.11-.272-.177-.15-.151.102.005.054.019.106.029.159-.066-.062-.145-.126-.243-.192-.03-.02-.047-.027-.07-.04.037-.164.063-.359-.061-.634-.108-.236-.158-.203-.119-.012.035.173-.335.34-.024.908l-.023-.03c-.146-.211-.123-.489-.083-.635.139-.486-.074-.587-.056-.841.018-.265-.034-.364-.205-.017l-.005.014c.017-.114.037-.221.057-.307.085-.368.023-.425-.146-.226-.125.145-.277.33-.262.657-.014-.051-.026-.103-.038-.156-.084-.566.332-.266.447-1.146.024-.187.101-.311-.204-.096-.008.005-.013.014-.02.019.029-.122.059-.24.115-.367.11-.042.228-.11.341-.273.063-.092.086-.178.087-.241.158-.109.289-.275.323-.584.04-.355-.039-.322-.241-.023-.043.063-.1.107-.163.146.083-.107.162-.238.225-.416.05-.144.058-.214.04-.234.183-.093.341-.237.433-.506.047-.138.146-.441-.046-.204-.099.123-.245.131-.415.213.158-.204.125-.371.251-.507.088-.094.163-.208-.078-.13-.257.082-.458.226-.512.459.005-.055.009-.109.016-.154.034-.226-.097-.045-.181.09-.168.268-.022.393-.077.803l-.011.025c.026-.336-.113-.58-.095-.811.016-.197-.061-.175-.207.068-.275.455.087.9.036 1.431l-.02.063c-.015-.551-.26-.573-.337-.851-.086-.3-.102-.229-.142.012-.164.996.312.987.356 1.296-.019.082-.038.164-.053.247l-.003-.014c-.007-.054-.022-.099-.034-.147l-.004-.011c-.022-.087-.042-.177-.081-.246-.061-.107-.081-.079-.103 0-.059-.057-.115-.112-.145-.198-.084-.237-.139-.038-.108.187.018.13.082.243.153.353-.039.126-.052.292-.014.482-.115-.135-.223-.248-.268-.361-.113-.282-.093.062-.068.232.138.922.477.724.617 1.108-.184-.259-.437-.379-.64-.391-.282-.017-.076.092-.034.192.231.547.621.382.802.723l.017.059c-.207-.147-.371-.189-.485-.308-.13-.135-.145.018-.033.257-.122.014-.252.024-.334-.003-.102-.034-.102.119.181.238.129.054.333.138.529.234.145.109.29.183.415.297-.389-.28-.682-.145-.9-.272-.271-.157-.124.089-.049.164.764.765.884.187 1.307.593-.066-.03-.137-.053-.217-.063-.339-.039-.46-.089-.283.125.211.256.384.38.536.448-.1-.001-.197.004-.286.022-.218.046-.143.086.004.13.18.054.294.18.494.262h-.002c-.328.102-.384.14-.135.263.425.213.722.219.958.18-.114.036-.217.086-.305.151-.18.133-.131.183.023.158.291-.047.472.04.712.04-.146.107-.268.228-.487.293-.147.044-.195.126.045.148.917.078 1.15-.496 1.588-.49.224.069.434.151.633.284-.06.046-.124.093-.159.136.011.103.247.052.271.109.03-.032.062-.055.093-.083.031.028.062.051.093.083.023-.057.219-.039.23-.141-.027-.034-.08-.069-.122-.104.204-.137.417-.22.646-.291.443-.006.679.575 1.606.496.242-.022.195-.105.047-.15-.222-.065-.346-.188-.494-.296.243.001.427-.087.721-.04.156.024.205-.026.022-.161-.088-.066-.193-.116-.308-.153.239.039.54.034.97-.182.252-.124.195-.163-.135-.266h-.002c.202-.083.317-.21.498-.265.15-.045.225-.085.004-.131-.089-.019-.188-.024-.289-.023.154-.069.33-.195.545-.454.176-.217.055-.165-.287-.126-.083.01-.156.033-.224.065.431-.415.55.174 1.326-.602.074-.073.223-.324-.051-.164-.221.129-.52-.011-.919.283.129-.121.281-.196.431-.31.197-.097.402-.181.533-.236.287-.121.287-.274.182-.24-.081.031-.211.021-.335.007zm-6.94 2.353l.105.066c-.113-.051-.244-.1-.385-.143.079.003.171.021.29.088l-.01-.011zm1.23.324l-.053-.016.037.006.016.01zm-2.118-1.441c.009.014.011.022.021.038.086.134.1.272.183.435-.039-.035-.078-.07-.116-.107-.106-.128-.113-.242-.088-.366zm-.165-4.493c-.112.149-.297.172-.469.314.099-.172.228-.333.39-.376.063-.017.124-.039.184-.063-.029.031-.063.07-.105.125zm-.17 4.54l.016.018-.012-.007-.004-.011zm1.136 1.362c.172-.035.315-.08.455-.072l.059.03c-.186-.009-.36.002-.514.042zm5.937-6.252s-.001 0 0 0c-.001 0 0 0 0 0zm-.253.275c-.043-.056-.077-.096-.108-.127.06.025.122.046.186.064.164.044.295.207.394.38-.173-.143-.359-.167-.472-.317zm-.779 5.594c-.142.043-.274.092-.388.143l.098-.062-.005.006c.122-.066.215-.084.295-.087zm.59-1.013l.022-.039c.025.125.019.24-.088.369-.039.038-.079.075-.12.11.085-.165.099-.304.186-.44zm-2.104 1.409l.042-.007-.061.019c.006-.003.013-.007.019-.012zm.798-.066l.062-.031c.146-.007.294.042.476.077-.16-.043-.343-.054-.538-.046zm1.65-1.314l.015-.018-.003.01c-.005.002-.008.006-.012.008z"/><path fill="#B1B6BA" d="M16.595 18.422s-.763.686-.857.779c-.093.093-.187.499-.187.499l.249.155 1.107-1.137-.312-.296z"/><path fill="#6C301E" d="M15.536 19.685l.234.186s-.203.202-.234.405-.577.825-.686.981c-.109.157-.25.124-.312 0-.061-.124-.201-.218-.217-.311-.017-.093.343-.421.514-.607.17-.188.357-.265.451-.373.094-.111.25-.281.25-.281zm1.107-1.092l-.473.529.126.126.455-.515z"/><path fill="#B1B6BA" d="M14.46 13.981l1.512 1.573.374-.187-.117-.169-.257.06z"/><path fill="#FAB81B" d="M16.346 20.524l.187.313.17-.157s.138.25 0 .296c-.139.048-.242 0-.242 0l-.474.387s-.187-.113-.343 0c0 0 .032-.229.126-.229.093 0 .434-.452.434-.452s-.181-.051-.144-.157c.037-.108.286-.001.286-.001z"/><path fill="#B1B6BA" d="M16.346 20.65s2.773-2.758 3.927-2.862c0 0-.873.531-1.418.967-.546.437-2.321 2.083-2.321 2.083l-.188-.188z"/><path fill="#B1B6BA" d="M19.493 18.422s.764.686.855.779c.094.093.188.499.188.499l-.248.155-1.107-1.137.312-.296z"/><path fill="#6C301E" d="M20.552 19.685l-.234.186s.203.202.234.405.578.825.686.981c.109.157.25.124.312 0s.201-.218.217-.311c.018-.093-.344-.421-.514-.607-.17-.188-.357-.265-.451-.373-.094-.111-.25-.281-.25-.281zm-1.108-1.092l.473.529-.125.126-.455-.515z"/><path fill="#B1B6BA" d="M18.785 16.264l-.176.498 1.505-1.504-.231-.042z"/><path fill="#B1B6BA" d="M21.626 13.981l-1.512 1.573-.373-.187.373-.109z"/><path fill="#FAB81B" d="M19.741 20.524l-.185.313-.17-.157s-.139.25 0 .296c.137.048.242 0 .242 0l.473.387s.188-.113.342 0c0 0-.031-.229-.125-.229s-.434-.452-.434-.452.18-.051.143-.157c-.036-.108-.286-.001-.286-.001z"/><path fill="#B1B6BA" d="M19.741 20.65s-2.773-2.758-3.926-2.862c0 0 .874.531 1.418.967.546.437 2.322 2.083 2.322 2.083l.186-.188z"/><path fill="#F9F0AA" d="M16.367 15.164c.453-.026 1.76.016 2.244 0 .482-.015.373.234.404.375.031.14-.263.296-.263.296s.31.187.716 1.278c.404 1.091.31 1.588-.234 1.621-.544.031-1.947.125-2.416.125-.467 0-.545-.171-.545-.421 0-.249.374-.624.748-.411 0 0 0-.166-.218-.789s-.686-1.293-.732-1.589c-.048-.298.062-.471.296-.485z"/><path fill="#437E24" d="M17.738 14.089c-.187-.172.073-.359.263-.343.188.016.282.124.08.343 0 0 .546.296.981.701.436.405 1.332 1.498 1.418 2.68.109 1.527-.732 2.321-1.045 2.866-.311.546-1.011 1.917-1.011 1.917s-.016-.701.904-1.979c0 0-.716 1.278-1.823 1.512 0 0 1.385-.976 1.774-1.756.389-.778.957-1.949.865-2.759-.094-.811-.24-1.499-1.315-2.03 0 0-.681-.038-.981-.28-.484-.389-.11-.872-.11-.872z"/><path fill="#E2CF81" d="M18.751 15.835c0 .047.202.3.175.3h-2.381c-.026 0-.16-.165-.16-.212l-.182-.213c.142.055.315 0 .341 0h2.38c.028 0-.173.077-.173.125zm-1.729 2.758c0 .047-.1.201-.073.201h2.381c.025 0 .245-.165.245-.212l.096-.212c-.142.055-.315 0-.341 0h-2.381c-.026 0 .073.175.073.223z"/></svg>