<svg xmlns="http://www.w3.org/2000/svg" viewBox="0 0 36 36"><path fill="#EEE" d="M36 27c0 2.209-1.791 4-4 4H4c-2.209 0-4-1.791-4-4V9c0-2.209 1.791-4 4-4h28c2.209 0 4 1.791 4 4v18z"/><g fill-rule="evenodd" clip-rule="evenodd" fill="#5C913B"><path d="M12.974 22.148c.013.061-.008.072-.073.053-.355-.1-.67-.26-.891-.568-.073-.1-.12-.213-.148-.334-.013-.059-.002-.09.068-.072.411.101.739.324.97.682.045.07.072.15.074.239zm8.469.069c-.021-.111.008-.213.064-.303.23-.363.562-.584.977-.69.073-.018.075.021.063.074-.052.236-.184.422-.366.572-.215.177-.464.284-.738.347zm.95.23c-.007.039-.031.068-.059.092-.294.269-.632.418-1.038.379-.102-.01-.193-.053-.278-.113-.045-.031-.042-.053-.001-.088.148-.127.319-.207.505-.256.255-.066.514-.084.776-.041.033.004.065.01.095.027zm-9.954-.049c.276.004.584.061.858.244.05.033.133.07.128.119-.006.057-.09.084-.149.109-.168.074-.341.072-.515.031-.262-.062-.499-.174-.689-.369-.023-.023-.059-.051-.046-.084.01-.025.053-.023.083-.029.094-.019.189-.021.33-.021zm1.091-.384c0 .094-.012.184-.044.271-.019.051-.042.059-.087.025-.142-.105-.227-.25-.285-.412-.096-.267-.141-.541-.072-.822.024-.098.035-.1.104-.027.256.271.36.601.384.965zm7.35-.03c.028-.338.13-.666.383-.932.073-.078.087-.076.106.027.079.412.004.793-.25 1.131-.039.053-.099.131-.154.115-.066-.018-.062-.115-.074-.184-.01-.043-.007-.09-.011-.157zm-2.228.62c.032.551-.229.947-.604 1.303-.119-.432.093-1.097.604-1.303zm-2.282 1.314c-.362-.352-.628-.723-.614-1.236.002-.076.026-.078.085-.043.35.209.508.529.546.92.012.111.011.224-.017.359zm3.627-1.908c.067.193.059.387.02.582-.048.24-.143.457-.325.629-.09.084-.104.082-.151-.035-.059-.146-.053-.297-.016-.445.066-.266.2-.494.399-.682.014-.014.027-.025.042-.037l.031-.012zm-5.59-.008c.333.223.567.764.488 1.1-.015.066-.028.156-.085.174-.053.016-.105-.062-.145-.111-.28-.341-.351-.725-.258-1.163zm5.622 1.43c.326.02.607.137.824.391.07.082.065.09-.041.119-.271.074-.522.006-.766-.107-.135-.064-.258-.144-.366-.246-.045-.041-.044-.066.016-.09.107-.042.216-.069.333-.067zm-5.644.002c.106-.002.208.018.306.057.093.037.097.049.023.111-.208.182-.446.303-.718.353-.135.025-.269.023-.401-.016-.103-.029-.107-.035-.036-.119.163-.197.38-.307.625-.365.066-.015.134-.021.201-.021zm5.786.826c-.384.185-.944.174-1.219-.254-.038-.062-.028-.082.038-.098.456-.105.84.03 1.181.352zm-5.928.004c.209-.223.46-.342.752-.383.139-.02.276-.012.412.023.096.023.098.029.043.109-.189.277-.46.377-.782.357-.144-.007-.285-.034-.425-.106zm1.399-.922c-.004.088-.019.158-.045.228-.021.057-.045.062-.091.024-.167-.139-.278-.316-.358-.516-.082-.203-.147-.41-.11-.635.005-.027.005-.066.028-.074.032-.014.051.025.071.045.22.217.406.453.483.76.009.035.013.07.018.108l.004.06zm3.128.004c-.001-.146.043-.283.11-.414.102-.201.245-.373.407-.531.048-.045.069-.049.084.023.033.156.005.307-.037.455-.076.266-.195.508-.407.697-.078.068-.085.064-.122-.031-.025-.065-.034-.131-.035-.199zm.662 1.398c-.199.014-.401.021-.6-.035-.272-.078-.442-.269-.564-.514-.018-.035-.02-.057.031-.057.471.002.845.195 1.127.566.006.006.008.016.012.025 0 .003-.003.007-.006.015zm-4.471.008c.061-.125.141-.201.227-.272.259-.213.55-.344.893-.342.058 0 .087.004.051.072-.174.344-.445.533-.834.539-.107.005-.214.003-.337.003zm5.395-1.932c-.132-.195-.142-.402-.091-.615.053-.228.169-.426.323-.602.042-.049.063-.041.091.01.072.133.082.273.06.42-.046.301-.177.557-.383.787zm-6.583-1.255c.311.269.553.887.286 1.244-.348-.266-.511-.977-.286-1.244zm-.502 1.863c-.141-.004-.306-.02-.451-.113-.092-.059-.09-.067-.011-.135.18-.158.393-.178.616-.145.17.025.335.074.501.117.057.016.056.035.023.074-.075.084-.175.121-.279.152-.121.036-.246.05-.399.05zm7.841 0c-.179-.004-.345-.023-.501-.098l-.05-.025c-.05-.029-.12-.062-.117-.119.003-.051.083-.043.13-.055.217-.057.432-.123.66-.105.14.012.261.064.367.154.08.068.081.076-.011.135-.148.095-.316.109-.478.113z"/><path d="M18.027 24.555c-.25-.061-.502-.121-.752-.184-.049-.012-.095-.012-.144 0-.25.064-.502.123-.755.18.158-.125.338-.205.551-.27l-.815-.283c.1-.016.165.016.231.033.262.068.526.125.792.176.114.021.22-.016.328-.037.319-.062.635-.145.952-.225-.299.125-.608.223-.936.334.208.067.389.143.548.276z"/></g><path fill-rule="evenodd" clip-rule="evenodd" fill="#F4900C" d="M25.774 11.114l-.149.073c-.268.126-.521.299-.838.278-.03-.002-.065.014-.071.048-.021.1-.097.112-.176.113-.153.003-.267.067-.356.193-.099.138-.224.244-.398.281-.056.012-.108.044-.157.074-.145.088-.299.129-.467.112-.055-.006-.091.011-.124.056-.077.103-.162.202-.244.301-.045.053-.094.106-.161.119-.224.044-.402.181-.596.286-.362.196-.726.39-1.132.485-.168.039-.346.087-.51.043-.135-.036-.218.009-.309.075-.056.039-.11.08-.158.127-.189.184-.409.266-.673.232-.049-.007-.098-.006-.143.019-.22.12-.468.123-.706.169-.108.022-.219-.017-.322.008-.246.057-.487-.01-.726-.032-.177-.017-.351-.058-.53-.029-.109.018-.202-.009-.282-.081-.078-.07-.157-.075-.245-.024-.075.044-.155.047-.23.007-.088-.046-.174-.048-.267-.022-.113.031-.229.052-.345.014-.271-.087-.551-.151-.811-.271-.125-.058-.125-.054-.113.088.014.165.071.323.065.492-.008.231-.018.461-.036.692-.026.343-.204.574-.498.735-.111.061-.21.061-.322.007-.204-.1-.405-.206-.619-.286-.273-.102-.541-.127-.816-.008-.094.041-.175.129-.294.099-.007-.002-.02.013-.028.021-.096.1-.196.197-.233.337-.054.201-.142.373-.344.475-.111.056-.202.15-.317.204-.158.074-.351.086-.465-.018-.135-.124-.333-.198-.396-.397-.012-.037-.055-.065-.08-.009-.054.124-.106.252-.042.39.047.101.097.2.175.28.024.025.039.055.046.089.023.116.031.233.002.348-.017.068-.006.126.03.184.026.042.074.102.051.132-.092.118-.006.192.048.277.004.008.01.017.01.026-.004.138.095.187.199.233.062.028.125.059.147.131.059.192.085.393.153.585.023.065.038.11.1.145.141.078.291.143.378.297.041.072.135.094.223.084.034-.004.076-.018.094.014.042.068.109.068.17.062.143-.016.244.045.325.154.042.057.096.092.163.113.146.049.292.098.431.162.083.039.164.053.243-.01.021-.016.045-.018.07-.014.134.025.248-.014.349-.104.041-.037.091-.062.144-.037.089.041.173.021.261 0 .097-.025.199-.033.288.018.166.094.27.248.372.404.066.1.065.209.046.32-.007.039.007.045.042.047.191.014.383.031.579.049-.017-.065-.064-.107-.098-.156-.075-.113-.123-.236-.079-.367.076-.227.24-.391.449-.49.088-.043.183-.08.272-.123.25-.123.507-.108.766-.033.136.039.297-.012.382-.119.017-.022.041-.029.064-.031.07-.01.143-.021.211 0 .073.025.132.025.186-.043.024-.029.069-.037.11-.035.027 0 .051 0 .074-.025.063-.074.151-.102.243-.123.021-.004.043-.002.059-.021.135-.169.331-.215.529-.255.071-.015.12-.044.161-.104.145-.21.289-.263.536-.198.062.017.078-.005.093-.057.026-.094.068-.182.155-.232.049-.028.061-.062.061-.111.001-.142.003-.284.006-.425.007-.328.248-.499.498-.539.153-.024.308-.007.461-.004.106.003.2.031.287.088.079.053.151.115.231.168.078.054.158.049.242.003.072-.04.105-.092.083-.174-.013-.051.013-.066.06-.063.071.005.153.023.209-.016.13-.088.262-.044.393-.035.05.003.102.002.144.028.108.07.249.063.351.149.007.006.021.001.056.001-.053-.028-.048-.058-.04-.093.018-.082 0-.161-.048-.229-.079-.113-.221-.179-.243-.336-.005-.03-.056-.056-.087-.08-.061-.047-.124-.091-.186-.137-.037-.028-.075-.06-.085-.106-.037-.181-.162-.298-.286-.418-.242-.235-.345-.517-.288-.855.018-.11.029-.224.104-.31.066-.076.145-.137.138-.25-.001-.013.011-.031.021-.039.131-.108.259-.219.45-.18.082.017.167.017.248.003.109-.017.194-.073.225-.191.016-.062.028-.129.062-.183.177-.289.435-.501.713-.683.114-.075.253-.125.38-.186.081-.038.16-.083.249-.095.057-.008.092-.034.126-.077.158-.207.328-.401.597-.471.074-.019.109-.084.136-.153.033-.09.065-.188.148-.24.259-.163.482-.398.815-.416.072-.003.111-.044.129-.112l.07-.277c.003-.004.011-.01.01-.012-.011-.007-.02-.002-.028.003z"/></svg>