<svg xmlns="http://www.w3.org/2000/svg" viewBox="0 0 36 36"><path fill="#FF4E11" d="M1.193 29.846C1.915 30.558 2.905 31 4 31h28c2.209 0 4-1.791 4-4V9c0-.896-.305-1.714-.803-2.381L1.193 29.846z"/><path fill="#FFD521" d="M32 5H4C1.791 5 0 6.791 0 9v18c0 1.114.458 2.121 1.193 2.846L35.197 6.619C34.468 5.642 33.313 5 32 5z"/><path fill="#FFF" d="M31.925 10.479c-.361.024-.554.289-.771.289h-.386s.312-.434.482-.554c.168-.121.794-.169.939-.289.144-.121.168-.289.168-.289-.313.217-1.036.096-1.348.168-.312.072-.579.41-.579.41s.361-.723.458-1.037c.096-.313.096-.843.482-1.132.385-.289.145-.651.145-.651s-.097.241-.361.458c-.265.217-.53.193-.506.603.025.409.048.409-.144.602s-.192.144-.506.675c-.313.53-.458-.024-1.133.217s-.988-.434-1.517-.361c-.53.072-1.783-.17-2.288-.338-.507-.169-.241-.386-1.471-.963-1.228-.579-2-.024-1.518-.049.238-.012.605.082.915.18-.386-.028-.698.133-.698.133s.675.192 1.229.674c.554.482 0 .434-.723 0s-1.493-.53-2.144-.458c-.65.072-.481.289-.12.265.361-.024 1.181.217 1.832.458.649.241-.049.29-.049.29-1.422-.844-2.048-.169-1.663-.314.387-.145.819.193 1.494.555s-.963.145-.963.145-.747-.313-1.471-.386c-.723-.072-1.276.626-1.036.963.241.337.698.144.698.144-.518-.15-.361-.53-.023-.626.337-.096 1.639.241 2 .386.361.144.506.699-.481.24-.988-.458-.627.073-.627.073-.964-.073.434.554-.169.386-.602-.169-1.301.072-1.879.072-.578 0-.795.627-.795.627s.337-.193.759-.338c.422-.144 1.602.145 1.602.145-.481.482-.458 1.373-.458 1.373-.505.12-.987 1.036-.987 1.036.192-.313.867-.41.867-.41s.12.265-.192.651c-.313.385-.217.867-.217.867s.144-.385.338-.578c.191-.193.674-.169.674-.169-.217.506.603.819.603.819-.241.433.218.916.144.892-.071-.024-.844.24-.844.24s1.062.024.506.169c-.554.144-1.565-.434-1.565-.434l-1.18-.53s.506.482-.072.41c-.579-.072-1.157.217-1.663-.12-.506-.338-1.35-.531-1.181-.217.168.314.41.626.41.626-.915-.193-.458.626-1.132.555-.675-.073-.121.578-.771.385-.651-.193-1.277.53-1.277.53.217-.121.915.072.915.072-.265.096-.144.601-.144.601-.627.167-.458 1.11-.458 1.11-.53 0-.626.36-.843.601-.216.241-.723.241-.723.241.354.275 1.051.087 1.3.008-.228.148-.192.811-.192.811-.434.072-.048.723-.144.65-.097-.072-.337.097-.578.289-.241.193-.554.241-.554.241.168.217.554.241.554.241s-.29.554-.651.675c-.361.119-1.373.36-1.638.385-.265.024-.843 0-1.373-.145-.53-.144-1.084 0-1.518-.049-.434-.048-.699.386-.699.386s.361-.12.674-.048c.313.072.41.361.747.217.337-.145 1.036.193 1.036.193s-.241.144-.578.265c-.337.12-.795.264-1.181.337-.385.072-.843.627-.53.361.313-.265.505-.048.939-.121.435-.072.844-.096.844-.096s-.289 0-.506.265c-.217.266-.819.507-1.157.507-.337 0-.891.169-1.205.578-.313.41-.699.482-.699.482s.241.265.603 0c.361-.266.434-.386.964-.482.53-.097 1.084-.289 1.084-.289-.289.241-.458.53-.939.602-.482.073-1.229.65-1.518.94-.289.289-.795.507-.795.507.481.289.723-.072 1.229-.361.506-.289.771-.097 1.374-.266.602-.169.53-.674.722-.698.193-.023.699 0 .844-.241.145-.24.048-.433.41-.433.361 0 .505-.169.505-.169-.145.312-.505.578-.505.578.434.12.771-.289 1.205-.555.434-.265.723-.265.723-.265s-.265.458-.554.506c-.29.048-.627.555-.627.555.193-.41 1.108-.338 1.446-.627.337-.289.795-.772 1.084-.94.289-.169.578-.529 1.084-.987.506-.458 1.397-.361 1.397-.434 0-.072-.024.674-.024.674l-.843.073.53.385c-.337-.145-.819.53-.819.53l.834-.097.178.483c.265-.556.458-.435.458-.435.289.337.313 1.108.313 1.108s-.385-.097-.819.409c-.434.507.361 1.47.361 1.47s-.145.217 0 .627c.144.409.891.843 1.638.602.747-.241.675-1.252.675-1.252s.265-.266.216-.796c-.048-.53-.289-.818-.289-.818s.458-.169.747.144c.289.312.361 1.035.361 1.035s.289-1.349-.144-1.685-1.494-.313-1.494-.313c-.024-.555-.506-.868-.627-1.229-.121-.361.072-1.253.072-1.253l.602.049s-.048.217.385.53c.434.312 1.132.096 1.132.096s.795.072 1.181-.626c.385-.698-.337-1.253-.337-1.253-.12-1.108-1.759-.481-1.759-.481.169-.747.892-.747.892-.747s-.843-.435-1.325-.266c-.482.169-.314 1.374-.699 1.326s-.434-1.23-.121-2.146c.313-.915 1.903-.963 3.421-.36 1.517.601 3.662.722 3.662.722-.071.289-.457.724-.457.724l-.675-.266.409.507c-.145.361-.53.626-.53.626.409.289.867-.289.867-.289l.169.699.41-.578s.842.602 1.541.866c.698.266 2.049.507 2.049.507s-.458.217.023.987c.482.771 1.59.987 1.59.987s.844.386 1.613-.289c.772-.675.145-1.903.145-1.903 0-1.42-1.517-.975-1.517-.975.312-.614 1.048-1.025 1.048-1.025-1.193-.698-1.698.676-2.59.965-.892.289-2.458-.555-2.529-.555-.073 0 .047-.145.071-.458.024-.312.747-.915 1.108-1.662.362-.747.266-1.976.266-1.976.481-.481 1.133-.121 1.133-.121-.024.506-.338.723-.338.723.361.024.53-.314.53-.314-.169.53.386 1.157.386 1.157l.168-.82.506.579-.312-1.06c.963 0 1.975-.699 1.975-.699s.482.699 1.446.699c.963 0 1.927-1.036 1.927-1.494 0-.458-.867-1.108-.867-1.108s.337-.771-.939-.771-1.662 1.555-1.662 1.555-.531-.229-1.254-.038c-.722.193-1.902-.409-2.625-.77-.724-.361-1.735-1.35-1.735-1.35 0-.337.188-.868.188-.868s1.04.073.728.193c-.314.121-1.132.362-.481.41.649.048 1.276-.217 1.083 0-.192.217-.915.723-.626.723s.675-.362.868-.41c.192-.048.529.072 1.012.072.128 0 .263-.074.392-.179.496.235 1.23.934 1.583 1.287.434.433.698-.145.892-.409.111-.153-.194-.44-.523-.699.055-.068.111-.135.161-.193.026-.03.069-.051.108-.074l.553.2c.003.418-.01.983-.01.983.266-.189.278-.569.283-.889.379.131.711.231.923.238.698.024 1.155-.217 1.806-.289.65-.072.698.531.698.531s.266-.193-.12-.579c-.385-.386-.892-.361-.892-.361 0-.555-.669-.53-.669-.53.56.313-.005.65-.005.65.072-.313-.627-.504-.627-.504s.458.215.17.479c-.18.165-.428.164-.737.117.036-.166.1-.419.205-.647.17-.361-.12-.722-.12-.722l.313-.579s1.036-.169 1.324-.313c.29-.145.578-.266 1.301-.241.724.024.893-.385.893-.385-.316.196-1.232-.068-1.593-.044zm-4.794 1.566c.241-.168.386-.024.386-.024l.19.434.243-.53.337.265-.191.337.723-.096-.072.241s-.257.231-.509.434c-.499-.155-1.079-.374-1.494-.598.079-.134.225-.35.387-.463zm.818 1.276c-.074.049-.125.114-.161.184-.183-.137-.355-.258-.44-.328-.081-.066-.189-.127-.307-.186.306.078.629.181.955.296l-.047.034zm.69-.099c.073-.013.129-.021.129-.021l.003.053c-.043-.01-.084-.019-.132-.032zm.445.099c.066-.273.288-.433.288-.433-.01.191.022.358.059.5l-.347-.067z"/></svg>