<svg xmlns="http://www.w3.org/2000/svg" viewBox="0 0 36 36"><path fill="#EEE" d="M32 5H20.5v10.5H36V9c0-2.209-1.791-4-4-4z"/><path fill="#E8112D" d="M20.5 5h-5v10.5H0v5h15.5V31h5V20.5H36v-5H20.5z"/><path fill="#E8112D" d="M28.915 9.585c.031-.623.104-1.244.221-1.86-.588.073-1.183.073-1.77 0 .117.615.19 1.237.221 1.86-.623-.031-1.244-.104-1.86-.221.073.588.073 1.183 0 1.77.615-.117 1.237-.19 1.86-.221-.031.623-.104 1.244-.221 1.86.588-.073 1.183-.073 1.77 0-.117-.615-.19-1.237-.221-1.86.623.031 1.244.104 1.86.221-.073-.588-.073-1.183 0-1.77-.616.118-1.237.191-1.86.221z"/><path fill="#EEE" d="M15.5 5H4C1.791 5 0 6.791 0 9v6.5h15.5V5z"/><path fill="#E8112D" d="M8.415 9.585c.031-.623.104-1.244.221-1.86-.588.073-1.183.073-1.77 0 .117.615.19 1.237.221 1.86-.623-.031-1.244-.104-1.86-.221.073.588.073 1.183 0 1.77.615-.117 1.237-.19 1.86-.221-.031.623-.104 1.244-.221 1.86.588-.073 1.183-.073 1.77 0-.117-.615-.19-1.237-.221-1.86.623.031 1.244.104 1.86.221-.073-.588-.073-1.183 0-1.77-.616.118-1.237.191-1.86.221z"/><path fill="#EEE" d="M36 27v-6.5H20.5V31H32c2.209 0 4-1.791 4-4z"/><path fill="#E8112D" d="M28.915 26.415c.031.623.104 1.244.221 1.86-.588-.073-1.183-.073-1.77 0 .117-.615.19-1.237.221-1.86-.623.031-1.244.104-1.86.221.073-.588.073-1.183 0-1.77.615.117 1.237.19 1.86.221-.031-.623-.104-1.244-.221-1.86.588.073 1.183.073 1.77 0-.117.615-.19 1.237-.221 1.86.623-.031 1.244-.104 1.86-.221-.073.588-.073 1.183 0 1.77-.616-.118-1.237-.191-1.86-.221z"/><path fill="#EEE" d="M15.5 20.5H0V27c0 2.209 1.791 4 4 4h11.5V20.5z"/><path fill="#E8112D" d="M8.415 26.415c.031.623.104 1.244.221 1.86-.588-.073-1.183-.073-1.77 0 .117-.615.19-1.237.221-1.86-.623.031-1.244.104-1.86.221.073-.588.073-1.183 0-1.77.615.117 1.237.19 1.86.221-.031-.623-.104-1.244-.221-1.86.588.073 1.183.073 1.77 0-.117.615-.19 1.237-.221 1.86.623-.031 1.244-.104 1.86-.221-.073.588-.073 1.183 0 1.77-.616-.118-1.237-.191-1.86-.221z"/></svg>