<svg xmlns="http://www.w3.org/2000/svg" viewBox="0 0 36 36"><path fill="#EEE" d="M36 27c0 2.209-1.791 4-4 4H4c-2.209 0-4-1.791-4-4V9c0-2.209 1.791-4 4-4h28c2.209 0 4 1.791 4 4v18z"/><path d="M34.363 28.125c-1.817 0-1.817-1.062-3.636-1.062-1.818 0-1.818 1-3.693 1-1.762 0-1.762-1-3.608-1-1.789 0-1.789 1-3.607 1-1.818 0-1.818-1-3.637-1-1.818 0-1.818 1-3.636 1s-1.818-1-3.636-1-1.818 1-3.636 1-1.818-1-3.637-1c-.762 0-1.201.178-1.591.383.071.638.277 1.233.613 1.744.263-.077.575-.127.979-.127 1.818 0 1.818 1 3.637 1 1.818 0 1.818-1 3.636-1s1.818 1 3.636 1 1.818-1 3.636-1 1.818 1 3.637 1c1.818 0 1.818-1 3.629-1 1.825 0 1.825 1 3.64 1 1.822 0 1.822-1 3.639-1 1.82 0 1.82.969 3.638.969.088 0 .157-.01.236-.015.674-.581 1.157-1.372 1.326-2.283-.386.21-.821.391-1.565.391zM36 25.383v-1.944c-.402.228-.846.43-1.637.43-1.817 0-1.817-1.062-3.636-1.062-1.818 0-1.818 1-3.693 1-1.762 0-1.762-1-3.608-1-1.789 0-1.789 1-3.607 1-1.818 0-1.818-1-3.637-1-1.818 0-1.818 1-3.636 1s-1.818-1-3.636-1-1.818 1-3.636 1-1.818-1-3.637-1c-.791 0-1.234.19-1.636.404v2c.402-.214.846-.404 1.636-.404 1.818 0 1.818 1 3.637 1 1.818 0 1.818-1 3.636-1s1.818 1 3.636 1 1.818-1 3.636-1 1.818 1 3.637 1c1.818 0 1.818-1 3.629-1 1.825 0 1.825 1 3.64 1 1.822 0 1.822-1 3.639-1 1.82 0 1.82.969 3.638.969.789-.002 1.233-.186 1.635-.393zm0-4.257v-1.944c-.402.228-.846.43-1.637.43-1.817 0-1.817-1.063-3.636-1.063-1.818 0-1.818 1-3.693 1-1.762 0-1.762-1-3.608-1-1.789 0-1.789 1-3.607 1-1.818 0-1.818-1-3.637-1-1.818 0-1.818 1-3.636 1s-1.818-1-3.636-1-1.818 1-3.636 1-1.818-1-3.637-1c-.791 0-1.234.191-1.636.404v2c.402-.214.846-.404 1.636-.404 1.818 0 1.818 1 3.637 1 1.818 0 1.818-1 3.636-1s1.818 1 3.636 1 1.818-1 3.636-1 1.818 1 3.637 1c1.818 0 1.818-1 3.629-1 1.825 0 1.825 1 3.64 1 1.822 0 1.822-1 3.639-1 1.82 0 1.82.969 3.638.969.789 0 1.233-.185 1.635-.392zm0-4.257v-1.944c-.402.228-.846.43-1.637.43-1.817 0-1.817-1.062-3.636-1.062-1.818 0-1.818 1-3.693 1-1.762 0-1.762-1-3.608-1-1.789 0-1.789 1-3.607 1-1.818 0-1.818-1-3.637-1-1.818 0-1.818 1-3.636 1s-1.818-1-3.636-1-1.818 1-3.636 1-1.818-1-3.637-1c-.791 0-1.234.19-1.636.404v2c.402-.214.846-.404 1.636-.404 1.818 0 1.818 1 3.637 1 1.818 0 1.818-1 3.636-1s1.818 1 3.636 1 1.818-1 3.636-1 1.818 1 3.637 1c1.818 0 1.818-1 3.629-1 1.825 0 1.825 1 3.64 1 1.822 0 1.822-1 3.639-1 1.82 0 1.82.969 3.638.969.789-.002 1.233-.186 1.635-.393zm0-4.258v-1.944c-.402.227-.846.43-1.637.43-1.817 0-1.817-1.062-3.636-1.062-1.818 0-1.818 1-3.693 1-1.762 0-1.762-1-3.608-1-1.789 0-1.789 1-3.607 1-1.818 0-1.818-1-3.637-1-1.818 0-1.818 1-3.636 1s-1.818-1-3.636-1-1.818 1-3.636 1-1.818-1-3.637-1c-.791 0-1.234.19-1.636.404v2c.402-.214.846-.404 1.636-.404 1.818 0 1.818 1 3.637 1 1.818 0 1.818-1 3.636-1s1.818 1 3.636 1 1.818-1 3.636-1 1.818 1 3.637 1c1.818 0 1.818-1 3.629-1 1.825 0 1.825 1 3.64 1 1.822 0 1.822-1 3.639-1 1.82 0 1.82.969 3.638.969.789-.001 1.233-.186 1.635-.393zm-.062-4.227c-.095-.611-.317-1.177-.656-1.663-.252.071-.545.119-.919.119-1.817 0-1.817-1.062-3.636-1.062-1.818 0-1.818 1-3.693 1-1.762 0-1.762-1-3.608-1-1.789 0-1.789 1-3.607 1-1.818 0-1.818-1-3.637-1-1.818 0-1.818 1-3.636 1s-1.818-1-3.636-1-1.818 1-3.636 1c-1.814 0-1.82-.994-3.625-.999C.877 6.342.314 7.169.101 8.133c.377-.193.808-.356 1.535-.356 1.818 0 1.818 1 3.637 1 1.818 0 1.818-1 3.636-1s1.818 1 3.636 1 1.818-1 3.636-1 1.818 1 3.637 1c1.818 0 1.818-1 3.629-1 1.825 0 1.825 1 3.64 1 1.822 0 1.822-1 3.639-1 1.82 0 1.82.969 3.638.969.751 0 1.187-.168 1.574-.362z" fill="#00247D"/><path fill="#C1694F" d="M27.248 28.677c0 .179-.143.323-.322.323-.179 0-.324-.145-.324-.323V12.815c0-.178.146-.323.324-.323.179 0 .322.145.322.323v15.862z"/><path fill="#DD2E44" d="M24.656 20.364s.139-.334.627-.334c.49 0 .607.255.901.372.294.118.666.177.666.177v2.447h-2.624s-.099-.92-.255-1.37c-.157-.449-.294-1.058.039-1.254.334-.194.646-.038.646-.038z"/><path fill="#FFCC4D" d="M26.84 19.728v.352s-.675-.059-1.263-.47c-.358-.25-1.116-.559-1.703-.058-.382.322-.353 1.146-.116 1.468.233.323.469 1.058-.031.559-.499-.5-.647-1.264-.499-1.763.147-.499.47-.998 1.233-.998.765 0 1.264.411 1.616.617.306.177.794.233.763.293z"/><path fill="#FFCC4D" d="M23.895 21.499l.41-.019-.117.626s.411-.312.431-.235c.018.08.078.646.078.646l-.53-.117.313.451-.41.194s-.157-.528-.196-.781c-.04-.255.021-.765.021-.765zm.86.334l.391-.039s-.338-.764.157-.745c.549.021.176.726.176.726h.412l.059.567-.391-.235v.334l.43.411-1.136.116.293-.489-.018-.351-.274.313-.099-.608z"/><path fill="#DD2E44" d="M29.205 20.364s-.138-.334-.627-.334-.606.255-.9.372c-.294.118-.666.177-.666.177v2.447h2.625s.097-.92.254-1.37c.157-.449.293-1.058-.039-1.254-.334-.194-.647-.038-.647-.038z"/><path fill="#FFCC4D" d="M27.021 19.728v.352s.676-.059 1.263-.47c.358-.25 1.116-.559 1.704-.058.382.322.351 1.146.116 1.468-.234.323-.468 1.058.03.559.499-.5.647-1.264.499-1.763-.146-.499-.47-.998-1.233-.998-.765 0-1.264.411-1.615.617-.305.177-.793.233-.764.293z"/><path fill="#FFCC4D" d="M29.969 21.499l-.411-.019.117.626s-.411-.312-.431-.235c-.019.08-.078.646-.078.646l.527-.117-.313.451.411.194s.157-.528.197-.781c.038-.255-.019-.765-.019-.765zm-.863.334l-.392-.039s.339-.764-.157-.745c-.547.021-.175.726-.175.726h-.411l-.061.567.393-.235v.334l-.431.411 1.137.116-.295-.489.021-.351.274.313.097-.608zm-1.495-3.095c0 .39-.308.704-.685.704-.379 0-.686-.315-.686-.704 0-.389.307-.705.686-.705.378.001.685.316.685.705zm-1.301-1.546h1.232v.49H26.31z"/><path fill="#FFCC4D" d="M26.633 16.859h.586v4.523h-.586z"/><path fill="#FFCC4D" d="M26.44 21.187h.919l-.255.646.588-.313v.86l-.569-.195.49.744h-1.272l.391-.744-.567.136v-.763l.529.254z"/><path fill="#FFCC4D" d="M26.928 22.635c1.215 0 1.978.1 2.84.411 0 0 .06.511-.059.765-.116.255-2.8-.177-2.8-.177l.019-.999z"/><path fill="#FFCC4D" d="M26.963 22.635c-1.214 0-1.978.1-2.838.411 0 0-.06.511.057.765.118.255 2.8-.177 2.8-.177l-.019-.999z"/><path fill="#EEE" d="M30.078 24.33c0 .384-1.412.693-3.152.693-1.74 0-3.153-.309-3.153-.693 0-.385 1.413-.696 3.153-.696s3.152.311 3.152.696z"/><path fill="#99AAB5" d="M29.043 24.583c0 .212-.948.384-2.117.384-1.17 0-2.119-.172-2.119-.384 0-.21.949-.382 2.119-.382 1.169 0 2.117.172 2.117.382z"/><path fill="#77B255" d="M25.655 6.873l.646.803s.451-.274.471-.215c.02.059-.039.666-.039.666l.313.078-.255.803s.393-.215.372-.137c-.019.078-.117.764-.117.764l.157.098-.02.764s.157.273.157.215c0-.058.156-.998.156-.998l.216.176.076-.489.177-.842.196.313.411-1.391.216.49.489-.568.333-.02.489-.137.099.293h.45s-.234.196-.215.254c.018.059.43.274.371.294-.059.02-1.058-.079-1.058-.079l-.566.568.352.118-.53.313.451.137-.411.313.353-.039-.568.431.568.118-.764.391.176.196-.763.451-.099.313.725-.568s.588-.392.881-.568c.294-.176.529-.509 1.02-.646s1.429.02 1.429.02l-.882.47.177.274-.567.176.078.332-.941.138.02.352-.803.138-.098.333-.548.196.255.215s-.471.157-.411.176c.059.02.685.078.685.078s-.314.274-.256.274c.06 0 .842.039.842.039l-.333.235.785.039-.354.274s.646.059.646.118c0 .058-.273.352-.273.352l.567.059s-.273.293-.216.314c.061.019.804.528.804.528l-.882-.117s-.215.293-.235.234c-.018-.058-.233-.411-.233-.411l-.216.235-.234-.47s-.274.156-.256.098c.02-.059-.313-.431-.313-.431l-.078.177-.215-.529-.195.274-.373-.51-.137.215-.51-.45s-.019.294 0 .353c.02.059.373.313.373.313s-.235.098-.235.156c0 .059.471.431.471.431l-.216.157.509.431s-.47.098-.412.137c.06.039.294.352.294.352l-.195.47-.391-.607-.216.059-.04-.509-.214-.02.116-.567-.234.039-.02-.47-.099-.47-.195-.314s-.137.235-.118.293c.02.059.178.431.178.431s-.216.117-.178.176c.04.059.255.489.255.489s-.47.098-.411.098c.06 0 .216.274.216.274l-.255.098-.117.294s-.293-.333-.274-.274c.02.059-.176.607-.176.607l-.293-.333.293-1.155-.354-.098-.254.529s-.215-.254-.235-.196c-.02.059-.235.451-.235.451s-.252-.431-.233-.372c.019.058-.295.686-.295.686s-.274-.549-.274-.47c0 .078-.195.764-.195.764s-.312-.529-.294-.431c.021.098-.215.549-.215.549l-.06-.49-.43.254.489-.705.823-.764.627-.469-.414-.058s.597-.207.665-.215c.178-.02-.272-.176-.272-.176l1.096-.333s-.489-.255-.548-.196c-.059.059-.647.176-.647.176l-.078-.45-.606.254s-.099-.412-.118-.353c-.019.059-.49.313-.49.313l-.233-.254-.275.431-.314-.235-.566.176.273-.411-.313-.176.646-.411.137-.274.882.059s-.236-.314-.196-.255c.04.059.9.196.9.196l.256-.039.861.313-.705-.568-.607-.118.392-.313-.921-.332.197-.313-1.216-.313.746-.196-.51-.862 1.057.627.47-.157.236.607.431.255.077.45.216-.098.195.528.256-.079.136.373.374.019-.1-.49.156-.235-.431-.353.374-.176-.55-.451.47-.059-.666-.646.53.02-.53-.607.432-.098-.081-.782z"/><path fill="#00247D" d="M19 18V5H4c-.32 0-.604.045-.604.045l-.004 1.754-2.73-.004S.62 6.854.535 7C.195 7.589 0 8.272 0 9v9h19z"/><path fill="#EEE" d="M19 5h-2.331L12 8.269V5H7v2.569L3.396 5.045c-.614.094-1.19.325-1.672.665L6.426 9H4.69L.967 6.391c-.11.129-.211.262-.305.404L3.813 9H0v5h3.885L0 16.766V18h3.332L7 15.432V18h5v-3.269L16.668 18H19v-2.029L16.185 14H19V9h-2.814L19 7.029V5z"/><path fill="#CF1B2B" d="M11 5H8v5H0v3h8v5h3v-5h8v-3h-8z"/><path fill="#CF1B2B" d="M19 5h-1.461L12 8.879V9h1.571L19 5.198zm-17.276.71c-.281.195-.534.423-.757.681L4.69 9h1.735L1.724 5.71zM6.437 14L.734 18h1.727L7 14.822V14zM19 17.802v-1.22L15.313 14H13.57z"/></svg>