<svg xmlns="http://www.w3.org/2000/svg" viewBox="0 0 36 36"><path fill="#141414" d="M32 5H4C1.791 5 0 6.791 0 9v4.5h36V9c0-2.209-1.791-4-4-4z"/><path fill="#007A3D" d="M0 27c0 2.209 1.791 4 4 4h28c2.209 0 4-1.791 4-4v-4.5H0V27z"/><path fill="#EEE" d="M0 13.5h36v9H0z"/><path fill="#C4111B" d="M1.129 6.223C.433 6.943 0 7.92 0 9v18c0 1.08.433 2.057 1.129 2.777L12 18 1.129 6.223z"/><g fill="#C4111B"><path d="M17.894 18.033c0-1.692 1.213-3.101 2.817-3.405-.211-.04-.428-.062-.65-.062-1.915 0-3.467 1.552-3.467 3.467S18.146 21.5 20.06 21.5c.222 0 .439-.022.65-.062-1.603-.304-2.816-1.712-2.816-3.405z"/><path d="M19.13 20.132l1.478-1.057 1.467 1.073-.548-1.732L23 17.353l-1.817-.014-.556-1.73-.575 1.724-1.817-.006 1.462 1.079-.567 1.726z"/></g></svg>