<svg xmlns="http://www.w3.org/2000/svg" viewBox="0 0 36 36"><path fill="#141414" d="M36 26.999c0 2.209-1.791 4-4 4H4c-2.209 0-4-1.791-4-4v-18c0-2.209 1.791-4 4-4h28c2.209 0 4 1.791 4 4v18z"/><path fill="#007A36" d="M32 4.999c2.209 0 4 1.791 4 4v18c0 2.209-1.791 4-4 4h-8v-26h8z"/><path fill="#D32011" d="M12 4.999h12v26H12z"/><path fill="#FFF" d="M22.048 23.783c-.032.08-.141.151-.227.117-.086-.034-.116-.161-.084-.241.032-.08.277-.319.303-.309.026.01.04.353.008.433zm.061.075c-.085.014-.179.104-.164.196.015.091.131.149.217.135.085-.014.372-.201.368-.228-.005-.027-.336-.116-.421-.103zm.352-.401c-.03.074-.131.14-.21.109s-.108-.149-.078-.224.257-.296.281-.287.036.328.007.402zm.056.07c-.079.013-.166.097-.152.182.014.085.122.138.201.125s.345-.186.341-.212-.311-.107-.39-.095zm-1.831.538c-.019.102-.13.212-.24.192-.109-.02-.175-.162-.157-.264.019-.102.251-.442.284-.436s.131.406.113.508zm.089.074c-.097.036-.186.166-.147.27.039.104.19.144.288.108.097-.036.391-.325.379-.357-.012-.031-.423-.057-.52-.021zm.265-.483c-.015.085-.108.176-.199.16s-.146-.135-.13-.22c.015-.085.209-.368.236-.363s.109.338.093.423zm.074.062c-.081.03-.154.138-.122.224s.158.12.239.09.325-.271.315-.297c-.009-.025-.351-.047-.432-.017zm.266-.462c-.014.079-.1.163-.185.148-.084-.015-.135-.125-.121-.204.014-.079.194-.341.219-.337.025.005.101.314.087.393zm.069.057c-.075.028-.143.128-.113.208.03.08.147.111.222.083s.301-.251.293-.275-.327-.044-.402-.016zm.225-.402c-.013.071-.091.148-.167.134-.076-.014-.122-.113-.109-.184.013-.071.175-.309.198-.304.022.003.091.283.078.354zm.062.052c-.068.025-.13.115-.102.188.027.073.133.1.201.075.068-.025.273-.227.265-.249s-.296-.039-.364-.014zm-.097 1.755c-.076.07-.231.091-.307.009-.076-.082-.043-.235.033-.305s.467-.202.489-.178-.139.404-.215.474zm.026.113c-.1-.029-.248.021-.279.127-.032.107.066.229.165.259.1.029.508-.025.517-.057.01-.031-.303-.299-.403-.329zm.503-.226c-.063.059-.192.076-.255.008s-.036-.195.028-.254c.063-.059.388-.168.407-.148.018.02-.117.335-.18.394zm.022.094c-.083-.025-.206.017-.232.106-.026.089.054.191.137.215.083.025.422-.021.43-.047.008-.027-.253-.25-.335-.274zm.49-.21c-.059.054-.178.07-.237.007-.058-.063-.033-.181.026-.235s.36-.156.377-.137c.018.018-.107.31-.166.365zm.021.087c-.077-.023-.191.016-.216.098-.024.082.051.177.127.2.077.023.392-.019.399-.044s-.234-.231-.31-.254zm.421-.186c-.053.049-.161.064-.214.007-.053-.057-.03-.164.023-.213.053-.049.326-.141.341-.124.016.017-.097.281-.15.33zm.019.079c-.069-.021-.173.014-.195.089-.022.074.046.16.115.181.069.021.354-.017.361-.04.006-.022-.212-.209-.281-.23zm.343-2.771c.013.103-.061.241-.172.254-.11.013-.215-.103-.228-.206s.109-.497.142-.501c.033-.004.245.35.258.453zm.107.044c-.082.063-.128.213-.06.301s.224.081.307.018c.082-.063.277-.427.257-.453-.022-.026-.422.071-.504.134zm.11-.54c.01.086-.051.2-.143.212-.092.011-.179-.085-.19-.171-.01-.086.091-.413.118-.417.028-.003.205.29.215.376zm.089.037c-.068.053-.107.177-.05.25.057.073.187.067.255.015.068-.053.23-.355.213-.377-.016-.021-.349.06-.418.112zm.117-.52c.01.079-.047.186-.133.196s-.166-.079-.176-.159c-.01-.079.084-.383.109-.386.026-.003.19.269.2.349zm.083.034c-.063.049-.099.164-.046.232s.173.063.236.014.214-.329.198-.349-.325.054-.388.103zm.095-.45c.009.072-.043.168-.12.178-.077.009-.15-.072-.159-.144-.009-.072.076-.347.099-.349.023-.004.172.243.18.315zm.075.031c-.057.044-.089.149-.042.21s.157.057.214.012c.057-.044.193-.298.179-.316-.014-.018-.293.049-.351.094zm.428 1.705c-.052.09-.194.156-.29.1-.096-.056-.11-.212-.059-.301.052-.09.386-.332.414-.315s-.013.426-.065.516zm.058.1c-.104.001-.231.093-.229.204s.131.2.234.198c.104-.001.478-.174.477-.208.001-.032-.378-.195-.482-.194zm.413-.365c-.043.075-.161.129-.241.083s-.092-.176-.049-.251.321-.276.345-.262-.011.355-.055.43zm.049.083c-.086.001-.192.078-.191.17s.109.166.195.165.397-.145.397-.173c0-.027-.315-.163-.401-.162zm.406-.346c-.04.069-.15.12-.224.077-.074-.043-.085-.163-.045-.232s.297-.256.32-.243-.011.329-.051.398zm.046.077c-.08.001-.178.072-.177.158s.101.154.181.153c.08-.001.368-.135.368-.16s-.292-.152-.372-.151zm.347-.302c-.036.063-.135.109-.203.07-.067-.039-.077-.148-.041-.21s.269-.231.289-.22c.021.011-.009.297-.045.36zm.041.07c-.072.001-.161.065-.16.143.001.078.091.139.164.138s.333-.122.333-.145c0-.023-.264-.137-.337-.136zm-1.051-.555c-.002.104-.096.23-.207.227-.111-.003-.198-.133-.196-.236s.179-.476.212-.475c.034 0 .194.38.191.484zm.1.06c-.09.051-.158.192-.103.289s.21.113.301.062.335-.382.319-.411-.427.009-.517.06zm.187-.519c-.002.086-.079.191-.172.189s-.165-.11-.163-.197c.002-.086.149-.396.177-.395.027.001.16.317.158.403zm.082.05c-.075.042-.131.16-.086.241.045.081.175.094.25.051.075-.042.279-.318.265-.342-.012-.025-.353.007-.429.05zm.191-.499c-.002.08-.074.177-.159.175-.086-.002-.153-.102-.151-.182.002-.08.138-.367.164-.367.025.001.148.294.146.374zm.077.046c-.07.039-.122.148-.079.223s.162.087.232.047.259-.295.246-.317c-.013-.022-.33.008-.399.047zm-.845-1.708c.041.096.007.249-.095.292s-.235-.039-.276-.135-.033-.508-.002-.521c.031-.012.333.269.373.364zm.115.014c-.061.084-.064.24.025.306.09.066.238.016.299-.068s.148-.486.122-.506-.384.184-.446.268zm-.043-.55c.034.079.006.207-.079.243-.085.036-.196-.033-.229-.112s-.027-.422-.002-.433c.026-.011.277.223.31.302zm.096.011c-.051.07-.054.2.021.255.075.055.198.013.249-.056.051-.07.123-.405.101-.421s-.32.153-.371.222zm-.031-.532c.031.074.006.192-.073.225s-.182-.03-.213-.104-.025-.391-.001-.401c.023-.01.256.206.287.28zm.089.01c-.047.065-.05.185.019.236.069.051.184.012.231-.052.047-.065.114-.375.094-.39-.021-.016-.297.142-.344.206zm-.033-.46c.028.067.005.173-.066.204-.071.03-.164-.027-.193-.094-.028-.067-.023-.354-.001-.363.022-.009.232.187.26.253zm.081.01c-.043.058-.045.168.018.214s.166.011.209-.047.104-.339.085-.353c-.019-.015-.269.127-.312.186zm.881 1.521c-.025.101-.144.203-.251.176s-.165-.173-.139-.274c.025-.101.279-.425.311-.417.032.008.104.414.079.515zm.084.08c-.099.03-.196.153-.164.26.032.107.181.156.28.126.099-.03.411-.3.401-.331-.008-.033-.417-.085-.517-.055zm.297-.465c-.021.084-.119.169-.209.147s-.137-.144-.116-.228c.021-.084.232-.354.259-.347.026.007.086.344.066.428zm.069.066c-.083.025-.163.127-.136.216.027.089.15.13.233.105s.342-.249.334-.276c-.008-.026-.348-.069-.431-.045zm.295-.444c-.019.078-.111.157-.194.136-.083-.021-.127-.133-.108-.211.019-.078.215-.328.24-.322s.082.319.062.397zm.065.062c-.077.023-.151.118-.126.2.025.082.139.12.216.097.077-.023.317-.231.31-.256-.008-.024-.323-.065-.4-.041zm.251-.387c-.018.07-.1.142-.175.123-.075-.019-.115-.121-.097-.191.018-.07.195-.297.217-.291.022.005.072.289.055.359zm.059.056c-.069.021-.137.107-.114.181.022.074.126.109.195.088s.287-.209.28-.231c-.007-.023-.292-.059-.361-.038zM25.8 16.98c.026.1-.028.247-.136.275-.108.028-.227-.073-.254-.173-.026-.1.041-.507.073-.515s.291.312.317.413zm.112.029c-.073.074-.098.228-.019.306.079.078.233.05.306-.024.073-.074.217-.46.193-.483-.023-.023-.407.128-.48.201zm.037-.55c.022.084-.024.205-.113.229-.089.023-.189-.06-.211-.144-.022-.084.034-.422.061-.429.026-.006.241.261.263.344zm.093.025c-.061.062-.082.19-.016.255s.194.042.255-.02.18-.383.161-.402-.339.106-.4.167zm.046-.531c.02.077-.022.191-.105.212-.083.022-.175-.056-.196-.134-.02-.077.032-.391.056-.398.025-.006.224.242.245.32zm.086.023c-.056.057-.076.176-.015.236s.18.039.236-.018c.056-.057.167-.355.149-.373-.018-.018-.314.098-.37.155zm-1.336-1.141c.09.035.169.157.131.253s-.179.13-.268.095c-.09-.035-.357-.308-.345-.337.011-.029.392-.046.482-.011zm.084-.068c.015.095.117.199.219.182.102-.017.165-.147.15-.242-.015-.095-.225-.414-.256-.409-.031.005-.129.374-.113.469zm-.392-.328c.074.029.141.13.109.21-.031.08-.149.108-.223.079-.074-.029-.297-.256-.287-.28.009-.024.327-.039.401-.009zm.07-.056c.013.079.097.165.182.151.085-.014.137-.122.125-.201s-.187-.344-.213-.34c-.026.004-.107.311-.094.39zm-.373-.326c.069.027.131.121.101.195s-.138.1-.207.073-.275-.238-.266-.26c.009-.022.303-.035.372-.008zm.065-.052c.012.073.09.153.169.14.079-.013.127-.113.116-.187-.012-.073-.174-.319-.197-.316-.025.005-.1.29-.088.363zm-.325-.277c.062.025.118.109.092.176-.026.067-.125.091-.187.066s-.249-.215-.241-.235.273-.032.336-.007zm.058-.047c.011.066.082.139.153.127.071-.012.115-.103.105-.169-.011-.066-.157-.289-.178-.286-.022.004-.09.262-.08.328zm1.579.405c.05.082.041.227-.047.281-.088.054-.221-.004-.271-.086-.05-.082-.1-.461-.073-.477s.34.2.391.282zm.107-.003c-.045.085-.026.229.065.277.091.048.22-.018.265-.103s.069-.466.042-.481c-.027-.015-.327.221-.372.307zm-.115-.498c.042.068.034.189-.039.234s-.184-.003-.226-.071c-.042-.068-.083-.383-.061-.397.022-.014.284.165.326.234zm.09-.003c-.037.071-.022.191.054.23.076.04.183-.015.221-.086.037-.071.057-.388.035-.4-.023-.012-.273.185-.31.256zm-.103-.484c.039.063.032.175-.036.217-.068.042-.171-.003-.209-.066-.039-.063-.077-.355-.057-.368s.263.153.302.217zm.083-.003c-.035.066-.02.177.05.214.07.037.17-.014.205-.08.035-.066.053-.36.032-.371s-.252.171-.287.237zm-.093-.417c.035.057.029.158-.033.196-.061.038-.154-.002-.189-.06-.035-.057-.07-.322-.051-.333.018-.011.238.14.273.197zm.075-.002c-.031.059-.018.16.046.193s.154-.013.185-.072.048-.325.029-.335-.228.154-.26.214zm-.916.611c.084.048.145.179.094.269-.051.089-.196.103-.279.055-.084-.048-.309-.356-.293-.383.014-.027.394.011.478.059zm.092-.055c.002.096.087.213.19.212.103-.002.185-.122.183-.218-.002-.096-.163-.442-.194-.442-.03.001-.18.352-.179.448zm-.34-.381c.069.04.121.149.078.224-.042.074-.162.085-.232.045-.069-.04-.257-.296-.244-.319.013-.022.329.01.398.05zm.077-.046c.001.08.072.178.158.176.086-.001.154-.101.152-.181-.001-.08-.136-.368-.161-.367-.025 0-.15.292-.149.372zm-.322-.375c.064.037.112.138.072.207-.04.069-.151.08-.215.043-.064-.037-.238-.275-.226-.296.012-.021.305.009.369.046zm.072-.043c.001.074.067.165.147.163.08-.001.142-.094.141-.168s-.126-.341-.15-.341-.139.272-.138.346z"/><path fill="#FFF" d="M25.46 23.116s-.716-.008-1.328-.421c-.612-.413-1.865-1.173-2.868-.188 0 0 .7-.118 1.226.319.526.438 1.341.951 2.027.894.686-.056.943-.604.943-.604z"/><path fill="#FF5B57" d="M13.013 12.188l-.884-.884c1.581-1.581 3.682-2.451 5.917-2.451s4.336.871 5.917 2.451l-.885.884c-1.344-1.344-3.131-2.085-5.032-2.085s-3.689.741-5.033 2.085z"/><path fill="#FFF" d="M14.579 21.801l-.008-.632h6.789l.027.646z"/><g fill="#FFF"><path d="M21.387 15.549l-.57-.071v-1.335c0-.03-.01-.057-.017-.085h.027c.087 0 .159-.071.159-.159 0-.087-.071-.159-.159-.159h-.707c-.087 0-.159.071-.159.159 0 .087.071.159.159.159h.027c-.007.028-.017.055-.017.085v1.25l-.261-.032-.518-.557c.103-.155.167-.328.167-.515 0-.62-.641-1.122-1.433-1.122s-1.433.502-1.433 1.122c0 .185.063.358.164.512l-.521.561-.262.032v-1.25c0-.03-.01-.057-.017-.085h.027c.087 0 .159-.071.159-.159 0-.087-.071-.159-.159-.159h-.706c-.087 0-.159.071-.159.159 0 .087.071.159.159.159h.027c-.007.028-.017.055-.017.085v1.335l-.569.07.472.707h.074v.978h.731v-.978h4.053v.978h.731v-.978h.076l.472-.707z"/><path d="M20.473 13.624c.27 0 .488-.116.488-.259 0-.078-.069-.146-.173-.194l-.316-.453-.315.453c-.104.047-.173.115-.173.194.001.143.22.259.489.259zm-2.447-.593c.28 0 .507-.14.507-.312 0-.092-.067-.172-.169-.229l-.338-.486-.338.486c-.102.057-.169.138-.169.229 0 .172.227.312.507.312zm-2.337.593c.27 0 .488-.116.488-.259 0-.078-.069-.146-.173-.194l-.315-.453-.315.453c-.104.047-.173.115-.173.194 0 .143.218.259.488.259z"/></g><g fill="#FFF"><path d="M21.32 20.864l-.481-.52v-.911h-.731v.874h-.294l-1.884-2.61-1.438-.077-.073 2.225 1.889.019.888.443v.557z"/><path d="M16.054 19.433h-.73v.954l-.442.477h2.123v-.557h-.951zm-1.971-3.595l-.224.196s-.969.706-.647 1.388c-.18.251-.588.753-.275 1.263.314.51.612.965.416 1.443.588-.306.855-.871.674-1.506-.151-.533.597-.941.844-1.06l.452.682v.628h.731v-1.078h-.633l-1.338-1.956zm8.867 1.585c.322-.682-.647-1.388-.647-1.388l-.224-.196-1.338 1.956h-.633v1.078h.731v-.628l.452-.682c.246.118.995.526.844 1.06-.18.635.086 1.2.674 1.506-.196-.478.102-.933.416-1.443.313-.51-.095-1.012-.275-1.263z"/></g><path fill="#FFF" d="M21.672 26.085c0 .192-.156.348-.348.348-.192 0-1.289-.156-1.289-.348 0-.192 1.097-.348 1.289-.348.193 0 .348.156.348.348z"/><path fill="#FFF" d="M22.922 26.111c.98-.183 1.019-.713 1.019-.713s-.533.339-1.16.214-1.193-.105-1.193-.105.597.662.095.991c-.222.146-.837.084-1.105.025-.268-.059-.845-.166-.971-.166-.192 0-.348.156-.348.348 0 .192.156.348.348.348.128 0 .698-.106.995-.174s.505-.1.728-.146c.267-.055.824.016 1.522.071.698.055 1.208-.267 1.443-.549-.495.157-1.146-.031-1.373-.144zm4.706-7.901c.039-.095-.856.573-1.467.498-.611-.075-1.785-.242-2.025.214-.241.455-.456.927-.456.927s.407-.237.934-.24c.529-.003 1.64-.054 2.077-.2.439-.147.781-.824.937-1.199zm-.845-2.954c-.011-.199-.407-.115-.489-.28-.081-.165.222-.516.054-.635-.167-.119-1.019.644-1.493 1.155-.474.512-.606 1.329-.453 1.57.151.241.054.021.054.021s.3-.595.781-.838c.481-.242 1.546-.993 1.546-.993zm-12.902 8.527c.032.08.141.151.227.117.086-.034.116-.161.084-.241-.032-.08-.277-.319-.303-.309s-.04.353-.008.433zm-.06.075c.085.014.179.104.164.196-.015.091-.131.149-.217.135s-.372-.201-.368-.228c.005-.027.336-.116.421-.103zm-.352-.401c.03.074.131.14.21.109s.108-.149.078-.224-.257-.296-.281-.287-.037.328-.007.402zm-.056.07c.079.013.166.097.152.182-.014.085-.122.138-.201.125-.079-.013-.345-.186-.341-.212s.311-.107.39-.095zm1.831.538c.019.102.13.212.24.192.109-.02.175-.162.157-.264-.019-.102-.251-.442-.284-.436s-.132.406-.113.508zm-.089.074c.097.036.186.166.147.27-.039.104-.19.144-.288.108-.097-.036-.391-.325-.379-.357.011-.031.423-.057.52-.021zm-.266-.483c.015.085.108.176.199.16.091-.017.146-.135.13-.22-.015-.085-.209-.368-.236-.363s-.108.338-.093.423zm-.074.062c.081.03.154.138.122.224s-.158.12-.239.09-.325-.271-.315-.297c.009-.025.351-.047.432-.017zm-.266-.462c.014.079.1.163.185.148.084-.015.135-.125.121-.204s-.194-.341-.219-.337c-.025.005-.101.314-.087.393zm-.068.057c.075.028.143.128.113.208s-.147.111-.222.083-.301-.251-.293-.275c.01-.024.327-.044.402-.016zm-.225-.402c.013.071.091.148.167.134.076-.014.122-.113.109-.184s-.175-.309-.198-.304c-.023.003-.091.283-.078.354zm-.063.052c.068.025.13.115.102.188-.027.073-.133.1-.201.075-.068-.025-.273-.227-.265-.249.01-.021.297-.039.364-.014zm.098 1.755c.076.07.231.091.307.009.076-.082.043-.235-.033-.305s-.467-.202-.489-.178c-.024.025.138.404.215.474zm-.027.113c.1-.029.248.021.279.127.032.107-.066.229-.165.259-.1.029-.508-.025-.517-.057s.304-.299.403-.329zm-.502-.226c.063.059.192.076.255.008s.036-.195-.028-.254c-.063-.059-.388-.168-.407-.148-.019.02.116.335.18.394zm-.022.094c.083-.025.206.017.232.106s-.054.191-.137.215c-.083.025-.422-.021-.43-.047-.008-.027.252-.25.335-.274zm-.491-.21c.059.054.178.07.237.007.058-.063.033-.181-.026-.235s-.36-.156-.377-.137c-.018.018.107.31.166.365zm-.02.087c.077-.023.191.016.216.098.024.082-.051.177-.127.2-.077.023-.392-.019-.399-.044s.233-.231.31-.254zm-.422-.186c.053.049.161.064.214.007.053-.057.03-.164-.023-.213-.053-.049-.326-.141-.341-.124-.016.017.097.281.15.33zm-.018.079c.069-.021.173.014.195.089.022.074-.046.16-.115.181s-.354-.017-.361-.04c-.007-.022.211-.209.281-.23zm-.343-2.771c-.013.103.061.241.172.254.11.013.215-.103.228-.206s-.109-.497-.142-.501c-.033-.004-.246.35-.258.453zm-.107.044c.082.063.128.213.06.301s-.224.081-.307.018c-.082-.063-.277-.427-.257-.453.021-.026.421.071.504.134zm-.111-.54c-.01.086.051.2.143.212.092.011.179-.085.19-.171.01-.086-.091-.413-.118-.417-.028-.003-.204.29-.215.376zm-.089.037c.068.053.107.177.05.25-.057.073-.187.067-.255.015-.068-.053-.23-.355-.213-.377.017-.021.35.06.418.112zm-.117-.52c-.01.079.047.186.133.196s.166-.079.176-.159c.01-.079-.084-.383-.109-.386s-.19.269-.2.349zm-.082.034c.063.049.099.164.046.232-.052.068-.173.063-.236.014s-.214-.329-.198-.349.324.054.388.103zm-.096-.45c-.009.072.043.168.12.178.077.009.15-.072.159-.144.009-.072-.076-.347-.099-.349-.023-.004-.171.243-.18.315zm-.075.031c.057.044.089.149.042.21-.047.061-.157.057-.214.012-.057-.044-.193-.298-.179-.316.014-.018.294.049.351.094zm-.427 1.705c.052.09.194.156.29.1.096-.056.11-.212.059-.301s-.386-.332-.414-.315.013.426.065.516zm-.059.1c.104.001.231.093.229.204s-.131.2-.234.198c-.104-.001-.478-.174-.477-.208 0-.032.378-.195.482-.194zm-.413-.365c.043.075.161.129.241.083s.092-.176.049-.251c-.043-.075-.321-.276-.345-.262-.023.014.012.355.055.43zm-.049.083c.086.001.192.078.191.17-.001.093-.109.166-.195.165-.086-.001-.397-.145-.397-.173 0-.027.315-.163.401-.162zm-.406-.346c.04.069.15.12.224.077.074-.043.085-.163.045-.232-.04-.069-.297-.256-.32-.243s.011.329.051.398zm-.045.077c.08.001.178.072.177.158-.001.086-.101.154-.181.153-.08-.001-.368-.135-.368-.16s.292-.152.372-.151zm-.348-.302c.036.063.135.109.203.07.067-.039.077-.148.041-.21s-.269-.231-.289-.22c-.021.011.009.297.045.36zm-.041.07c.072.001.161.065.16.143-.001.078-.091.139-.164.138s-.333-.122-.333-.145c.001-.023.265-.137.337-.136zm1.051-.555c.002.104.096.23.207.227s.198-.133.196-.236-.179-.476-.212-.475c-.034 0-.193.38-.191.484zm-.099.06c.09.051.158.192.103.289s-.21.113-.301.062c-.09-.051-.335-.382-.319-.411.016-.03.426.009.517.06zm-.187-.519c.002.086.079.191.172.189s.165-.11.163-.197c-.002-.086-.149-.396-.177-.395-.028.001-.16.317-.158.403zm-.083.05c.075.042.131.16.086.241-.045.081-.175.094-.25.051s-.279-.318-.265-.342c.013-.025.354.007.429.05zm-.19-.499c.002.08.074.177.159.175.086-.002.153-.102.151-.182s-.138-.367-.164-.367c-.025.001-.148.294-.146.374zm-.077.046c.07.039.122.148.079.223s-.162.087-.232.047c-.07-.039-.259-.295-.246-.317.013-.022.329.008.399.047zm.844-1.708c-.041.096-.007.249.095.292s.235-.039.276-.135c.041-.096.033-.508.002-.521-.031-.012-.332.269-.373.364zm-.115.014c.061.084.064.24-.025.306-.09.066-.238.016-.3-.068-.061-.084-.148-.486-.122-.506s.386.184.447.268zm.043-.55c-.034.079-.006.207.079.243.085.036.196-.033.229-.112s.027-.422.002-.433c-.025-.011-.276.223-.31.302zm-.096.011c.051.07.054.2-.021.255-.075.055-.198.013-.249-.056-.051-.07-.123-.405-.101-.421.022-.017.32.153.371.222zm.032-.532c-.031.074-.006.192.073.225s.182-.03.213-.104.025-.391.001-.401c-.023-.01-.256.206-.287.28zm-.089.01c.047.065.05.185-.019.236-.069.051-.184.012-.231-.052-.047-.065-.114-.375-.094-.39.02-.016.296.142.344.206zm.032-.46c-.028.067-.005.173.066.204.071.03.164-.027.193-.094.028-.067.023-.354.001-.363-.021-.009-.232.187-.26.253zm-.081.01c.043.058.045.168-.018.214-.063.046-.166.011-.209-.047s-.104-.339-.085-.353c.02-.015.27.127.312.186zm-.881 1.521c.025.101.144.203.251.176.108-.027.165-.173.139-.274-.025-.101-.279-.425-.311-.417s-.104.414-.079.515zm-.084.08c.099.03.196.153.164.26-.032.107-.181.156-.28.126s-.411-.3-.401-.331c.009-.033.418-.085.517-.055zm-.296-.465c.021.084.119.169.209.147.09-.022.137-.144.116-.228-.021-.084-.232-.354-.259-.347-.027.007-.087.344-.066.428zm-.07.066c.083.025.163.127.136.216-.027.089-.15.13-.233.105s-.342-.249-.334-.276c.008-.026.348-.069.431-.045zm-.295-.444c.019.078.111.157.194.136.083-.021.127-.133.108-.211-.019-.078-.215-.328-.24-.322s-.081.319-.062.397zm-.065.062c.077.023.151.118.126.2-.025.082-.139.12-.216.097-.077-.023-.317-.231-.31-.256.008-.024.323-.065.4-.041zm-.25-.387c.018.07.1.142.175.123.075-.019.115-.121.097-.191-.018-.07-.195-.297-.217-.291-.023.005-.073.289-.055.359zm-.059.056c.069.021.137.107.114.181-.022.074-.126.109-.195.088-.069-.021-.287-.209-.28-.231.006-.023.291-.059.361-.038zm1.163-.243c-.026.1.028.247.136.275s.227-.073.254-.173c.026-.1-.041-.507-.073-.515-.032-.009-.29.312-.317.413zm-.112.029c.073.074.098.228.019.306s-.233.05-.306-.024-.217-.46-.193-.483c.024-.023.407.128.48.201zm-.036-.55c-.022.084.024.205.113.229.089.023.189-.06.211-.144.022-.084-.034-.422-.061-.429s-.242.261-.263.344zm-.094.025c.061.062.082.19.016.255s-.194.042-.255-.02-.18-.383-.161-.402.34.106.4.167zm-.045-.531c-.02.077.022.191.105.212.083.022.175-.056.196-.134.02-.077-.032-.391-.056-.398-.026-.006-.225.242-.245.32zm-.087.023c.056.057.076.176.015.236s-.18.039-.236-.018c-.056-.057-.167-.355-.149-.373.018-.018.314.098.37.155zm1.337-1.141c-.09.035-.169.157-.131.253s.179.13.268.095.357-.308.345-.337c-.011-.029-.393-.046-.482-.011zm-.084-.068c-.015.095-.117.199-.219.182-.102-.017-.165-.147-.15-.242.015-.095.225-.414.256-.409.03.005.128.374.113.469zm.391-.328c-.074.029-.141.13-.109.21.031.08.149.108.223.079.074-.029.297-.256.287-.28-.009-.024-.326-.039-.401-.009zm-.069-.056c-.013.079-.097.165-.182.151-.085-.014-.137-.122-.125-.201.013-.079.187-.344.213-.34.025.004.106.311.094.39zm.372-.326c-.069.027-.131.121-.101.195s.138.1.207.073c.069-.027.275-.238.266-.26-.008-.022-.303-.035-.372-.008zm-.064-.052c-.012.073-.09.153-.169.14-.079-.013-.127-.113-.116-.187.012-.073.174-.319.197-.316.024.005.1.29.088.363zm.325-.277c-.062.025-.118.109-.092.176.026.067.125.091.187.066s.249-.215.241-.235-.274-.032-.336-.007zm-.059-.047c-.011.066-.082.139-.153.127-.071-.012-.115-.103-.105-.169s.157-.289.178-.286c.023.004.091.262.08.328zm-1.578.405c-.05.082-.041.227.047.281.088.054.221-.004.271-.086.05-.082.1-.461.073-.477-.026-.016-.341.2-.391.282zm-.108-.003c.045.085.026.229-.065.277-.091.048-.22-.018-.265-.103s-.069-.466-.042-.481c.027-.015.327.221.372.307zm.115-.498c-.042.068-.034.189.039.234.073.045.184-.003.226-.071.042-.068.083-.383.061-.397-.022-.014-.284.165-.326.234zm-.089-.003c.037.071.022.191-.054.23-.076.04-.183-.015-.221-.086-.037-.071-.057-.388-.035-.4.023-.012.273.185.31.256zm.102-.484c-.039.063-.032.175.036.217.068.042.171-.003.209-.066.039-.063.077-.355.057-.368-.02-.013-.263.153-.302.217zm-.083-.003c.035.066.02.177-.05.214-.07.037-.17-.014-.205-.08-.035-.066-.053-.36-.032-.371.021-.011.253.171.287.237zm.093-.417c-.035.057-.029.158.033.196s.154-.002.189-.06.07-.322.051-.333c-.018-.011-.238.14-.273.197zm-.075-.002c.031.059.018.16-.046.193s-.154-.013-.185-.072-.048-.325-.029-.335c.019-.011.229.154.26.214zm.917.611c-.084.048-.145.179-.094.269.051.089.196.103.279.055.084-.048.309-.356.293-.383-.015-.027-.395.011-.478.059zm-.093-.055c-.002.096-.087.213-.19.212-.103-.002-.185-.122-.183-.218.002-.096.163-.442.194-.442.031.001.181.352.179.448zm.34-.381c-.069.04-.121.149-.078.224.043.074.163.086.232.046s.257-.296.244-.319c-.012-.023-.329.009-.398.049zm-.077-.046c-.001.08-.072.178-.158.176-.086-.001-.154-.101-.152-.181.001-.08.136-.368.161-.367.025 0 .15.292.149.372zm.322-.375c-.064.037-.112.138-.072.207.04.069.151.08.215.043.064-.037.238-.275.226-.296-.011-.021-.305.009-.369.046zm-.071-.043c-.001.074-.067.165-.147.163-.08-.001-.142-.094-.141-.168.001-.074.126-.341.15-.341s.139.272.138.346z"/><path fill="#FFF" d="M10.469 23.116s.716-.008 1.328-.421c.612-.413 1.865-1.173 2.868-.188 0 0-.7-.118-1.226.319-.526.438-1.341.951-2.027.894-.685-.056-.943-.604-.943-.604zm9.849 1.449s-1.2.353-2.353.329c-1.153.024-2.353-.329-2.353-.329l-1.106 1.059s.424-.129 1.129.188c.66.297 1.424.608 2.329.608s1.67-.311 2.329-.608c.706-.318 1.129-.188 1.129-.188l-1.104-1.059z"/><path fill="#FFF" d="M14.257 26.085c0 .192.156.348.348.348s1.289-.156 1.289-.348c0-.192-1.097-.348-1.289-.348s-.348.156-.348.348z"/><path fill="#FFF" d="M13.008 26.111c-.98-.183-1.019-.713-1.019-.713s.533.339 1.16.214 1.193-.105 1.193-.105-.597.662-.095.991c.222.146.837.084 1.105.025.268-.059.845-.166.971-.166.192 0 .348.156.348.348 0 .192-.156.348-.348.348-.128 0-.698-.106-.995-.174s-.505-.1-.728-.146c-.267-.055-.824.016-1.522.071-.698.055-1.208-.267-1.443-.549.494.157 1.145-.031 1.373-.144zM8.301 18.21c-.039-.095.856.573 1.467.498.611-.075 1.785-.242 2.025.214.241.455.456.927.456.927s-.407-.237-.934-.24c-.529-.003-1.64-.054-2.077-.2-.438-.147-.781-.824-.937-1.199zm.845-2.954c.011-.199.407-.115.489-.28s-.222-.516-.054-.635c.167-.119 1.019.644 1.493 1.155.474.512.606 1.329.453 1.57-.151.241-.054.021-.054.021s-.3-.595-.781-.838c-.481-.242-1.546-.993-1.546-.993zm11.054 7.82c-.196.048-.44.292-.669.633-.024-.332-.294-.595-.631-.595-.081 0-.157.019-.229.046-.084-.118-.215-.199-.371-.199-.121 0-.229.049-.312.125-.083-.076-.191-.125-.312-.125-.156 0-.287.082-.371.199-.071-.028-.148-.046-.229-.046-.35 0-.633.282-.638.631-.236-.359-.488-.619-.691-.668-.335-.082-.594-.435-.818-.594 0 0 .021.607.624 1.041.4.288.294.953.294.953s.729.182 1.059.218c-.05-.147-.115-.281-.177-.416.058.039.121.067.19.085l.186.347s.428.039.881.039.884-.039.884-.039l.186-.347c.053-.014.103-.031.15-.057-.058.127-.118.252-.165.389.329-.035 1.059-.218 1.059-.218s-.106-.665.294-.953c.602-.434.624-1.041.624-1.041-.224.157-.483.51-.818.592z"/></svg>