<svg xmlns="http://www.w3.org/2000/svg" viewBox="0 0 36 36"><path fill="#3E9A00" d="M32 5H4c-1.185 0-2.238.525-2.97 1.343V18H36V9c0-2.209-1.791-4-4-4z"/><path fill="#4289DE" d="M32 31H4c-1.185 0-2.238-.525-2.97-1.343V18H36v9c0 2.209-1.791 4-4 4z"/><path fill="#EB0438" d="M1.03 6.343C.397 7.051 0 7.976 0 9v18c0 1.024.397 1.949 1.03 2.657L36 18 1.03 6.343z"/><path fill="#FFC827" d="M11.688 24.312c-.457.188-2 .312-2.375 0s.75-1 .75-1-1.125.062-2.469-.406C6.25 22.438 5.625 21.594 5 21.594c.406-.406 1.781.281 1.781.281s-2.469-1.156-2.594-2.844c.781 1.094 1.656 1.344 1.656 1.344s-1.969-1.406-1.312-3.469c.157.532.563 1.094.563 1.094s-.75-2.312.094-3.625c.281.25.375 1.844.375 1.844s-.125-1.531.094-2.375c.218-.844.874-1.156.874-1.156L6.25 14.25s.562-.438.781-.812 1.25-1.75 2-1.844c.094.219-.594.875-.594.875s1.844-.938 2.688-.531c-.5.469-2.062.656-2.062.656s.812.375 1.188.094c-.094.281-.719.5-1.156.406-.439-.094-.845.281-.845.281s.629.265.906 0c-.188.594-1.125.469-1.438.469s-1.438.75-1.438 1.281c.5-.156.875-.781.875-.781s.345.906-.561 1.312-.844 1.188-.844 1.188.502-.184.562-.625c.531.25-.156.688-.312.938s-.188 1.375-.188 1.375.281-.969.344-1.094.532.874.344 1.312-.375 1.344-.094 1.844c.188-.125.063-1.094.063-1.094s.656.594.688 1.188c.188.156.188-.375.188-.375s.438.906.594 1.406 1.062.938 1.5.906c.438-.031.969.281.969.281s-.188-1.094-.188-1.562c0-.469.062-.969.062-.969s-1.875.906-1.938-.844c.469.531 1.062.344 1.062.344s-1.156-.219-1.094-1.25c.375.469.938.469.938.469s-.625-.402-.469-1.029c.719.123 1.125 1.217 1.125 1.217s.062-.902.031-1.217c-.031-.315-.062-.908-.062-.908s-1.156.5-1.344-1.031c.312.406.656.25.656.25s-.656-.5-.375-1.438c.219.625.719.875.719.875s-.219-.5-.219-.781c.438 0 .906.438.812 1.406.594-.594.5-1.406.375-1.656-.531.188-1-.5-1-.5s.656.25.781-.219c-.781.219-.969-.406-.969-.406s.688-.25 1.031 0c.25-.188.094-.594.094-.594s.969.344.312 1.188c.125.406.125 1.031.125 1.031s.312-.969 1.094-1.031c-.469.438-.281.844-.281.844s.564-.095.626-.439c.719.594-.688 1.312-.688 1.312s.406.156.75-.281c.438.719-.688.906-1.125.75-.438-.156-.688-.188-.781.094-.094.281-.219 1.562-.188 1.469.031-.094.252-.93.5-1.281-.031.469.125.906.125.906s1 .031.75-.906c.969-.062-.188 1.346-.188 1.346s.472.377 1.048 0c.202.873-.767.685-1.111.685s-1.188-.062-1.062.531c.127.594.439 1.719.439 1.719s.094-.688.375-1.188.656-.656.5.125c.406-.062.719-.75.719-.75s.469.844-.531 1.438c.219.219.701-.375.701-.375s.112.875-.638 1.125-1.031.094-1.094.562c-.062.469 0 .844 0 .844s.375.062.969-.312c.594-.375 1.062-.031 1.438-.438.375-.406.438-1.531 1.062-1.938.031.406 0 .812 0 .812s.469-.312.469-.781c0-.469.094-.719.25-.906.156-.188-.188-.621-.219-1.154-.031-.533.259-.783.259-.783s.178 1.188.585 1.594c.312-1-.25-1.469-.375-2.031s.219-.594-.375-1-.938-1-.719-1.656c.406.906.938.969.938.969s-.562-1.406-.875-1.312c-.312.094-1.094.469-1.656-.094.781.031.906-.125.906-.125s-.188-.594-.906-.375c-.719.219-1.625-.187-1.906-.562.531.156.688.062.688.062l-.531-.344s.438.094.75 0 .406-.312.812.031c.406.344 1 .688 1 .688s-1.031-.688-.969-1.531c1.281.375 1.625 1.531 1.938 1.719s.81.686.966 1.186c.156-.594-.469-1.625-.469-1.625s1.094.094 1.156 2.781c.281-.188 0-1.531 0-1.531s1 .5.75 1.906-.656 2.033-.656 2.033.611-.283.696-.971c.71.688.147 1.812-1.009 3.281 1.323-.625 1.323-1.656 1.323-1.656s.271 1.375-.885 2.188c-1.156.812-1.688.938-1.688.938s.781.062 1.156.156c-.188 1.062-3.844 1.219-4.531 1.312.845.5.811.886.533 1z"/></svg>