<svg xmlns="http://www.w3.org/2000/svg" viewBox="0 0 36 36"><path fill="#D21C33" d="M36 27c0 2.209-1.791 4-4 4H4c-2.209 0-4-1.791-4-4V9c0-2.209 1.791-4 4-4h28c2.209 0 4 1.791 4 4v18z"/><path fill="#00209F" d="M32 5H4C1.791 5 0 6.791 0 9v9h36V9c0-2.209-1.791-4-4-4z"/><path fill="#FFF" d="M12 13.041h11.906V23H12z"/><path fill="#006A16" d="M23.906 21.622c-1.499-.761-3.529-1.237-5.901-1.237-2.37 0-4.506.476-6.005 1.237V23h11.906v-1.378z"/><path fill="#00209F" d="M15.523 16.72l1.165 1.311-.146.822-.252-.143-.227.858h-.059l-.107.453-1.979-.167.048-1.412.477.137.058-1.318.693.471.035-.798z"/><path fill="#D21C33" d="M18.005 19.282v2.002l-1.5-.441-.382-.56-.262-.191.143-.506.226-.876h.346l.085-.739zm-4.313-.906c.179-.214.513-.071.524 0 .012.072-.131.059-.262.179-.131.119-.095.488-.322.441-.226-.048.06-.62.06-.62zm.809-1.115c.231-.156.513.074.504.146-.009.072-.143.021-.301.099-.159.078-.227.443-.432.334-.204-.109.229-.579.229-.579zm.954-.682c.249-.125.499.14.481.21-.018.07-.193-.054-.36.003-.168.057-.234.466-.423.331-.189-.134.302-.544.302-.544z"/><path fill="#F1B517" d="M14.945 16.023l.773.471-.085.226 2.087 2.311v.179l-2.169-2.431-.283-.047zm-1.11.697s.775.298.775.334c0 .036.142.274.142.274l2.824 2.288-.083.108-2.801-2.288-.405-.179-.452-.537zm-.822 1.174s.894.125.906.161c.012.036.072.239.072.239l3.276 1.787-.143.084-3.193-1.765-.369-.024-.549-.482z"/><path fill="#F1B517" d="M13.788 19.592l3.367.411-.319.384-.499.05.373.501-.18.203-.501-.548s-.155.798-.834.798-.895-.679-.895-.906c0-.227.06-.345.06-.345h-.644l.072-.548z"/><path fill="#00209F" d="M20.445 16.648l-1.217 1.443.05.833.313-.214.226.858h.06l.107.453 1.978-.167-.048-1.412-.476.137-.059-1.318-.692.471-.037-.798z"/><path fill="#D21C33" d="M18.005 19.282v2.002l1.436-.441.349-.56.246-.191-.151-.506-.235-.876-.266.198-.092-.817zm4.183-.906c-.18-.214-.514-.071-.525 0-.012.072.132.059.263.179.131.119.096.488.322.441.226-.048-.06-.62-.06-.62zm-.809-1.115c-.231-.156-.512.074-.504.146.009.072.143.021.302.099s.226.443.432.334c.203-.109-.23-.579-.23-.579zm-.953-.682c-.25-.125-.498.14-.481.21.018.07.192-.054.359.003.168.057.235.466.424.331.189-.134-.302-.544-.302-.544z"/><path fill="#F1B517" d="M20.935 16.023l-.772.471.149.226-2.02 2.311v.179l2.103-2.431.251-.047zm1.11.697s-.774.298-.774.334c0 .036-.143.274-.143.274l-2.824 2.288.084.108 2.8-2.288.404-.179.453-.537zm.822 1.174s-.894.125-.905.161c-.013.036-.071.239-.071.239l-3.277 1.787.143.084 3.193-1.764.37-.024.547-.483z"/><path fill="#F1B517" d="M22.093 19.592l-3.366.411.319.384.498.05-.373.501.181.203.501-.548s.155.798.834.798c.68 0 .894-.679.894-.905 0-.227-.059-.345-.059-.345h.643l-.072-.549z"/><path fill="#FFF" d="M22.86 22.142s-.59.021-1.209-.113c-.619-.135-.726-.377-.995-.323-.269.054-.893.285-1.404.351-.512.064-1.247.086-1.247.086s-.676-.021-1.188-.086c-.512-.066-1.077-.297-1.347-.351-.269-.054-.377.189-.997.323-.619.135-1.212.113-1.212.113l.162.286-.162.14c1.401.026 2.048-.426 2.048-.426.7.464 2.696.477 2.696.477s2.056-.013 2.756-.477c0 0 .676.452 2.076.426l-.148-.14.171-.286z"/><path fill="#F1B517" d="M18.292 17.894c0 1.49-.13 2.699-.292 2.699-.161 0-.292-1.209-.292-2.699 0-1.491.131-2.699.292-2.699.162 0 .292 1.208.292 2.699z"/><path fill="#D21C33" d="M17.434 20.426h1.144v1.145h-1.144z"/><path fill="#FFF" d="M18.649 20.354c0 .132-.274.238-.614.238-.339 0-.614-.107-.614-.238s.275-.238.614-.238c.34 0 .614.107.614.238z"/><path fill="#D21C33" d="M18.649 21.498c0 .132-.274.238-.614.238-.339 0-.614-.106-.614-.238s.275-.238.614-.238c.34 0 .614.106.614.238z"/><path fill="#006A16" d="M20.514 14.694c-.229-.274-.818-.262-1.218-.274-.399-.012-.601.131-.422-.059s.455-.142.746-.155c.292-.012.343-.047.164-.142-.179-.095-.493-.213-.91-.106-.409.105-.667.36-.885.404-.218-.043-.491-.299-.9-.404-.417-.107-.74.01-.918.106-.179.095-.131.13.161.142.292.012.565-.036.744.155.179.191-.024.047-.423.059-.399.012-.989 0-1.218.274-.229.274.199.095.426.059.226-.036.56-.047.56-.047s-.56.166-.715.381c-.155.214.047.405.334.238.286-.167.727-.393.965-.417 0 0-.62.258-.894.481-.274.223.013.199.221.199s.422-.083.601-.215c.179-.131-.118.262-.167.513-.047.25.322.191.388 0 .065-.191.279-.572.279-.572s-.094.548-.082.918c.012.37.134.393.229.226s.425.099.425.099.3-.266.395-.099c.096.167.186.143.198-.226.012-.369-.083-.918-.083-.918s.214.381.28.572c.065.191.435.25.387 0-.047-.25-.345-.644-.166-.513.179.131.393.215.601.215.209 0 .495.024.222-.199-.274-.223-.894-.481-.894-.481.239.024.679.25.965.417.286.167.488-.024.333-.238-.155-.215-.715-.381-.715-.381s.334.012.561.047c.226.037.654.215.425-.059z"/></svg>