<svg xmlns="http://www.w3.org/2000/svg" viewBox="0 0 36 36"><path fill="#00247D" d="M32 5H4c-.205 0-.407.015-.604.045l-.004 1.754-2.73-.004C.244 7.427 0 8.185 0 9v18c0 2.209 1.791 4 4 4h28c2.209 0 4-1.791 4-4V9c0-2.209-1.791-4-4-4z"/><path fill="#288548" d="M29.159 16.209l-1.53 3.927-1.53-3.927 1.53-3.927z"/><path fill="#FFF" d="M24.353 17.574s.273.591.91.591 1.001-.455 1.001-.455l.637.819s-.409.273-.409.592c0 0-.273-.273-.182-.501 0 0-.183.183-.318.228 0 0-.046-.273.045-.409 0 0-.318.182-.728.182s-.819-.272-.91-.5c-.091-.228-.046-.547-.046-.547zm2.547-.592c0 .15-.121.272-.273.272H26.4c-.15 0-.273-.122-.273-.272 0-.15.123-.273.273-.273h.227c.152 0 .273.123.273.273zm1.412-.364c0 .151-.122.273-.273.273h-.229c-.15 0-.272-.122-.272-.273 0-.15.122-.273.272-.273h.228c.152.001.274.123.274.273z"/><path fill="#6488BD" d="M27.076 17.188c-.127.08-.296.043-.377-.085l-.097-.153c-.081-.128-.043-.296.084-.377l.039-.024c.127-.081.296-.043.376.085l.098.153c.081.127.043.296-.084.377l-.039.024zm1.547-.182c-.127.081-.296.043-.376-.084l-.098-.154c-.081-.127-.043-.296.084-.376l.039-.024c.127-.081.296-.043.377.084l.097.154c.081.127.043.296-.084.376l-.039.024z"/><path fill="#297F47" d="M27.622 17.098c-.127.08-.296.043-.376-.085l-.098-.153c-.081-.128-.043-.297.084-.377l.039-.024c.127-.081.296-.043.377.085l.097.153c.081.127.043.296-.084.377l-.039.024zm1.337.133c-.15-.005-.269-.131-.264-.282l.006-.182c.005-.15.132-.269.282-.264l.045.002c.151.005.27.131.264.281l-.006.183c-.005.15-.131.269-.281.264l-.046-.002z"/><path fill="#689F9E" d="M27.629 16.709c.591-.027 1.456 1.684 1.502 1.911.045.228-.273.864-.501 1.001-.228.137-1.274.273-1.547.046-.273-.227-.318-.819-.364-1.001-.045-.183-.501-.819-.501-.819l-.5-.091.182-.182.592.045.046-.182h-.273c-.001.001.409-.682 1.364-.728z"/><path fill="#481918" d="M27.447 19.53c.228-.274 1.046-.955 1.319-.818.273.136.228.409-.046.682-.272.273-1.273.136-1.273.136z"/><path fill="#FFF" d="M27.629 19.44h-2.731v2.411c0 1.639.615 2.503 1.115 2.958.501.455 1.615.864 1.615.864s1.114-.409 1.615-.864c.5-.455 1.115-1.319 1.115-2.958V19.44h-2.729z"/><path d="M29.631 24.08c-.364 0-.637.41-1.001.41-.364 0-.637-.364-.955-.364-.318 0-.592.364-.956.364-.363 0-.637-.41-1.001-.41-.079 0-.165.026-.252.065.175.284.369.5.548.663.501.455 1.615.864 1.615.864s1.114-.409 1.615-.864c.186-.169.386-.394.566-.693-.062-.021-.122-.035-.179-.035zm0-1.956c-.364 0-.637.409-1.001.409-.364 0-.637-.364-.955-.364-.318 0-.592.364-.956.364-.363 0-.637-.409-1.001-.409-.251 0-.567.26-.783.376.032.29.085.55.153.783.176-.125.357-.249.585-.249.454 0 .773.409 1.092.409.318 0 .592-.318.91-.318.318 0 .591.318.909.318.318 0 .638-.409 1.093-.409.194 0 .355.091.508.195.065-.232.115-.491.144-.779-.209-.128-.478-.326-.698-.326zm0-1.957c-.364 0-.637.41-1.001.41-.364 0-.637-.364-.955-.364-.318 0-.592.364-.956.364-.363 0-.637-.41-1.001-.41-.265 0-.603.29-.819.395v.894c.241-.147.466-.378.774-.378.454 0 .773.41 1.092.41.318 0 .592-.319.91-.319.318 0 .591.319.909.319.318 0 .638-.41 1.093-.41.268 0 .475.176.683.318v-.884c-.214-.126-.499-.345-.729-.345z" fill="#3AB1D6"/><path fill="#288548" d="M25.13 23.415c.135.409.316.73.508.981l1.991-2.228 1.991 2.228c.191-.251.373-.572.508-.981l-2.499-2.701-2.499 2.701z"/><path fill="#74948F" d="M23.534 23.898c.146-.009.466-.012.591.045.379.174.638.592.638.592s.546.409.592.683c0 0 .409.183.409.364 0 .182-.592.363-.774.318-.183-.046-.683-.182-.865-.091-.182.091-.728.227-.955.182-.228-.046-.5 0-.683 0-.182 0-.409-.182-.683-.272-.273-.092-.91.091-1.001-.183-.091-.272.637-.546.91-.546.274 0 1.048-1.047 1.821-1.092z"/><path fill="#CFDCD9" d="M23.033 24.126s.228.045.273.045c.045 0 .318-.091.409-.045.091.045.046.182.182.228.137.046.183.091.092.228l-.183.272s-.5.091-.683.183c-.182.091-.546.228-.136.272.409.046 1.001.228.909.273-.091.045-.637 0-.818 0-.183 0-.546.091-.638.091-.091 0-.363.046-.227.137.136.091-.183-.046-.364-.091-.182-.046-.592-.183-.318-.274.273-.091.5-.045.637-.045s.318-.183.182-.228c-.136-.046.137-.364.41-.41.272-.045.728-.137.363-.227-.362-.091-.408-.227-.09-.409z"/><path fill="#CFDCD9" d="M23.352 25.036c.183-.046.638.045.592.137-.046.091-.091.182-.228.136-.137-.045-.364-.273-.364-.273z"/><path fill="#3C4544" d="M25.354 25.218c-.046-.274-.592-.683-.592-.683s-.242-.391-.602-.573c-.135.05-.189.163-.036.255.228.137.228.227.137.273-.091.045-.182.136-.227.228-.045.091.137-.046.364 0 .228.045.228.045.409.091.183.045.364.228.274.273-.091.046.091.092.136.227.046.137-.091.092-.273.092-.182 0-.683 0-.729.045-.045.046.865.046.865.137 0 .091-.501 0-.637.045-.137.046-.592.137-.773.092-.183-.046-.547-.092-.638-.046-.091.046-.318.091-.045.137.272.045.727.045 1.001 0 .272-.046.455-.228.728-.137.141.047.148.13.16.199l.113.028c.108.027.359-.026.547-.111.072-.045.142-.094.203-.143.015-.021.024-.043.024-.064.001-.183-.409-.365-.409-.365z"/><path fill="#288548" d="M23.762 23.717s-.091-.41 0-.455c.091-.046.228.137.228.137s0-.501.136-.456c.137.046.183.228.183.228s.137-.363.272-.272c.137.091 0 .364 0 .364s.318.137.228.273c-.091.137-.546.137-.637.183-.091.045-.046.182.045.136.092-.045.547-.228.501-.045-.045.182-.137.228-.318.228-.183 0-.501-.092-.501-.092l-.409.273-.046-.046.318-.456zm-.774-.455c.045.182.091.228.272.228.182 0 .318.091.228.182-.091.091-.318.091-.318.091l.137.364-.046.045-.182-.363-.183.228s-.272-.183-.182-.274c.091-.091.274-.091.182-.182-.091-.091-.227-.364.046-.318.273.045-.182.137-.182.137m-2.502 1.773c.046-.092.318-.183.318-.183s.046-.364.183-.364c.136 0 .272.273.272.273s.046-.182.137-.137c.091.046.318.273.272.364-.045.091-.091.409-.272.455-.182.045-.364-.273-.364-.273s-.091.046-.272.046c-.183 0-.274-.181-.274-.181zm4.14-.729s.137-.409.274-.364c.136.046.136.228.136.228s.409-.045.592.092c.182.136.182.409-.045.5-.229.091-.547-.091-.592-.137-.046-.045-.046.501-.227.501-.183 0-.274-.228-.228-.364.045-.137 0-.273 0-.273s-.364 0-.455.183c0 0 .091-.137.272-.227l.273-.139z"/><path fill="#D1BEA7" d="M24.171 17.893s-.137-.273-.592-.091c-.455.182-.546.5-.591.728-.046.227.091.455-.228.683-.319.228-.546 1.638-.183 1.593.364-.046.455-.091.638.045.182.137.591.183.864-.136 0 0 .272.409.272.637 0 .228-.091.864.183.955 0 0 .409-.546.409-1.092s-.137-1.138-.592-1.41c0 0 .183-.137.319-.319s.226-.136.5-.136h.728s-.182-.41-.409-.501c-.228-.091-.637-.318-1.046 0-.41.318-.683.546-.683.546l-.046-.318s.091-.182.274-.363c.182-.183.182-.455.182-.592l.001-.229z"/><path fill="#937A61" d="M24.944 18.666c.774 0 1.001.728 1.001.728h-.819s-.136-.045-.228-.045c-.091 0-.409.228-.546.5-.137.274-.818-.045-.682-.272.137-.228.455-.911 1.274-.911z"/><path fill="#AF987E" d="M23.352 19.53c.019-.076.156-.09.318-.058.177.034.342.187.501.24.409.136.864.727.864 1.273s-.409 1.183-.455 1.319c-.045.137-.136 0-.182-.137-.046-.136-.046-.454-.046-.727 0-.273-.137-.683-.363-.819-.227-.136-.819-.363-.637-1.091zm-.682 3.732c0 .111.146.504.136.909 0 .031-.044.243-.045.273-.014.395-.142.599-.228.729 0 0-.227-.092-.455-.41-.228-.318-.273-.637-.137-.91.137-.273.729-.591.729-.591z"/><path fill="#D1BEA7" d="M22.396 22.761c.045 0 .16.951.091 1.319-.137.729-.683 1.547-1.047 1.456-.363-.091-.136-.318-.045-.5.091-.183.227-.592.137-.91-.092-.318.864-1.365.864-1.365z"/><path fill="#BA8F69" d="M23.124 20.668c.137.272.455.5.819.091 0 0 .137.683-.137 1.138-.272.455-1.319 1.638-1.319 1.638l-.137-.774.774-2.093z"/><path fill="#BB6C3F" d="M22.441 19.121c.319-.137.774.091.819.363.046.273.091.91.046 1.184-.046.272 0 .728-.091.955-.092.228-.455.455-.501.774-.045.318-.318.591-.727 1.046-.41.455-1.047 1.183-1.229 1.092-.183-.091-.41-1.729.136-3.14.546-1.41 1.547-2.274 1.547-2.274z"/><path fill="#020202" d="M23.625 17.938c.182-.091.318-.045.182.092-.136.135-.365-.001-.182-.092z"/><path fill="#74948F" d="M31.724 23.898c-.146-.009-.466-.012-.591.045-.379.174-.638.592-.638.592s-.546.409-.592.683c0 0-.409.183-.409.364 0 .182.592.363.773.318.183-.046.683-.182.865-.091.182.091.728.227.955.182.228-.046.5 0 .683 0 .182 0 .409-.182.683-.272.273-.092.91.091 1.001-.183.091-.272-.637-.546-.91-.546s-1.047-1.047-1.82-1.092z"/><path fill="#CFDCD9" d="M32.225 24.126s-.228.045-.273.045c-.045 0-.318-.091-.409-.045-.091.045-.046.182-.182.228-.137.046-.183.091-.092.228l.183.272s.5.091.683.183c.182.091.546.228.136.272-.409.046-1.001.228-.909.273.091.045.637 0 .818 0 .183 0 .546.091.638.091.091 0 .363.046.227.137-.136.091.183-.046.364-.091.182-.046.592-.183.318-.274-.273-.091-.5-.045-.637-.045s-.318-.183-.182-.228c.136-.046-.137-.364-.41-.41-.272-.045-.728-.137-.363-.227.362-.091.408-.227.09-.409z"/><path fill="#CFDCD9" d="M31.906 25.036c-.183-.046-.638.045-.592.137.046.091.091.182.227.136.138-.045.365-.273.365-.273z"/><path fill="#3C4544" d="M29.903 25.218c.046-.274.592-.683.592-.683s.242-.391.602-.573c.135.05.189.163.036.255-.227.137-.227.227-.137.273.091.045.182.136.228.228.045.091-.137-.046-.364 0-.228.045-.228.045-.409.091-.183.045-.364.228-.273.273.091.046-.091.092-.136.227-.046.137.091.092.272.092.182 0 .683 0 .729.045.045.046-.865.046-.865.137 0 .091.501 0 .637.045.137.046.592.137.773.092.183-.046.547-.092.638-.046.091.046.318.091.045.137-.272.045-.728.045-1.001 0-.273-.046-.455-.228-.728-.137-.141.047-.148.13-.16.199l-.113.028c-.107.027-.359-.026-.547-.111-.072-.045-.142-.094-.203-.143-.015-.021-.023-.043-.023-.064-.002-.183.407-.365.407-.365z"/><path fill="#288548" d="M31.496 23.717s.091-.41 0-.455c-.091-.046-.227.137-.227.137s0-.501-.136-.456c-.137.046-.183.228-.183.228s-.137-.363-.272-.272c-.137.091 0 .364 0 .364s-.318.137-.228.273c.091.137.546.137.637.183.091.045.046.182-.045.136-.092-.045-.547-.228-.501-.045.045.182.137.228.318.228.183 0 .501-.092.501-.092l.409.273.046-.046-.319-.456zm.774-.455c-.045.182-.091.228-.272.228-.182 0-.318.091-.228.182.091.091.318.091.318.091l-.137.364.046.045.182-.363.183.228s.272-.183.182-.274c-.091-.091-.273-.091-.182-.182.091-.091.227-.364-.046-.318-.272.045.182.137.182.137M35 25.173c-.046-.092-.318-.183-.318-.183s-.046-.364-.183-.364c-.136 0-.272.273-.272.273s-.046-.182-.137-.137c-.091.046-.318.273-.272.364.045.091.091.409.272.455.182.045.364-.273.364-.273s.091.046.272.046c.183 0 .274-.181.274-.181zm-4.141-.729s-.137-.409-.274-.364c-.136.046-.136.228-.136.228s-.409-.045-.592.092c-.182.136-.182.409.045.5.229.091.547-.091.592-.137.046-.045.046.501.228.501.183 0 .273-.228.227-.364-.045-.137 0-.273 0-.273s.364 0 .455.183c0 0-.091-.137-.273-.227l-.272-.139z"/><path fill="#D1BEA7" d="M31.087 17.893s.137-.273.592-.091c.455.182.546.5.591.728.046.227-.091.455.228.683.319.228.546 1.638.183 1.593-.364-.046-.455-.091-.637.045-.183.137-.592.183-.865-.136 0 0-.272.409-.272.637 0 .228.091.864-.183.955 0 0-.409-.546-.409-1.092s.137-1.138.592-1.41c0 0-.183-.137-.319-.319s-.226-.136-.5-.136h-.727s.182-.41.409-.501c.228-.091.637-.318 1.046 0 .41.318.683.546.683.546l.046-.318s-.091-.182-.273-.363c-.182-.183-.182-.455-.182-.592s-.003-.229-.003-.229z"/><path fill="#937A61" d="M30.313 18.666c-.773 0-1.001.728-1.001.728h.819s.136-.045.228-.045c.091 0 .409.228.546.5.137.274.818-.045.682-.272-.136-.228-.454-.911-1.274-.911z"/><path fill="#AF987E" d="M31.906 19.53c-.02-.076-.156-.09-.318-.058-.177.034-.342.187-.501.24-.409.136-.864.727-.864 1.273s.409 1.183.455 1.319c.045.137.136 0 .182-.137.046-.136.046-.454.046-.727 0-.273.137-.683.363-.819.227-.136.819-.363.637-1.091zm.682 3.732c0 .111-.146.504-.136.909.001.031.044.243.045.273.014.395.142.599.228.729 0 0 .227-.092.455-.41.228-.318.273-.637.137-.91-.137-.273-.729-.591-.729-.591z"/><path fill="#D1BEA7" d="M32.861 22.761c-.045 0-.16.951-.091 1.319.137.729.683 1.547 1.047 1.456.363-.091.136-.318.045-.5-.091-.183-.228-.592-.137-.91.092-.318-.864-1.365-.864-1.365z"/><path fill="#BA8F69" d="M32.134 20.668c-.137.272-.455.5-.819.091 0 0-.137.683.137 1.138.272.455 1.319 1.638 1.319 1.638l.137-.774-.774-2.093z"/><path fill="#BB6C3F" d="M32.816 19.121c-.319-.137-.773.091-.819.363-.046.273-.091.91-.046 1.184.046.272 0 .728.092.955.091.228.454.455.5.774.045.318.318.591.728 1.046.41.455 1.047 1.183 1.229 1.092.183-.091.41-1.729-.136-3.14-.547-1.41-1.548-2.274-1.548-2.274z"/><path fill="#020202" d="M31.633 17.938c-.182-.091-.318-.045-.182.092.136.135.364-.001.182-.092z"/><path fill="#FFF" d="M23.216 14.753s.182.455.728.409c.546-.045.955-.182 1.092.318 0 0-.318.046-.455.273-.136.227.228.819.228.819s-.363 0-.5-.228c0 0-.046.409-.318.683-.116.115-.41.136-.41.136l.455-.91c.091-.182.182-.409-.228-.136-.409.272-.955.5-1.273.136 0 0 1.319-.591 1.592-.728-.454 0-.5-.046-.909 0-.244.027-.501.137-.501.137s-.045-.364.455-.364c.318 0-.046-.091-.091-.272-.048-.182.135-.273.135-.273zm6.961 3.73s1.001-.136.865-1.046c-.137-.91-.819-1.547-.683-2.093 0 0-.325.089-.41.363-.182.592.396 1.072.501 1.229.182.273.273.592.273.592s-.5-.409-.774 0c0 0 .318-.046.455.091s.227.318.091.501c-.136.182-.318.363-.318.363zm2.866-3.093s.455.183.455.455c0 .274-.228.364-.591.364 0 0 .182-.137.228-.318.045-.183-.092-.501-.092-.501z"/><path fill="#905F41" d="M26.036 15.071s.683.455.864.501c.183.045.91 0 .91 0l.137-.319s.364-.091.592-.091c.227 0 .501.046.501.046l.091.273-.364.819h-1.229c-.182 0-.592-.137-.683-.318-.091-.183-.455-.409-.546-.546-.091-.137-.591-.501-.273-.365z"/><path fill="#905F41" d="M27.901 15.562c0 .056-.04.101-.091.101-.05 0-.091-.045-.091-.101V13.76c0-.055.041-.1.091-.1.051 0 .091.045.091.1v1.802zm-.818.055c0 .051-.041.091-.091.091-.051 0-.092-.04-.092-.091v-1.638c0-.05.041-.091.092-.091.05 0 .091.041.091.091v1.638zm1.319 0c0 .051-.041.091-.091.091-.05 0-.091-.04-.091-.091v-1.638c0-.05.041-.091.091-.091.05 0 .091.041.091.091v1.638z"/><path fill="#FFF" d="M27.265 14.435c0 .05-.163.091-.364.091-.2 0-.363-.041-.363-.091 0-.051.163-.091.363-.091.201 0 .364.04.364.091zm.182.455c0 .05-.214.091-.479.091-.264 0-.478-.041-.478-.091 0-.051.214-.091.478-.091.265 0 .479.04.479.091zm.683-.615c0 .037-.163.068-.364.068-.201 0-.364-.031-.364-.068 0-.038.163-.068.364-.068.201 0 .364.03.364.068z"/><path fill="#FFF" d="M28.676 14.252c0 .025-.133.046-.296.046-.164 0-.296-.021-.296-.046 0-.024.132-.045.296-.045.163 0 .296.02.296.045zm-.638.455c0 .051-.132.092-.296.092-.163 0-.295-.041-.295-.092 0-.05.132-.091.295-.091.164 0 .296.041.296.091zm.638 0c0 .04-.133.071-.296.071-.164 0-.296-.031-.296-.071 0-.039.132-.07.296-.07.163 0 .296.031.296.07z"/><path fill="#8FD2E2" d="M26.127 16.437s.364-.046.183-.364c0 0 .182-.091.409.137.228.228.638 0 .364-.273 0 0 .227-.137.409.046.183.182.501.228.364-.137 0 0 .318-.091.455.183.137.273.637.227.409-.137 0 0 .228-.046.319.137.091.182.182.227.182.227s.182-.227.363 0c.183.227.092.455-.227.501-.318.045-.456-.318-.456-.318s-.136.182-.363.137c-.228-.046-.364-.228-.364-.228s-.266.136-.409.136c-.228 0-.398-.221-.455-.136-.091.136-.364.273-.637.136 0 0-.227.364-.501.364-.273 0-.546-.164-.546-.409 0-.228.137-.318.272-.273.138.043.229.271.229.271z"/><path fill="#288548" d="M25.49 17.392s-.5.137-.546.41c-.046.272-.091.318-.091.318s-.228-.091-.364-.273c-.137-.182-.182-.592-.137-.728.046-.137.228-.546.41-.773.182-.227.273-.683.228-.865-.046-.182-.273-.363-.273-.363s.592 0 .683.363c.091.364-.091.638-.091.638s.091.045.228-.137c0 0 .045.455-.228.546 0 0-.183.273-.273.501-.091.227-.248.499-.137.409.227-.183.591-.046.591-.046zm-3.003-1.866s-.182.227-.182.364c0 .137.182.455.455.546 0 0-.819-.318-.819-.592 0-.272.365-.318.546-.318zm7.416.273s.092-.682.592-.637c.501.046 1.229.183 1.365.046.137-.137.091-.409.091-.409s.273.045.318.182c.046.137-.136.318-.136.318s.228-.046.363.091c.137.137.273.318.273.318s-.455-.136-.683-.136c-.227 0-.864-.046-.864-.046s.637.364 1.001.501c.363.136.637.273 1.092.136 0 0-.455.273-.592.364-.137.091-.363.091-.637-.046-.272-.136-.727-.454-.727-.454s0 .318.136.637c.137.318.364.546.364.546s-.409-.091-.592-.273c-.182-.182-.182-.591-.182-.591s-.228.318-.546.228c0 0 .137-.092.228-.319s.227-.409.091-.591c-.137-.183-.318-.364-.546-.318-.226.044-.409.453-.409.453zm-1.637.91c-.409.183-.683.455-.637 1.138 0 0 .227-.455.455-.592 0 0 0 .41.137.774.137.363.5.637.773.683 0 0-.318-.501-.318-.91 0 0 .272.682.727 1.092l.046-.318s-.183-.183-.227-.41c0 0 .272.364.637.364s.637-.228.683-.546c0 0-.182.091-.5.137-.319.045-.683-.137-.956-.501-.273-.364-.318-.683-.318-.683l-.502-.228z"/><path fill="#00247D" d="M19 18V5H4c-.32 0-.604.045-.604.045l-.004 1.754-2.73-.004S.62 6.854.535 7C.195 7.589 0 8.272 0 9v9h19z"/><path fill="#EEE" d="M19 5h-2.331L12 8.269V5H7v2.569L3.396 5.045c-.614.094-1.19.325-1.672.665L6.426 9H4.69L.967 6.391c-.11.129-.211.262-.305.404L3.813 9H0v5h3.885L0 16.766V18h3.332L7 15.432V18h5v-3.269L16.668 18H19v-2.029L16.185 14H19V9h-2.814L19 7.029V5z"/><path fill="#CF1B2B" d="M11 5H8v5H0v3h8v5h3v-5h8v-3h-8z"/><path fill="#CF1B2B" d="M19 5h-1.461L12 8.879V9h1.571L19 5.198zm-17.276.71c-.281.195-.534.423-.757.681L4.69 9h1.735L1.724 5.71zM6.437 14L.734 18h1.727L7 14.822V14zM19 17.802v-1.22L15.313 14H13.57z"/></svg>