<svg xmlns="http://www.w3.org/2000/svg" viewBox="0 0 36 36"><path fill="#DD2E44" d="M36 27c0 2.209-1.791 4-4 4H4c-2.209 0-4-1.791-4-4V9c0-2.209 1.791-4 4-4h28c2.209 0 4 1.791 4 4v18z"/><path fill="#00297B" d="M35 27c0 1.657-1.343 3-3 3H4c-1.657 0-3-1.343-3-3V9c0-1.657 1.343-3 3-3h28c1.657 0 3 1.343 3 3v18z"/><path fill="#DD2E44" d="M17.519 26.625c2.672-2.22 5.629-4.795 5.629-8.434 0-3.64-2.957-6.215-5.629-8.435-2.673 2.22-5.63 4.794-5.63 8.435 0 3.639 2.957 6.214 5.63 8.434z"/><path fill="#017BDD" d="M12.727 19.626c.615 2.561 2.794 4.497 4.792 6.202 1.999-1.705 4.178-3.642 4.792-6.202h-9.584z"/><path fill="#66AFEB" d="M22.31 19.626c.111-.457.172-.936.172-1.435 0-3.296-2.607-5.628-4.963-7.638-2.356 2.01-4.962 4.341-4.962 7.638 0 .499.06.978.17 1.435h9.583z"/><path fill="#9C8431" d="M22.463 18.664c-.025.331-.076.651-.152.962h-5.758c.071-.192.17-.488.256-.711 1.62.223 4.171.163 5.654-.251z"/><path fill="#FFF100" d="M14.938 23.423c-.441-.479-.848-.983-1.196-1.515.906.041 2.676.229 3.379.84.171.148.171.222-.042.192-.427-.058-1.567.181-2.141.483z"/><path fill="#FFF100" d="M21.789 21.05c-.932 1.88-2.66 3.404-4.27 4.778-.501-.428-1.013-.869-1.509-1.331.684-1.083 2.59-.417 2.59-1.379 0-.503-.483-.943-1.166-.992-.213-.014-.265-.023-.1-.147.782-.591 1.579.044 2.914-.562.973-.441 1.418-.408 1.541-.367z"/><path fill="#029270" d="M18.542 14.45c-.018-.023-.039-.084-.046-.099.042.037.228.085.295.096-.028-.018-.078-.092-.096-.107.053.022.252.092.295.07-.035-.036-.136-.141-.178-.17.074.026.252.126.298.126-.01-.04-.025-.103-.049-.156.062.045.18.097.24.119-.006-.048-.021-.126-.041-.17.062.044.178.133.254.163-.02-.03-.014-.126-.049-.17.049.037.199.156.264.178-.037-.044-.043-.133-.072-.17.043.037.186.104.25.148-.016-.03-.043-.097-.072-.141.043.044.234.155.291.2-.014-.044-.043-.141-.062-.178.084.03.305.163.377.192-.256-.512-1.406-.684-2.063-.476.104-.051.16-.153.357-.201-.049-.015-.172-.078-.185-.1.063.015.298-.03.348-.037-.043-.037-.121-.096-.156-.133.093.007.313-.015.377-.037-.037-.015-.115-.044-.158-.066.064.007.214.022.277.007-.041-.037-.113-.126-.17-.163.092.022.277.022.398.007-.057-.037-.135-.074-.186-.103.059.007.299-.059.363-.074-.035-.037-.129-.059-.186-.081.1-.007.264-.104.312-.148-.792.012-1.45.396-1.793.962.011-.184-.05-.408-.059-.539l-.099.125c.03-.102.029-.373.013-.455-.018.053-.067.133-.089.174.007-.098-.019-.368-.049-.475-.022.056-.078.132-.101.174.018-.123-.061-.439-.099-.56.001.058-.052.201-.069.237-.003-.11-.092-.464-.133-.54.018.059-.014.215-.016.27-.027-.078-.134-.282-.171-.341.014.042.001.122.001.165-.062-.089-.226-.255-.3-.308.064.098.12.252.154.318-.019-.01-.068-.031-.092-.036.056.068.162.253.201.32-.035-.012-.108-.018-.144-.018.074.058.22.223.27.291-.032-.014-.13-.008-.157.004.064.034.213.17.258.232-.035-.023-.119-.045-.153-.042.075.079.184.217.233.271-.043-.026-.182-.065-.231-.06.058.057.231.242.276.303-.044-.016-.146-.001-.182-.001.065.06.234.253.275.303-.041-.023-.153-.042-.193-.045.075.084.182.252.229.322-.039-.003-.123-.014-.156-.028-.371-.613-1.04-.991-1.506-1.026.064.029.285.17.355.244-.05 0-.121-.015-.164-.015.078.067.242.163.306.192-.021 0-.114 0-.142.019.064.064.234.111.345.192-.042 0-.114.007-.156.007.096.037.263.156.32.241-.028-.004-.107-.011-.146-.015.092.052.221.144.277.204-.035-.011-.117-.011-.149-.011.057.044.231.122.284.188-.029-.003-.128-.011-.156-.011.06.048.229.178.321.278-1.084-.524-2.403-.287-3.101.677.086-.029.384-.207.483-.237-.043.052-.029.119-.057.17.085-.052.22-.163.32-.23-.021.037-.036.118-.071.185.071-.044.291-.192.398-.281-.014.067-.042.126-.064.17.114-.067.327-.215.399-.267-.035.066-.064.141-.1.185.1-.037.327-.185.462-.259-.021.052-.035.126-.071.17.107-.059.277-.111.392-.104-.022.037-.057.104-.1.133.107-.037.259-.064.43-.042-.733.242-1.466 1.032-1.446 1.552.067-.119.203-.277.288-.355-.018.056-.007.145-.003.196.035-.111.11-.244.177-.363-.01.067.011.152.025.196.035-.107.164-.325.22-.415-.018.063.004.182.018.244.054-.111.164-.281.253-.381-.021.067-.018.181-.014.222.056-.1.198-.278.284-.37-.025.078-.025.196-.029.252.068-.107.26-.307.37-.403-.032.07-.043.185-.053.233.082-.089.32-.237.409-.263-.143.1-.292.355-.377.477l.138-.026c-.078.052-.23.24-.267.307.043-.026.121-.052.161-.067-.061.063-.196.267-.235.359.046-.026.128-.044.167-.059-.081.074-.206.34-.249.447.032-.041.149-.107.182-.122-.06.078-.199.377-.213.455.022-.052.132-.141.164-.178-.025.07-.068.277-.075.341.014-.038.067-.085.092-.115-.007.1.011.315.032.396.011-.107.06-.248.075-.314.007.019.028.063.042.082 0-.082.033-.274.043-.344.018.029.064.078.089.1-.018-.085-.025-.288-.021-.366.014.029.085.085.11.092-.025-.063-.049-.248-.046-.318.01.037.057.103.082.122-.007-.1-.003-.262-.007-.329.014.044.088.155.125.181-.008-.074-.022-.307-.018-.377.022.037.1.088.124.111-.01-.081-.018-.318-.018-.377.014.041.082.122.107.148-.004-.104.018-.285.025-.362.024.026.078.085.092.115.014-.155.107-.318.227-.466.128.133.239.429.26.455.014-.033.032-.104.046-.119.003.074.035.267.042.318.015-.037.057-.115.071-.126 0 .089.01.237.021.304.014-.037.049-.096.071-.111-.018.074-.01.274 0 .348.014-.03.061-.093.085-.115-.022.067.05.304.057.407.007-.037.058-.096.078-.133 0 .081.028.318.035.436.015-.048.064-.119.09-.148-.018.107.035.311.074.403.007-.052.028-.137.05-.17.035.071.131.271.135.381.043-.107.036-.326-.014-.462.032.026.063.044.085.052-.024-.096-.1-.281-.139-.314.036.018.089.044.11.063-.024-.111-.107-.296-.152-.374.042.011.103.022.142.044-.039-.081-.175-.27-.235-.321.036.011.126.04.157.052-.039-.067-.221-.226-.331-.296.058-.007.156-.007.203-.007-.067-.085-.228-.2-.327-.252.032.004.117.022.159.033-.027-.081-.184-.237-.259-.303.065.034.271.137.334.204.015-.052.004-.174-.018-.226.063.04.217.184.245.24.015-.052.015-.141.011-.174.163.115.267.251.31.326.007-.052.01-.174-.004-.237.05.044.167.181.193.24.002-.048.01-.126-.004-.167.035.044.131.237.145.277.012-.041.037-.17.025-.207.039.056.17.251.189.318.014-.059.039-.152.035-.185.043.063.121.288.127.351.018-.03.053-.182.047-.237.035.067.139.337.16.393.014-.041.035-.163.031-.196.025.041.143.333.146.381.017-.044.027-.155.023-.192.016.067.104.245.217.37.101-.957-.921-1.564-1.736-1.688z"/><path fill="#7B4800" d="M16.894 20.684c-.396 0-.576.073-1 .103-.006-1.64.003-2.212-.045-2.212-.047 0-.04.573-.045 2.215-.089.005-.167.011-.281.011-.74 0-.875-.118-1.373-.118-.016.177.188.353.753.426l-.023.145c-.078-.003-.164-.016-.208-.031-.032.167.363.207.85.207s.881-.04.849-.207c-.044.016-.13.028-.208.031l-.023-.144c.566-.073.77-.25.754-.426zm-.853.583c-.174.024-.394.024-.519.024s-.345 0-.52-.024l.019-.145c.147.014.308.024.5.024s.352-.01.499-.024l.021.145z"/><g fill="#7B4800"><path d="M17.661 14.707c.063 1.825-.718 6.224 2.046 7.589.264.119.068.617-.381.386-2.631-1.491-1.789-6.031-1.836-7.986l.171.011z"/><circle cx="17.449" cy="14.775" r=".198"/><circle cx="17.682" cy="14.705" r=".198"/><circle cx="17.782" cy="14.517" r=".198"/><circle cx="17.436" cy="14.454" r=".198"/></g><path fill="#FFF" d="M14.825 18.694c.17.621-.015 1.441-.32 2.012.654-.066 1.706-.133 2.062 0-.313-.828-1.031-1.842-1.742-2.012z"/><path d="M14.845 17.567c-.048-.135-.137-.218-.257-.218-.18 0-.296.184-.296.458s.119.465.3.462c.152-.001.253-.109.264-.288h-.233v-.215h.432v.699h-.138c0-.047-.007-.111-.02-.154-.066.116-.175.182-.308.189-.277.018-.511-.288-.511-.695s.198-.676.511-.676c.247 0 .45.185.45.438h-.194zm1.611.709c.165 0 .208-.124.208-.24v-.906h.23v.903c0 .222-.101.47-.439.47-.337 0-.439-.248-.439-.47v-.903h.231v.906c.002.117.046.24.209.24zm2.089-.283l-.146.001.151-.558.15.558-.155-.001v.229h.22l.074.279h.225l-.381-1.373h-.266l-.381 1.373h.225l.075-.279h.209v-.229zm1.781.508l-.213-1.046v1.046h-.222v-1.373h.345l.205 1.053.205-1.053h.346v1.373h-.222v-1.046l-.213 1.046z" fill="#DD2E44"/></svg>