<svg xmlns="http://www.w3.org/2000/svg" viewBox="0 0 36 36"><path fill="#3B88C3" d="M36 32c0 2.209-1.791 4-4 4H4c-2.209 0-4-1.791-4-4V4c0-2.209 1.791-4 4-4h28c2.209 0 4 1.791 4 4v28z"/><path fill="#FFF" d="M23.459 28.008c-1.519.868-3.348 1.364-5.457 1.364-6.294 0-10.666-4.992-10.666-11.41 0-6.449 4.341-11.41 10.666-11.41 6.232 0 10.666 5.116 10.666 11.41 0 2.728-.713 5.209-2.078 7.162l1.768 1.52c.59.527 1.086 1.023 1.086 1.892 0 1.085-1.086 1.953-2.139 1.953-.684 0-1.24-.279-2.078-.992l-1.768-1.489zm-.371-6.077c.526-1.179.744-2.542.744-3.969 0-3.689-1.954-7.131-5.83-7.131-3.876 0-5.829 3.379-5.829 7.131 0 3.782 1.891 7.132 5.829 7.132.713 0 1.365-.094 1.984-.218l-1.116-1.085c-.341-.311-.589-.807-.589-1.24 0-1.209.838-2.232 2.108-2.232.435 0 .806.155 1.179.403l1.52 1.209z"/></svg>