<svg xmlns="http://www.w3.org/2000/svg" viewBox="0 0 36 36"><path fill="#EEE" d="M36 27c0 2.209-1.791 4-4 4H4c-2.209 0-4-1.791-4-4V9c0-2.209 1.791-4 4-4h28c2.209 0 4 1.791 4 4v18z"/><path fill="#C60C30" d="M21.441 13.085c-2.714-1.9-6.455-1.24-8.356 1.474-.95 1.356-.621 3.227.737 4.179 1.357.949 3.228.618 4.178-.738s2.822-1.687 4.178-.736c1.358.95 1.688 2.821.737 4.178 1.901-2.714 1.241-6.455-1.474-8.357z"/><path fill="#003478" d="M22.178 17.264c-1.356-.951-3.228-.62-4.178.736s-2.821 1.687-4.178.737c-1.358-.951-1.687-2.822-.737-4.179-1.901 2.716-1.241 6.456 1.473 8.356 2.715 1.901 6.455 1.242 8.356-1.474.951-1.355.621-3.226-.736-4.176z"/><path d="M24.334 25.572l1.928-2.298.766.643-1.928 2.298zm2.57-3.063l1.928-2.297.766.643-1.928 2.297zm-1.038 4.351l1.928-2.297.766.643-1.928 2.297zm2.572-3.066l1.93-2.297.766.644-1.93 2.296zm-1.041 4.352l1.93-2.297.765.643-1.929 2.297zm2.571-3.065l1.927-2.3.767.643-1.927 2.3zm.004-14.162l.766-.643 1.93 2.299-.767.643zM27.4 7.853l.766-.643 1.928 2.299-.767.642zm-1.533 1.288l.766-.643 4.5 5.362-.766.643zm-1.532 1.284l.767-.643 1.927 2.298-.766.642zm2.57 3.065l.766-.643 1.93 2.297-.765.643zM6.4 20.854l.766-.643 4.499 5.363-.767.643zM4.87 22.14l.765-.642 1.929 2.298-.767.643zm2.567 3.066l.766-.643 1.93 2.297-.766.643zm-4.101-1.781l.766-.643 4.5 5.362-.767.643zm-.001-10.852l4.498-5.362.767.642-4.5 5.363zm1.532 1.287l4.5-5.363.766.643-4.5 5.362zM6.4 15.145l4.5-5.363.766.643-4.5 5.363z" fill="#292F33"/></svg>