<svg xmlns="http://www.w3.org/2000/svg" viewBox="0 0 36 36"><path fill="#007934" d="M4 5C1.791 5 0 6.791 0 9v18c0 2.209 1.791 4 4 4h8V5H4zm28 0h-8v26h8c2.209 0 4-1.791 4-4V9c0-2.209-1.791-4-4-4z"/><path fill="#EEE" d="M12 5h12v26H12z"/><path fill="#007934" d="M20.016 21.657c.525-.04 1.344.185 1.946.131.601-.056.506-.097.308-.253-.199-.157-.369-.041-.471.06-.104.103-.28.096-.199-.007.082-.103.007-.149-.191-.137-.198.015-.342.083-.471.117-.13.034-.273-.056-.172-.102.104-.049.089-.089.007-.096-.082-.007-.088-.061.137-.097.226-.033.382.028.513.075.13.049.28.008.377-.06.095-.068.15-.144.265-.137.117.007.186-.055.035-.158-.149-.102-.368-.108-.499-.046-.13.061-.191.02-.24-.042-.046-.062-.232-.056-.415.027-.184.083-.31.188-.417.041-.055-.075-.431.014-.662.082-.233.068-.275 0-.084-.089.254-.117.409-.035.786-.178.254-.096.614.061 1.21-.28.143-.082.28-.164-.115-.178-.199-.007-.294.014-.362.103-.068.09-.15.068-.144 0 .007-.068-.179-.115-.335-.014-.157.104-.273.191-.349.212-.075.021-.092.003-.075-.055s-.038-.051-.105-.007c-.068.045-.185.102-.26.097-.075-.007-.157-.069.055-.179.212-.108.412-.244.734-.219.424.035.518-.141.724-.134.205.008.313-.149.038-.153-.276-.003-.358.059-.42.104-.061.043-.186.075-.165-.018.022-.093-.027-.093-.125-.048-.101.044-.343.075-.459.04-.115-.033-.226-.095.052-.108.276-.014.469-.146.704-.086.212.055.323-.054.401-.044.08.01.176-.059.035-.171-.14-.112-.492-.119-.615-.1-.122.021-.186 0-.163-.047.022-.048-.011-.068-.117-.064-.105.003-.4.071-.525.126-.164.071-.287-.039-.153-.126.088-.059.323-.13.453-.113.131.017.188.032.15-.059-.017-.04-.023-.092.117-.058.14.034.424.041.58-.048.157-.089.042-.191-.212-.185-.252.007-.799.081-1.018.225-.219.144-.25-.01-.16-.058.089-.047.102-.082.054-.112-.047-.03-.045-.058.087-.106.252-.092.519-.065.832-.208.235-.107.479-.233.554-.416.075-.185-.041-.123-.179-.068-.135.054-.218.095-.218.191s-.115.096-.108-.021c.006-.116-.062-.17-.247-.095-.184.075-.649.246-.812.226-.164-.02-.232-.124-.062-.13.172-.007.403-.075.54-.123.137-.047.219-.123.115-.178-.102-.055-.026-.123.09-.123.115 0 .252-.103.402-.082.15.021.32-.029.123-.144-.081-.047-.156-.109-.055-.164.103-.055.042-.205-.115-.225-.158-.021-.302.013-.384.041-.081.027-.15.02-.17-.048-.021-.069-.287-.062-.397-.034-.108.027-.32.014-.163-.062.157-.075.492-.123.655-.123.164 0 .336-.041.424-.075.089-.034.11-.212-.088-.212-.199 0-.457.014-.411-.061.049-.076-.123-.123-.313-.082-.191.04-.452.082-.3-.021.15-.103.457-.212.601-.206.144.007.245-.02.15-.136-.096-.116-.034-.157.062-.171.095-.014.116-.13-.021-.157-.137-.027-.488-.107-.655-.013-.233.129-.41.123-.335.047.074-.075.022-.073-.098-.041-.271.075-.86.246-1.023.233-.083-.007-.178.01-.176-.09.001-.091.066-.098.305-.136.479-.075 1.004-.225 1.23-.198.225.028.322-.006.26-.102-.062-.096-.24-.021-.163-.144.075-.123-.061-.11-.165-.116-.102-.007-.209-.048-.268-.102-.083-.08-.365-.034-.508.021-.144.055-.46.128-.583.12-.15-.01-.159-.01-.166-.12-.003-.056.016-.079.084-.106.156-.062.793-.086.991-.048.389.075.405-.069.323-.14-.105-.092-.443-.051-.656-.014-.212.038-.437.079-.495.027-.058-.051.007-.098.154-.126.178-.034.595-.011.66-.041.065-.031.13-.127-.015-.165-.143-.038-.481 0-.638.055-.158.055-.332.038-.37-.017-.038-.055-.023-.191.24-.17.262.021.745.014.83 0 .087-.014.097-.075.052-.133-.044-.058-.099-.12-.049-.164.052-.044.032-.082.005-.119-.028-.038 0-.068.027-.093.026-.024.063-.082-.035-.064-.167.031-.427-.055-.559-.003-.134.051-.436.086-.534.072-.044-.007-.068-.096.014-.106.143-.018.427-.059.533-.113.105-.055.215-.095.349-.092.132.003.219-.047.089-.109-.131-.061-.342-.044-.466.014-.122.058-.344.171-.464.154-.119-.017-.131-.087-.085-.236.024-.079.181-.085.291-.065.109.021.431-.061.553-.034.123.027.233-.021.097-.123-.137-.103-.26-.068-.397-.014-.136.055-.437.13-.518.055-.082-.075-.102-.267.051-.198.167.075.584-.061.696-.003.113.058.171-.051.061-.102-.108-.051-.43-.003-.538.021-.185.042-.26.055-.26-.051 0-.072.211-.061.27-.045.151.041.373-.146.509-.112s.113-.042.042-.096c-.072-.054-.343-.027-.438.034-.095.062-.26.1-.321.096-.061-.004-.088-.021-.088-.13s.059-.141.14-.181c.133-.065.155-.164.054-.14-.157.038-.211.089-.211-.123 0-.096.013-.182.139-.208.127-.028.151-.113.11-.133-.042-.021-.093.03-.155.055-.061.024-.103.048-.109-.123-.003-.099.055-.13.112-.133.059-.003.117-.045.144-.082.028-.038 0-.089-.088-.051-.089.038-.173.048-.174-.051-.003-.222-.031-.731-.038-.851-.007-.12-.092-.15-.092-.014 0 .137-.008.629-.027.861-.007.082-.055.089-.124.048-.068-.041-.266-.014-.129.048.136.061.225.082.232.191.007.109-.054.123-.171.068-.116-.055-.266-.034-.054.096.212.129.225.137.218.273-.006.137-.076.124-.211.062-.165-.076-.3-.014-.109.075s.321.205.314.328c-.012.121-.102.182-.245.005-.144-.178-.375-.267-.546-.246-.171.021-.082.102.116.178.199.075.519.225.595.308.075.082.034.15-.144.075s-.575-.226-.704-.178c-.13.048-.184.123.035.13.218.007.598.069.758.13.199.075.226.232.034.177-.191-.054-.724-.164-.881-.068-.157.096-.205.192.062.15.267-.041.602-.042.752.021.082.034.15.041.144.157-.007.116-.096.116-.259.048-.165-.068-.657-.198-.807-.075-.15.123-.116.144.096.109.212-.034.534-.003.69.027.318.062.294.117.089.117s-.813.027-.956-.028c-.144-.054-.355-.089-.438-.054-.082.034-.014.068.054.068.069 0 .124.055.075.102-.047.047-.075.136.117.102.191-.034.465-.034.608.021.143.055.361.117.539.136.191.021.198.027.191.171-.005.106-.225.041-.437-.096s-.622-.211-.813-.082c-.191.13-.082.157.096.123s.67.055.854.116c.184.062.297.021.287.191-.007.102-.11.049-.267-.014-.478-.191-1.054-.208-1.243-.185-.134.017-.154.03-.11.068.033.027.008.079-.072.099-.082.02-.188.055-.238.096-.052.041-.048.082.099.068.147-.013.294.011.208.068-.085.058-.193.136-.023.151.437.038 1.072.311 1.291.434.219.123.277.133.273.246-.003.113-.122.095-.25.027-.399-.211-.796-.163-1.001-.307-.205-.144-.505-.301-.696-.178-.191.123-.157.198.013.178.171-.02.355.007.287.096s-.115.146.164.185c.39.055 1.025.3 1.237.389.212.089.294.15.116.178-.178.027-.185-.099-.465-.109-.177-.007-.403-.103-.526-.198-.122-.095-.205-.144-.409-.123-.206.021-.499.055-.608.117-.109.061-.151.15.027.157.178.007.26.116.124.164-.137.048-.28.075-.328.13-.048.055.02.103.205.103s.472.061.725.185c.252.123.983.492 1.182.505.198.014.219.041.212.144-.007.103-.076.082-.239.034-.164-.048-.629-.191-.779-.321-.15-.13-.304-.253-.44-.259-.137-.007-.099.038-.052.089.048.051.044.177-.047.092-.147-.137-.253-.283-.447-.287-.195-.003-.379 0-.478.055-.1.055-.087.134.099.16.219.031.455.099.564.164.109.065.061.13-.041.123-.103-.007-.079.051.034.119s.181.16.095.182c-.123.03-.338-.216-.437-.202-.068.01-.014.058.044.096.059.038.06.163-.034.092-.129-.1-.304-.229-.502-.157-.198.072-.293.157-.126.229.167.072.288.138.208.239-.039.048-.074.12.163.137.147.01.311.068.383.147.072.078-.021.11-.109.072-.089-.038-.287-.058-.383.031-.096.088.001.15.195.173.546.065 1.127.243 1.448.271.321.026.588.104.724.157.181.071.086.273-.047.205-.188-.097-.318-.153-.39-.168-.072-.013-.072.014-.059.079.014.064-.068.098-.146.023-.079-.075-.318-.218-.465-.242-.146-.025-.126.003-.102.05.024.048.014.13-.082.035-.096-.096-.396-.233-.574-.222-.116.007-.091.044-.068.092.024.048-.037.15-.109.052-.072-.1-.225-.238-.406-.13-.075.044-.15.106-.26.127-.11.02-.086.083.064.115.393.085.546-.024.807.079.198.079.372.102.447.109.075.007.13.052.045.078-.086.028-.079.092.013.175.093.082.019.209-.062.112-.147-.178-.362-.115-.44-.201-.079-.086-.113-.075-.113-.007 0 .068-.039.086-.113.027-.263-.204-.591-.164-.731-.068s-.109.128.144.168c.714.112 1.602.263 2.367.583.415.174.39.212.37.264-.021.051-.101.063-.267-.048-.188-.127-.689-.202-.912-.339-.222-.136-.287-.064-.226.022.062.085.039.174-.088.061-.127-.113-.39-.257-.539-.26-.15-.003-.038.061.038.112.075.051.092.208-.038.126-.13-.081-.517-.297-.817-.222-.3.075-.256.12-.102.219.154.099.298.171.626.161.328-.011.642.051.789.147.146.096.01.119-.089.061-.099-.058-.365-.102-.475-.088-.109.013-.059.064-.014.116.044.051-.007.212-.096.112-.089-.099-.331-.215-.478-.249-.321-.075-.464.073-.324.123.085.03.129.075.078.144-.052.068-.079.146.095.119.407-.062 1.156-.049 1.568.082.355.113.277.188.184.182-.092-.007-.191-.056-.144.033.048.089.044.169-.075.086-.246-.171-.587-.235-.745-.229-.085.003-.047.049-.01.097.037.047-.017.13-.109.058-.092-.071-.263-.174-.375-.178-.113-.003-.109.034-.059.085.051.052.04.141-.065.065-.157-.112-.406-.232-.587-.219-.181.014-.1.102.065.171.31.13.638.211.871.233.232.02.437.085.533.091.095.007.136.06.006.075-.177.021-.464-.107-.608-.04-.075.034.019.084.031.108.024.049.014.174-.078.099-.28-.229-.455-.197-.554-.27-.099-.071-.201-.03-.137.051.066.083-.072.059-.177-.006-.106-.065-.284-.108-.396-.075-.113.035-.164.075.068.198.232.123.42.215.657.26.235.044.266.183.136.167-.129-.017-.152.058-.064.123.041.03.068.116.061.168-.007.051-.086.041-.188-.072-.246-.273-.789-.294-1.059-.215-.27.078-.157.208.038.392.195.185.376.379.881.317.505-.061 1.4-.252 1.811-.143.41.108.364.295.239.315-.225.033-.219-.186-.45-.199-.233-.013-.308.103-.383.185-.075.082-.131.154-.369.041-.301-.144-.533.061-.663.034.123.068.328.226.274.287-.055.062-.144-.062-.328-.13-.184-.068-.458-.082-.663.041-.205.123.007.246.232.301.226.055.718.055 1.121-.055.403-.109.902-.187 1.086-.191.137-.004.199.071.106.157.14.041.305.001.393-.055.226-.144.195 0 .146.089.148.01.404-.174.506-.106.03.618-.011 1.868-.011 2.299 0 .075.055.062.431.062.455 0 .479.034.464-.186-.013-.213-.144-1.488-.102-1.953.042-.465.171-.431.335-.396.164.034.554.157.746.15-.123-.13-.137-.219-.021-.191.116.027.267-.021.368-.109-.088-.007-.149-.123.009-.15.156-.027.21.055.483.144s1.302.292 1.887-.082c.171-.109.034-.157-.178-.157s-.32.048-.424.089c-.103.041-.195.071-.174-.01.021-.082-.163-.113-.328-.038-.164.075-.304.109-.263.021.04-.089-.024-.109-.243-.096-.19.012-.758-.051-.734-.142.014-.056.122-.082.311-.041.447.095 1.444.123 1.747.103.49-.034.347-.186.16-.239-.188-.056-.4-.015-.447.044-.049.059-.211.096-.172.003.055-.13-.216-.16-.454-.03-.163.089-.195.044-.137-.027.059-.072-.038-.121-.222-.105-.264.02-.742.026-.926-.052-.209-.091-.16-.119.189-.147zm-1.628-7.115c-.061.017-.126.044-.126-.027 0-.075.075-.044.126-.038.052.007.122.032 0 .065zm-.003-.321c.052.017.164.031.236.014.072-.017.158.037.044.068-.202.055-.409.099-.413-.027-.002-.078.082-.072.133-.055zm-.584-.061c-.111-.047-.075-.099-.021-.119.055-.02.17-.014.164.106-.003.071-.095.033-.143.013zm-1.855 7.69c-.058-.086.018-.031.137.003.071.02.141.068.137.126-.007.099-.216-.044-.274-.129zm1.377-1.381c.116.075.478.068.478.219 0 .068-.075.027-.165.027-.088 0-.279-.076-.403-.184-.122-.11-.027-.137.09-.062zm.457 1.475c-.016.138-.245.041-.417-.054-.171-.097.014-.137.089-.117.075.021.145.023.239 0 .089-.019.11 0 .089.171zm-.109-.395c-.123 0-.39-.102-.622-.199-.232-.095-.021-.15.116-.095.137.055.369.068.513.068.164 0 .177.226-.007.226zm-.198-3.143c-.198-.027-.376-.177-.916-.3-.225-.051-.171-.082-.014-.082s.615.206 1.1.281c.108.017.239.04.232.191-.005.149-.209-.063-.402-.09zm.201-.56c-.122-.092-.536-.222-.69-.253-.153-.03-.239-.082-.092-.103.147-.021.348.024.529.117.1.051.271.126.342.126.072 0 .126-.01.126.14.001.161-.091.065-.215-.027zm-.706-3.007c.198.076.597.045.854.205.11.068-.041.082-.198.02-.157-.061-.342-.027-.663-.137-.263-.088-.151-.147.007-.088zm.519 1.155c-.235-.085-.331-.157-.314-.194.017-.038.237.018.389.068.271.089.326.096.318.215-.007.096-.157-.003-.393-.089zm-.56.284c.239 0 .532.137.734.233.14.066.219.092.215.181-.003.075-.088.04-.157-.007-.068-.047-.55-.191-.782-.287-.233-.096-.249-.12-.01-.12zm.977.772c-.007.061-.062.02-.116.02-.099 0-.349-.188-.684-.242-.165-.027-.362-.168-.543-.226-.181-.058-.04-.14.059-.083.063.037.15.059.331.092.181.034.574.182.701.267.058.041.267.029.252.172zm.031-1.636c-.007.109-.059.12-.127.058-.068-.061-.225-.106-.39-.154-.163-.048-.099-.15.028-.089s.298.092.444.072c.075-.011.048.051.045.113zm.303.351c.006-.157.021-.163.119-.143.112.023.455.01.592-.003.137-.014.249.038.017.082-.232.045-.407.093-.506.134-.098.04-.229.087-.222-.07zm1.354 3.208c-.097.102-.604.195-.909.335-.253.116-.301.082-.301-.075 0-.172.177-.068.267-.13.088-.062.628-.117.793-.205.162-.088.245-.028.15.075zm-.417.834c-.164.021-.314.108-.575.197-.259.09-.22-.051-.116-.115.109-.068.465-.15.663-.165.198-.013.191.062.028.083zm-.104-1.046c-.054.055-.197.109-.396.156-.198.048-.294.042-.294-.075 0-.115.062-.082.205-.068.144.015.417.021.485-.013zm-.471-.611c-.075.048-.238.072-.235 0 .003-.072 0-.065.041-.068.201-.017.375-.131.482-.14.163-.014.255-.027.16.044-.095.072-.373.116-.448.164zm-.14-1.555c.072.002.301-.04.408-.081.105-.041.112-.011.046.031-.065.041-.281.113-.375.144-.14.044-.208.061-.212-.028-.004-.079.014-.069.133-.066zm.018.619c.147.007.427 0 .519-.055.094-.055.215-.051.267-.045.052.007.032.041-.059.096-.088.055-.398.058-.501.123-.103.064-.252.079-.318.082-.065.003-.075 0-.075-.075-.001-.116.02-.133.167-.126zm-.158.515c.003-.079.011-.099.083-.099.191 0 .512-.15.639-.153.127-.003.191.068.038.089-.155.02-.482.103-.551.146-.069.045-.213.096-.209.017zm.26.657c.19.027.212.095-.041.137-.123.02-.167.027-.177-.083-.008-.067.026-.082.218-.054zm-.089 1.202c.096.005.302-.038.374-.059.128-.038.115.014.033.059-.082.044-.287.13-.441.112-.154-.016-.103-.119.034-.112zm.315 2.391c-.089-.027-.15-.034-.24-.013-.088.02-.15-.056-.15-.15.089.067.308-.042.505.067.083.047-.027.123-.115.096zm.088-.539c-.101 0-.253.109-.389.081-.137-.026-.123-.156.014-.122.109.026.191-.021.342-.056.15-.033.135.097.033.097zm-.403-.514c.068 0 .137 0 .219-.026.083-.027.075.026.014.061-.062.033-.15.096-.239.068-.09-.027-.069-.103.006-.103zm.055-.587c-.267.117-.183-.058-.055-.116.075-.034.437-.157.649-.239.212-.082.37-.082.527-.102.156-.021.156.007.046.137-.108.129-.232.089-.408.082-.179-.007-.493.122-.759.238zm.942.212c-.17.007-.172-.053-.075-.082.068-.02.191-.041.24-.007.047.034.007.082-.165.089z"/><path fill="#EEE" d="M17.879 15.779c0 .168-.136.304-.304.304h-.632c-.168 0-.304-.136-.304-.304 0-.168.136-.304.304-.304h.632c.168 0 .304.136.304.304zm1.534 4.249c0 .243-.197.441-.44.441h-.042c-.243 0-.441-.197-.441-.441 0-.243.197-.44.441-.44h.042c.243 0 .44.197.44.44zm-.607 1.79c0 .088-.072.16-.161.16-.089 0-.161-.072-.161-.16v-.628c0-.088.072-.16.161-.16.089 0 .161.072.161.16v.628zm-1.026-.172c0 .165-.133.298-.297.298h-.136c-.164 0-.297-.133-.297-.298 0-.164.133-.297.297-.297h.136c.164.001.297.133.297.297zm.11-4.335c0 .24-.136.436-.304.436-.167 0-.304-.195-.304-.436v-.478c0-.24.136-.436.304-.436.168 0 .304.195.304.436v.478zm.717-1.471c0 .1-.081.182-.182.182-.1 0-.182-.082-.182-.182v-.278c0-.101.081-.182.182-.182.101 0 .182.082.182.182v.278zm2.589 6.148c0 .185-.129.335-.289.335h-.601c-.16 0-.29-.149-.29-.335 0-.185.13-.334.29-.334h.601c.16 0 .289.15.289.334zm-4.632.53c0 .159-.129.288-.288.288h-.709c-.159 0-.288-.129-.288-.288 0-.159.129-.288.288-.288h.709c.159-.001.288.128.288.288z"/></svg>