<svg xmlns="http://www.w3.org/2000/svg" viewBox="0 0 36 36"><path fill="#00247D" d="M32 5H4c-.205 0-.407.015-.604.045l-.004 1.754-2.73-.004C.244 7.427 0 8.185 0 9v18c0 2.209 1.791 4 4 4h28c2.209 0 4-1.791 4-4V9c0-2.209-1.791-4-4-4z"/><path fill="#55ACEE" d="M32.962 12.498h-9.936v7.52l4.968 2 4.968-2z"/><path fill="#9F1D22" d="M23.026 20.018c.006.082.004.17.013.25.142 1.225.65 2.131 1.477 2.869 1.431 1.278 3.478 1.559 3.478 1.863 0-.305 2.047-.585 3.477-1.863.827-.738 1.337-1.645 1.477-2.869.009-.08.008-.168.013-.25h-9.935z"/><path d="M28.342 14.753h1.893v-.628h-1.893v-.843h-.663v.843h-1.927v.628h1.927v7.954h.663z"/><path fill="#77B253" d="M28.342 15.689c.114-.099.175-.158.244-.148.071.011.166.006.236-.016.07-.022.421-.065.564-.017.048.006.113.032.213.117.102.084.248.231.198.637-.05.406-.033.58-.054.807-.037.4-.128.732-.287.705.217.378.237.704.378.964.141.259.23.791.174 1.365-.055.574-.206 1.863.249 2.73-.076.054-.26 0-.423-.174-.161-.174-.233-.167-.368-.065-.41.312-.796.693-1.365.312-.13-.086-.17-.189-.076-.454.239-.661.354-1.566.316-1.992v-4.771z"/><path fill="#FAAA34" d="M26.022 20.594c.347.357 1.43 1.503 1.569 1.633.141.13.207.12.262-.01.392-.943.293-2.145-.678-3.327-.157.581-.562.958-1.196 1.094-.323.069-.379.277-.32.357.088-.156.282-.162.375.017.074.147-.024.331-.186.38-.162.048-.401.043-.498-.126-.098-.167-.178-.558.271-.751.45-.196.933-.396 1.023-.798.093-.4.217-.595.488-.622 1.5 1.381 1.69 2.926 1.066 4.306-.151.335-.39.423-.553.218-.162-.207-1.297-1.549-1.882-2.21.135-.009.224-.084.259-.161z"/><path fill="#F6DDCD" d="M28.733 15.282c.03.093.046.212-.003.319-.05.109-.06.239.022.396.131-.184.314-.147.422-.255.109-.108.131-.211.213-.233-.082-.07-.207-.146-.18-.352.027-.206.314-.374.054-.688-.167-.203-.411-.146-.517-.068-.05.037-.092.089-.109.125-.015.035.005.115-.035.163-.026.033-.059.065-.097.092-.024.017-.04.043-.014.073.01.012.029.015.05.022-.011.025-.025.049-.039.067-.013.016-.008.032.009.045-.021.065.019.073-.009.121-.022.042-.055.092.032.141.025.014.141.04.201.032zm-1.054 1.079c-.15.038-.393-.027-.58-.005-.08.009-.145-.033-.135-.113.011-.082.022-.207.006-.321-.024-.177.06-.422.179-.693.12-.271.18-.422.18-.549 0-.085.007-.179.083-.228.057-.036.067-.071.088-.1.045-.068.089-.084.093-.044.005.025-.004.047-.025.08.049-.04.13-.088.151-.102.018-.013.113-.081.118-.017.039-.019.066-.018.073.002.011.023.004.032-.014.048.026-.006.059.042.005.084.027-.01.056.037.006.081-.052.045-.112.076-.132.112-.018.035-.147.133-.198.155-.05.022-.053.051-.053.127 0 .834-.101.767-.101.967 0 .054-.011.103.043.086.056-.016.134-.041.214-.041v.471zm.034 1.798c.245-.124.524-.168.671-.207.146-.037.38-.151.493-.211.113-.059.205-.14.27-.162.065-.021.139-.066.179-.147.212-.411.325-.742.325-1.028 0-.19-.05-.4-.233-.25-.172.143-.36.418-.411.618-.077.304-.14.368-.157.429-.016.059-.077.059-.152.075-.318.071-.395.12-.633.298-.239.179-.498.336-.673.433-.173.097-.204.108-.243.187-.038.079-.072.138-.105.174-.033.035-.043.076-.035.119.006.035-.01.197-.014.252-.002.054.011.068.033.07.021.002.051-.008.062-.073-.012.066.079.043.084-.005-.003.07.092.029.098-.036 0 .045.071.014.077-.008.017-.055.031-.114.052-.157.031-.063.066-.145.128-.19.07-.051.037-.108.184-.181zm1.754 4.437c.018.059.046.127.058.166.012.041-.009.054-.02.078-.057.117-.117.307-.126.41-.007.06-.047.118-.066.151-.021.038-.014.07.035.107.023.017.098-.006.105-.043.028.026.077.015.098-.026.024.026.065.008.092-.032.025.017.061-.015.074-.038.037.02.078-.004.079-.078 0-.014.01-.041.021-.057.009-.018.014-.053.013-.083-.001-.03.018-.089.044-.132.025-.041.07-.115.05-.186-.016-.066-.046-.061-.069-.155-.06-.063-.141-.149-.225-.153-.085-.005-.134.05-.163.071zm-1.54.464c.075.076.245.079.366-.049-.044-.019-.14-.062-.183-.098-.059.061-.128.129-.183.147z"/><path fill="#955C0F" d="M28.693 14.449c.029-.193.165-.188.252-.168.035.008.121.016.202-.006.16-.043.282.014.267.168.043.032.088.108.08.173-.007.065.006.092.064.101.06.008.188.081.104.184.082.049.144.173.101.257-.043.083-.175.097-.227.021-.061.027-.157.032-.218-.03-.041.048-.145.043-.164 0-.018-.044-.049-.066-.088-.079-.043-.014-.047-.133.019-.146-.01-.035-.006-.076.011-.094.015-.02.003-.055-.036-.084-.037-.03-.07-.144-.033-.206-.063.022-.208-.04-.238-.084-.027-.042-.068-.045-.096-.007z"/><path d="M29.638 15.237c-.043 0-.081-.018-.104-.048-.063.027-.154.028-.215-.028-.022.022-.057.031-.088.031l-.02-.001c-.031-.004-.055-.018-.063-.038-.016-.038-.042-.062-.083-.074-.027-.009-.038-.048-.037-.08.002-.032.016-.068.05-.079-.009-.037-.003-.075.014-.094.011-.014.003-.045-.035-.073-.037-.03-.068-.135-.042-.201l-.018.001c-.074 0-.186-.052-.213-.091-.013-.02-.028-.031-.044-.031h-.001c-.015 0-.028.008-.039.023l-.014-.005c.012-.073.039-.125.082-.155.045-.031.103-.037.18-.02.034.007.12.015.198-.006.095-.025.177-.016.227.026.038.032.056.083.05.146.045.035.088.112.08.177-.007.064.006.085.058.092.041.005.11.039.132.092.009.022.012.056-.019.097.082.053.141.176.097.263-.022.042-.068.071-.121.075l-.012.001zm-.099-.067l.003.005c.022.031.063.05.105.046.047-.003.089-.028.108-.066.041-.081-.02-.201-.098-.248l-.008-.004.006-.007c.025-.031.032-.061.021-.089-.019-.046-.082-.078-.12-.083-.068-.009-.077-.047-.071-.109.008-.06-.033-.134-.077-.166l-.003-.002v-.004c.007-.06-.009-.107-.044-.137-.045-.038-.124-.046-.213-.023-.081.022-.17.014-.206.006-.074-.017-.127-.011-.167.017-.035.024-.059.064-.071.121.01-.007.021-.011.032-.011h.002c.021 0 .041.014.056.038.024.035.134.085.201.085.011 0 .021-.001.029-.004l.019-.006-.01.018c-.035.057-.005.167.031.196.02.015.033.032.04.049.007.018.006.034-.003.045-.015.017-.019.054-.01.088l.003.008-.008.001c-.031.006-.044.039-.045.067-.002.032.009.06.025.065.046.014.076.042.093.083.007.014.025.025.052.028.031.005.076-.002.1-.03l.006-.006.005.006c.057.057.146.055.21.028l.007-.005zm-.805.12l-.002-.015c.051-.007.085-.025.115-.042s.059-.032.097-.032h.009v.015c-.039-.002-.065.012-.098.03-.032.018-.067.037-.121.044zm-.149 2.018l-.01-.011c.171-.157.108-.495.062-.742l-.003-.015c-.037-.213 0-.397.111-.547l.012.009c-.108.146-.145.327-.107.535l.002.015c.047.251.111.594-.067.756zm.268.575c-.06 0-.119-.012-.168-.037l.006-.014c.11.055.27.045.362-.021.096-.07.272-.072.406-.043l-.004.015c-.123-.026-.301-.026-.395.041-.054.039-.13.059-.207.059z"/><path fill="#00247D" d="M19 18V5H4c-.32 0-.604.045-.604.045l-.004 1.754-2.73-.004S.62 6.854.535 7C.195 7.589 0 8.272 0 9v9h19z"/><path fill="#EEE" d="M19 5h-2.331L12 8.269V5H7v2.569L3.396 5.045c-.614.094-1.19.325-1.672.665L6.426 9H4.69L.967 6.391c-.11.129-.211.262-.305.404L3.813 9H0v5h3.885L0 16.766V18h3.332L7 15.432V18h5v-3.269L16.668 18H19v-2.029L16.185 14H19V9h-2.814L19 7.029V5z"/><path fill="#CF1B2B" d="M11 5H8v5H0v3h8v5h3v-5h8v-3h-8z"/><path fill="#CF1B2B" d="M19 5h-1.461L12 8.879V9h1.571L19 5.198zm-17.276.71c-.281.195-.534.423-.757.681L4.69 9h1.735L1.724 5.71zM6.437 14L.734 18h1.727L7 14.822V14zM19 17.802v-1.22L15.313 14H13.57z"/></svg>