<svg xmlns="http://www.w3.org/2000/svg" viewBox="0 0 36 36"><path fill="#21428E" d="M36 27c0 2.209-1.791 4-4 4H4c-2.209 0-4-1.791-4-4V9c0-2.209 1.791-4 4-4h28c2.209 0 4 1.791 4 4v18z"/><path fill="#EEE" d="M16 5h4v26h-4z"/><path fill="#EEE" d="M0 16h36v4H0z"/><path fill="#FFF" d="M11.438 13.25c-.375-.667-3.688-.938-4.896-.333 1.084-.938 4.333-.25 4.438-1.792.082-1.228-2.23-1.125-3.126-1.354-.895-.229-.104-.479.584-.771s1.438-.562 1.271-1.555c-.167-.993-1.855-.924-2.626-.966-.771-.041-1.75.25-1.521.729-.604.25-1.312.208-1.729 0-.005.167.26.229.26.229l-.447.105c.521.25 1.604.125 2.062-.104.083.104.375.167 1.5.104s1.25-.271 1.521-.021c.455.419-.5.583-1.708 1.021-1.208.438-.688 1.5-.042 1.833.646.333 1.292.304 2.375.48 1.084.176.312.395-.312.437-.23.016-2.063.083-3.042.604-1.144.608-.917 1.375-1.021 1.5-.104.125-1.104.083-1.875-.146.271.75 1.563.75 2.021.771S6 15.125 8.771 15.083s3.041-1.166 2.667-1.833zM6.766 6.969c-.125.125-.235.078-.11-.078s.235-.047.11.078zm-.111 6.654c.27-.311 4.001-.453 3.798.058-.261.656-4.125.318-3.798-.058zm25.616-.373c-.375-.667-3.688-.938-4.896-.333 1.084-.938 4.333-.25 4.438-1.792.083-1.228-2.229-1.125-3.125-1.354-.896-.229-.105-.479.583-.771s1.438-.562 1.271-1.555c-.166-.993-1.854-.924-2.625-.965-.771-.041-1.75.25-1.521.729-.604.25-1.312.208-1.729 0-.005.167.261.229.261.229l-.448.104c.521.25 1.604.125 2.062-.104.084.104.375.167 1.5.104s1.25-.271 1.521-.021c.455.419-.5.583-1.709 1.021-1.208.438-.688 1.5-.041 1.833s1.291.304 2.375.48.312.395-.312.437c-.229.016-2.062.083-3.042.604-1.143.608-.917 1.375-1.021 1.5s-1.104.083-1.875-.146c.271.75 1.562.75 2.02.771s.875 1.104 3.646 1.062c2.771-.041 3.042-1.166 2.667-1.833zm-4.672-6.281c-.125.125-.234.078-.109-.078s.234-.047.109.078zm-.111 6.654c.269-.311 4.001-.453 3.798.058-.261.656-4.125.318-3.798-.058zm-16.05 14.169c-.375-.667-3.688-.938-4.896-.333 1.084-.938 4.333-.25 4.438-1.792.083-1.227-2.229-1.125-3.125-1.354-.896-.229-.104-.479.583-.771s1.438-.562 1.271-1.556c-.167-.992-1.854-.924-2.625-.965-.771-.041-1.75.25-1.521.729-.604.25-1.312.209-1.729 0-.005.167.26.229.26.229l-.448.104c.521.25 1.604.125 2.062-.104.083.104.375.167 1.5.104s1.25-.271 1.521-.021c.455.42-.5.584-1.708 1.021-1.208.438-.688 1.5-.042 1.833.646.333 1.292.304 2.375.479 1.084.176.312.396-.312.438-.23.017-2.063.084-3.042.605-1.144.609-.917 1.375-1.021 1.5-.104.125-1.104.084-1.875-.146.271.75 1.562.75 2.021.771.458.021.875 1.104 3.646 1.062 2.771-.041 3.041-1.166 2.667-1.833zm-4.672-6.281c-.125.125-.234.078-.109-.078.124-.157.234-.047.109.078zm-.111 6.653c.27-.311 4.001-.453 3.798.059-.261.656-4.125.318-3.798-.059zm25.616-.372c-.375-.667-3.688-.938-4.896-.333 1.084-.938 4.333-.25 4.438-1.792.083-1.227-2.229-1.125-3.125-1.354-.896-.229-.104-.479.583-.771s1.438-.562 1.271-1.556c-.166-.992-1.854-.924-2.625-.965-.771-.041-1.75.25-1.521.729-.604.25-1.312.209-1.729 0-.005.167.261.229.261.229l-.448.104c.521.25 1.604.125 2.062-.104.084.104.375.167 1.5.104s1.25-.271 1.521-.021c.455.42-.5.584-1.709 1.021-1.208.438-.688 1.5-.041 1.833s1.291.304 2.375.479.312.396-.312.438c-.229.016-2.062.083-3.042.604-1.143.609-.917 1.375-1.021 1.5s-1.104.084-1.875-.146c.271.75 1.562.75 2.021.771.458.021.875 1.104 3.646 1.062 2.77-.04 3.041-1.165 2.666-1.832zm-4.672-6.281c-.125.125-.234.078-.109-.078.124-.157.234-.047.109.078zm-.111 6.653c.269-.311 4.001-.453 3.798.059-.261.656-4.125.318-3.798-.059z"/></svg>