<svg xmlns="http://www.w3.org/2000/svg" viewBox="0 0 36 36"><path fill="#E8112D" d="M36 27c0 2.209-1.791 4-4 4H4c-2.209 0-4-1.791-4-4V9c0-2.209 1.791-4 4-4h28c2.209 0 4 1.791 4 4v18z"/><path fill="#FFCC4D" d="M18.473 11.986c.014-1.045.94-1.764.979-3.156.663.834-.433 2.397-.044 3.304.178-1.029 1.203-1.595 1.461-2.963.525.928-.803 2.3-.561 3.256.336-.99 1.438-1.387 1.906-2.699.373.999-1.152 2.146-1.062 3.128.486-.924 1.637-1.144 2.305-2.367.213 1.045-1.475 1.939-1.539 2.924.625-.837 1.797-.875 2.647-1.978.047 1.066-1.76 1.684-1.977 2.647.748-.729 1.91-.583 2.922-1.54-.119 1.06-2 1.389-2.367 2.306.854-.603 1.98-.277 3.129-1.063-.283 1.028-2.193 1.059-2.697 1.907.936-.462 1.996.036 3.256-.561-.441.97-2.334.702-2.965 1.461.998-.31 1.969.349 3.305-.044-.59.89-2.414.328-3.156.979 1.033-.15 1.889.651 3.269.473-.719.787-2.435-.053-3.269.473 1.045.014 1.764.941 3.154.978-.834.666-2.396-.434-3.303-.043 1.031.178 1.596 1.203 2.965 1.461-.928.525-2.301-.803-3.258-.561.99.336 1.389 1.438 2.699 1.906-.998.375-2.144-1.152-3.129-1.062.926.486 1.147 1.637 2.367 2.305-1.045.213-1.938-1.475-2.924-1.539.838.625.875 1.797 1.979 2.647-1.065.047-1.686-1.76-2.647-1.977.729.748.582 1.91 1.539 2.922-1.061-.119-1.389-2-2.305-2.367.602.854.275 1.98 1.062 3.129-1.029-.283-1.059-2.193-1.906-2.697.463.936-.037 1.996.561 3.256-.971-.441-.703-2.334-1.461-2.965.309.998-.348 1.969.044 3.305-.89-.59-.328-2.414-.979-3.156.15 1.033-.651 1.889-.473 3.269-.787-.719.053-2.435-.473-3.269-.014 1.045-.94 1.764-.979 3.154-.665-.832.433-2.396.043-3.303-.177 1.031-1.203 1.596-1.46 2.965-.525-.928.803-2.301.56-3.256-.336.988-1.438 1.387-1.906 2.697-.374-.998 1.153-2.144 1.063-3.129-.487.926-1.638 1.147-2.305 2.367-.213-1.045 1.475-1.938 1.539-2.922-.625.836-1.796.873-2.646 1.977-.048-1.065 1.76-1.686 1.977-2.647-.748.729-1.911.582-2.923 1.539.12-1.061 2.002-1.389 2.367-2.305-.853.602-1.979.275-3.128 1.062.284-1.029 2.194-1.059 2.698-1.906-.937.463-1.997-.035-3.256.561.442-.971 2.333-.703 2.964-1.461-.998.309-1.967-.348-3.304.043.588-.888 2.414-.328 3.155-.978-1.034.15-1.888-.652-3.269-.473.72-.786 2.435.053 3.269-.473-1.044-.014-1.763-.94-3.155-.979.834-.665 2.397.433 3.304.043-1.03-.177-1.595-1.203-2.963-1.46.928-.526 2.3.803 3.256.56-.99-.336-1.387-1.438-2.699-1.906.999-.374 2.146 1.153 3.128 1.063-.925-.487-1.144-1.638-2.367-2.305 1.045-.213 1.939 1.475 2.924 1.539-.837-.625-.875-1.796-1.978-2.646 1.065-.047 1.684 1.76 2.647 1.977-.729-.748-.583-1.911-1.54-2.923 1.059.12 1.389 2.002 2.306 2.367-.604-.853-.277-1.978-1.063-3.128 1.028.284 1.059 2.194 1.907 2.698-.462-.937.036-1.997-.561-3.255.97.441.702 2.332 1.461 2.963-.31-.998.349-1.967-.044-3.304.89.588.328 2.414.979 3.155-.151-1.034.651-1.888.473-3.269.786.719-.054 2.435.472 3.269z"/><path fill="#E8112D" d="M18.001 22.906c2.709 0 4.905-2.197 4.905-4.906 0-2.71-2.195-4.905-4.905-4.905-2.709 0-4.905 2.196-4.905 4.905s2.196 4.906 4.905 4.906z"/><g fill="#FFCC4D"><path d="M18 13.451c1.252 0 2.377.536 3.16 1.393-1.229.124-2.271.414-3.16.855-.889-.441-1.932-.731-3.159-.855.783-.857 1.908-1.393 3.159-1.393zm-.323 2.422c-.099.055-.195.112-.29.171-.797-.423-1.752-.696-2.887-.777.052-.073.106-.145.163-.214 1.179.105 2.174.387 3.014.82zm.649 0c.099.055.195.112.289.171.798-.423 1.752-.696 2.887-.777-.051-.073-.106-.145-.162-.214-1.18.105-2.174.387-3.014.82zm-3.969-.386c-.045.073-.088.148-.129.225 1.056.024 1.942.268 2.67.67.076-.058.154-.113.232-.167-.76-.415-1.679-.674-2.773-.728zm-.13 4.258c-.368-.633-.504-1.232-.504-2.016 0-.64.138-1.244.388-1.787 1.022-.007 1.877.216 2.575.604-1.033.847-1.872 1.839-2.459 3.199zm2.03 1.888c-.192-.074-.401-.283-.579-.383.101-1.607.853-2.929 1.901-4.041.078.076.153.152.225.233-.974 1.139-1.6 2.617-1.547 4.191zm5.389-6.146c.045.073.088.148.129.225-1.057.024-1.943.268-2.67.67-.076-.058-.154-.113-.233-.167.761-.415 1.679-.674 2.774-.728z"/><path d="M21.775 19.746c.367-.633.504-1.233.504-2.017 0-.64-.139-1.244-.389-1.787-1.021-.007-1.877.216-2.575.604 1.035.847 1.875 1.84 2.46 3.2zm-3.774-1.938c.767 1.234.914 2.584.872 4.109-.333.082-.513.09-.872.09s-.539-.008-.872-.09c-.042-1.447.105-2.828.872-4.109zm1.739 3.825c.191-.074.406-.221.584-.32-.101-1.607-.854-2.992-1.902-4.103-.077.076-.152.152-.224.233.976 1.138 1.595 2.616 1.542 4.19zm-2.416-4.652c-.091-.075-.194-.154-.293-.222-1.085.962-1.891 2.08-2.343 3.595.167.191.164.332.362.49.28-1.593 1.187-2.812 2.274-3.863zm1.355 0c.091-.075.194-.154.293-.222 1.085.962 1.888 2.1 2.341 3.616-.168.191-.192.312-.392.47-.279-1.594-1.155-2.813-2.242-3.864zm-.678-.927c.054.032.239.148.286.179-.073.045-.24.158-.286.189-.045-.032-.213-.145-.286-.189.047-.031.232-.148.286-.179zm-.541.357c-.073.055-.184.14-.226.176.105.069.246.176.291.211.055-.047.163-.143.224-.187-.074-.055-.232-.169-.289-.2zm1.082 0c.073.055.184.14.226.176-.105.069-.246.176-.291.211-.054-.047-.163-.143-.224-.187.075-.055.233-.169.289-.2zm-.541.399c.047.04.186.163.223.2-.066.058-.168.155-.223.216-.054-.061-.156-.158-.222-.216.036-.037.176-.159.222-.2z"/></g></svg>