<svg xmlns="http://www.w3.org/2000/svg" viewBox="0 0 36 36"><path fill="#FFB700" d="M36 27c0 2.209-1.791 4-4 4H4c-2.209 0-4-1.791-4-4V9c0-2.209 1.791-4 4-4h28c2.209 0 4 1.791 4 4v18z"/><path fill="#8D2129" d="M32 6H10v24h22c1.654 0 3-1.346 3-3V9c0-1.654-1.346-3-3-3z"/><path fill="#005641" d="M4 6C2.346 6 1 7.346 1 9v18c0 1.654 1.346 3 3 3h1V6H4z"/><path fill="#FF5B00" d="M5 6h4v24H5z"/><path d="M13.199 10.062s-.067-.959-.035-1.762c.021-.532-.277-1.175-.84-1.082s-1.188-.021-1.188-.021.125.364 0 .708-.125 1.062.719 1.156c.844.095 1.188.532 1.344 1.001zm18.684 0s.067-.959.035-1.762c-.021-.532.277-1.175.84-1.082s1.188-.021 1.188-.021-.125.364 0 .708.125 1.062-.719 1.156c-.844.095-1.188.532-1.344 1.001zM13.199 25.938s-.067.96-.035 1.763c.021.532-.277 1.175-.84 1.081-.562-.094-1.188.021-1.188.021s.125-.365 0-.709-.125-1.062.719-1.156c.844-.094 1.188-.532 1.344-1zm18.684 0s.067.96.035 1.763c-.021.532.277 1.175.84 1.081.562-.094 1.188.021 1.188.021s-.125-.365 0-.709.125-1.062-.719-1.156c-.844-.094-1.188-.532-1.344-1zM18.406 13.375s.594-.031 1.188-.188c.594-.156.406-.718.406-.718s.531-.281.844 0c.312.281.688.25.5-.125.562-.281.812.344.812.344s.281-.177.344-.417c.5-.052.594.448.906.385s.531-.389.531-.389.062.889-.469 1.108c.438.562.312 1.656.312 1.938l-.312-.188s.188.875.281 1c.094.125-.312 0-.312 0s.219.594.375.688c.156.094 3.094-.188 3.938-.188.844 0 2-.125 2-.875s-.969-.688-2.062-.531c-1.094.156-1.812.125-2.25-.156-.438-.281-.937-.354-.896.354-.667-.312-.188-.979-.188-.979s-.761-.833-.276-1.667c.484-.833 2.359-1.084 3.672-.354s1.833 1.333 2.375 1.438c-.021-.396.646-.687.729.042s-.834.583-1.229.354-1.104-.917-1.104-.917-.021.417.25.688c-.75-.083-.916-.646-.916-.646s-.043.603-.73.624c.5-.583.333-1.062-.354-1.312.396.604.021 1.125-.562 1.208.396-.562.063-1.208-.666-1.333.104.458-.25.583-.25.583s-.166-.417-.5-.188-.418.73.019 1.042c.271-.542.812-.5 1-.271-.562.062-.541.584-.333.854.208-.354.417-.458.625-.083s.833.354 1.958.188 2.161-.044 2.333.958c.146.854-.708 1.271-.708 1.271s1.104.833.396 2.646-.416 2.562-.146 2.75.688.208.125.708-.417.855-.188 1.146.167.583-.5.208c-.292.292-.583.208-.75-.042-.167.229-.479.292-.688.042-.208.167-.479.167-.333-.188s.854-.5 1.062-.562.188-.438.125-.854-.417-.854-1.167-1.25c-.333.25-.292.541-.167.688s.521.188.542.312-.208.396-.458.584-.208.521-.125.688.187.577-.084.768c-.271.19-.541-.247-.541-.247s-.168.521-.646.021c-.271.334-.541.209-.666.021-.271.271-.688.25-.479-.125s.458-.376.75-.396.687-.082.646-.666-.156-1.177-.562-1.542c-.625-.562-.521-1.229-.521-1.229s-1.042-.104-1.854.459-1.438.562-1.438.562-.459.5-.5.812.146.417.396.5.438.062.062.396-.688.312-.688.312-.019.353.022.561-.084.569-.292.607c-.208.038-.521-.232-.521-.232s-.396.417-.708-.021c-.354.333-.667.209-.792 0-.208.333-.542.188-.333-.188s.5-.418 1-.396.916-.375.729-.896-.354-1.229-.354-1.229-.396-.042-.979-.375c-.729.875-.979.563-1.188.396s-.708-.625-.708-.625-.271-.021-.229.229c-.292-.021-.188-.479-.188-.708s-.083-.5-.25-.5-.417.042-.417.042 0 .082.25.166.229.251-.021.271-.417.082-.229.229.208.229.062.375-.125.541.125.688c.167-.396.479-.166.417.104s-.521.229-.521.229l.312.354-.476.104s-.024.292-.211.354-.229-.438-.229-.438l-.438-.021.292-.354s-.417-.146-.438-.396.312-.125.375 0c.333-.146.229-.479.104-.604s-.042-.229.083-.375.104-.229-.083-.188-.5-.334-.188-.334.375-.021.333-.25c-.375-.041-.146-.333-.146-.333s-.292-.209-.083-.354c-.188-.166-.229-.438-.021-.479-.125-.104.042-.292.042-.292s-.601-.102-.601-.56.521-.375.521-.375-.062-1.458.083-3.5 1-2.75 1.521-2.958c-.542 1.146-.479 3.083-.479 4.271s-.021 2.125-.021 2.125.583.041.541.437-.312.479-.312.479L18 19.833s-.062-1.389.396-1.944c.458-.555 1.166-1.076 1.375-1.243s-.129-.609-.291-.125c-.236-.029-.438-.417-.438-.417s.021.146-.125.25c-.146.104-.104-.354-.188-.312s-.312.167-.604.25c.021-.167.146-.375.146-.375s-.375.041-.709.083c0-.292.187-.771.354-.812-.417-.208-.312-.604-.125-.542s1.062.583 2.042.646c-.312-.354-.562-.812-.562-.812l-.104.354-.375-.354-.042.354s-.917-.667-1.083-1.208.021-.939.333-.896c.604.082.406.645.406.645z" fill="#FFB700"/></svg>