<svg xmlns="http://www.w3.org/2000/svg" viewBox="0 0 36 36"><path fill="#E30917" d="M36 27c0 2.209-1.791 4-4 4H4c-2.209 0-4-1.791-4-4V9c0-2.209 1.791-4 4-4h28c2.209 0 4 1.791 4 4v18z"/><path fill="#EEE" d="M16 24c-3.314 0-6-2.685-6-6 0-3.314 2.686-6 6-6 1.31 0 2.52.425 3.507 1.138-1.348-1.524-3.312-2.491-5.507-2.491-4.061 0-7.353 3.292-7.353 7.353 0 4.062 3.292 7.354 7.353 7.354 2.195 0 4.16-.967 5.507-2.492C18.521 23.575 17.312 24 16 24zm3.913-5.77l2.44.562.22 2.493 1.288-2.146 2.44.561-1.644-1.888 1.287-2.147-2.303.98-1.644-1.889.22 2.494z"/></svg>