<svg xmlns="http://www.w3.org/2000/svg" viewBox="0 0 36 36"><path fill="#ED1C23" d="M36 27c0 2.209-1.791 4-4 4H4c-2.209 0-4-1.791-4-4V9c0-2.209 1.791-4 4-4h28c2.209 0 4 1.791 4 4v18z"/><path fill="#EEE" d="M0 13h36v10H0z"/><path fill="green" d="M16.993 13.204c-.183.203-.615.486-.713.679-.098.194-.413.392-.581.464-.169.072-.021.188.163.073.185-.115.338-.11.446-.214.108-.104.264-.005.112.066-.151.072-.209.192-.275.278-.066.087-.099.13-.252.133-.153.003-.289.04-.396.196-.108.155-.24.337-.297.423-.058.086-.014.154.129.048.142-.106.302-.194.373-.076.071.117.068.173-.122.249-.405.162-.522.258-.595.421-.073.164-.03.214-.283.295-.254.082-.664.381-.932.582-.268.202-.115.212.09.202.314-.016.718-.229.924-.139.062.118.134.269.23.378-.331.466-.386.646-.726.654-.341.008-.554.353-.712.526-.158.174-.295.338-.459.41-.144.063-.176.115-.064.171.112.058.211-.08.314-.032.103.049.171.031.33-.075s.327-.246.581-.277c.122.142.184.218.322.291-.24.328-.6.583-.913.692-.313.108-.361.228-.585.514-.223.286-.213.379-.442.384-.23.006-.22.057-.099.147.121.091.214.047.393.086.18.038.41.076.643-.176.233-.253.804-.693 1.288-.65.23.021.393.068.118.329s-.672.461-.942.514c-.525.106-.751.315-.904.309-.154-.006-.296.1-.063.239.233.14.31.173.571.056.261-.116.69-.313.86-.358.169-.047.295-.118.415-.086.12.031.213-.006.347-.093.134-.088.33-.1.496-.257.194-.183.4-.026.529.081.13.108.386.536.155.831-.232.294-.489.606-.571.761-.082.155-.128.165-.225.2-.312.118-.631.312-.723.391-.092.078-.057.103.071.126.128.023.145-.003.261-.099.117-.096.259-.243.548-.234.153.005.279-.082.412-.222.134-.139.42-.264.565-.234.145.031.187-.003.271-.066.083-.061.151-.088.281.02.13.108.24.088.375.009.135-.08.28-.049.316.036.035.084.054.16.175.243.121.082.552.337.69.411.137.073.228-.065.124-.156-.104-.091-.157-.167-.141-.244.016-.077.095-.108.329-.076.367.052.892.313 1.082.427.191.116.363.214.516.21.154-.003.203-.039.065-.164-.14-.124-.309-.111-.372-.238-.107-.219-.292-.061-.389-.281-.069-.157-.165-.176-.284-.165-.119.011-.278-.096-.388-.264-.388-.587-.493-1.112-.366-1.507.128-.394.499-.513.716-.347.217.166.473.27.584.259.111-.011.205-.012.349.069.147.082.396.136.699.01.303-.126.41-.027.603-.021.163.004.358.034.49.142.129.108.327.18.625.225.298.045.501-.037.26-.176-.243-.139-.447-.22-.536-.346-.087-.126-.216-.148-.343-.146-.127.003-.334-.086-.507-.26-.174-.176-.312-.207-.447-.187-.136.02-.289-.019-.385-.136.131-.156.272-.448.396-.536.154-.012.281.028.385.119.105.091.249.071.352.069.102-.002.247.045.334.103.087.058.223.055.349.001.125-.053.098-.121-.056-.211-.156-.09-.243-.148-.296-.233-.051-.083-.096-.125-.283-.121-.187.004-.276-.087-.423-.246-.332-.358-.552-.379-.766-.35-.212.03-.423.069-.599-.182.218-.107.396.139.679-.074.151-.114.251-.142.441-.078.189.064.41.042.467-.002.06-.044.136-.114.229-.124.091-.011.08-.134-.056-.118-.263.031-.309-.13-.563-.081-.254.048-.347.008-.512-.108-.165-.116-.303-.215-.786-.136.022-.154.009-.315.247-.363.18.107.349.086.494.083.145-.003.639-.006.783.017.147.022.178-.047-.038-.161-.214-.114-.521-.159-.632-.165-.111-.006-.165-.081-.236-.225-.071-.143-.285-.257-.601-.259-.256-.002-.444-.118-.574-.234-.131-.116-.251-.208-.405-.23-.154-.022-.293-.13-.227-.259.065-.129.319-.185.501-.071.18.116.292.121.4.059.109-.062.178-.089.341-.033.162.056.325.052.073-.138-.363-.273-.719-.163-.841-.313-.122-.151-.223-.089-.307-.053-.085.036-.237-.048-.055-.144.135-.071.27-.108.391-.051.12.057.265.037.356-.008.094-.045.185-.131-.097-.185-.282-.054-.711-.223-.877-.373-.164-.149-.343-.179-.487-.151-.144.029-.263.048-.513-.108s-.577-.311-.805-.629c-.224-.308-.245-.111-.387.044z"/><path d="M16.152 15.017c-.165-.02-.299.057-.213.17.085.113.129.042.236-.011.107-.054.207-.133-.023-.159zm.455.36c-.151.073-.297.16-.344.314-.048.154-.042.29.101.253.216-.056.23-.311.388-.34-.052-.076-.067-.178-.145-.227zm.265-.134c.014.063.035.165.087.215.139-.067.493-.202.627-.231.011-.096-.016-.159-.043-.21-.191.018-.47.087-.671.226zm1.191.601c.002.094.042.331.061.425.086.041.197.072.283.096.057-.112.071-.274.069-.376-.156-.099-.295-.206-.413-.145zm-.303.135c.01.076.013.187.023.255-.111.002-.288.066-.398.102-.11.037-.242-.165-.048-.245.194-.081.321-.101.423-.112zm-2.723.766c.201-.107.306-.04.491-.096.087.083.191.183.261.283-.107.181-.433.061-.542.14-.086-.092-.148-.184-.21-.327zm.821-.206c.053.11.107.202.15.252.153.014.211-.072.277-.176.066-.104.063-.231-.107-.219-.17.013-.263.049-.32.143zM14.531 18.5c.045.109.173.149.209.234.142-.088.211-.081.331-.058.12.022.441-.087.624-.278.183-.191.064-.171-.148-.141-.212.03-.373.068-.518.037-.146-.031-.366.033-.498.206zm1.878-.892c-.101.062-.151.105-.072.197.079.092.12.049.213-.005.093-.053.134-.13.081-.198-.054-.065-.122-.055-.222.006zm.498-.157c-.102.002-.094.066-.08.116.014.051.027.082.11.081.083-.002.095-.021.068-.104-.027-.082-.034-.095-.098-.093zm.308.088c.003.116-.017.109.098.126s.154.01.157-.099c.004-.108.009-.147-.125-.151-.132-.003-.131.041-.13.124zm.475.092c-.033.092-.08.168.062.222.141.055.147.016.189-.106.042-.122.047-.18-.062-.21-.109-.029-.147-.022-.189.094zm.505.034c-.005.051-.047.192-.065.238.058.024.135.054.194.091.058.037.139-.067.111-.162-.028-.095-.133-.246-.24-.167zm.598-1.526c-.018.064-.077.276-.101.334.167.041.295.064.41.055.115-.009.299-.044.389-.028.089.017.138-.073-.011-.185-.149-.111-.239-.128-.335-.127-.095.003-.258-.114-.352-.049zm.636.79c-.114-.018-.177.074-.098.136.078.062.179.034.19-.023.012-.057.017-.096-.092-.113zm.256-.031c.007.057.022.159.023.204.085.081.173-.004.264.077.091.081.158-.003.176-.087.018-.083.029-.128-.047-.126-.167.003-.278-.141-.416-.068zm-1.811-1.964c.02.044.073.145.075.196.077.049.258.102.307.012.049-.091.067-.129-.017-.172-.085-.042-.267-.198-.365-.036zm.686.158c-.055.062-.011.096.067.139.078.043.134-.028.126-.086-.008-.058-.112-.145-.193-.053zm-2.52 4.345c.058.052.105.126.09.21-.015.086.037.119.097.144.06.023.217.171.247.011.031-.163-.103-.415-.197-.43-.093-.016-.136-.015-.18-.065-.044-.05-.17.03-.057.13zm5.245-.675c-.04.145-.196.462-.296.525-.153-.073-.436-.136-.463-.22.056-.154.111-.283.154-.377.175-.038.456-.053.605.072zm-.959-.218c-.004.111-.069.359-.1.445-.178.021-.605-.063-.749-.009.006-.119.002-.273.035-.351.272-.005.523-.181.814-.085z" fill="#EEE"/></svg>