<svg xmlns="http://www.w3.org/2000/svg" viewBox="0 0 36 36"><path fill="#EEE" d="M36 27c0 2.209-1.791 4-4 4H4c-2.209 0-4-1.791-4-4V9c0-2.209 1.791-4 4-4h28c2.209 0 4 1.791 4 4v18z"/><path fill="#379543" d="M13 24.812s-.188.126-.375.084-.458.009-.458.009l-1.613-2.777s-.866.81-1.658.102c.417.125.916-.709 1.521-.354-.563-.522-1.646.395-2.188-.876.75.459 1.188-.271 1.875.188-.667-.75-1.646.069-2.042-.944.604.216 1.104-.444 1.646 0-.458-.931-1.854.361-2.125-1.201.604.312 1.271-.083 1.646.229-.708-1.354-1.354.207-1.958-1.771.417.583 1 .021 1.604.938-.438-1.667-1.625-.271-2-2.229.75-.25 1.062.854 1.667 1.083-.375-1.293-1.167-.918-.688-2.439 1.083.542.604 1.458.958 2.521.271-.375-.083-.854.105-1.187s.292-.5.229-.667c.979 1.125-.209 2.083-.104 2.479.104.396.271.542.271.542s-.104-.604.104-.958.542-.479.521-.792c.229.271.146.896-.125 1.208s-.313 1.084-.146 1.354c-.064-.845.688-.792.563-1.646.417.083.564 1.042.104 1.396-.459.354-.104 1.333-.104 1.333s.021-.624.271-.916.396-.605.333-.896c.333.271.375 1.042.146 1.417s-.583.583-.229 1.188c-.042-1.104.708-.896.688-1.604.438.334.188 1.043-.062 1.271s-.208.75-.208.75.271-.376.479-.521.352-.564.352-.564.258 1.299-.562 1.354c-.021.605 1.145 2.396 1.562 2.896z"/><path fill="#0081C7" d="M27.35 19.129l.43.21-2.356 2.791 2.196-4.172.324.456.618-2.766-1.803 2.054.468.104-1.644 3.088.521-2.186.417.375V16.25l-1.313 2.396h.48l-.925 3.789-.487.915-.56.216-.227.398-.159.021-1.834 1.955.924.006.184.908.782-.933-.282.912.834-.399.562.733.646-2.584-.295-.558-.008-.026.164-.69 3.121-3.732.209.518 1.242-2.547zM3.646 15.062H1.729s.417.083.604.521 1.361 3.882 1.458 4.296c.146.62-.312.745-.312.745h1.896s-.542-.095-.375-.745S6.271 16 6.396 15.604s.479-.542.479-.542H4.979s.646.144.458.666c-.188.521-1.021 3.313-1.021 3.313s-.938-2.793-1.104-3.313.334-.666.334-.666zm30.198 0h-1.75s.34.234.34.688c0 .461-.012 3.933-.012 4.266 0 .438-.4.609-.4.609h1.895s-.509-.266-.509-.641v-4.336c-.001-.398.436-.586.436-.586z"/><path fill="#F4C63D" d="M32.998 8.479c-.49.062-2.072.917-4.969 1.479-.167-.125-.479-.062-.979.167s-2.896.896-3.562 1.146-1.018.766-.938 1.208c.146.792.729.917.521 1.146-.208.229-.833-.312-1.25-.062-.215.129-1.416-.162-1.445-.292-.104-.458-.562-.854-.562-.854s.354-.062.438-.208c-.584-.333-.958-.979-.958-.979s.375.167.5 0c-.479-.438-.438-1.438-.667-1.875s-.5-.771-1.058-.792c-.558-.021-.775.021-1.109.458-.25-.021-.3.271-.3.271s-.221.021-.575.083-.583.5-.438.896c.083-.229.542-.271.917-.312s.646.417.5.562-.188.333-.271.688-.698.521-.698.521.177.188.448.167c-.146.229-.583.542-.896.583.188.229.479.188.479.188s-.167.458-.479.729c0 0-1.159.296-1.375.167-.417-.25-1.042.292-1.25.062s.375-.354.521-1.146c.081-.442-.271-.958-.938-1.208s-3.062-.917-3.562-1.146-.814-.293-.981-.168c-2.895-.562-4.479-1.416-4.968-1.479s-.636.75.093 1.083c-.208.229-.083.854.542.896-.25.271.062.833 1.188 1.083-.146.292.167.979 1.521 1.208-.146.417.312.854 1.333.979-.188.292.167.75 1.146.854-.312.479.521.812 1.583.792-.354.208-.208.792.292.896-.167.333.292.896.833.812.042.271.417.479.771.229 0 .354.771.75 1 .292.176.175.675.286 1.015-.056.015.083.035.164.056.245-.14.414-.438.858-.926 1.228-.521.396-.791 1.041-.771 1.458s-.146.729-.396.833l.229.084s-.375.499-.583.541-1.208-.083-1.396.104-.562.937-.312 1.083.354.396.5.542.937-.084 1.104-.229.146-.875.292-.958 1.521-.708 1.521-.708l.021.312s.229-.271.417-.354.229-.479.333-.667c.096-.173.778-.781 1.698-.975.116.067-.073.204-.073.204-.366-.081-.521.396-.5.583-.396.042-1.313 1.312-1.458 1.75s-.021.626.167.604c-.021.312.229.573.5.484.021.328.208.537.438.516.042.354.25.562.5.5.042.354.312.542.667.438.021.479.375.937.875.416.083.959 1.271 1.273 1.396.063.437.396 1 .188 1-.479.25.188.604-.062.625-.438.25.104.459-.146.459-.562.271.146.459-.155.438-.474.291.099.562-.192.5-.526.271.104.457-.324.125-.854-.521-.833-1.334-1.438-1.334-1.438s.126-.496-.541-.592c-.09-.013-.189-.135-.09-.193.914.197 1.589.8 1.685.972.104.188.146.584.333.667s.417.354.417.354l.021-.312s1.375.625 1.521.708c.144.083.125.812.291.958.168.146.959.375 1.104.229s.25-.396.5-.542-.125-.896-.312-1.083-1.188-.062-1.396-.104c-.209-.042-.584-.541-.584-.541l.229-.084c-.25-.104-.417-.416-.396-.833.019-.417-.25-1.062-.771-1.458-.477-.363-.772-.795-.915-1.203.023-.09.047-.178.064-.27.34.341.84.23 1.015.055.229.458 1 .062 1-.292.354.25.73.042.771-.229.541.083 1-.479.833-.812.5-.104.646-.688.292-.896 1.062.021 1.896-.312 1.583-.792.979-.104 1.333-.563 1.146-.854 1.021-.125 1.48-.562 1.334-.979 1.354-.229 1.666-.917 1.521-1.208 1.125-.25 1.438-.812 1.188-1.083.625-.042.751-.667.542-.896.725-.331.578-1.143.09-1.081z"/><path fill="#FFF" d="M13.805 15.501c.01 1.006.244 1.883.602 2.646.207.441.454.845.727 1.21l.605.717c.22.232.446.442.671.635l.605.481c.258.191.505.358.727.497.107.067.209.13.303.186.094-.056.196-.119.303-.186.205-.13.432-.282.67-.456l.606-.474c.244-.207.491-.436.73-.688l.605-.717c.273-.364.518-.767.725-1.207.359-.763.593-1.64.602-2.646h-8.481z"/><path fill="#A70033" d="M14.407 15.501v2.646c.207.441.454.845.727 1.21V15.5h.605v4.573c.22.232.446.442.671.635v-5.209h.605v5.69c.258.191.505.358.727.497v-6.188h.605v6.188c.205-.13.432-.282.67-.456v-5.732h.606v5.258c.244-.207.491-.436.73-.688v-4.57h.605v3.853c.273-.364.518-.767.725-1.207v-2.646h-7.276z"/><path fill="#172668" d="M18.046 12.521s-1.043.544-2.182.544-2.062-.523-2.062-.523v2.896c0 .1.01.194.014.291h8.46c.005-.097.015-.191.015-.291v-2.896s-.924.523-2.062.523c-1.14 0-2.183-.544-2.183-.544z"/></svg>