<svg xmlns="http://www.w3.org/2000/svg" viewBox="0 0 36 36"><path fill="#4B92DB" d="M36 27c0 2.209-1.791 4-4 4H4c-2.209 0-4-1.791-4-4V9c0-2.209 1.791-4 4-4h28c2.209 0 4 1.791 4 4v18z"/><g fill="#FFF"><path d="M10.554 15.53c.149-.305.393-.596.68-.813.64-.483 1.34-1.108 1.35-1.93-.212.591-.856.836-1.285 1.24-.227.214-.4.471-.502.738l-.015-.012c.053-.237.154-.451.222-.68.187-.626.153-1.375.763-1.793-.314.08-.577.283-.812.544-.492.545-.449 1.35-.384 2.068.02.222.008.411-.017.638zm3.217 7.731c-.71-.573-.817-1.432-1.134-2.186-.197-.468-.517-.889-.859-1.298.376.751.214 1.72.701 2.428.153.222.366.434.562.612l-.009.009c-.178-.083-.339-.207-.501-.342-.853-.709-2.136-.8-2.647-1.956.138.849.812 1.601 1.54 2.077.692.453 1.578.402 2.347.656z"/><path d="M10.569 20.879c.481.379 1.055.675 1.493 1.008-.086-.218-.227-.419-.284-.65-.258-1.04-.114-2.243-.56-3.205.083.547-.134 1.03-.184 1.55-.041.428.034.843.2 1.203.049.106.138.202.163.311-.16-.144-.274-.329-.384-.508-.517-.837-1.602-1.382-1.676-2.4-.037.453.003.934.154 1.336.21.559.613.989 1.078 1.355zm.73-7.131c.341-.32.737-.557 1.026-.939.347-.459.649-.97 1.101-1.366-.616.24-1.276.485-1.676 1.117-.233.369-.267.806-.451 1.188zm4.304 9.971c.129-.032.286-.022.406-.065-.498-.101-.979-.252-1.365-.605-.554-.507-1.045-1.047-1.638-1.441.464.625.596 1.532 1.444 1.852.15.057.322.066.452.148-.163.025-.306-.025-.458-.058-1.093-.233-2.428.067-3.247-.865.311.609.951 1.09 1.565 1.293.953.313 1.946-.037 2.841-.259z"/><path d="M10.724 19.841l.046.037c-.049-.336-.074-.698.021-1.019.145-.513.326-1.012.422-1.544.074-.413.159-.877.111-1.278-.055.216-.112.429-.231.613-.45.697-.913 1.515-.597 2.4-.007.01-.018.022-.029.015-.127-.292-.155-.625-.237-.939-.218-.831-.858-1.526-.67-2.487-.099.209-.139.444-.191.671-.111.588 0 1.211.16 1.751.198.677.86 1.161 1.195 1.78z"/><path d="M11.557 15.366c.149-.302.242-.643.283-.976-.055.142-.142.273-.259.385-.497.471-1.083.936-1.196 1.603-.016.095-.024.193-.052.286-.022.009-.022-.015-.031-.021l.062-.828c.06-.807-.365-1.705.102-2.416-.016-.003-.025.009-.037.016-.425.542-.708 1.135-.708 1.862 0 .898.517 1.525.581 2.369.133-.88.872-1.505 1.255-2.28zm14.215 2.761c-.082.313-.11.646-.237.939-.012.006-.022-.006-.029-.015.315-.885-.147-1.703-.597-2.4-.118-.183-.175-.397-.231-.613-.049.401.037.864.111 1.278.095.532.277 1.031.422 1.544.095.321.07.683.021 1.019l.046-.037c.335-.619.997-1.103 1.197-1.778.16-.54.27-1.164.16-1.751-.052-.227-.092-.463-.191-.671.186.959-.454 1.653-.672 2.485zm-2.302 4.357c-.162.135-.323.259-.501.342l-.009-.009c.197-.178.41-.39.562-.612.488-.708.325-1.677.701-2.428-.342.409-.662.83-.859 1.298-.317.754-.424 1.613-1.134 2.186.768-.253 1.655-.203 2.346-.656.727-.476 1.401-1.228 1.54-2.077-.51 1.156-1.793 1.246-2.646 1.956z"/><path d="M21.099 23.607c.13-.082.302-.092.452-.148.848-.32.98-1.227 1.444-1.852-.593.394-1.084.934-1.638 1.441-.386.353-.866.504-1.365.605.12.044.276.034.406.065.895.222 1.888.573 2.841.258.615-.203 1.255-.683 1.565-1.293-.819.932-2.154.632-3.247.865-.152.034-.295.084-.458.059zm3.505-2.511c.025-.108.114-.205.163-.311.166-.359.241-.775.2-1.203-.05-.52-.267-1.003-.184-1.55-.446.962-.302 2.165-.56 3.205-.057.23-.197.432-.284.65.438-.333 1.012-.629 1.493-1.008.465-.366.868-.796 1.078-1.355.151-.403.19-.883.153-1.336-.074 1.019-1.158 1.563-1.676 2.4-.109.179-.223.364-.383.508zm1.033-5.28l.062.828c-.009.006-.009.031-.031.021-.028-.092-.036-.19-.052-.286-.113-.667-.699-1.132-1.196-1.603-.118-.112-.204-.243-.259-.385.041.333.134.673.283.976.383.775 1.122 1.4 1.254 2.28.064-.844.581-1.471.581-2.369 0-.727-.283-1.32-.708-1.862-.012-.006-.021-.018-.037-.016.469.711.043 1.609.103 2.416z"/><path d="M24.998 14.074c.068.229.168.443.222.68l-.015.012c-.101-.267-.275-.524-.502-.738-.428-.404-1.073-.649-1.285-1.24.01.822.71 1.446 1.35 1.93.287.217.531.508.68.813-.025-.227-.036-.416-.016-.638.066-.718.108-1.523-.384-2.068-.235-.261-.499-.464-.812-.544.608.418.575 1.167.762 1.793zM21.225 24.34c-.736-.305-1.485-.711-2.324-.711-.305 0-.607.052-.901.14-.294-.089-.595-.14-.901-.14-.839 0-1.588.406-2.324.711-.666.276-1.549.222-2.139-.185.292.366.682.592 1.086.745.749.299 1.624.07 2.262-.338.459-.294.853-.71 1.4-.71.098 0 .197.015.295.036-.769.307-1.469.845-2.015 1.366.1.115.23.222.352.32.608-.628 1.297-1.304 1.983-1.585.687.281 1.376.957 1.983 1.585.122-.099.252-.206.352-.32-.545-.521-1.246-1.058-2.015-1.366.099-.021.197-.036.295-.036.547 0 .941.416 1.4.71.638.408 1.512.637 2.262.338.403-.153.794-.378 1.086-.745-.587.407-1.471.461-2.137.185z"/><path d="M24.702 13.748c-.184-.382-.218-.819-.452-1.189-.4-.632-1.06-.877-1.676-1.117.452.397.754.907 1.101 1.366.29.383.686.62 1.027.94zm-12.136.565l-.069-.037c-.403.817-.631 1.735-.631 2.706 0 .594.085 1.174.247 1.729l.145-.036c-.152-.52-.235-1.063-.242-1.618h1.106c.007.463.078.916.209 1.348l.143-.036c-.128-.42-.198-.861-.205-1.312h1.002c.003.148.021.293.04.438-.072.008-.141.031-.141.031l-.031.101c-.068.013-.111.126-.111.126-.056.019-.099.088-.08.107.018.019-.031.025-.031.025v.138l-.031.044.006.151c.037 0 .031.069.031.069-.062.006-.05.088-.05.088l-.13.044-.025.038-.161-.006-.039.04c-.013-.04-.032-.078-.044-.119l-.143.036c.004.015.011.029.016.043h-.185l-.012-.031-.062-.013-.006-.069-.093.006-.019.038-.099.006c.006.063-.099.157-.111.132-.013-.025-.081-.094-.05-.107.031-.013.111-.025.111-.025v-.044l-.229-.006-.025.038-.093.006v.101l-.043.013c-.031.019.006.088.006.088.043.044-.006.113-.006.113-.037.038.031.107.031.107.05.012-.031.05-.031.05.012.063.049.082.049.082-.037.063.025.094.025.094l.006.107.043.025v.069l.025.044h.099l-.006-.157c-.087-.101.074-.126.081-.088.006.038.074.057.074.057.012.094.118.151.148.057.031-.094.056-.038.074.006.019.044.136.151.136.151h.093l.012.088c.105-.006.136.006.179.151.043.144.161.182.161.182l.087-.006c0-.075.087.013.087.05 0 .038.167.182.167.182l.167.038.048.039c.099.124.199.246.311.361l-.782.782c-.692-.709-1.187-1.56-1.458-2.487l-.145.036c.285.976.811 1.87 1.55 2.609.5.5 1.072.903 1.692 1.2l.073-.13c-.587-.28-1.129-.656-1.608-1.123l.782-.782c.406.394.87.709 1.371.938l.073-.129c-.49-.222-.943-.529-1.339-.913l.138-.138c.009.015.021.021.024.046.012.094.056.075.056.075l.353-.006.124-.107.316-.006c.161-.006.062-.226.031-.226-.021-.017-.021-.054-.016-.093.253.195.519.368.809.492l.073-.129c-.386-.162-.741-.396-1.055-.688l-.037-.034.779-.779c.251.237.544.416.861.529l.074-.131c-.306-.106-.588-.276-.83-.503l.709-.71c.216.193.485.303.773.327l-.001.008s-.023.057.005.066c.028.009.018.014.032.028l-.014.033c-.023-.031-.037.024-.023.038.014.014-.032.005-.032.024s-.014.028 0 .038c.014.009-.005.014-.023.028-.019.014.079.019.079.019s-.018-.038.005-.038l.01.002v.048c-.011-.002-.013.002-.026-.001v.044l-.05.006.043.05.032.004v.103l-.001.006c0 .082-.204.025-.223.006l-.006.113-.037.006.006.075-.006.107.068-.013v.044l.167.006.032-.034v.116l-.001.006-.111.013-.046.024-.004-.001-.017-.035h-.049l-.015.02c-.15-.021-.303-.033-.445-.082l-.074.131c.091.033.185.054.28.076-.015.013-.041.028-.037.037.012.031-.049.063-.049.063l-.056.019-.037.057-.074.025-.012.132-.037.025v.057l-.043.012v.031l-.062.006.037.094.05.025c.087.012.049.119.049.119l.049.006.025.069.049.1c.019.075.074.057.099.05.025-.006.049.075.049.075l.247.006s-.012.025.031.038c.024.007.12.013.205.015v.111c-.458-.009-.901-.104-1.312-.276l-.073.129c.433.184.901.286 1.385.295v1.002c-.659-.01-1.296-.155-1.879-.42l-.073.129c.606.277 1.268.428 1.953.438v1.106c-.879-.011-1.726-.21-2.498-.577l-.073.13c.815.39 1.714.597 2.645.597.976 0 1.917-.228 2.764-.657l-.07-.136c-.79.4-1.679.631-2.62.643v-1.106c.448-.007.883-.081 1.302-.204l.12.037.031.101.05-.006.037-.031.148-.006.074-.069.08-.012.648-.551c.294-.183.578-.386.832-.633l.78.78c-.435.425-.936.783-1.483 1.06l.07.136c.574-.29 1.105-.672 1.573-1.14.492-.492.889-1.054 1.185-1.662l-.001-.001-.086-.047.086.047c.4-.824.612-1.733.612-2.676 0-.802-.154-1.579-.445-2.3-.304-.753-.76-1.445-1.351-2.037-.594-.594-1.289-1.05-2.046-1.355v.001c-.718-.291-1.493-.443-2.291-.443-.986 0-1.918.235-2.744.651l.067.129c.8-.401 1.684-.619 2.603-.63v1.106c-.749.011-1.457.193-2.089.506l.067.129c.622-.308 1.309-.477 2.022-.487v1.002c-.557.011-1.084.145-1.556.375l.068.129c.459-.223.964-.346 1.489-.357v1.106c-.348.01-.677.093-.975.232l.068.13c.282-.131.589-.205.907-.214v1.003c-.117.007-.225.042-.332.077h-.046l-.006-.069.031-.019-.05-.019-.037.05-.012.057-.062.013v.031h-.043v.055c-.088.049-.178.094-.253.16l-.71-.71c.183-.172.39-.312.613-.415l-.068-.13c-.239.112-.458.262-.648.441l-.783-.783c.275-.264.584-.478.918-.64l-.068-.129c-.352.172-.674.397-.953.666l-.709-.709c.358-.347.762-.631 1.197-.846l-.067-.129c-.456.226-.872.521-1.233.872l-.784-.784c.449-.439.956-.797 1.503-1.071l-.067-.129c-1.194.6-2.167 1.578-2.759 2.777l.067.038zm2.287 2.743l.004.035-.093.101.012.1-.056.019-.012.044-.025.132.062.006c.031-.013.025.082 0 .094-.025.013-.093.038-.056.063s-.099.019-.099-.019-.074-.069-.093-.056c-.01.007-.023-.009-.033-.027-.026-.162-.043-.326-.046-.492h.435zm-.407 3.037h.015c.031-.107.179.006.192.044.005.014.026.029.045.044l-.095.095c-.056-.059-.104-.123-.157-.183zm.969-.631c-.054-.056-.09-.124-.14-.183.011-.031.027-.059.027-.059.08-.05-.019-.132-.019-.132.012-.076-.043-.163-.043-.163-.111-.075-.08-.22-.08-.22v-.1c-.093-.088.037-.101.037-.101.043-.075-.031-.132-.031-.132l-.006-.082-.099-.013-.012-.295-.223-.32c-.043-.013-.012-.088-.012-.088.056-.031-.012-.107-.012-.107l-.006-.138.13-.013.031-.05h.062l-.006-.163c.015-.039.04-.048.062-.048h.008c.018.003.035.01.035.01l.087.006.009-.016h.295l.025.161-.08.069c-.068.038-.068.126.006.144.049.006.031.126-.043.044-.111 0 .062.101.012.075.111.057.087-.05.087-.05l.057-.045c.024.123.056.244.098.362.114.318.292.612.53.864l-.786.783zm-.218-2.566c-.074-.044-.037-.207-.037-.207.118-.176.254-.075.254-.075l.087-.006c.03.02.045.045.053.071-.006.045-.014.089-.017.135-.012.026-.024.045-.024.045-.007.01-.006.031-.008.049h-.24l.001-.005-.069-.007zm1.374.252l.025-.038.01-.054h.07c.002.037.019.069.024.105l-.005.024-.043.013-.012-.025-.018.069h-.111l-.006-.075.066-.019zm-.269 1.428c-.219-.233-.385-.503-.491-.796-.047-.13-.08-.265-.103-.403.052.02.108.102.108.117 0 .019.247.006.247.006.068.044.093.157.093.157.068-.088.21-.006.105.044.099.063.099.119.099.119.081-.025.081.038.081.057 0 .019.025-.094.025-.094-.093-.069.124-.094.062.031l-.038.056.062.05.006.144c.136-.013.099-.182.099-.182l.062-.012c0-.057.043-.025.043-.025-.034-.17.046-.227.082-.244.049.092.096.186.167.265l-.709.71zm.636-1.099c.008-.038.01-.072.01-.072-.056-.025-.025-.113.037-.038.062.075-.037-.151-.037-.151l-.049-.044-.042-.004c-.01-.063-.037-.122-.037-.187 0-.03.015-.056.017-.085.012-.003.025-.001.025-.001l.037.031.056.044.006.038-.037.019-.006.05.019.069h.049c.019-.101.149-.101.186-.038l.037-.088c-.087-.044-.002-.113.023-.082s.082-.082.082-.082.043.057 0-.019c-.043-.075.031-.113.031-.113-.012-.075.08-.063.08-.063l.006-.1-.087-.006c-.018.088-.093.013-.056-.006s.074-.057.074-.057v-.063l.037-.013.006-.063h.093l.08-.038.019-.031.087-.006.124-.113-.012-.05c-.074 0 0-.057 0-.057l.012-.094h-.068l-.01-.112c.085-.02.168-.05.258-.05l.012.151-.068-.023h-.043l-.018-.038-.037-.006v.138l.037.031.031.031.062.006.012.075.155.006.019.031.093.006.179.182-.012.057-.031.019c.012.044-.08.019-.08.019v.038l.043.006.043.025.062-.107c.068-.044.099.019.105.057.006.038-.031.031-.031.031v.088l.037.013c.062.075-.025.119-.025.119l-.019.063c-.019.057-.087.044-.087.044l-.025.038-.074.019.147.019c.014-.05.051-.063.07-.038.019.025.019.069.019.069l.037.006-.006.069.037.013v.201l.043.05c.074-.031.074.019.037.044-.037.025-.012.138-.012.138l-.031.031v.05l-.038.027v.069c-.062-.031-.136-.019-.155 0-.056-.038-.173-.025-.173.006.037.05-.043.063-.043.063l-.043.05c.031.063-.031.069-.031.069v.119l-.074.069.004.093c-.04.004-.074.023-.115.023-.289 0-.556-.114-.771-.303.001-.001.003 0 .004-.002.031-.05.08-.057.08-.057l.019-.044.167.006c.012-.069.093-.044.093-.013s.062.006.062.006l.043-.069h.068l.006-.075.031-.019v-.113c.099-.031.087-.126.087-.126l.025-.031-.012-.044c-.05-.019-.025-.063.006-.05.031.013-.043-.057-.043-.057-.037.031-.068-.038-.068-.038h-.093v-.088l-.012-.082-.093-.044-.068.063-.012.088v.056l-.062.013-.012.169-.049.019.006.063-.068.019-.068.019-.012.082-.049.031-.025.075-.029.171c-.092-.089-.161-.196-.214-.309zm3.289-3.281c.014.014.027.022.029.023.029.024.06.046.089.071v.038c.045-.011.109.045.117.088l-.764.764c-.22-.207-.472-.37-.743-.484-.276-.115-.574-.18-.881-.189v-1.106c.448.009.882.1 1.285.265.313.129.6.316.868.53zm.688-.025c.088.05.159.16.148.182-.012.025.074.019.074.019.012-.113.118-.075.124-.038.006.038.025.119.025.119l.031.056.043.044.068-.006.019.038.08.013s.068.075.074.094c.006.019.099.013.124.019.025.006.062.025.068.057.006.031.043.082.043.082s.074.019.08.044c.006.025.037.082.037.082l.062.05.006.057.068.006.019.075.111-.006.062-.044c.016-.009.026-.019.04-.028.023.052.057.098.077.15.209.526.323 1.09.332 1.672h-1.002c-.003-.17-.028-.336-.054-.501.01-.035.018-.069.006-.081-.018-.019.019-.107.019-.107s.025-.05 0-.101c-.025-.05.006-.107.025-.132l-.049-.025-.049-.006-.051.009-.031-.106.008-.016.031.006v-.038l-.057-.016c-.005-.015-.008-.031-.014-.047l-.01-.157-.043-.031.012-.05-.049-.019.025-.082-.043-.088h-.083c-.027-.053-.051-.108-.081-.16 0-.009.003-.02.034-.029.033-.009.045-.011.049-.01l-.006-.065-.056-.038-.019-.075s-.068.013-.062.05c.001.007-.014.008-.019.013-.039-.063-.09-.118-.133-.179.003-.01.004-.02.009-.029.025-.044.012-.069-.031-.082-.043-.013-.043-.013-.056-.063-.012-.05-.062-.063-.062-.063l-.019-.075-.058.036c-.023-.027-.041-.057-.065-.083l.025-.079c-.026-.005-.033-.022-.04-.038l.184-.18zm-.2.496l-.005.007c0 .058.023.055.049.049l.052.067c.004.026.017.045.041.053.1.133.191.269.27.413-.007.008-.01.015-.01.015l-.099.013v.1l-.05.019.006.063.068-.006s0 .075.019.044.173.006.161.082c-.005.031.155.113.136.213.017.003.016.014.026.022.03.087.054.176.077.266l-.004.008.009.01c.022.085.045.169.06.256-.006.063-.02.123-.051.142-.074.044.006.019.006.019l-.012.138c.019.063.049.031.068 0 .006-.01.013-.015.019-.021.009.091.027.179.029.271h-.748l.013-.017.031-.088.105-.031.012-.082-.056-.006s.062-.113.093-.113.235 0 .254-.013c.019-.013.056-.113.056-.132s.05-.025.068-.031c.019-.006.062-.056.074-.082.012-.025-.031-.182-.056-.157-.025.025-.08.038-.08.038l-.019.069-.031.025s.006.019 0 .063-.062.069-.062.069l-.025.031s-.149.008-.167 0c-.056-.025-.018-.1.019-.094.037.006-.006-.107-.006-.107l.05-.006s.006-.113.025-.113c.019 0-.006-.038-.031-.056-.025-.019-.056-.082-.081-.075-.025.006-.124 0-.124 0l-.019.038-.068.013s.006.049-.006.063c-.037.044-.179.138-.118-.019l.018-.038v-.057l-.111-.006s-.056-.019-.056-.044-.006-.056-.006-.056l-.13-.144-.155-.019-.012-.031-.093-.013c-.012-.006-.02.001-.032-.003-.041-.066-.095-.123-.143-.186l-.011-.044c-.005-.022-.07-.105-.107-.11-.017-.019-.028-.041-.046-.059l.768-.768c.021.021.028.034.06.057.005.003.008 0 .013.002.029.026.05.059.075.089zm.56 3.763c-.169.381-.402.727-.687 1.024-.012-.127-.039-.266-.039-.266l-.05-.025.012-.151h-.068l-.111.145-.012.04-.063-.063.032-.033-.006-.075.043-.038v-.063l.037-.013.006-.138.031-.006v-.301l-.093-.088c-.006.031-.105.031-.105.031s-.025.044-.043.044.025.057.012.094c-.012.038-.062.038-.062.038l-.093.025-.025.031h-.099l-.01-.066.016-.02.093-.026.062-.031.031-.063c.006-.063.08-.056.08-.056s.142-.119.148-.176c.006-.057.056-.214.142-.214h.161c.062-.025.043-.107.043-.107l.08-.013.012.044s.111.013.124-.006c.012-.019.037-.063.068-.044.031.019.13-.044.13-.044.006-.044.161-.025.161-.025l.019-.056s-.105-.144-.124-.144c-.019 0-.118-.088-.13-.057-.099-.025-.093-.163-.093-.163l-.037-.088c0-.05-.093-.157-.111-.144-.039-.029-.046-.059-.044-.086h.865c-.007.487-.116.951-.303 1.373zm-2.799-.171l.031.013-.056.044-.049.057-.062-.019-.074-.006-.025-.044-.043-.006-.006.088-.031.038-.074.076c.078 0 .026.042-.012.06v-.251c.076-.004.144-.033.217-.049l.03.026h.056l.005-.047c.031-.009.064-.01.094-.021-.006.017-.001.041-.001.041zm1.113-2.762c.008.001.018.006.026.006.037 0 .118-.013.118-.013l.053.012c.03.036.058.074.085.111l-.064-.01-.049-.006-.093-.006c-.093.063-.111.138-.111.138-.045.085-.14-.013-.126-.07l.161-.162zm-.203 3.522l.161.082c.019.025.099.019.099.019l.025.031s.05-.006.081.031c.031.038.192.006.192.006l.043.038.068.025.115.004.07.07c-.112.052-.337.035-.352.02-.019-.019-.148-.075-.148-.075s-.099-.082-.118-.056-.105-.031-.105-.013-.08-.044-.08-.044l-.124-.044.093-.019-.02-.075zm.019-.737c.003-.007.009-.013-.001-.023-.007-.008-.02-.007-.03-.008l-.051-.051c-.003-.039.005-.092.001-.111-.006-.025.105-.063.087-.006-.019.057 0 .082 0 .082.08-.075.148.006.142.025-.006.019.043.038.074.019s.068.057.056.094c-.012.038-.124.031-.13-.006-.006-.038-.025-.025-.037-.006-.011.017-.057.026-.088.014l-.023-.023zm.532-2.378c-.062 0-.074-.05-.074-.05s-.049-.019-.049.006-.019.075 0 .1c.018.025-.025.063-.043.044-.018-.019-.068-.075-.056-.094.012-.019-.087-.138.012-.157.099-.019-.006-.075.031-.088l.049-.025h.049l.022-.018c.028.039.062.074.088.114-.003.014-.02.019-.017.036.019.095.049.132-.012.132zm-1.472 2.161c-.035.015-.076.014-.113.026v-.12l.062-.069c.066-.023.055.116.051.163zm-.39 2.358c.032-.035.153-.039.21.003.068.05.161.019.161.019l.052.063c-.141.02-.277.053-.423.056v-.141zm.826-5.589c.253.106.488.258.693.451l-.043.043c-.017-.021-.084-.034-.084-.057 0-.025-.062-.057-.056-.019.006.038-.043.057-.056.044-.012-.013-.049.038-.049.038 0 .019-.012.044.025.05.037.006.105-.025.111.013.002.013.005.023.008.033l-.243.243c-.035.002-.068.001-.068.001-.019.057-.105-.006-.08-.044.025-.038.025-.063.025-.063l-.031-.006-.037.069c-.087 0-.111.05-.093.082.019.031-.025-.006-.037.038-.012.044.006.044.043.063.037.019-.019.019.006.05.018.023.048.02.054.029l-.024.024c-.045.022-.105.016-.105.016-.002.017-.023.018-.039.024-.061-.049-.128-.087-.196-.123l-.006-.008h-.007c-.031-.017-.058-.043-.09-.057.019-.013.045-.021.059-.062.025-.069.037-.182.037-.182s-.099-.006-.105.025c-.006.031-.068.05-.068.05s-.05.019-.031.044c.019.025-.037.038-.037.038s.005.029-.004.048c-.098-.029-.195-.062-.299-.068v-1.003c.288.006.567.067.827.176zm-.765 4.066l.142-.031c.012-.063.074.013.074.013.062-.006.074.038.074.038l.081.013c.068.019.027.026.031.05.006.038.037.025.037.025l.012-.082.037.006-.037-.044-.068-.031-.074-.031c-.049-.069.012-.057.062-.05h.08s.093.125.093.157c0 .031.043.038.043.038l.056-.006.019.044h.056l.019.038h.111l.006-.057-.105-.019-.006-.063-.074-.019c-.025-.107.018-.138.049-.088l.037.006-.012-.094.043-.013-.012-.132-.037-.012v-.046l.155.006c-.012-.082.006-.119.006-.119h.043l.006.031.189.018.009.001c.074.044.037.101.012.113-.025.013-.068.013-.068.013l-.012.025-.161.012-.012.063c-.08-.013-.111.075-.093.119.019.044 0 .082 0 .082l.068.031.087-.025c.012-.063.068-.076.118-.113.045-.034.106.048.1.102-.1.07-.19.153-.3.207-.164.08-.341.135-.524.175h-.001l-.068-.019-.006-.094c-.012-.063-.13-.063-.124-.019.006.044-.221.019-.222.019v-.173l.061-.065zm-.062 1.812c.172-.003.336-.04.503-.066l.022.049.105.031.074.019.025.107.056.006.019.069c.068.05-.019.157-.019.157v.138l.05.025-.006.05.081.081.093.006.151.161c-.369.1-.754.159-1.153.166v-.999zm2.469.245v-.047c.111-.082.118-.226.012-.239-.08-.01-.043-.094.031-.107l.043-.019v-.057l.142-.132v-.101l-.309-.258c-.068-.025-.068-.112-.04-.193.053-.046.111-.085.163-.134l.435.435c-.017.033-.032.065-.025.086l.056.025.006.107c.042.043.134.04.209.027l.026.026c-.227.223-.482.41-.749.581zm.853-.684l-.027-.027-.009-.159-.031-.031-.006-.157c.025-.082-.118-.201-.13-.176-.012.025-.093.006-.093.031s-.049.151-.025.195v.004l-.386-.386c.303-.315.544-.675.718-1.064.201-.45.312-.94.322-1.447h1.001c-.01.688-.169 1.34-.444 1.927-.224.478-.526.914-.89 1.29zm1.992-.689c-.283.584-.658 1.115-1.106 1.575l-.78-.78c.382-.394.69-.841.917-1.324.291-.619.449-1.297.459-2h1.106c-.011.905-.224 1.763-.596 2.529zm.164-4.844c.275.681.424 1.413.433 2.168h-1.106c-.009-.602-.127-1.186-.344-1.73-.029-.072-.074-.135-.106-.206.007-.034.021-.101.076-.084.062.019.019-.138.019-.138s-.087-.063-.081-.094c.006-.031-.087-.094-.08-.119.006-.025-.08-.075-.074-.1.006-.025-.043-.094-.043-.094l-.093-.088-.012-.057-.074-.006-.148-.182.006-.05-.043-.006v-.069l-.043-.025-.068-.006-.139-.154-.012-.069h-.068l.01-.107.723-.723c.552.567.979 1.225 1.267 1.939zm-5.478-2.636v-1.106c.753.009 1.484.158 2.164.431v-.001c.715.288 1.374.715 1.942 1.269l-.659.659c-.024.006-.05.013-.068.005-.043-.019.018-.063.018-.063v-.05l-.037-.038s-.105.013-.111-.006c-.006-.019-.025-.101-.025-.101l-.006-.107-.043-.019-.006-.038-.068.006v-.075l-.037-.013-.038-.017-.006-.075-.136-.006-.043-.063-.049-.075-.155-.013-.037-.038-.062-.013-.043-.019-.019.031-.118.006-.006.038c-.045.023-.184.016-.262.018-.111-.055-.215-.126-.33-.172l-.054.138c.101.041.193.104.291.152-.005.008-.008.022-.016.022-.031 0-.019.082-.019.082s.081 0 .105.006c.025.006.025.069.025.069.093-.006.13.119.118.151-.012.031.037.031.037.031s0 .1-.012.126c-.012.025.081.044.105.082.025.038-.012.163-.031.17-.019.006.049.025.043.057-.006.031.019 0 .025.05l.019.157.087.006c.012-.082.172-.085.198-.075.105.038.186.201.186.239s-.068.044-.068.044l.003.041-.221.221c-.02-.012-.042-.024-.054-.017-.031.019-.019-.132-.019-.132s.056-.038.081-.019-.21-.314-.26-.283c-.049.031-.161-.031-.155-.088.006-.056-.223-.245-.223-.245s-.074-.05-.087-.012c-.012.038-.037.063 0 .082.037.019.031-.031.074.013s.124.1.093.138c-.031.038-.068.05-.068.05l.043.05h.068l.012.107s.074.038.093.082c.015.036.01.056 0 .078-.138-.105-.279-.201-.429-.285.003-.016.011-.032.008-.044-.012-.044.05-.063.08-.013l.062-.006.012-.057-.086-.071h-.068s-.006.05-.049.031c-.043-.019-.019-.013-.056-.019-.037-.006-.025.082-.019.107l-.002.007c-.098-.051-.191-.112-.293-.153-.42-.172-.873-.267-1.339-.276v-.557c.035-.001.058-.01.062-.026.006-.025.012-.031.049-.038.037-.006-.006-.082-.043-.075-.032.005-.056-.014-.068-.037v-.268c.594.009 1.17.128 1.705.345l.054-.138c-.552-.224-1.146-.346-1.759-.355zm-1.166 3.89l-.059-.002c-.025.057-.087-.006-.087-.006-.012-.038-.099 0-.099 0 0 .069-.118-.031-.118-.031l-.217-.157c-.124-.113-.309.031-.315.063.003.044-.032.048-.068.042.097-.184.21-.359.356-.514l.607.605zm-.71-.709c-.162.172-.292.372-.4.585-.029-.001-.061 0-.069.022-.018.05-.099.038-.099.038l-.012.025-.062.013-.012.038-.074.013.186-.006c.05-.006-.019.107-.049.1l-.087.006-.031.031h-.08l-.039.05-.117-.006s-.068.057-.062.075c.006.019-.012.075-.031.075s-.056.057-.043.075c.012.019-.037.082-.037.082l-.012.063-.037.013v.17l-.074.05v.075l-.034.037h-.503c.01-.498.122-.978.324-1.419.165-.36.391-.694.673-.987l.781.782zm-.886-.886c-.286.297-.523.642-.698 1.021-.211.454-.333.958-.343 1.488h-1.002c.01-.692.169-1.359.46-1.966.219-.456.511-.879.873-1.252l.71.709zm-1.596-1.597l.784.784c-.365.376-.669.809-.899 1.286-.298.618-.469 1.308-.479 2.036h-1.106c.011-.903.222-1.774.61-2.563.275-.561.641-1.082 1.09-1.543z"/><path d="M13.106 19.923l.068.063.025-.044-.044-.094-.043-.032-.031-.088-.093-.043.044.113.024.056zm4.702-3.956zm-2.549 1.714c.006.069.056-.044.056-.044v-.427l-.111-.013.006.044h.031c.049.088.006.301.006.301s-.074.006-.087-.031c-.012-.038-.043.082-.019.101.025.019.112 0 .118.069z"/><path d="M15.203 17.719v.151l.099.132.037-.088.013-.057-.044-.019.007-.094.037-.006.006-.044-.093.063zm1.955-.276l.013-.063.037-.019.006-.063.025-.044.037-.044.013-.05.061-.037.075-.013.031-.038.012-.075.005-.056.026-.038.074-.032v-.119h-.037l-.006-.044-.068-.006-.013.031h-.03l-.007.05h.037l.007.038-.025.025-.012.032-.05.012-.111.107-.007.05-.03.044-.037.094-.131.006-.024.114.018.094zm.489.408l-.056.006.006.088.037.031.068.019s.093-.025.099-.1l-.142-.006-.012-.038zm.489-.358c.013.055.012-.088.037-.082.025.006.006-.088.006-.088l-.111.081c.056.008.062.064.068.089zm.439-.126c-.093-.063-.087-.144-.111-.201-.011-.024-.037-.044-.056.006v.082s.087.138.117.157c.032.019.082-.022.05-.044zm2.785.189c-.025-.075-.175-.011-.148.025.037.05.099.025.124.031.024.007.049.019.024-.056zm.198-2.091c0 .019.013.113.013.113s.043.019.049.044c.006.025 0 .075.019.082.018.006.056.031.043.056-.012.025-.012.075-.012.075l.025.057.049.031s.019-.151-.012-.157c-.031-.006-.018-.094-.018-.094s.031-.119-.019-.119-.012-.063-.043-.082c-.031-.019-.012-.107-.025-.132-.012-.025-.012-.057-.043-.075-.031-.019.006.069-.012.082-.019.013-.031.038-.05.057-.02.018.036.043.036.062zm-.266-.591c.018.025.056.044.056.069 0 .025-.012.044.025.05.037.006.062-.006.074.025.012.031.012.082.006.107-.006.025.006.063.037.063s.037.006.037.025c0 .019.037-.069.037-.069-.031-.025-.056-.082-.056-.082s-.031-.088-.031-.1c0-.013-.043-.025-.062-.031-.019-.006-.05-.063-.05-.063l-.073.006zm-.068-.138c.025 0 .043.013.068.025.025.013.043.031.062.057l.062-.019s.006-.063-.019-.044c-.025.019-.043-.044-.068-.038-.025.006-.037-.025-.062-.056s-.019-.038-.05-.057c-.031-.019-.05-.019-.05.006s.031.038.019.069c-.012.032.013.057.038.057zm-.706.434s.019.031.037.05c.019.019.062.057.019.082s.006.019.006.019-.006.132-.062.113c-.056-.019-.074.069-.074.094s.22.035.186 0c-.019-.019.025-.063.025-.063s.149.013.18.013.056-.006.037-.038c-.019-.031-.074-.025-.074-.025s-.074.019-.142-.019.012-.05.025-.05.068-.044.043-.075c-.025-.031 0-.088 0-.063 0 .025.068.038.081.019.012-.019 0-.075-.031-.094-.031-.019.056-.031.031-.063-.027-.032-.039-.07-.039-.07s-.037.05-.111.025c0 0-.012.119-.049.144h-.088zm.805-.048v.004s.004-.003 0-.004zm-2.234.374c0 .019.043.038.068.038s.093-.05.093-.05.031-.088.006-.082c-.025.006-.074.044-.08.006-.006-.038-.08-.019-.08-.019l-.099.013-.006.044.068.006c-.001 0 .03.026.03.044zm.532-2.091c-.031 0-.087-.038-.074-.063.012-.025-.105-.05-.105-.05s-.105-.101-.068-.088c.037.013.019-.044.019-.044s-.074.013-.093.006c-.019-.006-.012-.063-.012-.063s-.074-.019-.074 0 .025.019.037.056c.012.038.006.101.062.113.056.013.068.025.074.05.006.025.074.031.074.031l.05.025.148.126v-.05c-.001.001-.007-.049-.038-.049zm-.65-.804c.002.002.006-.005.008-.005-.021-.01-.034-.015-.008.005zm.192 0l-.043-.031s-.068-.006-.068-.025c0-.017-.045.054-.072.052.03.015.078.042.078.042.049 0 .08.038.08.057s.068.013.068.013l.006-.044-.049-.064zm1.77-.018s.116.137.111.069c-.012-.188-.099-.195-.13-.232-.031-.038-.164.007-.155.057.006.031.031.063.08.075l.094.031zm-2.389-.729v-.069l-.024-.025-.025-.088-.08-.025-.08.031-.087.057-.093.013-.05.056.198.019.037.063.142.013.093.094c.081.025.099-.013.05-.056l-.081-.083zm.57-.308h-.111c-.006-.044-.105-.025-.111 0-.006.025-.043.031-.043.031l-.142.013c-.012.038-.087.063-.093.038-.014-.055-.093.069-.012.094.08.025.161 0 .161 0l.019-.038.309.006c.025-.025.037-.063.037-.063s.074-.025.105-.013c.031.013.006-.088-.025-.075-.032.013-.094.007-.094.007zm-1.671 1.306c.006.019.068.025.074.006.006-.019.031-.057-.025-.057s-.043-.031-.062-.05c-.019-.019-.147-.016-.142.006.006.031.056.069.056.069s.093.008.099.026zm.292 5.662c.028-.005.046-.019.069-.024.023-.005.033-.042.042-.08.009-.038-.009-.057-.009-.057s-.023.038-.06 0-.07.085-.084.113c.001.001.015.052.042.048z"/></g></svg>