<svg xmlns="http://www.w3.org/2000/svg" viewBox="0 0 36 36"><path fill="#265FB5" d="M36 27c0 2.209-1.791 4-4 4H4c-2.209 0-4-1.791-4-4V9c0-2.209 1.791-4 4-4h28c2.209 0 4 1.791 4 4v18z"/><path fill="#FFF" d="M25.935 18.32c-.017-.324-.222-.581-.222-.581s.308-.29.29-.718c-.018-.427-.428-.734-.428-.734s.138-.154.154-.479c.017-.325-.257-.444-.257-.444s.103-.274-.051-.445c-.154-.171-.394-.154-.394-.154s.223-.222.068-.53c-.153-.307-.427-.376-.427-.376s.068-.376-.205-.649c-.273-.274-.752-.24-.752-.24s.084-.563-.153-.803c-.24-.239-.769-.085-.769-.085.085-.206-.069-.582-.325-.752-.257-.17-.974-.103-.974-.103.051-.188-.154-.427-.462-.53-.308-.103-.615.051-.615.051s-.29-.342-.547-.359c-.256-.017-.444.103-.444.103s-.138-.308-.445-.308-.922.411-.922.411-.701-.325-1.042-.308c-.342.017-.53.239-.53.239s-.358-.206-.769-.017c-.41.188-.444.461-.444.461s-.257-.137-.667-.051c-.41.085-.461.513-.461.513s-.325-.137-.649.085c-.325.222-.239.444-.239.444s-.24-.188-.633.017c-.393.205-.393.564-.393.564s-.256-.068-.564.342c-.308.41-.256.581-.256.581s-.325.017-.513.496 0 .718 0 .718-.273.12-.479.53c-.205.411-.068.821-.068.821s-.376.171-.342.667c.034.496.359.615.359.615s-.29.154-.325.547c-.034.394.223.547.223.547s-.256.154-.273.479c-.017.323.547.513.547.513s-.205.119-.205.428c0 .307.41.442.41.442s-.171.155-.068.549c.102.392.461.392.461.392-.102.291.24.394.24.394s-.154.102.119.429c.273.322.547.203.547.203-.12.359.222.479.222.479.035.633.735.479.735.479.12.581.564.444.564.444s-.188.256.103.564c.291.309.752.204.752.204.256.411.82.563 1.453.462.632-.102 1.316-.137 1.641-.222.325-.085 2.479.017 2.479.017s.819.188 1.264-.051c.444-.24.41-.462.41-.462s.239.153.701-.067c.461-.224.376-.703.376-.703s.427 0 .667-.221c.239-.221.154-.359.154-.359s.375-.188.511-.358c.138-.172.018-.343.018-.343s.17.085.478-.188c.309-.274.273-.719.273-.719s.223.034.411-.273c.188-.309.067-.581.067-.581s.257-.19.411-.581c.153-.393.017-.805.017-.805s.204-.306.187-.631zm-2.188.65c.017.051-.137.018-.341.309-.206.289-.068.683-.068.683s-.239.188-.394.36c-.153.17-.153.495-.153.495s-.205.017-.496.255c-.29.239-.29.666-.29.666s-.205-.051-.513.207c-.308.256-.308.598-.308.598s-.223-.172-.685.051c-.462.223-.871.599-.871.599s-3.469-.034-3.726-.411c-.256-.374-.94-.203-.94-.203s.068-.225-.273-.445c-.342-.222-.667-.119-.667-.119s.188-.102.102-.275c-.085-.17-.324-.152-.324-.152s.136-.051.051-.359c-.085-.307-.581-.273-.581-.273s.222-.136.068-.427c-.154-.292-.513-.239-.513-.239s.069-.257 0-.512c-.068-.258-.341-.309-.341-.309s.222-.034.17-.343c-.051-.308-.393-.461-.393-.461s.069-.204.069-.547c0-.341-.206-.427-.206-.427s.256-.12.291-.41c.034-.29-.154-.598-.154-.598s.171-.137.24-.359c.068-.223-.035-.342-.035-.342s.223-.137.308-.377c.086-.239.051-.495.051-.495s.188-.052.359-.256c.171-.205.086-.393.086-.393s.393.017.581-.188c.188-.206.206-.462.206-.462s.239.034.547-.188c.308-.222.273-.427.273-.427s.29.085.529-.068c.24-.154.359-.427.359-.427s.085.12.444 0 .496-.239.496-.239.137.205.479.136c.342-.068.615-.29.615-.29s.052.239.428.171c.375-.069.529-.189.529-.189s-.034.256.24.325c.273.068.53-.035.53-.035s.033.189.222.223.324-.102.324-.102.034.273.326.427c.29.154.768.068.768.068s-.017.137.188.239c.206.103.41.137.41.137s-.068.29.258.393c.323.103.512.103.512.103s.034.24.153.479c.12.239.428.342.428.342s-.104.154-.051.427c.051.274.443.393.443.393s-.101.189-.034.445c.068.256.257.444.257.444s-.12.256-.137.479c-.017.222.257.82.257.82s-.273.154-.257.462c.017.303.137.56.154.611z"/><path fill="#FFB636" d="M17.925 24.223c-3.637 0-6.6-2.749-6.723-6.358-.003.078-.005.156-.005.233 0 3.716 3.013 6.729 6.728 6.729 3.717 0 6.729-3.013 6.729-6.729 0-.078-.002-.156-.005-.233-.123 3.609-3.087 6.358-6.724 6.358z"/><path fill="#B58FE5" d="M19.867 10.8s-.216-.33-.66-.273c-.445.057-1.025-.171-1.379-.353-.353-.183-.899.091-.899.535 0 .444.285.661.694.661.41 0 .969-.183 1.356-.444.321-.218.888-.126.888-.126z"/><path fill="#6B26B5" d="M17.623 11.374c-.444 0-.698-.242-.698-.665 0-.199.108-.378.297-.493.195-.118.434-.136.608-.045.175.09.743.361 1.23.361.05 0 .099-.003.146-.009.035-.004.069-.007.101-.007.375 0 .562.279.563.282l.006.008-.01-.001c-.004 0-.569-.089-.885.125-.387.261-.945.444-1.358.444zm-.042-1.253c-.119 0-.245.034-.355.102-.186.113-.293.29-.293.486 0 .417.252.657.69.657.411 0 .968-.183 1.353-.444.295-.201.806-.137.882-.127-.036-.049-.25-.315-.65-.264-.048.006-.098.009-.147.009-.49 0-1.059-.272-1.234-.363-.074-.037-.158-.056-.246-.056z"/><path fill="#B58FE5" d="M24.243 13.615c.604 0 .614.535.627.752.011.217.103.672.25.854.149.182.32.615.343.797.022.183 0 .365-.16.125-.16-.239-.536-.718-.899-.923-.365-.205-.809-.502-.809-.958-.001-.454.375-.647.648-.647z"/><path fill="#6B26B5" d="M25.422 16.263c-.03 0-.07-.038-.122-.116-.166-.248-.542-.721-.898-.922-.402-.225-.812-.516-.812-.961 0-.475.4-.652.653-.652.589 0 .617.515.63.734l.001.021c.01.196.096.662.249.852.146.179.32.609.344.799.007.052.022.222-.033.243l-.012.002zm-1.179-2.644c-.25 0-.646.175-.646.645 0 .441.408.73.808.954.357.201.734.675.9.924.061.09.097.113.117.113l.009-.002c.033-.012.044-.102.027-.234-.023-.189-.196-.617-.342-.795-.155-.191-.241-.66-.251-.857l-.001-.021c-.012-.236-.04-.727-.621-.727z"/><path fill="#B58FE5" d="M25.246 17.466c.421 0 .593.319.593.672 0 .354-.206.65-.297 1.002-.091.354-.057.855-.126 1.026-.068.172-.159.263-.159.263s-.101-.147-.125-.388c-.023-.239 0-.615-.17-.913-.172-.295-.411-.67-.411-1.013 0-.342.422-.649.695-.649z"/><path fill="#6B26B5" d="M25.256 20.435l-.002-.004c-.001-.001-.103-.15-.126-.39-.005-.051-.008-.108-.011-.17-.012-.227-.025-.508-.159-.741l-.044-.075c-.163-.278-.367-.625-.367-.94 0-.348.436-.653.699-.653.44 0 .597.349.597.676 0 .222-.079.417-.163.625-.049.121-.1.246-.134.378-.047.185-.061.407-.072.604-.011.183-.021.34-.054.423-.068.17-.159.263-.16.264l-.004.003zm-.01-2.965c-.261 0-.691.302-.691.645 0 .313.203.658.366.936l.045.075c.134.235.147.518.159.744.003.062.006.119.011.171.021.214.105.355.122.381.017-.019.095-.107.154-.258.033-.081.043-.237.054-.419.012-.198.024-.422.072-.606.034-.132.085-.257.134-.379.084-.207.163-.402.163-.622 0-.157-.043-.668-.589-.668z"/><path fill="#B58FE5" d="M10.342 15.609s.171.182.262.399c.091.216.137.592.331.832.194.239.604.934.604 1.23 0 .296-.217.592-.604.592s-.823-.33-.842-.694c-.035-.627.331-.545.285-.991-.035-.331-.012-.376-.023-.547-.016-.224-.013-.821-.013-.821z"/><path fill="#6B26B5" d="M10.935 18.666c-.408 0-.828-.346-.846-.698-.019-.336.078-.471.164-.589.076-.105.142-.195.121-.401-.022-.209-.021-.304-.02-.389 0-.049.001-.096-.003-.158-.015-.221-.012-.815-.012-.821v-.01l.007.007c.002.002.173.186.263.4.03.071.055.16.082.254.056.195.118.416.248.576.185.228.605.931.605 1.233-.001.289-.214.596-.609.596zm-.589-3.047c0 .081-.002.605.012.81.004.063.004.11.003.159-.001.084-.002.18.02.388.021.209-.048.305-.122.407-.085.117-.181.25-.163.584.019.348.434.69.838.69.39 0 .601-.303.601-.588 0-.3-.419-1-.604-1.228-.131-.161-.194-.383-.25-.579-.027-.094-.052-.183-.082-.253-.078-.189-.22-.353-.253-.39z"/><path fill="#B58FE5" d="M14.262 11.393s-.398.352-.603.9c-.206.547-.422 1.401-1.048 1.401-.524 0-.662-.444-.662-.718 0-.273.354-.57.707-.684.353-.114.575-.28.752-.502.273-.342.809-.41.809-.41"/><path fill="#6B26B5" d="M12.61 13.698c-.647 0-.666-.648-.666-.722 0-.283.368-.578.709-.688.326-.105.558-.259.751-.5.271-.339.806-.411.811-.411l.001.008c-.005.001-.537.072-.806.408-.194.242-.427.397-.754.503-.339.109-.704.4-.704.68 0 .073.019.714.658.714.547 0 .781-.659.968-1.188.026-.073.051-.144.076-.21.203-.542.601-.898.605-.901l.005.006c-.004.003-.4.358-.602.898-.025.066-.05.137-.076.21-.188.532-.422 1.193-.976 1.193z"/><path fill="#8C8A8C" d="M16.826 13.023c.877 0 1.527.022 1.982.022.457 0 .912.148.912.57 0 .421-.227.57-.227.57s.091.318-.057.661c-.149.341-.411.524-.878.524s-1.298.011-1.527.011c-.227 0-.442-.055-.592-.57-.445-1.526-.081-1.788.387-1.788zm.262 2.369h1.72c.194 0 .366 0 .387.547.024.547.981 8.159 1.037 8.728.057.57-.422.638-.422.638s-.136.263-.763.444c-.627.182-.855.114-1.071.057-.216-.057-.456-.125-.763 0-.308.125-.582.092-.844-.045-.262-.136-.285-.343-.285-.343s-.171-.046-.376-.204c-.205-.158-.194-.547-.137-.81.057-.261.923-7.656.991-8.181.07-.523.15-.831.526-.831z"/><path fill="#FFF" d="M17.955 13.303l1.025 3.209 3.402.008-2.767 1.978 1.076 3.227-2.736-2.021-2.737 2.021 1.076-3.227-2.767-1.978 3.402-.008z"/><g fill="#FFB636"><path d="M12.109 17.283s-.202-.647-.661-.558c-.354.068-.251.251-.137.353.114.102.114.171.216.102.103-.068.262-.057.342.023.08.08.24.08.24.08zm-1.436-1.812s.068.069.148.206c.08.136.388.205.513.159.125-.045.16.331.046.433-.114.102-.245.153-.467-.046-.32-.284-.24-.752-.24-.752zm1.071.058c.171-.058.33.091.308.319-.023.228-.262.684-.262.684s-.046-.091-.08-.205c-.034-.114.125-.17.023-.354-.103-.182.011-.444.011-.444zm-.49-1.641s.239.228.375.274c.137.045.411-.069.49.113.08.183.103.57-.216.467-.319-.103-.444-.296-.524-.467-.079-.171-.125-.387-.125-.387zm1.698-.513c.137-.148.478-.16.501.125.023.285-.216.809-.216.809s-.069-.183-.08-.262c-.011-.08-.08-.331-.228-.387-.148-.057.023-.285.023-.285zm.615-.707c.194-.137.41-.023.468.148.056.171-.069.798-.171.934l-.068-.228c-.022-.08.011-.387-.251-.456-.263-.066.022-.398.022-.398zm1.082-1.754s-.638.581-.262 1.026c.376.444.433 0 .387-.137-.045-.137-.011-.148-.091-.274-.08-.125-.08-.262-.034-.364.046-.103 0-.251 0-.251z"/><path d="M14.205 12.35c-.023.171.034.251.137.33.102.08.045.398.045.398s.205-.045.25-.421c.046-.376-.102-.569-.205-.569s-.227.262-.227.262zm.866-.547c-.103.126-.125.421.045.547.171.126.102.513.102.513s.25-.148.273-.501c.022-.354-.194-.604-.194-.604l-.226.045zm.809-1.242s-.559.491-.274.9c.285.41.559-.091.456-.193-.102-.103-.273-.194-.205-.376.069-.183.023-.331.023-.331z"/><path d="M15.926 11.621c.182-.057.296.069.33.262.034.193-.251.763-.251.763s-.125-.114-.069-.285c.058-.17-.056-.285-.159-.387-.102-.103-.033-.296.149-.353zm1.31-.353c-.213.05-.33.25-.148.399.182.148.171.227.125.341-.045.114.011.251.011.251s.239-.125.307-.479c.07-.353-.101-.558-.295-.512zm2.802-.685s-.204.456.034.752c.24.296.468.068.456-.103-.011-.171-.171-.205-.273-.273-.102-.068-.159-.068-.137-.17.025-.103-.08-.206-.08-.206zm.013.946c-.104.046-.149.376-.092.479.058.103-.079.229-.114.354l-.034.125s.285-.091.468-.365c.183-.273.193-.502.079-.581-.114-.08-.307-.012-.307-.012zm.979-.752s-.502.421-.456.821c.046.399.422.307.49.114.067-.194-.058-.353-.079-.468-.023-.114.021-.182.056-.273.034-.091 0-.194-.011-.194z"/><path d="M20.894 11.894c-.104.125-.046.376-.046.524 0 .148-.17.296-.159.434 0 0 .513-.125.581-.661.068-.537-.376-.297-.376-.297zm.752-.262c.215-.171.593-.148.878-.045 0 0-.081.182-.239.171-.16-.012-.081.319-.479.376-.4.056-.331-.365-.16-.502zm.25.866c-.201.08-.308.354-.114.456.193.103.17.16.159.308-.012.149.081.262.081.262s.146-.216.181-.559c.035-.342-.079-.558-.307-.467zm.662.262c.022-.217.308-.422.58-.422.273 0 .445.102.445.102s-.012.103-.217.114c-.205.012-.217.41-.559.434-.341.023-.249-.228-.249-.228zm2.038 3.931s.126-.126.32-.136c.192-.012.375.182.49.33.112.148.17.353.17.353s-.159 0-.217-.091c-.057-.091-.502-.022-.718-.182 0 0-.091.103-.204.171-.115.068-.319.011-.399.16-.079.148-.216.25-.216.25s-.046-.456.158-.684c.206-.228.297-.251.434-.228.137.023.182.057.182.057z"/></g><path fill="#207900" d="M12.747 13.592s.205.137.102.558c-.102.421-.228.945-.148 1.299 0 0-.285-.342-.251-.684.035-.342.285-.581.205-.843-.079-.262.092-.33.092-.33z"/><path fill="#103800" d="M12.733 15.514l-.045-.055c-.012-.014-.289-.351-.255-.696.015-.151.073-.284.124-.402.067-.157.126-.292.083-.435-.083-.273.099-.35.101-.351l.008-.003.007.005c.009.006.214.148.11.576-.096.396-.228.938-.148 1.291l.015.07zm.012-1.902c-.032.018-.137.093-.073.305.047.155-.016.302-.083.458-.052.121-.106.246-.121.392-.024.249.127.502.204.613-.052-.359.07-.861.161-1.234.086-.357-.054-.504-.088-.534z"/><path fill="#207900" d="M12.234 14.401c.068.319.148.866.114 1.151-.034.285-.319.512-.319.512s.171-.364.125-.797c-.039-.374.08-.866.08-.866z"/><path fill="#103800" d="M11.982 16.123l.031-.066c.002-.003.168-.365.124-.788-.04-.373.079-.867.08-.872l.018-.073.016.073c.065.303.149.862.115 1.156-.035.289-.314.514-.326.523l-.058.047zm.251-1.64c-.031.154-.092.503-.062.781.034.322-.052.609-.099.737.083-.081.235-.253.259-.452.032-.266-.036-.754-.098-1.066z"/><path fill="#DE200F" d="M11.14 16.907s-.151.226-.148.388c.002.162.159.262.25.262.376 0 .319-.433.194-.616 0 0 .126-.102.17-.308.046-.205-.136-.364-.136-.364s.216 0 .285-.228c.068-.228-.046-.456-.046-.456s.205-.034.296-.274c.091-.239-.011-.421-.011-.421s.183-.011.308-.217c.125-.205.068-.398.068-.398s.137.023.296-.183c.16-.205.114-.399.114-.399s.16-.011.308-.148c.148-.137.16-.387.16-.387s.148.011.319-.137c.171-.149.16-.296.16-.296s.183.057.387-.08c.205-.137.205-.354.205-.354s.137.08.387-.056c.251-.137.239-.32.239-.32s.148.103.398-.034c.251-.137.262-.262.262-.262s.114.091.342.011c.228-.08.308-.262.308-.262s.08.171.353.103c.274-.068.354-.285.354-.285s.114.194.331.194c.216 0 .399-.16.399-.16s.091.137.308.137c.216 0 .376-.137.376-.137s.068.092.341.114c.274.023.377-.057.377-.057s.101.171.273.216c.17.046.387-.034.387-.034s.057.171.263.251c.204.08.41 0 .41 0s-.012.193.228.273c.239.08.41 0 .41 0s.067.206.284.308c.217.103.377.08.377.08s.012.171.192.296c.183.125.377.114.377.114s0 .206.171.342c.171.137.354.171.354.171s-.08.194.046.342c.125.148.363.25.363.25s-.034.194.069.354c.103.16.308.239.308.239s.012.137.067.308c.058.171.331.273.331.273s-.103.183-.057.354.273.318.273.318-.08.092-.058.274c.023.182.217.376.217.376s-.045.102-.058.376c-.011.273.16.376.16.376s-.113.125-.125.33c-.011.206.171.399.342.387.172-.011.25-.125.229-.33-.023-.205-.195-.411-.195-.411s.149-.159.139-.353c-.014-.194-.263-.433-.263-.433s.102-.057.091-.318c-.012-.262-.239-.353-.239-.353s.079-.068.022-.342c-.057-.273-.262-.341-.262-.341s.057-.148-.034-.377c-.091-.227-.331-.285-.331-.285s0-.183-.079-.387c-.08-.206-.319-.194-.319-.194s.034-.274-.137-.433c-.171-.159-.376-.171-.376-.171s.067-.182-.137-.376c-.205-.194-.388-.114-.388-.114s0-.262-.229-.421c-.227-.16-.364-.091-.364-.091s-.011-.16-.228-.273c-.217-.114-.409-.08-.409-.08s-.012-.193-.251-.285c-.24-.09-.434-.023-.434-.023s0-.17-.262-.262c-.263-.091-.423-.022-.423-.022s-.067-.125-.273-.205c-.205-.08-.444.046-.444.046s-.16-.171-.388-.194c-.228-.023-.364.091-.364.091s-.069-.114-.331-.137c-.262-.022-.376.125-.376.125s-.045-.08-.285-.102c-.239-.023-.432.228-.432.228s-.206-.16-.422-.126-.342.216-.342.216-.125-.091-.365-.034c-.24.058-.341.239-.341.239s-.103-.057-.331.034c-.228.091-.285.331-.285.331s-.148-.103-.421.056c-.273.16-.262.296-.262.296s-.114-.045-.342.08c-.228.125-.194.387-.194.387s-.182-.08-.41.091c-.228.171-.16.376-.16.376s-.273-.012-.399.183c-.125.193-.103.41-.103.41s-.239.023-.353.205c-.114.182-.046.399-.046.399s-.216 0-.33.216c-.114.217-.045.41-.045.41s-.216.057-.297.296c-.079.239.012.399.012.399s-.251.068-.307.296c-.057.228.045.421.045.421s-.148.091-.193.319c-.043.231.105.379.105.379z"/><path fill="#FFE301" d="M11.14 17.17s.117.096.251 0c0 0 .091.325-.148.285-.208-.036-.103-.285-.103-.285zm.068-.621s.051.048.128.054c.077.006.142-.023.142-.023s.006.086-.028.166c-.034.08-.088.168-.19.134-.103-.034-.094-.168-.083-.225.012-.058.031-.106.031-.106zm.18-.738s.068.057.134.063c.065.005.145-.012.145-.012s-.008.094-.049.177c-.04.082-.114.136-.196.117-.083-.02-.083-.131-.08-.197.003-.065.046-.148.046-.148zm.26-.692s.045.059.105.077c.06.017.151.02.151.02s-.023.108-.06.163c-.037.054-.117.125-.194.091s-.085-.128-.068-.21c.017-.085.066-.141.066-.141zm.338-.664s.042.069.114.088c.071.019.148.019.148.019s-.031.083-.077.149c-.046.066-.129.103-.214.071-.069-.025-.074-.134-.051-.199.023-.066.08-.128.08-.128zm.408-.632s.031.069.085.105c.068.045.148.051.148.051s-.094.12-.137.154c-.042.035-.168.094-.231-.011-.048-.081 0-.165.031-.205.032-.04.104-.094.104-.094zm.441-.601s.022.083.082.119c.06.038.146.051.146.051s-.093.231-.26.206c-.168-.026-.125-.18-.091-.24.035-.06.123-.136.123-.136zm.524-.502s.04.087.077.117c.049.04.129.071.129.071s-.102.142-.22.163c-.114.02-.191-.06-.185-.148.007-.114.199-.203.199-.203zm.578-.473s.021.086.066.125c.046.04.133.085.133.085s-.108.151-.236.151-.168-.054-.168-.125c0-.071.049-.14.086-.165.036-.026.119-.071.119-.071zm.63-.412s.008.096.054.157c.032.041.123.082.123.082s-.106.13-.236.13c-.131 0-.171-.065-.171-.143 0-.077.06-.136.103-.167.041-.031.127-.059.127-.059zm.664-.329s-.005.103.026.151.117.105.117.105-.105.074-.191.086c-.084.011-.159-.003-.184-.1-.025-.097.043-.162.083-.188.038-.025.149-.054.149-.054zm.672-.298s-.003.094.043.176c.03.054.085.106.085.106s-.082.077-.225.068c-.139-.008-.164-.122-.142-.2.034-.122.239-.15.239-.15zm.746-.183s-.031.117-.003.185c.029.068.085.111.085.111s-.102.057-.217.057c-.113 0-.194-.079-.17-.194.034-.164.305-.159.305-.159zm.726-.065s-.022.083-.02.131c.005.103.062.157.062.157s-.099.052-.216.023c-.117-.029-.157-.065-.154-.163.003-.096.1-.14.168-.153.069-.015.16.005.16.005zm.436.125c-.005-.06.088-.156.276-.154-.003.005-.014.105.003.157.017.051-.279-.003-.279-.003zm.724-.017c.048-.105.265-.111.342-.068 0 0-.061.122-.031.188.028.065-.311-.12-.311-.12zm1.082.071s-.08.057-.091.122c-.012.065.022.163.022.163s-.113-.009-.197-.041c-.082-.031-.137-.116-.116-.21.017-.077.105-.103.186-.106.079-.002.196.072.196.072zm.693.242s-.046.017-.073.102c-.029.086-.007.168-.007.168-.086-.017-.15-.04-.223-.1-.068-.058-.076-.123-.042-.197.034-.073.119-.071.194-.06.073.013.151.087.151.087zm.327.225c.045-.08.231-.042.285 0 .054.043.068.08.068.08s-.062.014-.092.08c-.028.066-.008.16-.008.16s-.085-.024-.16-.072c-.074-.048-.156-.133-.093-.248zm.649.356c.048-.102.18-.083.245-.04.065.043.107.105.107.105s-.067.02-.099.08c-.031.06-.034.165-.034.165s-.1-.031-.168-.094c-.067-.062-.085-.141-.051-.216zm.621.368c.06-.074.149-.057.214-.006.065.051.107.149.107.149s-.067.017-.104.062c-.037.045-.037.136-.037.136s-.085-.025-.154-.105c-.068-.079-.071-.18-.026-.236zm.546.473c.067-.076.17-.042.221.008.051.052.103.174.103.174s-.094.006-.128.045c-.034.04-.057.137-.057.137s-.058-.034-.115-.12c-.057-.085-.077-.181-.024-.244zm.527.518c.075-.071.198-.003.231.04.048.062.062.154.062.154s-.065.011-.106.04c-.039.029-.079.123-.079.123s-.066-.034-.109-.111c-.041-.078-.066-.18.001-.246zm.556.621c.157-.006.24.188.24.188s-.159-.003-.215.125c-.054.128-.067-.173-.067-.211 0-.036.042-.102.042-.102zm.262.587c.094-.075.192-.02.229.04.037.06.071.186.071.186s-.097.008-.156.042c-.06.034-.108.106-.108.106s-.049-.062-.086-.171c-.037-.109.008-.17.05-.203zm.334.649c.093-.056.171.023.211.069.04.045.066.168.066.168s-.104.002-.149.031c-.045.028-.104.119-.104.119s-.055-.094-.078-.171c-.023-.076-.012-.176.054-.216zm.268.653c.1-.042.178.054.191.126.011.071.019.177.019.177s-.048-.023-.134 0c-.089.024-.125.065-.125.065s-.046-.08-.058-.168c-.01-.09.008-.158.107-.2zm.16.732c.139-.035.185.077.188.17.002.097-.003.143-.003.143s-.062-.02-.135 0c-.071.02-.113.08-.113.08s-.04-.092-.055-.18c-.013-.088.012-.187.118-.213zm.05.709c.101-.026.198.074.203.154.006.079.003.17.003.17s-.068-.025-.131-.014c-.062.012-.142.078-.142.078s-.026-.083-.037-.163c-.011-.079-.005-.197.104-.225z"/><path fill="#FFB636" d="M22.876 13.569c.265-.076.273.205.331.33.056.125-.069.513-.195.649 0 0-.079-.045-.056-.182.021-.137-.263-.421-.274-.547-.012-.125.114-.227.194-.25z"/><path fill="#207900" d="M19.07 12.327s.319-.09.319-.592-.718-.82-1.094-.627l.125.274s-.012-.023.205-.023.463.164.514.399c.068.318-.069.569-.069.569z"/><path fill="#103800" d="M19.036 12.354l.02-.036c.001-.002.133-.25.067-.558-.052-.238-.298-.385-.497-.385-.165 0-.19.014-.192.015.003-.002.006-.009.003-.017l-.031.015-.004-.009-.129-.279.015-.007c.201-.105.508-.069.762.085.227.139.357.342.357.557 0 .509-.329.608-.332.609l-.039.01zm-.41-1.013c.212 0 .476.158.53.413.053.25-.016.456-.052.54.083-.042.268-.177.268-.56 0-.203-.124-.395-.34-.527-.234-.143-.524-.178-.714-.092l.11.241c.024-.008.077-.015.198-.015z"/><path fill="#207900" d="M17.623 11.21s.251-.228.559-.228c.308 0 .524.354.524.593s-.08.775-.604.775c0 0 .296-.205.296-.604 0-.398-.24-.581-.388-.581-.148 0-.387.045-.387.045z"/><path fill="#103800" d="M18.102 12.367h-.055l.045-.031c.003-.002.289-.205.289-.59 0-.398-.241-.563-.371-.563-.145 0-.382.044-.384.045l-.06.012.044-.041c.011-.009.26-.232.57-.232.326 0 .542.367.542.61.001.131-.029.79-.62.79zm-.091-1.219c.17 0 .405.208.405.598 0 .313-.181.512-.264.585.51-.036.537-.633.537-.756 0-.232-.213-.576-.507-.576-.217 0-.407.118-.495.183.082-.014.222-.034.324-.034z"/><path fill="#207900" d="M23.617 13.729s-.104.41.034.729c.137.319.397 1.196-.126 1.526 0 0 .068-.41.058-.74-.012-.33-.217-.684-.229-.98-.01-.296.263-.535.263-.535z"/><path fill="#103800" d="M23.502 16.019l.007-.038c0-.004.067-.412.058-.737-.007-.168-.063-.344-.119-.514-.054-.165-.104-.321-.109-.467-.012-.3.257-.539.268-.548l.042-.036-.014.053c-.001.004-.101.408.033.718.184.428.362 1.236-.133 1.548l-.033.021zm.087-2.238c-.074.079-.226.267-.218.482.006.141.056.294.109.457.056.172.113.351.119.523.009.269-.035.594-.052.705.547-.394.107-1.438.088-1.483-.109-.255-.07-.56-.046-.684z"/><path fill="#207900" d="M24.118 14.833s-.026.35-.012.627c.024.433.718 1.003.502 1.641 0 0-.104-.376-.239-.638-.138-.262-.422-.775-.41-1.048.011-.274.159-.582.159-.582z"/><path fill="#103800" d="M24.606 17.16l-.015-.054c-.001-.003-.104-.377-.238-.635l-.033-.063c-.146-.275-.39-.737-.378-.994.011-.274.154-.575.16-.588l.039-.082-.007.09c0 .003-.025.352-.012.625.009.162.117.349.232.547.189.328.404.7.27 1.1l-.018.054zm-.511-2.23c-.044.111-.111.307-.119.485-.01.248.231.704.375.977l.033.063c.104.201.19.47.225.585.095-.366-.105-.711-.283-1.017-.116-.202-.227-.393-.235-.562-.012-.186-.003-.406.004-.531z"/><path fill="#207900" d="M24.778 18.035s.388.501.365.89c-.023.388-.273.818-.16 1.15 0 0-.251-.309-.159-.844.092-.535-.046-1.196-.046-1.196z"/><path fill="#103800" d="M25.03 20.159l-.061-.073c-.01-.013-.255-.32-.162-.857.09-.526-.045-1.183-.046-1.19l-.016-.073.046.059c.016.021.392.511.368.901-.009.153-.053.314-.096.471-.067.245-.132.477-.064.673l.031.089zm-.221-2.052c.033.189.105.701.032 1.127-.062.361.036.619.103.745-.025-.182.03-.382.088-.593.043-.153.087-.312.096-.463.016-.298-.219-.672-.319-.816z"/><path fill="#207900" d="M24.722 17.979s.269.466.262.764c-.011.488-.307 1.012-.41 1.332-.103.319-.147.889-.147.889s-.114-.354-.091-.662c.022-.307.319-.967.376-1.469.055-.502.01-.854.01-.854z"/><path fill="#103800" d="M24.437 21.051l-.027-.082c-.001-.003-.114-.36-.091-.668.01-.144.077-.356.155-.603.089-.28.19-.598.221-.867.055-.493.011-.846.011-.85l-.011-.084.042.073c.012.02.272.474.264.773-.007.353-.162.723-.287 1.021-.049.116-.094.226-.123.315-.102.314-.146.88-.147.885l-.007.087zm.309-2.99c.01.134.021.418-.019.774-.03.272-.132.592-.221.873-.078.245-.145.456-.155.595-.016.21.034.444.065.567.018-.175.062-.56.14-.8.03-.092.076-.202.125-.318.123-.296.277-.663.284-1.009.007-.221-.145-.54-.219-.682z"/><path fill="#207900" d="M10.935 18.126s0 .558.023.787c.023.227.513.981.581 1.354.068.377-.217.776-.217.776s.034-.434 0-.661c-.034-.228-.558-1.024-.547-1.435.012-.41.16-.821.16-.821z"/><path fill="#103800" d="M11.3 21.104l.005-.062c0-.005.034-.435 0-.657-.012-.084-.095-.251-.191-.445-.162-.327-.363-.733-.356-.994.011-.409.159-.822.16-.826l.033-.092v.098c0 .005 0 .56.023.785.01.103.124.326.244.562.141.276.3.589.336.791.068.38-.208.772-.219.789l-.035.051zm-.382-2.87c-.044.146-.118.432-.125.714-.007.251.192.654.352.977.097.197.181.366.195.455.026.176.013.468.004.599.073-.122.229-.424.179-.708-.036-.197-.194-.508-.333-.781-.127-.25-.237-.466-.248-.575-.018-.166-.023-.507-.024-.681z"/><path fill="#207900" d="M11.003 20.701s.171-.148.16-.386c-.012-.24-.137-.595-.251-.89-.114-.298-.159-.753-.103-.912.058-.16.125-.388.125-.388s-.307.342-.341.662c-.035.318.039.812.216 1.139.229.423.194.775.194.775z"/><path fill="#103800" d="M10.982 20.742l.004-.043c0-.003.031-.353-.192-.765-.185-.343-.25-.848-.218-1.148.035-.321.333-.657.346-.671l.051-.057-.021.073c-.001.002-.069.23-.126.389-.052.147-.015.591.103.9.111.288.24.649.252.895.012.244-.158.394-.166.399l-.033.028zm-.089-2.538c-.089.114-.258.358-.283.586-.032.296.032.792.214 1.129.181.334.199.629.198.738.047-.054.132-.176.124-.341-.012-.24-.14-.599-.25-.885-.11-.289-.163-.755-.103-.923.036-.098.075-.223.1-.304z"/></svg>