<svg xmlns="http://www.w3.org/2000/svg" viewBox="0 0 36 36"><path fill="#00AFCA" d="M36 27c0 2.209-1.791 4-4 4H4c-2.209 0-4-1.791-4-4V9c0-2.209 1.791-4 4-4h28c2.209 0 4 1.791 4 4v18z"/><g fill="#FFCC4D"><circle cx="19.035" cy="16.513" r="2.865"/><path d="M19.037 13.432c.17-.002.232-.109.232-.236 0-.17-.232-1.496-.232-1.496s-.236 1.326-.236 1.496c0 .127.064.236.236.236zm0 6.178c-.172.001-.236.108-.236.235 0 .171.236 1.479.236 1.479s.232-1.309.232-1.479c.001-.126-.062-.235-.232-.235zm-.801-.121c-.165-.042-.252.045-.285.168-.044.164-.163 1.506-.163 1.506s.571-1.221.615-1.385c.034-.123-.001-.245-.167-.289zm1.6-5.968c.166.044.256-.044.289-.166.044-.165.154-1.49.154-1.49s-.562 1.203-.607 1.369c-.033.122-.001.243.164.287zm-2.343 5.658c-.149-.083-.256-.022-.319.089-.085.147-.547 1.412-.547 1.412s.867-1.031.952-1.178c.064-.111.063-.237-.086-.323zm3.089-5.351c.149.086.259.024.322-.086.086-.148.535-1.398.535-1.398s-.856 1.017-.942 1.164c-.062.11-.062.235.085.32zm-3.727 4.862c-.122-.119-.241-.088-.331.002-.12.121-.894 1.223-.894 1.223s1.105-.772 1.225-.891c.09-.09.122-.214 0-.334zm4.369-4.37c.122.121.243.09.333 0 .121-.12.879-1.213.879-1.213s-1.089.762-1.209.883c-.09.09-.123.21-.003.33zm-4.857 3.731c-.087-.146-.21-.146-.321-.083-.148.085-1.18.949-1.18.949s1.267-.458 1.414-.543c.111-.064.173-.174.087-.323zm5.35-3.089c.087.149.213.15.322.087.148-.086 1.163-.944 1.163-.944s-1.249.453-1.397.538c-.11.064-.172.171-.088.319zm-5.657 2.346c-.046-.164-.166-.196-.289-.164-.164.044-1.385.612-1.385.612s1.342-.115 1.506-.159c.123-.034.212-.123.168-.289zm5.966-1.6c.046.166.166.2.289.167.165-.044 1.368-.61 1.368-.61s-1.324.114-1.49.158c-.122.032-.211.121-.167.285zm-6.071.803c-.002-.17-.109-.232-.236-.232-.17 0-1.496.232-1.496.232s1.326.236 1.496.236c.127 0 .236-.064.236-.236zm6.178 0c.001.172.108.236.235.236.171 0 1.479-.236 1.479-.236s-1.309-.232-1.479-.232c-.127-.001-.235.062-.235.232zm-6.073-.797c.042-.165-.045-.252-.168-.285-.164-.044-1.506-.163-1.506-.163s1.221.571 1.385.615c.123.033.245-.001.289-.167zm5.967 1.599c-.044.166.044.256.166.289.165.044 1.49.154 1.49.154s-1.203-.563-1.369-.607c-.122-.032-.243-.001-.287.164zm-5.659-2.342c.083-.148.022-.256-.089-.319-.147-.085-1.412-.547-1.412-.547s1.031.867 1.178.952c.111.064.237.062.323-.086zm5.351 3.089c-.086.149-.024.259.086.322.147.086 1.398.535 1.398.535s-1.017-.855-1.164-.941c-.11-.063-.235-.063-.32.084zm-4.862-3.727c.119-.122.088-.241-.002-.331-.121-.12-1.223-.894-1.223-.894s.772 1.105.891 1.225c.09.09.213.122.334 0zm4.37 4.369c-.121.122-.09.244 0 .333.12.121 1.213.879 1.213.879s-.762-1.089-.883-1.21c-.09-.09-.21-.123-.33-.002zm-3.73-4.858c.145-.087.146-.21.083-.321-.085-.147-.949-1.18-.949-1.18s.458 1.267.543 1.414c.063.111.174.173.323.087zm3.089 5.351c-.148.086-.15.211-.087.321.086.148.944 1.163.944 1.163s-.453-1.25-.538-1.398c-.064-.109-.172-.172-.319-.086zm-2.347-5.658c.164-.046.196-.166.164-.289-.044-.164-.612-1.385-.612-1.385s.115 1.342.159 1.506c.033.123.123.212.289.168zm1.6 5.967c-.166.046-.2.166-.167.289.044.165.61 1.368.61 1.368s-.114-1.325-.158-1.489c-.032-.123-.121-.212-.285-.168z"/></g><g fill="#FFCC4D"><path d="M21.846 23.645l-.037.016-.041.006-.031.006-.057-.012-.025-.01-.023-.011-.027-.017-.045-.032-.041-.033-.023-.016-.029-.012-.02-.005h-.029l-.113.235-.023.033-.022.027-.023.017-.02.017-.029.011h-.027l-.025-.011-.035-.017-.01-.017-.012-.017-.012-.022-.012-.026-.016-.083-.033.027-.031.039-.062.094-.037.049-.039.038-.021.023-.027.017-.027.012-.033.01h-.016l-.029.006-.027-.006-.021-.01-.064-.077-.072-.077-.049.077-.057.065-.027.027-.025.027-.027.022-.051.028-.027.006h-.027l-.023-.006-.022-.012-.016-.017-.021-.026c-.014-.041-.029-.081-.045-.121l-.006-.028-.01-.021-.012-.011h-.012l-.148.242-.021.021-.039.017-.086.021h-.051l-.039-.011-.012-.006-.016-.017-.004-.01v-.022l.02-.242-.016.006-.043.021c-.039.041-.078.083-.115.126l-.049.061-.061.051-.057.043-.032.018-.066.01-.027-.006-.012-.004-.011-.012-.006-.017V24.1l.006-.07.017-.111-.011-.065-.023-.038-.033.049-.054.071c-.045.049-.091.097-.138.144-.026.017-.052.036-.077.055l-.06.021-.012-.006h-.017l-.012-.01-.004-.006-.012-.017-.004-.017v-.021l-.006-.028.006-.208c-.1.068-.201.134-.303.197l-.038.017-.043.022c-.041.01-.081.02-.121.032h-.04l-.037-.005-.034-.012.017-.044.033-.077.021-.032.024-.033.021-.033.056-.055.061-.043.07-.045.072-.033.083-.027.082-.021.187-.033.093-.012c.276-.016.553-.018.829-.016l.303-.017.094-.011.174-.033.084-.023.078-.032.072-.033c.038-.03.077-.06.117-.088l.053-.062-.057-.109.045-.006.043-.01.045-.022.037-.028.016-.01.018-.017.012-.022.012-.016.004-.022v-.038l-.012-.022.094-.017.1-.011.105-.006h.109c.153.006.305.015.457.027.23.028.461.05.692.072l.207.011v.076l-.004.034-.012.032-.01.033-.012.027-.016.022c-.019.022-.04.044-.061.065l-.049.032-.053.022-.053.012-.061.011-.117-.011-.061-.017-.053-.028-.057-.027-.043-.039-.043-.043v.094c-.008.061-.018.121-.027.182l-.021.057-.012.023-.016.016-.012.017-.014.01m-4.418-.517l.125.055c.025-.021.051-.041.077-.06l.049-.026.044-.028.165-.066.142-.066.072-.027.122-.065.049-.034c.124-.081.249-.161.374-.24l.109-.077.083-.066c.082-.074.162-.149.242-.225l.033-.022.038-.022c.046-.023.091-.045.138-.066l.093-.032c.186-.051.375-.091.565-.121.194-.023.388-.049.582-.071l.258-.044c.064-.018.128-.034.193-.049l.066-.083.106-.115.072-.071.08-.067.094-.071.109-.072.166-.098c.119-.06.237-.12.355-.182.21-.098.417-.202.623-.308l.098-.066.027-.083.039-.081.049-.083.127-.17c.058-.062.114-.124.17-.188.068-.066.138-.13.209-.192l.106-.087.053-.039.057-.038c.04-.023.08-.045.121-.066l.061-.028.059-.021.129-.034.064-.004.061-.006.064.006.061.01-.004.066-.016.065-.049.138-.041.071-.049.072-.06.076-.072.077.057-.006.049-.011.039-.012.037-.016.072-.022.103-.011.006.039v.038l-.006.038-.01.033-.016.033-.023.033-.021.026-.027.028c-.076.073-.152.144-.231.214l.065.006c.048.015.096.03.145.043l.053.012-.064.05c-.051.034-.102.067-.154.099l-.176.099-.088.055-.088.061-.082.066.037.005.051.022.022.006.021.011.018.005.016-.005-.109.061c-.068.032-.136.065-.203.099l-.084.05-.016.017-.01.017-.012.016.004.022.012.017.021.016.02.018-.008.021-.012.018-.021.016-.02.017-.053.026-.064.028-.125.044-.078.039.109.109-.039.038-.037.028-.033.017-.039.016-.076.011h-.108l.012.05.016.049.023.111c-.068.053-.138.104-.209.153l-.127.082-.141.082-.084.039-.082.038c-.093.036-.186.069-.281.099l-.213.045-.117.017c.127.004.254.006.381.005l.312-.033.137-.027.121-.033c.08-.027.158-.057.236-.088l.152-.07.15-.083.141-.089.15-.087-.09-.044-.086-.027-.041-.019c-.031-.015-.062-.03-.094-.043l-.051-.028.043-.032.053-.022.057-.021c.066-.016.133-.031.199-.045.086-.009.172-.02.258-.032l.109-.011.084-.021.022-.012.016-.017-.004-.006-.012-.011-.016-.006-.021-.01-.061-.012-.078-.011-.076-.006-.076-.011-.068-.017-.041-.017.537-.12.094-.028c.041-.015.081-.032.121-.049l.053-.034.023-.021-.006-.005-.01-.012-.051-.011-.07-.006h-.084c-.057-.004-.113-.008-.17-.01l-.07-.012-.045-.011.078-.032c.116-.036.234-.069.352-.1.067-.023.135-.046.203-.066l.104-.044.049-.027.045-.027.016-.017.017-.022.016-.016.006-.017-.006-.017-.016-.012-.017-.004h-.152l-.072.004h-.098l-.029-.004-.019-.012-.024-.011c.2-.132.402-.263.605-.391l.158-.11c.043-.035.084-.072.125-.109l.049-.055.045-.055.033-.06.027-.06.016-.067v-.071h-.037l-.039.006-.086.032c-.076.048-.154.094-.232.138l-.043.028-.051.021-.049.017-.045.011-.043.006H24.5l-.043-.017.133-.099c.107-.091.213-.183.318-.275.116-.111.229-.224.34-.341l.158-.176c.047-.062.095-.122.144-.182.039-.056.078-.113.115-.17l.012-.021.004-.017-.004-.023-.006-.016-.006-.018-.016-.011-.017-.017-.016-.006-.021-.01-.024-.006h-.043l-.021.006-.029.004-.016.018-.023.017c-.112.112-.223.226-.332.341l-.133.126c-.087.076-.175.151-.264.226-.042.028-.084.056-.127.082l-.121.061.037-.033c.04-.038.079-.076.117-.115.141-.162.276-.33.406-.5l.254-.357.068-.12.068-.11.055-.1.043-.094.027-.076.006-.027v-.044l-.006-.017-.02-.033-.012-.011-.018-.005-.031-.018-.041-.011h-.075l-.021.006-.016.005-.023.012-.016.016-.045.039c-.049.059-.097.12-.143.182-.11.172-.226.34-.346.505l-.139.165-.07.072-.076.066.098-.183.154-.323.1-.236.043-.121.076-.248c.019-.08.036-.16.051-.241.007-.075.013-.15.018-.226l-.008-.055-.004-.049-.006-.051-.016-.064-.012-.018-.027-.027-.037-.016-.041-.012h-.037l-.035.006-.01.006-.016.004-.006.012c-.099.312-.174.63-.26.945-.032.088-.064.176-.098.264l-.082.159-.051.071.033-.158c.016-.092.03-.183.043-.275l.023-.226.006-.094c-.003-.048-.007-.095-.012-.143l-.01-.055-.016-.044-.023-.033-.012-.011-.033-.011-.016-.006h-.018l-.016.006-.045.011-.043.022c-.034.17-.075.339-.121.506-.065.211-.143.418-.23.62-.059.124-.122.247-.188.368l-.121.209-.131.197c-.088.123-.179.244-.273.362-.092.104-.186.206-.281.308-.099.097-.2.193-.303.287-.106.088-.213.173-.322.257-.133.096-.269.188-.408.275l-.242.142-.385.177-.396.142-.328.1-.34.076-.17.028-.348.044-.176.011-.017.006-.017.005-.033.018-.037.026c-.043.037-.085.076-.127.115l-.088.089-.319.356-.121.121-.142.109-.056.038-.055.034-.12.055c-.186.076-.375.145-.562.22l-.049.027-.044.023-.032.021-.061.061-.017.027-.012.027-.004.039v.028"/><path d="M19.441 23.375l.092.012.045.017.01.005v.006h-.01l-.012.005-.088.017h-.07l-.23-.017-.583-.011c-.154.002-.308.006-.462.011-.136.01-.271.021-.407.033l-.105.017-.093.021c-.022.008-.043.016-.065.022l-.028.012-.022.017.01-.056.024-.056-.077.022-.066.033-.026.017-.023.022-.017.026-.004.028-.016-.038-.012-.034c-.003-.024-.007-.048-.012-.071.006-.029.012-.058.016-.087l.018-.028.01-.022.023-.026.044-.044.06-.039.068-.038c.035.021.074.037.114.049.035.005.076-.001.117-.011.061.054.219.043.241-.055.009-.032.008-.073 0-.11l.066-.005.077-.012.17-.044.089-.017.082-.021.077-.011.065-.006-.027.023-.143.109-.054.038.07.018.061.011-.13.148-.034.044.043.017.044.012.05.011h.099l.098-.022.039-.023.045.023.044.017c.028.008.057.016.086.022.068.007.136.015.205.021h.414m-.501-1.672l-.049.099-.056.127c-.029.052-.056.105-.081.158l-.028.028-.065-.055-.072-.05-.077-.039-.081-.032-.177-.045-.087-.016c-.095-.011-.19-.02-.286-.027-.127-.002-.253-.008-.379-.018l-.176-.021-.099-.017-.093-.021-.098-.034-.083-.043-.061-.04-.126-.093c-.184-.173-.366-.348-.555-.517l-.109-.076-.05-.022-.052-.016-.093-.021c-.054-.019-.109-.038-.164-.055-.051-.025-.103-.048-.155-.071-.091-.056-.178-.117-.263-.182l-.055-.051-.109-.109-.105-.115c-.173-.211-.336-.429-.505-.643-.081-.086-.163-.17-.247-.253l-.071-.065-.072-.06-.158-.115-.016.005-.018.017-.017.022c-.01.025-.018.051-.026.077l-.006.022-.04-.018-.033-.017-.04-.017-.033-.011h-.071l-.039.011-.038.017c.03.038.059.076.087.115l.049.077.089.17.032.083.012.044.012.033.005.038v.032h-.296l.043.066c.033.045.068.089.103.132l.182.182.061.049.056.039c-.048.005-.095.009-.143.012l-.144.016.049.045c.043.03.085.061.127.093l.071.049.072.044.071.039.066.022.061.016.049.011.016.006.012.012.004.005v.021l-.016.045-.004.032-.007.022v.016l.007.028.004.022.012.01.016.012.021.011.028.006.056.022.027.01.022.017.005.006v.011l-.005.006-.044.032-.022.022-.022.027v.023l-.005.022.011.059.192.066.044.01.044.018.033.017.028.017-.182.143.049.044.061.033.077.038c.055.02.11.038.166.056l.082.016.072.017h.065l-.061.044-.077.049-.082.045-.061.044.055.038c.167.086.338.166.512.237.304.124.615.232.928.329.07.017.139.035.208.055l.088.017-.177-.017c-.11-.014-.219-.031-.329-.05l-.154-.033-.303-.087-.142-.05c-.38-.148-.751-.318-1.132-.462l.028-.016.077-.028.049-.011c.067-.02.132-.042.198-.066-.131-.02-.261-.043-.391-.07-.067-.022-.135-.042-.203-.061l-.039-.017-.033-.017-.027-.018-.018-.016v-.005l.006-.006.017-.006.016-.011.044-.017.192-.056.111-.038c-.159-.03-.319-.057-.479-.082l-.077-.018-.061-.021-.022-.012-.021-.017-.018-.01-.011-.018.017-.011.049-.011c.051-.008.103-.017.154-.027l.088-.011c.05-.014.099-.029.148-.045l.023-.016.022-.018-.087-.033-.056-.01-.055-.012-.252-.033-.066-.016-.061-.012-.121-.043-.056-.028-.045-.032-.044-.039-.033-.049.012-.006.021-.006h.028l.044.006.209.011.122.012h.153l.043-.006.034-.011.022-.012c-.103-.042-.206-.086-.308-.132-.067-.034-.135-.067-.204-.099l-.208-.109-.099-.061c-.061-.043-.121-.087-.181-.132l-.077-.066-.034-.038-.034-.033-.021-.033-.023-.039-.022-.032-.012-.038-.009-.071h.037l.044.005.044.018.044.016.087.055.099.055.044.028.049.026.049.022.044.017.049.012.044.005h.05l.043-.017-.13-.1c-.108-.089-.214-.181-.319-.273-.174-.166-.341-.338-.501-.518l-.07-.093-.072-.088c-.039-.056-.078-.113-.116-.171l-.01-.022v-.038l.005-.017.005-.016.017-.011.016-.017.018-.012.021-.006.022-.004h.044l.027.004.024.006.021.017c.119.118.236.237.351.358.127.122.259.24.396.352l.126.081.065.034.061.021-.043-.027-.115-.115c-.141-.162-.275-.33-.407-.5-.058-.08-.115-.16-.171-.242-.05-.08-.101-.158-.154-.236-.042-.069-.082-.138-.121-.209-.022-.057-.046-.114-.07-.17l-.007-.027v-.045l.007-.016.021-.033.012-.012.017-.01.071-.023h.077l.022.005.016.006.022.012.061.055.143.182c.112.172.23.34.352.505l.13.165.072.071.077.066c-.087-.166-.172-.334-.252-.504-.034-.078-.067-.157-.099-.236l-.044-.121c-.023-.083-.049-.166-.077-.248l-.027-.121-.02-.123-.012-.115-.005-.109.005-.055.007-.05.005-.05.011-.049.011-.018.006-.016.016-.018.011-.01.038-.017.039-.01h.038l.033.006.016.004.012.006.006.012.006.016c.094.307.171.619.252.93.032.087.065.173.1.258l.038.082.044.077.049.077-.032-.16c-.013-.092-.027-.183-.044-.273-.011-.106-.02-.213-.027-.319l.011-.143.011-.056.017-.043.022-.033.011-.012.016-.011.016-.005h.05l.045.016.043.022.077.346c.028.105.059.21.093.313.056.157.117.313.182.467l.077.159.11.21.12.208.133.198.142.197.133.165c.092.104.185.207.28.308.099.097.2.192.303.285l.159.133c.146.114.296.222.451.324.121.072.244.142.368.209l.378.182c.192.076.386.146.582.208.192.051.387.095.583.132.263.042.533.067.804.078"/></g><g fill="#FFCC4D"><path d="M3.457 28.522s-.237.197-.317.098c-.129-.16.397-.959.397-1.241 0-.461-.309-.589-.689-.654-.256-.044-.671.019-.671.019.078.105.129.138.261.144-.147.078-.296.243-.296.501 0 .396.164.56.164 1.009 0 .249-.204.565-.204.565.36-.036.54-.369.438-.637.058-.008.109.004.154.047.026-.073-.015-.16-.071-.233.045-.023.078-.009.149.005-.007-.076-.053-.156-.164-.232.324.083.523-.142.523-.378 0-.18-.125-.308-.248-.308-.04 0-.098.017-.131.041-.023-.048-.011-.114.012-.163-.089.023-.146.076-.105.188-.069.005-.124.029-.161.074.038.047.095.075.161.072-.05.104.006.163.087.209 0 0-.052-.209.081-.209.06 0 .114.021.114.108 0 .075-.067.181-.221.175-.155-.007-.28-.107-.28-.352 0-.229.183-.342.424-.349.218-.007.382.111.382.336 0 .298-.432.98-.432 1.246 0 .2.179.311.355.311.228 0 .42-.226.42-.226l-.132-.166zm-.05-5.402c0-.498.448-.755.8-.755.474 0 .727.284.727.654 0 .212-.039.344-.136.545l-1.087 2.257c-.038.079-.051.169-.051.3 0 .202.197.368.403.373.187.005.392-.175.392-.38 0-.249-.128-.359-.261-.359-.163 0-.228.066-.228.181 0 .081.039.115.094.115.14 0 .101-.188.101-.188.069.016.125.086.094.176.051.011.098.037.135.079-.037.037-.081.065-.135.074.033.108-.011.161-.105.184.019-.043.019-.08.013-.116-.149.042-.377-.024-.377-.282 0-.256.177-.471.51-.418-.08-.036-.119-.113-.127-.201.06.025.127.028.127.028-.039-.068-.093-.127-.091-.263.062.029.119.08.198.047-.124-.243.028-.577.416-.658-.142.165-.211.345-.211.524 0 .58.162.676.162 1.078 0 .168-.087.351-.258.474v-.007c.112.03.185.087.227.162-.259.073-.636.072-.837-.007-.233-.026-.395-.205-.443-.295-.048-.092-.141-.418 0-.714.154-.321.88-1.86 1.106-2.345.048-.102.077-.212.077-.33 0-.295-.271-.399-.425-.399-.185 0-.373.142-.373.316 0 .112.061.178.147.178.209 0 .196-.177.154-.289.129.06.205.162.184.272.074.01.144.045.208.117-.051.066-.113.114-.208.115.042.17-.072.242-.184.281.035-.124.058-.269-.154-.269-.155 0-.277-.027-.348-.128-.005.135-.018.665-.018.665-.008.2.267.194.442.135-.067.23-.202.355-.517.323.077.032.158.104.158.241 0 .188-.152.395-.251.457l-.05-1.948z"/><path d="M3.506 23.12c0-.498-.448-.755-.8-.755-.474 0-.727.284-.727.654 0 .212.039.344.136.545l1.087 2.257c.038.079.05.169.05.3 0 .202-.197.368-.402.373-.188.005-.392-.175-.392-.38 0-.249.128-.359.261-.359.163 0 .228.066.228.181 0 .081-.039.115-.094.115-.14 0-.101-.188-.101-.188-.069.016-.126.086-.094.176-.051.011-.098.037-.135.079.037.037.081.065.135.074-.032.108.012.161.106.183-.019-.043-.019-.08-.013-.116.149.042.377-.024.377-.282 0-.256-.177-.471-.509-.418.079-.036.119-.113.126-.201-.06.025-.126.028-.126.028.038-.068.092-.127.09-.263-.062.029-.118.08-.198.047.124-.243-.028-.577-.416-.658.142.165.211.345.211.524 0 .58-.161.676-.161 1.078 0 .168.087.351.258.474v-.007c-.113.03-.186.087-.227.162.259.073.635.072.837-.007.233-.026.395-.205.443-.295.048-.092.141-.418 0-.714-.154-.321-.88-1.86-1.106-2.345-.048-.102-.077-.212-.077-.33 0-.295.271-.399.425-.399.185 0 .373.142.373.316 0 .112-.061.178-.147.178-.209 0-.196-.177-.155-.289-.129.06-.205.162-.184.272-.073.01-.143.045-.208.117.051.066.113.114.208.115-.042.17.072.242.184.281-.035-.124-.058-.269.155-.269.155 0 .277-.027.348-.128l.018.665c.008.2-.268.194-.443.135.066.229.202.354.516.322-.077.032-.158.104-.158.241 0 .188.151.395.251.457l.05-1.946zm-.049 5.402s.237.197.317.098c.129-.16-.397-.959-.397-1.241 0-.461.309-.589.689-.654.256-.044.672.019.672.019-.079.105-.129.138-.261.144.146.078.296.243.296.501 0 .396-.164.56-.164 1.009 0 .249.204.565.204.565-.36-.036-.54-.369-.438-.637-.057-.008-.108.004-.154.047-.026-.073.016-.16.071-.233-.045-.023-.078-.009-.149.005.007-.076.052-.156.164-.232-.324.083-.523-.142-.523-.378 0-.18.125-.308.248-.308.04 0 .098.017.131.041.023-.048.011-.114-.013-.163.09.023.146.076.106.188.069.005.123.029.161.074-.038.047-.095.075-.161.072.05.104-.006.163-.087.209 0 0 .052-.209-.081-.209-.06 0-.114.021-.114.108 0 .075.067.181.221.175.154-.007.279-.107.279-.352 0-.229-.183-.342-.424-.349-.218-.007-.382.111-.382.336 0 .298.432.98.432 1.246 0 .2-.179.311-.355.311-.228 0-.42-.226-.42-.226l.132-.166zm-.05-14.145c0-.5.448-.756.8-.756.474 0 .727.284.727.655 0 .211-.039.343-.136.544l-1.087 2.258c-.038.079-.051.168-.051.299 0 .203.197.368.403.374.187.004.392-.176.392-.38 0-.248-.128-.359-.261-.359-.163 0-.228.067-.228.182 0 .079.039.114.094.114.14 0 .101-.188.101-.188.069.015.125.086.094.174.051.011.098.038.135.08-.037.037-.081.065-.135.075.033.108-.011.16-.105.183.019-.042.019-.08.013-.116-.149.042-.377-.024-.377-.282 0-.255.177-.47.51-.417-.08-.038-.119-.115-.127-.201.06.024.127.026.127.026-.039-.068-.093-.127-.091-.262.062.028.119.08.198.047-.124-.244.028-.579.416-.658-.142.166-.211.346-.211.524 0 .579.162.676.162 1.079 0 .168-.087.35-.258.474v-.007c.11.03.182.085.225.161-.259.074-.636.072-.837-.007-.233-.027-.395-.205-.443-.295-.048-.091-.141-.418 0-.712.154-.322.88-1.861 1.106-2.346.047-.103.077-.212.077-.33 0-.296-.271-.4-.425-.4-.185 0-.373.141-.373.315 0 .112.061.179.147.179.209 0 .196-.178.154-.289.129.058.205.162.184.272.074.01.144.044.208.118-.051.064-.113.112-.208.114.042.171-.072.243-.184.282.035-.124.058-.268-.154-.268-.155 0-.277-.027-.348-.127-.005.134-.018.665-.018.665-.008.199.267.194.442.134-.065.23-.2.354-.515.322.077.032.158.104.158.242 0 .187-.152.395-.251.456l-.05-1.948z"/><path d="M3.506 14.377c0-.5-.448-.756-.8-.756-.474 0-.727.284-.727.655 0 .211.039.343.136.544l1.087 2.258c.038.079.05.168.05.299 0 .203-.197.368-.402.374-.188.004-.392-.176-.392-.38 0-.248.128-.359.261-.359.163 0 .228.067.228.182 0 .079-.039.114-.094.114-.14 0-.101-.188-.101-.188-.069.015-.126.086-.094.174-.051.011-.098.038-.135.08.037.037.081.065.135.075-.032.108.011.16.105.183-.019-.042-.019-.08-.013-.116.149.042.377-.024.377-.282 0-.255-.177-.47-.509-.417.079-.038.119-.115.126-.201-.06.024-.126.026-.126.026.038-.068.092-.127.09-.262-.062.028-.118.08-.198.047.124-.244-.028-.579-.416-.658.142.166.211.346.211.524 0 .579-.161.676-.161 1.079 0 .168.087.35.258.474v-.007c-.111.03-.184.085-.225.161.259.074.635.072.837-.007.233-.027.395-.205.443-.295.048-.091.141-.418 0-.712-.154-.322-.88-1.861-1.106-2.346-.048-.103-.077-.211-.077-.329 0-.296.271-.4.425-.4.185 0 .373.141.373.315 0 .112-.061.179-.147.179-.209 0-.196-.178-.155-.289-.129.058-.205.162-.184.272-.073.01-.143.044-.208.118.051.064.113.112.208.114-.042.171.072.243.184.282-.035-.124-.058-.268.155-.268.155 0 .277-.027.348-.127l.017.663c.008.199-.268.194-.443.134.066.23.202.354.516.323-.077.032-.158.104-.158.242 0 .187.151.395.251.456l.05-1.948z"/><path d="M3.506 12.879c0 .499-.448.756-.8.756-.474 0-.727-.284-.727-.656 0-.21.039-.342.136-.544l1.087-2.258c.038-.079.05-.168.05-.299 0-.202-.197-.368-.402-.373-.188-.004-.392.175-.392.38 0 .249.128.359.261.359.163 0 .228-.067.228-.182 0-.08-.039-.114-.094-.114-.14 0-.101.188-.101.188-.069-.015-.126-.086-.094-.175-.05-.009-.097-.036-.135-.079.037-.036.081-.064.135-.074-.032-.108.012-.16.106-.183-.019.042-.019.08-.013.116.149-.042.377.026.377.282 0 .255-.177.47-.509.417.079.038.119.115.126.201-.06-.023-.126-.026-.126-.026.038.068.092.127.09.262-.062-.028-.118-.08-.198-.047.124.244-.028.579-.416.659.142-.167.211-.346.211-.525 0-.578-.161-.676-.161-1.078 0-.168.087-.35.258-.474v.007c-.112-.031-.185-.087-.226-.163.259-.073.635-.072.837.008.233.027.395.205.443.296.048.09.141.417 0 .712-.154.322-.88 1.861-1.106 2.345-.048.102-.077.211-.077.329 0 .297.271.4.425.4.185 0 .373-.141.373-.316 0-.111-.061-.179-.147-.179-.209 0-.196.177-.155.289-.129-.058-.205-.162-.184-.272-.073-.01-.143-.045-.208-.118.051-.064.113-.113.208-.114-.042-.17.072-.243.184-.283-.035.125-.058.27.155.27.155 0 .277.026.348.127l.018-.666c.008-.199-.268-.193-.443-.134.066-.23.202-.354.516-.323-.077-.032-.158-.104-.158-.242 0-.187.151-.395.251-.456l.049 1.95zm0 8.744c0 .499-.448.755-.8.755-.474 0-.727-.283-.727-.654 0-.211.039-.344.136-.544l1.087-2.258c.038-.079.05-.168.05-.299 0-.203-.197-.368-.402-.373-.188-.005-.392.175-.392.379 0 .248.128.359.261.359.163 0 .228-.067.228-.182 0-.079-.039-.113-.094-.113-.14 0-.101.188-.101.188-.069-.016-.126-.086-.094-.175-.051-.01-.098-.037-.135-.08.037-.036.081-.065.135-.074-.032-.109.011-.161.105-.184-.019.042-.019.08-.013.116.149-.042.377.025.377.282 0 .255-.177.469-.509.417.079.039.119.115.126.202-.06-.023-.126-.027-.126-.027.038.068.092.128.09.262-.062-.028-.118-.08-.198-.047.124.243-.028.58-.416.658.142-.165.211-.346.211-.524 0-.577-.161-.676-.161-1.078 0-.169.087-.351.258-.474v.006c-.111-.029-.184-.084-.225-.161.259-.073.635-.072.837.008.233.027.395.205.443.295.048.091.141.417 0 .712-.154.322-.88 1.861-1.106 2.346-.048.102-.077.21-.077.329 0 .296.271.399.425.399.185 0 .373-.141.373-.316 0-.109-.061-.177-.147-.177-.209 0-.196.177-.155.288-.129-.058-.205-.163-.184-.272-.073-.01-.143-.043-.208-.117.051-.063.113-.111.208-.115-.042-.17.072-.241.184-.281-.035.125-.058.269.155.269.155 0 .277.026.348.128l.018-.666c.008-.198-.268-.193-.443-.134.066-.229.202-.353.516-.322-.077-.032-.158-.104-.158-.242 0-.187.151-.394.251-.456l.049 1.947z"/><path d="M3.407 21.623c0 .499.448.755.8.755.474 0 .727-.283.727-.654 0-.211-.039-.344-.136-.544l-1.087-2.258c-.038-.079-.051-.168-.051-.299 0-.203.197-.368.403-.373.187-.005.392.175.392.379 0 .248-.128.359-.261.359-.163 0-.228-.067-.228-.182 0-.079.039-.113.094-.113.14 0 .101.188.101.188.069-.016.125-.086.094-.175.051-.01.098-.037.135-.08-.037-.036-.081-.065-.135-.074.033-.109-.011-.161-.105-.184.019.042.019.08.013.116-.149-.042-.377.025-.377.282 0 .255.177.469.51.417-.08.039-.119.115-.127.202.06-.023.127-.027.127-.027-.039.068-.093.128-.091.262.062-.028.119-.08.198-.047-.124.243.028.58.416.658-.142-.165-.211-.346-.211-.524 0-.577.162-.676.162-1.078 0-.169-.087-.351-.258-.474v.006c.112-.03.185-.085.227-.162-.259-.073-.636-.072-.837.008-.233.027-.395.205-.443.295-.048.091-.141.417 0 .712.154.322.88 1.861 1.106 2.346.048.102.077.21.077.329 0 .296-.271.399-.425.399-.185 0-.373-.141-.373-.316 0-.109.061-.177.147-.177.209 0 .196.177.154.288.129-.058.205-.163.184-.272.074-.01.144-.043.208-.117-.051-.063-.113-.111-.208-.115.042-.17-.072-.241-.184-.281.035.125.058.269-.154.269-.155 0-.277.026-.348.128-.005-.134-.018-.666-.018-.666-.008-.198.267-.193.442-.134-.067-.229-.202-.353-.517-.322.077-.032.158-.104.158-.242 0-.187-.152-.394-.251-.456l-.05 1.948zm.05-14.144s.237-.199.317-.1c.129.161-.397.96-.397 1.242 0 .462.309.587.689.653.256.045.672-.018.672-.018-.08-.105-.13-.136-.262-.144.146-.076.296-.241.296-.499 0-.398-.164-.562-.164-1.01 0-.249.204-.566.204-.566-.36.037-.54.37-.438.637-.057.009-.108-.005-.153-.047-.026.074.016.16.071.234-.045.024-.078.009-.149-.006.007.077.052.157.164.233-.325-.084-.524.142-.524.379 0 .179.125.306.248.306.04 0 .098-.016.131-.041.023.049.011.115-.013.164.09-.023.146-.077.106-.188.069-.007.123-.03.161-.074-.039-.048-.096-.075-.162-.073.05-.104-.006-.162-.087-.208 0 0 .052.208-.081.208-.06 0-.114-.02-.114-.107 0-.076.067-.182.221-.175.154.006.279.106.279.353 0 .227-.183.339-.424.347-.217.006-.381-.112-.381-.336 0-.299.432-.979.432-1.246 0-.2-.179-.312-.355-.312-.228 0-.42.226-.42.226l.133.168z"/><path d="M3.457 7.479s-.237-.199-.317-.1c-.13.162.397.961.397 1.243 0 .462-.309.587-.689.653-.256.044-.671-.019-.671-.019.078-.105.129-.136.261-.144-.147-.076-.297-.241-.297-.499 0-.398.164-.562.164-1.01 0-.249-.204-.566-.204-.566.36.037.54.37.438.637.058.008.109-.005.154-.047.026.074-.015.16-.071.234.044.024.077.009.149-.006-.007.077-.053.157-.164.233.324-.084.523.142.523.379 0 .179-.125.306-.248.306-.04 0-.098-.016-.131-.041-.022.05-.01.115.013.164-.089-.023-.145-.077-.105-.187-.069-.007-.124-.03-.161-.074.038-.048.095-.076.161-.074-.05-.104.006-.162.087-.208 0 0-.052.208.081.208.06 0 .114-.02.114-.107 0-.076-.067-.182-.221-.175-.155.006-.28.106-.28.352 0 .227.183.339.424.347.218.006.382-.111.382-.336 0-.299-.432-.979-.432-1.246 0-.2.179-.312.355-.312.228 0 .42.226.42.226l-.132.169zm-.05 5.4c0 .499.448.756.8.756.474 0 .727-.284.727-.656 0-.21-.039-.342-.136-.544l-1.087-2.258c-.037-.077-.05-.167-.05-.298 0-.202.197-.368.403-.373.187-.004.392.175.392.38 0 .249-.128.359-.261.359-.163 0-.228-.067-.228-.182 0-.08.039-.114.094-.114.14 0 .101.188.101.188.069-.015.125-.086.094-.175.049-.01.097-.037.134-.08-.037-.036-.081-.064-.136-.074.033-.108-.011-.16-.105-.183.019.042.019.08.013.116-.149-.042-.377.025-.377.282 0 .255.177.47.51.417-.08.038-.119.115-.127.201.06-.023.127-.026.127-.026-.039.068-.093.127-.091.262.062-.028.119-.08.198-.047-.124.244.028.579.416.659-.142-.167-.211-.346-.211-.525 0-.578.162-.676.162-1.078 0-.168-.087-.35-.258-.474v.007c.112-.031.185-.087.227-.163-.26-.072-.637-.071-.839.009-.232.026-.395.204-.442.295-.048.09-.141.417 0 .712.154.322.88 1.861 1.106 2.345.047.103.077.212.077.329 0 .297-.271.4-.425.4-.185 0-.373-.141-.373-.316 0-.111.061-.179.147-.179.209 0 .196.177.154.289.129-.058.205-.162.184-.272.074-.01.144-.045.208-.118-.051-.064-.113-.113-.208-.114.042-.17-.072-.243-.184-.283.035.125.058.27-.154.27-.155 0-.277.026-.348.127-.005-.134-.018-.666-.018-.666-.008-.199.267-.193.442-.134-.065-.228-.2-.352-.515-.321.077-.032.158-.104.158-.242 0-.187-.152-.395-.251-.456l-.05 1.948z"/></g></svg>