<svg xmlns="http://www.w3.org/2000/svg" viewBox="0 0 36 36"><path fill="#244AA5" d="M36 27c0 2.209-1.791 4-4 4H4c-2.209 0-4-1.791-4-4V9c0-2.209 1.791-4 4-4h28c2.209 0 4 1.791 4 4v18z"/><path fill="#D0A650" d="M17.013 13.696l.209-.005c.123.128.25.253.376.378-.002.097.038.167.136.196-.087.023-.177.03-.265.04-.037.05-.082.089-.136.117.015.143.146.224.235.321.094.009.198.007.27.079l.206.005.001.268c.085-.009.192.007.217-.1.15-.001.3-.002.451.001.039.083.132.088.206.123l.036.186c.076-.098.148-.223.287-.227.043.06.088.119.133.178.078.006.16.014.195.099l.139.005c0 .167-.012.335.01.501l.082.05c.002.134.002.268 0 .401.084.071.225.136.299.012h.119c.051.074.113.139.189.188.002.131 0 .262.002.392.174.063.062.3.096.441.088.06.158.139.199.239.023-.045.051-.089.076-.133l.301.006c.045.053.09.105.139.158l.082.089c.07.018.139.039.195.087l.178.011c.047.107.168.092.264.112l-.131.098c-.004.219.016.439-.01.657l-.08.045c-.002.111-.021.221-.096.311l.184-.002.008.102h.085c.002-.025.006-.076.01-.102h.16l.006.098c.096.018.234-.035.287.075.246.005.492.003.74.001l.01.131c.039.044.076.088.113.133.082 0 .166 0 .25.002l-.008.146c.076.068.16.129.267.129l.002-.183.162.002.012-.101c.117.007.27-.029.297.127l.096-.143c.078.023.143.075.207.123l.002.133c.135.028.082.174.094.271l-.17.134c0 .138 0 .276-.002.415l-.166.004v.474c-.096.077-.182.163-.27.246v.29c-.065.054-.125.107-.188.16v.122c-.068.061-.145.108-.236.12-.043.051-.086.103-.127.155-.029.009-.088.024-.117.031l.145.086c-.002.19-.004.381-.002.571-.115.097-.266.091-.406.09l-.148.18c-.105-.001-.18.069-.244.142.002.091.004.182.008.272.16.085.223.319.428.311.002.151.029.325-.115.424-.064-.002-.131-.002-.193-.002-.1.144-.318.046-.467.071v-.166l-.139-.004c-.047.055-.094.108-.143.161-.082.011-.15.052-.213.101-.1.007-.199.004-.297.004l-.008.103-.223-.005c-.062.062-.113.135-.119.227l-.154.132c.004.107.006.223-.107.272.023.121-.066.333.106.366l-.006.133c-.232.008-.465.004-.697.005l-.004-.235c-.168-.048-.064-.264-.094-.389l-.1-.006.002-.156c-.076-.008-.164.004-.195-.082h-.137l-.012-.189-.424-.001c-.004.033-.008.099-.01.131-.041.044-.08.088-.119.133l-.215.001c-.039.055-.075.108-.112.164-.104.002-.21.003-.315.007-.037.044-.078.086-.122.123l-.005.132c-.081.008-.169.009-.191.104h-.208c-.044.056-.087.112-.129.169l-.384.001c-.06.149-.241.076-.363.098-.052.073-.115.136-.19.185-.002.081-.003.163-.003.246l-.101.006-.002.238c-.058.044-.114.09-.171.136.006.213.005.425.001.639l.171.137v.563c-.04.038-.079.077-.117.117l-.145.003-.004.148-.113.111c-.156 0-.312 0-.467.002-.071.091-.146.179-.221.267l-.312-.002c-.015-.08-.031-.161-.086-.225-.008-.208-.004-.415-.004-.623.086-.084.171-.17.261-.252v-.271l-.086-.049c-.019-.281-.001-.565-.006-.849h-.155c-.013-.087.003-.201-.115-.211-.001-.213-.001-.425.003-.638l-.156-.134c-.014-.082-.014-.176-.108-.207l-.004-.183c-.112-.05-.093-.229.026-.254-.099-.087-.191-.181-.286-.27l-.002-.116c-.11-.022-.208-.075-.315-.104-.03-.076-.105-.083-.177-.086l-.069-.076c-.067-.008-.124-.035-.17-.082l-.123-.003c-.039-.167-.116-.323-.095-.5-.043-.038-.083-.08-.121-.123-.216-.009-.431.003-.646-.004-.055.002-.102-.016-.14-.056-.048-.049-.098-.096-.149-.141-.003-.144.005-.288-.006-.431-.038-.1-.101-.186-.159-.272l-.005-.131-.096-.014.001-.135c-.104-.062-.062-.193-.078-.292l-.258-.006v-.133l-.129-.122-.139-.009-.003-.136c-.079-.05-.101-.132-.098-.221l.175-.007c0-.158.002-.317-.006-.476-.052-.099-.096-.205-.179-.282l-.083-.102-.123-.01-.114-.114-.001-.195c-.132-.027-.083-.172-.1-.269-.159-.104-.019-.297.026-.427.03-.037.062-.072.096-.106.059-.059.112-.124.161-.191h.229l.136.174.152-.01v.178c.287 0 .574-.002.861.002.008-.084-.007-.187.1-.205.002-.164.002-.328.007-.492.1-.008.215.012.29-.075l.136-.008v-.266c.138 0 .278.007.416-.007l.047-.099c.093-.005.15.044.174.131.051-.062.103-.122.156-.181.088-.02.169-.057.227-.128.091-.076.206-.113.309-.171l-.101-.1c-.004-.123-.087-.209-.183-.273-.002-.121-.002-.242 0-.363.073-.066.145-.135.213-.206h.187c.11-.151.248-.279.394-.395v-.138c.036.002.108.002.144.003.014.089.089.097.162.099.035-.048.075-.092.12-.132l.009-.11c.136-.091.043-.293.073-.431.067-.066.162-.118.192-.213-.027-.094-.123-.144-.187-.211.048-.221-.158-.32-.271-.469l-.154-.017c-.017-.074-.01-.165-.084-.212-.003-.104-.003-.209-.002-.314.223-.005.447.015.669-.01l.044-.076c.095-.059.199-.101.284-.174.093-.003.186-.004.279-.004.044-.058.09-.113.135-.17l.152.005c.004-.019.01-.066.013-.091z"/><path fill="#EDEDED" d="M28.021 9.212l-.385 1.181-1.223-.013 1.004.731-.391 1.159 1.004-.729.982.729-.381-1.181.996-.709h-1.242l-.364-1.168zm-4.007-1.08l-.385 1.181-1.225-.013 1.006.729-.391 1.16 1.004-.729.983.729-.383-1.181.998-.708h-1.242l-.365-1.168zm-4.009-.527l-.385 1.18-1.224-.012 1.005.729-.391 1.16 1.004-.73.983.73-.383-1.182.998-.708H20.37l-.365-1.167zM7.979 9.212l.384 1.181 1.224-.013-1.005.73.39 1.159-1.004-.729-.982.729.383-1.181-.998-.708h1.241l.367-1.168zm4.008-1.08l.384 1.181 1.224-.013-1.004.729.39 1.16-1.004-.729-.983.729.384-1.181-.998-.708h1.241l.366-1.168zm4.009-.527l.384 1.18 1.224-.012-1.005.729.391 1.16-1.004-.73-.983.73.384-1.182-.997-.708 1.241-.001.365-1.166z"/></svg>