<svg xmlns="http://www.w3.org/2000/svg" viewBox="0 0 36 36"><path fill="#006847" d="M4 5C1.791 5 0 6.791 0 9v18c0 2.209 1.791 4 4 4h7V5H4z"/><path fill="#CE1126" d="M32 5h-7v26h7c2.209 0 4-1.791 4-4V9c0-2.209-1.791-4-4-4z"/><path fill="#EEE" d="M11 5h14v26H11z"/><path fill="#A6D388" d="M23 18c0 2.762-2.238 5-5 5-2.761 0-5-2.238-5-5h-1c0 3.313 2.686 6 6 6s6-2.687 6-6h-1z"/><path d="M13.543 20.269c-.092-.18-.278-.28-.468-.271-.069.002-.14.02-.205.053-.247.125-.344.427-.219.673.09.177.189.35.296.516v.001l.004.006v.001l.008.011v.001l.003.006.001.002.004.005v.001l.003.005v.002l.003.005.001.002.003.005.001.002.003.004.002.003.002.003.001.003.003.005.001.001.002.003.003.006.001.002.003.005.001.002.007.01v.001l.005.007v.001c.052.077.105.151.161.226.102.138.262.206.421.2.096-.004.193-.036.276-.099.222-.164.268-.478.103-.699-.158-.226-.305-.464-.43-.71zm-.497-1.582c-.021-.156-.036-.315-.043-.477-.005-.12-.005-.238-.003-.356.008-.275-.209-.506-.485-.514l-.036.001c-.26.011-.471.221-.478.485-.002.104-.003.207-.001.311v.09l.001.005v.028l.001.003-.001.002v.003l.001.002v.029l.001.003v.011l.001.019.001.009v.011c.009.16.025.319.046.477.036.257.261.44.515.43.016-.001.032-.002.047-.005.281-.04.471-.293.433-.567zm5.294 4.3l-.006.001-.124.008c-.237.009-.477.003-.71-.021-.024-.003-.047-.003-.071-.002-.245.01-.451.2-.476.45-.027.274.173.519.447.547l.125.011.004.001.002-.001.003.001h.002l.006.001h.006l.003.001h.001l.006-.001.003.001h.005l.006.001.005.001h.013l.006.001h.013c.152.01.305.015.459.012h.039l.007-.001.006.001h.015l.005-.001h.019l.006-.001h.001l.005.001.001-.001.006.001h.001l.005-.001h.008l.006-.001h.006l.001.001.006-.001h.007l.005-.001h.02l.005-.001h.004l.004-.001.004.001h.005l.004-.001h.005c.042-.001.085-.005.127-.007.269-.022.471-.255.453-.526-.007-.272-.242-.483-.514-.473zm-2.439-.448c-.251-.116-.495-.255-.724-.411-.092-.064-.199-.091-.303-.087-.152.006-.3.08-.393.217-.155.227-.098.539.13.694l.001.001.006.003.006.006.006.004.006.005c.266.181.548.34.842.476.074.035.153.049.23.046.182-.008.352-.113.433-.289.119-.251.01-.549-.24-.665zm5.03-.398c-.085.004-.171.03-.248.08-.233.148-.481.279-.734.387-.255.106-.375.399-.267.655.084.197.279.312.48.305.059-.002.116-.016.173-.038l.134-.06h.002l.006-.004.002-.001.004-.002h.004l.004-.002.002-.002.006-.001.002-.002.003-.002.005-.002.003-.001.005-.002.002-.001.005-.002.002-.001c.003-.002.003-.003.005-.003l.002-.001.006-.003h.002l.006-.003.006-.003.002-.001.005-.003.002-.001.006-.003.001-.001.007-.001.007-.004.002-.001.004-.003h.002l.006-.004.008-.002.006-.004h.001l.007-.004.001-.001.014-.006.007-.003.014-.008.008-.003.006-.003h.001l.014-.008v-.001l.006-.002h.001l.022-.012.007-.002.014-.008.007-.004h.001c.001-.001.003-.002.007-.002.002-.003.004-.004.006-.005l.008-.004.006-.003v-.001l.014-.006h.001l.007-.004.001-.001.005-.003h.001l.007-.004.006-.003h.002l.006-.004v-.001l.007-.003.001-.001.006-.003v-.001l.006-.002.002-.001.004-.003.003-.001.005-.003.002-.001.005-.003.002-.001.006-.002c-.001-.001 0-.001.001-.001l.006-.003.002-.001.004-.003.002-.001.006-.003.002-.001c0-.002.002-.002.004-.003l.003-.001.004-.002.003-.002.004-.002.003-.002.003-.002.003-.003.005-.001.004-.001.002-.002.004-.002.004-.003.002-.001.004-.002.004-.003.003-.002c.002.001.003 0 .005-.001l.002-.002.004-.002.003-.002.003-.002.004-.002.004-.003.002-.001c.002-.001.006-.001.008-.003-.002-.001-.002-.001 0-.001l.004-.002.007-.005.002-.001.007-.003v-.001l.012-.006.008-.005c.006-.004.012-.008.02-.011h.001c.063-.038.128-.077.19-.117.232-.15.301-.457.152-.69-.115-.149-.285-.232-.457-.225zm2.571-4.618l-.024.001c-.266.011-.478.229-.479.498 0 .277-.025.557-.072.829-.047.271.137.531.408.577.036.006.071.009.106.008.23-.01.432-.179.473-.417v-.005l.001-.002.001-.002-.001-.002.001-.002v-.002l.001-.002v-.003l.001-.002v-.009c.002-.001.002-.003.002-.004v-.006c.021-.129.039-.259.052-.391l-.001-.001.001-.003v-.001l.001-.004v-.011l.002-.003v-.001l-.001-.003v-.002l.001-.003v-.004l.002-.001-.002-.003v-.004c.002-.001.002-.002.002-.003v-.019l.002-.003v-.001c.013-.163.021-.328.021-.495 0-.273-.222-.498-.498-.499zm-.443 2.696c-.084-.046-.175-.066-.263-.062-.169.007-.329.1-.417.258-.134.242-.289.476-.463.692-.172.217-.135.531.08.702.1.079.217.113.333.108.14-.006.276-.07.37-.188.116-.146.227-.299.33-.455.002-.007.007-.014.011-.02l.001-.001.004-.006v-.001l.004-.007c.002-.002.004-.004.004-.006l.001.001.004-.006v-.001c.002-.002.003-.005.003-.007l.002-.001.004-.006v-.001c.002-.001.002-.003.003-.005l.001-.001.004-.006.001-.002.002-.005.003-.002.002-.005h.002l.002-.006.001-.002.004-.004.001-.002c.001-.002.001-.004.003-.005l.001-.003.004-.003c0-.001 0-.002.002-.003v-.004l.003-.002.003-.005.001-.002.003-.006.002-.002.002-.004.002-.003c0-.001 0-.002.002-.003 0-.001 0-.002.002-.003l.003-.005.001-.003.002-.003.002-.003c.002-.001.002-.002.002-.003.002-.001.002-.002.002-.004l.002-.003.003-.004.003-.004v-.003l.002-.003.003-.004.003-.003v-.003l.004-.005v-.003c.002-.001.003-.002.003-.004l.002-.002.002-.003.003-.005.002-.003v-.002l.004-.005c0-.001 0-.002.002-.003l.001-.003.003-.004.002-.004.002-.003c.001-.001 0-.003.002-.004 0-.001 0-.002.002-.002l.002-.005.002-.002.002-.006.002-.001.002-.004.002-.002.002-.005.002-.002.002-.006c.002-.001 0-.002 0-.002l.004-.005.001-.002.004-.005v-.001l.003-.006.002-.002.002-.006v-.001l.005-.005.003-.006v-.001l.004-.007.002-.001.025-.047c.129-.234.043-.538-.199-.672z" fill="#5C913B"/><ellipse fill="#55ACEE" cx="18" cy="21" rx="3" ry="1"/><ellipse fill="#FFCC4D" cx="18.5" cy="21" rx="1.5" ry="1"/><path fill="#5C913B" d="M19.117 21.274c-.081 0-.163-.02-.239-.061-.243-.132-.333-.436-.201-.678.16-.294.328-.561.502-.795-.139.006-.283.009-.43.009-.276 0-.528-.225-.528-.501s.195-.5.472-.5l.082.001c.296 0 .6-.018.872-.043.158-.017.309.047.41.156.014-.011.028-.022.043-.031.1-.066.193-.119.28-.161.059-.046.131-.079.211-.094l.036-.007c.188-.061.32-.069.373-.069.159 0 .308.075.402.203.094.128.122.292.075.444-.082.266-.265.326-.586.39-.06.023-.142.063-.238.128-.188.123-.432.104-.599-.034.137.177.143.431-.002.614-.17.217-.337.475-.496.768-.09.167-.262.261-.439.261zm-1.42-1.589c-.021 0-.044-.001-.066-.004-.374-.05-.729-.124-1.056-.221-.265-.079-.416-.357-.337-.622l.006-.02-.012.023c-.135.241-.44.328-.681.192-.34-.19-.645-.419-.907-.681-.195-.195-.195-.512 0-.707.195-.195.512-.195.707 0 .197.197.428.37.688.515.214.12.306.374.229.597.105-.213.354-.326.59-.256.276.082.579.145.9.188.274.036.467.287.431.561-.029.252-.245.435-.492.435zm-2.452-2.339c-.426 0-.977-.165-1.311-.559-.512-.604-.813-1.379-.767-1.973.012-.159-.143-.287-.295-.327-.087-.023-.24-.037-.312.118-.059.126-.207.179-.332.122-.125-.058-.18-.207-.122-.332.156-.339.506-.49.892-.392.358.093.701.415.667.85-.036.462.226 1.109.65 1.61.223.264.611.371.875.381.215.011.324-.038.347-.059-.056-.133-.797-.523-1.113-.689-.269-.141-.349-.335-.369-.472-.067-.455.4-.916.852-1.36.159-.157.31-.305.392-.414.093-.123.078-.205.06-.256-.069-.187-.368-.372-.728-.452-.333-.074-.558-.235-.668-.479-.145-.321-.068-.741.234-1.285.067-.122.22-.164.34-.097.121.067.164.219.097.34-.285.512-.257.744-.215.837.042.092.149.157.32.195.423.094.932.345 1.088.767.089.241.044.501-.128.73-.104.139-.268.3-.441.471-.258.254-.739.727-.708.931.006.042.061.079.107.102.751.394 1.25.679 1.352 1.028.036.123.021.247-.042.359-.097.169-.299.273-.585.299-.043.004-.09.006-.137.006z"/><ellipse fill="#FFCC4D" cx="19.5" cy="18" rx=".5" ry="1"/><path fill="#FFCC4D" d="M17.292 17.188c0 .288-.345.521-.771.521-.425 0-.771-.233-.771-.521s.345-.521.771-.521c.425 0 .771.233.771.521zm-1.187-4.627c.05.212-.227.46-.619.553-.392.093-.75-.004-.801-.216-.05-.213.227-.461.618-.554.393-.092.752.004.802.217z"/><path fill="#C1694F" d="M22.533 17.955c.09.07.243-.729.22-.978 0-.017-.029-.546.083-.924.069-.128.073-1.083-.033-1.334.084-.007.185-.034.197-.136-.388.143-.479-.817-.852-1.369-.362-.553-.811-.875-1.28-1.211.035-.094.091-.182.162-.27-.575.288-1.471-.755-2.795-.677-.297.029-.438.047-.514.229-.247.02-.498.076-.498.401 0 .078.071.22.229.221.216.063.392.014.539.316l.039.312s-.193-.247-.299-.286l.065-.133c-.1-.058-.277-.011-.277-.011s-.385-.18-.694-.132l-.06-.25c-.054.154-.175.146-.192.291-.034-.104-.079-.233-.111-.337-.109.148-.077.308-.116.462-.042.036-.128.037-.15-.062-.011-.122-.026-.133-.026-.278-.078.137-.172.204-.203.439l-.083-.26c.003.307-.261.49-.511.707-.071.13.011.131.017.198l.132.066.237-.017c.039.049.007.053.11.084.276.077.62-.254.89.267-.124.104-.249.347-.209.393.05 0-.1.07.102.006-.21.204-.352.473-.352.489-.024.058.084-.008.062.097l.05-.006c-.479.518-.016 1.075-.067 1.374.08.129.09-.003.19-.016.084.368.326.591.474.882l-.312.003c.007.138.132.269.231.39l-.209.066c-.149.076-.247.157-.352.274-.069.168.333.208.527.238l-.007.203c.303.029.653-.061.653-.078l.076-.059.171.094c.057 0 .146-.228.105-.403.11.131.214.342.324.474l.103-.014c.094.149.223.297.317.446l.105.04c.061-.021.113-.028.146-.148l.048.084.166-.114.116-.023.087.142c.051-.019.101-.13.104-.248.052.103.066.095.104.122l.077-.162.415.388.314.018c.112.076.419.124.471.001.252.108.549-.014.534-.134.232.092.589.03.589.015.043-.005.153-.113.049-.194-.767-.534-1.904-1.418-2.343-1.631 0-.158-.119-.727-.247-.883l.104-.174c.299.279.407.252.566.296.17.135.229.34.399.527l.152.028c-.105-.267-.236-.526-.554-.873.164.082.436.301.618.46.12.201.155.361.265.613.08.051.162.238.151.083-.019-.291-.224-.752-.224-.785.326.258.322.66.421.905.083.124.125.29.161.251l-.096-.756-.056-.277c.241.139.327.669.44 1.305 0 .101.041.212.035.277.052.064.111.241.11.136 0 0 0-1.034-.071-1.271-.018-.127.03-.333.03-.333.088.429.182.894.271 1.322v.315l.132.133c.025-.26.055-.518.081-.776l-.099-.925v-.264c-.002-.093.085-.076.14.03.013.227.013.404.022.63.039.258.066.447.085.776.011.266.023.904.079.893z"/></svg>