<svg xmlns="http://www.w3.org/2000/svg" viewBox="0 0 36 36"><path fill="#269" d="M36 32c0 2.209-1.791 4-4 4H4c-2.209 0-4-1.791-4-4V4c0-2.209 1.791-4 4-4h28c2.209 0 4 1.791 4 4v28z"/><path fill="#FFF" d="M11.275 7.324c0-.648.432-1.026 1.134-1.026.675 0 1.188.378 1.188 1.026v4.291h8.827V7.324c0-.648.404-1.026 1.107-1.026.675 0 1.188.378 1.188 1.026v4.291h4.13c.729 0 1.026.459 1.026 1.053 0 .594-.298 1.08-.999 1.08h-4.157v2.888c0 3.266-.675 5.831-1.97 7.72-1.674 2.429-4.67 4.184-7.99 4.75-.135.027-.243.027-.351.027-.594 0-.945-.297-1.053-.837-.027-.108-.027-.188-.027-.297 0-.54.351-.891.972-.999 2.645-.459 5.236-2.051 6.532-3.941 1.079-1.566 1.593-3.698 1.593-6.883v-2.429h-8.827v6.641c0 .674-.513 1.025-1.188 1.025-.702 0-1.134-.352-1.134-1.025v-6.641H7.119c-.702 0-.999-.486-.999-1.08 0-.594.297-1.025 1.025-1.025h4.13V7.324z"/></svg>