<svg xmlns="http://www.w3.org/2000/svg" viewBox="0 0 36 36"><path fill="#F4900C" d="M36 32c0 2.209-1.791 4-4 4H4c-2.209 0-4-1.791-4-4V4c0-2.209 1.791-4 4-4h28c2.209 0 4 1.791 4 4v28z"/><path fill="#FFF" d="M9.914 13.543c0-.702.078-1.456.208-2.184-.676.78-1.404 1.482-2.158 2.158-.234.156-.468.26-.702.26-.26 0-.52-.13-.728-.364-.13-.182-.208-.39-.208-.572 0-.312.156-.624.494-.832 1.872-1.43 3.432-3.432 4.55-5.694.182-.286.442-.416.78-.416.156 0 .338.026.52.104.364.13.572.416.572.729 0 .156-.052.338-.156.494-.364.598-.78 1.196-1.248 1.768.962-.052 1.872-.078 2.808-.078h13.572c.468 0 .702.364.702.91 0 .494-.234.858-.702.858H26.06v4.42h3.095c.468 0 .727.364.727.91 0 .52-.26.91-.727.91H26.06v4.524h2.444c.468 0 .702.364.702.885 0 .494-.234.91-.702.91H7.392c-.468 0-.702-.391-.702-.91 0-.494.234-.885.702-.885h2.522v-4.524h-3.12c-.442 0-.702-.39-.702-.91s.26-.91.702-.91h3.12v-1.561zm1.222 11.623c0 .104-.026.208-.078.338-.598 1.482-1.508 2.99-2.522 4.134-.26.261-.546.391-.858.391-.26 0-.494-.078-.728-.261-.234-.182-.364-.416-.364-.701 0-.208.078-.442.286-.65.91-.91 1.716-2.158 2.314-3.614.13-.338.416-.52.78-.52.13 0 .286.025.442.077.468.13.728.442.728.806zm3.562-10.062v-4.42h-2.964v4.42h2.964zm0 6.343v-4.524h-2.964v4.524h2.964zm0 2.939c.416 0 .728.234.806.599.312 1.3.494 2.808.598 4.134v.078c0 .468-.39.78-.936.832h-.13c-.494 0-.884-.286-.91-.728-.052-1.222-.208-2.704-.468-4.03v-.13c0-.364.312-.649.78-.728.079-.027.182-.027.26-.027zm4.759-9.282v-4.42h-2.991v4.42h2.991zm0 6.343v-4.524h-2.991v4.524h2.991zm.623 2.887c.416 0 .703.182.832.546.494 1.3.91 2.678 1.17 3.926.026.078.026.183.026.261 0 .416-.312.727-.806.832-.13.025-.234.052-.364.052-.416 0-.754-.234-.806-.65-.182-1.222-.598-2.678-1.014-3.926-.026-.078-.053-.183-.053-.26 0-.364.26-.65.676-.729.132-.027.236-.052.339-.052zm4.187-9.23v-4.42H21.2v4.42h3.067zm0 6.343v-4.524H21.2v4.524h3.067zm1.508 2.809c.312 0 .571.13.754.312 1.065 1.325 1.897 2.573 2.573 3.899.078.156.104.312.104.442 0 .364-.208.676-.572.857-.156.078-.338.131-.494.131-.338 0-.649-.156-.832-.442-.65-1.326-1.404-2.626-2.392-3.874-.078-.13-.13-.286-.13-.442 0-.26.13-.52.441-.728.183-.103.366-.155.548-.155z"/></svg>