<svg xmlns="http://www.w3.org/2000/svg" viewBox="0 0 36 36"><path fill="#77B255" d="M36 32c0 2.209-1.791 4-4 4H4c-2.209 0-4-1.791-4-4V4c0-2.209 1.791-4 4-4h28c2.209 0 4 1.791 4 4v28z"/><path fill="#FFF" d="M14.101 11.125c.494 0 .754.364.754.884 0 .546-.26.936-.754.936h-2.314v5.148c.754-.26 1.483-.52 2.08-.78.156-.052.26-.078.39-.078.312 0 .52.182.65.572.078.156.104.312.104.442 0 .286-.156.52-.52.676-.78.363-1.716.754-2.704 1.092v7.488c0 1.872-.728 2.444-2.6 2.444-.91 0-1.534-.052-2.106-.208-.442-.105-.676-.442-.676-.91 0-.078 0-.156.026-.26.078-.442.364-.729.78-.729.078 0 .182 0 .26.026.416.104 1.014.182 1.378.182.832 0 1.014-.155 1.014-.91v-6.474c-.963.287-1.873.548-2.679.756-.104.025-.182.025-.26.025-.442 0-.754-.26-.858-.779-.026-.131-.052-.234-.052-.364 0-.416.234-.676.65-.727.962-.234 2.08-.521 3.198-.858v-5.773h-2.99c-.468 0-.728-.39-.728-.91 0-.546.26-.91.728-.91h2.99V6.731c0-.521.338-.78.936-.78.624 0 .988.26.988.78v4.394h2.315zm12.168 6.708c1.404 0 2.106.598 2.106 2.054v7.67c0 1.431-.702 2.055-2.106 2.055h-8.294c-1.378 0-2.106-.624-2.106-2.055v-7.67c0-1.456.729-2.054 2.106-2.054h8.294zm-8.398-5.018c0 .962.416 1.118 4.784 1.118 3.692 0 4.291-.234 4.629-.78.182-.286.338-.858.416-1.586.052-.468.338-.702.832-.702h.155c.546.052.885.364.885.806v.104c-.104 1.17-.339 2.132-.885 2.808-.649.832-1.534 1.17-6.058 1.17-5.798 0-6.709-.286-6.709-2.47V6.861c0-.468.364-.728.962-.728.572 0 .988.26.988.728v2.574c3.172-.416 6.838-1.353 9.205-2.366.182-.078.338-.104.493-.104.364 0 .65.234.807.624.078.182.104.338.104.468 0 .364-.208.624-.598.78-2.86 1.118-6.553 1.95-10.01 2.314v1.664zm8.58 7.384c0-.519-.26-.649-.754-.649H18.52c-.494 0-.728.13-.728.649v2.549h8.659v-2.549zm-8.659 4.213v2.782c0 .52.234.649.728.649h7.177c.494 0 .754-.13.754-.649v-2.782h-8.659z"/></svg>