<svg xmlns="http://www.w3.org/2000/svg" viewBox="0 0 36 36"><path fill="#DD2E44" d="M36 32c0 2.209-1.791 4-4 4H4c-2.209 0-4-1.791-4-4V4c0-2.209 1.791-4 4-4h28c2.209 0 4 1.791 4 4v28z"/><path fill="#FFF" d="M10.921 15.583c.208.182.338.468.338.754 0 .208-.078.416-.234.624-.208.26-.52.39-.806.39-.26 0-.494-.078-.676-.26-1.014-.936-2.34-1.924-3.458-2.6-.234-.13-.364-.39-.364-.702 0-.208.078-.416.208-.624.208-.26.494-.39.806-.39.182 0 .364.052.52.13 1.248.702 2.549 1.716 3.666 2.678zm.39 6.136c0 .131-.026.234-.052.364-.754 2.288-1.898 4.94-3.225 7.099-.208.338-.52.494-.884.494-.182 0-.39-.052-.598-.156-.312-.182-.52-.494-.52-.832 0-.182.052-.39.182-.572 1.222-1.976 2.418-4.42 3.12-6.708.13-.442.468-.649.884-.649.104 0 .234.025.338.052.496.154.755.518.755.908zm.676-11.83c0 .234-.078.468-.234.65-.208.234-.494.338-.754.338-.286 0-.572-.104-.78-.312-.884-.858-1.924-1.716-3.016-2.444-.234-.156-.364-.442-.364-.728 0-.208.078-.442.234-.624.208-.26.494-.416.806-.416.182 0 .39.052.572.182 1.066.676 2.21 1.586 3.198 2.548.235.234.338.52.338.806zm.573 4.94c-.468 0-.728-.312-.728-.858 0-.52.26-.858.728-.858h3.796v-2.835h-2.964c-.468 0-.728-.338-.728-.884 0-.52.26-.832.728-.832h2.964V6.665c0-.442.338-.702.884-.702.572 0 .936.26.936.702v1.898h5.097V6.665c0-.442.363-.676.91-.676.571 0 .909.234.909.676v1.898h3.458c.469 0 .728.312.728.832 0 .546-.26.884-.728.884h-3.458v2.835h4.316c.468 0 .728.311.728.858 0 .52-.26.858-.728.858h-7.852v2.21h5.226c1.534 0 2.21.676 2.21 2.055v8.294c0 1.716-.78 2.392-2.652 2.392-.78 0-1.586-.052-2.313-.182-.391-.078-.702-.416-.702-.884 0-.078 0-.156.026-.234.104-.52.467-.754.806-.754.052 0 .104 0 .155.026.65.155 1.301.208 1.795.208.858 0 1.066-.208 1.066-.962v-7.644c0-.521-.26-.65-.806-.65h-4.81v6.37h1.248c.469 0 .676-.155.676-.649v-3.562c0-.441.364-.702.858-.702.442 0 .91.261.91.702v3.979c0 1.352-.572 1.872-1.897 1.872h-5.279c-1.326 0-1.898-.521-1.898-1.872v-3.979c0-.441.442-.702.884-.702.494 0 .884.261.884.702v3.562c0 .494.208.649.676.649h1.118v-6.37H15.29c-.52 0-.78.13-.78.65v10.01c0 .547-.39.807-.988.807-.546 0-.936-.26-.936-.807v-10.27c0-1.378.676-2.055 2.211-2.055h4.939v-2.21H12.56zm10.712-4.55h-5.097v2.835h5.097v-2.835z"/></svg>