<svg xmlns="http://www.w3.org/2000/svg" viewBox="0 0 36 36"><path fill="#F4900C" d="M36 32c0 2.209-1.791 4-4 4H4c-2.209 0-4-1.791-4-4V4c0-2.209 1.791-4 4-4h28c2.209 0 4 1.791 4 4v28z"/><path fill="#FFF" d="M11.246 19.574c0-.572.026-1.56.208-2.288-1.222 1.326-2.548 2.521-3.874 3.458-.26.183-.52.286-.754.286-.286 0-.546-.13-.754-.442-.13-.182-.208-.39-.208-.598 0-.286.13-.546.468-.78 3.095-2.002 5.721-5.018 7.437-8.19H7.061c-.469 0-.729-.441-.729-.962 0-.546.26-.936.729-.936h7.644c.364-.858.677-1.742.885-2.601.13-.468.416-.676.884-.676.104 0 .208 0 .312.026.547.104.755.416.755.754 0 .104-.026.208-.053.312-.208.729-.468 1.456-.754 2.185h12.48c.494 0 .754.39.754.936 0 .521-.26.962-.754.962H15.849c-.546 1.015-1.118 2.003-1.769 2.965.494-.13 1.456-.183 2.185-.183h8.086c1.586 0 2.314.65 2.314 2.185v11.362c0 1.82-.937 2.496-3.146 2.496-1.066 0-2.054-.104-2.808-.286-.442-.104-.728-.416-.728-.884 0-.078 0-.183.026-.286.104-.442.416-.729.806-.729.078 0 .156 0 .26.052.599.156 1.457.312 2.158.312 1.223 0 1.482-.208 1.482-1.092v-2.679H13.248v5.07c0 .468-.416.78-.987.78-.599 0-1.015-.312-1.015-.78v-9.749zm13.469-3.302c0-.52-.26-.702-.78-.702h-9.906c-.52 0-.78.182-.78.702v1.872h11.467v-1.872zm-11.467 6.214h11.467v-2.574H13.248v2.574z"/></svg>