<svg xmlns="http://www.w3.org/2000/svg" viewBox="0 0 36 36"><path fill="#F4900C" d="M36 32c0 2.209-1.791 4-4 4H4c-2.209 0-4-1.791-4-4V4c0-2.209 1.791-4 4-4h28c2.209 0 4 1.791 4 4v28z"/><path fill="#FFF" d="M26.893 9.669c1.534 0 2.236.598 2.236 2.002v3.562c0 .494-.364.78-.988.78-.572 0-.988-.286-.988-.78v-3.146c0-.572-.26-.702-.832-.702H9.576c-.52 0-.78.13-.78.702v3.146c0 .494-.39.78-.988.78s-.988-.286-.988-.78v-3.562c0-1.404.676-2.002 2.236-2.002h2.626c-.442-.754-1.04-1.638-1.404-2.132-.104-.156-.156-.286-.156-.416 0-.286.234-.572.572-.702.182-.078.364-.13.52-.13.312 0 .572.13.78.416.546.78 1.275 1.976 1.768 2.964h3.64c-.338-.78-.832-1.742-1.274-2.47-.078-.13-.104-.26-.104-.364 0-.312.208-.598.598-.702.156-.052.312-.078.442-.078.338 0 .598.13.806.468.494.78 1.066 2.028 1.534 3.146h2.834c.702-1.014 1.326-2.054 1.717-2.912.207-.416.494-.572.857-.572.156 0 .312.026.469.078.441.13.649.39.649.702 0 .156-.052.312-.13.468-.338.676-.832 1.456-1.378 2.236h2.471zm-1.508 12.507c1.456 0 2.184.598 2.184 2.028v3.354c0 1.431-.728 2.028-2.184 2.028h-14.82c-1.456 0-2.185-.598-2.185-2.028v-3.354c0-1.431.729-2.028 2.185-2.028h4.654c.416-.729.78-1.534 1.118-2.315h-3.614c-1.612 0-2.236-.519-2.236-1.924v-2.652c0-1.43.624-1.924 2.236-1.924h10.479c1.611 0 2.235.494 2.235 1.924v2.652c0 1.404-.624 1.924-2.235 1.924h-4.811c-.312.807-.676 1.586-1.144 2.315h8.138zm-.598 5.642c.572 0 .806-.131.806-.65v-2.626c0-.521-.233-.65-.806-.65H11.162c-.572 0-.806.13-.806.65v2.626c0 .52.234.65.806.65h13.625zm-2.028-9.568c.521 0 .754-.13.754-.65v-1.95c0-.494-.233-.624-.754-.624h-9.595c-.546 0-.754.13-.754.624v1.95c0 .52.208.65.754.65h9.595z"/></svg>