<svg xmlns="http://www.w3.org/2000/svg" viewBox="0 0 36 36"><path fill="#F4900C" d="M36 32c0 2.209-1.791 4-4 4H4c-2.209 0-4-1.791-4-4V4c0-2.209 1.791-4 4-4h28c2.209 0 4 1.791 4 4v28z"/><path fill="#FFF" d="M11.969 21.447c-.468 3.276-1.456 5.877-3.328 8.035-.234.26-.546.39-.858.39-.26 0-.52-.078-.754-.26-.286-.208-.416-.521-.416-.807 0-.233.104-.493.286-.702 2.86-3.119 3.432-7.228 3.432-14.534V9.331c0-1.586.78-2.236 2.34-2.236h11.7c1.534 0 2.314.65 2.314 2.236V27.22c0 1.691-.702 2.444-3.354 2.444-1.015 0-2.002-.104-2.834-.286-.494-.103-.806-.416-.806-.935 0-.078 0-.183.025-.286.13-.546.469-.78.832-.78.078 0 .156 0 .234.026.676.182 1.482.285 2.288.285 1.352 0 1.586-.207 1.586-1.039v-5.201H11.969zm.416-6.343c-.026 1.456-.026 2.938-.182 4.394h12.455v-4.394H12.385zm12.272-5.383c0-.52-.261-.676-.806-.676H13.217c-.52 0-.832.156-.832.676v3.432h12.272V9.721z"/></svg>