<svg xmlns="http://www.w3.org/2000/svg" viewBox="0 0 36 36"><path fill="#F4900C" d="M36 18c0 9.941-8.059 18-18 18S0 27.941 0 18C0 8.06 8.059 0 18 0s18 8.06 18 18z"/><path fill="#FFF" d="M6.988 9.546c-.494 0-.78-.39-.78-.962 0-.546.286-.936.78-.936h22.049c.468 0 .754.39.754.936s-.286.962-.754.962h-2.6v17.915c0 1.899-.858 2.652-3.276 2.652-1.093 0-2.392-.131-3.406-.365-.494-.103-.78-.467-.78-.935 0-.078 0-.182.026-.285.104-.521.416-.807.858-.807.078 0 .182 0 .26.025.884.234 2.027.391 2.834.391 1.092 0 1.404-.234 1.404-1.248V9.546H6.988zm13.078 12.532c0 1.664-.728 2.314-2.366 2.314h-6.136c-1.664 0-2.392-.65-2.392-2.314v-6.941c0-1.664.728-2.314 2.392-2.314H17.7c1.638 0 2.366.65 2.366 2.314v6.941zm-2.807.443c.546 0 .806-.156.806-.729v-6.37c0-.572-.26-.728-.806-.728h-5.304c-.52 0-.78.156-.78.728v6.37c0 .572.26.729.78.729h5.304z"/></svg>