<svg xmlns="http://www.w3.org/2000/svg" viewBox="0 0 36 36"><path fill="#553788" d="M36 32c0 2.209-1.791 4-4 4H4c-2.209 0-4-1.791-4-4V4c0-2.209 1.791-4 4-4h28c2.209 0 4 1.791 4 4v28z"/><path fill="#744EAA" d="M32 0H19.244c-4.687 1.656.803 8.995-3.502 8.469C8.583 7.594 8.063 14.555 5 13.438c-1.192-.436-3.257-2.491-5-.991V32c0 2.209 1.791 4 4 4h1.624c1.469-1.279.927-5.622 1.709-6.75 2.834-4.084 3.695-7.482 7.901-7.188 7.125.5 8.453-4.853 10.705-7.187C28.187 12.541 32 16.417 36 14.667V4c0-2.209-1.791-4-4-4"/><path fill="#292F33" d="M36 32v-2.966c-.77-.84-1.917-1.784-2.583-1.7-1.276.161-2.042 1.166-2.917 1.853-.875.688-2.979.272-4.667-.853-1.687-1.125-3.998-.106-5.127.466-1.873.95-2.498-1.883-4.373-3.133S11.625 28.5 10.5 29.25s-2.463-1.18-3.275-1.742c-.813-.563-1.892-.486-3.392.826-1.287 1.126-1.795.895-3.833 1.545V32c0 2.209 1.791 4 4 4h28c2.209 0 4-1.791 4-4"/><path d="M7.333 15.667c0 .644-.522 1.167-1.167 1.167-.644 0-1.166-.523-1.166-1.167 0-.645.522-1.167 1.167-1.167s1.166.522 1.166 1.167m8.605-4.636c0 .604-.49 1.094-1.094 1.094s-1.094-.49-1.094-1.094c0-.604.49-1.094 1.094-1.094s1.094.49 1.094 1.094m7.374-5.719c0 .725-.588 1.312-1.312 1.312-.726 0-1.313-.587-1.313-1.312S21.275 4 22 4c.725.001 1.312.587 1.312 1.312m1.876 3.407c0 .432-.35.781-.781.781-.432 0-.78-.349-.78-.781 0-.432.349-.781.78-.781.431 0 .781.349.781.781M19.75 19.75c0 .553-.447 1-1 1s-1-.447-1-1 .447-1 1-1 1 .447 1 1m12.188.672c0 .518-.42.937-.937.937-.519 0-.938-.419-.938-.937s.42-.937.938-.937c.517 0 .937.419.937.937m.75-9.516c0 .639-.518 1.156-1.156 1.156-.639 0-1.157-.517-1.157-1.156 0-.639.519-1.156 1.157-1.156s1.156.517 1.156 1.156" fill="#AA8DD8"/><path d="M22.281 23.728c0 .362-.293.656-.655.656-.363 0-.656-.294-.656-.656 0-.362.293-.656.656-.656.362-.001.655.293.655.656M12.562 2.562c0 .449-.364.812-.812.812-.449 0-.813-.363-.813-.812s.364-.812.813-.812c.449 0 .812.363.812.812M5.606 5.938c0 .371-.301.672-.672.672-.371 0-.672-.301-.672-.672 0-.371.301-.672.672-.672.371 0 .672.301.672.672m23.113 20.07c0 .449-.363.812-.812.812-.45 0-.813-.362-.813-.812 0-.449.363-.811.813-.811.448-.001.812.362.812.811m-21.851-.511c0 .516-.418.934-.934.934S5 26.013 5 25.497c0-.517.418-.935.934-.935s.934.418.934.935M11 18.781c0 .812-.658 1.469-1.469 1.469s-1.469-.657-1.469-1.469c0-.811.658-1.469 1.469-1.469S11 17.97 11 18.781m9.351-3.981c0 .925-.75 1.675-1.676 1.675-.925.001-1.675-.75-1.675-1.675s.75-1.675 1.675-1.675c.926 0 1.676.75 1.676 1.675m8.337-10.331c0 .397-.322.719-.719.719-.397 0-.719-.322-.719-.719 0-.397.321-.719.719-.719.396 0 .719.322.719.719M34.312 3c0 .552-.447 1-1 1s-1-.448-1-1 .447-1 1-1 1 .448 1 1" fill="#CBB7EA"/><path d="M11.333 7.562c0 .495-.401.896-.896.896s-.895-.401-.895-.896.401-.896.896-.896.895.401.895.896m22.979 8.094c0 .432-.35.781-.781.781-.432 0-.78-.349-.78-.781 0-.432.349-.781.78-.781.432 0 .781.349.781.781m-8.624-2.125c0 .38-.308.687-.687.687-.381 0-.688-.307-.688-.687 0-.38.308-.687.688-.687.379 0 .687.307.687.687m-13.157 1.188c0 .328-.266.594-.594.594-.328 0-.593-.266-.593-.594 0-.328.265-.594.593-.594.328 0 .594.266.594.594M22.75 11.24c0 .639-.518 1.156-1.156 1.156-.639 0-1.157-.517-1.157-1.156 0-.639.519-1.156 1.157-1.156.638-.001 1.156.517 1.156 1.156m6.125-3.084c0 .535-.434.969-.969.969-.535 0-.968-.434-.968-.969 0-.535.433-.969.968-.969.535 0 .969.434.969.969m-12.641 9.93c0 .738-.598 1.336-1.336 1.336-.738 0-1.336-.598-1.336-1.336 0-.738.598-1.336 1.336-1.336.738 0 1.336.598 1.336 1.336M2.633 24.129c0 .485-.394.879-.879.879s-.879-.393-.879-.879c0-.485.394-.879.879-.879s.879.394.879.879M6 21.079c0 .358-.291.648-.648.648-.358 0-.649-.29-.649-.648s.291-.648.649-.648c.357 0 .648.29.648.648M32.156 5.75c0 .449-.363.812-.812.812-.45 0-.813-.363-.813-.812s.363-.812.813-.812c.449 0 .812.363.812.812" fill="#F5F8FA"/></svg>