<svg xmlns="http://www.w3.org/2000/svg" viewBox="0 0 36 36"><path fill="#FFCC4D" d="M32 0H4C1.791 0 0 1.791 0 4v28h36V4c0-2.209-1.791-4-4-4z"/><path fill="#F4900C" d="M32.114 16.736c1.587-.451 1.587-1.147.001-1.599l-.559-.154L31 14.82v.005l-2.94-.891L30.383 12h-.014l.493-.322.497-.359c1.291-1.023 1.008-1.686-.629-1.498l-.636.089-.632.09h-.002l-2.979.339 1.77-3.18.309-.558c.802-1.44.281-1.963-1.158-1.163l-.558.282-.556.28h-.002L23.66 7.489 24 4.542v-.003l.08-.632.077-.638c.188-1.634-.492-1.915-1.516-.623l-.394.499-2.257 2.851-.819-2.881-.002-.005-.348-1.225c-.451-1.587-1.19-1.587-1.642 0l-.174.612-.174.613-.821 2.886-1.861-2.35-.001-.001-.395-.499-.397-.501c-1.023-1.29-1.704-1.007-1.515.629l.074.634.073.632v.001l.346 2.979-3.177-1.77-.557-.311c-1.441-.802-1.963-.28-1.161 1.161l.31.556 1.77 3.177-2.979-.346h-.001l-.632-.073-.635-.074c-1.636-.189-1.918.492-.629 1.515l.501.397.499.395.001.001 2.35 1.861-2.884.822-.612.174-.612.174c-1.587.452-1.587 1.19 0 1.642l1.225.348.004.002 2.881.819-2.851 2.258-.499.396c-1.292 1.023-1.011 1.705.623 1.517l.638-.08.632-.081h.002l2.948-.34L8 24.286v.002l-.28.556-.296.559c-.8 1.44-.271 1.96 1.169 1.158l.56-.309 3.185-1.77L12 27.46v.002l-.08.632-.077.635c-.189 1.637.491 1.918 1.514.627l.396-.5.395-.5 1.862-2.352.82 2.885v.001l.174.612.175.613c.452 1.586 1.105 1.586 1.557-.001L19 28.89v-.004l.905-2.882 1.905 2.352.416.5.407.5c1.022 1.29 1.71 1.01 1.521-.625l-.078-.637-.076-.633v-.003l-.34-2.947L26.284 26h.002l.557.28.558.295c1.44.803 1.963.273 1.16-1.167l-.28-.56L28 24.29v-.002l-1.489-2.628 2.947.34h.003l.633.08.637.077c1.635.188 1.915-.492.625-1.515l-.5-.395-.5-.395-2.352-1.947L30.886 17h.004l1.224-.264z"/><circle fill="#FFE8B6" cx="18" cy="16" r="9.63"/><path fill="#485359" d="M10 36V15l4-4h2l4 4v21zm23-17c0-1-1-1-1-1h-7s-1 0-1 1v17h9V19z"/><path fill="#292F33" d="M28 25c0-1-1-1-1-1h-8c-1 0-1 1-1 1v11h10V25zm-17 2H6v-5s0-1-1-1H0v11c0 2.209 1.791 4 4 4h8v-8s0-1-1-1zm21 4c-1 0-1 1-1 1v4h1c2.209 0 4-1.791 4-4v-1h-4z"/><path d="M8 29h2v2H8zm-2 4h2v2H6zm10-16h2v2h-2zm0 4h2v2h-2zm-2 4h2v2h-2zm10 1h2v2h-2zm-2 4h2v2h-2zm7-10h2v2h-2zm0 4h2v2h-2z" fill="#FFCC4D"/></svg>