<svg xmlns="http://www.w3.org/2000/svg" viewBox="0 0 36 36"><path fill="#55ACEE" d="M35.782 24.518c-.13-.438-.422-.799-.821-1.016-.802-.436-1.879-.116-2.316.683-1.797 3.296-4.771 5.695-8.372 6.757-3.563 1.051-7.437.634-10.698-1.144-2.558-1.394-4.419-3.699-5.242-6.493-.74-2.514-.495-5.016.552-7.033-.363 1.605-.313 3.285.164 4.908.737 2.507 2.407 4.575 4.701 5.823 2.733 1.492 5.989 1.841 8.979.961 3.025-.892 5.521-2.906 7.026-5.672 1.832-3.358 2.246-7.228 1.165-10.898-1.08-3.669-3.524-6.698-6.883-8.529C19.984.657 15.165.14 10.738 1.446 6.261 2.764 2.566 5.746.332 9.843c-.451.826-.145 1.865.681 2.317.804.439 1.884.117 2.319-.682C5.127 8.183 8.1 5.784 11.703 4.723c3.563-1.048 7.438-.634 10.699 1.142 2.556 1.394 4.416 3.7 5.239 6.495.741 2.514.496 5.017-.552 7.033.363-1.604.315-3.285-.162-4.911-.739-2.504-2.409-4.573-4.702-5.824-2.734-1.49-5.99-1.838-8.98-.959-3.022.89-5.518 2.904-7.025 5.671-1.832 3.357-2.245 7.227-1.165 10.897 1.081 3.671 3.525 6.7 6.883 8.529 2.567 1.4 5.451 2.141 8.341 2.141 1.669 0 3.337-.242 4.958-.72 4.477-1.317 8.173-4.301 10.406-8.399.219-.399.269-.862.139-1.3zM16.784 14.002c.373-.11.758-.166 1.143-.166 1.779 0 3.372 1.193 3.875 2.901.629 2.138-.599 4.39-2.737 5.02-.373.11-.757.166-1.142.166-1.778 0-3.372-1.193-3.875-2.902-.63-2.137.598-4.389 2.736-5.019z"/></svg>