<svg xmlns="http://www.w3.org/2000/svg" viewBox="0 0 36 36"><path fill="#269" d="M33.398 23.678c-7.562 4.875-20.062-.438-18.375-8.062 1.479-6.684 9.419-4.763 11.225-3.861 1.806.902.713-3.889-3.475-5.327C17.1 4.48 10.156 4.893 7.961 14.678c-1.5 6.687 1.438 16.062 12.719 16.187 11.281.125 12.718-7.187 12.718-7.187z"/><path fill="#55ACEE" d="M35.988 25.193c0-2.146-2.754-2.334-4-1.119-2.994 2.919-7.402 4.012-13.298 2.861-10.25-2-10.341-14.014-3.333-17.441 3.791-1.854 8.289.341 9.999 1.655 1.488 1.143 4.334 2.66 4.185.752C29.223 7.839 21.262-.86 10.595 4.64-.071 10.14 0 22.553 0 24.803v7.25C0 34.262 1.814 36 4.023 36h28C34.232 36 36 34.262 36 32.053c0 0-.004-6.854-.012-6.86z"/></svg>