<svg xmlns="http://www.w3.org/2000/svg" viewBox="0 0 36 36"><path fill="#269" d="M32 0H4C1.791 0 0 1.791 0 4v22h36V4c0-2.209-1.791-4-4-4z"/><path fill="#3F484C" d="M10 36V7l4-4h2l4 4v29zm23-25c0-1-1-1-1-1h-7s-1 0-1 1v25h9V11z"/><path fill="#292F33" d="M28 19c0-1-1-1-1-1h-8c-1 0-1 1-1 1v17h10V19zm-17 2H6v-7s0-1-1-1H0v19c0 2.209 1.791 4 4 4h8V22s0-1-1-1zm21 4c-1 0-1 1-1 1v10h1c2.209 0 4-1.791 4-4v-7h-4z"/><path d="M8 31h2v2H8zm0-8h2v2H8zm-2 4h2v2H6zM16 9h2v2h-2zm0 4h2v2h-2zm-2 4h2v2h-2zm10 3h2v2h-2zm-2 4h2v2h-2zm-2 6h2v2h-2zm9-18h2v2h-2zm0 4h2v2h-2z" fill="#FFCC4D"/><g fill="#FFF"><circle cx="10.5" cy="2.5" r=".5"/><circle cx="7.5" cy="11.5" r=".5"/><circle cx="22" cy="5" r="1"/><circle cx="26.5" cy="5.5" r=".5"/><circle cx="31" cy="3" r="1"/><circle cx="31.5" cy="7.5" r=".5"/><path d="M6.5 7C5.119 7 4 5.881 4 4.5c0-1.13.755-2.074 1.784-2.383C5.533 2.048 5.273 2 5 2 3.343 2 2 3.343 2 5s1.343 3 3 3c.959 0 1.803-.458 2.353-1.159C7.085 6.938 6.801 7 6.5 7z"/></g></svg>