<svg xmlns="http://www.w3.org/2000/svg" viewBox="0 0 36 36"><path fill="#88C9F9" d="M32 0H4C1.791 0 0 1.791 0 4v6h36V4c0-2.209-1.791-4-4-4z"/><path fill="#E1E8ED" d="M36 16.368V9.257c-.638-.394-1.383-.632-2.188-.632-1.325 0-2.491.627-3.259 1.588C29.75 9.466 28.683 9 27.5 9c-.721 0-1.392.185-1.996.486C24.763 8.018 23.257 7 21.5 7c-.607 0-1.184.124-1.712.342C19.308 5.981 18.024 5 16.5 5c-1.207 0-2.273.611-2.901 1.542C12.97 6.207 12.263 6 11.5 6c-1.641 0-3.062.887-3.848 2.198C6.928 6.33 5.125 5 3 5c-1.131 0-2.162.389-3 1.022v7.955C.838 14.611 24.5 18 24.5 18s10.862-1.238 11.5-1.632z"/><path fill="#CCD6DD" d="M36 14.771C35.157 13.7 33.864 13 32.396 13c-1.997 0-3.681 1.279-4.318 3.059-.19-.033-.38-.059-.578-.059-.82 0-1.565.294-2.162.767C24.679 16.289 23.876 16 23 16c-.353 0-.689.06-1.015.146.002-.049.015-.096.015-.146 0-2.209-1.791-4-4-4-1.215 0-2.291.554-3.024 1.409C14.369 13.148 13.702 13 13 13c-.18 0-.35.034-.525.053C11.429 10.505 8.926 8.709 6 8.709c-2.551 0-4.777 1.369-6 3.408v13.544l32.396-1.452s2.761-1.343 3.604-2.966v-6.472z"/><path fill="#E1E8ED" d="M36 30.499V20.422c-.613-.268-1.288-.422-2-.422-2.125 0-3.928 1.33-4.652 3.198C28.562 21.887 27.141 21 25.5 21c-.763 0-1.47.207-2.099.542C22.773 20.611 21.707 20 20.5 20c-1.524 0-2.808.981-3.288 2.342-.528-.218-1.105-.342-1.712-.342-1.757 0-3.263 1.018-4.004 2.486C10.892 24.185 10.221 24 9.5 24c-1.183 0-2.25.466-3.054 1.213-.768-.961-1.934-1.588-3.259-1.588-1.284 0-2.419.591-3.188 1.501v5.373H36z"/><path fill="#FE5011" d="M36 24.059C32.465 22.229 25.013 17.594 20 9c0 0 0-2-2-2s-2 2-2 2C10.987 17.594 3.535 22.229 0 24.059v2.068c1.044-.495 2.422-1.204 4-2.169V24h2v-1.341c1.284-.88 2.637-1.908 4-3.094V27h2v-9.292c1.384-1.375 2.74-2.923 4-4.655V24h4V13.054c1.26 1.731 2.616 3.28 4 4.655V26h2v-6.435c1.362 1.186 2.716 2.214 4 3.095V25h2v-1.042c1.578.965 2.956 1.674 4 2.169v-2.068z"/><path fill="#F5F8FA" d="M25 25c-.821 0-1.582.249-2.217.673-.664-1.839-2.5-3.07-4.534-2.863-1.883.192-3.348 1.56-3.777 3.298-.181-.012-.363-.019-.55 0-.773.079-1.448.427-1.965.93-.667-.387-1.452-.582-2.278-.498-.333.034-.644.123-.942.236-.003-.047.004-.093 0-.139-.212-2.083-2.073-3.599-4.155-3.387-1.145.117-2.107.742-2.716 1.619-.586-.186-1.217-.258-1.866-.197V32c0 .773.23 1.489.61 2.101C.715 34.098 29 31.209 29 29s-1.791-4-4-4z"/><path fill="#CCD6DD" d="M32 36c2.209 0 4-1.791 4-4v-7.608c-.91-.433-1.925-.683-3-.683-2.926 0-5.429 1.796-6.475 4.344C26.35 28.034 26.18 28 26 28c-.702 0-1.369.147-1.976.409C23.291 27.554 22.215 27 21 27c-2.209 0-4 1.791-4 4 0 .05.013.097.015.146C16.689 31.06 16.353 31 16 31c-.876 0-1.679.289-2.338.767C13.065 31.294 12.32 31 11.5 31c-.198 0-.388.026-.577.059C10.286 29.279 8.602 28 6.604 28c-1.987 0-3.665 1.266-4.31 3.03C2.195 31.022 2.101 31 2 31c-.732 0-1.41.211-2 .555V32c0 2.209 1.791 4 4 4h28z"/></svg>