<svg xmlns="http://www.w3.org/2000/svg" viewBox="0 0 36 36"><path fill="#FFD983" d="M25 13c0-4.984-1.934-9.505-5.073-12.894C28.961 1.068 36 8.71 36 18c0 9.941-8.06 18-18 18-4.303 0-8.25-1.515-11.347-4.033 7.163-.245 13.305-4.451 16.35-10.484.622-1.232-2.795-1.201-2.962-3.482C19.887 15.87 25 15.26 25 13"/><g fill="#FFCC4D"><circle cx="25.5" cy="28.5" r="3.5"/><circle cx="27" cy="7" r="1"/><circle cx="18" cy="32" r="1"/><circle cx="33" cy="20" r="2"/></g><path d="M19.797 26.023c.775-.819 1.48-1.705 2.104-2.651 5.449 1.226 7.637-.273 7.316.807-.34 1.147-4.797 3.008-9.42 1.844M26 14.5c0 1.381 1.12 2.5 2.5 2.5s2.5-1.119 2.5-2.5-1.12-2.5-2.5-2.5-2.5 1.119-2.5 2.5" fill="#292F33"/></svg>