<svg xmlns="http://www.w3.org/2000/svg" viewBox="0 0 36 36"><path fill="#3B88C3" d="M18 0C8.059 0 0 8.059 0 18s8.059 18 18 18 18-8.059 18-18S27.941 0 18 0zM2.05 19h3.983c.092 2.506.522 4.871 1.229 7H4.158c-1.207-2.083-1.95-4.459-2.108-7zM19 8V2.081c2.747.436 5.162 2.655 6.799 5.919H19zm7.651 2c.754 2.083 1.219 4.46 1.317 7H19v-7h7.651zM17 2.081V8h-6.799C11.837 4.736 14.253 2.517 17 2.081zM17 10v7H8.032c.098-2.54.563-4.917 1.317-7H17zM6.034 17H2.05c.158-2.54.901-4.917 2.107-7h3.104c-.705 2.129-1.135 4.495-1.227 7zm1.998 2H17v7H9.349c-.754-2.083-1.219-4.459-1.317-7zM17 28v5.919c-2.747-.437-5.163-2.655-6.799-5.919H17zm2 5.919V28h6.8c-1.637 3.264-4.053 5.482-6.8 5.919zM19 26v-7h8.969c-.099 2.541-.563 4.917-1.317 7H19zm10.967-7h3.982c-.157 2.541-.9 4.917-2.107 7h-3.104c.706-2.129 1.136-4.494 1.229-7zm0-2c-.093-2.505-.523-4.871-1.229-7h3.104c1.207 2.083 1.95 4.46 2.107 7h-3.982zm.512-9h-2.503c-.717-1.604-1.606-3.015-2.619-4.199C27.346 4.833 29.089 6.267 30.479 8zM10.643 3.801C9.629 4.985 8.74 6.396 8.023 8H5.521c1.39-1.733 3.133-3.166 5.122-4.199zM5.521 28h2.503c.716 1.604 1.605 3.015 2.619 4.198C8.654 31.166 6.911 29.733 5.521 28zm19.836 4.198c1.014-1.184 1.902-2.594 2.619-4.198h2.503c-1.39 1.733-3.133 3.166-5.122 4.198z"/></svg>