<svg xmlns="http://www.w3.org/2000/svg" viewBox="0 0 36 36"><path fill="#8899A6" d="M12.125 32.667s3.583-5.792 2.667-11.084c-.711-4.106-3.387-4.937-6.042-8.583-3.125-4.292-3.444-7.461-2.5-9C7.375 2.167 11.583 0 21 0c6.042 0 8.794 1.622 9.708 3.417 1.125 2.208.459 9.583-2.208 14.666C24.11 26.45 19.25 32.042 14.75 34c-3.553 1.546-2.625-1.333-2.625-1.333z"/><g fill="#66757F"><path d="M17.137 7.999c4.885-.263 8.732-1.577 9.572-3.269.288-.581.251-1.213-.103-1.734-.94-1.388-4.231-1.683-9.773-1.058-1.681.189-3.854.513-3.791 1.062.063.549 2.417.312 3.976.202.693-.049 1.336-.083 1.939-.104 3.787-.135 5.773.256 5.836.904.07.719-3.192 1.753-7.762 2-8.958.485-10.596-1.011-10.885-1.481-.038-.062-.059-.122-.07-.18-.272.625-.368 1.452-.225 2.457 1.578.862 4.19 1.298 7.931 1.298 1.034 0 2.152-.033 3.355-.097zm4.988 6.689c.531-.15 2.41-.897 2.297-1.438-.141-.672-2.664.037-3.203.141-8.814 1.695-12.304-.676-13.37-1.725.271.432.567.875.901 1.334.662.91 1.326 1.644 1.961 2.298 1.229.321 2.733.534 4.566.534 1.928 0 3.973-.332 6.848-1.144z"/><path d="M30.375 5.228c-.954 1.504-3.5 3.944-14.297 4.975-.608.058-2.734.156-2.688.766.072.94 2.777.673 2.797.672 7.749-.465 12.588-1.745 15.028-4.268.05-1.466-.062-2.71-.337-3.532-.044.401-.181.879-.503 1.387zM14.792 21.583c.047.271.075.545.099.818.966.337 2.237.567 3.939.567.799 0 1.692-.053 2.687-.161.811-.088 2.013-.555 1.951-1.103-.062-.549-1.597-.352-2.156-.344-4.707.066-6.424-.947-7.044-1.602.223.536.404 1.131.524 1.825zm5.849-4.505c-.55.048-2.172.141-2.219.734-.07.889 2.252.782 2.266.781 4.058-.165 6.849-1.289 8.708-2.482.446-1.133.805-2.323 1.087-3.508-.831 1.169-3.415 3.912-9.842 4.475zm-1.766 12.078c-.031-.391-.5-.453-1.703-.547-1.203-.094-1.715-.606-2.154-1.079-.256-.275-.393-.608-.468-.91-.198.864-.452 1.681-.723 2.42.791.67 1.83.985 3.236 1.053.529.026 1.877-.126 1.812-.937zm7.056-6.577c-.984.907-3.054 2.199-7.04 2.484-.543.039-1.829.089-1.859.641-.03.552 1.175.891 1.727.92.336.019.661.027.977.027 1.479 0 2.719-.201 3.77-.504.814-1.096 1.624-2.286 2.425-3.568z"/></g><path fill="#788895" d="M12.167 1.917c6.245-1.849 14.208-1.5 17.542.292.026.014.046.019.071.032C28.371.971 25.672 0 21 0 11.583 0 7.375 2.167 6.25 4c-.065.105-.122.22-.174.341.012.058.033.119.071.181.288.47 1.927 1.965 10.883 1.48 4.57-.247 7.833-1.281 7.762-2-.063-.648-2.049-1.039-5.836-.904 4.492-.008 4.414 1.142 2.003 1.486-10.553 1.507-14.001-1.126-8.792-2.667z"/><path fill="#CCD6DD" d="M28.642 36c.01-.083.025-.164.025-.25 0-.979-.652-1.795-1.542-2.064-.211-1.952-1.846-3.478-3.854-3.478-1.406 0-2.627.751-3.312 1.867-.448-.281-.975-.45-1.543-.45-1.103 0-2.051.619-2.546 1.521-.523-.55-1.258-.896-2.078-.896-.288 0-.56.055-.822.134-.34-.253-.736-.43-1.171-.504-.593-1.536-2.075-2.63-3.82-2.63-1.985 0-3.64 1.409-4.021 3.281-.104-.012-.206-.031-.312-.031-1.369 0-2.479 1.11-2.479 2.479 0 .365.084.709.226 1.021h27.249z"/></svg>