<svg xmlns="http://www.w3.org/2000/svg" viewBox="0 0 36 36"><path fill="#CCD6DD" d="M33.536 2.464c-1.953-1.953-5.118-1.953-7.071 0l-1.197 1.199 2.842 2.843c.391.391.391 1.024 0 1.414-.195.195-.451.293-.707.293s-.512-.098-.707-.293l-2.841-2.842-2.11 2.112 2.841 2.84c.391.39.391 1.023 0 1.414-.195.195-.451.293-.707.293s-.512-.098-.707-.293l-2.84-2.839-2.12 2.122 2.837 2.838c.391.391.391 1.024 0 1.414-.195.195-.451.293-.707.293s-.512-.098-.707-.293l-2.837-2.837-2.12 2.123 2.836 2.836c.391.391.391 1.023 0 1.414-.195.195-.451.293-.707.293s-.512-.098-.707-.293l-2.835-2.835-2.12 2.123 2.833 2.833c.391.391.391 1.023 0 1.414-.195.195-.451.293-.707.293s-.512-.098-.707-.293l-2.833-2.832-1.781 1.785C4.107 21.03 1 24.151 1 28c0 3.866 3.134 7 7 7 3.832 0 6.941-3.081 6.995-6.9L33.536 9.536c1.952-1.953 1.952-5.119 0-7.072z"/><path fill="#DD2E44" d="M30.938 5.091c-.781-.781-2.047-.781-2.828 0L9.045 24.156c-1.338-.362-2.823-.035-3.873 1.015-1.562 1.562-1.562 4.095 0 5.657 1.562 1.562 4.095 1.562 5.657 0C11.867 29.79 12.2 28.326 11.858 27l19.08-19.08c.781-.781.781-2.048 0-2.829z"/><path fill="#292F33" d="M13.272 22.343c.256 0 .512-.098.707-.293.391-.391.391-1.023 0-1.414l-2.833-2.833-1.413 1.415 2.833 2.832c.194.195.45.293.706.293zm3.536-3.535c.256 0 .512-.098.707-.293.391-.391.391-1.023 0-1.414l-2.836-2.836-1.413 1.415 2.835 2.835c.195.195.451.293.707.293zm3.535-3.536c.256 0 .512-.098.707-.293.391-.39.391-1.023 0-1.414l-2.837-2.838-1.413 1.415 2.837 2.837c.194.195.45.293.706.293zm3.536-3.536c.256 0 .512-.098.707-.293.391-.391.391-1.024 0-1.414l-2.841-2.84-1.413 1.415 2.84 2.839c.195.196.451.293.707.293zm3.523-3.523c.256 0 .512-.098.707-.293.391-.39.391-1.023 0-1.414l-2.842-2.843-1.413 1.415 2.841 2.842c.196.195.451.293.707.293z"/></svg>