<svg xmlns="http://www.w3.org/2000/svg" viewBox="0 0 36 36"><path fill="#FFE8B6" d="M12 7C5.374 7 0 14.164 0 23h6v6h17.119c.564-1.854.881-3.877.881-6 0-8.836-5.373-16-12-16z"/><path fill="#FFE8B6" d="M29 21h4.896C33.156 13.11 28.118 7 22 7c-6.627 0-12 7.164-12 16 0 2.123.317 4.146.88 6H29v-8z"/><path fill="#FFAC33" d="M36 23c0-8.836-5.373-16-12-16-6.626 0-12 7.164-12 16 0 2.123.317 4.146.88 6H30c3.314 0 6-2.685 6-6z"/><path fill="#FFAC33" d="M6 23h10v6H6z"/><path fill="#FFE8B6" d="M0 23c0-3.312 2.687-6 6-6s6 2.687 6 6c0 3.315-2.687 6-6 6s-6-2.685-6-6z"/><path fill="#FFAC33" d="M14 7C7.374 7 2 14.164 2 23c0 2.21 1.791 4 4 4s4-1.79 4-4c0-6.963 3.342-12.871 8-15.069C16.747 7.339 15.405 7 14 7z"/><circle fill="#D99E82" cx="4" cy="23" r="1"/><path fill="#C1694F" d="M9.975 23.25C9.855 22.541 9.243 22 8.5 22c-.18 0-.35.037-.51.095.002-.033.01-.063.01-.095 0-1.104-.896-2-2-2s-2 .896-2 2c0 .525.207 1 .539 1.357-.327.276-.539.682-.539 1.143 0 .678.453 1.244 1.07 1.43.167.557.651.962 1.241 1.039 1.978-.156 3.54-1.733 3.664-3.719z"/><path fill="#D99E82" d="M9.5 21c-.828 0-1.5.672-1.5 1.5S8.672 24 9.5 24c.13 0 .254-.021.375-.053.075-.305.125-.619.125-.947 0-.637.037-1.261.091-1.878C9.91 21.044 9.711 21 9.5 21z"/><ellipse fill="#FFCC4D" cx="6.5" cy="20" rx="1.5" ry="1"/><circle fill="#FFCC4D" cx="7" cy="21" r="1"/><circle fill="#C1694F" cx="9" cy="21" r="1"/><circle fill="#D99E82" cx="5" cy="22" r="1"/><circle fill="#D99E82" cx="7" cy="22" r="1"/><circle fill="#FFD983" cx="8" cy="20" r="1"/><circle fill="#FFE8B6" cx="7" cy="18" r="1"/><circle fill="#FFE8B6" cx="6" cy="20" r="1"/><circle fill="#FFD983" cx="9" cy="18" r="1"/><circle fill="#FFD983" cx="9" cy="20" r="1"/><circle fill="#FFD983" cx="9" cy="19" r="1"/><circle fill="#FFE8B6" cx="9" cy="19" r="1"/><path fill="#77B255" d="M10.572 12.453C10.3 12.174 9.921 12 9.5 12c-.738 0-1.348.533-1.473 1.235-.215-.139-.478-.235-.777-.235-.69 0-1.25.448-1.25 1 0 .19.084.358.2.51-.123.146-.2.311-.2.49-.552 0-1 .448-1 1 0 .202.075.379.178.537-.11.139-.178.295-.178.463 0 .552.671 1 1.5 1 .43 0 .815-.122 1.089-.316.254.195.567.316.911.316.198 0 .385-.041.558-.11.163.602.69 1.042 1.331 1.091.495-2.544 1.45-4.835 2.738-6.72C12.806 12.097 12.419 12 12 12c-.56 0-1.065.174-1.428.453z"/><circle fill="#A6D388" cx="8" cy="15" r="1"/><path fill="#A6D388" d="M10 13.5c0 .276-.224.5-.5.5s-.5-.223-.5-.5c0-.276.224-.5.5-.5s.5.224.5.5z"/><circle fill="#A6D388" cx="6.5" cy="16.5" r=".5"/><path fill="#A6D388" d="M10 16.5c0 .276-.224.5-.5.5s-.5-.223-.5-.5.224-.5.5-.5.5.224.5.5z"/><circle fill="#A6D388" cx="10" cy="15" r="1"/><circle fill="#DD2E44" cx="9" cy="12" r="1"/><circle fill="#FFD983" cx="11" cy="12" r="1"/><circle fill="#FFD983" cx="12" cy="10" r="1"/><circle fill="#FFD983" cx="9" cy="14" r="1"/><path fill="#A6D388" d="M15 9c-.552 0-1 .448-1 1 0 .035.016.064.02.098-.162-.06-.336-.098-.52-.098-.829 0-1.5.671-1.5 1.5 0 .561.311 1.043.767 1.301.845-1.354 1.856-2.513 2.989-3.436C15.573 9.147 15.308 9 15 9z"/><circle fill="#DD2E44" cx="12" cy="11" r="1"/><ellipse transform="rotate(-80.781 14 9)" fill="#DD2E44" cx="14" cy="9" rx="1" ry="1"/><circle fill="#F4900C" cx="17" cy="25" r="1"/><circle fill="#F4900C" cx="13" cy="28" r="1"/><circle fill="#F4900C" cx="19" cy="28" r="1"/><circle fill="#F4900C" cx="22" cy="27" r="1"/><circle fill="#F4900C" cx="26" cy="27" r="1"/><circle fill="#F4900C" cx="29" cy="28" r="1"/><circle fill="#F4900C" cx="31" cy="26" r="1"/><circle fill="#F4900C" cx="21" cy="22" r="1"/><circle fill="#F4900C" cx="15" cy="22" r="1"/><circle fill="#F4900C" cx="34" cy="24" r="1"/><circle fill="#F4900C" cx="17" cy="18" r="1"/><circle fill="#F4900C" cx="22" cy="16" r="1"/><path fill="#F4900C" d="M20 12c0 .552-.447 1-1 1-.552 0-1-.448-1-1s.448-1 1-1c.553 0 1 .448 1 1z"/><circle fill="#F4900C" cx="27" cy="13" r="1"/><circle fill="#F4900C" cx="24" cy="10" r="1"/><circle fill="#F4900C" cx="31" cy="19" r="1"/><circle fill="#F4900C" cx="26" cy="19" r="1"/><circle fill="#F4900C" cx="24" cy="23" r="1"/><circle fill="#F4900C" cx="29" cy="22" r="1"/></svg>