<svg xmlns="http://www.w3.org/2000/svg" viewBox="0 0 36 36"><path fill="#FFCC4D" d="M26.302 13.489l-.174-.174-9.182-9.136c2.814 3.28 2.163 7.785-1.616 10.312-3.672 2.455-8.996 2.174-12.389-.509l5.227 5.321 2.465 2.465c1.218 1.218 3.125 1.751 4.531 1.713 1.059-.028 1.834-.379 1.808-1.009-.014-.362.189-.652.527-.881 1.086-.737 3.605-.828 5.108-.527.492.098.957.081 1.395-.013 1.333-.286 2.393-1.352 3.034-2.601.648-1.264.867-2.704.512-3.689l-.01-.035-1.236-1.237z"/><path fill="#FFAC33" d="M19.014 17.471c-.389-.389-1.118-.488-1.629-.22-.511.267-.609.799-.22 1.189s1.118.488 1.629.22c.511-.268.61-.8.22-1.189z"/><path fill="#D99E82" d="M24.457 16.282c-.389-.389-.901-.271-1.145.264-.243.535-.125 1.284.264 1.673s.901.271 1.145-.264c.243-.535.125-1.283-.264-1.673z"/><path fill="#FFAC33" d="M21.903 11.908c-.268.511-.799.609-1.189.22s-.488-1.118-.22-1.629c.267-.511.799-.609 1.189-.22s.488 1.118.22 1.629z"/><path fill="#D99E82" d="M12.747 21.064c-.584.195-1.372.037-1.761-.352-.389-.389-.232-.862.352-1.057.584-.195 1.372-.037 1.761.352.389.39.232.863-.352 1.057z"/><path fill="#BDBDBD" d="M24.003 21.051c-.438.094-.903.112-1.395.013-1.503-.301-4.021-.209-5.108.527l13.022 13.022c2.486-.848 3.93-3.036 3.962-3.082l-10.481-10.48zm9.857.031l.018-.018-3.522-3.522c-1-2.113.775-3.433.071-4.137-.676-.676-2.715.027-4.124.084l1.236 1.236c.373.986.154 2.447-.501 3.725l8.928 8.928c.261-3.237-1.368-5.466-2.106-6.296z"/><path fill="#808285" d="M15.164 23.482c-1.405.037-3.313-.496-4.531-1.713l-1.761-1.761c-.176.528 0 1.409.352 1.761.704.704-.705 3.521 2.112 4.93 1.89.945 4.226 0 5.635 1.409 0 0 4.483 4.506 4.931 4.931.448.425 2.334 1.863 4.9 2.083l-11.638-11.64z"/><path fill="#A6A6A6" d="M17.5 21.591c-.338.229-.542.519-.527.881.025.63-.75.981-1.808 1.009L26.804 35.12c2.163.166 3.646-.481 3.718-.508L17.5 21.591z"/><path fill="#D8D8D8" d="M27.037 18.45c-.641 1.249-1.701 2.315-3.034 2.601l10.481 10.481c1.347-1.901 1.473-4.056 1.481-4.154l-8.928-8.928z"/><path fill="#FFAC33" d="M3.155 7.407c.069-.304.205-.605.435-.835.646-.646 1.474-1.282 2.577-1.308.711-.017 1.535.091 2.501.675l7.069.059c-.244-.406-.541-.798-.907-1.164-2.528-2.528-7.035-2.935-10.065-.908-1.431.956-2.268 2.284-2.497 3.685.256-.207.587-.284.887-.204zm12.592-1.391L15.738 6h-.004l.013.016zM2.959 9.842c-.023-.019-.051-.027-.073-.049-.131-.131-.202-.294-.244-.462-.137-.035-.264-.101-.379-.189-.079-.499-.076-1.007 0-1.501-.169 1.075.026 2.19.598 3.215l-.001-.002c-.081-.337-.057-.694.099-1.012z"/><path fill="#C1694F" d="M2.265 7.613l-.002.028.005-.029-.003.001z"/><path fill="#FFE8B6" d="M16.946 4.179c-.137-.16-.274-.32-.428-.474C13.211.399 7.298-.165 3.355 2.516-.48 5.124-1.043 10.124 2.166 13.301c.244.242.504.467.774.68 3.393 2.683 8.718 2.964 12.389.509 3.78-2.526 4.431-7.031 1.617-10.311zM15.738 6l.009.016c1.428 2.397.759 5.337-1.826 7.066-3.03 2.027-7.537 1.62-10.066-.909-.412-.412-.737-.856-.995-1.317-.572-1.025-.767-2.14-.598-3.215l.002-.028.003-.002c.23-1.401 1.067-2.729 2.498-3.685 3.031-2.026 7.537-1.62 10.066.909.366.366.663.758.907 1.164"/><path fill="#C1694F" d="M13.921 13.082c2.585-1.729 3.254-4.669 1.826-7.066L15.734 6h.004l-.001-.002-7.069-.059c-.967-.584-1.791-.692-2.501-.675-1.103.026-1.931.662-2.577 1.308-.23.23-.366.531-.435.835-.3-.08-.631-.003-.888.204l-.005.029c-.076.494-.079 1.002 0 1.501.116.089.243.155.38.19.043.168.113.331.244.462.022.022.05.03.073.049-.156.318-.18.675-.099 1.012l.001.002c.257.461.583.906.995 1.317 2.528 2.529 7.035 2.936 10.065.909z"/><path fill="#F4900C" d="M8.668 6.15l7.279.271c-.124-.276-.281-.554-.484-.834-2.6-1.922-6.547-2.087-9.29-.253l-.006.035c.71-.016 1.534.197 2.501.781z"/><circle fill="#D99E82" cx="5.703" cy="8.386" r=".996"/><circle fill="#D99E82" cx="7.112" cy="10.499" r="1.494"/><circle fill="#D99E82" cx="9.929" cy="11.203" r=".996"/><circle fill="#D99E82" cx="4.295" cy="7.682" r=".498"/><circle fill="#D99E82" cx="7.816" cy="13.316" r=".996"/><circle fill="#FFD983" cx="6.408" cy="5.568" r="1.494"/><path fill="#D99E82" d="M10.634 13.316c-.389-.389-1.019-.389-1.409 0-.281.281-.351.685-.228 1.035.629.035 1.262.005 1.883-.097.08-.327.009-.682-.246-.938z"/><path fill="#77B255" d="M16.269 7.682c-.389-.389-1.02-.389-1.409 0-.129.129-.211.285-.255.45-.164.043-.321.126-.45.254.389-.389.39-1.021.001-1.41.385-.385.393-1.013.009-1.398l-.016-.016c-.386-.386-1.015-.382-1.402.005-.131-.131-.293-.201-.461-.244-.043-.168-.113-.329-.245-.46-.232-.232-.55-.322-.851-.278-.058-.413-.239-.813-.557-1.131-.777-.777-2.037-.777-2.816.002-.779.779-.779 2.039-.001 2.817.532.531 1.285.691 1.959.497.043.073.092.144.154.207-.389.389-.389 1.02 0 1.409.226.226.532.316.826.28.066.187.169.363.319.512.396.396.974.497 1.464.307.048.112.117.218.208.31-.389.389-.389 1.02 0 1.409s1.019.389 1.409 0c.075.075.16.13.249.176l.03.016c.37.175.823.114 1.129-.192.389-.389.389-1.02 0-1.409.094-.094.163-.203.211-.318.001-.04-.001-.079-.001-.119.181-.039.353-.127.494-.268.391-.389.391-1.02.002-1.408z"/><circle fill="#A6D388" cx="14.86" cy="8.386" r=".498"/><circle fill="#FFD983" cx="12.747" cy="12.612" r=".996"/><path fill="#FFD983" d="M12.395 9.442c-.488-.488-1.226-.562-1.797-.234-.073-.17-.176-.331-.316-.47-.139-.139-.3-.243-.47-.316.328-.571.254-1.309-.234-1.797-.584-.584-1.529-.584-2.113 0-.584.584-.584 1.529 0 2.113.139.139.3.243.47.316-.328.571-.254 1.309.234 1.797s1.226.562 1.797.234c.073.17.176.331.316.47.584.584 1.529.584 2.113 0 .584-.583.584-1.529 0-2.113z"/><circle fill="#FFE8B6" cx="10.458" cy="10.323" r="1.245"/><circle fill="#FFE8B6" cx="9.049" cy="8.21" r=".747"/><circle fill="#FFE8B6" cx="7.64" cy="6.801" r=".747"/><circle fill="#A6D388" cx="8.521" cy="4.864" r=".498"/><circle fill="#77B255" cx="14.86" cy="6.273" r=".996"/><circle fill="#A6D388" cx="14.156" cy="8.386" r=".996"/><path fill="#A6D388" d="M13.099 5.921c-.219-.219-.488-.355-.77-.41-.014-.235-.107-.466-.286-.646-.389-.389-1.019-.389-1.409 0-.389-.389-1.019-.389-1.409 0-.389.389-.389 1.019 0 1.409s1.019.389 1.409 0c.021.021.046.037.069.056-.269.556-.179 1.242.283 1.705.584.584 1.529.584 2.113 0 .584-.585.584-1.53 0-2.114z"/><circle fill="#DD2E44" cx="10.458" cy="3.984" r=".747"/><circle fill="#DD2E44" cx="14.684" cy="6.801" r=".747"/><circle fill="#DD2E44" cx="14.156" cy="9.795" r=".996"/><path fill="#77B255" d="M13.451 3.455c-.389-.389-1.02-.389-1.409 0s-.389 1.02 0 1.409c-.389.389-.389 1.02 0 1.409s1.019.389 1.409 0c.389-.389.389-1.02 0-1.409.389-.389.389-1.02 0-1.409z"/><circle fill="#DD2E44" cx="12.042" cy="6.273" r=".996"/><circle fill="#DD2E44" cx="13.451" cy="4.16" r=".498"/></svg>