<svg xmlns="http://www.w3.org/2000/svg" viewBox="0 0 36 36"><path fill="#5C913B" d="M15.373 1.022C13.71 2.686 8.718 9.34 11.214 15.164c2.495 5.823 5.909 2.239 7.486-2.495.832-2.496.832-5.824-.831-10.815-.832-2.496-2.496-.832-2.496-.832zm19.304 19.304c-1.663 1.663-8.319 6.655-14.142 4.159-5.824-2.496-2.241-5.909 2.495-7.486 2.497-.832 5.823-.833 10.814.832 2.496.831.833 2.495.833 2.495z"/><path fill="#F4900C" d="M32.314 6.317s-.145-1.727-.781-2.253c-.435-.546-2.018-.546-2.018-.546-1.664 0-20.798 2.496-24.125 19.133-.595 2.973 4.627 8.241 7.638 7.638C29.667 26.963 32.313 7.98 32.314 6.317z"/><path d="M24.769 8.816l-1.617-1.617c-.446-.446-1.172-.446-1.618 0-.446.447-.446 1.171 0 1.617l1.618 1.618c.445.446 1.171.446 1.617 0 .446-.446.446-1.17 0-1.618zm-9.705 1.619c.446.446 1.171.446 1.617 0 .447-.447.447-1.171 0-1.618l-.77-.77c-.654.398-1.302.829-1.938 1.297l1.091 1.091zm2.426-2.427c.447.447 1.17.447 1.617 0 .446-.446.446-1.17 0-1.617l-.025-.025c-.711.325-1.431.688-2.149 1.086l.557.556zm-4.853 4.853c.447.446 1.171.446 1.619 0 .446-.447.446-1.171 0-1.618l-1.198-1.196c-.586.474-1.156.985-1.707 1.528l1.286 1.286zM23.96 4.773c-.447.447-.447 1.17 0 1.617l1.617 1.617c.447.447 1.171.447 1.617 0 .446-.446.446-1.17 0-1.617l-1.617-1.617c-.447-.446-1.17-.446-1.617 0zm2.408-.796c.006.007.008.016.015.023L28 5.617c.447.447 1.171.447 1.617 0 .446-.446.446-1.17 0-1.617l-.462-.462c-.54.044-1.516.172-2.787.439zm-4.025 8.884c.446-.447.446-1.171 0-1.618l-1.618-1.617c-.446-.447-1.171-.447-1.617 0-.447.446-.447 1.17 0 1.617l1.617 1.618c.446.446 1.171.446 1.618 0zm-2.428 2.426c.447-.447.447-1.171 0-1.618l-1.617-1.617c-.446-.447-1.17-.447-1.617 0-.446.447-.446 1.171 0 1.617l1.617 1.618c.447.446 1.172.446 1.617 0zm-4.851 4.852c.447-.447.446-1.17 0-1.618l-1.618-1.617c-.446-.446-1.169-.447-1.617 0-.446.447-.446 1.171 0 1.617l1.617 1.618c.447.446 1.171.446 1.618 0zm-.808-5.661c-.447.446-.447 1.171 0 1.618l1.617 1.617c.447.446 1.17.446 1.618 0 .447-.447.447-1.171 0-1.617l-1.618-1.618c-.447-.447-1.171-.447-1.617 0z" fill="#F7B82D"/><path fill="#77B255" d="M27.866 23.574c-7.125-2.374-15.097.652-19.418 3.576 2.925-4.321 5.95-12.294 3.576-19.418-.934-2.8-5.602-5.601-8.402-2.801-.934.934-1.867 1.868 0 1.868s4.667 2.8 3.735 5.601c-.835 2.505-6.889 8.742-4.153 15.375-.27.115-.523.279-.744.499l-.715.714c-.919.919-.919 2.409 0 3.329l.716.716c.919.92 2.409.92 3.328 0l.715-.716c.123-.123.227-.258.316-.398 6.999 3.84 13.747-2.799 16.379-3.677 2.8-.933 5.6 1.868 5.6 3.734 0 1.867.934.934 1.867 0 2.801-2.8-.001-7.47-2.8-8.402z"/></svg>