<svg xmlns="http://www.w3.org/2000/svg" viewBox="0 0 36 36"><path fill="#F4ABBA" d="M31.298 20.807c4.197-1.363 5.027-3.182 4.191-6.416-.952.308-2.105-.001-2.272-.518-.168-.513.581-1.443 1.533-1.753-1.223-3.107-2.964-4.089-7.161-2.727-1.606.522-3.238 1.492-4.655 2.635C23.582 10.327 24 8.475 24 6.786c0-4.412-1.473-5.765-4.807-5.968 0 1-.652 2-1.193 2s-1.194-1-1.194-2C13.472 1.021 12 2.374 12 6.786c0 1.689.417 3.541 1.066 5.241-1.416-1.142-3.049-2.111-4.655-2.633-4.197-1.364-5.938-.381-7.162 2.727.951.31 1.701 1.238 1.534 1.753-.167.515-1.32.826-2.271.518-.837 3.233-.005 5.052 4.19 6.415 1.606.521 3.497.697 5.314.605-1.524.994-2.95 2.247-3.943 3.613-2.594 3.57-2.197 5.53.381 7.654.588-.809 1.703-1.235 2.142-.917.438.317.378 1.511-.21 2.32 2.816 1.795 4.803 1.565 7.396-2.003.993-1.366 1.743-3.111 2.218-4.867.475 1.757 1.226 3.501 2.218 4.867 2.594 3.57 4.58 3.798 7.397 2.003-.587-.81-.649-2.002-.21-2.321.437-.317 1.553.107 2.142.917 2.577-2.123 2.973-4.083.381-7.653-.993-1.366-2.42-2.619-3.943-3.613 1.816.092 3.706-.084 5.313-.605zM18 20.337c-.162-.292-.353-.538-.588-.709-.234-.171-.528-.276-.856-.341.228-.244.403-.502.493-.778.09-.275.1-.587.059-.919.302.141.602.228.892.228s.59-.087.894-.229c-.041.332-.031.644.059.919.09.276.265.534.492.778-.327.065-.621.17-.855.341-.236.172-.428.418-.59.71z"/><g fill="#FFF"><path d="M16.795 18.685c-.12.54-.653.88-1.193.76l-5.858-1.302c-.539-.12-.879-.653-.759-1.193.12-.539.654-.879 1.193-.759l5.857 1.302c.54.12.88.653.76 1.192zm.976.218c.12-.54.654-.88 1.193-.76l5.857 1.302c.54.12.879.653.76 1.193-.12.538-.654.879-1.193.759l-5.857-1.302c-.54-.118-.88-.654-.76-1.192z"/><path d="M17.771 18.903c-.466.296-1.083.159-1.38-.308l-3.221-5.061c-.296-.466-.16-1.084.307-1.38.466-.297 1.084-.159 1.38.307l3.222 5.062c.295.466.158 1.083-.308 1.38zm.797 1.252c.466-.296 1.084-.159 1.38.307l3.223 5.062c.296.467.159 1.083-.308 1.381-.466.296-1.084.159-1.381-.307l-3.221-5.062c-.296-.466-.157-1.084.307-1.381z"/><path d="M17.988 17.927c-.539-.12-.879-.654-.759-1.193l1.302-5.857c.119-.539.652-.879 1.192-.759.54.12.879.654.759 1.193l-1.301 5.857c-.119.538-.654.879-1.193.759zm-.217.976c.539.119.879.653.759 1.192l-1.3 5.857c-.121.54-.654.88-1.194.76-.538-.12-.878-.654-.76-1.193l1.303-5.857c.119-.539.653-.879 1.192-.759z"/><path d="M17.771 18.902c-.297-.466-.159-1.083.307-1.38l5.062-3.221c.466-.296 1.084-.16 1.38.307.297.466.159 1.083-.307 1.38l-5.062 3.221c-.466.297-1.084.16-1.38-.307z"/><path d="M17.771 18.902c.296.467.159 1.084-.307 1.381l-5.062 3.222c-.466.296-1.083.16-1.381-.308-.296-.465-.159-1.083.307-1.38l5.062-3.222c.467-.296 1.085-.158 1.381.307z"/></g><path d="M22.012 25.566c.932-.592 2.168-.317 2.762.614.593.932.318 2.168-.614 2.762-.932.593-2.168.318-2.762-.614-.592-.932-.318-2.168.614-2.762zM14.55 13.841c-.932.593-2.168.319-2.761-.613-.593-.932-.318-2.168.614-2.761.932-.593 2.168-.318 2.761.613.593.932.318 2.168-.614 2.761zm1.92 10.918c1.078.241 1.758 1.31 1.52 2.388-.24 1.078-1.308 1.758-2.387 1.519-1.079-.24-1.758-1.309-1.519-2.387.239-1.079 1.308-1.758 2.386-1.52zm3.037-13.665c-1.078-.239-1.758-1.308-1.518-2.386.239-1.078 1.308-1.758 2.386-1.519 1.078.24 1.759 1.308 1.519 2.386-.241 1.079-1.309 1.758-2.387 1.519zm-6.013 10.53c.592.933.317 2.169-.614 2.763-.932.593-2.168.318-2.762-.615-.593-.931-.318-2.167.613-2.761.933-.592 2.169-.318 2.763.613zm9.339-5.943c-.593-.932-.317-2.168.614-2.761.932-.593 2.168-.318 2.761.614s.317 2.168-.613 2.761c-.933.593-2.169.318-2.762-.614zm.795 4.524c.24-1.079 1.309-1.759 2.387-1.52 1.078.24 1.758 1.309 1.519 2.387-.24 1.078-1.309 1.758-2.387 1.518-1.079-.238-1.758-1.307-1.519-2.385zm-12.69-2.821c-.24 1.079-1.308 1.758-2.386 1.519-1.078-.24-1.758-1.309-1.519-2.387.239-1.078 1.308-1.758 2.386-1.519 1.079.241 1.758 1.309 1.519 2.387z" fill="#EA596E"/><circle fill="#FFCC4D" cx="18" cy="18.818" r="4"/></svg>