<svg xmlns="http://www.w3.org/2000/svg" viewBox="0 0 36 36"><path fill="#FFCC4D" d="M21.388.62c-1.852 0-4.235 1.849-6.22 4.826-2.322 3.483-1.069 5.989-.062 8.002.155.31.459.517.805.549.029.001.059.003.089.003.313 0 .61-.147.8-.4 2.394-3.193 6.211-8.196 6.907-8.893C23.895 4.52 24 4.265 24 4 24 1.508 22.65.62 21.388.62zm2.378 8.995c-1.21 0-2.575 1.132-4.565 3.785-2.124 2.831-2.461 5.313-1.095 8.047.151.302.444.507.779.546.038.005.077.007.115.007.295 0 .577-.131.769-.359 1.719-2.063 5.173-6.168 5.938-6.934.188-.188.293-.442.293-.707 0-1.085 0-4.385-2.234-4.385z"/><path fill="#77B255" d="M29.874 11.517c-.268-.482-.878-.654-1.359-.385-7.171 3.983-13.783 14.15-16.367 19.609.838-10.195 5.569-20.044 13.559-28.034.391-.391.391-1.023 0-1.414s-1.023-.391-1.414 0C16.33 9.256 11.466 19.01 10.288 29.174c-.674-5.697-.978-13.91 1.625-19.768.225-.505-.003-1.096-.507-1.32-.505-.226-1.096.003-1.32.507-1.326 2.983-1.945 6.501-2.162 10.009C7.04 16.718 6.001 15 4.472 15h-.046c-.91 0-1.691.466-2.321 1.726-.247.494-.047.922.447 1.169.495.248 1.095.046 1.342-.447.311-.622.525-.77.521-.792.636.196 1.744 2.696 2.162 3.642.196.443.374.842.527 1.15.148.296.425.478.728.529.026 4.957.698 9.53 1.163 12.091l.02.11c.088.483.509.822.984.822.059 0 .119-.005.179-.016.122-.023.231-.071.331-.132.147.086.308.148.491.148s.344-.062.492-.147c.144.085.302.147.482.147H12c.53 0 .971-.448 1-.98.057-1.037 2.494-6.014 6.143-11.043.104-.015.207-.033.305-.082.244-.122.517-.272.808-.433.934-.517 2.494-1.38 3.106-1.02.149.088.638.535.638 2.558 0 .553.447 1 1 1s1-.447 1-1c0-2.236-.53-3.636-1.622-4.28-.783-.461-1.668-.424-2.54-.174 2.32-2.714 4.938-5.165 7.647-6.67.484-.269.658-.876.389-1.359z"/></svg>