<svg xmlns="http://www.w3.org/2000/svg" viewBox="0 0 36 36"><path fill="#3E721D" d="M28 27c-8 0-8 6-8 6V22h-4v11s0-6-8-6c-4 0-7-2-7-2s0 9 9 9h6s0 2 2 2 2-2 2-2h6c9 0 9-9 9-9s-3 2-7 2z"/><path fill="#FFAC33" d="M21.125 27.662c-.328 0-.651-.097-.927-.283l-2.323-1.575-2.322 1.575c-.277.186-.601.283-.929.283-.143 0-.287-.018-.429-.057-.462-.123-.851-.441-1.06-.874l-1.225-2.527-2.797.204c-.04.002-.079.004-.119.004-.438 0-.86-.174-1.17-.484-.34-.342-.516-.81-.481-1.288l.201-2.8-2.523-1.225c-.432-.209-.751-.598-.876-1.062-.125-.464-.042-.958.228-1.356l1.573-2.323-1.573-2.322c-.27-.398-.353-.892-.228-1.357.125-.462.444-.851.876-1.06L7.544 7.91l-.201-2.797c-.034-.48.142-.951.481-1.289.31-.312.732-.485 1.17-.485.04 0 .079 0 .119.003l2.797.201 1.225-2.523c.209-.432.598-.751 1.06-.876.142-.038.285-.057.429-.057.328 0 .651.098.929.285l2.322 1.573L20.198.372c.275-.188.599-.285.927-.285.144 0 .29.02.428.057.465.125.854.444 1.062.876l1.225 2.523 2.8-.201c.037-.003.078-.003.116-.003.438 0 .858.173 1.172.485.338.338.515.809.48 1.289l-.204 2.797 2.527 1.225c.433.209.751.598.874 1.06.124.465.043.96-.227 1.357l-1.575 2.322 1.575 2.323c.269.398.351.892.227 1.356-.123.464-.441.852-.874 1.062l-2.527 1.225.204 2.8c.034.478-.143.946-.48 1.288-.313.311-.734.484-1.172.484-.038 0-.079-.002-.116-.004l-2.8-.204-1.225 2.527c-.209.433-.598.751-1.062.874-.139.04-.284.057-.428.057z"/><circle fill="#732700" cx="18" cy="14" r="7"/></svg>