<svg xmlns="http://www.w3.org/2000/svg" viewBox="0 0 36 36"><path fill="#77B255" d="M19.602 32.329c6.509 6.506 17.254-7.669 15.72-7.669-7.669 0-22.227 1.161-15.72 7.669z"/><path fill="#77B255" d="M15.644 33.372C9.612 39.404-.07 26.263 1.352 26.263c3.81 0 9.374-.348 12.79.867 2.958 1.052 4.304 3.442 1.502 6.242z"/><path fill="#F4ABBA" d="M34.613 15.754c-.052-.901-.175-2.585-1.398-4.227-1.16-1.549-3.805-3.371-5.534-2.585.516-1.676-.264-4.125-1.191-5.49-1.179-1.736-4.262-3.843-8.146-3.026-1.754.369-4.18 2.036-4.632 3.864-1.18-1.471-4.22-1.675-6.015-1.222-2.026.511-3.154 1.777-3.739 2.461l.003-.005-.03.034-.027.033c-.583.689-1.656 1.994-1.847 4.074-.193 2.146.75 5.832 3.026 6.042.149.014.324.031.514.051-2.271.098-3.572 3.654-3.595 5.8-.022 2.102.926 3.506 1.443 4.243l-.003-.004c.008.01.019.024.025.036.007.011.02.023.026.036.523.733 1.525 2.094 3.515 2.776 1.958.669 5.553.656 6.567-1.236-.273 2.244 3.027 4.077 5.169 4.438 2.115.358 3.71-.358 4.55-.753l-.005.003c.013-.008.028-.015.041-.021l.041-.02c.838-.4 2.398-1.178 3.462-3.04.729-1.282 1.27-3.403.951-5.015l.192.127c1.826 1.224 4.63-1.119 5.705-2.938 1.044-1.761.932-4.424.932-4.436z"/><path fill="#EA596E" d="M27.542 13.542c-1.786-.997-4.874-.434-6.792.308-.266-.468-.621-.875-1.051-1.196 1.393-1.607 3.526-4.593 1.468-6.362-2.191-1.883-3.74 2.154-3.575 5.605-.068-.003-.132-.02-.201-.02-1.019 0-1.94.402-2.632 1.045-1.401-2.277-3.942-4.244-5.314-2.392-1.482 2.002 1.148 3.153 4.222 4.2-.09.329-.154.668-.154 1.025 0 .456.093.887.238 1.293-2.541.732-6.236 2.718-4.21 4.91 2.122 2.296 4.472-1.238 5.604-3.053.635.454 1.407.727 2.247.727.225 0 .441-.029.655-.066-.109 4.802 1.443 7.07 4.036 5.892 2.295-1.043-.137-5.299-1.781-7.165.316-.362.564-.779.729-1.241 7.008 2.544 8.589-2.351 6.511-3.51z"/><path fill="#BE1931" d="M17.707 17.459c-.679 0-.668-.562-.832-1.25-.532-2.233-2.381-6.308-4.601-9.163-.509-.654-.391-1.596.263-2.105.654-.508 1.596-.391 2.105.263 2.439 3.136 3.264 7.404 3.982 10.421.191.806.237 1.601-.569 1.792-.116.028-.233.042-.348.042z"/><path fill="#FFCC4D" d="M15.904 5.327c.498.684.079 1.838-.936 2.578l-.475.347c-1.016.739-2.243.785-2.741.101l-2.78-3.817c-.498-.684-.079-1.838.936-2.577l.475-.347c1.015-.739 2.242-.785 2.74-.101l2.781 3.816z"/></svg>