<svg xmlns="http://www.w3.org/2000/svg" viewBox="0 0 36 36"><path fill="#C1694F" d="M21.978 20.424c-.054-.804-.137-1.582-.247-2.325-.133-.89-.299-1.728-.485-2.513-.171-.723-.356-1.397-.548-2.017-.288-.931-.584-1.738-.852-2.4-.527-1.299-.943-2.043-.943-2.043l-3.613.466s.417.87.868 2.575c.183.692.371 1.524.54 2.495.086.49.166 1.012.238 1.573.1.781.183 1.632.242 2.549.034.518.058 1.058.074 1.619.006.204.015.401.018.611.01.656-.036 1.323-.118 1.989-.074.6-.182 1.197-.311 1.789-.185.848-.413 1.681-.67 2.475-.208.643-.431 1.261-.655 1.84-.344.891-.69 1.692-.989 2.359-.502 1.119-.871 1.863-.871 2.018 0 .49.35 1.408 2.797 2.02 3.827.956 4.196-.621 4.196-.621s.243-.738.526-2.192c.14-.718.289-1.605.424-2.678.081-.642.156-1.348.222-2.116.068-.8.125-1.667.165-2.605.03-.71.047-1.47.055-2.259.002-.246.008-.484.008-.737 0-.64-.03-1.261-.071-1.872z"/><path fill="#D99E82" d="M18.306 30.068c-1.403-.244-2.298-.653-2.789-.959-.344.891-.69 1.692-.989 2.359.916.499 2.079.895 3.341 1.114.729.127 1.452.191 2.131.191.414 0 .803-.033 1.176-.08.14-.718.289-1.605.424-2.678-.444.157-1.548.357-3.294.053zm1.06-4.673c-1.093-.108-1.934-.348-2.525-.602-.185.848-.413 1.681-.67 2.475.864.326 1.881.561 2.945.666.429.042.855.064 1.27.064.502 0 .978-.039 1.435-.099.068-.8.125-1.667.165-2.605-.628.135-1.509.21-2.62.101zm.309-2.133c.822 0 1.63-.083 2.366-.228.002-.246.008-.484.008-.737 0-.641-.029-1.262-.071-1.873-.529.138-1.285.272-2.352.286-1.084-.005-1.847-.155-2.374-.306.006.204.015.401.018.611.01.656-.036 1.323-.118 1.989.763.161 1.605.253 2.461.257l.062.001zm-.249-4.577c.825-.119 1.59-.333 2.304-.585-.133-.89-.299-1.728-.485-2.513-.496.204-1.199.431-2.181.572-.91.132-1.605.124-2.129.077.1.781.183 1.632.242 2.549.152.006.29.029.446.029.588.001 1.2-.043 1.803-.129zm1.271-5.116c-.288-.931-.584-1.738-.852-2.4-.443.222-1.004.456-1.737.659-.795.221-1.437.309-1.951.339.183.692.371 1.524.54 2.495.681-.068 1.383-.179 2.094-.376.679-.188 1.31-.44 1.906-.717z"/><path fill="#3E721D" d="M32.61 4.305c-.044-.061-4.48-5.994-10.234-3.39-2.581 1.167-4.247 3.074-4.851 5.535-1.125-1.568-2.835-2.565-5.093-2.968C6.233 2.376 2.507 9.25 2.47 9.32c-.054.102-.031.229.056.305s.217.081.311.015c.028-.02 2.846-1.993 7.543-1.157 4.801.854 8.167 1.694 8.201 1.702.02.005.041.007.061.007.069 0 .136-.028.184-.08.032-.035 3.22-3.46 6.153-4.787 4.339-1.961 7.298-.659 7.326-.646.104.046.227.018.298-.07.072-.087.075-.213.007-.304z"/><path fill="#5C913B" d="M27.884 7.63c-4.405-2.328-7.849-1.193-9.995.22-2.575-.487-7.334-.459-11.364 4.707-4.983 6.387-.618 14.342-.573 14.422.067.119.193.191.327.191.015 0 .031-.001.046-.003.151-.019.276-.127.316-.274.015-.054 1.527-5.52 5.35-10.118 2.074-2.496 4.55-4.806 6.308-6.34 1.762.298 4.327.947 6.846 2.354 4.958 2.773 7.234 7.466 7.257 7.513.068.144.211.226.379.212.158-.018.289-.133.325-.287.02-.088 1.968-8.8-5.222-12.597z"/></svg>