<svg xmlns="http://www.w3.org/2000/svg" viewBox="0 0 36 36"><path fill="#77B255" d="M20.917 22.502c-2.706-.331-3.895-1.852-6.273-4.889 3.039-2.376 4.559-3.565 7.266-3.235 2.71.332 5.25 2.016 6.273 4.889-1.683 2.543-4.557 3.563-7.266 3.235zm-5.959 8.814c-2.549-.187-3.733-1.553-6.098-4.288 2.735-2.364 4.102-3.547 6.652-3.364 2.551.185 5.009 1.644 6.098 4.287-1.459 2.458-4.1 3.548-6.652 3.365zm-6.22-15.707c1.338 1.631 1.191 3.117.898 6.088-2.97-.294-4.456-.44-5.795-2.071-1.339-1.634-1.861-3.935-.898-6.088 2.301-.524 4.456.439 5.795 2.071zm21.116-5.448c-2.435 1.02-4.16.314-7.613-1.097 1.411-3.453 2.118-5.18 4.549-6.203 2.434-1.021 5.378-.826 7.612 1.096-.194 2.944-2.117 5.181-4.548 6.204zM17.103 6.608c.874 2.869-.124 4.742-2.119 8.488-3.745-1.996-5.619-2.994-6.494-5.864-.876-2.872-.315-6.18 2.118-8.49 3.308.561 5.619 2.993 6.495 5.866z"/><path fill="#A6D388" d="M8.49 9.232c.862 2.828 2.702 3.843 6.338 5.781v-.005c-.07-2.521-2.733-10.876-4.267-14.214C8.172 3.102 7.62 6.381 8.49 9.232zm-5.592 4.429c-.89 2.118-.371 4.362.943 5.965 1.34 1.632 2.826 1.777 5.795 2.071-.997-1.937-4.911-6.388-6.738-8.036z"/><path fill="#5C913B" d="M21.91 14.378c-2.563-.312-4.077.75-6.808 2.879 1.746.105 8.786.745 13.06 2.037.006-.01.015-.017.021-.027-1.023-2.873-3.563-4.557-6.273-4.889zm-.304 13.565c-1.091-2.637-3.545-4.094-6.094-4.279-2.5-.179-3.87.961-6.498 3.232 2.767-.305 7.905-.87 12.592 1.047z"/><path fill="#A6D388" d="M22.421 9.137c3.327 1.359 5.043 2.024 7.432 1.024 2.419-1.018 4.332-3.239 4.542-6.16-3.922.761-10.391 4.15-11.974 5.136z"/><path fill="#A06253" d="M4.751 35.061c-.584-.091-1.363-.831-1.273-1.416.546-3.562 2.858-12.168 18.298-24.755.458-.375.976-.659 1.364-.212.391.447-.052.95-.498 1.339C9.354 21.587 7.128 30.751 6.619 34.082c-.091.585-1.283 1.067-1.868.979z"/></svg>