<svg xmlns="http://www.w3.org/2000/svg" viewBox="0 0 36 36"><path fill="#77B255" d="M32.551 18.852c-2.093-1.848-6.686-3.264-10.178-3.84 3.492-.577 8.085-1.993 10.178-3.839 2.014-1.776 2.963-2.948 2.141-4.722-.566-1.219-2.854-1.333-4.166-2.491C29.214 2.802 29.083.783 27.7.285c-2.01-.726-3.336.114-5.347 1.889-2.094 1.847-3.698 5.899-4.353 8.98-.653-3.082-2.258-7.134-4.351-8.981C11.634.397 10.308-.441 8.297.285c-1.383.5-1.512 2.518-2.823 3.675S1.872 5.234 1.308 6.454c-.823 1.774.129 2.943 2.14 4.718 2.094 1.847 6.688 3.263 10.181 3.84-3.493.577-8.087 1.993-10.181 3.84-2.013 1.775-2.963 2.945-2.139 4.721.565 1.219 2.854 1.334 4.166 2.49 1.311 1.158 1.444 3.178 2.827 3.676 2.009.727 3.336-.115 5.348-1.889 1.651-1.457 2.997-4.288 3.814-6.933-.262 4.535.528 10.591 3.852 14.262 1.344 1.483 2.407.551 2.822.187.416-.365 1.605-1.414.186-2.822-3.91-3.883-5.266-7.917-5.628-11.14.827 2.498 2.107 5.077 3.657 6.446 2.012 1.775 3.339 2.615 5.351 1.889 1.382-.5 1.512-2.52 2.822-3.676 1.312-1.158 3.602-1.273 4.166-2.494.822-1.774-.13-2.944-2.141-4.717z"/></svg>