<svg xmlns="http://www.w3.org/2000/svg" viewBox="0 0 36 36"><path fill="#5C913B" d="M2.472 6.572C1.528 8.698 1 11.038 1 13.5 1 23.165 9.059 31 19 31c7.746 0 14.33-4.767 16.868-11.44L2.472 6.572z"/><path fill="#FFE8B6" d="M4.332 7.295C3.479 9.197 3 11.293 3 13.5c0 8.591 7.164 15.556 16 15.556 6.904 0 12.77-4.26 15.013-10.218L4.332 7.295z"/><path fill="#DD2E44" d="M6.191 8.019C5.43 9.697 5 11.548 5 13.5c0 7.518 6.268 13.611 14 13.611 6.062 0 11.21-3.753 13.156-8.995L6.191 8.019z"/><path d="M9.916 14.277c-.307.46-.741.708-.971.555-.23-.153-.168-.649.139-1.109.307-.46.741-.708.971-.555.23.153.168.649-.139 1.109zm6 1c-.307.46-.741.708-.971.555-.23-.153-.168-.649.139-1.109.307-.46.741-.708.971-.555.23.153.168.649-.139 1.109zm5.082 4.678c.05.551-.132 1.016-.406 1.041-.275.025-.538-.4-.588-.951-.051-.551.132-1.016.406-1.04.275-.026.538.398.588.95zm-9-2c.05.551-.132 1.016-.406 1.041-.275.025-.538-.4-.588-.951-.05-.551.132-1.016.406-1.04.276-.026.538.398.588.95zm3.901 5.346c-.333.441-.78.663-1 .497-.221-.166-.129-.658.205-1.099.333-.441.781-.663 1-.497.221.166.13.657-.205 1.099zm8.036.454c.273.481.299.979.06 1.115-.241.137-.656-.143-.929-.624-.273-.48-.299-.979-.059-1.115.241-.138.655.141.928.624zm-7.017-5.028c.303.463.362.958.131 1.109-.231.152-.663-.1-.966-.562-.303-.462-.361-.958-.131-1.108.231-.154.663.097.966.561zm8.981 1.574c-.333.441-.78.663-1.001.497-.221-.166-.129-.658.205-1.099.333-.442.78-.663 1-.497.222.166.131.657-.204 1.099z"/></svg>