<svg xmlns="http://www.w3.org/2000/svg" viewBox="0 0 36 36"><path fill="#77B255" d="M9.999 12c-.15 0-.303-.034-.446-.106-4.38-2.19-7.484-7.526-8.501-10.578C.876.792 1.16.226 1.684.051c.525-.176 1.091.109 1.265.632.877 2.632 3.688 7.517 7.499 9.422.494.247.694.848.447 1.342-.176.351-.529.553-.896.553z"/><circle fill="#553788" cx="19" cy="29" r="7"/><circle fill="#9266CC" cx="10" cy="15" r="7"/><circle fill="#AA8DD8" cx="19" cy="12" r="7"/><circle fill="#744EAA" cx="27" cy="18" r="7"/><circle fill="#744EAA" cx="9" cy="26" r="7"/><circle fill="#9266CC" cx="18" cy="21" r="7"/><circle fill="#9266CC" cx="29" cy="29" r="7"/></svg>