<svg xmlns="http://www.w3.org/2000/svg" viewBox="0 0 36 36"><path fill="#5C913B" d="M11.405 3.339c6.48-1.275 8.453 1.265 11.655.084 3.202-1.181.093 2.82-.745 3.508-.84.688-8.141 4.809-11.307 3.298-3.166-1.511-3.182-6.186.397-6.89z"/><path fill="#77B255" d="M15.001 16c-.304 0-.605-.138-.801-.4-.687-.916-1.308-1.955-1.965-3.056C9.967 8.749 7.396 4.446.783 2.976c-.539-.12-.879-.654-.759-1.193.12-.54.654-.878 1.193-.759C8.671 2.68 11.599 7.581 13.952 11.519c.63 1.054 1.224 2.049 1.848 2.881.332.442.242 1.069-.2 1.4-.18.135-.39.2-.599.2z"/><path fill="#FFCC4D" d="M34.3 31.534c.002-.017-.003-.028-.003-.043 2.774-5.335 2.647-15.113-3.346-21.107-5.801-5.8-13.68-5.821-18.767-4.067-1.579.614-2.917.066-3.815.965-.881.881-.351 2.719-.714 3.819-3.169 5.202-3.405 13.025 2.688 19.117 4.962 4.962 10.438 6.842 19.98 4.853.002-.002.005-.001.008-.002 1.148-.218 2.95.523 3.566-.094 1.085-1.085.309-2.358.403-3.441z"/><path fill="#77B255" d="M8.208 6.583s-4.27-.59-6.857 4.599c-2.587 5.188.582 9.125.29 12.653-.293 3.53 1.566 1.265 2.621-.445s4.23-4.895 4.938-9.269c.707-4.376-.07-6.458-.992-7.538z"/></svg>