<svg xmlns="http://www.w3.org/2000/svg" viewBox="0 0 36 36"><path fill="#F4900C" d="M18 4c7.257 0 13 4 14.699 2 .197-.323.301-.657.301-1 0-2-6.716-5-15-5C9.716 0 3 3 3 5c0 .343.104.677.301 1C5 8 10.743 4 18 4z"/><path fill="#FFCC4D" d="M18 3C11.787 3 7.384 4.81 5.727 5.618c-.477.233-.539.84-.415 1.278S16 34 16 34s.896 2 2 2 2-2 2-2L30.704 6.779s.213-.842-.569-1.229C28.392 4.689 24.047 3 18 3z"/><g fill="#BE1931"><path d="M18 31c0-2.208-1.791-4-4-4-.254 0-.5.029-.741.075L16 34s.071.14.19.342C17.279 33.627 18 32.399 18 31zm-1-11c0-2.209-1.792-4-4-4-1.426 0-2.67.752-3.378 1.876l2.362 5.978c.327.086.663.146 1.016.146 2.208 0 4-1.792 4-4z"/><circle cx="16" cy="8" r="4"/><path d="M25 9c-2.208 0-4 1.791-4 4s1.792 4 4 4c.682 0 1.315-.187 1.877-.488l1.89-4.806C28.227 10.135 26.752 9 25 9zm-6 16c0 1.868 1.288 3.425 3.019 3.864l2.893-7.357C24.342 21.194 23.697 21 23 21c-2.208 0-4 1.792-4 4zm-9-13c0-2.209-1.791-4-4-4-.087 0-.169.02-.255.026.55 1.412 1.575 4.016 2.775 7.057C9.416 14.349 10 13.248 10 12z"/></g></svg>