<svg xmlns="http://www.w3.org/2000/svg" viewBox="0 0 36 36"><path fill="#DD2E44" d="M18 36C3.042 36 1 21 1 17h34c0 2-1.958 19-17 19z"/><ellipse fill="#A0041E" cx="18" cy="17.056" rx="17" ry="9.444"/><path fill="#E6E9EA" d="M18 25c-6 0-16-3-16-8C2 11 8.125 4 18 4s16 8 16 13-9 8-16 8z"/><path d="M15.41 19.892c.419.359.468.991.108 1.41-.359.419-.991.468-1.41.108l-1.519-1.302c-.419-.359-.468-.991-.108-1.41.359-.419.991-.468 1.41-.108l1.519 1.302zm-8.127-1.507c-.304.46-.925.587-1.386.283-.46-.305-.587-.925-.283-1.386l1.103-1.669c.305-.461.925-.587 1.386-.283.46.305.587.925.283 1.386l-1.103 1.669zm23 0c-.305.46-.926.587-1.387.283-.46-.305-.587-.925-.282-1.386l1.103-1.669c.305-.461.926-.587 1.386-.283.46.305.587.925.283 1.386l-1.103 1.669zm-6.103-3.606c.11.541-.239 1.069-.78 1.18-.541.11-1.069-.239-1.18-.78l-.399-1.96c-.11-.541.238-1.069.78-1.179.541-.111 1.069.239 1.179.78l.4 1.959zm-7.54-3.958c-.345-.14-.511-.534-.37-.879.14-.344.534-.51.878-.37l1.249.509c.345.14.51.533.37.878-.141.345-.534.511-.879.37l-1.248-.508zm-9.296 1.567c-.307.211-.727.133-.938-.175-.21-.307-.132-.727.175-.937l1.113-.762c.307-.21.726-.132.937.175.21.307.132.727-.175.938l-1.112.761zm13.593 8.545c-.551-.036-.969-.513-.933-1.064.037-.55.513-.968 1.062-.933l1.997.131c.55.035.969.512.933 1.062-.035.551-.511.97-1.062.933l-1.997-.129zm-9.241-6.386c-.512-.208-.758-.793-.549-1.304.209-.511.793-.757 1.304-.549l1.853.755c.511.208.757.791.549 1.303-.208.512-.792.758-1.304.549l-1.853-.754zm15.945-2.726c-.346-.14-.512-.534-.37-.879.14-.344.534-.51.878-.37l1.25.509c.344.14.51.533.369.878-.141.345-.533.511-.879.37l-1.248-.508z" fill="#CCD6DD"/></svg>