<svg xmlns="http://www.w3.org/2000/svg" viewBox="0 0 36 36"><path fill="#FFD983" d="M14.017 10.368L8.173 4.524c.847-1.017.805-2.525-.15-3.479-1.011-1.011-2.65-1.011-3.662 0-.621.621-.856 1.478-.715 2.282-.804-.141-1.661.094-2.282.715-1.011 1.011-1.011 2.651 0 3.662.954.955 2.462.996 3.479.15l5.844 5.844 3.33-3.33zm11.918 11.919l5.845 5.844c1.017-.846 2.524-.805 3.479.15 1.012 1.011 1.012 2.65 0 3.661-.621.621-1.479.856-2.282.716.142.804-.095 1.661-.716 2.281-1.011 1.012-2.65 1.012-3.661 0-.955-.954-.996-2.462-.149-3.479l-5.845-5.844 3.329-3.329z"/><path fill="#C1694F" d="M30.021 15.879c-1.632-1.633-4.113-1.543-6.234-3.665-2.121-2.121-2.032-4.602-3.665-6.235-3.515-3.515-7.018-1.467-11.313 2.829-4.296 4.296-6.343 7.799-2.829 11.313 1.633 1.633 4.114 1.544 6.235 3.665 2.122 2.121 2.032 4.603 3.665 6.234 3.515 3.515 7.018 1.468 11.314-2.828s6.341-7.798 2.827-11.313z"/><path fill="#662113" d="M14 23c-.104 0-.211-.017-.316-.052-.524-.174-.807-.74-.632-1.265 1.109-3.328 5.305-7.523 8.632-8.632.528-.176 1.09.108 1.265.632.175.524-.108 1.09-.632 1.265-2.686.895-6.473 4.682-7.368 7.368-.14.419-.53.684-.949.684z"/></svg>