<svg xmlns="http://www.w3.org/2000/svg" viewBox="0 0 36 36"><path fill="#5C913B" d="M1.062 5.125s4.875-5 10-5C17.188.125 19 5.062 19 5.062s.625-4 5-4 6.938 3.125 6.938 3.125-3.562 2.125-4.625 2.562c-2.801 1.153-11.375 3.562-15.375 2.562S1.062 5.125 1.062 5.125z"/><path fill="#FF886C" d="M18 6s1.042-.896 6-.896c6.542 0 12 4.812 12 12.927 0 11.531-14.958 17.881-14.958 17.881S1 34.833 1 17.977C1 8.018 7.75 5 12 5c4.958 0 6 1 6 1z"/><path fill="#77B255" d="M1.062 5.125s4.875-5 10-5C17.188.125 19 5.062 19 5.062s-4.062 5.25-8.062 4.25-9.876-4.187-9.876-4.187z"/><path fill="#DD2E44" d="M22.999 30c-.19 0-.383-.055-.554-.168-.46-.307-.584-.927-.277-1.387C22.183 28.423 24 25.538 24 19c0-6.445-4.578-10.182-4.625-10.219-.431-.345-.501-.974-.156-1.405.346-.431.975-.501 1.406-.156C20.844 7.395 26 11.604 26 19c0 7.22-2.079 10.422-2.168 10.555-.192.289-.51.445-.833.445z"/></svg>