<svg xmlns="http://www.w3.org/2000/svg" viewBox="0 0 36 36"><path fill="#B90053" d="M9.441 14.595c.458-1.372 7.41-7.525 13.286-10.22 1.528-.701 6.602-2.834 8.35-3.271C34.681.203 36.167.09 35.666 3.75c-.708 5.171-4.619 12.596-8.707 19.751-2.68 4.213-4.232 6.423-10.365 3.356-6.13-3.064-9.196-6.13-7.153-12.262z"/><path fill="#FFCC4D" d="M22.491 14.76c3.816 3.768 4.498 9.263 1.524 12.276-2.974 3.014-8.477 2.4-12.294-1.365-3.816-3.768-4.499-9.264-1.525-12.276 2.975-3.013 8.479-2.401 12.295 1.365z"/><path fill="#8E0042" d="M26.96 6.377c1.14.57 2.703 3.605 2.703 4.506 0 .901-.901-.901-2.703-2.704-1.803-1.802-1.803-2.703 0-1.802zm.181 8.03c.607.578 1.009 2.787.836 3.354-.173.567-.395-.74-1.183-2.22-.789-1.48-.615-2.047.347-1.134z"/><path fill="#B90053" d="M21 32c0 2.209-4.477 4-10 4S1 34 1 32c0-.371-.203-2.6.084-2.958C2.34 27.469 6.502 28 11 28c4.908 0 9.133-.865 9.979 1 .107.233.021 2.754.021 3z"/><ellipse fill="#FFD671" cx="11" cy="29" rx="10" ry="4"/></svg>