<svg xmlns="http://www.w3.org/2000/svg" viewBox="0 0 36 36"><path fill="#FFAC33" d="M30.414 9.28c-2.266-3.135-6.545-6.934-14.066-7.232l-.372-.015-.126.35c-.063.176-.302.519-.532.851-.679.979-1.609 2.319-1.212 3.52.221.669.814 1.17 1.764 1.491 1.893.639 5.829 3.862 6.602 7.745.215 1.076.155 2.111-.144 3.105-1.624-3.031-4.566-4.938-8.158-4.938-5.814 0-9.527 4.787-9.527 10.67 0 5.082 3.713 10.671 9.527 10.671.029 0 .058-.004.086-.004l.091.006c.602.043 1.608.113 2.826.113 6.086 0 13.838-1.729 16.201-9.968 1.554-5.419.421-11.69-2.96-16.365z"/><path d="M18.911 30.798c-.17.636 2.905 1.47 5.61-1.461 3.049-3.303 3.239-11.623-3.789-17.297-.071-.021-.133-.033-.2-.049.909 1.172 1.648 2.539 1.938 3.999.208 1.04.154 2.04-.12 3.004 1.932 3.715 2.909 9.93-3.439 11.804zm11.962-6.542c.759-.091 1.894-.461 2.991-.937.104-.723.164-1.455.182-2.19-.908.835-1.941 1.532-2.793 1.92-1.397.636-1.968 1.397-.38 1.207zm-.89-8.257c-2.223 2.032.101 1.333 1.398.508.761-.484 1.315-1.189 1.687-1.972-.429-1.311-.995-2.578-1.693-3.769.118 2.073-.098 4.051-1.392 5.233z" fill="#F4900C"/><path fill="#FF839B" d="M20.896 3.385c-.043-.434-.357-.791-.782-.889C18.519 2.128 7.344.435 4.96.435l-.195.003c-1.421.065-2.507.79-2.768 1.848-.123.498-.209 1.771 1.624 2.84.551.322.887.661.899.908.01.235-.261.712-1.062 1.283-.794.567-1.119 1.442-.85 2.284.331 1.033 1.467 1.728 2.828 1.728.744 0 1.513-.196 2.285-.582 1.996-.999 4.682-1.643 6.844-1.643 1.066 0 1.971.15 2.689.445.362.149.717.225 1.053.225.619 0 1.965-.2 1.6-.722-2.647-3.787 1.059-4.98.989-5.667z"/><path fill="#EA596E" d="M2.533 4.243c.252.297.597.597 1.088.883.551.322.887.661.899.908.01.235-.261.712-1.062 1.283-.604.431-.932 1.041-.938 1.679 10.696-3.803 3.099-2.197.013-4.753z"/></svg>