<svg xmlns="http://www.w3.org/2000/svg" viewBox="0 0 36 36"><path fill="#FFAC33" d="M35.337 23.549C34.291 29.819 27.615 34 18.092 34S1.894 29.819.849 23.549c-.247-1.479.156-8.12 1.054-9.406 2.559-3.664 3.474 10.365 16.189 10.365 13.847 0 13.64-14.028 16.199-10.365.898 1.286 1.292 7.927 1.046 9.406z"/><path fill="#8A4B38" d="M18.092 5.995c-9.331 0-16.895 4.584-16.895 10.239 0 5.655 7.564 10.24 16.895 10.24 9.33 0 16.895-4.585 16.895-10.24S27.422 5.995 18.092 5.995zm0 13.374c-3.174 0-5.748-.702-5.748-1.568 0-.866 2.574-1.567 5.748-1.567 3.173 0 5.747.701 5.747 1.567.001.866-2.573 1.568-5.747 1.568z"/><path fill="#8A4B38" d="M1.72 14.623c-.653 1.045-.92 5.494.479 7.577 2.134 3.18 3.179 1.567 4.747 2.047 2.335.715 2.508 2.56 4.354 3.483 2.09 1.045 3.306.741 6.27 0 4.181-1.045 6.837 1.088 9.405 0 2.107-.893 3.312-4.137 4.486-4.528 3.728-1.242 4.515-7.124 1.741-9.537-.87 1.829-5.138 8.404-7.881 8.71-2.744.305-10.974 1-14.457-.784-3.484-1.785-7.01-4.006-7.446-4.616-.436-.611-1.698-2.352-1.698-2.352z"/><path fill="#F4900C" d="M18.092 13.882c-3.752 0-6.793 1.228-6.793 2.743 0 .589.463 1.133 1.245 1.58-.126-.129-.2-.264-.2-.404 0-.866 2.574-1.567 5.748-1.567 3.173 0 5.747.701 5.747 1.567 0 .14-.073.274-.2.404.782-.447 1.246-.991 1.246-1.58.001-1.515-3.041-2.743-6.793-2.743z"/><path fill="#F4ABBA" d="M4.42 18.15c-.375 0-.737-.203-.925-.557-.27-.51-.075-1.143.436-1.412l2.308-1.22c.509-.272 1.142-.075 1.412.436.27.51.075 1.143-.436 1.412l-2.308 1.22c-.156.082-.323.121-.487.121zm11.887 7.794c-.41 0-.799-.242-.966-.646l-.74-1.786c-.221-.533.032-1.144.565-1.365.534-.22 1.144.032 1.365.566l.74 1.786c.221.533-.032 1.145-.566 1.365-.129.055-.265.08-.398.08z"/><path fill="#55ACEE" d="M28.151 21.764c-.181 0-.364-.047-.53-.146-.497-.293-.662-.935-.368-1.431l1.132-1.916c.293-.496.938-.661 1.431-.368.497.294.662.935.368 1.432l-1.132 1.915c-.195.33-.543.514-.901.514z"/><path fill="#F4ABBA" d="M29.893 14c-.56 0-1.023-.481-1.043-1.046-.021-.576.431-1.079 1.007-1.1l1.218-.052c.587-.007 1.062.426 1.081 1.003.021.577-.431 1.096-1.007 1.116L29.931 14h-.038zM19.792 9.876c-.444 0-.855-.285-.997-.73-.174-.55.131-1.137.681-1.312l.826-.261c.556-.174 1.138.131 1.312.682.175.55-.131 1.137-.681 1.312l-.826.261c-.105.033-.211.048-.315.048z"/><path fill="#88C9F9" d="M13.998 11.574c-.157 0-.316-.036-.466-.11l-.784-.392c-.516-.258-.726-.886-.468-1.402.258-.516.886-.726 1.402-.468l.784.392c.516.258.726.886.468 1.402-.184.366-.553.578-.936.578zm9.102 13.28c-.156 0-.315-.035-.465-.109l-.784-.391c-.517-.258-.727-.885-.47-1.401.257-.517.884-.727 1.401-.47l.784.391c.517.258.727.885.47 1.401-.182.367-.553.579-.936.579z"/><path fill="#55ACEE" d="M9.426 22.548c-.138 0-.277-.026-.412-.085-.53-.228-.776-.842-.548-1.372l.392-.914c.228-.529.843-.779 1.373-.548.53.227.776.842.548 1.372l-.392.914c-.17.395-.555.633-.961.633zm15.592-9.885c-.403 0-.787-.234-.958-.627-.232-.529.01-1.145.538-1.376l.696-.305c.53-.232 1.146.01 1.376.538.231.529-.01 1.145-.538 1.377l-.696.305c-.137.06-.279.088-.418.088zM8.035 12.62c-.078 0-.157-.009-.235-.027l-.566-.13c-.562-.13-.914-.691-.784-1.253.129-.563.691-.913 1.253-.784l.566.13c.562.13.914.691.784 1.253-.112.483-.543.811-1.018.811z"/></svg>