<svg xmlns="http://www.w3.org/2000/svg" viewBox="0 0 36 36"><path fill="#C1694F" d="M26.339 33.496c-1.562 1.561-4.095 1.561-5.657 0L1.59 14.404c-1.562-1.562-1.562-2.681 0-4.243l8.485-8.485c1.562-1.562 2.681-1.562 4.243 0L33.41 20.768c1.562 1.562 1.562 4.095 0 5.657l-7.071 7.071z"/><path fill="#8A4B38" d="M16.582 15.253l-4.885-4.885 5.657-5.657-1.415-1.414-5.656 5.657L6.54 5.211 5.126 6.626l3.743 3.742-5.657 5.657 1.414 1.414 5.657-5.657 4.885 4.885z"/><path fill="#DD2E44" d="M26.339 34.91c-1.562 1.562-4.095 1.562-5.657 0l-9.899-9.899 14.142-14.142 9.899 9.899c1.562 1.562 1.562 4.095 0 5.657l-8.485 8.485z"/><path fill="#BE1931" d="M12.825 27.053l4.673 4.674 7.955-20.33-.528-.529-1.504-.932z"/><path fill="#CCD6DD" d="M22.804 8.747l2.121 2.121c-.707 2.122-8.485 15.557-9.9 18.385 0 0-.707 2.121-2.475.354l-5.304-5.304c-.679-.679-.685-2.142 0-2.828L19.975 8.747c1.414-1.414 2.829 0 2.829 0z"/></svg>