<svg xmlns="http://www.w3.org/2000/svg" viewBox="0 0 36 36"><path fill="#EEE" d="M29.462 7.969c-.395-.23-.914-.337-1.633-.337-5.581 0-24.582 7.088-25.388 7.39-.177.066-.332.181-.446.332C.755 16.988 1 23 3 26c2.755 4.133 6.821 5.304 8.778 5.495.032.003.108.007.14.007 2.458 0 18.332-10.761 19.524-13.234 1.371-2.843 1.281-8.4-1.98-10.299z"/><path fill="#CCD6DD" d="M26 10c-4 3-13 9-13 9-.714 2.141-1.923 8.343-.748 12.454 3.29-.745 18.042-10.805 19.19-13.186 1.035-2.145 1.235-5.834-.13-8.332C29.564 8.904 27.693 8.73 26 10z"/><path fill="#A0041E" d="M32.018 6.521c-.227-.213-.541-.309-.846-.257L1.796 11.097c-.493.081-.85.514-.837 1.013.026 1.01.019 1.746.01 2.573-.005.46-.01.948-.01 1.525 0 .297.132.58.361.77 2.033 1.687 8.714 6.157 10.233 6.917.141.07.295.105.447.105.216 0 .432-.07.61-.207 2.556-1.967 16.483-9.93 18.663-10.875.335-.145.565-.463.598-.827.125-1.372.458-4.741.458-4.741.03-.311-.084-.617-.311-.829z"/><path fill="#DD2E44" d="M32.085 6.589c-2.02-2.295-9.627-5.574-10.917-5.63-.081-.004-.159.002-.238.018C10.824 2.991 4.211 8.783 1.721 10.964l-.416.362c-.232.2-.359.496-.346.802.014.306.167.589.416.768.339.243 8.316 5.96 10.257 7.058.154.086.323.129.492.129.24 0 .479-.087.667-.254 3.915-3.499 17.1-10.961 18.899-11.644.307-.117.536-.376.615-.694.079-.319-.003-.656-.22-.902z"/><path fill="#EA596E" d="M9.166 17.417c-.478 0-.9-.343-.984-.83l-.046-.267c-.398-2.308-.849-4.925-1.669-7.425-.173-.524.114-1.089.638-1.262.524-.173 1.09.114 1.262.639.866 2.639 1.33 5.332 1.739 7.708l.046.266c.094.544-.271 1.062-.815 1.155-.057.011-.115.016-.171.016zm6.042-.25c-.529 0-.971-.416-.998-.95-.077-1.54-1.186-7.973-2.19-10.705-.19-.519.075-1.093.593-1.284.522-.191 1.094.075 1.284.593 1.064 2.895 2.217 9.435 2.31 11.295.028.551-.397 1.021-.949 1.048-.016.002-.033.003-.05.003zm5.625-3.792c-.487 0-.913-.355-.988-.852l-.113-.787c-.293-2.061-.839-5.897-1.68-8.42-.175-.524.108-1.09.632-1.265.526-.175 1.09.109 1.265.632.898 2.695 1.461 6.647 1.763 8.771l.112.772c.082.546-.295 1.055-.841 1.137-.05.009-.101.012-.15.012zm5.666-3.417c-.508 0-.942-.385-.994-.901-.186-1.863-.473-3.22-.989-4.684-.184-.521.09-1.092.61-1.275.523-.184 1.092.089 1.276.61.565 1.604.893 3.144 1.093 5.15.055.549-.347 1.039-.896 1.094-.034.005-.067.006-.1.006z"/><path fill="#292F33" d="M32.136 23c-1.714-1.235-4.055-2-6.636-2s-4.922.765-6.636 2H16v5c0 3.859 4.262 7 9.5 7s9.5-3.141 9.5-7v-5h-2.864z"/><ellipse fill="#292F33" cx="25.5" cy="23" rx="9.5" ry="7"/><g fill="#E1E8ED"><path d="M32.583 23c0 2.762-3.171 5-7.083 5s-7.083-2.238-7.083-5 3.171-5 7.083-5 7.083 2.238 7.083 5z"/><path d="M25.5 28.833c-4.365 0-7.917-2.616-7.917-5.833s3.552-5.833 7.917-5.833 7.916 2.617 7.916 5.833-3.551 5.833-7.916 5.833zm0-10c-3.446 0-6.25 1.869-6.25 4.167s2.804 4.167 6.25 4.167 6.25-1.869 6.25-4.167-2.804-4.167-6.25-4.167z"/></g><g fill="#77B255"><path d="M21.209 22.542c0-.422 1.806-.335 4.291-.335s4.209-.546 4.209-.124c0 1.775-1.724 3.552-4.209 3.552s-4.291-1.318-4.291-3.093z"/><path d="M25.5 26.135c-2.776 0-4.791-1.511-4.791-3.593 0-.172.069-.336.195-.461.378-.377 1.197-.393 3.503-.378l1.093.004c1.094 0 2.054-.11 2.756-.191.993-.113 1.443-.165 1.746.104l.168.149.039.313c0 1.949-1.801 4.053-4.709 4.053zm-3.777-3.358c.157 1.38 1.697 2.357 3.777 2.357 2.046 0 3.474-1.343 3.683-2.707-.22.013-.528.049-.812.081-.726.084-1.719.198-2.87.198l-1.099-.004c-1.05-.006-2.219-.011-2.679.075z"/></g><g fill="#F4900C"><path d="M30 22s-2-1-5 0c-2.357.786-4 2.56-4 .785s2.015-3.213 4.5-3.213S30 21 30 22z"/><path d="M21.446 24.05c-.167 0-.322-.039-.468-.127-.478-.288-.478-.928-.478-1.138 0-2.047 2.243-3.713 5-3.713 2.77 0 5 1.602 5 2.928 0 .173-.09.334-.237.426-.146.089-.33.099-.484.022-.033-.017-1.887-.886-4.62.026-.757.252-1.435.61-2.032.927-.682.361-1.225.649-1.681.649zm4.054-3.978c-2.206 0-4 1.217-4 2.713 0 .127.01.208.021.257.232-.045.749-.318 1.138-.524.601-.317 1.349-.714 2.184-.992 1.696-.565 3.097-.529 4.043-.366-.676-.543-1.87-1.088-3.386-1.088z"/></g></svg>