<svg xmlns="http://www.w3.org/2000/svg" viewBox="0 0 36 36"><path fill="#E1E8ED" d="M31.301 11H4.668c-1.657 0-3 1.343-3 3s1.343 3 3 3c.182 0 .357-.023.53-.053L5.182 17l.637 14.004C5.918 33.202 7.8 35 10 35h16c2.2 0 4.082-1.798 4.182-3.996L30.818 17l-.015-.05c.163.027.327.05.498.05 1.657 0 3-1.343 3-3s-1.344-3-3-3z"/><path d="M28.668 17v16.989c.863-.734 1.444-1.796 1.492-2.986L30.84 17h-2.172zm-6 0h3v18h-3zm-6 18V17h3v18zm-6-18h3v18h-3zM5.16 17l.68 14.003c.054 1.342.776 2.528 1.828 3.254V17H5.16z" fill="#DA2F47"/><path opacity=".6" fill="#99AAB5" d="M5.16 17l.097 2h25.485l.098-2z"/><path fill="#FFD983" d="M30.929 11.07c.043-.184.071-.373.071-.57 0-.674-.27-1.284-.704-1.733.422-.266.704-.732.704-1.267 0-.829-.672-1.5-1.5-1.5-.197 0-.385.04-.558.11-.139-.513-.539-.913-1.052-1.052.07-.173.11-.36.11-.558 0-.829-.672-1.5-1.5-1.5-.191 0-.372.039-.54.104C25.769 1.913 24.745 1 23.5 1 22.119 1 21 2.119 21 3.5c0 .187.024.368.063.544-.64.113-1.19.469-1.563.969C19.044 4.402 18.322 4 17.5 4 16.119 4 15 5.119 15 6.5l.001.012c-.304-.23-.657-.395-1.047-.466C13.74 4.882 12.725 4 11.5 4c-1.228 0-2.245.887-2.455 2.055C8.866 6.027 8.687 6 8.5 6 6.567 6 5 7.567 5 9.5c0 .545.135 1.054.357 1.514C4.597 11.087 4 11.72 4 12.5c0 .829.672 1.5 1.5 1.5h25c.828 0 1.5-.671 1.5-1.5 0-.678-.453-1.245-1.071-1.43z"/><g fill="#FFAC33"><circle cx="28" cy="8" r="1"/><circle cx="24.5" cy="5.5" r="1.5"/><circle cx="12" cy="7" r="1"/><path d="M31 12.5c0-.828-.672-1.5-1.5-1.5-.658 0-1.212.427-1.414 1.017-.029-.002-.055-.017-.086-.017-.552 0-1 .448-1 1h3.908c.056-.157.092-.324.092-.5zM9.5 12c.198 0 .385.04.558.11.172-.638.75-1.11 1.442-1.11.828 0 1.5.671 1.5 1.5 0 .176-.036.343-.092.5h4.184c-.056-.157-.092-.324-.092-.5 0-.829.672-1.5 1.5-1.5.237 0 .459.06.658.158-.098-.199-.158-.421-.158-.658 0-.829.672-1.5 1.5-1.5s1.5.671 1.5 1.5c0 .198-.04.385-.11.558.638.172 1.11.749 1.11 1.442 0 .176-.036.343-.092.5h2.968l-.566-.5c.42-.367.69-.899.69-1.5 0-1.104-.896-2-2-2-.378 0-.728.111-1.03.294.015-.097.03-.193.03-.294 0-1.104-.896-2-2-2-.808 0-1.501.482-1.816 1.172C18.978 8.066 18.748 8 18.5 8c-.828 0-1.5.672-1.5 1.5 0 .198.04.385.11.558-.638.173-1.11.75-1.11 1.442 0 .198.04.385.11.558-.23.062-.438.177-.61.332-.266-.24-.614-.39-1-.39-.237 0-.459.06-.659.159.099-.2.159-.422.159-.659 0-.828-.672-1.5-1.5-1.5-.198 0-.385.04-.558.11C11.77 9.472 11.192 9 10.5 9 9.672 9 9 9.672 9 10.5c0 .198.04.385.11.558-.23.062-.438.177-.61.332-.266-.24-.614-.39-1-.39-.828 0-1.5.672-1.5 1.5 0 .176.036.343.092.5h2c.207-.581.756-1 1.408-1z"/></g><path fill="#FFF" d="M4 13v1c0 .552.448 1 1 1h26c.553 0 1-.448 1-1v-1H4z"/></svg>