<svg xmlns="http://www.w3.org/2000/svg" viewBox="0 0 36 36"><path fill="#FFAC33" d="M2.72 5.464h3.53v2.679H4.464c-1.786 0-1.786.893-1.786 1.786v7.387c0 1.359 1.289 1.542 1.289 1.542H6.25v2.679H2.72C1.218 21.537 0 20.32 0 18.818V8.183c0-1.501 1.217-2.719 2.72-2.719z"/><path fill="#FFAC33" d="M5.357 5.464h15.179V24c0 1.1-.9 2-2 2H7.357c-1.1 0-2-.9-2-2V5.464z"/><path fill="#F4900C" d="M8.482 23.321c.493 0 .893-.399.893-.893v-9.821c0-.493-.399-.893-.893-.893-.493 0-.893.399-.893.893v9.821c0 .494.4.893.893.893zm4.464 0c.493 0 .893-.399.893-.893v-9.821c0-.493-.399-.893-.893-.893-.493 0-.893.399-.893.893v9.821c.001.494.4.893.893.893zM5.357 8.575V5.464h15.179v4.878c-.292.107-.604.175-.933.175-1.138 0-2.111-.701-2.516-1.694-.238.206-.545.334-.883.334-.46 0-.865-.23-1.111-.58-.483.756-1.324 1.26-2.288 1.26-.884 0-1.663-.429-2.159-1.083-.248.633-.86 1.083-1.58 1.083-.645 0-1.199-.364-1.488-.893-.27.132-.57.213-.892.213-.882 0-1.329-.582-1.329-.582z"/><path fill="#E1E8ED" d="M8.036 1h11.607c1.786 0 2.679.893 2.679 2.679v2.76c0 1.502-1.218 2.719-2.719 2.719-1.138 0-2.111-.701-2.516-1.693-.238.205-.545.334-.883.334-.46 0-.865-.23-1.111-.58-.483.755-1.324 1.259-2.288 1.259-.884 0-1.663-.429-2.159-1.083-.248.633-.86 1.083-1.58 1.083-.62 0-1.15-.34-1.447-.837-.241.229-.564.372-.923.372-.74 0-1.339-.6-1.339-1.339V3.679C5.357 1.893 6.25 1 8.036 1z"/><path d="M30.495 6.514c-.256 0-.512-.098-.707-.293-.391-.391-.391-1.024 0-1.415l3.552-3.55c.391-.39 1.023-.39 1.414 0s.391 1.024 0 1.415l-3.552 3.55c-.195.196-.451.293-.707.293zm-4.164-1.697c-.109 0-.221-.019-.33-.057-.521-.182-.796-.752-.614-1.274l.97-2.773c.183-.521.752-.796 1.274-.614.521.182.796.752.614 1.274l-.97 2.773c-.144.413-.531.671-.944.671zm6.143 5.774c-.412 0-.798-.257-.943-.667-.184-.521.09-1.092.61-1.276l2.494-.881c.522-.185 1.092.09 1.276.61.184.521-.09 1.092-.61 1.276l-2.494.881c-.111.039-.223.057-.333.057z" fill="#FA743E"/><path fill="#FFAC33" d="M33.28 15.464h-3.53v2.679h1.786c1.786 0 1.786.893 1.786 1.786v7.387c0 1.359-1.289 1.542-1.289 1.542H29.75v2.679h3.53c1.502 0 2.72-1.217 2.72-2.719V18.183c0-1.501-1.217-2.719-2.72-2.719z"/><path fill="#FFCC4D" d="M30.643 15.464H15.464V34c0 1.1.9 2 2 2h11.179c1.1 0 2-.9 2-2V15.464z"/><path fill="#F4900C" d="M18.589 33.321c-.493 0-.893-.399-.893-.893v-9.821c0-.493.4-.893.893-.893s.893.399.893.893v9.821c0 .494-.4.893-.893.893zm8.929 0c-.493 0-.893-.399-.893-.893v-9.821c0-.493.399-.893.893-.893.493 0 .893.399.893.893v9.821c0 .494-.4.893-.893.893zm-4.464 0c-.493 0-.893-.399-.893-.893v-9.821c0-.493.399-.893.893-.893s.893.399.893.893v9.821c-.001.494-.4.893-.893.893z"/><path fill="#FFAC33" d="M30.643 18.575v-3.111H15.464v4.878c.292.107.604.175.933.175 1.138 0 2.111-.701 2.516-1.694.238.206.545.334.883.334.46 0 .865-.23 1.111-.58.483.756 1.324 1.26 2.288 1.26.884 0 1.663-.429 2.159-1.083.248.633.86 1.083 1.58 1.083.645 0 1.199-.364 1.488-.893.27.132.57.213.892.213.882 0 1.329-.582 1.329-.582z"/><path fill="#EEE" d="M27.964 11H16.357c-1.786 0-2.679.893-2.679 2.679v2.76c0 1.502 1.218 2.719 2.719 2.719 1.138 0 2.111-.701 2.516-1.693.238.205.545.334.883.334.46 0 .865-.23 1.111-.58.483.755 1.324 1.259 2.288 1.259.884 0 1.663-.429 2.159-1.083.248.633.86 1.083 1.58 1.083.62 0 1.15-.34 1.447-.837.24.229.564.372.922.372.74 0 1.339-.6 1.339-1.339v-2.995C30.643 11.893 29.75 11 27.964 11z"/></svg>