<svg xmlns="http://www.w3.org/2000/svg" viewBox="0 0 36 36"><path fill="#FFAC33" d="M31 5.718h-6v4h4s2 0 2 2v12c0 2-2 2-2 2h-4v4h6c2.206 0 4-1.794 4-4v-16c0-2.206-1.794-4-4-4z"/><path fill="#FFCC4D" d="M27 6H3v26c0 2.209 1.791 4 4 4h16c2.209 0 4-1.791 4-4V6z"/><path fill="#F4900C" d="M8.5 32c-.552 0-1-.447-1-1V15c0-.552.448-1 1-1s1 .448 1 1v16c0 .553-.448 1-1 1zm6.5 0c-.552 0-1-.447-1-1V15c0-.552.448-1 1-1s1 .448 1 1v16c0 .553-.448 1-1 1zm6.5 0c-.553 0-1-.447-1-1V15c0-.552.447-1 1-1s1 .448 1 1v16c0 .553-.447 1-1 1z"/><path fill="#FFAC33" d="M3 5v7.445c.59.344 1.268.555 2 .555 1.674 0 3.104-1.031 3.701-2.491.35.302.801.491 1.299.491.677 0 1.273-.338 1.635-.853C12.345 11.258 13.583 12 15 12c1.301 0 2.445-.631 3.176-1.593C18.54 11.338 19.44 12 20.5 12c.949 0 1.765-.535 2.188-1.314l.147-.361c.497.271 1.059.439 1.665.439.981 0 1.865-.406 2.5-1.056V5H3z"/><path fill="#EEE" d="M24 0H4C2.343 0 1 1.343 1 3v4c0 2.209 1.791 4 4 4 1.674 0 3.104-1.031 3.701-2.491.35.302.801.491 1.299.491.677 0 1.273-.338 1.635-.853C12.345 9.258 13.583 10 15 10c1.301 0 2.445-.631 3.176-1.593C18.54 9.338 19.44 10 20.5 10c.949 0 1.765-.535 2.188-1.314.398.195.839.314 1.312.314 1.657 0 3-1.343 3-3V3c0-1.657-1.343-3-3-3z"/></svg>