<svg xmlns="http://www.w3.org/2000/svg" viewBox="0 0 36 36"><path fill="#8899A6" d="M19 20.255S29.042 18.042 29.042 4.25c0-1.481-1.167-2.25-3.416-2.25H9.129C8.004 2 5.8 1.738 5.8 4.125c0 13.708 10.2 16.13 10.2 16.13v10.123s-4.584 2.34-5.498 2.883c-.984.562-.33 1.462.063 1.617.656.258 2.253 1.102 6.78 1.102 4.641 0 6.202-.914 6.765-1.102.217-.072 1.347-.932.011-1.723C21.743 31.747 19 30.378 19 30.378V20.255z"/><path fill="#CCD6DD" d="M29 3.442c0 1.621-3.547 2.935-11.623 2.935-8.076 0-11.623-1.314-11.623-2.935C5.754 1.82 9.301.507 17.377.507 25.453.507 29 1.821 29 3.442z"/><path fill="#CCD6DD" d="M7.458 3.583c2.042 9.5 5.458 12.792 8.699 13.835 1.11.358 2.026.428 2.801.123 3.5-1.375 7.542-5.667 8.167-13.583.161-2.037-19.667-.375-19.667-.375z"/><path fill="#A0041E" d="M9 9.5C9 13 12.333 18 17.333 18S26 12.542 26 9.542c-6 0-17-.042-17-.042z"/><ellipse fill="#DD2E44" cx="17.5" cy="9.5" rx="8.5" ry="1.5"/><path fill="#FFF" d="M17.168 6.659c-5.03 0-8.783-1.11-9.801-1.587-.5-.234-.715-.83-.481-1.33.234-.501.831-.716 1.33-.481 1.239.582 9.455 2.894 18.596-.127.523-.174 1.088.112 1.262.636.174.524-.111 1.09-.636 1.264-3.676 1.214-7.209 1.625-10.27 1.625z"/></svg>