<svg xmlns="http://www.w3.org/2000/svg" viewBox="0 0 36 36"><path fill="#FFAC33" d="M33 7.222c0-1.414.717-.707 1.424-1.414 1.416-1.414 2.128-3.536.714-4.95-1.415-1.414-3.534-.697-4.948.717-.708.707.002 1.425-1.412 1.425h-5.657l.707.697s3.536 4.944 4.243 4.237c-.707.708 4.231 4.24 4.231 4.24l.698.705V7.222z"/><path fill="#CCD6DD" d="M30.899 15l-4.949-4.95L21 5.101c-.707.707-4.243 0-5.657 1.414l-.707.707-2.122 2.122L1.615 20.242c-1.562 1.562-1.562 4.096 0 5.657l8.485 8.485c1.562 1.562 4.095 1.562 5.657 0l9.9-9.899 3.121-3.121.707-.707c1.414-1.415.707-4.95 1.414-5.657z"/><path fill="#55ACEE" d="M32.667 14.646c-.977.977-1.852 1.684-2.828.707l-9.192-9.192c-.977-.977-.269-1.852.707-2.829.977-.976 2.559-.976 3.535 0l7.778 7.778c.977.977.977 2.56 0 3.536z"/><path fill="#99AAB5" d="M13 32c-.256 0-.512-.098-.707-.293-.391-.391-.391-1.023 0-1.414l12-12c.391-.391 1.023-.391 1.414 0s.391 1.024 0 1.415l-12 12c-.195.194-.451.292-.707.292zm-4-4c-.256 0-.512-.098-.707-.293-.391-.391-.391-1.023 0-1.414l12-12c.391-.391 1.023-.391 1.414 0s.391 1.023 0 1.414l-12 12.001C9.512 27.902 9.256 28 9 28zm-4-4c-.256 0-.512-.098-.707-.293-.391-.391-.391-1.023 0-1.414l12-12c.391-.391 1.023-.391 1.414 0s.391 1.023 0 1.414l-12 12.001C5.512 23.902 5.256 24 5 24z"/></svg>