<svg xmlns="http://www.w3.org/2000/svg" viewBox="0 0 36 36"><path fill="#F4900C" d="M32.664 8.519C29.364 5.134 23.42 4.75 18 4.75S6.636 5.134 3.336 8.519C.582 11.344 0 15.751 0 19.791c0 5.263 1.982 11.311 6.357 14.244C9.364 36.051 13.95 35.871 18 35.871s8.636.18 11.643-1.836C34.018 31.101 36 25.054 36 19.791c0-4.04-.582-8.447-3.336-11.272z"/><path fill="#3F7123" d="M20.783 5.444c.069.42-.222.764-.647.764h-4.451c-.426 0-.717-.344-.647-.764l.745-4.472c.07-.421.476-.764.902-.764h2.451c.426 0 .832.344.901.764l.746 4.472z"/><path fill="#642116" d="M20.654 21.159l-1.598-2.596c-.291-.542-.673-.813-1.057-.817-.383.004-.766.275-1.057.817l-1.598 2.596c-.587 1.093.873 1.716 2.654 1.716s3.243-.624 2.656-1.716zm9.508 3.192c-.045-.075-.126-.121-.214-.121h-.841c-.068 0-.134.028-.181.077l-2.231 2.334-2.698-2.169c-.051-.041-.117-.058-.185-.053-.066.007-.127.041-.168.094l-2.408 3.062-3.054-3.266c-.013-.014-.033-.017-.048-.028-.015-.01-.025-.027-.043-.034-.006-.002-.013 0-.019-.002-.024-.007-.047-.005-.072-.005-.025 0-.048-.002-.072.006-.006.002-.013-.001-.02.002-.018.007-.027.024-.043.034-.016.01-.035.013-.048.027l-3.053 3.266-2.409-3.062c-.041-.053-.102-.087-.168-.094-.066-.006-.133.012-.185.053l-2.698 2.169-2.23-2.334c-.047-.049-.112-.077-.181-.077h-.841c-.087 0-.169.046-.214.121-.045.075-.048.168-.007.245l2.754 5.219c.034.064.093.11.164.127s.145.002.203-.04l2.034-1.458 3.004 3.633c.043.053.106.085.174.09l.019.001c.062 0 .121-.022.167-.063L18 28.836l3.65 3.268c.046.041.105.063.167.063l.019-.001c.068-.005.131-.037.174-.09l3.005-3.633 2.034 1.458c.06.043.133.06.203.04.07-.017.13-.062.163-.126l2.755-5.219c.04-.077.038-.17-.008-.245zm-2.186-8.93c.129 2.127-.784 3.806-3.205 3.953-2.42.146-3.529-1.411-3.658-3.537s1.232-5.12 3.127-5.234c1.896-.116 3.608 2.691 3.736 4.818zm-19.952 0c-.129 2.127.784 3.806 3.205 3.953 2.42.146 3.529-1.411 3.658-3.537s-1.232-5.12-3.127-5.234-3.608 2.691-3.736 4.818z"/></svg>