<svg xmlns="http://www.w3.org/2000/svg" viewBox="0 0 36 36"><path fill="#269" d="M36 32c0 2.209-1.791 4-4 4H4c-2.209 0-4-1.791-4-4V4c0-2.209 1.791-4 4-4h28c2.209 0 4 1.791 4 4v28z"/><path fill="#55ACEE" d="M18 2.249L21.751 6H27v5.249L30.751 15 27 18.751V24h-5.249L18 27.751 14.249 24H9v-5.249L5.249 15 9 11.249V6h5.249z"/><path fill="#FFD983" d="M15 15zm3-10.406l2.234 5.069 4.852-1.417-1.418 4.851 6.486 2.235-6.486 2.234 1.418 4.851L20.234 21 18 33.154 15.765 21l-4.85 1.417 1.417-4.851-6.487-2.234 6.487-2.235-1.417-4.851 4.85 1.417z"/><circle fill="#F5F8FA" cx="18" cy="15" r="3"/><path fill="#FFCC4D" d="M9.999 13c-.19 0-.383-.054-.554-.168l-6-4c-.459-.306-.583-.927-.277-1.387.306-.46.927-.584 1.387-.277l6 4c.46.306.583.927.277 1.387-.193.289-.51.445-.833.445zm16.002 0c-.323 0-.641-.156-.833-.445-.307-.46-.183-1.081.277-1.387l6-4c.46-.307 1.081-.183 1.387.277.307.459.183 1.081-.277 1.387l-6 4c-.171.114-.364.168-.554.168zm-22 11c-.323 0-.64-.156-.833-.445-.306-.46-.182-1.08.277-1.387l6-4c.459-.308 1.08-.183 1.387.277.306.46.182 1.08-.277 1.387l-6 4c-.171.113-.364.168-.554.168zm28.998 0c-.168 0-.339-.042-.495-.132l-7-4c-.479-.274-.646-.885-.372-1.364.274-.479.884-.647 1.364-.372l7 4c.479.274.646.885.372 1.364-.184.323-.521.504-.869.504zM10 34c-.136 0-.273-.027-.406-.086-.504-.225-.732-.816-.507-1.32l4-9c.224-.504.814-.733 1.32-.508.504.225.732.816.507 1.32l-4 9c-.166.372-.532.594-.914.594zm16.001 0c-.384 0-.749-.221-.915-.594l-4-9c-.224-.505.003-1.096.508-1.32.506-.224 1.096.004 1.32.508l4 9c.224.505-.003 1.096-.508 1.32-.132.059-.269.086-.405.086zm-11-26c-.367 0-.72-.202-.896-.553l-2-4c-.247-.494-.047-1.095.447-1.342.495-.247 1.095-.046 1.342.447l2 4c.247.494.047 1.095-.447 1.342-.143.072-.296.106-.446.106zm5.998 0c-.15 0-.303-.034-.446-.105-.494-.247-.694-.848-.447-1.342l2-4c.248-.495.847-.695 1.342-.447.494.247.694.848.447 1.342l-2 4c-.176.35-.529.552-.896.552z"/></svg>