<svg xmlns="http://www.w3.org/2000/svg" viewBox="0 0 36 36"><path fill="#77B255" d="M32 30.529C32 32.998 29.969 35 27.5 35S23 32.998 23 30.529V18.588C23 16.119 25.031 13 27.5 13s4.5 3.119 4.5 5.588v11.941z"/><path fill="#FFE8B6" d="M21.456 5.588c0 2.198-1.337 3.98-2.985 3.98s-2.985-1.782-2.985-3.98 1.337-3.98 2.985-3.98 2.985 1.782 2.985 3.98z"/><path fill="#77B255" d="M23 30.529C23 32.998 20.969 35 18.5 35S14 32.998 14 30.529V5.588C14 3.119 16.031 0 18.5 0S23 3.119 23 5.588v24.941z"/><path fill="#FFE8B6" d="M21.456 5.588c0 2.198-1.337 3.98-2.985 3.98s-2.985-1.782-2.985-3.98 1.337-3.98 2.985-3.98 2.985 1.782 2.985 3.98zm9 13c0 2.199-1.337 3.98-2.985 3.98s-2.985-1.781-2.985-3.98c0-2.198 1.337-3.981 2.985-3.981 1.648.001 2.985 1.783 2.985 3.981z"/><path fill="#77B255" d="M14 30.529C14 32.998 11.969 35 9.5 35S5 32.998 5 30.529V11.588C5 9.119 7.031 6 9.5 6S14 9.119 14 11.588v18.941z"/><path fill="#FFE8B6" d="M12.456 11.588c0 2.198-1.337 3.98-2.985 3.98s-2.985-1.782-2.985-3.98 1.337-3.98 2.985-3.98 2.985 1.782 2.985 3.98z"/><path fill="#5C913B" d="M24 22c0 .553-.447 1-1 1h-9c-.552 0-1-.447-1-1 0-.553.448-1 1-1h9c.553 0 1 .447 1 1zm0-8c0 .552-.447 1-1 1h-9c-.552 0-1-.448-1-1s.448-1 1-1h9c.553 0 1 .448 1 1zm-9 4c0 .553-.447 1-1 1H5c-.552 0-1-.447-1-1 0-.553.448-1 1-1h9c.553 0 1 .447 1 1z"/><path fill="#D99E82" d="M35 32.5c0 1.381-1.119 2.5-2.5 2.5h-28C3.119 35 2 33.881 2 32.5S3.119 30 4.5 30h28c1.381 0 2.5 1.119 2.5 2.5z"/><path fill="#5C913B" d="M31 27s-1.229-.565-3.272-1.176c-.645 1.426-1.299 2.785-1.561 3.426-.52 1.27-1.125.875-.925-.169.102-.532.461-2.616.736-3.729-1.986-.486-4.449-.908-7.162-.995-.15 1.727-.402 3.219-.483 4.144-.125 1.417-1.5 1.333-1.625.042-.068-.702-.164-2.683-.26-4.171-2.026.092-4.149.398-6.292 1.016.091 1.014.304 2.885.386 3.53.186 1.469-.553 1.086-.833.291-.178-.507-.82-2.217-1.267-3.259-.816.3-1.631.645-2.442 1.05-2 1-4 3-4 4v1h33v-1c0-1-2-3-4-4z"/></svg>