<svg xmlns="http://www.w3.org/2000/svg" viewBox="0 0 36 36"><path fill="#F26522" d="M31 19h-8c-1.65 0-4 3.583-4 7v6c0 1.65 1.35 3 3 3h10c1.65 0 3-1.35 3-3v-6c0-3.417-2.35-7-4-7z"/><path fill="#D14A15" d="M34.816 32.996C30.211 32.949 28 31.189 28 29v-4c3.2-1 3-3 3-5h-8c0 2-.2 4 3 5v4c0 2.189-2.211 3.949-6.816 3.996C19.598 34.158 20.7 35 22 35h10c1.3 0 2.402-.842 2.816-2.004z"/><circle fill="#FFB699" cx="22" cy="30" r="1"/><circle fill="#FFB699" cx="32" cy="30" r="1"/><path fill="#FFCC4D" d="M27 22c-4.527 0-6 3-6 3l6 4 6-4s-1.473-3-6-3z"/><path fill="#292F33" d="M35 12v6c0 3-5.707 0-7.5 0-1.976 0-8.5 3-8.5 0v-6c0-4.418 3.582-8 8-8s8 3.582 8 8z"/><path fill="#F5F8FA" d="M33 14c0 3-.406 7-6 7s-6-3-6-7c3.031 0 6-2 6-2s3.031 2 6 2z"/><path fill="#292F33" d="M31.603 16.361c-.906-.146-2.457-.47-3.318.318-.357.261-.098 1.003.572.685.669-.318 2.184-.403 2.789-.438.607-.033.617-.459-.043-.565zm-9.167 0c.906-.146 2.457-.47 3.318.318.357.261.098 1.003-.572.685-.669-.318-2.184-.403-2.789-.438-.606-.033-.616-.459.043-.565z"/><ellipse fill="#A0041E" cx="27.02" cy="19.297" rx="1.5" ry=".531"/><path fill="#F26522" d="M32.02 6.259c0-1.247-2.239-2.259-5-2.259s-5 1.011-5 2.259c0 .61 2.88 1.164 5 1.57 2.119-.407 5-.96 5-1.57z"/><path fill="#D14A15" d="M23.549 3.135c.004-.045.013-.089.013-.135 0-.863-.7-1.562-1.562-1.562S20.438 2.137 20.438 3s.7 1.562 1.562 1.562c.046 0 .09-.01.135-.014l1.158 1.158c.195.196.451.294.707.294s.512-.098.707-.293c.391-.391.391-1.023 0-1.414l-1.158-1.158zM27 .438c-.863 0-1.562.7-1.562 1.562 0 .48.221.905.562 1.191V5c0 .552.447 1 1 1s1-.448 1-1V3.191c.341-.286.562-.711.562-1.191 0-.863-.699-1.562-1.562-1.562zm5 1c-.863 0-1.562.7-1.562 1.562 0 .046.01.09.014.135l-1.158 1.158c-.391.391-.391 1.023 0 1.414.194.195.45.293.706.293s.512-.098.707-.293l1.158-1.158c.045.004.089.013.135.013.863 0 1.562-.7 1.562-1.562S32.863 1.438 32 1.438z"/><path fill="#27AAE1" d="M13 19H5c-1.65 0-4 3.583-4 7v6c0 1.65 1.35 3 3 3h10c1.65 0 3-1.35 3-3v-6c0-3.417-2.35-7-4-7z"/><path fill="#005792" d="M16.816 32.996C12.211 32.949 10 31.189 10 29v-4c3.2-1 3-3 3-5H5c0 2-.2 4 3 5v4c0 2.189-2.211 3.949-6.816 3.996C1.598 34.158 2.7 35 4 35h10c1.3 0 2.402-.842 2.816-2.004z"/><circle fill="#BBDDF5" cx="4" cy="27" r="1"/><circle fill="#BBDDF5" cx="14" cy="30" r="1"/><path fill="#FFCC4D" d="M10.182 21.879l-1.181-.003-1.181.003c-.484.001-.928.324-.85.98l1.152 10.143c.098.513.395.811.879.81.484.001.78-.297.879-.81l1.152-10.143c.077-.656-.366-.979-.85-.98z"/><path fill="#292F33" d="M17 13v3c0 3-6.207 3-8 3-1.976 0-8 0-8-3v-3c0-4.418 3.582-6 8-6s8 1.582 8 6z"/><path fill="#F5F8FA" d="M3 13.092V14c0 4 .406 7 6 7s6-4 6-7v-.908c-1.223.533-3.449.891-6 .891s-4.777-.358-6-.891z"/><path fill="#292F33" d="M13.603 16.361c-.906-.146-2.457-.47-3.318.318-.357.261-.098 1.003.572.685.669-.318 2.184-.403 2.789-.438.607-.033.617-.459-.043-.565zm-9.167 0c.906-.146 2.457-.47 3.318.318.357.261.098 1.003-.572.685-.669-.318-2.184-.403-2.789-.438-.606-.033-.616-.459.043-.565z"/><ellipse fill="#A0041E" cx="9.02" cy="19.297" rx="1.5" ry=".531"/><path fill="#26AAE1" d="M12.125 7.874c0 3.46-6.25 3.46-6.25 0S7.274 1 9 1s3.125 3.414 3.125 6.874z"/></svg>