<svg xmlns="http://www.w3.org/2000/svg" viewBox="0 0 36 36"><path fill="#66757F" d="M18 0C9.716 0 3 6.716 3 15v9h3v-9C6 8 11.269 2.812 18 2.812 24.73 2.812 30 8 30 15v10l3-1v-9c0-8.284-6.716-15-15-15z"/><path fill="#31373D" d="M6 27c0 1.104-.896 2-2 2H2c-1.104 0-2-.896-2-2v-9c0-1.104.896-2 2-2h2c1.104 0 2 .896 2 2v9zm30 0c0 1.104-.896 2-2 2h-2c-1.104 0-2-.896-2-2v-9c0-1.104.896-2 2-2h2c1.104 0 2 .896 2 2v9z"/><path fill="#55ACEE" d="M19.182 10.016l-6.364 1.313c-.45.093-.818.544-.818 1.004v16.185c-.638-.227-1.341-.36-2.087-.36-2.785 0-5.042 1.755-5.042 3.922 0 2.165 2.258 3.827 5.042 3.827C12.649 35.905 14.922 34 15 32V16.39l4.204-.872c.449-.093.796-.545.796-1.004v-3.832c0-.458-.368-.759-.818-.666zm8 3.151l-4.297.865c-.45.093-.885.544-.885 1.003V26.44c0-.152-.878-.24-1.4-.24-2.024 0-3.633 1.276-3.633 2.852 0 1.574 1.658 2.851 3.683 2.851s3.677-1.277 3.677-2.851l-.014-11.286 2.869-.598c.45-.093.818-.544.818-1.003v-2.33c0-.459-.368-.76-.818-.668z"/></svg>