<svg xmlns="http://www.w3.org/2000/svg" viewBox="0 0 36 36"><path fill="#DD2E44" d="M33 33c0 1.104-.896 2-2 2H5c-1.104 0-2-.896-2-2l1-12h28l1 12z"/><path fill="#EA596E" d="M13 35c-.792-1.875-1.75-3.291-3.417-4.666 1.75-1.459 4.542-5.5 5.25-8.292s2.75 8.125 2.042 10.625S13 35 13 35zm10.303 0c.791-1.875 1.75-3.291 3.416-4.666-1.75-1.459-4.541-5.5-5.25-8.292-.707-2.792-2.75 8.125-2.04 10.625.708 2.5 3.874 2.333 3.874 2.333z"/><path fill="#BE1931" d="M3.728 24.263c.453.455 1.079.737 1.772.737C6.881 25 8 23.881 8 22.5c0-.565-.195-1.081-.511-1.5H4l-.272 3.263zm28.544 0L32 21h-3.489c-.316.419-.511.935-.511 1.5 0 1.381 1.119 2.5 2.5 2.5.693 0 1.319-.282 1.772-.737z"/><circle fill="#BE1931" cx="14" cy="23" r="2"/><circle fill="#BE1931" cx="22" cy="23" r="2"/><circle fill="#BE1931" cx="10" cy="23" r="2"/><circle fill="#BE1931" cx="26" cy="23" r="2"/><path d="M23 35H13s2-6 2-13h6c0 7 2 13 2 13zM17 2h2v7h-2z"/><path fill="#55ACEE" d="M18.838.206C17.667.042 17 .318 17 1.418v1c0 1.1.865 1.753 1.923 1.451l5.154-.901c1.715-.343 1.548-1.593.085-1.884L18.838.206z"/><path fill="#CCD6DD" d="M18 6l-.081.123C10.938 16.981 3 15.015 3 19v2.5C3 22.881 4.119 24 5.5 24c1.21 0 2.218-.859 2.45-2H12c0 1.104.896 2 2 2s2-.896 2-2h4c0 1.104.896 2 2 2s2-.896 2-2h4.05c.232 1.141 1.24 2 2.45 2 1.381 0 2.5-1.119 2.5-2.5V19c0-4-8-2-15-13z"/><g fill="#F5F8FA"><path d="M17.948 6.078l-.03.045C17.132 11.619 10.811 16.126 8 18v4c0 1.104.896 2 2 2s2-.896 2-2v-4c.982-.982 5.813-6.787 5.984-11.732-.01-.064-.027-.126-.036-.19zm.08.398C18.324 11.374 23.031 17.031 24 18v4c0 1.104.896 2 2 2s2-.896 2-2v-4c-2.75-1.833-8.953-6.19-9.972-11.524z"/><path d="M17.984 6.27C17.922 8.346 17.606 16.394 16 18v4c0 1.104.896 2 2 2s2-.896 2-2v-4c-1.564-1.564-1.905-9.241-1.979-11.559-.011-.057-.027-.113-.037-.171z"/></g></svg>