<svg xmlns="http://www.w3.org/2000/svg" viewBox="0 0 36 36"><path fill="#E1E8ED" d="M32.612 16.645v-1h-4.083V8.333h-1v7.312h-3.11v1h3.11v4H18.55v-4.604h-1v4.604H12.8v1h4.75v4H8.612v-3.208h-1v3.208H2.205v1h5.407v4H2.205v1h5.407V36h1v-4.355h8.938V36h1v-4.355h8.979V36h1v-4.355h4.083v-1h-4.083v-4h4.083v-1h-4.083v-4h4.083v-1h-4.083v-4h4.083zm-24 14v-4h8.938v4H8.612zm18.917 0H18.55v-4h8.979v4zm0-5H18.55v-4h8.979v4z"/><path fill="#CCD6DD" d="M31.05 6.595h4V36h-4z"/><path fill="#8899A6" d="M34.05 6.595h1V36h-1z"/><path fill="#CCD6DD" d="M25.05 10.208l-4 2.417V36h4zm-14 10.709h4V36h-4zm-10 4.791h4V36h-4z"/><path fill="#8899A6" d="M4.05 25.708h1V36h-1zm10-4.791h1V36h-1zm10-10.709h1V36h-1z"/><path fill="#CCD6DD" d="M18.804 16.378C12.948 21.327 6.491 26.771 0 29.035v1.816c7.387-2.665 14.422-8.66 20.363-13.725 4.789-4.083 9.313-7.939 11.764-7.939 1.46 0 2.746.513 3.873 1.337V8.738c-1.11-.651-2.39-1.05-3.873-1.05-3.041 0-8.035 4.221-13.323 8.69z"/><path fill="#DD2E44" d="M32.127 4.688c-4.139 0-9.292 4.355-15.26 9.399C11.523 18.603 5.653 23.558 0 25.84v3.196c6.491-2.265 12.948-7.708 18.804-12.657 5.288-4.469 10.282-8.69 13.323-8.69 1.483 0 2.763.399 3.873 1.05v-3.36c-1.154-.438-2.439-.691-3.873-.691z"/><path fill="#1C6399" d="M10.912 14.422l-.368.29c-.142.112-.348.087-.459-.054l-.918-1.164c-.112-.142-.087-.348.054-.459l.368-.29c.142-.112.348-.087.459.054l.918 1.164c.112.142.088.347-.054.459zm3.438-2.632l-.368.29c-.142.112-.348.087-.459-.054l-.918-1.164c-.112-.142-.087-.348.054-.459l.368-.29c.142-.112.348-.087.459.054l.918 1.164c.112.142.088.347-.054.459zm6.52-5.208l-.368.29c-.142.112-.348.087-.459-.054l-.918-1.164c-.112-.142-.087-.348.054-.459l.368-.29c.142-.112.348-.087.459.054l.918 1.164c.113.141.088.347-.054.459zm3.471-2.664l-.368.29c-.142.112-.348.087-.459-.054l-.918-1.164c-.112-.142-.087-.348.054-.459l.368-.29c.142-.112.348-.087.459.054l.918 1.164c.112.141.088.347-.054.459zm-8.532 9.678c-.217 0-.433-.094-.581-.275-.262-.32-.215-.793.106-1.055l1.409-1.152c.321-.262.794-.216 1.056.106.262.32.215.793-.106 1.055l-1.409 1.152c-.14.113-.308.169-.475.169z"/><path fill="#EA596E" d="M9.349 14.069c.82 1.044.676 1.731.154 2.141-.522.41-1.224.387-2.044-.656-.82-1.043-1.062-2.222-.54-2.632.523-.411 1.61.103 2.43 1.147z"/><path fill="#A6D388" d="M12.745 11.401c.82 1.044.676 1.731.154 2.141-.522.41-1.224.387-2.044-.656-.82-1.043-1.062-2.222-.54-2.632.523-.411 1.61.103 2.43 1.147z"/><path fill="#3B94D9" d="M13.599 11.67l-5.892 4.629c-1.522 1.196-.604 4.01-.332 4.356.291.371.829.436 1.2.144l7.459-5.86c.742-.583.871-1.657.288-2.399l-.406-.517c-.583-.743-1.62-.901-2.317-.353z"/><path fill="#F4900C" d="M19.178 6.108c.82 1.044.676 1.731.154 2.141-.522.41-1.224.387-2.043-.657-.82-1.044-1.062-2.222-.539-2.632.521-.41 1.608.104 2.428 1.148z"/><path fill="#AA8DD8" d="M22.628 3.387c.82 1.044.676 1.731.154 2.141-.522.41-1.224.387-2.043-.657-.82-1.044-1.062-2.222-.539-2.632.521-.41 1.609.104 2.428 1.148z"/><path fill="#3B94D9" d="M23.429 3.709l-5.893 4.629c-1.522 1.195-.604 4.01-.332 4.356.291.371.829.436 1.2.144l7.46-5.859c.742-.583.871-1.657.288-2.399l-.406-.517c-.583-.743-1.621-.901-2.317-.354z"/><path fill="#E1E8ED" d="M9.096 20.838c-.148 0-.295-.066-.394-.192-.171-.217-.132-.532.086-.702l7.059-5.515c.215-.168.53-.132.701.086.171.217.132.532-.086.702l-7.059 5.515c-.09.072-.198.106-.307.106zm9.787-7.906c-.148 0-.295-.066-.394-.192-.171-.217-.132-.532.086-.702l7.059-5.515c.216-.169.53-.132.701.086.171.217.132.532-.086.702l-7.059 5.515c-.091.071-.199.106-.307.106z"/></svg>