<svg xmlns="http://www.w3.org/2000/svg" viewBox="0 0 36 36"><path fill="#E1E8ED" d="M36 15.05V32s0 4-4 4H4c-4 0-4-4-4-4v-2s15.958-6.875 36-14.95z"/><path fill="#55ACEE" d="M12.708 26.202c-.139 0-.277-.033-.402-.1-.229-.119-.392-.333-.446-.585-.212-.975-.354-1.747-.354-2.351 0-.223.085-.437.238-.598 1.627-1.715 3.689-3.483 5.058-4.608-1.308-2.187-4.363-7.227-5.038-8.319-.24-.389-.138-.898.234-1.164 1.012-.722 6.832-4.626 7.079-4.792.374-.252.877-.174 1.159.176.639.791 2.349 3.617 4.16 6.609.864 1.428 1.712 2.828 2.382 3.903.046.073.08.153.102.237.01.039 1.029 3.928 1.029 4.847 0 .364-.228.689-.569.815-1.343.494-14.171 5.809-14.301 5.862-.105.046-.218.068-.331.068z"/><path fill="#269" d="M11.75 27.369c-.339 0-.661-.199-.801-.531-.187-.442.02-.952.462-1.139l7.208-3.042c.445-.184.952.021 1.138.463.186.442-.021.952-.463 1.139l-7.208 3.042c-.109.046-.223.068-.336.068zm12.084-5.083c-.335 0-.654-.195-.797-.522-.191-.441.011-.952.45-1.144l4.791-2.083c.439-.19.951.009 1.144.45.191.441-.011.952-.45 1.144l-4.791 2.084c-.114.048-.231.071-.347.071z"/><path fill="#BE1931" d="M5.594 31.657c-.208 0-.411-.014-.61-.042-1.264-.181-2.259-.931-2.878-2.168-.247-.494-.047-1.095.447-1.342.495-.246 1.095-.047 1.342.447.632 1.266 1.864 1.45 3.658.553 1.23-.615 7.657-3.303 14.462-6.148 4.396-1.838 8.793-3.677 11.592-4.876.503-.219 1.095.017 1.312.525.218.507-.017 1.095-.525 1.313-2.802 1.201-7.205 3.042-11.608 4.884-6.474 2.707-13.169 5.507-14.339 6.092-1.015.507-1.972.762-2.853.762z"/><path fill="#3B88C3" d="M26.882 14.611c-.022-.084-.057-.164-.102-.237-.67-1.075-1.518-2.475-2.382-3.903-1.8-2.973-3.498-5.779-4.146-6.589-.007.102-.011.202-.015.297-.051 1.12-.119 2.654-2.999 4.698-.866.577-.682 1.473 1.039 5.043.9 1.867 1.993 3.924 2.489 4.759.184.31.514.49.859.49.1 0 .201-.016.3-.047 1.331-.418 3.16-1.136 4.774-1.77l.78-.305c-.279-1.221-.592-2.414-.597-2.436z"/><path fill="#269" d="M16.69 14.529c-.284 0-.562-.139-.728-.394-.262-.402-.149-.94.253-1.202l2.498-1.629c.403-.263.939-.148 1.202.253.262.402.148.94-.253 1.202l-2.497 1.629c-.148.095-.312.141-.475.141zm1.989 3.076c-.42 0-.789-.305-.857-.733-.075-.474.248-.919.722-.994l2.967-.47c.477-.075.918.248.994.722.074.474-.249.918-.723.994l-2.967.47c-.045.008-.091.011-.136.011zm.862 4.472c-.138 0-.278-.033-.408-.103l-1.731-.925c-.423-.227-.583-.753-.357-1.176.226-.423.75-.583 1.175-.357l1.731.925c.423.227.583.753.357 1.176-.157.293-.456.46-.767.46z"/><path fill="#BBDDF5" d="M23.543 5.535c-.304 0-.599-.159-.758-.442-.235-.418-.087-.948.331-1.183L28.741.743c.418-.236.948-.087 1.183.331.235.418.087.948-.331 1.183l-5.625 3.166c-.135.077-.28.112-.425.112zm2.5 3.709c-.304 0-.599-.159-.758-.443-.235-.418-.087-.948.331-1.183l3.333-1.875c.418-.235.947-.087 1.183.332.235.418.087.948-.331 1.183l-3.333 1.875c-.135.075-.281.111-.425.111zm2 4c-.308 0-.605-.163-.763-.452-.23-.421-.076-.949.345-1.179l2.208-1.208c.419-.231.949-.076 1.179.345.231.421.076.949-.345 1.179l-2.208 1.208c-.132.073-.275.107-.416.107z"/></svg>