<svg xmlns="http://www.w3.org/2000/svg" viewBox="0 0 36 36"><path fill="#5DADEC" d="M14.182.168L7.818 1.469C7.368 1.561 7 2.012 7 2.471v15.857C6.387 18.12 5.712 18 5 18c-2.762 0-5 1.741-5 3.889 0 2.147 2.238 3.889 5 3.889 2.713 0 4.908-1.683 4.985-3.777H10V6.477l4.182-.855c.45-.092.818-.543.818-1.002V.835c0-.459-.368-.76-.818-.667zm21 4l-6.363 1.301c-.451.092-.819.543-.819 1.002v15.857c-.613-.209-1.288-.328-2-.328-2.762 0-5 1.741-5 3.889 0 2.147 2.238 3.889 5 3.889 2.713 0 4.908-1.683 4.985-3.777H31V10.477l4.182-.855c.45-.092.818-.543.818-1.002V4.835c0-.459-.368-.76-.818-.667z"/><path fill="#5DADEC" d="M23.182 10.167l-6.363 1.301c-.451.093-.819.544-.819 1.003v15.857c-.613-.209-1.288-.328-2-.328-2.762 0-5 1.741-5 3.889s2.238 3.889 5 3.889c2.713 0 4.908-1.683 4.985-3.777H19V16.477l4.182-.855c.45-.092.818-.543.818-1.002v-3.785c0-.459-.368-.76-.818-.668z"/></svg>