<svg xmlns="http://www.w3.org/2000/svg" viewBox="0 0 36 36"><path fill="#FFDC5D" d="M15.087 24.856l-1.728-3.593c-.428.233-2.257 1.253-3.35 2.237-.635.572-.549 1.002-.36 1.944l.017.085c.189.952 2.205 7.351 2.47 8.187l1.345-.334c.011-.446.057-2.767-.176-4.233-.073-.463-.147-1.025-.214-1.522-.071-.543-.134-1.012-.18-1.248-.064-.334.033-.53.337-.677.862-.416 1.586-.735 1.839-.846zm8.721 1.817c-.546-.067-1.019-.126-1.258-.141-.339-.021-.504-.165-.57-.496-.188-.939-.313-1.721-.356-1.993l-3.912.767c.118.473.644 2.5 1.322 3.806.393.757.831.782 1.79.838l.087.005c.975.057 7.669-.284 8.545-.329l.015-1.385c-.43-.124-2.663-.752-4.142-.896-.465-.045-1.026-.115-1.521-.176z"/><path fill="#8899A6" d="M27.805 29.682l-.178-.328c-.022-.053.004-.113.058-.132.171-.059.518-.217.639-.281-.105.24-.225.624-.359.74-.052.043-.134.063-.16.001z"/><path fill="#1C6399" d="M30.398 27.138c-.139-.111-.457-.166-.657-.185-.138-.013-.498-.024-.799-.008-.136.008-.291.024-.355.043-.198.057-.285.141-.332.198-.057.069-.062.144-.049.181.052.153.304.418.414.67.037.084.058.166.05.243-.027.276-.379.678-.643.976-.158.179-.285.32-.29.375-.006.059.011.109.037.158v.002c.072.132.229.269.337.629.069.232.395 1.291.395 1.291.078.27.182.336.226.481.091.297.251 1.094.331 1.346.08.252.271.36.418.381s.232-.014.232-.014.345-.155.574-1.449c.165-.935.019-1.079-.105-2.483s.216-2.835.216-2.835z"/><path fill="#3B94D9" d="M30.109 29.226c-.235-.096-.771-.45-.922-.831-.136-.344-.229-1.273-.246-1.449.288-.026.731-.007.873.007.188.018.404.033.534.143l.05.043c0-.001-.229 1.473-.289 2.087z"/><path fill="#CCD6DD" d="M28.048 30.27c-.073 0-.142-.041-.175-.111-.046-.097-.005-.213.092-.258l.342-.162c.097-.046.212-.005.259.092.046.097.005.213-.092.258l-.342.162c-.028.013-.056.019-.084.019zm.218.625c-.082 0-.158-.053-.185-.135-.032-.102.024-.211.126-.244l.38-.121c.097-.033.21.023.243.126.032.102-.024.211-.126.244l-.38.121c-.018.007-.038.009-.058.009zm.184.637c-.091 0-.171-.063-.19-.155-.021-.105.046-.207.152-.229l.356-.072c.111-.023.207.047.229.152.021.105-.046.207-.152.229l-.356.072-.039.003zm2.776-4.13c-.006-.028-.027-.137-.101-.27-.025-.045-.082-.059-.14-.066-.072-.009-.6-.085-.61.022 0 0-.003.159-.077.268-.075.109-.127.377-.146.577-.019.199-.105.951-.085 1.478.02.528.183 1.482.19 1.8.008.318 0 .814-.068 1.18s-.14.692-.196.893c-.072.259-.168.471-.279.619 0 0 .417-.028.736-.645.252-.487.393-.955.446-1.411.004-.035.113-1.252.165-1.86.038-.445.102-1.155.102-1.155.081-.841.1-1.269.063-1.43z"/><path fill="#8899A6" d="M11.211 32.283l.269-.259c.045-.036.11-.027.143.021.102.149.348.441.441.541-.26-.037-.661-.051-.809-.149-.056-.038-.096-.112-.044-.154z"/><path fill="#1C6399" d="M14.355 34.104c.07-.163.038-.485.003-.683-.024-.136-.109-.486-.206-.772-.043-.129-.101-.274-.136-.33-.108-.176-.212-.237-.28-.267-.082-.036-.155-.022-.188.001-.134.091-.322.405-.535.578-.071.058-.144.1-.22.113-.273.048-.755-.184-1.112-.359-.214-.105-.385-.189-.438-.18-.059.01-.102.039-.143.078l-.002.001h.001c-.108.104-.199.293-.516.492-.206.128-1.14.724-1.14.724-.24.147-.275.265-.403.346-.262.167-.987.534-1.209.678-.222.144-.275.357-.255.505.02.148.076.22.076.22s.242.291 1.549.166c.945-.09 1.045-.269 2.365-.763 1.32-.493 2.789-.548 2.789-.548z"/><path fill="#3B94D9" d="M12.266 34.382c.03-.252.228-.863.555-1.11.295-.222 1.166-.56 1.331-.624.102.271.202.703.226.843.033.186.076.398.004.553l-.028.059c.001.001-1.481.173-2.088.279z"/><path fill="#CCD6DD" d="M11.144 33.103c-.054 0-.109-.023-.147-.067l-.247-.287c-.07-.081-.061-.204.02-.274.081-.07.205-.061.274.02l.247.287c.07.081.061.204-.02.274-.038.032-.083.047-.127.047zm-.575.425c-.063 0-.125-.031-.163-.088l-.218-.334c-.058-.09-.033-.21.057-.269.09-.058.209-.034.269.056l.218.334c.058.09.033.21-.057.269-.033.022-.069.032-.106.032zm-.617.337c-.07 0-.138-.039-.173-.106l-.165-.324c-.048-.095-.01-.212.085-.261.095-.049.211-.011.261.085l.165.324c.048.096.01.212-.085.261-.028.015-.059.021-.088.021zm4.369 1.108c.026-.014.125-.062.234-.17.036-.036.035-.095.026-.153-.01-.072-.078-.601-.184-.582 0 0-.154.04-.279-.003-.125-.043-.398-.021-.595.013-.197.035-.944.152-1.447.312-.503.16-1.379.571-1.684.664-.305.092-.784.217-1.156.249-.371.032-.705.05-.913.049-.269 0-.498-.036-.671-.103 0 0 .138.394.818.537.537.113 1.025.124 1.479.053.034-.005 1.237-.225 1.836-.337.439-.082 1.14-.21 1.14-.21.833-.146 1.25-.241 1.396-.319z"/><path fill="#1C6399" d="M12.654 21.244c.751-.398 3.235-1.653 4.947-1.804.156-.014.298.088.352.235l1.328 3.635c.068.186-.027.391-.216.451-.781.25-2.74.915-4.22 1.719-.157.085-.347.041-.448-.106-.456-.664-1.642-2.477-1.923-3.76-.032-.15.045-.298.18-.37z"/><path fill="#357BAA" d="M17.514 25.488c-.196-.827-.785-3.547-.501-5.242.026-.155.16-.266.316-.281l3.853-.37c.198-.019.371.125.382.323.046.818.196 2.882.601 4.517.043.173-.048.346-.216.407-.758.274-2.811.965-4.123.914-.153-.007-.276-.118-.312-.268z"/><path fill="#FFDC5D" d="M15.015 10.618c-.085.612.05 1.546 1.466 1.787 1.416.241 2.812.059 3.411-.108.599-.167.569.884.747 1.872.179.992.301 1.768.252 1.973-.082.347-.809 1.011-.517 1.612s.757 1.179 1.332.962c.575-.217 1.05-.475 1.203-.797s-.525-1.295-.552-1.574c-.027-.278.227-3.888.194-4.298-.04-.501-.078-1.187-.896-1.47-.818-.284-4.094-.92-4.915-1.079-.942-.185-1.612.309-1.725 1.12z"/><path fill="#FFDC5D" d="M16.217 6.241c.285-.396.498-.858.589-1.424.326-2.021-.9-3.9-2.738-4.196-1.838-.296-4.287 1.14-4.162 3.184.125 2.029 1.356 4.986 3.04 4.423.444-.149.889-.311 1.31-.502.19.209.349 1.031.298 1.742-.131 1.81 2.363 1.913 2.492.1.104-1.435-.819-2.312-.829-3.327z"/><path fill="#FFAC33" d="M10.637 1.206C13.067-.4 14.736-.192 16.151.88c1.405 1.065 1.526 3.148 1.178 4.485-.348 1.338-.736 1.275-.736 1.275s-1.824.465-2.005-1.233c-.057-.537.534-.843-.138-1.615-.432-.497-1.358-.219-1.344.514.015.732-.363.605-.363.605l-1.153-1.91s-.951-.03-1.456.856c-.317.555-1.62-1.248.503-2.651z"/><path fill="#4289C1" d="M19.459 10.057c-.77-1.644-1.984-2.479-3.384-1.957-4.381 1.635-2.36 5.68-.781 12.252 0 0 3.109.449 6.316.36 0 .001-.298-6.698-2.151-10.655z"/><path fill="#FFDC5D" d="M16.94 10.268c-.577-.345-1.571-.605-2.413.712s-1.251 2.794-1.338 3.466c-.087.672-1.127.196-2.194-.045-1.07-.242-2.429-.654-2.614-.79-.313-.229-.199-.874-.925-.837s-1.083-.047-1.11.622c-.026.669-.035 1.339.222 1.629.258.29 1.127.04 1.516.177.287.101 3.803 1.876 4.228 2.017.519.172 1.223.425 1.854-.275s2.658-3.714 3.167-4.47c.584-.867.373-1.748-.393-2.206z"/></svg>