<svg xmlns="http://www.w3.org/2000/svg" viewBox="0 0 36 36"><path fill="#1C6399" d="M24.434 12.633c.525-.149 1.422-.237 2.121-.201.662.034 1.486.591 1.629 1.038.143.448.09 1.074-.269 1.182s-.901-.251-1.588-.125c-.686.125-.624.445-.615.734.031.962-.508.864-.6.734-.203-.286-.563-.676-.975-1.054s-.033-2.214.297-2.308z"/><path fill="#E1E8ED" d="M36 16v16s0 4-4 4H4c-4 0-4-4-4-4v-2s17-10 36-14z"/><path fill="#EA596E" d="M32.816 20.98c.462 1.003.023 2.19-.98 2.653L8.221 34.511c-1.003.462-2.19.023-2.652-.979l-.837-1.817c-.462-1.003-.023-2.191.979-2.653l23.615-10.877c1.004-.462 2.191-.022 2.654.979l.836 1.816z"/><path fill="#1C6399" d="M13.5 25.438c-.802.902-.594 1.625-.562 1.969s2.311 2.38 2.688 2.5c1.207.386 2.805-.531 2.805-1.188 0-.474-.211-.938-.743-1.625s-.875-1.719-1.094-2.062-2.594-.157-3.094.406zm8.286-3.533c-.648 1-.349 1.688-.272 2.025.077.336 2.546 2.052 2.924 2.121 1.213.223 2.624-.897 2.535-1.547-.065-.47-.001-.663-.606-1.274-.604-.611-1.825-1.424-2.082-1.736s-2.095-.213-2.499.411z"/><path fill="#67757F" d="M24.729 21.688c-.23-1.023-1.108-3.478-1.464-4.43-.145-.389-.606-.911-1.114-1.114l-5.001-2c-.807-.324-6.026 1.939-5.458 2.886 0 0 .015 1.909 2.602 4.337-.524 1.467-.848 4.241-.848 4.241-.134 1.08 3.923 1 4.057.112s.315-2.529.934-4.032c.113-.276.167-.958 0-1.479-.167-.521-1.208-1.725-1.208-1.725s1.508.908 2.639 1.056c.131 1.023 1.223 2.302 1.454 3.444.221 1.09 3.777.345 3.407-1.296z"/><path fill="#BBDDF5" d="M24.408 12c-.429-.073-1.908-.588-2.304-.917-.396-.328-1.595-1.621-2.098-2.286-.366-.486-.99-.797-1.598-.797 0 0-5.408.011-6.408.011-2.406 0-5.125 2.489-5.585 3.294-.562.985-1.353 4.216-.509 7.195.094.333 3.53-.504 3.399-1.132-.284-1.368-.326-3.08-.125-3.536.201-.455.664-.801 1.32-1.098V18c0 .164.081.317.215.411.085.059.184.089.285.089.059 0 .119-.01.176-.032l8-3c.195-.073.324-.26.324-.468v-1.048c.594.476 1.594 1.096 1.83 1.21s1.679.812 2.707.812c.55 0 1.46-3.79.371-3.974z"/><path fill="#1C6399" d="M31.475 3.842l-1-3C30.406.638 30.215.5 30 .5c-.129 0-3.214.035-7.3 3.1-3.867 2.9-4.755 2.9-6.7 2.9h-3c-.133 0-.26.053-.354.147-.527.527-.666 1.268-.371 1.982.376.904 1.551 1.871 3.725 1.871 1.438 0 3.532-1.156 5.957-2.494C24.935 6.363 28.312 4.5 31 4.5c.161 0 .312-.077.405-.207.095-.131.12-.299.07-.451z"/><path fill="#F3D2A2" d="M18.408 4c0 2.209-1.791 4-4 4s-4-1.791-4-4 1.791-3 4-3 4 .791 4 3z"/><path fill="#9AAAB4" d="M12 4c2 0 4-1 4 0s0 3 2 3 3-7-3-7-6 4-3 4z"/><circle fill="#67757F" cx="11.5" cy="4.5" r="2"/><circle fill="#BDDDF4" cx="11.5" cy="4.5" r="1"/><circle fill="#67757F" cx="14.5" cy="4.5" r="2"/><circle fill="#BDDDF4" cx="14.5" cy="4.5" r="1"/><path fill="#1C6399" d="M6.47 17.805c-.917.79-.829 1.616-.501 2.195s.575.733 1.192.662c.589-.068 1.311-.745 1.727-1.204.569-.628.16-1.533.16-1.533s.351-.091.639-.278c.354-.229.402-1.139.062-.992-1.04.449-2.249.262-3.279 1.15z"/><path fill="#55ACEE" d="M15.018 27.982c-.276-.223.119-.841 1.078-1.235.887-.365 1.267.059 1.258.17-.008.104-.425-.242-1.113.183s-.917 1.129-1.223.882zm.553.716c-.276-.223.119-.841 1.078-1.235.887-.365 1.267.059 1.258.17-.008.104-.425-.243-1.113.183s-.918 1.129-1.223.882zm7.982-4.388c-.296-.195.037-.848.952-1.335.848-.45 1.267-.065 1.269.046.002.104-.447-.2-1.09.291-.642.491-.802 1.214-1.131.998zm.621.659c-.296-.195.037-.848.952-1.335.848-.45 1.267-.065 1.269.046.002.104-.447-.2-1.09.291s-.803 1.214-1.131.998z"/></svg>