<svg xmlns="http://www.w3.org/2000/svg" viewBox="0 0 36 36"><path fill="#FFDC5D" d="M36 20.363C34.648 19.937 32.158 17 30 17c-3 0-3-7-4-9s-3-4-3-5-3-2-8 0S7 5 5 5 2 7 1 9s0 2 0 2c1 1 2-2 4-3s3 1 5 0c1.493-.747 4.658.179 7-.136.794-.107 1.493-.357 2-.864 0 0 0 8 2 11 0 0-1 1-2 4s-2 0-2-2-1-5-5-7c-1.789-.894-5.658-.683-7 2-2 4 0 8 2 9s3 2 7 2c1.943 0 17.812.48 22 .364v-6.001z"/><path fill="#4289C1" d="M8.182 16.405c2.186-1.941 5.633-1.688 8.025.472C15.49 15.504 14.201 14.101 12 13c-1.789-.894-5.658-.683-7 2-2 4 0 8 2 9 .239.119.463.239.681.356-1.814-2.621-1.665-6.025.501-7.951z"/><path fill="#EF9645" d="M12 18.5c-.128 0-.256-.049-.354-.146-.195-.195-.195-.512 0-.707C12.78 16.513 13.951 16.5 14 16.5c.276 0 .5.224.5.5s-.224.5-.5.5c-.028 0-.821.028-1.646.854-.098.097-.226.146-.354.146zm-4 3c-.128 0-.256-.049-.354-.146-.195-.195-.195-.512 0-.707C8.78 19.513 9.951 19.5 10 19.5c.276 0 .5.224.5.5s-.224.5-.5.5c-.028.001-.821.028-1.646.854-.098.097-.226.146-.354.146z"/><path fill="#55ACEE" d="M0 24h36v12H0z"/><path fill="#55ACEE" d="M6 24c3-2 7-5 6-3s-1.001 3 1 2c2-1 5-2 4 0s2 1 3 0 4 0 3 1-9 2-12 2-5-2-5-2z"/></svg>