<svg xmlns="http://www.w3.org/2000/svg" viewBox="0 0 36 36"><path fill="#7C533E" d="M36 20.363C34.529 19.5 31.846 18 30 17c-2.638-1.429-3.53-5.558-4.14-7.737C25.256 7.11 23.201 3.737 23 3c-.263-.965-3-2-8 0S7 5 5 5 2 7 1 9s0 2 0 2c1 1 2-2 4-3s3 1 5 0c1.493-.747 4.146.009 6.488-.305.794-.107 2.005-.188 2.512-.695 0 0 .572 6.698 2 11 0 0-.209 1.075-1.209 4.075-.5 1.5-1.791 1.425-2.166.8S17 21 17 20c0-2-1-5-5-7-1.789-.894-5.658-.683-7 2-2 4 0 8 2 9s3 2 7 2c1.943 0 17.812.48 22 .364v-6.001z"/><path fill="#FA743E" d="M21 18c3.745 2.204 12.107.993 12.798.897S36 20.363 36 20.363v4.918H19.626s.348-2.123-.23-3.073C20.396 20.754 21 18 21 18z"/><path fill="#DD551F" d="M8.182 16.405c2.186-1.941 5.633-1.688 8.025.472C15.49 15.504 14.201 14.101 12 13c-1.789-.894-5.658-.683-7 2-2 4 0 8 2 9 .239.119.463.239.681.356-1.814-2.621-1.665-6.025.501-7.951z"/><path fill="#583529" d="M12 18.5c-.128 0-.256-.049-.354-.146-.195-.195-.195-.512 0-.707C12.78 16.513 13.951 16.5 14 16.5c.276 0 .5.224.5.5s-.224.5-.5.5c-.028 0-.821.028-1.646.854-.098.097-.226.146-.354.146zm-4 3c-.128 0-.256-.049-.354-.146-.195-.195-.195-.512 0-.707C8.78 19.513 9.951 19.5 10 19.5c.276 0 .5.224.5.5s-.224.5-.5.5c-.028.001-.821.028-1.646.854-.098.097-.226.146-.354.146z"/><path fill="#55ACEE" d="M0 24h36v12H0z"/><path fill="#55ACEE" d="M6 24c3-2 7-5 6-3s-1.001 3 1 2c2-1 5-2 4 0s2 1 3 0 4 0 3 1-9 2-12 2-5-2-5-2z"/></svg>