<svg xmlns="http://www.w3.org/2000/svg" viewBox="0 0 36 36"><path fill="#4289C1" d="M36 5v27s0 4-4 4H4c-4 0-4-4-4-4v-5s25-2 36-22z"/><path fill="#1C6399" d="M31.844 23.243s2.565-1.635 2.258-2.288c-.309-.654-11.778.99-17.528 2.954-8.627 2.947-13.144 7.522-12.526 8.828.617 1.306 7.602 1.953 16.228-.993 5.752-1.964 15.368-7.524 15.06-8.177-.309-.653-3.492-.324-3.492-.324z"/><path fill="#A6D388" d="M31.474 22.747s2.65-1.619 2.349-2.291c-.303-.673-12.042.782-17.949 2.675C7.01 25.972 2.311 30.555 2.916 31.9c.605 1.345 7.723 2.141 16.585-.699 5.91-1.893 15.833-7.383 15.532-8.055-.303-.673-3.559-.399-3.559-.399z"/><path fill="#F5F8FA" d="M31.474 22.747s2.507-1.534 2.358-2.235L3.756 29.978c-.722.837-1.019 1.523-.84 1.922.156.348.755.657 1.7.878l30.395-9.566c.003-.02.029-.051.022-.066-.303-.673-3.559-.399-3.559-.399z"/><path fill="#AF7E57" d="M14.919 1.309c-1.46-.632-3.707.061-4.116 1.762-.572 2.374.726 4.444 2.239 4.331 1.586-.118 2.568-.436 3.263-2.042.695-1.605.074-3.419-1.386-4.051z"/><path fill="#AF7E57" d="M15.871 5.765c2.237-2.457-2.957-2.383-2.957-2.383-.983.003-.362 1.661-.853 2.538-.337.607.985.979.985.979s.612.011.62.755v.007c.001.189-.026.413-.124.71-.489 1.472 1.477 2.449 1.965.975.193-.584.143-1.104.071-1.586l-.007-.043c-.109-.715-.253-1.344.3-1.952z"/><path fill="#60352A" d="M16.763 1.884c-.697-1.012-3.117-1.965-4.713-.767-1.07-.222-1.517.787-1.445 1.379.057.473 1.209.633 1.469 1.535.209-.217.277-.674.242-.921.356.366.165 1.292 1.592 1.949 1.38.634 1.091 1.862 1.091 1.862s.749-.324 1.281-.9c1.019-1.101 1.251-3.022.483-4.137z"/><path fill="#AF7E57" d="M16.261 28.432c-.378-.1-.971-.58-1.154-.912-.661-1.197.171-3.476.19-4.777.005-.37-2.213-1.974-2.86-1.016s.991 4.719.812 6.193c-.04.326-.227.814-.126 1.015.101.201.817.74 1.301.839 1.237.255 2.491-.342 2.644-.517.222-.254-.428-.725-.807-.825zm7.51-3.222c-.334-.065-.85-.469-1.016-.753-.29-.498.157-3.642.127-4.946-.35-.234-2.393.926-2.393.926-.437 1.815.817 2.863.659 4.262-.032.284-.17.964-.071 1.132.099.169.752.594 1.178.652 1.088.148 2.141-.443 2.264-.604.178-.234-.414-.604-.748-.669zm3.984-12.977c-.589-.235-1.348-.276-2.104-.386-1.198-.175-2.852-.765-3.529-1.086-.825-.495-2.577-1.661-3.012-1.948S18.093 8.128 17.375 8h-.156c.385.542.609 1.159.748 2.841 0 0 3.319 1.661 3.595 1.753 1.125.375 3.182.366 4.344.512.602.076 1.021-.014 1.499-.047.722-.049 1.38-.055 1.422-.371.05-.367-.595-.265-1.072-.455zM10.999 8.402c-1.666.993-3.368 3.049-3.98 3.914-.36.283-.686.614-.897.736-.389.223-2.154 1.432-3.334 2.005-.354.166-1.458.438-1.992.781-.432.278-.845.262-.727.612.102.302.508.216 1.227.132.719-.084 1.929-.289 2.325-.566.8-.531 3.347-1.156 4.597-2.031.221-.155 2.385-2.163 2.781-2.741.543-1.515.282-2.556 0-2.842z"/><path fill="#292F33" d="M23.042 19.417c-.229-.981-1.5-2.047-2.677-2.948-1.177-.901-2.375-1.438-2.375-1.438.034-.487-.172-1.295-.089-2.016.099-.853.26-1.689.26-1.689s1.633.727 3.402 1.267c.302-.363.618-1.395.559-1.833-.903-.841-2.483-1.754-2.919-2.042s-.837-.637-1.828-.718h-1.639s-.099.856-.749.918C14.337 8.98 13.56 8 13.56 8l-1.748.167c-2.198.338-4 3.024-4.794 4.151-.36.283-.36.283-.526.447.927.602 2.128 1.035 2.128 1.035 1.188-1.024 2.078-1.535 2.474-2.113 0 0 .659 1.356.912 2.388.253 1.032.202 2.925.202 2.925s-.005 1.674.058 1.94c.088.372.353 1.449.353 1.884 0 0-.606 1.335-.302 2.484.403 1.529.885 3.468.927 4.008 1.412 0 1.667-.359 1.667-.359s.02-.839.134-1.778c.069-.572.269-1.544.269-2.393 0-.849.217-1.424.343-1.776s.601-1.452.677-2.052c.02-.162.008-.374-.022-.6.534.292 1.493.792 2.084.954.849.232 1.494.595 1.718.79s.376.335.376.335-.201.557-.141 1.516c.055.877.693 1.658.8 2.703.893-.133 1.53-.499 1.53-.499s.079-1.336.098-1.916c.023-.706.412-2.193.265-2.824z"/><path fill="#67757F" d="M7.192 13.168c.795-1.126 3.067-4.339 5.508-4.55 0 0 1.118 1.459 2.565 1.235 1.447-.224 1.482-1.318 1.482-1.318l1.727.149c.494.04.841.148 1.12.281-.163-.101-.304-.189-.391-.246-.435-.287-.837-.638-1.828-.719h-1.639s-.309.699-.751.766S13.56 8 13.56 8l-1.748.167c-2.678.421-4.566 3.941-5.32 4.598.106.104.456.283.7.403z"/><path fill="#67757F" d="M13.762 27.297c-.402-1.36-1.283-4.497-.45-6.056.075-.368-.23-1.357-.318-1.729-.063-.266-.103-2.438-.072-2.717 3.859-.123 5.068-1.763 5.068-1.763s-2.139 1.191-5.354.57c.174-1.719-1.134-4.337-1.134-4.337-.213-.025-.265.168-.408.424 0 0 .774 1.865.912 2.718.137.852.202 2.593.202 2.593s-.005 1.674.058 1.94c.088.372.353 1.449.353 1.884-.952 1.783-.099 2.98.625 6.492.169.008.336.008.518-.019zm7.32-4.562c-.06-.958.024-1.639-.072-1.843-.096-.204-.52-.455-.52-.455s-.201.557-.141 1.516c.055.877.69 1.734.8 2.703.309-.046.406-.073.706-.161-.613-.261-.735-1.154-.773-1.76z"/></svg>