<svg xmlns="http://www.w3.org/2000/svg" viewBox="0 0 36 36"><path fill="#292F33" d="M28.721 12.849s3.809 1.643 5.532.449c1.723-1.193 2.11-2.773 1.159-4.736-.951-1.961-3.623-2.732-3.712-5.292 0 0-.298 4.141 1.513 5.505 2.562 1.933-.446 4.21-3.522 3.828-3.078-.382-.97.246-.97.246z"/><path fill="#8A4B38" d="M23.875 19.375s-.628 2.542.187 5.03c.145.341.049.556-.208.678-.256.122-4.294 1.542-4.729 1.771-.396.208-1.142 1.78-1.208 2.854.844.218 1.625.104 1.625.104s.025-1.915.208-2.042c.183-.127 5.686-1.048 6.062-1.771s1.611-3.888.812-5.292c-.225-.395-.637-1.15-.637-1.15l-2.112-.182z"/><path fill="#292F33" d="M17.917 29.708s-.616 1.993.008 2.138c.605.141 1.694-.388 1.755-.646.081-.343.216-1.179.098-1.366-.118-.186-1.861-.126-1.861-.126z"/><path fill="#8A4B38" d="M11.812 21.875l-.75-2.562s-2.766 2.105-3.938 3.594c-.344.437-1.847 3.198-1.722 4.413.05.488.474 2.583.474 2.583l1.651-.465s-1.312-1.896-1.021-2.562c1.428-3.263 5.306-5.001 5.306-5.001z"/><path fill="#292F33" d="M7.679 29.424c-.172-.139-1.803.479-1.803.479s.057 2.085.695 2.022c.618-.061 1.48-.912 1.455-1.175-.034-.351-.175-1.187-.347-1.326z"/><path fill="#C1694F" d="M27.188 11.188c-3.437.156-7.207.438-9.5.438-3.655 0-5.219-1.428-6.562-2.625C8.838 6.964 8.167 4.779 6 5.501c0 0-.632-.411-1.247-.778l-.261-.152c-.256-.148-.492-.276-.656-.347-.164-.072-.258-.087-.228-.01.019.051.093.143.236.286.472.472.675.95.728 1.395-2.01 1.202-2.093 2.276-2.871 3.552-.492.807-1.36 2.054-1.56 2.515-.412.948 1.024 2.052 1.706 1.407.893-.845.961-1.122 2.032-1.744.983-.016 1.975-.416 2.308-1.02 0 0 .938 2.083 1.938 3.583s2.5 3.125 2.5 3.125c-.131 1.227.12 2.176.549 2.922-.385.757-.924 1.807-1.417 2.745-.656 1.245-1.473 3.224-1.208 3.618.534.798 2.719 2.926 4.137 3.311 1.03.28 2.14.437 2.14.437l-.193-1.574s-1.343.213-1.875-.083c-1.427-.795-2.666-2.248-2.708-2.542-.07-.487 3.841-2.868 5.14-3.645 2.266.097 6.022-.369 8.626-1.702.958 1.86 2.978 2.513 2.978 2.513s.667 2.208 1.375 4.125c-1.017.533-4.468 3.254-4.975 3.854-.456.54-.856 2.49-.856 2.49.82.375 1.57.187 1.57.187s.039-1.562.385-2.073c.346-.511 4.701-2.559 5.958-3.458.492-.352.404-.903.262-1.552-.321-1.471-.97-4.781-.971-4.782 5.146-2.979 6.458-11.316-2.354-10.916z"/><path fill="#292F33" d="M22.336 33.782s-.616 1.993.008 2.138c.605.141 1.694-.388 1.755-.646.081-.343.216-1.179.098-1.366-.118-.187-1.861-.126-1.861-.126zm-7.676-5.296c-.167.146.164 1.859.164 1.859s2.064.299 2.111-.34c.045-.62-.647-1.614-.91-1.634-.351-.027-1.198-.031-1.365.115z"/><path fill="#FFAC33" d="M25.103 11.282c-3.295.135-9.103.499-10.4-.079.063 1.922-.676 3.605.3 6.865.46.101 8.122.244 10.935-.912-.672-2.862-.389-3.993-.835-5.874z"/><path fill="#623120" d="M15.891 11.438s-.759 3.543 2.408 3.63 2.792-2.247 3.045-2.505 2.718-.391 2.718-1.064c0-.233-1.269-.127-1.874-.099-.303.014-3.589.204-6.297.038z"/><path fill="#5C913B" d="M6.094 5.706c-.682.47-1.67.286-1.67.286-.594.25-1.524 1.156-1.93 1.937S.969 10.593.969 10.593s1.094.865 1.719 1.906c0 0 .531-.531 1.192-.875 1.942-.063 2.308-1.02 2.308-1.02s.031-2.992-.094-4.898zM4.321 8.467c-.253 0-.46-.206-.46-.459s.207-.459.46-.459.459.206.459.459-.206.459-.459.459z"/><circle fill="#292F33" cx="4.25" cy="8.047" r=".349"/><path fill="#F5F8FA" d="M4.321 7.099c-.502 0-.909.408-.909.909s.407.909.909.909c.501 0 .908-.408.908-.909s-.407-.909-.908-.909zm0 1.368c-.253 0-.46-.206-.46-.459s.207-.459.46-.459.459.206.459.459-.206.459-.459.459zm-1.785 4.185L.765 10.9l.253-.388 1.841 1.817zm3.568-6.953l.449-.009.093 4.898-.449.009z"/><path fill="#292F33" d="M12.655 9.07c1.773 1.446 3.147.322 3.147.322-1.295-.271-2.056-.867-2.708-1.562.835-.131 1.287-.666 1.287-.666-1.061-.013-1.824-.3-2.485-.699-.565-.614-1.233-1.202-2.254-1.631-.294-.125-.606-.21-.922-.276-.086-.025-.178-.063-.258-.073-.906-.114-1.845.051-2.737.603-.322.2-.214.639.117.623 1.741-.085 2.866.582 3.47 1.633 2.169 3.772 5.344 3.875 5.344 3.875s-1.29-.688-2.001-2.149zm5.11 13.33l-.361-7.566 1.029.228.45 7.208c-.377.071-1.118.13-1.118.13z"/><path fill="#623120" d="M2.354 12.75c-.191 0-.374-.11-.457-.296-.112-.252.001-.548.254-.66C8.29 9.058 13.369 9.059 13.628 9.047c.275.001.498.226.497.502-.001.275-.226.498-.5.498h-.004c-.104 0-5.15.025-11.063 2.66-.066.029-.135.043-.204.043z"/><path fill="#AE7E57" d="M18.875 5.516c-.438-1.469-3.256-1.231-3.077-2.591l-.121.243c-.028-.207-.079-.416-.171-.62-.45-.997-1.522-1.486-2.394-1.092-.756.341-1.738.349-1.341 1.636.061.197.134.451.248.703.452.996 1.849 1.665 2.722 1.271.05-.022.091-.055.137-.082.207.123.84.506 1.864 1.205 1.207.823 2.568.797 2.133-.673z"/><path fill="#60352A" d="M11.889 1.419c.256-.5 1.301-1.065 2.192-1.01 1.005.063 1.564.76 1.795 1.633.114.43.045.914-.043 1.27 0 0-.965-.087-.858-.15.198-.117.034-.815-.218-.907-.265-.097-.361.163-.324.364.036.201.032.324-.08.398s-.489-.502-.765-.614c-.455-.185-1.491 1.132-1.816.69-.202-.276-.2-1.055.117-1.674z"/><path fill="#9266CC" d="M13.163 2.849s1.582-.754 1.988-.869.603-.166.671-.252c.067-.086-.103-.225-.178-.316s-.44-.974-1.275-1.243c-.696-.224-1.202-.111-1.583.045s-1.184.512-1.366 1.842c-.096.745.038 1.145.038 1.145s-.476.136-.523.144c-.047.008-.042.126.179.181.221.055 1.292-.068 1.64-.231s.318-.371.409-.446z"/><path d="M20.828 14.172c-.186-.532-.248-.716-.554-1.524-.1-.264-.219-.585-.369-.993l-1.934.745c.176.383.313.688.426.946.364.832.475 1.321.592 1.877l-.801.291c-.387.168-.811.333-.858.933-.036.462.341.424.635.388.433-.052 3.093-.506 3.223-.788.117-.257-.139-1.243-.36-1.875z"/><path fill="#CCD6DD" d="M17.971 12.4s-.2-.506-.395-1.169c-.376-1.282-.565-2.314 3.451-3.335-.024-.042-.056-.092-.099-.152-1.324-1.858-4.253-3.696-3.491-3.815 3.832-.601 5.007-.007 6.684 2.349.827 1.162.936 1.593.784 2.191-.59 2.328-5.15 1.272-5 3.186l-1.934.745z"/><path fill="#5C913B" d="M17.439 7.086c1.535 1.055 2.339-.154 3.588.81l3.277-1.322c-1.281-2.465-4.879-4.553-7.86-3.024-.693.355-1.185 1.024-1.041 1.804.289 1.56 1.405 1.299 2.036 1.732z"/><path fill="#A6D388" d="M17.937 5.153c-.031-.08-.117-.287-.179-.356-.3-.419-.842-.609-1.34-.406-.583.238-.864.903-.626 1.487.924 2.413 1.142 2.651 1.032 2.839-.03.03-.348.284-2.323.09L14 9v1l.305.797c1.924.189 3.359.114 4.107-.865.879-1.152.428-2.421-.475-4.779z"/><path fill="#AE7E57" d="M14.502 8.807c-1.893-1.191-2.035.25-2.089.799-.054.55-.098.995 1.893 1.191l.196-1.99z"/><path fill="#AAB8C2" d="M18.273 15.478l.447-.159c-.488-1.218-1.031-1.021-1.071-1.006-.2.076-.925 1.053-.316 2.516.039.093.126.15.22.154.036.002.073-.005.107-.019.127-.054.188-.199.135-.327-.373-.896-.142-1.651.031-1.725.172-.073.411.302.447.566z"/></svg>