<svg xmlns="http://www.w3.org/2000/svg" viewBox="0 0 36 36"><path fill="#AF7E57" d="M15.81 34.875h-1.422s-1.323-3.348-1.119-5.736l2.918.549c.548 1.571-.377 5.187-.377 5.187zm4.317 0h1.422s1.323-3.348 1.119-5.736l-2.918.549c-.548 1.571.377 5.187.377 5.187z"/><path fill="#4289C1" d="M13.617 35.149c.106-.243.331-.694.355-.955.024-.261.036-.354.25-.426.362-.121 1.496-.087 1.691-.016.194.071.197.263.225.424.028.161.118.424.237.64s.426.697.272 1.034c-.064.14-.422.138-1.569.138s-1.476-.026-1.554-.118c-.08-.092-.014-.477.093-.721zm8.704 0c-.106-.243-.331-.694-.355-.955-.024-.261-.036-.354-.25-.426-.362-.121-1.496-.087-1.691-.016-.194.071-.197.263-.225.424s-.118.424-.237.64c-.118.216-.426.697-.272 1.034.064.14.422.138 1.569.138s1.476-.026 1.554-.118.013-.477-.093-.721z"/><path fill="#AF7E57" d="M8.646 4.146c.011.127.871 1.535 1.323 2.635.452 1.1.71 2.198.948 2.448.476.499 2.285 1.879 3.271 3.343.985 1.464.57 2.503-.094 2.922-.88.555-1.803.204-2.437-.788-.451-.706-1.951-3.209-2.739-4.601-.306-.541-1.018-1.512-1.449-2.574-.406-1-.454-2.168-.515-2.312-.179-.425-.878-.977-.912-1.407 0 0 2.567-.095 2.604.334zm18.708 0c-.011.127-.871 1.535-1.323 2.635-.452 1.1-.71 2.198-.948 2.448-.476.499-2.285 1.879-3.271 3.343-.985 1.464-.57 2.503.094 2.922.88.555 1.803.204 2.437-.788.451-.706 1.951-3.209 2.739-4.601.304-.54 1.017-1.511 1.448-2.573.406-1 .454-2.168.515-2.312.178-.425.878-.977.912-1.406.001-.002-2.566-.097-2.603.332z"/><path fill="#99AAB5" d="M36 3.5c0 .276-.224.5-.5.5H.5C.224 4 0 3.776 0 3.5S.224 3 .5 3h35c.276 0 .5.224.5.5z"/><path fill="#292F33" d="M34 0c-.553 0-1 .448-1 1 0-.552-.447-1-1-1-.553 0-1 .448-1 1v5c0 .552.447 1 1 1 .553 0 1-.448 1-1 0 .552.447 1 1 1 .553 0 1-.448 1-1V1c0-.552-.447-1-1-1zM4 0c-.553 0-1 .448-1 1 0-.552-.447-1-1-1S1 .448 1 1v5c0 .552.447 1 1 1s1-.448 1-1c0 .552.447 1 1 1s1-.448 1-1V1c0-.552-.447-1-1-1z"/><path fill="#4289C1" d="M24.918 13.806c-.625-.583-2.746-1.723-2.746-1.723-.742.419-1.283 1.257-1.492 1.617-.665.117-1.151.3-1.151.3H16.47s-.486-.183-1.151-.3c-.209-.36-.75-1.197-1.492-1.617 0 0-2.121 1.14-2.746 1.723.21.537.492 1.047.716 1.417.255 1.29 1.146 2.763 1.281 3.013.418.78.922 4.264.922 4.264l4 1.5 4-1.5s.504-3.484.922-4.264c.134-.25 1.025-1.724 1.281-3.013.224-.37.506-.879.715-1.417z"/><path fill="#AF7E57" d="M16.471 11.412v3.059c0 .844.684 1.529 1.529 1.529.845 0 1.529-.685 1.529-1.529v-3.059h-3.058z"/><path fill="#60352A" d="M18.375 3.353c-.89 0-1.712.284-2.386.763-1.385.072-2.49 1.209-2.49 2.612 0 1.156.005 2.613 1.529 3.156.749 1.04 1.967 1.719 3.347 1.719 2.278 0 4.125-1.846 4.125-4.125 0-2.278-1.847-4.125-4.125-4.125z"/><path fill="#AF7E57" d="M21.75 5.602h-7.5v4.5c0 2.072 1.679 3.75 3.75 3.75 2.072 0 3.75-1.678 3.75-3.75v-4.5z"/><path fill="#60352A" d="M18 4l-3.924 1.533v3.139c1.831 0 2.236-1.893 2.327-2.737.031.844.639 2.737 5.52 2.737V5.533L18 4z"/><path fill="#915A34" d="M19.5 12.353h-3s0 .75 1.5.75 1.5-.75 1.5-.75z"/><circle fill="#662113" cx="16.125" cy="9.728" r=".375"/><path fill="#662113" d="M20.25 9.728c0 .207-.168.375-.374.375-.208 0-.375-.168-.375-.375s.168-.375.375-.375c.206 0 .374.168.374.375z"/><path fill="#915A34" d="M17.25 10.853h1.5s0 .75-.75.75-.75-.75-.75-.75z"/><g fill="#AF7E57"><path d="M27.096 4.363c-.33-.157-.476-.428-.377-.719l.003-.01c.099-.291.291-.346.738-.339 0 0 1.521.076 2.437.712 0 0-.199.304-.447.56l-.003.01c-.101.29-1.614.137-2.351-.214z"/><path d="M27.843 3.47c-.137-.033-.221-.173-.188-.31l.087-.357c.033-.137.173-.221.31-.188s.221.173.188.31l-.087.357c-.034.137-.173.221-.31.188zm-.445-.87c-.163-.055-.342.034-.397.197l-.279.837c-.055.164.168-.068.332-.013.163.055.342-.033.397-.196l.144-.427c.055-.164-.034-.342-.197-.398z"/><path d="M28.384 3.399c-.137-.033-.221-.173-.188-.31l.082-.334c.033-.137.173-.221.31-.188s.221.173.188.31l-.082.334c-.034.137-.173.221-.31.188z"/><path d="M28.9 3.424c-.137-.033-.221-.173-.188-.31l.068-.277c.033-.137.173-.221.31-.188s.221.173.188.31l-.068.277c-.034.137-.173.221-.31.188z"/><path d="M29.419 3.447c-.137-.033-.221-.173-.188-.31l.04-.162c.033-.137.173-.221.31-.188s.221.173.188.31l-.04.162c-.034.137-.174.222-.31.188z"/></g><g fill="#AF7E57"><path d="M8.904 4.363c.33-.157.476-.428.377-.719l-.003-.01c-.099-.29-.291-.346-.738-.339 0 0-1.521.076-2.437.712 0 0 .199.304.447.56l.003.01c.101.29 1.614.137 2.351-.214z"/><path d="M8.157 3.47c.137-.033.221-.173.188-.31l-.087-.357c-.033-.137-.173-.221-.31-.188-.137.034-.221.173-.188.31l.087.357c.034.137.173.221.31.188zm.445-.87c.163-.055.342.034.397.197l.279.837c.055.164-.168-.068-.332-.013-.163.055-.342-.033-.397-.196l-.144-.427c-.055-.164.034-.342.197-.398z"/><path d="M7.616 3.399c.137-.033.221-.173.188-.31l-.082-.334c-.033-.137-.173-.221-.31-.188-.136.034-.221.173-.187.31l.082.334c.033.137.172.221.309.188z"/><path d="M7.1 3.424c.137-.033.221-.173.188-.31l-.068-.277c-.033-.137-.172-.221-.309-.188s-.221.173-.188.31l.068.277c.033.137.172.221.309.188z"/><path d="M6.581 3.447c.137-.033.221-.173.188-.31l-.039-.162c-.034-.136-.173-.221-.31-.188-.137.034-.221.173-.188.31l.04.162c.033.137.173.222.309.188z"/></g><path fill="#3A6693" d="M22 24.5L18 23l-4 1.5s-.854 1.917-1 5.188h3.187c.917-.979 1.25-3.604 1.25-3.604h1.125s.333 2.625 1.25 3.604H23c-.146-3.271-1-5.188-1-5.188z"/><path fill="#C1694F" d="M14 22.5h8v2h-8z"/><path fill="#14171A" d="M19 22.399h.65v2.209H19z"/><circle fill="#14171A" cx="18.5" cy="23.458" r=".167"/><path fill="#14171A" d="M18.021 23.458c0 .092-.075.167-.167.167-.092 0-.167-.075-.167-.167 0-.092.075-.167.167-.167.092.001.167.075.167.167z"/><circle fill="#14171A" cx="17.208" cy="23.458" r=".167"/><circle fill="#14171A" cx="16.562" cy="23.458" r=".167"/><circle fill="#14171A" cx="15.917" cy="23.458" r=".167"/><circle fill="#14171A" cx="15.271" cy="23.458" r=".167"/><circle fill="#14171A" cx="14.625" cy="23.458" r=".167"/><circle fill="#14171A" cx="17.208" cy="23.458" r=".167"/><circle fill="#657786" cx="16.553" cy="23.458" r=".148"/><path fill="#657786" d="M16.318 23.31h.235v.297h-.235z"/><path fill="#657786" d="M16.729 24.846h-.758v-2.697h.758v.35h-.409v1.997h.409z"/></svg>