<svg xmlns="http://www.w3.org/2000/svg" viewBox="0 0 36 36"><path fill="#EEC2AD" d="M23.331 31.571c-.397-.703-2.062-3.517-2.271-4.202-.208-.688-.65-5.92-.425-8.497 0 0-4.17-2.707-3.805.281.371 3.032 1.247 8.775 1.412 9.329.166.552 2.589 3.442 3.342 4.393.417.527 2.093-.693 1.747-1.304z"/><path fill="#BE1931" d="M20.751 18.872l-4.48.281c.237 1.643-.646 4.644 1.51 6.081 0 0 2.817-.587 4.438-.047.812.271-1.623-4.811-1.468-6.315z"/><path fill="#F7DECE" d="M19.75 18.094c-.519-2.866-5.22.469-5.22.469s-1.768 8.649-1.768 9.48c0 .828.914 4.528 1.165 5.856.084.439 2.633.614 2.523-.354-.069-.599-.517-4.492-.444-4.948.073-.458.452-2.888 1.109-4.426.47-1.1 3.328-2.249 2.635-6.077z"/><path fill="#DD2E44" d="M13.937 18.562l-1.781 5.875c2.484.953 5.564.936 5.625.797.082-.187-.521-.597-.431-.767.586-1.1 4.239-2.546 3.374-6.374-.647-2.865-6.787.469-6.787.469z"/><path fill="#66757F" d="M13.228 3.48c-.152.278-.643.3-1.093.052L9.522 2.113C9.072 1.864 9.55.81 10 1.059l2.692 1.466c.45.249.536.955.536.955z"/><path fill="#CCD6DD" d="M16.511 33.744c-.658-.864-4.719.256-6.118.957C9.459 35.17 9.736 36 9.736 36h7.033s.4-1.391-.258-2.256z"/><path fill="#EEC2AD" d="M20.357 8.932c-2.148-1.12-5.023-2.745-7.273-5.713-.235-.31-2.122.944-1.969 1.156 2.125 2.938 4.438 5.5 11.075 7.398.069.02-.943-2.376-1.833-2.841z"/><path fill="#F7DECE" d="M25.395 5.216c0 1.976-1.601 3.579-3.578 3.579-1.977 0-3.58-1.603-3.58-3.579 0-1.976 1.603-3.579 3.58-3.579s3.578 1.602 3.578 3.579"/><path fill="#DD2E44" d="M19.948 5.215c-1.71-1.278-2.587-3.85-1.95-4.525 1.196-1.268 3.688-.109 4.328.983.641 1.094-1.86 3.929-2.378 3.542z"/><path fill="#9266CC" d="M13.937 18.562s-.685-6.782 2.383-9.149c2.289-1.768 6.143-.446 7.165 1.599 1.024 2.045-2.635 3.167-2.635 8.28.001 1.023-6.913 1.274-6.913-.73z"/><path fill="#F7DECE" d="M20.198 5.813c-.466 1.068-.788 1.977-.988 2.783.574.271 1.061 1.31 1.701 1.542 1.056.383 1.173-.277 1.197-.398.257-1.297.908-2.537 1.328-3.203.512-.809-2.645-2.084-3.238-.724z"/><path fill="#EA596E" d="M18.961 3.06c0 1.151 1.674 4.486 4.971 4.473 1.727-.007 2.037-1.91 2.028-3.172-.006-1.081-1.176-2.966-2.808-3.433-1.631-.467-4.191.679-4.191 2.132z"/><path fill="#CCD6DD" d="M22.906 31.456c1.5-.255 1.286 1.386 1.247 1.974-.093 1.4-.37 2.57-1.362 2.57H19.47s-.184-1.522 1.603-1.868c.353-.069-.312-2.312 1.833-2.676z"/><path fill="#F7DECE" d="M17.916 9.672c-1.993 0-3.435-.498-4.286-1.481-.717-.828-.977-1.983-.796-3.425.592-.259 1.006-.833 1.006-1.503 0-.913-.763-1.652-1.705-1.652-.94 0-1.704.739-1.704 1.652 0 .194.041.377.104.55-.004.017-.015.03-.017.048-.871 7.123 4.099 7.824 5.732 8.055.101.014 1.768-2.244 1.666-2.244z"/><path fill="#292F33" d="M23.506 7.904s-.199-1.072 1.3-1.197c1.236-.103 1.563 1.248 2.458 1.731.675.364 1.447.376 1.985.013 0 0-.74.896-1.571 1.238-1.08.444-2.411.159-3.046-.181-.992-.531-1.126-1.604-1.126-1.604z"/><path fill="#66757F" d="M29.608 11.917c-.013-.006-.025-.007-.037-.012-.049-.036-.091-.076-.147-.107l-15.62-8.65c-.449-.249-.706.926-.257 1.175l14.883 8.24c-.436.748-.717 1.871-.827 2.339-.189.805 1.137 1.61 2.004 1.61.867.001 1.027-4.072.001-4.595z"/><path fill="#9266CC" d="M14.445 8.385c-.384 1.283-1.605 2.723-1.605 2.723 1.765 1.579 3.844 1.719 3.844 1.719s1.818-2.049 2.159-3.28c-1.551.432-4.398-1.162-4.398-1.162z"/></svg>