<svg xmlns="http://www.w3.org/2000/svg" viewBox="0 0 36 36"><path fill="#99AAB5" d="M6.5 24C3.462 24 1 26.463 1 29.5S3.462 35 6.5 35s5.5-2.463 5.5-5.5S9.538 24 6.5 24zm0 9C4.567 33 3 31.433 3 29.5S4.567 26 6.5 26s3.5 1.567 3.5 3.5S8.433 33 6.5 33zm23-9c-3.037 0-5.5 2.463-5.5 5.5s2.463 5.5 5.5 5.5 5.5-2.463 5.5-5.5-2.463-5.5-5.5-5.5zm0 9c-1.934 0-3.5-1.567-3.5-3.5s1.566-3.5 3.5-3.5 3.5 1.567 3.5 3.5-1.566 3.5-3.5 3.5z"/><path fill="#292F33" d="M6.5 22.914c-3.59 0-6.5 2.91-6.5 6.5s2.91 6.5 6.5 6.5 6.5-2.91 6.5-6.5-2.91-6.5-6.5-6.5zm0 11c-2.485 0-4.5-2.015-4.5-4.5s2.015-4.5 4.5-4.5 4.5 2.015 4.5 4.5-2.015 4.5-4.5 4.5zm23-11c-3.59 0-6.5 2.91-6.5 6.5s2.91 6.5 6.5 6.5 6.5-2.91 6.5-6.5-2.91-6.5-6.5-6.5zm0 11c-2.485 0-4.5-2.015-4.5-4.5s2.015-4.5 4.5-4.5 4.5 2.015 4.5 4.5-2.015 4.5-4.5 4.5z"/><path fill="#77B255" d="M7.001 27.051c-2 4 .999 2.587 1.999.587.905-1.811 3.444-2.429 4.66-.375C12.708 24.213 9.863 22 6.5 22c-1.374 0-2.657.375-3.764 1.02 2.833.165 5.366 1.831 4.265 4.031z"/><path fill="#99AAB5" d="M30 29c0 .553-.447 1-1 1h-9c-.553 0-1-.447-1-1 0-.553.447-1 1-1h9c.553 0 1 .447 1 1z"/><path fill="#99AAB5" d="M29.923 30.306c-.433.344-1.062.272-1.405-.161L22.917 23.1c-.344-.433-.271-1.062.16-1.405.433-.344 1.062-.272 1.405.161l5.601 7.045c.344.432.271 1.061-.16 1.405z"/><path fill="#CCD6DD" d="M12.463 20.367c.466.297.602.915.304 1.381L7.918 29.33c-.298.465-.916.602-1.381.303-.466-.297-.602-.915-.304-1.381l4.849-7.582c.298-.465.916-.602 1.381-.303z"/><path fill="#77B255" d="M10.529 17.368C9.718 17.953 6 19 9 21s5.094 4.125 5.094 6c0 2.665-.656 4 .906 4h7s-1-4 2-7 5-2 8-3c1.897-.633 4-2 4-3s0-2-2-1-1 1.551-3 .551-3.16.449-4.16.449-7.614 1.68-8.62-.049C17.667 17 16.434 16 14.616 16c-1.318 0-3.116.667-4.087 1.368z"/><path fill="#66757F" d="M21 29c0 1.104-.895 2-2 2-1.104 0-2-.896-2-2s.896-2 2-2c1.105 0 2 .896 2 2z"/><path fill="#CCD6DD" d="M25.8 27.975l9.277-3.732 1.12 2.783-9.278 3.732z"/><path fill="#FFF" d="M26.173 28.902l9.277-3.732.373.928-9.277 3.732z"/><path fill="#66757F" d="M26.546 29.83l9.277-3.731.373.927-9.277 3.732z"/><path fill="#292F33" d="M19 18.137c1.366.385 5.645-.007 6.802-.098 1.157-.09 1.594.451 0 1.25C24 20.19 20.188 22.45 19 22.914c-.998.391-4.5-1.211-4.917-1.696-.416-.486 3.745-3.411 4.917-3.081zM34 17c-1.549.04-3 0-4 0s-1.158 1.102 1.549 1.102S34 17 34 17z"/><path fill="#77B255" d="M3.736 16.958c0-1.465 4.456-5.134 3.975-4.476-1.15 1.573-.489 3.476 1.487 3.476S11.907 22.477 9 21c-2.907-1.477-5.264-3.323-5.264-4.042z"/><path fill="#CCD6DD" d="M8.606 10.569c.704.61.345 1.692-1.045 3.485-1.391 1.793-3.583 2.521-2.359.542s3.404-4.027 3.404-4.027z"/><path fill="#66757F" d="M10.529 17.368c-.19.476-.73.706-1.206.516l-.134-.054c-.476-.19-.707-.73-.516-1.206l.798-1.992c.19-.476.73-.707 1.206-.516l.135.054c.476.19.707.73.516 1.206l-.799 1.992z"/><path fill="#292F33" d="M12.911 13.991c.094.26-.04.546-.3.64l-1.881.679c-.26.094-.546-.041-.64-.301-.094-.26.04-.546.3-.64l1.881-.679c.26-.094.546.041.64.301z"/></svg>