<svg xmlns="http://www.w3.org/2000/svg" viewBox="0 0 36 36"><path fill="#292F33" d="M19.083 35.5L12.25 12.292s-1.42.761-2.604 1.637c-.313.231-1.977 2.79-2.312 3.04-1.762 1.315-3.552 2.841-3.792 3.167C3.083 20.76 0 36 0 36l19.083-.5z"/><path fill="#4B545D" d="M32 35l-5.5-19.75L18 4.542l-5.373 4.193-.971 1.172C11.25 10.688 10 15.25 10 15.25L8.75 20 3.252 30.054.917 34.791 32 35z"/><path fill="#FFF" d="M3.252 30.054s7.873-10.783 7.894-11.388C11.167 18.062 10 15.25 10 15.25L8.75 20 3.252 30.054z"/><path fill="#292F33" d="M12 34h2l2-15.75 1.234-1.797 3.578-5.234.094-1.469-3.287 4.454L15 17.752l-2.388 7.362L12 27l-1.791 3.134L8 34zm12.059-17.616l-1.965 5.897L21 26l2.792 7.625 3.552-.062S23 26.625 23 26c0-.12.625-2.687.625-2.687l1.094-4.531L25 17.25l-.941-.866z"/><path fill="#F1F1F1" d="M24.059 16.384l-1.778-.665-1.531.875-1.328-1.063-2.188.922 3.578-5.234zm2.871 7.379l-1.711-1.388-1.594.938 1.094-4.532 1.437 2.282z"/><path fill="#FFF" d="M22.094 22.281L21 26l-.25-2.417zM12 27l-1.791 3.134.353-2.431s.682-.578.938-.911c.255-.333 1.112-1.678 1.112-1.678L12 27zm3.208-11l2.411-1.796L15 17.752z"/><path fill="#292F33" d="M36 36s-.384-3.845-.854-7.083c-.369-2.543-2.757-6.303-4.099-7.115l-1.234-3.536-2.023-5.102-2.258-2.289-1.844-1.626-.505-.621L18 4.542l2.289 5.007.524 1.67 3.246 5.165.66 2.397 1.438 2.281.774 2.701L28 27.5 26 34l10 2z"/><path fill="#5C903F" d="M33.708 32.438c-1.345 0-4.958.562-5.458.562-2 0-4.25-1.75-5.25-1.75S19.406 33 17.406 33c-1.688 0-2.406-.812-4.719-.812-.748 0-4.096.871-4.812.781C6.052 32.741 5.115 32 4.656 32 2 32 0 36 0 36h36s-.875-3.562-2.292-3.562z"/><path fill="#F1F1F1" d="M12.627 8.735l2.123-.485.656 1.844 2.125-.875 2.758.33L18 2.25z"/><path fill="#A8B6C0" d="M23.183 8.628l-1.443-.243-1.451 1.164L18 2.25zM27.953 13l1.859 5.266-1.729-2.828-1.614-1.625-.938-2.938zm7.193 15.917S35 25.032 33.875 23.75 31 21.771 31 21.771l1.438 3.271 1.458 1.417 1.25 2.458z"/></svg>