<svg xmlns="http://www.w3.org/2000/svg" viewBox="0 0 36 36"><ellipse fill="#3B88C3" cx="18" cy="30.54" rx="18" ry="5.36"/><path fill="#88C9F9" d="M33.812 28.538c0 1.616-2.5 2.587-14.482 2.587-10.925 0-13.612-.971-13.612-2.587s5.683-2.926 13.612-2.926 14.482 1.31 14.482 2.926z"/><path fill="#F4900C" d="M7 28.25c0-1 1-5 11-5 12 0 15 4 15 5s0 2-14 2c-12 0-12-1-12-2z"/><circle fill="#FFCC4D" cx="7" cy="6.25" r="5"/><circle fill="#FFAC33" cx="7" cy="6.25" r="4"/><path fill="#C1694F" d="M26.949 14.467c-.039-.575-.098-1.131-.177-1.662-.095-.636-.214-1.235-.347-1.797-.122-.517-.255-.999-.392-1.442-.205-.666-.417-1.243-.609-1.716-.377-.929-.674-1.46-.674-1.46l-2.583.333s.298.622.621 1.841c.131.495.265 1.09.386 1.784.061.351.118.724.17 1.125.072.558.131 1.167.173 1.823.024.37.041.756.053 1.158.004.146.011.287.013.437.007.469-.026.946-.084 1.422-.053.429-.13.856-.223 1.279-.133.606-.296 1.202-.479 1.77-.149.46-.308.901-.468 1.316-.246.637-.493 1.209-.707 1.687-.358.798-.622 1.33-.622 1.441 0 .351.25 1.007 2 1.444 2.736.684 3-.444 3-.444s.174-.528.376-1.567c.1-.513.206-1.147.303-1.915.058-.459.112-.964.158-1.513.049-.572.089-1.192.118-1.863.021-.508.034-1.051.039-1.615.002-.176.006-.346.006-.527 0-.459-.021-.903-.051-1.339z"/><path fill="#D99E82" d="M24.324 21.362c-1.003-.175-1.643-.467-1.994-.686-.246.637-.493 1.209-.707 1.687.655.356 1.487.64 2.389.796.521.091 1.038.136 1.523.136.296 0 .574-.023.841-.057.1-.513.206-1.147.303-1.915-.318.113-1.107.257-2.355.039zm.758-3.342c-.782-.077-1.383-.249-1.805-.43-.133.606-.296 1.202-.479 1.77.618.233 1.345.401 2.106.476.307.03.611.045.908.045.359 0 .7-.028 1.026-.071.049-.572.089-1.192.118-1.863-.45.098-1.08.152-1.874.073zm.221-1.524c.588 0 1.165-.059 1.692-.163.001-.176.005-.346.005-.527 0-.458-.021-.902-.051-1.339-.378.099-.919.194-1.682.205-.775-.003-1.32-.111-1.698-.219.004.146.011.287.013.437.007.469-.026.946-.084 1.422.545.115 1.148.181 1.76.184h.045zm-.178-3.273c.59-.085 1.137-.238 1.648-.418-.095-.636-.214-1.235-.347-1.797-.354.146-.857.308-1.56.409-.651.094-1.147.088-1.522.055.072.558.131 1.167.173 1.823.109.004.207.021.319.021.42 0 .857-.031 1.289-.093zm.909-3.658c-.206-.665-.418-1.242-.61-1.715-.317.159-.718.326-1.242.471-.568.158-1.027.221-1.395.243.131.495.265 1.09.386 1.784.487-.049.989-.128 1.497-.269.486-.135.937-.316 1.364-.514z"/><path fill="#3E721D" d="M34.549 2.943c-.032-.042-3.202-4.283-7.313-2.423-1.847.835-3.038 2.2-3.469 3.963-.804-1.125-2.026-1.839-3.644-2.127-4.421-.788-7.092 4.123-7.118 4.172-.039.072-.022.16.039.214.062.053.151.057.217.01.02-.015 2.037-1.427 5.396-.828 3.433.611 5.84 1.211 5.864 1.217.015.003.028.005.043.005.048 0 .095-.02.129-.056.022-.024 2.303-2.475 4.4-3.423 3.104-1.404 5.221-.472 5.24-.462.072.033.158.013.209-.049.051-.061.054-.148.007-.213z"/><path fill="#5C913B" d="M31.129 5.401c-3.134-1.655-5.57-.831-7.083.174-1.813-.351-5.201-.357-8.072 3.324-3.525 4.518-.433 10.152-.402 10.209.031.056.09.089.153.089l.021-.001c.071-.009.129-.06.147-.128.011-.039 1.097-3.967 3.843-7.27 1.501-1.805 3.293-3.474 4.554-4.573 1.27.211 3.136.678 4.969 1.702 3.573 1.998 5.212 5.379 5.228 5.413.032.066.101.112.177.099.074-.008.135-.062.151-.134.014-.063 1.392-6.222-3.686-8.904z"/></svg>