<svg xmlns="http://www.w3.org/2000/svg" viewBox="0 0 36 36"><path fill="#88C9F9" d="M32 0H4C1.791 0 0 1.791 0 4v22h36V4c0-2.209-1.791-4-4-4z"/><path fill="#66757F" d="M10 36V7l4-4h2l4 4v29zm23-25c0-1-1-1-1-1h-7s-1 0-1 1v25h9V11z"/><path fill="#292F33" d="M28 17c0-1-1-1-1-1h-8c-1 0-1 1-1 1v19h10V17zm-17 2H6v-5s0-1-1-1H0v19c0 2.209 1.791 4 4 4h8V20s0-1-1-1zm21 6c-1 0-1 1-1 1v10h1c2.209 0 4-1.791 4-4v-7h-4z"/><path d="M8 29h2v2H8zm0-8h2v2H8zm-2 4h2v2H6zM16 9h2v2h-2zm0 4h2v2h-2zm-2 4h2v2h-2zm10 1h2v2h-2zm-2 4h2v2h-2zm-2 6h2v2h-2zm9-16h2v2h-2zm0 4h2v2h-2z" fill="#FFCC4D"/></svg>