<svg xmlns="http://www.w3.org/2000/svg" viewBox="0 0 36 36"><path fill="#CCD6DC" d="M35.858 17.376L.079 17.053v11.821c.011 1.084 1.009 2.12 2.52 3.028l2.396 1.133c.732.278 1.531.534 2.393.766l3.585.762c.791.127 1.615.232 2.46.32l9.328.088c.868-.075 1.714-.167 2.524-.285l3.57-.707c.857-.219 1.652-.463 2.378-.73l2.374-1.098c1.507-.893 2.262-1.923 2.251-3.013V17.376z"/><path fill="#66757F" d="M22.885 30.848c-.043-4.36-2.19-5.47-4.825-5.493-2.634-.024-4.759 1.047-4.716 5.407.016 1.606.046 2.96.089 4.12 1.504.156 3.079.254 4.712.269 1.6.014 3.141-.054 4.616-.18.097-1.003.142-2.341.124-4.123zM10.917 28.89l.001.107.003.364.003.271.001.065c.001.052 0 .044 0 0l-.001-.065-.003-.271-.003-.364-.001-.107-.001-.122c-.022-2.18-3.61-3.303-3.589-1.122v.037l.002.204.002.158.005.47.001.067.051 5.218c1.106.297 2.302.556 3.585.762l-.056-5.753v.081zm17.878-.992l.005.506v.027l.003.27c.001.118.001.15 0 0l-.003-.27v-.027l-.005-.506-.001-.058c-.022-2.18-3.589-1.123-3.567 1.057v.036l.057 5.753c1.279-.186 2.47-.426 3.57-.707l-.06-6.1.001.019zM4.931 26.534c-.022-2.18-2.417-3.292-2.396-1.112v.041l.063 6.439c.676.406 1.483.785 2.396 1.133l-.052-5.321c.003.208.006.582-.011-1.18zm26.237.237l.012 1.137v-.047.047l.053 5.34c.906-.334 1.705-.701 2.374-1.098l-.064-6.448c-.021-2.18-2.396-1.111-2.375 1.069zM2.972 5.225c-.276 0-.5.224-.5.5v12.37c0 .276.224.5.5.5s.5-.224.5-.5V5.725c0-.277-.223-.5-.5-.5z"/><path fill="#DD2F45" d="M3.207 5.936c1.478.269 3.682 1.102 4.246 1.424.564.322.215.484-.322.725-.538.242-3.441 1.021-3.87 1.102-.431.082-.054-3.251-.054-3.251z"/><path fill="#66757F" d="M11.969 2.976c-.276 0-.5.224-.5.5v12.37c0 .276.224.5.5.5s.5-.224.5-.5V3.476c0-.277-.224-.5-.5-.5z"/><path fill="#226798" d="M12.203 3.687c1.478.269 3.682 1.102 4.247 1.425.564.322.215.484-.322.725-.538.242-3.44 1.021-3.87 1.102-.432.081-.055-3.252-.055-3.252z"/><path fill="#66757F" d="M21.339 2.976c-.276 0-.5.224-.5.5v12.37c0 .276.224.5.5.5s.5-.224.5-.5V3.476c0-.277-.224-.5-.5-.5z"/><path fill="#DD2F45" d="M21.574 3.687c1.478.269 3.681 1.102 4.246 1.425.564.322.215.484-.322.725-.537.242-3.44 1.021-3.871 1.102-.431.081-.053-3.252-.053-3.252z"/><path fill="#66757F" d="M30.335 5.225c-.276 0-.5.224-.5.5v12.37c0 .276.224.5.5.5s.5-.224.5-.5V5.725c0-.277-.224-.5-.5-.5z"/><path fill="#226798" d="M30.57 5.936c1.478.269 3.681 1.102 4.246 1.425.564.322.215.484-.322.725-.537.242-3.44 1.021-3.871 1.102-.43.081-.053-3.252-.053-3.252z"/><path fill="#E9EFF3" d="M35.858 17.444c.033 3.312-7.949 5.924-17.829 5.835C8.148 23.19.112 20.431.08 17.121c-.033-3.312 7.95-5.924 17.83-5.835 9.879.09 17.915 2.847 17.948 6.158z"/><path fill="#7450A0" d="M33.257 18.209c.029 2.995-6.788 5.361-15.226 5.286-8.44-.077-15.305-2.567-15.334-5.562-.029-2.994 6.787-5.36 15.227-5.284 8.437.077 15.304 2.566 15.333 5.56z"/><path fill="#E9EFF3" d="M26.766 19.378l5.83-3.939-1.8-1.106s-3.63 3.394-4.822 4.548c-.876-.455-2.073-.837-3.486-1.104l2.439-5.303-2.463-.294-1.094 5.419c-1.059-.145-2.202-.233-3.401-.244-.928-.008-1.823.031-2.671.106l-1.183-5.357-2.457.251 2.491 5.235c-1.64.226-3.037.604-4.036 1.085-1.271-1.227-4.847-4.573-4.847-4.573l-1.778 1.074 5.814 3.98c-.541.397-.847.84-.843 1.311.018 1.766 4.303 3.237 9.573 3.285 5.268.048 9.527-1.346 9.51-3.113-.004-.445-.281-.872-.776-1.261z"/><path fill="#5C903F" d="M26.427 20.862c.013 1.321-3.732 2.357-8.363 2.315-4.631-.042-8.396-1.146-8.409-2.467-.013-1.32 3.731-2.356 8.362-2.314 4.63.041 8.396 1.146 8.41 2.466z"/></svg>