<svg xmlns="http://www.w3.org/2000/svg" viewBox="0 0 36 36"><path fill="#88C9F9" d="M36 25V4s0-4-4-4H4S0 0 0 4v20.922L36 25z"/><path fill="#292F33" d="M27 10h-5l-5 14h19V5c-1 0-5.419.419-7 2-1 1-1 2-2 3z"/><path fill="#66757F" d="M24 11c1-1 2.497-.498 3-1 .51-.51.76-1.019 1.015-1.529-3.737-.121-6.83.055-8.015.529-5 2-4 11-11 16 0 0 5 1.999 9-2 2.621-2.622 3.21-9.21 6-12z"/><path fill="#5C913B" d="M4 36h28c4 0 4-4 4-4v-9H0v9c0 4 4 4 4 4z"/><path fill="#55ACEE" d="M28 23c0 1-10 1-10 3s4 2 4 3-13.917 3-14 7h17c0-2 5-3 5-6s-7-3-7-4 7-2 7-3h-2z"/><path fill="#269" d="M28 23v-5c0-7 2-8 2-8h1s-1 1-1 7v6h-2z"/><path fill="#662113" d="M11.53 28.503c0 1.103-.893 1.497-1.996 1.497-1.102 0-1.996-.395-1.996-1.497l.499-4.489c0-1.102.395-.997 1.497-.997 1.103 0 1.497-.104 1.497.997l.499 4.489z"/><path fill="#3E721D" d="M16.222 25.658c-.252-.216-.49-.44-.721-.667-.082-.158-.203-.325-.406-.512-.179-.164-.352-.334-.521-.506 1.02-.146 1.46-.672.521-1.476-.307-.263-.597-.54-.875-.823.122-.199.044-.468-.344-.801-.128-.109-.252-.222-.373-.336.773-.12 1.096-.53.373-1.149-.221-.19-.43-.389-.632-.592.187-.164.165-.411-.206-.728-.078-.067-.146-.14-.221-.209.562-.113.777-.433.221-.91-.352-.302-.666-.632-.96-.964.379-.091.515-.318.156-.648.263-.117.314-.333-.033-.63-1.28-1.096-1.999-2.666-2.666-2.666s-1.386 1.57-2.665 2.666c-.347.298-.296.514-.033.63-.359.33-.223.557.156.648-.294.332-.608.662-.96.964-.556.477-.341.796.221.91-.075.069-.143.142-.221.209-.371.318-.393.564-.206.728-.202.203-.41.402-.632.592-.723.619-.4 1.029.373 1.149-.121.115-.245.227-.373.336-.388.333-.467.602-.344.801-.278.283-.568.56-.875.823-.939.804-.499 1.331.521 1.476-.169.172-.342.342-.521.506-.203.186-.324.354-.406.511-.231.228-.47.452-.722.668-1.459 1.251-.765 1.975 1.236 1.83 1.784-.129 3.452-.534 5.451-.534s3.667.405 5.451.534c2 .145 2.696-.579 1.236-1.83z"/><path fill="#F5F8FA" d="M11.314 3.678c-.274 0-.539.042-.787.119-.296-.843-1.096-1.449-2.04-1.449-1.013 0-1.86.697-2.096 1.637-.25-.189-.559-.306-.898-.306-.827 0-1.497.67-1.497 1.497 0 .201.041.392.114.567-.144-.04-.292-.068-.446-.068C2.744 5.674 2 6.418 2 7.337 2 8.256 2.744 9 3.663 9h7.65c1.469 0 2.661-1.191 2.661-2.661.001-1.469-1.192-2.661-2.66-2.661z"/></svg>