<svg xmlns="http://www.w3.org/2000/svg" viewBox="0 0 36 36"><path fill="#FFCC4D" d="M14 34c0 1.104.896 2 2 2h18c1.104 0 2-.896 2-2V14c0-1.104-.896-2-2-2H16c-1.104 0-2 .896-2 2v20z"/><path fill="#BCBEC0" d="M34 12H20v2h16c0-1.104-.896-2-2-2z"/><path fill="#55ACEE" d="M20 16h14v20H20z"/><path fill="#FFE8B6" d="M18 0H2C.896 0 0 .896 0 2v32c0 1.104.896 2 2 2h18V2c0-1.104-.896-2-2-2z"/><path fill="#BCBEC0" d="M18 0H2C.896 0 0 .896 0 2h20c0-1.104-.896-2-2-2z"/><path fill="#55ACEE" d="M2 22h16v4H2zm0-6h16v4H2zm0-6h16v4H2zm0-6h16v4H2zm0 24h16v8H2z"/><path fill="#3B88C3" d="M6 32h8v4H6zm17 0h8v4h-8z"/><path fill="#FFCC4D" d="M20 26h15v2H20zm0-6h15v2H20z"/><path fill="#DD2E44" d="M36 7c0 1.104-.896 2-2 2H24c-1.104 0-2-.896-2-2V5c0-1.104.896-2 2-2h10c1.104 0 2 .896 2 2v2z"/><path fill="#58595B" d="M26 9h2v3h-2zm4 0h2v3h-2z"/><path fill="#F4ABBA" d="M24 5h2v2h-2z"/><path fill="#FFF" d="M26 5h2v2h-2z"/><path fill="#F4ABBA" d="M28 5h2v2h-2z"/><path fill="#FFF" d="M30 5h2v2h-2z"/><path fill="#F4ABBA" d="M32 5h2v2h-2z"/></svg>