<svg xmlns="http://www.w3.org/2000/svg" viewBox="0 0 36 36"><path fill="#292F33" d="M29 34c0 1.104-.896 2-2 2H9c-1.104 0-2-.896-2-2V2c0-1.104.896-2 2-2h18c1.104 0 2 .896 2 2v32z"/><path fill="#BE1931" d="M6.699 32h22.602C33.383 28.7 35 23.658 35 18c0-5.658-1.616-10.7-5.698-14H6.698C2.615 7.3 1 12.342 1 18c0 5.658 1.616 10.7 5.699 14z"/><path d="M1.301 22c.108.682.245 1.35.415 2h32.568c.17-.65.307-1.318.415-2H1.301zm-.229-2h33.855c.049-.657.073-1.324.073-2H1c0 .676.024 1.343.072 2zm31.605 8c.363-.64.684-1.306.956-2H2.367c.272.694.593 1.36.956 2h29.354zM2.366 10c-.254.646-.471 1.313-.651 2h32.569c-.18-.687-.397-1.354-.651-2H2.366zm-1.065 4c-.104.654-.179 1.321-.229 2h33.855c-.049-.679-.125-1.346-.229-2H1.301zm30.014 16H4.685c.591.721 1.26 1.391 2.014 2h22.602c.754-.609 1.422-1.279 2.014-2zM4.685 6c-.515.627-.964 1.298-1.363 2h29.356c-.398-.702-.849-1.373-1.362-2H4.685z" fill="#DD2E44"/></svg>