<svg xmlns="http://www.w3.org/2000/svg" viewBox="0 0 36 36"><path fill="#FFCC4D" d="M36 34c0 1.104-.896 2-2 2H2c-1.104 0-2-.896-2-2V15c0-1.104.896-2 2-2h32c1.104 0 2 .896 2 2v19z"/><path fill="#6D6E71" d="M34 13H2c-1.104 0-2 .896-2 2h36c0-1.104-.896-2-2-2z"/><path fill="#3B88C3" d="M2 24h32v4H2zm0-6h32v4H2zm0 12h32v4H2z"/><path fill="#FFCC4D" d="M28 17h2v18h-2z"/><path fill="#FFE8B6" d="M22 0H6C4.896 0 4 .896 4 2v34h20V2c0-1.104-.896-2-2-2z"/><path fill="#808285" d="M22 0H6C4.896 0 4 .896 4 2h20c0-1.104-.896-2-2-2z"/><path fill="#55ACEE" d="M6 18h16v4H6zm0 6h16v4H6zm0 6h16v4H6z"/><path fill="#FFE8B6" d="M10 7h2v29h-2zm6 0h2v29h-2z"/><path fill="#269" d="M12 30h4v6h-4z"/><circle fill="#A7A9AC" cx="14" cy="9" r="6"/><circle fill="#E6E7E8" cx="14" cy="9" r="4"/><path fill="#A0041E" d="M17 10h-3c-.552 0-1-.448-1-1V4c0-.552.448-1 1-1s1 .448 1 1v4h2c.552 0 1 .448 1 1s-.448 1-1 1z"/></svg>