<svg xmlns="http://www.w3.org/2000/svg" viewBox="0 0 36 36"><path fill="#C1694F" d="M27.843 11.9c.205-.371.39-.766.548-1.183 1.209-3.187.467-6.423-1.658-7.229-1.588-.602-3.499.326-4.868 2.164-.397-1.141-.548-2.209-.092-2.652h-8.228c.455.443.304 1.511-.093 2.652-1.369-1.838-3.28-2.766-4.868-2.164-2.125.806-2.868 4.042-1.659 7.229.158.418.344.812.548 1.183-1.184 1.166-2.157 2.879-2.157 5.563 0 6.17 8.227 13.39 9.256 15.447-.126.045 6.297.045 6.171 0C21.773 30.852 30 23.633 30 17.462c0-2.683-.973-4.396-2.157-5.562zM11.488 9.214c-.382.382-1.333.768-2.377 1.418-.111-.198-.214-.406-.299-.631-.617-1.624-.237-3.272.845-3.683.931-.354 2.076.329 2.772 1.559-.335.585-.673 1.069-.941 1.337zm15.017.787c-.085.225-.188.433-.299.632-1.044-.65-1.995-1.036-2.377-1.418-.268-.268-.606-.753-.94-1.337.695-1.23 1.841-1.913 2.772-1.559 1.081.41 1.461 2.058.844 3.682z"/><path d="M18.546 31.747H16.63c-2.057 0-5.142.971-5.142 3.027 0 1.029 3.942 1.143 6.085 1.143h.032c2.143 0 6.084-.113 6.084-1.143-.001-2.056-3.085-3.027-5.143-3.027zM30 17.462c0-2.611-.923-4.299-2.063-5.462H7.38c-1.14 1.163-2.063 2.852-2.063 5.462 0 1.481.481 3.022 1.216 4.538h22.251C29.519 20.484 30 18.943 30 17.462zM23.688 1.373c0-1.011-3.808-1.159-5.972-1.164H17.6c-2.164.005-5.972.152-5.972 1.164 0 2.013 3.796 2.942 5.887 2.982h.285c2.093-.041 5.888-.97 5.888-2.982z" fill="#272B2B"/><path d="M13.031 20H10.46c-.284 0-.514-.216-.514-.5s.23-.5.514-.5H13v-4H9v1h2.488c.284 0 .514.216.514.5s-.23.5-.514.5H9.062C8.521 17 8 16.854 8 16.229v-1.315c0-.726.604-.914.888-.914h4.143c.698 0 .969.479.969.915v4.114c0 .617-.458.971-.969.971zm14 0h-2.572c-.283 0-.514-.216-.514-.5s.231-.5.514-.5H27v-4h-4v1h2.488c.283 0 .514.216.514.5s-.231.5-.514.5h-2.426c-.541 0-1.062-.146-1.062-.771v-1.315c0-.726.604-.914.889-.914h4.143c.697 0 .968.479.968.915v4.114c0 .617-.458.971-.969.971zm-7 0h-2.572c-.283 0-.514-.216-.514-.5s.231-.5.514-.5H20v-4h-4v1h2.488c.283 0 .514.216.514.5s-.231.5-.514.5h-2.426c-.541 0-1.062-.146-1.062-.771v-1.315c0-.726.604-.914.889-.914h4.143c.697 0 .968.479.968.915v4.114c0 .617-.458.971-.969.971z" fill="#C1694F"/></svg>