<svg xmlns="http://www.w3.org/2000/svg" viewBox="0 0 36 36"><path fill="#C1694F" d="M21.279 4.28c-9 0-10.5 1.5-13 4s-4 4-4 13c0 11.181-2 14-1 14s3-2 3-4-2-13 5-20h-.001c7-6.999 18-5 20-5s4-2 4-3-2.818 1-13.999 1z"/><path fill="#D99E82" d="M29.5 29.779c0 .276-.224.5-.5.5H3.78c-.276 0-.5-.224-.5-.5s.224-.5.5-.5H29c.276 0 .5.224.5.5zm.279-.279c-.277 0-.5-.225-.5-.5V3.779c0-.276.223-.5.5-.5.275 0 .5.224.5.5V29c0 .275-.224.5-.5.5z"/><path fill="#99AAB5" d="M0 0l2.793 8.52L4.93 4.955l3.52-2.092z"/><path fill="#DD2E44" d="M26.087 27.393c.364 1.897 0 3.564-.812 3.719-.814.156-1.77-1.256-2.133-3.154-.364-1.898-.001-3.564.812-3.721.814-.157 1.769 1.257 2.133 3.156z"/><path fill="#F4900C" d="M26.568 28.465c.365 1.899 0 3.565-.812 3.721-.813.156-1.769-1.258-2.132-3.154-.365-1.9-.001-3.566.811-3.721.814-.157 1.77 1.255 2.133 3.154z"/><path fill="#A0041E" d="M27.958 29.854c.364 1.899 0 3.564-.812 3.721-.813.156-1.77-1.256-2.133-3.154-.364-1.898 0-3.564.812-3.721.814-.157 1.77 1.255 2.133 3.154z"/><path fill="#DD2E44" d="M29.372 31.268c.365 1.898 0 3.566-.812 3.721-.814.156-1.77-1.256-2.133-3.154-.364-1.899 0-3.564.812-3.721.814-.157 1.77 1.257 2.133 3.154zm-1.979-5.181c1.897.364 3.564 0 3.719-.812.156-.814-1.256-1.77-3.154-2.133-1.898-.364-3.564-.001-3.721.812-.157.814 1.257 1.769 3.156 2.133z"/><path fill="#F4900C" d="M28.465 26.568c1.899.365 3.565 0 3.721-.812.156-.813-1.258-1.769-3.154-2.132-1.9-.365-3.566-.001-3.721.811-.157.814 1.255 1.77 3.154 2.133z"/><path fill="#A0041E" d="M29.854 27.958c1.899.364 3.564 0 3.721-.812.156-.813-1.256-1.77-3.154-2.133-1.898-.364-3.564 0-3.721.812-.157.814 1.255 1.77 3.154 2.133z"/><path fill="#DD2E44" d="M31.268 29.372c1.898.365 3.566 0 3.721-.812.156-.814-1.256-1.77-3.154-2.133-1.899-.364-3.564 0-3.721.812-.157.814 1.257 1.77 3.154 2.133z"/><path fill="#CCD6DD" d="M30.385 29c.382.382.382 1.002 0 1.385-.383.382-1.003.382-1.385 0L4.136 5.52c-.382-.382-.382-1.002 0-1.384.382-.382 1.001-.382 1.384 0L30.385 29z"/></svg>