<svg xmlns="http://www.w3.org/2000/svg" viewBox="0 0 36 36"><path fill="#F18F26" d="M10.478 22.439s.702 2.281-.337 7.993c-.186 1.025-.46 2.072-.599 2.93-1.757 0-1.851 2.002-1.478 2.002h2.094c1.337 0 2.971-3.334 3.854-7.961s-3.534-4.964-3.534-4.964zm13.042 3.702s2.272 1.22 2.188 4.081c-.033 1.131-.249 2.091-.355 3.024-1.832 0-1.839 1.985-1.305 1.985h1.856c.923 0 3.001-3.158 3.379-7.281.379-4.122-5.763-1.809-5.763-1.809z"/><path fill="#FFCC4E" d="M36 8.447C36 3.525 31.859 1 27 1c-.553 0-1 .448-1 1s.447 1 1 1c1.804 0 6.717.934 6.717 5.447 0 2.881-1.567 5.462-3.77 5.982-.164-.073-.345-.104-.509-.192-7.239-3.917-13.457.902-15.226-.29-1.752-1.182-.539-3.255-2.824-5.243-.33-1.841-1.073-4.477-1.794-4.477-.549 0-1.265 1.825-1.74 3.656-.591-1.381-1.363-2.756-1.86-2.756-.64 0-1.278 2.273-1.594 4.235-1.68 1.147-2.906 2.809-2.906 4.765 0 2.7 4.05 3.357 5.4 3.411 1.35.054 3.023 3.562 3.585 5.072 1.242 4.367 2.051 8.699 2.698 11.183-1.649 0-1.804 2.111-1.348 2.111.713 0 1.953-.003 2.225 0 1.381.014 2.026-4.706 2.026-8.849 0-.212-.011-.627-.011-.627s1.93.505 6.038-.208c2.444-.424 5.03.849 5.746 3.163.527 1.704 1.399 3.305 1.868 4.484-1.589 0-1.545 2.037-1.084 2.037.787 0 1.801.014 2.183 0 1.468-.055.643-7.574 1.03-10.097s1.267-5.578-.229-8.797C34.857 15.236 36 11.505 36 8.447z"/><circle fill="#292F33" cx="5.994" cy="11.768" r=".9"/><path fill="#E75A70" d="M2.984 12.86c-.677.423-.677 1.777-1.015 1.777S.954 13.841.954 12.86c-.001-.981 2.862-.52 2.03 0z"/><path fill="#FEE7B8" d="M6.578 14.343c-.041.026-.09.036-.142.026-.018-.004-1.548-.241-2.545.146-.129.05-.341-.023-.413-.191s.023-.365.152-.415c1.44-.569 2.857-.234 2.934-.218.139.029.195.19.188.372-.004.114-.104.235-.174.28zm-.472 2.339c-.048.009-.097-.001-.141-.031-.015-.01-1.331-.83-2.402-.853-.138-.003-.305-.154-.305-.341 0-.186.165-.335.304-.333 1.552.024 2.724.891 2.789.937.117.082.104.255.027.424-.049.107-.189.182-.272.197z"/><path fill="#F18F26" d="M7.854 7.881s.372-.039.859.033c.217-.46.585-.887.585-.887s.281.668.386 1.179c.025.12.218.117.322.189 0 0 .038-3.463-.863-3.836.001-.002-.755 1.124-1.289 3.322zM4.399 9.36s.384-.267.883-.574c.217-.624.568-1.333.568-1.333s.307.602.345.81c.21-.114.21-.106.403-.19 0 0-.114-2.286-1.099-2.527 0 0-.732 1.372-1.1 3.814z"/><path fill="#FD9" d="M18.45 23.644c-2.649.57-2.38 2.782-2.38 2.782s1.93.505 6.038-.208c1.067-.185 2.153-.03 3.107.377-1.607-3.047-4.315-3.479-6.765-2.951z"/><path fill="#F18F26" d="M14.686 14.109c.476.676 2.397 2.368 2.745 2.159.338-.203.59-2.055.342-2.706-1.329.359-2.385.658-3.087.547zm7.024 2.689c.623.138 1.507-2.979 1.41-4.123-1.449.017-2.78.256-3.965.537.335 1.08 1.953 3.452 2.555 3.586zm2.627-4.082c.042.723.982 2.603 1.285 2.737.307.137 1.685-1.319 1.866-2.061-1.086-.378-2.142-.597-3.151-.676z"/></svg>