<svg xmlns="http://www.w3.org/2000/svg" viewBox="0 0 36 36"><path fill="#292F33" d="M25 35c-2.75 0-2-6-2-6 0-1.104 2.646-2 3.75-2S30 26.896 30 28c0 0-2.25 7-5 7z"/><path fill="#66757F" d="M28 36c-2.75 0-2-6-2-6 0-1.104 2.646-2 3.75-2S33 27.896 33 29c0 0-2.25 7-5 7z"/><path fill="#292F33" d="M14 35c-2.75 0-4-6-4-6 0-1.104 2.646-2 3.75-2S17 26.896 17 28c0 0-.25 7-3 7z"/><path fill="#66757F" d="M17 36c-2.75 0-4-6-4-6 0-1.104 2.646-2 3.75-2S20 27.896 20 29c0 0-.25 7-3 7z"/><path fill="#E1E8ED" d="M35.75 21.384c0 7.782-4.495 11.408-14.519 11.408-10.023 0-13.481-3.626-13.481-11.408 0-7.783 3.458-11.407 13.481-11.407 10.024 0 14.519 3.624 14.519 11.407z"/><path fill="#99AAB5" d="M17 17.667C17 27 12.345 29 8.042 29 3.738 29 1 22.36 1 17.667 1 12.973 3.738 12 8.042 12c4.303 0 8.958.973 8.958 5.667z"/><circle fill="#292F33" cx="4.5" cy="20.5" r="1.5"/><path fill="#E1E8ED" d="M15.75 12.75C14 16 13.622 15.356 8.622 17.356 5.545 18.587 0 18.25 0 13.5 0 11.567 3.687 11 7 11c3.314 0 10.409-1.332 8.75 1.75z"/><path fill="#FFCC4D" d="M16 13.696c3.353 2.427 5.43 6.139 3.724 11.089-1.367 3.967-6.816 3.115-9.616 1.127-2.799-1.988-2.643-4.792-1.733-6.291.909-1.497 4.158-1.229 6.024.097.934.663.287 1.559-.721 1.068-2.292-1.118-3.037 1.443-1.246 2.882 1.266 1.016 3.275 1.049 3.655-1.01.671-3.63-3.505-6.274-7.465-5.302C11 16 13.161 11.641 16 13.696z"/></svg>