<svg xmlns="http://www.w3.org/2000/svg" viewBox="0 0 36 36"><path fill="#31373D" d="M33.912 14.37C33.588 12.602 31.976 11 30 11H11c-.239 0-.521.135-.83.365C9.664 11.139 9.129 11 8.565 11c-1 0-4.731.375-5.565 2L.691 17.305C.016 19.27 1 22.087 3.027 22.087c.57 0 1.536-.007 2.665-.017 1.65.286 3.603 1.504 5.436 2.848C13.248 29.325 14.048 36 15 36c.964 0 2.529-4.409 2.913-7h9.124c.147 2.479.771 7 1.964 7 1.016 0 3.24-4.883 4.347-12.238.315-1.625.532-3.697.615-6.319.022.17.037.352.037.557v12c0 .553.447 1 1 1s1-.447 1-1V18c0-1.807-.749-3.053-2.088-3.63z"/><circle fill="#FFF" cx="6" cy="16" r="1"/><path fill="#99AAB5" d="M10 15c3 0 6.708-1.625 6.708-5.625 0-2-1.552-4.101-4.458-4.167C8.128 5.116 6.375 8 7 8.375 7.528 8.692 9 6.5 11.5 7c1.861.372 2.054 1.567 1.667 2.333C12.716 10.226 11 11 9 11s-1 4 1 4z"/></svg>