<svg xmlns="http://www.w3.org/2000/svg" viewBox="0 0 36 36"><path fill="#3E721D" d="M19 32c0 1-1.723 3-3.334 3C14.056 35 14 33.657 14 32s1.306-3 2.916-3C18.527 29 19 30.343 19 32zm11 0c0 1-1.723 3-3.334 3C25.056 35 25 33.657 25 32s1.306-3 2.916-3C29.527 29 30 30.343 30 32z"/><path fill="#5C913B" d="M36 25c0-6-3.172-9.171-6-12-1-1-1.399.321-1 1 .508.862 3 8-2 8h-2c-5 0-6.172-1.172-9-4-4.5-4.5-7 0-9 0-6 0-7-1.812-7 2 0 3 3 4 6 4s3 1 5 4c1.071 1.606 2.836 3.211 5.023 4.155.232 1.119 2.774 3.845 4.311 3.845C21.944 36 22 34.657 22 33h5c.034 0 .066-.01.101-.01.291.005.587.01.899.01 0 1 1.723 3 3.334 3C32.944 36 33 34.657 33 33c0-.302-.057-.587-.137-.861C34.612 31.193 36 29.209 36 25z"/><path fill="#292F33" d="M10 18.123c0 .828.671 1.5 1.5 1.5s1.5-.672 1.5-1.5c0-.829-.671 0-1.5 0s-1.5-.829-1.5 0z"/><g fill="#77B255"><ellipse cx="27.5" cy="24" rx="1.5" ry="1"/><ellipse cx="23.5" cy="24" rx="1.5" ry="1"/><ellipse cx="19.5" cy="24" rx="1.5" ry="1"/><ellipse cx="21.5" cy="26" rx="1.5" ry="1"/><ellipse cx="25.5" cy="26" rx="1.5" ry="1"/></g><path fill="#FFF" d="M6 22c-.389 0-1-1-1-1h2s-.611 1-1 1zm-2 .469C3.611 22.469 3 21 3 21h2s-.611 1.469-1 1.469zM2 23c-.389 0-1-2-1-2h2s-.611 2-1 2z"/></svg>