<svg xmlns="http://www.w3.org/2000/svg" viewBox="0 0 36 36"><path fill="#BF6952" d="M29 1c-4.139 0-6 3.509-6 6 0 2.57 2.43 5 5 5 1.92 0 3.468-1.28 3.766-3.113.232-1.426-.437-3.165-2.449-3.836-.528-.176-1.09.109-1.265.632-.175.524.108 1.09.632 1.265 1.174.391 1.166 1.262 1.107 1.618C29.68 9.257 29.071 10 28 10c-1.458 0-3-1.542-3-3 0-1.305.978-4 4-4 2.897 0 5 2.523 5 6v15c0 3.576-1.352 5.685-4.285 6.544.11-1.017.193-2.223.24-3.655.604-3.163.103-7.131-1.776-10.889-1.864-3.727-5.926-5.939-10.023-5.695C17.924 5.188 15.121 1 9.407 1 3.436 1 3.178 8 .178 12.399c-1.352 1.982 5.428 7.058 9.228 7.058l.043-.002c.352.029.801-.009 1.362-.13.57-.102 1.149-.268 1.719-.489 2.731-.835 4.376-.891 5.318-.443C17.137 21.761 14.027 24.621 12 28c-3 5 1 8 3 8 3 0 3-3 2-3-2 0-2.632-3.103-2-5 .658-1.974 2.609-3.521 3.871-6.053C18.608 23.627 18 25.543 18 27c0 4.568 1.17 6 6 6 .188 0 .36-.034.541-.052-.176.031-.354.052-.541.052-4.694 0-5.5.896-5.5 2 0 .809.5 1 1.5 1h7c.651 0 1.728-.003 2.398-3.321C33.782 31.756 36 28.848 36 24V9c0-4.561-3.01-8-7-8z"/><path fill="#D79E84" d="M11.178 7.799C11.178 5.701 9.476 4 7.378 4c-2.1 0-3.801 1.701-3.801 3.799 0 .275.033.542.088.801-1.033.378-1.996 1.145-2.655 2.4-.255.486-.53.956-.832 1.399-.711 1.044.83 2.944 3.004 4.51 1.956 1.409 5.996.52 5.996-4.909 0-.29-.039-.561-.097-.821 1.239-.626 2.097-1.896 2.097-3.38zM13.822 6.5c0 1.933-.255 3.5 1.678 3.5 1.934 0 3.5-1.567 3.5-3.5S17.434 3 15.5 3c-1.933 0-1.678 1.567-1.678 3.5z"/><path fill="#292F33" d="M7.435 8.371c0 .9-.485 1.629-1.085 1.629s-1.086-.729-1.086-1.629c0-.899.485-1.628 1.086-1.628.6 0 1.085.729 1.085 1.628z"/><path fill="#642116" d="M4 12c0 .552-2.17 2-3.085 2S0 13.552 0 13h.915C2.001 13 4 11.448 4 12z"/></svg>