<svg xmlns="http://www.w3.org/2000/svg" viewBox="0 0 36 36"><path fill="#553788" d="M10 12c3 5 0 10.692-3 9.692s-4 2-1 3 9.465-.465 13-4c1-1 2-1 2-1L10 12z"/><path fill="#553788" d="M26 12c-3 5 0 10.692 3 9.692s4 2 1 3-9.465-.465-13-4c-1-1-2-1-2-1L26 12z"/><path fill="#744EAA" d="M30.188 16c-3 5 0 10.692 3 9.692s4 2 1 3-9.465-.465-13-4c-1-1-2-1-2-1l11-7.692zM5.812 16c3 5 0 10.692-3 9.692s-4 2-1 3 9.465-.465 13-4c1-1 2-1 2-1L5.812 16z"/><path fill="#9266CC" d="M33.188 31.375c-2.729.91-6.425-5.626-4.812-10.578C30.022 17.554 31 13.94 31 11c0-7.18-5.82-11-13-11S5 3.82 5 11c0 2.94.978 6.554 2.624 9.797 1.613 4.952-2.083 11.488-4.812 10.578-3-1-4 3-1 4s8.31-.627 12-4c2.189-2 4.189-2 4.189-2s2 0 4.188 2c3.69 3.373 9 5 12 4s1.999-5-1.001-4z"/><circle fill="#292F33" cx="14" cy="21" r="2"/><circle fill="#292F33" cx="22" cy="21" r="2"/></svg>