<svg xmlns="http://www.w3.org/2000/svg" viewBox="0 0 36 36"><path fill="#31373D" d="M7.5 24.516c-.256 0-.512-.098-.707-.293-.391-.391-.391-1.024 0-1.414L22.81 6.793c.391-.391 1.023-.391 1.414 0s.391 1.024 0 1.414L8.207 24.223c-.196.195-.452.293-.707.293zm8.282-11.738c-.219 0-.438-.071-.623-.218-.431-.344-.502-.971-.161-1.403.113-.144 2.571-3.361.971-7.572-.196-.517.063-1.094.579-1.29.518-.196 1.094.064 1.29.579 2.017 5.307-1.139 9.357-1.274 9.527-.197.248-.488.377-.782.377zm3.89 3.888c-.221 0-.441-.072-.626-.221-.429-.345-.499-.97-.156-1.4.138-.172 3.435-4.197 9.323-2.726.536.134.862.677.727 1.213-.134.535-.679.861-1.212.728-4.623-1.157-7.172 1.905-7.278 2.036-.197.243-.487.37-.778.37zM6.454 18.511c-1.096 0-2.301-.186-3.58-.671-.517-.196-.776-.773-.58-1.29.195-.517.775-.775 1.29-.58 4.219 1.604 7.439-.866 7.574-.972.434-.338 1.062-.266 1.403.166.342.432.271 1.058-.159 1.4-.129.103-2.495 1.947-5.948 1.947zm1.564-8.066c-1.829 0-4.968-.482-7.542-3.332-.37-.41-.338-1.042.072-1.412.411-.371 1.043-.337 1.412.072C4.984 9.122 8.976 8.392 9.146 8.36c.538-.105 1.066.246 1.173.787.107.54-.241 1.064-.781 1.174-.069.014-.644.124-1.52.124z"/><path fill="#31373D" d="M9.341 10.341c-.066 0-.132-.006-.199-.02-.541-.109-.89-.635-.783-1.175.034-.173.76-4.163-2.587-7.185C5.362 1.591 5.33.959 5.7.549 6.069.14 6.702.106 7.113.477c4.214 3.806 3.251 8.849 3.207 9.062-.096.475-.513.802-.979.802zm3.948 18.63c-.448 0-.856-.303-.969-.758-1.473-5.895 2.554-9.186 2.726-9.323.431-.344 1.061-.273 1.405.159.343.431.273 1.058-.156 1.402-.14.114-3.187 2.667-2.035 7.277.134.535-.192 1.078-.728 1.212-.081.021-.163.031-.243.031z"/><path fill="#31373D" d="M29.844 19.167c-2.96-2.959-6.095-3.569-8.915-2.069-.157-1.874-1.166-4.007-2.521-5.363-1.488-1.488-3.008-1.653-4.405-1.044 1.058-2.465.6-5.43-.826-6.856-1.843-1.843-4.594-.411-7.174 2.168-2.58 2.58-4.012 5.331-2.168 7.174 1.425 1.426 4.391 1.883 6.856.826-.61 1.397-.444 2.918 1.044 4.405 1.354 1.354 3.489 2.363 5.363 2.521-1.5 2.82-.891 5.954 2.069 8.915 3.75 3.749 12.204 5.527 14.204 3.527s.223-10.455-3.527-14.204z"/></svg>