<svg xmlns="http://www.w3.org/2000/svg" viewBox="0 0 36 36"><path fill="#99AAB5" d="M34.453 15.573c-.864-7.3-5.729-10.447-13.93-10.447-.391 0-.763.017-1.139.031-.013-.01-.022-.021-.035-.031C14.655 1.605 4.091 2.779 1.745 6.3c-3.255 4.883-1.174 22.3 0 24.646 1.173 2.35 4.694 3.521 5.868 2.35 1.174-1.176 0-1.176-1.173-3.521-.85-1.701-.466-5.859.255-8.471.028.168.068.322.1.486.39 2.871 1.993 7.412 1.993 9.744 0 3.564 2.102 4.107 4.694 4.107 2.593 0 4.695-.543 4.695-4.107 0-.24-.008-.463-.012-.695.757.064 1.535.107 2.359.107.497 0 .977-.016 1.448-.039-.004.209-.013.41-.013.627 0 3.564 2.103 4.107 4.694 4.107 2.593 0 4.695-.543 4.695-4.107 0-1.801 1.192-4.625 2.039-6.982.159-.354.291-.732.42-1.117.118 1.307.193 2.706.193 4.206 0 .553.447 1 1 1s1-.447 1-1c0-5.153-.771-9.248-1.547-12.068z"/><path fill="#66757F" d="M19.35 5.126S23 10.641 20 15.641c-3 5-7.838 5-11 5-2 0-1 2 0 2 1.414 0 8.395 1.211 12-6 3-6-1.65-11.515-1.65-11.515z"/><circle fill="#292F33" cx="6.5" cy="14.141" r="1.5"/></svg>