<svg xmlns="http://www.w3.org/2000/svg" viewBox="0 0 36 36"><path fill="#C1694F" d="M33.359 13.254c1.434-3.462 2.06-11.534 1.262-12.004-.704-.416-5.641 1.084-8.34 3.205C23.883 2.909 21.085 2 18 2c-3.085 0-5.883.91-8.281 2.455C7.02 2.334 2.082.834 1.378 1.25c-.797.47-.171 8.543 1.263 12.004C1.59 15.818 1 18.623 1 21.479 1 31.468 2 36 18 36s17-4.532 17-14.521c0-2.856-.59-5.662-1.641-8.225z"/><path fill="#662113" d="M32.878 12.157c.929-3.252 1.081-7.708.524-8.037-.411-.243-2.78.633-5.009 1.972 1.851 1.663 3.373 3.736 4.485 6.065zM7.607 6.092c-2.23-1.339-4.599-2.215-5.01-1.972-.557.329-.405 4.786.525 8.038 1.112-2.33 2.634-4.402 4.485-6.066z"/><path fill="#E1E8ED" d="M7.65 29s-3.641-3-4.641-11.5c-.234-1.986 1.696-1.977 2 0C6.01 24 11.359 28 14 30c2.255 1.708-6.35-1-6.35-1zm20.7 0s3.641-3 4.641-11.5c.234-1.986-1.695-1.977-2 0C29.99 24 24.641 28 22 30c-2.255 1.708 6.35-1 6.35-1z"/><path d="M29 29c0 1.104-3.82 3-11 3S7 30.104 7 29s3.82 1 11 1 11-2.104 11-1z"/><path fill="#662113" d="M28 23.125c0 4.487-3.097 9.375-10 9.375-6.904 0-10-4.888-10-9.375S11.096 17.5 18 17.5c6.903 0 10 1.138 10 5.625z"/><path fill="#C1694F" d="M15 24.6c0 1.857-.34 2.4-1.5 2.4s-1.5-.543-1.5-2.4c0-1.856.34-2.399 1.5-2.399s1.5.542 1.5 2.399zm9 0c0 1.857-.34 2.4-1.5 2.4s-1.5-.543-1.5-2.4c0-1.856.34-2.399 1.5-2.399s1.5.542 1.5 2.399z"/><path fill="#292F33" d="M13 15.002c0 1.104-.896 2-2 2s-2-.896-2-2S9.896 13 11 13s2 .898 2 2.002zm14 0c0 1.104-.896 2-2 2s-2-.896-2-2S23.896 13 25 13s2 .898 2 2.002z"/></svg>