<svg xmlns="http://www.w3.org/2000/svg" viewBox="0 0 36 36"><path fill="#FFAC33" d="M11.983 3.562c4.543-.262 7.824 1.597 8.089 6.826.215 4.19-5.184 6.79-8.046 6.879-2.462.077-1.353-1.852.61-2.334 1.576-.387 4.124-2.413 3.602-4.44-.597-2.32-4.315-2.684-6.351.292-.798 1.167-3.554.873-4.096-.434-.958-2.309 1.211-6.502 6.192-6.789z"/><path fill="#E1E8ED" d="M35.75 21.384c0-7.783-4.495-11.407-14.519-11.407-1.087 0-2.083.051-3.018.137-1.36-2.423-4.845-2.828-8.213-2.828-4.304 0-10 6.145-10 10.839 0 4.608 3.606 4.866 7.811 4.874.233 3.245 1.226 5.647 3.249 7.26C11.337 31.409 12.594 36 15 36c1.353 0 2.099-1.695 2.51-3.417 1.128.136 2.359.209 3.722.209 1.733 0 3.288-.116 4.695-.335C26.017 34.114 26.458 36 28 36c2.317 0 4.273-4.956 4.834-6.521 1.969-1.87 2.916-4.545 2.916-8.095z"/><circle fill="#292F33" cx="4.5" cy="15.786" r="1.5"/><path fill="#FFCC4D" d="M17.562 4.339c4.312 1.455 5.74 4.148 4.034 9.099-1.367 3.967-7.345 4.361-10.034 3.375C9.25 15.964 11 14.589 13 14.875c1.606.23 4.727-.698 5-2.773C18.312 9.727 15 8 12 10c-1.177.785-5.774.43-5.5-.958.638-3.226 6.335-6.298 11.062-4.703z"/></svg>