<svg xmlns="http://www.w3.org/2000/svg" viewBox="0 0 36 36"><path fill="#FFAC33" d="M24.88 33.097c-.098-.18-.25-.302-.418-.391C22.865 31 24 28.999 24 28.999c0-.553 1-2 0-2l-1 1c-1 1-1 4-1 4h-2c-.553 0-1 .447-1 1 0 .553.447 1 1 1h1.107l-.222.12c-.486.263-.667.869-.404 1.355s.869.667 1.356.404l2.639-1.427c.486-.262.667-.868.404-1.354zm-7 0c-.097-.18-.25-.302-.417-.391C15.866 31 17 28.999 17 28.999c0-.553 1-2 0-2l-1 1c-1 1-1 4-1 4h-2c-.553 0-1 .447-1 1 0 .553.447 1 1 1h1.108l-.222.12c-.486.263-.667.869-.404 1.355s.869.667 1.356.404l2.639-1.427c.485-.262.666-.868.403-1.354zM7.516 10c0 1.104-1.119 2-2.5 2s-3.5-1-3.5-2 2.119-2 3.5-2c1.38 0 2.5.896 2.5 2z"/><path fill="#DD2E44" d="M13.516 2c-2-1-3 1-3 1s0-3-3-3-3 3-3 3-3-.938-3 2c0 1.482 1.101 2.411 2.484 2.387V12c0 1 .263 3-.737 4s-2.484 4 .516 4 3-4 3-7c1 1 4 1 4-4 0-.867-.213-1.512-.55-2h1.287c4 0 4-4 2-5z"/><path fill="#E1E8ED" d="M32.516 9c4 10 0 22-13 22-7.732 0-13-6-14-11-1.177-5.883-1-8-1-12 0-2.738 2.118-4.824 5-4 7 2 5 10 12 10 10 0 8.23-11.923 11-5z"/><circle fill="#292F33" cx="7.516" cy="8" r="1"/></svg>