<svg xmlns="http://www.w3.org/2000/svg" viewBox="0 0 36 36"><path fill="#31373D" d="M27.816 23.464c.299-1.148.465-2.318.465-3.464 0-4.161-2.122-6.779-5.258-8.035.417-1.008.665-2.108.665-3.2 0-1.581-.495-2.498-1.315-3.032 1.091-.482 2.517-1.5 3.027-2.011.781-.781.94-1.889.354-2.475-.586-.586-1.693-.428-2.475.354-.611.611-1.948 2.53-2.223 3.619C20.172 5.025 19.126 5 18 5c-1.125 0-2.172.025-3.055.219-.275-1.089-1.612-3.007-2.223-3.619-.781-.781-1.889-.94-2.475-.354-.585.587-.427 1.694.354 2.476.511.511 1.937 1.529 3.027 2.011-.821.533-1.316 1.451-1.316 3.032 0 1.093.248 2.192.665 3.2C9.841 13.221 7.719 15.839 7.719 20c0 1.146.167 2.317.465 3.464v.023l.006-.003c1.209 4.621 4.643 8.847 8.812 9.44L17 33c0 1.657.448 3 1 3 .553 0 1-1.343 1-3 0-.026-.002-.049-.003-.075 4.169-.593 7.604-4.819 8.813-9.44l.006.003v-.024z"/><path d="M14.624 19h6.752c-1.462-1.424-2.615-2.881-3.106-4h-.54c-.491 1.119-1.644 2.576-3.106 4zm-5.378 4c-.361.187-.715.349-1.062.488.32 1.219.799 2.407 1.401 3.512h16.83c.602-1.105 1.082-2.293 1.401-3.512-.347-.139-.701-.301-1.063-.488H9.246zm3.593 8c1.518 1.234 3.278 2 5.161 2 1.884 0 3.643-.766 5.162-2H12.839z" fill="#FFCC4D"/><path fill="#CCD6DD" d="M18 13.505c0 2.647-7.858 8.584-12 8.584s-6-2.443-6-5.09c0-2.646 1.858-4.495 6-4.495 4.143.001 12-1.644 12 1.001zm0 0c0 2.647 7.857 8.584 12 8.584s6-2.443 6-5.09c0-2.646-1.857-4.495-6-4.495s-12-1.644-12 1.001z"/><path fill="#99AAB5" d="M2 19c-.552 0-1-.447-1-1 0-.551.446-.999.998-1 .048 0 4.949-.07 13.596-3.914.505-.227 1.096.002 1.32.507.225.505-.003 1.096-.507 1.32C7.317 18.953 2.213 19 2 19zm32 0c-.213 0-5.316-.047-14.406-4.086-.505-.224-.731-.815-.508-1.32.225-.504.817-.732 1.32-.507C29.054 16.93 33.954 17 34.003 17c.551.003.997.452.996 1.003-.002.551-.448.997-.999.997z"/></svg>