<svg xmlns="http://www.w3.org/2000/svg" viewBox="0 0 36 36"><path fill="#AA8DD8" d="M7.415 4c1-1 .25-4-1.438-4s-1.562 2-.562 2 1 2 1 3 1-1 1-1zM3.232 5.72c1-1 .25-4-1.438-4s-1.562 2-.562 2 1 2 1 3 1-1 1-1z"/><path fill="#744EAA" d="M29.607 32.856c.189.808 1.227 2.28 2.032 2.091.806-.19 1.077-1.971.888-2.777-.189-.808-.998-1.307-1.804-1.117-.805.19-1.306.997-1.116 1.803zm-5.434.649c.003.83.681 2.498 1.509 2.495.828-.004 1.494-1.677 1.491-2.506-.003-.829-.677-1.497-1.505-1.495-.828.004-1.498.677-1.495 1.506zm-5.271-2.446c-.326.764-.365 2.563.396 2.89.763.324 2.037-.947 2.363-1.71.325-.762-.028-1.643-.789-1.97-.762-.325-1.643.027-1.97.79zm-5.031-11.04c-.812.172-2.308 1.173-2.139 1.983.173.81 1.945 1.124 2.757.953.811-.171 1.329-.967 1.16-1.777-.172-.81-.965-1.33-1.778-1.159zm-2.037-5c-.812.172-2.308 1.173-2.139 1.983.173.81 1.945 1.124 2.757.953.811-.171 1.329-.967 1.16-1.777-.172-.81-.966-1.33-1.778-1.159z"/><path fill="#9266CC" d="M27.244 34c2.831 0 4.926-.877 5.266-1.027 2.271-1.01 3.293-3.669 2.284-5.939-.999-2.25-3.616-3.275-5.872-2.314-.133.05-1.793.649-3.343-.072-1.851-.861-2.995-3.309-3.628-5.209-.144-.43-.385-1.274-.686-2.316-1.866-6.471-2.832-8.285-3.983-9.82C13.571 2.352 7.69 2.007 4.799 2.587c-2.437.487-4.018 2.858-3.53 5.295.488 2.438 2.86 4.02 5.296 3.53.162-.026 2.204-.306 3.424 1.169.643 1.287 2.08 5.128 2.63 7.034.346 1.199.629 2.171.794 2.667 1.773 5.317 4.666 8.893 8.603 10.629C23.868 33.729 25.67 34 27.244 34z"/><circle fill="#FFF" cx="6.682" cy="5" r="1"/><path d="M30.923 32.964c-.089 0-.18-.012-.269-.036-.532-.148-.844-.699-.696-1.231.757-2.722-.77-4.542-.785-4.56-.359-.419-.312-1.051.107-1.41.418-.359 1.051-.312 1.41.107.092.107 2.234 2.66 1.195 6.397-.122.443-.525.733-.962.733zm-7.199-.563c-.245 0-.49-.089-.684-.27-.403-.378-.424-1.011-.047-1.414 1.485-1.587 1.453-4.193 1.452-4.22-.016-.552.419-1.012.972-1.028.542-.005 1.013.419 1.028.972.004.139.073 3.437-1.991 5.644-.197.21-.464.316-.73.316zm-8.542-8.696c-.48 0-.904-.347-.985-.837-.09-.544.278-1.06.823-1.149 3.074-.51 4.774-2.377 4.791-2.396.365-.41.998-.449 1.409-.084.412.365.453.993.091 1.406-.087.099-2.156 2.415-5.964 3.046-.056.01-.111.014-.165.014zm2.921 4.857c-.425 0-.819-.272-.954-.698-.166-.526.126-1.089.652-1.255 2.693-.853 3.88-2.83 3.892-2.85.28-.477.892-.637 1.368-.357.477.279.636.893.357 1.368-.063.108-1.595 2.663-5.013 3.744-.101.033-.203.048-.302.048zm-4.619-10.67c-.496 0-.927-.369-.991-.875-.069-.548.319-1.048.867-1.118 2.689-.34 4.657-1.971 4.676-1.988.422-.354 1.053-.303 1.408.119.356.421.305 1.05-.115 1.407-.097.083-2.42 2.029-5.718 2.446-.043.006-.085.009-.127.009zm-1.821-4.767c-.425 0-.819-.273-.954-.701-.165-.527.127-1.088.654-1.254 3.13-.983 4.253-2.692 4.299-2.764.295-.462.911-.605 1.375-.312.465.292.611.899.324 1.366-.06.097-1.506 2.396-5.399 3.619-.099.031-.2.046-.299.046z" fill="#744EAA"/></svg>