<svg xmlns="http://www.w3.org/2000/svg" viewBox="0 0 36 36"><path fill="#FFAC33" d="M8.916 12.88c-.111 1.652 1.768 3.126-.712 2.959-2.48-.167-7.836-2.533-7.768-3.53s3.708-2.757 6.188-2.59c2.48.166 2.404 1.508 2.292 3.161zm20.122 16.049c-.202-.032-.392.015-.564.095-2.325.232-3.225-1.885-3.225-1.885-.439-.336-.981-2.009-1.589-1.215l.187 1.402c.187 1.402 2.57 3.224 2.57 3.224l-1.215 1.589c-.336.439-.252 1.066.187 1.402.439.336 1.066.252 1.402-.187l.673-.88-.039.249c-.087.546.285 1.058.831 1.145.546.087 1.058-.285 1.145-.831l.47-2.963c.085-.546-.287-1.058-.833-1.145zm-6.278.623c-.196-.058-.39-.037-.572.018-2.335-.082-2.944-2.3-2.944-2.3-.39-.392-.703-2.123-1.412-1.417l-.003 1.414c-.003 1.414 2.115 3.539 2.115 3.539l-1.417 1.412c-.392.39-.393 1.023-.003 1.414.39.392 1.023.393 1.414.003l.785-.782-.073.242c-.159.529.141 1.086.67 1.246.529.159 1.087-.141 1.246-.67l.862-2.873c.162-.53-.138-1.087-.668-1.246z"/><path fill="#DD2E44" d="M35.009 6.729c-.383-.17-.758-.057-1.05.244-.054.056-4.225 6.306-14.532 4.944-.34-.045 3.139 11.968 3.199 11.962.124-.014 3.07-.368 6.14-2.553 2.818-2.005 6.284-5.991 6.797-13.598.028-.418-.171-.828-.554-.999z"/><path fill="#DD2E44" d="M34.477 21.108c-.204-.336-.59-.56-.979-.471-1.293.295-3.197.543-4.53.453-6.357-.428-9.361-4.129-9.392-4.16-.275-.282.466 11.552.816 11.576 9.194.62 13.862-6.027 14.057-6.31.222-.326.233-.751.028-1.088z"/><path fill="#DD2E44" d="M24.586 19.016c-.371 5.51 1.316 9.861-4.194 9.489-5.51-.371-10.145-4.92-9.774-10.431s14.34-4.568 13.968.942z"/><path fill="#DD2E44" d="M23.257 12.412c-.353 5.235-3.922 9.257-9.156 8.904-5.235-.353-9.193-4.882-8.84-10.117.353-5.235 4.832-8.444 10.067-8.091 4.001.269 8.24 4.683 7.929 9.304z"/><circle fill="#292F33" cx="10.67" cy="8.989" r="2"/><path fill="#A0041E" d="M18.179 16.645s7.63 5.648 12.387-4.459c.396-.842 1.685.793.099 4.162s-8.175 6.44-12.04 1.536c-.815-1.035-.446-1.239-.446-1.239z"/><path fill="#DD2E44" d="M15.327 3.107s6.246.254 7.798-.477.136 2.932-3.262 3.789-4.536-3.312-4.536-3.312z"/><path fill="#DD2E44" d="M17.428 5.788s4.501.136 6.054-.594.136 2.932-3.262 3.789c-3.399.857-2.792-3.195-2.792-3.195z"/></svg>