<svg xmlns="http://www.w3.org/2000/svg" viewBox="0 0 36 36"><path fill="#FFAC33" d="M17.38 33.098c-.097-.18-.25-.302-.417-.391C15.366 31.001 16.5 29 16.5 29c0-.553 1-2 0-2l-1 1c-1 1-1 4-1 4h-2c-.553 0-1 .447-1 1s.447 1 1 1h1.108l-.222.12c-.486.263-.667.869-.404 1.355s.869.667 1.356.404l2.639-1.427c.485-.262.666-.868.403-1.354zM23.5 32h-2s0-3-1-4l-1-1c-1 0 0 1.447 0 2 0 0 1.135 2.001-.462 3.707-.168.089-.32.211-.418.391-.263.486-.082 1.093.404 1.355l2.639 1.427c.486.263 1.093.082 1.356-.404.263-.486.082-1.093-.404-1.355L22.393 34H23.5c.553 0 1-.447 1-1s-.447-1-1-1z"/><path fill="#FFCC4D" d="M34 24c-1-2-3-5-4-10h-.008c.001-.052.008-.102.008-.154 0-5.943-4.324-10.864-9.996-11.819 1.189-.26 2.031-.509.996-1.027-1.115-.558-2.23.129-2.999.846h-.002C17.23 1.129 16.116.442 15 1c-1.035.518-.193.767.996 1.026C10.325 2.981 6 7.902 6 13.846c0 .052.007.102.008.154H6c-1 5-3 8-4 10-.447.895 0 3 2 2 1.191-.596 2.377-1.912 3.357-3.715C8.902 26.94 12.066 31 18 31c5.934 0 9.098-4.06 10.643-8.715.98 1.803 2.166 3.119 3.357 3.715 2 1 2.447-1.105 2-2z"/><path fill="#F4900C" d="M21 14c0 1.657-1.343 2-3 2s-3-.343-3-2 1.343-3 3-3 3 1.343 3 3z"/><circle fill="#662113" cx="11.5" cy="11.5" r="1.5"/><circle fill="#662113" cx="24.5" cy="11.5" r="1.5"/></svg>