<svg xmlns="http://www.w3.org/2000/svg" viewBox="0 0 36 36"><path fill="#FFAC33" d="M28.068 31.355c-2.229 0-8.468.785-10.068 1.832-1.601-1.047-7.84-1.832-10.069-1.832-2.564 0-1.161 1.039-1.161 2.322C6.77 34.96 5.367 36 7.931 36c2.229 0 8.468-.785 10.069-1.832C19.601 35.215 25.84 36 28.068 36c2.565 0 1.161-1.04 1.161-2.322 0-1.283 1.405-2.323-1.161-2.323z"/><path fill="#292F33" d="M31.73 15.866c-1.25-2.499-3.152-4.995-4.942-6.723C24.337 3.711 20.759 0 18 0s-6.337 3.71-8.788 9.143c-1.791 1.729-3.693 4.224-4.943 6.724-2.438 4.876-3.116 11.426-2.078 11.944.873.437 2.324-1.552 4.208-5.082C6.667 33.604 13.446 33.678 18 33.678c4.553 0 11.333-.073 11.601-10.947 1.884 3.528 3.335 5.517 4.207 5.08 1.038-.519.361-7.069-2.078-11.945z"/><path fill="#F5F8FA" d="M21.675 6.943c-.85.607-2.172 1.186-3.675 1.186s-2.825-.578-3.675-1.185c-3.302 2.137-5.615 7.06-5.615 12.798 0 7.695 4.159 13.936 9.29 13.936 5.132 0 9.291-6.24 9.291-13.936 0-5.738-2.313-10.662-5.616-12.799z"/><path fill="#FFAC33" d="M28.452 6h-5.808C18.797 6 18 5.22 18 4.257c0-.962-.364-1.742 3.483-1.742C27.291 2.516 29.613 6 28.452 6z"/><path fill="#F5F8FA" d="M16.839 3.483c0 .642-.52 1.162-1.161 1.162-.642 0-1.161-.521-1.161-1.162 0-.641.52-1.161 1.161-1.161s1.161.52 1.161 1.161z"/></svg>