<svg xmlns="http://www.w3.org/2000/svg" viewBox="0 0 36 36"><path fill="#99AAB5" d="M36 13.533C36 8.867 32.866 7 29 7c-1.621 0-3.285.354-4.676 1.027C22.523 6.798 20.405 6.062 18 6.062s-4.523.736-6.324 1.965C10.285 7.354 8.621 7 7 7c-3.866 0-7 1.867-7 6.533 0 3.844 2.128 6.417 5.038 7.206-.043.536-.068 1.073-.068 1.611 0 5.729 4.52 7.675 8.581 8.326C14.649 31.487 16.232 32 18 32s3.351-.513 4.449-1.323c4.062-.651 8.581-2.597 8.581-8.326 0-.538-.025-1.075-.068-1.611 2.91-.79 5.038-3.363 5.038-7.207z"/><path fill="#66757F" d="M9.554 9.854C9.236 9.821 8.917 9.8 8.6 9.8 5.507 9.8 3 11.293 3 15.026c0 2.154.838 3.808 2.138 4.824.473-3.797 2.005-7.416 4.416-9.996zM27.4 9.8c-.317 0-.637.021-.955.054 2.412 2.58 3.943 6.199 4.416 9.997C32.162 18.834 33 17.181 33 15.026c0-3.733-2.507-5.226-5.6-5.226z"/><path fill="#292F33" d="M21.728 24.807C21.728 28.152 20 29 18 29s-3.727-.848-3.727-4.193c0-3.345 1.727-6.057 3.727-6.057s3.728 2.712 3.728 6.057z"/><circle fill="#292F33" cx="12.5" cy="19.875" r="1.5"/><circle fill="#292F33" cx="23.5" cy="19.875" r="1.5"/></svg>