<svg xmlns="http://www.w3.org/2000/svg" viewBox="0 0 36 36"><path fill="#FFAC33" d="M8.231 10c6-8 14-10 18-10 1 0 1 1 0 1s-6 2-7 9-11 0-11 0zm-1 18c4 3 13 8 18 8 3 0 2-1 1-1s-9-3-10-7-9 0-9 0z"/><path fill="#FFCC4D" d="M35 9c-1.611 0-4.059 2.972-5.268 6.294-1.475-5.62-6.166-10.739-12.945-10.739-8.273 0-12.061 10.216-14.524 14.479-.629 1.091-4.091 1.034-.989 3.103-3.103 2.068.449 2.243 1.222 3.103 2.625 2.92 8.997 6.205 14.291 6.205 5.655 0 11.12-3.786 12.863-8.958C30.828 25.896 33.353 29 35 29c2.209 0-2-5.582-2-10s4.209-10 2-10z"/><g fill="#F4900C"><path d="M18.001 17.967c-.019.552.414 1.015.966 1.032l.034.001c.536 0 .98-.426.998-.967.201-6.065 5.758-8.816 6.35-9.092-.466-.525-.968-1.018-1.51-1.467-1.885 1.057-6.634 4.323-6.838 10.493zm5.018-2.163c-.108.542.243 1.068.784 1.177.067.013.132.019.198.019.467 0 .885-.329.98-.804.516-2.581 2.296-3.574 3.592-3.956-.305-.609-.645-1.202-1.028-1.768-1.877.691-3.908 2.246-4.526 5.332z"/><path d="M13 20c0 .553.448 1 1 1s1-.447 1-1c0-8.97 5.841-12.544 8.266-13.641-.693-.419-1.424-.785-2.205-1.067C17.888 7.169 13 11.446 13 20z"/></g><circle fill="#292F33" cx="9.5" cy="15.5" r="1.5"/></svg>