<svg xmlns="http://www.w3.org/2000/svg" viewBox="0 0 36 36"><path fill="#99AAB5" d="M30.016 33.887c-.804.654-1.278.708-1.357 1.156-.151.855.855.855 1.86.754 1.006-.101 1.106-.905.905-1.86-.201-.955-1.408-.05-1.408-.05zm-16.591 0c-.804.654-1.278.708-1.357 1.156-.151.855.855.855 1.86.754 1.006-.101 1.106-.905.905-1.86s-1.408-.05-1.408-.05z"/><path fill="#66757F" d="M25.039 33.133c-.804.654-1.278.708-1.357 1.156-.151.855.855.855 1.86.754 1.006-.101 1.106-.905.905-1.86-.202-.955-1.408-.05-1.408-.05zm-15.938 0c-.804.654-1.278.708-1.357 1.156-.151.855.855.855 1.86.754 1.006-.101 1.106-.905.905-1.86s-1.408-.05-1.408-.05z"/><path fill="#66757F" d="M19.446 23.182c1.879.01 2.338.358 2.734 1.367 1.269 3.234 1.958 2.001 2.264 4.419.311 2.453.272 4.449.708 4.676 1.004.523 2.59.817 1.11-4.995-.396-1.555-.783-4.266-.268-5.843.753-2.303.744-4.007.885-4.641-7.49.29-9.145 5.008-7.433 5.017z"/><path fill="#CCD6DD" d="M28.256 16.743c1.993-1.268 3.117-1.982 3.117-6.586 0-.529-.073-1.408-.603-1.408s-.352.526-.352 1.056c0 3.669-1.063 4.679-3.005 5.594-1.517-1.249-4.696-1.236-7.734-1.236-4.181 0-7.57 1.582-7.57 4.866s.89 4.571 5.071 4.571c1.45 0 2.856-.284 4.529-.647 1.837-.398 2.335.63 2.941 1.529 1.941 2.882 2.823 1.706 3.646 3.999.836 2.328 1.231 4.284 1.706 4.411 1.094.293 2.705.235 0-5.117-.724-1.432-1.69-3.995-1.529-5.646.235-2.411-.143-4.073-.143-4.723 0-.123-.062-.561-.074-.663z"/><path fill="#66757F" d="M9.702 32.226c-1.444-.38.837-6.535-1.191-8.533-1.355-1.334 1.369-7.759 2.854-7.596 1.483.163.692 4.949.484 6.839-.144 1.308-1.288 5.351-.726 7.671.323 1.336-.694 1.811-1.421 1.619z"/><path fill="#66757F" d="M12.318 31.59c-.147 1.785-1.27 2.066-2.616 1.955-1.346-.111-2.408-.571-2.261-2.356s1.357-3.143 2.704-3.033c1.347.111 2.32 1.649 2.173 3.434z"/><path fill="#CCD6DD" d="M13.772 32.472c-1.489-.111-.364-6.578-2.722-8.174-1.575-1.066-.064-7.879 1.425-7.988 1.488-.109 1.58 4.741 1.719 6.637.096 1.312-.294 5.496.681 7.675.561 1.254-.352 1.906-1.103 1.85z"/><path fill="#99AAB5" d="M20.914 18.184c0 4.6-1.198 7.245-5.767 7.791-5.644.675-10.032-2.963-9.608-7.544.528-5.707 3.78-7.425 7.29-7.431 4.601-.008 8.085 2.582 8.085 7.184z"/><path fill="#99AAB5" d="M22.575 18.402c0 4.6-2.859 7.027-7.428 7.573-5.644.675-10.032-2.963-9.608-7.544.528-5.707 3.772-7.665 7.282-7.671 2.598-.005 5.43 0 7.179 2.607 2.123.561 2.575 3.032 2.575 5.035zm-6.132 13.409c.18 1.782-.873 2.262-2.217 2.398-1.344.136-2.471-.124-2.652-1.905-.18-1.782.763-3.338 2.108-3.474 1.344-.136 2.581 1.199 2.761 2.981z"/><path fill="#66757F" d="M27.758 31.562c-.043 1.79-1.053 2.138-2.287 2.109-1.234-.029-2.226-.425-2.183-2.215.043-1.79 1.078-3.219 2.312-3.19 1.234.029 2.2 1.506 2.158 3.296z"/><path fill="#99AAB5" d="M32.689 31.553c.374 1.751-.528 2.324-1.735 2.582s-2.264.103-2.638-1.648.302-3.382 1.509-3.639c1.207-.258 2.49.953 2.864 2.705zm.512-20.467c.093 1.789-1.087 3.305-2.634 3.385-1.547.08-2.878-1.306-2.971-3.095-.093-1.789.245-4.364 1.792-4.444 1.547-.08 3.72 2.365 3.813 4.154z"/><path fill="#CCD6DD" d="M13.231 7.67c.328 1.726-1.846 3.731-4.913 4.172-6.15.884-7.16-2.459-7.291-3.511-.104-.834 2.703-1.177 6.395-3.149 4.572-2.442 5.481.762 5.809 2.488z"/><path fill="#66757F" d="M14.179 3.118c-.044-1.161-.352-3.039-3.677-3.039-1.397 0-3.713.424-3.814 1.832-1.81-.351-2.883 1.772-2.287 2.815.619 1.082 1.248 1.099 3.683.654.923-.169 2.007.577 1.801 1.493l-.078.333c-.28 1.191-1.561 2.861-1.561 4.308 0 1.396.967 2.42 2.719 2.36-.119 1.515 1.23 3.12 3.414 3.12 3.115 0 4.424-1.961 4.223-5.631-.081-1.481-.654-3.117-1.81-4.072-.049-2.313-.954-3.972-2.613-4.173z"/><path fill="#292F33" d="M2.521 8.864c.001.623.022 1.247-.589 1.363-.372.071-1.213-.281-1.423-1.138-.184-.756.286-1.202.898-1.319.611-.116 1.113.305 1.114 1.094z"/><circle fill="#292F33" cx="7.715" cy="6.871" r="1"/><path fill="#99AAB5" d="M23.341 13.677c1.414.069 2.967 1.455 2.402 2.714s-1.616 1.537-2.564 1.408c-1.106-.151-2.492-.819-2.279-2.594.117-.976 1.111-1.593 2.441-1.528z"/></svg>