<svg xmlns="http://www.w3.org/2000/svg" viewBox="0 0 36 36"><path fill="#C1694F" d="M31.595 15.007c-1.75-3.623-5.934-9.053-9.531-9.053-4.071 0-8.228 7.259-10.071 10.378-.176.299-.321.578-.464.857-3.371-1.182-.536-6.631-.536-10.463 0-.957-.138-1.637-.44-2.119.489-.606.586-1.347.192-1.699-.413-.367-1.195-.163-1.745.456-.08.089-.129.186-.189.28-.424-.067-.903-.102-1.472-.102-.565 0-2.916.266-4.229.791C-.007 5.582.993 9 1.993 9h4c1 0 .756 2.31 0 4.726-.83 2.654-1.439 5.145-1 6.606.808 2.687 3.712 3.589 6.164 3.86 1.059 2.659 1.517 6.455 1.473 7.962-.059 2 1.94 2.059 1.999.059.036-1.211-.102-3.68.143-5.781.658 2.833.935 6.097.899 7.314-.059 1.998 1.94 2.057 1.999.059.047-1.602-.182-6.36.559-8.982.507.017 1.044.03 1.619.035 1.774.09 3.726.085 5.506-.015 1.05 1.592 1.996 2.991 1.982 3.435-.029 1-1.117 3.969-1.146 4.969-.029 1 .94 2.029 1.999.059.648-1.205 1.324-3.419 1.536-5.421.171.364.274.656.269.843-.029 1-.97 3.93-.999 4.93-.029.998.941 2.027 1.999.059 1.059-1.971 1.998-4.898 1.058-6.928-.797-1.72.431-4.165.824-7.914 1.082 1.665 1.117 3.351 1.118 3.459 0 .553.447 1 1 1 .553 0 1-.447 1-1-.001-.215-.067-4.85-4.399-7.327z"/><path fill="#292F33" d="M8.28 5.571c-.016.552-.477.986-1.029.97-.552-.016-.986-.477-.97-1.029.016-.552.477-.986 1.029-.97.552.016.986.477.97 1.029z"/></svg>