<svg xmlns="http://www.w3.org/2000/svg" viewBox="0 0 36 36"><path fill="#99AAB5" d="M33.799.005c-.467-.178-7.998 3.971-9.969 9.131-1.166 3.052-1.686 6.058-1.652 8.112C20.709 16.459 19.257 16 18 16s-2.709.458-4.178 1.249c.033-2.055-.486-5.061-1.652-8.112C10.2 3.977 2.668-.173 2.201.005c-.455.174 4.268 16.044 7.025 20.838C6.805 23.405 5 26.661 5 29.828c0 3.234 1.635 5.14 4 5.94 2.531.857 5-.94 9-.94s6.469 1.798 9 .94c2.365-.801 4-2.706 4-5.94 0-3.166-1.805-6.423-4.225-8.984C29.53 16.049 34.255.179 33.799.005z"/><path fill="#F4ABBA" d="M12.692 17.922c-.178-1.54-.68-3.55-1.457-5.584-1.534-4.016-5.686-7.245-6.049-7.107-.319.122 2.627 10.14 4.783 14.863.866-.824 1.786-1.563 2.723-2.172zm13.338 2.172c2.156-4.723 5.102-14.741 4.784-14.862-.363-.139-4.516 3.091-6.05 7.107-.777 2.034-1.279 4.043-1.457 5.583.937.609 1.857 1.348 2.723 2.172z"/><path fill="#CCD6DD" d="M25 30c0 2.762-3.06 5-6.834 5-3.773 0-6.833-2.238-6.833-5s3.06-5 6.833-5C21.94 25 25 27.238 25 30z"/><path fill="#FFF" d="M21 30.578c0 2.762-.238 3-3 3-2.761 0-3-.238-3-3 0-1 6-1 6 0z"/><circle fill="#292F33" cx="12.5" cy="24.328" r="1.5"/><circle fill="#292F33" cx="23.5" cy="24.328" r="1.5"/><path fill="#F4ABBA" d="M21 25.828c0 1.657-2 3-3 3s-3-1.343-3-3 6-1.657 6 0z"/></svg>