<svg xmlns="http://www.w3.org/2000/svg" viewBox="0 0 36 36"><path fill="#3E721D" d="M35.125 13.344c0-1 .771-2.327.771-2.635 0-.656-1.553-.421-1.626-1.046-.209-1.794 1.887-3.318-1.745-3.312-1.352.002-.274-1.768-.274-2.725 0-.957-2.596-.145-3.552-.145-.957 0-.957-2.87-1.913-2.87-2.87 0-3.827 2.87-4.783 2.87-.957 0-1.744-3.621-2.87-2.87-2.87 1.913-3.826 7.653-3.826 7.653s4.783-3.826 10.522-2.87c5.345.891 4.79 10.821 5.641 16.888L24.609 36h3.359c.344-1.5 1.939-.529 2.375-1.688.381-1.016-.67-1.966-.094-2.969s.978-.755 2.094-1.375c1.184-.657 0-2.199 0-3.156 0-.956 2.312-1.574 2.312-2.531 0-.63-1.068-1.292-.812-2.356.257-1.064 1.586-1.186 1.749-2.184.138-.847-.921-1.455-.796-2.393s1.174-1.378 1.174-2.097c.002-.718-.845-1.001-.845-1.907z"/><path fill="#77B255" d="M34.438 13.458c0-4.038-2.87-9.085-9.566-9.085-6.695 0-17.265 10.024-20.088 10.096C2.87 12.521 0 14.523 0 16.486c0 3.028 5.373 4.61 5.646 4.899 1.088 1.149 3.92 8.083 8.704 1.945.803-1.03 1.302-.422 3.483.542C25.069 27.729 16 36 16 36h9.566c4.782-4.783 8.871-13.844 8.871-21.997l-.021.008c.007-.185.022-.369.022-.553z"/><path fill="#292F33" d="M23.915 12.09c0 1.056-.856 1.913-1.913 1.913s-1.913-.857-1.913-1.913c0-1.057.856-1.913 1.913-1.913 1.057-.001 1.913.856 1.913 1.913z"/><path fill="#3E721D" d="M4.783 17.351c0 .793-.643.479-1.435.479s-1.435.315-1.435-.479c0-.792.643-1.435 1.435-1.435.793 0 1.435.643 1.435 1.435z"/><path fill="#FFF" d="M18.176 18.782c0 1.058-.643.956-1.436.956-.792 0-1.434.101-1.434-.956 0-1.056.642-3.826 1.434-3.826.793 0 1.436 2.771 1.436 3.826zm-3.827.956c0 1.058-.643.957-1.435.957s-1.435.101-1.435-.957c0-1.056.643-3.826 1.435-3.826.792.001 1.435 2.771 1.435 3.826z"/><path fill="#3E721D" d="M18.04 18.795c-5.076.726-10.192 2.007-12.394 2.59.275.29.661.95 1.162 1.674 2.415-.624 6.975-1.724 11.503-2.369.524-.074.887-.561.812-1.083-.075-.524-.563-.888-1.083-.812zm.549-6.186c-.258 0-.515-.098-.709-.295-.388-.391-.388-1.021.001-1.41.129-.129 3.222-3.163 8.36-3.163.553 0 1 .448 1 1s-.447 1-1 1c-4.281 0-6.923 2.554-6.949 2.58-.194.192-.449.288-.703.288z"/></svg>