<svg xmlns="http://www.w3.org/2000/svg" viewBox="0 0 36 36"><circle fill="#272B2B" cx="7" cy="6" r="6"/><circle fill="#272B2B" cx="29" cy="6" r="6"/><circle fill="#66757F" cx="7" cy="6" r="4"/><circle fill="#66757F" cx="29" cy="6" r="4"/><path fill="#EEE" d="M35 22c0 7-6.375 12-17 12S1 29 1 22C1 22 2.308 0 18 0s17 22 17 22z"/><circle fill="#CCD6DD" cx="18" cy="30" r="6"/><circle fill="#DD2E44" cx="18" cy="30" r="4"/><path fill="#272B2B" d="M20.709 12.654C25.163 9.878 32 17 26.952 22.67 23.463 26.591 20 25 20 25s-2.636-10.26.709-12.346zm-5.442.011C10.813 9.888 3.976 17.01 9.023 22.681c3.49 3.92 6.953 2.329 6.953 2.329s2.636-10.26-.709-12.345z"/><path fill="#66757F" d="M11 17s0-2 2-2 2 2 2 2v2s0 2-2 2-2-2-2-2v-2z"/><path fill="#FFF" d="M18 20S7 23.687 7 27s2.687 6 6 6c2.088 0 3.925-1.067 5-2.685C19.074 31.933 20.912 33 23 33c3.313 0 6-2.687 6-6s-11-7-11-7z"/><path fill="#66757F" d="M21 17s0-2 2-2 2 2 2 2v2s0 2-2 2-2-2-2-2v-2z"/><path fill="#272B2B" d="M13.125 25c-1.624 1 3.25 4 4.875 4s6.499-3 4.874-4-8.124-1-9.749 0z"/></svg>