<svg xmlns="http://www.w3.org/2000/svg" viewBox="0 0 36 36"><path fill="#CCD6DD" d="M10.378 3.072c2.343 2.343 1.636 5.435-.707 7.778s-5.435 3.05-7.778.707-2.429-7.47-.707-9.192 6.849-1.636 9.192.707z"/><path fill="#66757F" d="M8.695 4.467c1.562 1.562.855 3.388-.707 4.95s-3.388 2.269-4.95.707-1.414-5.657-.706-6.364 4.802-.855 6.363.707z"/><path fill="#CCD6DD" d="M25.622 3.072c-2.343 2.343-1.636 5.435.707 7.778s5.435 3.05 7.778.707 2.429-7.47.707-9.192-6.849-1.636-9.192.707z"/><path fill="#66757F" d="M27.305 4.467c-1.562 1.562-.855 3.388.707 4.95s3.388 2.269 4.95.707c1.562-1.562 1.414-5.657.707-6.364-.708-.707-4.803-.855-6.364.707z"/><path fill="#E1E8ED" d="M34.017 15s1-13-16-13c-17.178 0-16 12-16 12 0 13 11 19 16 19s16-5 16-18z"/><circle fill="#DD2E44" cx="18" cy="30" r="4"/><path fill="#CCD6DD" d="M18 15c-5 0-7 9.687-7 13s2 7 7 7 7-3.687 7-7-2-13-7-13z"/><path fill="#272B2B" d="M14.579 24.298C12.726 25.438 15.719 30 18 30s5.275-4.562 3.421-5.702c-1.853-1.141-4.989-1.141-6.842 0z"/><path fill="#DD2E44" d="M16 32s.095 2 2.095 2 2.095-2 2.095-2-2.095.158-2.095-2c0 1-2.095 2-2.095 2z"/><path fill="#292F33" d="M16 32.5c-1.693 0-2.404-1.199-2.433-1.25-.138-.239-.056-.545.183-.684.24-.138.544-.056.683.184.016.026.469.75 1.567.75 1.312 0 1.487-1.389 1.502-1.547.027-.273.277-.463.544-.45.274.026.476.268.452.541-.076.85-.695 2.456-2.498 2.456z"/><path fill="#292F33" d="M20 32.5c-1.803 0-2.422-1.606-2.498-2.456-.024-.274.179-.518.454-.542.281-.011.519.179.542.454.015.155.19 1.544 1.502 1.544 1.098 0 1.551-.724 1.569-.755.143-.233.448-.313.684-.173.236.14.317.44.18.678-.03.051-.741 1.25-2.433 1.25z"/><path fill="#272B2B" d="M25.5 19c-.825 0-1.5-.675-1.5-1.5v-1c0-.825.675-1.5 1.5-1.5s1.5.675 1.5 1.5v1c0 .825-.675 1.5-1.5 1.5zm-15 0c-.825 0-1.5-.675-1.5-1.5v-1c0-.825.675-1.5 1.5-1.5s1.5.675 1.5 1.5v1c0 .825-.675 1.5-1.5 1.5z"/></svg>