<svg xmlns="http://www.w3.org/2000/svg" viewBox="0 0 36 36"><path fill="#90603E" d="M32.302 24.347c-.695-1.01-.307-2.47-.48-4.082-.178-2.63-1.308-5.178-3.5-7.216l-7.466-6.942s-1.471-1.369-2.841.103c-1.368 1.471.104 2.84.104 2.84l3.154 2.934 2.734 2.542s-.685.736-3.711-2.078l-10.22-9.506s-1.473-1.368-2.842.104c-1.368 1.471.103 2.84.103 2.84l9.664 8.989c-.021-.02-.731.692-.744.68L5.917 5.938s-1.472-1.369-2.841.103c-1.369 1.472.103 2.84.103 2.84L13.52 18.5c.012.012-.654.764-.634.783l-8.92-8.298s-1.472-1.369-2.841.103c-1.369 1.472.103 2.841.103 2.841l9.484 8.82c.087.081-.5.908-.391 1.009l-6.834-6.356s-1.472-1.369-2.841.104c-1.369 1.472.103 2.841.103 2.841L11.896 30.71c1.861 1.731 3.772 2.607 6.076 2.928.469.065 1.069.065 1.315.096.777.098 1.459.374 2.372.934 1.175.72 2.938 1.02 3.951-.063l3.454-3.695 3.189-3.412c1.012-1.082.831-2.016.049-3.151z"/><path d="M1.956 35.026c-.256 0-.512-.098-.707-.293-.391-.391-.391-1.023 0-1.414L4.8 29.77c.391-.391 1.023-.391 1.414 0s.391 1.023 0 1.414l-3.551 3.55c-.195.195-.451.292-.707.292zm6.746.922c-.109 0-.221-.018-.331-.056-.521-.182-.796-.752-.613-1.274l.971-2.773c.182-.521.753-.795 1.274-.614.521.183.796.753.613 1.274l-.971 2.773c-.144.412-.53.67-.943.67zm-7.667-7.667c-.412 0-.798-.257-.943-.667-.184-.521.089-1.092.61-1.276l2.495-.881c.523-.18 1.092.091 1.276.61.184.521-.089 1.092-.61 1.276l-2.495.881c-.111.039-.223.057-.333.057zm29.46-21.767c-.256 0-.512-.098-.707-.293-.391-.391-.391-1.024 0-1.415l3.552-3.55c.391-.39 1.023-.39 1.414 0s.391 1.024 0 1.415l-3.552 3.55c-.195.196-.451.293-.707.293zm-4.164-1.697c-.109 0-.221-.019-.33-.057-.521-.182-.796-.752-.614-1.274l.97-2.773c.183-.521.752-.796 1.274-.614.521.182.796.752.614 1.274l-.97 2.773c-.144.413-.531.671-.944.671zm6.143 5.774c-.412 0-.798-.257-.943-.667-.184-.521.09-1.092.61-1.276l2.494-.881c.522-.185 1.092.09 1.276.61.184.521-.09 1.092-.61 1.276l-2.494.881c-.111.039-.223.057-.333.057z" fill="#FA743E"/><path fill="#AF7E57" d="M35.39 23.822c-.661-1.032-.224-2.479-.342-4.096-.09-2.634-1.133-5.219-3.255-7.33l-7.228-7.189s-1.424-1.417-2.843.008c-1.417 1.424.008 2.842.008 2.842l3.054 3.039 2.646 2.632s-.71.712-3.639-2.202c-2.931-2.915-9.894-9.845-9.894-9.845s-1.425-1.417-2.843.008c-1.418 1.424.007 2.841.007 2.841l9.356 9.31c-.02-.02-.754.667-.767.654L9.64 4.534s-1.425-1.418-2.843.007c-1.417 1.425.007 2.842.007 2.842l10.011 9.962c.012.012-.68.741-.66.761L7.52 9.513s-1.425-1.417-2.843.008.007 2.843.007 2.843l9.181 9.135c.084.083-.53.891-.425.996l-6.616-6.583s-1.425-1.417-2.843.008.007 2.843.007 2.843l10.79 10.732c1.802 1.793 3.682 2.732 5.974 3.131.467.081 1.067.101 1.311.14.773.124 1.445.423 2.34 1.014 1.15.759 2.902 1.118 3.951.07l3.577-3.576 3.302-3.302c1.049-1.05.9-1.99.157-3.15z"/></svg>