<svg xmlns="http://www.w3.org/2000/svg" viewBox="0 0 36 36"><path fill="#FFDC5D" d="M4 15.894s-.093 2.362 1.792 3.068c1.667.625 2.309-.622 2.309-.622s-.059 1.914 1.941 2.622c1.885.668 2.75-.958 2.75-.958s.307 1.871 2.292 2.417C16.755 22.88 18 21.254 18 21.254v12.208c0 .959.542 2.575 2.543 2.576 2 .002 2.457-1.659 2.457-2.576v-20.5c0-1 1-1 1 0v2.666c0 3.792 2.038 6.143 2.751 6.792.713.65 1.667.979 2.82.734 1.956-.415 1.529-1.92.975-3.197-1.337-3.078-2.254-7.464-2.533-9.538C27.222 4.562 22.204.044 16.129.038 9.503.034 4.005 5.336 4 11.962v3.932z"/></svg>