<svg xmlns="http://www.w3.org/2000/svg" viewBox="0 0 36 36"><path fill="#31373D" d="M35.686 11.931c-.507-.522-6.83-1.094-13.263-.369-1.283.144-1.363.51-4.425.63-3.061-.119-3.141-.485-4.425-.63C7.14 10.837.817 11.41.31 11.931c-.252.261-.252 2.077 0 2.338.254.261 1.035.606 1.403 1.827.237.787.495 5.864 2.281 7.377 1.768 1.498 7.462 1.217 9.326.262 2.536-1.298 2.892-5.785 3.292-7.639.203-.939 1.162-1.016 1.385-1.016s1.182.077 1.385 1.016c.401 1.853.757 6.34 3.292 7.639 1.865.955 7.558 1.236 9.326-.262 1.786-1.513 2.044-6.59 2.281-7.377.368-1.22 1.149-1.566 1.403-1.827.254-.26.254-2.077.002-2.338z"/><path fill="#55ACEE" d="M14.644 15.699c-.098 1.255-.521 4.966-1.757 6.083-1.376 1.243-6.25 1.568-7.79.044-.808-.799-1.567-4.018-1.503-6.816.038-1.679 2.274-2.02 5.462-2.02 3.148 0 5.763.468 5.588 2.709zm6.707 0c.098 1.255.521 4.966 1.757 6.083 1.376 1.243 6.25 1.568 7.79.044.808-.799 1.567-4.018 1.503-6.816-.038-1.679-2.274-2.02-5.462-2.02-3.147 0-5.763.468-5.588 2.709z"/></svg>