<svg xmlns="http://www.w3.org/2000/svg" viewBox="0 0 36 36"><path fill="#8899A6" d="M24.161 10.166l-.676-2.034c-.134-.302-.49-.43-.781-.275-.918.487-2.944 1.318-3.684 1.575 1.419.505 3.499 1.503 4.511 1.396.384-.04.787-.308.63-.662zm10.21 24.574c-.399.225-6.509 1.692-18.621-8.906C12.083 22.625 1.2 12.879 1.341 12.547c0 0-.329.36-.602.736-.197.271-.319.559-.274.848.31 1.967 3.112 3.819 6.962 6.781l.549.422.363.279c.588.452 2.316 1.815 4.329 3.403 2.753 2.171 8.284 6.49 8.445 6.61 2.12 1.574 4.635 2.817 7.667 3.672 3.838 1.081 5.591-.558 5.591-.558z"/><path fill="#BE1931" d="M34.371 34.74s.477-.219.97-.918c.493-.699.79-1.924.045-3.248-.745-1.323-3.456-5.121-4.345-6.671-.433-.755-.297-1.447-1.125-2.835 0 0-3.164-5.523-3.864-6.723-1.497-2.567-.84-3.902-1.837-4.668-.665-.511-7.306.166-9.327-1.389-1.397-1.074-1.418-4.428-2.003-5.526-.466-.875-2.02-.475-3.087.11S5.825 6.661 5.123 7.574s-1.601 1.909-1.679 2.928l-.079 1.018S19.226 26.67 23.74 29.726c7.697 5.211 10.631 5.014 10.631 5.014z"/><path fill="#A0041E" d="M24.74 10.464c-.103-.314-.249-.575-.525-.788-.665-.511-7.306.167-9.327-1.389-1.397-1.074-1.418-4.429-2.003-5.526-.182-.341-.532-.485-.952-.502.69 1.4.621 5.574 2.312 6.874 2.038 1.569 8.016 1.133 10.495 1.331z"/><path fill="#DD2E44" d="M13.265 17.873c.505-1.472 1.044-4.915.074-6.962-.909-1.917-4.441-5.955-5.112-6.72C6.987 5.296 5.33 7.229 4.83 7.879c-.66.858-1.455 1.822-1.494 2.801-.014.352.087.51.087.51s9.822 6.741 9.842 6.683z"/><path fill="#CCD6DD" d="M23.107 14.256c-.335 0-.65-.202-.78-.533-.169-.431.043-.917.474-1.087l1.823-.715c.43-.167.919.043 1.087.475.169.431-.043.917-.474 1.087l-1.823.715c-.101.039-.204.058-.307.058zm1.347 3.063c-.291 0-.573-.151-.728-.421-.231-.401-.093-.914.309-1.145l1.793-1.031c.402-.231.915-.092 1.145.309.231.401.093.914-.309 1.145l-1.793 1.031c-.132.076-.275.112-.417.112zm1.821 2.752c-.256 0-.509-.117-.673-.338-.277-.371-.2-.896.171-1.173l1.514-1.129c.371-.277.897-.201 1.173.171.277.372.2.897-.171 1.174l-1.514 1.128c-.15.113-.326.167-.5.167zm1.945 2.571c-.242 0-.482-.104-.648-.307-.294-.358-.241-.887.116-1.181l1.155-.948c.357-.293.887-.242 1.181.116s.241.887-.116 1.181l-1.155.948c-.157.128-.346.191-.533.191zM3.2 10.76s.675.612 1.425.726c.75.114 2.079.95 2.993 1.653.914.703 4.399 3.292 6.534 5.444s5.495 6.58 6.801 7.863c1.306 1.282 3.413 3.193 5.214 4.347s3.455 2.131 4.516 2.686c1.368.716 2.632 1.144 3.688 1.261-.368.216-2.313.946-5.69-.205-3.228-1.101-5.332-2.294-7.071-3.586-1.739-1.292-11.208-8.808-12.759-10.001-1.551-1.193-6.188-4.728-6.92-5.787-1.04-1.504-.99-2.162-.788-2.424.492-.641 1.531-2.382 2.057-1.977z"/><path fill="#DD2E44" d="M35.386 30.574c-.745-1.323-3.456-5.121-4.345-6.671-.174-.304-.257-.599-.347-.931-.091.034-.189.054-.269.109-1.154.792-1.148 3.185.571 5.687 1.378 2.006 3.59 3.552 4.832 3.576.026-.538-.088-1.142-.442-1.77z"/></svg>