<svg xmlns="http://www.w3.org/2000/svg" viewBox="0 0 36 36"><path fill="#B78B60" d="M15.281 20.258l-1.869-3.661-3.811-8.11c-.285-.612-1.147-.815-1.924-.452l-.061.028c-.68.317-1.071.963-.964 1.53 0 0-1.275-1.147-2.024-.797l-.06.027c-.749.35-1.123 1.136-.833 1.757l.533 1.192c-.301-.644-1.19-.866-1.985-.494l-.062.029c-.795.371-1.197 1.194-.896 1.838l5.131 13.15 6.794.212 2.031-6.249zm18.572-8.95l-.062-.029c-.796-.372-1.685-.15-1.985.494l.533-1.192c.29-.621-.084-1.408-.832-1.757l-.06-.027c-.749-.35-1.591-.129-1.882.492l-.143.306c.107-.567-.283-1.213-.964-1.53l-.062-.028c-.777-.363-1.639-.16-1.924.452l-3.885 8.11-1.498 3.364 2.66 6.82 6.445-3.869 4.554-9.766c.302-.646-.101-1.469-.895-1.84z"/><path fill="#D5AB88" d="M35.809 15.672s.653-1.043-.454-1.558c-1.106-.515-1.482.657-1.482.657l-2.39 5.142c-.141-.164-.705-.516-.866-.671l3.315-7.136s.653-1.043-.455-1.558c-1.107-.514-1.483.657-1.483.657l-3.118 6.711c-.175-.099-.63-.327-.812-.423l3.616-7.781s.652-1.043-.455-1.558c-1.106-.515-1.482.657-1.482.657l-3.618 7.78c-.193-.078-.797-.335-.988-.404l3.38-7.272s.651-1.043-.455-1.558c-1.108-.515-1.483.657-1.483.657l-3.574 7.689-.286.617-.128.276c3.323 1.544 4.486 5.616 3.2 8.384-.258.554-1.177.3-1.177.3 1.544-3.321.358-6.566-2.964-8.109l.144-4.545s.134-1.213-1.079-1.348c-1.215-.134-1.349 1.08-1.349 1.08l-.509 3.183c-.203 1.262-.431 2.525-.81 3.746-1.066 3.447.551 7.238 3.915 8.803 3.669 1.705 8.027.112 9.732-3.556l.257-.556 3.858-8.306z"/><path fill="#D5AB88" d="M.192 15.672s-.654-1.043.453-1.558c1.107-.515 1.482.657 1.482.657l2.39 5.142c.141-.164.705-.516.866-.671l-3.315-7.136s-.654-1.043.455-1.558c1.105-.514 1.482.657 1.482.657l3.119 6.711c.175-.099.63-.327.812-.423l-3.615-7.78s-.653-1.043.455-1.558c1.107-.515 1.483.657 1.483.657l3.618 7.78c.193-.078.797-.335.988-.404l-3.38-7.272s-.651-1.043.455-1.558c1.107-.515 1.483.657 1.483.657l3.574 7.689.286.617.128.276c-3.323 1.544-4.486 5.616-3.2 8.384.258.554 1.177.3 1.177.3-1.544-3.321-.358-6.566 2.963-8.109l-.143-4.545s-.134-1.213 1.078-1.348c1.215-.134 1.35 1.08 1.35 1.08l.508 3.183c.203 1.262.432 2.525.811 3.746 1.067 3.447-.552 7.238-3.916 8.803-3.669 1.705-8.027.112-9.732-3.556l-.256-.556-3.859-8.307z"/></svg>