<svg xmlns="http://www.w3.org/2000/svg" viewBox="0 0 36 36"><path fill="#55ACEE" d="M29 20.729v-1.963c1-1.03 2.914-2.89 3.391-5.273.142.079.055.13.213.13.758 0 1.256-.983 1.256-2.197 0-1.194-.656-2.161-1.399-2.191.143-.516.212-1.206.212-2.092 0-2.956-2.549-6.505-8.253-6.505-5.068 0-8.244 3.549-8.244 6.505 0 .858.051 1.562.142 2.107-.697.105-1.247 1.033-1.247 2.175 0 1.214.614 2.197 1.373 2.197.157 0-.069-.051.072-.13.477 2.384 2.484 4.243 3.484 5.274v1.847c-4 .492-7 2.628-7 4.765v.81c0 .812.823.812 1.634.812h18.73c.813 0 1.636 0 1.636-.812v-.81c0-2.001-3-3.997-6-4.649z"/><path fill="#269" d="M17 28.729v-1.963c1-1.03 2.914-2.89 3.391-5.273.142.079.055.13.213.13.758 0 1.256-.983 1.256-2.197 0-1.194-.656-2.161-1.399-2.191.143-.516.212-1.206.212-2.092 0-2.956-2.549-6.505-8.253-6.505-5.069 0-8.244 3.549-8.244 6.505 0 .858.051 1.562.142 2.107-.697.105-1.247 1.033-1.247 2.175 0 1.214.614 2.197 1.373 2.197.157 0-.069-.051.072-.13C4.993 23.876 7 25.735 8 26.766v1.847c-4 .492-7 2.628-7 4.765v.811C1 35 1.823 35 2.634 35h18.73c.813 0 1.636 0 1.636-.812v-.811c0-2-3-3.996-6-4.648z"/></svg>