<svg xmlns="http://www.w3.org/2000/svg" viewBox="0 0 36 36"><path fill="#0B0200" d="M18 3c6 0 16 3 16 16s0 16-3 16-7-3-13-3-9.915 3-13 3c-3.343 0-3-12-3-16C2 6 12 3 18 3z"/><path fill="#7C533E" d="M6 18.562c0-8.526 5.373-15.438 12-15.438s12 6.912 12 15.438S24.627 34 18 34 6 27.088 6 18.562z"/><path fill="#DF1F32" d="M18 30c-2.347 0-3.575-1.16-3.707-1.293-.391-.391-.391-1.023 0-1.414.387-.387 1.013-.39 1.404-.01.051.047.806.717 2.303.717 1.519 0 2.273-.69 2.305-.719.398-.373 1.027-.362 1.408.029.379.393.38 1.011-.006 1.397C21.575 28.84 20.347 30 18 30z"/><path fill="#3D2E24" d="M19 25h-2c-.552 0-1-.447-1-1s.448-1 1-1h2c.553 0 1 .447 1 1s-.447 1-1 1z"/><path fill="#0B0200" d="M3.064 24c-.03-.325-.064-.647-.064-1 0-5 3 .562 3-3 0-3.563 2-4 4-6l3-3s5 3 9 3 8 2 8 6 3-2 3 3c0 .355-.033.673-.058 1h1.049C34 22.523 34 20.868 34 19 34 6 24 1 18 1S2 6 2 19c0 1.158-.028 2.986.012 5h1.052z"/><path d="M13 22c-.552 0-1-.447-1-1v-2c0-.552.448-1 1-1s1 .448 1 1v2c0 .553-.448 1-1 1zm10 0c-.553 0-1-.447-1-1v-2c0-.552.447-1 1-1s1 .448 1 1v2c0 .553-.447 1-1 1z"/></svg>