<svg xmlns="http://www.w3.org/2000/svg" viewBox="0 0 36 36"><path fill="#E1E8ED" d="M36 36v-2c0-3.314-2.686-6-6-6H14c-3.313 0-6 2.686-6 6v2h28z"/><path fill="#EA596E" d="M29.799 28.127c0 1.36-3.491 2.434-7.799 2.434s-7.798-1.06-7.798-2.42c0-.062.015-.141.029-.141h-.734l-.705.099.005 1.019c.114 2.405 4.186 3.392 9.204 3.392 4.997 0 9.054-1.009 9.199-3.413l.015-.974c-.001-.001-1.416-.058-1.416.004z"/><path fill="#BE1931" d="M22 24.632c-5.089 0-9.214 1.539-9.214 3.438 0 1.899 4.125 3.439 9.214 3.439s9.214-1.54 9.214-3.439-4.125-3.438-9.214-3.438"/><path fill="#292F33" d="M22 30.533c-4.307 0-7.799-1.104-7.799-2.464 0-1.359 3.492-2.463 7.799-2.463s7.799 1.104 7.799 2.463c0 1.361-3.492 2.464-7.799 2.464"/><path fill="#F7DECE" d="M17.64 27.938c1.744 1.267 2.848 1.511 4.36 1.511 1.512 0 2.615-.245 4.359-1.511v-3.812h-8.72v3.812z"/><path fill="#EEC2AD" d="M17.632 25.973c1.216 1.374 2.724 1.746 4.364 1.746 1.639 0 3.146-.373 4.363-1.746v-3.491h-8.728v3.491z"/><path fill="#F7DECE" d="M15.444 15.936c0 1.448-.734 2.622-1.639 2.622s-1.639-1.174-1.639-2.622.734-2.623 1.639-2.623c.905-.001 1.639 1.174 1.639 2.623m16.389 0c0 1.448-.733 2.622-1.639 2.622-.905 0-1.639-1.174-1.639-2.622s.733-2.623 1.639-2.623c.906-.001 1.639 1.174 1.639 2.623"/><path fill="#F7DECE" d="M13.477 16.959c0-5.589 3.816-10.121 8.523-10.121s8.522 4.532 8.522 10.121S26.707 27.08 22 27.08c-4.706 0-8.523-4.531-8.523-10.121"/><path fill="#C1694F" d="M22 23.802c-2.754 0-3.6-.705-3.741-.848-.256-.256-.256-.671 0-.927.248-.248.646-.255.902-.023.052.037.721.487 2.839.487 2.2 0 2.836-.485 2.842-.49.256-.255.657-.243.913.015.256.256.242.683-.014.938-.141.143-.987.848-3.741.848"/><path fill="#292F33" d="M22 3.48c5.648 0 9.178 4.168 9.178 7.641s-.706 4.863-1.412 3.473l-1.412-2.778s-4.235 0-5.647-1.39c0 0 2.118 4.168-2.118 0 0 0 .706 2.779-3.53-.694 0 0-2.118 1.389-2.824 4.862-.196.964-1.412 0-1.412-3.473C12.822 7.648 15.646 3.48 22 3.48"/><path fill="#662113" d="M18 17c-.55 0-1-.45-1-1v-1c0-.55.45-1 1-1s1 .45 1 1v1c0 .55-.45 1-1 1m8 0c-.55 0-1-.45-1-1v-1c0-.55.45-1 1-1s1 .45 1 1v1c0 .55-.45 1-1 1"/><path fill="#C1694F" d="M22.75 19.75h-1.5c-.413 0-.75-.337-.75-.75s.337-.75.75-.75h1.5c.413 0 .75.337.75.75s-.337.75-.75.75"/><path fill="#55ACEE" d="M33 33v3h3v-2c0-.341-.035-.674-.09-1H33z"/><path fill="#FFCC4D" d="M34 34h2v2h-2z"/><path fill="#E1E8ED" d="M24.004 36c-1.198-5.146-6.048-9-11.857-9C6.338 27 1.489 30.854.291 36h23.713z"/><path fill="#292F33" d="M22.669 36c-1.173-4.464-5.432-7.778-10.522-7.778-5.089 0-9.349 3.314-10.522 7.778h21.044z"/><path fill="#FFAC33" d="M21.638 36c-1.148-3.937-4.956-6.833-9.49-6.833S3.805 32.063 2.657 36h18.981z"/><path fill="#FFDC5D" d="M18.195 35.049l.103-.063c.767-.467.928-1.538.3-2.182-.467-.48-.993-.909-1.566-1.268-.56-.35-1.158-.621-1.784-.827-.828-.272-1.711.232-1.866 1.092-.119.66.225 1.346.855 1.577.865.318 1.627.827 2.232 1.474.442.472 1.173.533 1.726.197"/><path fill="#9266CC" d="M6.344 14.262l-1.542-.571-.6-2.2c-.079-.29-.343-.491-.644-.491-.3 0-.564.201-.643.491l-.6 2.2-1.542.571c-.262.096-.435.346-.435.625s.173.529.435.625l1.534.568.605 2.414c.074.297.341.506.646.506.306 0 .573-.209.647-.505l.605-2.414 1.534-.568c.262-.096.435-.346.435-.625 0-.28-.173-.53-.435-.626"/><path fill="#5DADEC" d="M11.28 4.634l-2.61-.966-.966-2.61c-.16-.433-.573-.72-1.035-.72-.461 0-.874.287-1.035.72l-.966 2.61-2.609.966c-.434.161-.722.573-.722 1.035 0 .462.287.874.721 1.035l2.609.966.966 2.61c.161.433.575.72 1.035.72.462 0 .875-.287 1.035-.72l.966-2.61 2.61-.966c.433-.161.721-.573.721-1.035 0-.462-.288-.874-.72-1.035"/></svg>