<svg xmlns="http://www.w3.org/2000/svg" viewBox="0 0 36 36"><path fill="#E1E8ED" d="M35 36v-3.5c0-3.314-3.685-5.5-7-5.5H16c-3.313 0-7 2.186-7 5.5V36h26z"/><path fill="#269" d="M18 27h8l-4 9-4-9"/><path fill="#292F33" d="M21.945 5.069c4.105 0 10.947 2.053 10.947 10.947 0 8.896 0 10.948-2.053 10.948s-4.79-2.053-8.895-2.053c-4.105 0-6.785 2.053-8.895 2.053-2.287 0-2.053-8.211-2.053-10.948.001-8.894 6.844-10.947 10.949-10.947"/><path fill="#F7DECE" d="M18.328 27.018c1.466 1.065 2.964.98 3.672.98s2.194.085 3.66-.98v-3.203h-7.332v3.203z"/><path fill="#EEC2AD" d="M18.322 25.179c1.022 1.155 2.29 1.468 3.668 1.468 1.379 0 2.647-.312 3.67-1.468v-2.936h-7.338v2.936z"/><path fill="#F7DECE" d="M13.734 15.718c0-5.834 3.676-10.563 8.211-10.563 4.533 0 8.209 4.729 8.209 10.563 0 5.833-3.676 10.285-8.209 10.285-4.535 0-8.211-4.452-8.211-10.285"/><path fill="#DF1F32" d="M21.945 23.543c-1.606 0-2.447-.794-2.537-.885-.268-.267-.268-.7 0-.967.266-.265.692-.267.961-.007.035.032.551.491 1.576.491 1.038 0 1.555-.473 1.576-.492.273-.256.703-.248.963.02.26.269.26.691-.004.955-.089.091-.929.885-2.535.885"/><path fill="#292F33" d="M11.725 19c-.021-1-.044-.224-.044-.465 0-3.422 2.053.494 2.053-1.943 0-2.439 1.368-2.683 2.736-4.051.685-.685 2.053-2.026 2.053-2.026s3.421 2.067 6.158 2.067c2.736 0 5.474 1.375 5.474 4.112 0 2.736 2.053-1.584 2.053 1.837 0 .244-.022-.531-.04.469h.719c.006-2 .006-1.924.006-3.202 0-8.895-6.842-10.729-10.948-10.729-4.104 0-10.947 1.778-10.947 10.674 0 .793-.02 1.257.008 3.257h.719z"/><path fill="#662113" d="M18.608 17.887c-.465 0-.846-.381-.846-.847v-.845c0-.465.381-.846.846-.846.466 0 .847.381.847.846v.845c0 .466-.381.847-.847.847m6.765 0c-.465 0-.846-.381-.846-.847v-.845c0-.465.381-.846.846-.846.465 0 .846.381.846.846v.845c0 .466-.381.847-.846.847"/><path fill="#C1694F" d="M22.836 20.5h-1.69c-.233 0-.423-.19-.423-.423v-.153c0-.233.189-.424.423-.424h1.69c.233 0 .424.19.424.424v.153c0 .233-.191.423-.424.423"/><path fill="#CCD6DD" d="M32.5 12s-3 1-10.5 1-10.5-1-10.5-1V6h21v6z"/><path fill="#99AAB5" d="M14 11c0 .276-.224.5-.5.5s-.5-.224-.5-.5V8c0-.276.224-.5.5-.5s.5.224.5.5v3zm17 0c0 .276-.224.5-.5.5s-.5-.224-.5-.5V8c0-.276.224-.5.5-.5s.5.224.5.5v3zm-13 .5c0 .276-.224.5-.5.5s-.5-.224-.5-.5v-3c0-.276.224-.5.5-.5s.5.224.5.5v3zm4.5.25c0 .276-.224.5-.5.5s-.5-.224-.5-.5v-3c0-.276.224-.5.5-.5s.5.224.5.5v3zm4.5-.25c0 .276-.224.5-.5.5s-.5-.224-.5-.5v-3c0-.276.224-.5.5-.5s.5.224.5.5v3z"/><path fill="#E1E8ED" d="M28.25 0c-1.157 0-2.237.32-3.167.869C24.153.32 23.073 0 21.916 0c-1.122 0-2.173.3-3.083.818C17.923.3 16.872 0 15.75 0 12.298 0 9.5 2.798 9.5 6.25S20.794 9.5 21.916 9.5c1.157 0 12.584.202 12.584-3.25S31.701 0 28.25 0z"/><path fill="#C1694F" d="M10 24.75C10 28.202 7.985 30 5.5 30S1 28.202 1 24.75s2.015-7.25 4.5-7.25 4.5 3.798 4.5 7.25z"/><path fill="#C1694F" d="M4.5 28h2v8h-2z"/><path d="M15.444 15.936c0 1.448-.734 2.622-1.639 2.622s-1.639-1.174-1.639-2.622.734-2.623 1.639-2.623c.905-.001 1.639 1.174 1.639 2.623m16.389 0c0 1.448-.733 2.622-1.639 2.622-.905 0-1.639-1.174-1.639-2.622s.733-2.623 1.639-2.623c.906-.001 1.639 1.174 1.639 2.623" fill="#F7DECE"/><path fill="#CCD6DD" d="M14.894 4.489c.036.008.071.011.106.011.231 0 .438-.16.488-.394.031-.145.334-1.441 1.319-2.212.76-.595 1.749-.987 2.007-1.084-.396-.225-.824-.4-1.268-.535-.423.21-.914.486-1.355.832-1.236.967-1.617 2.492-1.681 2.788-.057.27.115.536.384.594zm12.157-2.586c.986.772 1.289 2.066 1.319 2.211.051.235.258.395.489.395.034 0 .069-.003.105-.011.27-.058.441-.324.384-.594-.064-.296-.443-1.82-1.681-2.789-.426-.333-.896-.602-1.309-.809-.434.139-.851.317-1.237.542.337.132 1.227.504 1.93 1.055z"/></svg>