<svg xmlns="http://www.w3.org/2000/svg" viewBox="0 0 36 36"><path fill="#E1E8ED" d="M36 36v-2c0-3.313-2.687-6-6-6H14c-3.313 0-6 2.687-6 6v2h28z"/><path fill="#EA596E" d="M29.799 28.127c0 1.36-3.491 2.434-7.799 2.434-4.307 0-7.799-1.06-7.799-2.42 0-.062.015-.141.029-.141h-.734l-.705.099.006 1.017c.114 2.405 4.186 3.392 9.203 3.392 4.996 0 9.054-1.009 9.2-3.414l.014-.974c0 .002-1.415-.055-1.415.007z"/><ellipse fill="#BE1931" cx="22" cy="28.07" rx="9.214" ry="3.439"/><path fill="#292F33" d="M22 30.533c-4.307 0-7.799-1.103-7.799-2.463s3.492-2.463 7.799-2.463 7.799 1.103 7.799 2.463-3.492 2.463-7.799 2.463z"/><path fill="#FFDC5D" d="M17.64 27.937c1.744 1.267 2.848 1.511 4.36 1.511 1.511 0 2.616-.245 4.36-1.511v-3.811h-8.72v3.811z"/><path fill="#F9CA55" d="M17.632 25.973c1.216 1.374 2.724 1.746 4.364 1.746 1.639 0 3.147-.372 4.364-1.746v-3.491h-8.728v3.491z"/><path fill="#FFDC5D" d="M15.444 15.935c0 1.448-.734 2.622-1.639 2.622s-1.639-1.174-1.639-2.622.734-2.623 1.639-2.623c.906.001 1.639 1.175 1.639 2.623zm16.389 0c0 1.448-.734 2.622-1.639 2.622s-1.639-1.174-1.639-2.622.734-2.623 1.639-2.623c.906.001 1.639 1.175 1.639 2.623z"/><path fill="#FFDC5D" d="M13.478 16.96c0-5.589 3.816-10.121 8.522-10.121s8.522 4.531 8.522 10.121c0 5.589-3.816 10.12-8.522 10.12s-8.522-4.531-8.522-10.12z"/><path fill="#C1694F" d="M22 23.802c-2.754 0-3.6-.706-3.741-.848-.256-.256-.256-.671 0-.927.248-.248.645-.255.902-.024.052.038.721.487 2.839.487 2.2 0 2.836-.485 2.842-.49.255-.255.656-.243.913.013.256.256.242.684-.014.94-.141.143-.987.849-3.741.849z"/><path fill="#FFAC33" d="M22 3.479c5.648 0 9.178 4.168 9.178 7.641s-.706 4.863-1.412 3.473l-1.412-2.778s-4.236 0-5.648-1.39c0 0 2.118 4.168-2.118 0 0 0 .706 2.779-3.53-.695 0 0-2.118 1.39-2.824 4.863-.196.963-1.412 0-1.412-3.473S15.646 3.479 22 3.479z"/><path fill="#662113" d="M18 17c-.55 0-1-.45-1-1v-1c0-.55.45-1 1-1s1 .45 1 1v1c0 .55-.45 1-1 1zm8 0c-.55 0-1-.45-1-1v-1c0-.55.45-1 1-1s1 .45 1 1v1c0 .55-.45 1-1 1z"/><path fill="#C1694F" d="M22.75 19.75h-1.5c-.413 0-.75-.337-.75-.75s.337-.75.75-.75h1.5c.413 0 .75.337.75.75s-.337.75-.75.75z"/><path fill="#55ACEE" d="M33 33v3h3v-2c0-.341-.035-.674-.09-1H33z"/><path fill="#FFCC4D" d="M34 34h2v2h-2z"/><path fill="#E1E8ED" d="M24.004 36c-1.198-5.146-6.048-9-11.857-9C6.338 27 1.488 30.854.29 36h23.714z"/><path fill="#292F33" d="M22.669 36c-1.173-4.464-5.432-7.778-10.522-7.778S2.798 31.536 1.625 36h21.044z"/><path fill="#FFAC33" d="M21.637 36c-1.148-3.937-4.956-6.833-9.49-6.833S3.805 32.063 2.657 36h18.98z"/><path fill="#FFDC5D" d="M18.195 35.048l.103-.063c.769-.468.928-1.538.301-2.182-.468-.48-.993-.909-1.566-1.267-.56-.35-1.159-.621-1.785-.827-.828-.273-1.711.233-1.866 1.091-.119.661.224 1.346.855 1.578.865.318 1.627.828 2.231 1.474.443.472 1.174.533 1.727.196z"/><path fill="#9266CC" d="M6.344 14.262l-1.542-.571-.6-2.2c-.079-.29-.343-.491-.643-.491-.301 0-.564.201-.643.492l-.6 2.2-1.542.571c-.262.096-.435.346-.435.625s.173.529.435.625l1.534.568.604 2.415c.074.296.341.504.647.504s.572-.208.647-.505l.604-2.415 1.534-.568c.262-.096.435-.346.435-.625 0-.278-.173-.528-.435-.625z"/><path fill="#5DADEC" d="M11.28 4.634l-2.61-.966-.966-2.61c-.161-.433-.573-.72-1.035-.72-.462 0-.874.287-1.035.72l-.966 2.61-2.61.966c-.433.161-.72.573-.72 1.035 0 .462.287.875.72 1.035l2.61.966.966 2.61c.16.433.573.72 1.035.72.462 0 .875-.287 1.035-.72l.966-2.61 2.61-.966c.433-.161.72-.573.72-1.035 0-.462-.287-.875-.72-1.035z"/></svg>