<svg xmlns="http://www.w3.org/2000/svg" viewBox="0 0 36 36"><path fill="#FFDC5D" d="M21 14c.253 3.89 3.521 6.969 7.5 6.969S35.747 17.89 36 14V4H21v10z"/><path fill="#FFAC33" d="M36 21.752V14c-.253 3.89-3.521 6.969-7.5 6.969S21.253 17.89 21 14V9.663c5.328-.155 8.51-2.343 10.237-4.181C31.652 6.957 32.801 9 36 9V1.9c-.931-.689-2.115-1.093-3.462-1.093-.333 0-.657.034-.974.09C30.393.328 29.39 0 28 0c-4.907 0-9 4.093-9 9v7c.064 2.258.868 4.35 2.182 6L24 24h9l2.818-2c.064-.08.121-.166.182-.248z"/><path fill="#9268CA" d="M35.818 22H21c-2 0-3 1-3 2.973V36h18V22h-.182z"/><path fill="#7450A8" d="M20.986 26h1.028v10h-1.028z"/><path fill="#FFDC5D" d="M26 19v3c0 1.381 1.119 2.5 2.5 2.5S31 23.381 31 22v-3h-5z"/><path fill="#DA2F47" d="M25.27 17.769h6.46s-.808 1.616-3.23 1.616-3.23-1.616-3.23-1.616z"/><path fill="#BF6952" d="M29 15.5h-1c-.276 0-.5-.224-.5-.5s.224-.5.5-.5h1c.276 0 .5.224.5.5s-.224.5-.5.5z"/><path fill="#662113" d="M25 13c-.553 0-1-.448-1-1v-1c0-.552.447-1 1-1s1 .448 1 1v1c0 .552-.447 1-1 1zm7 0c-.553 0-1-.448-1-1v-1c0-.552.447-1 1-1s1 .448 1 1v1c0 .552-.447 1-1 1z"/><path fill="#FFDC5D" d="M0 14c.253 3.89 3.521 6.969 7.5 6.969S14.747 17.89 15 14V4H0v10z"/><path fill="#FFAC33" d="M17 16V6C17 2.878 14.661.808 11.538.808c-.333 0-.657.034-.974.09C9.393.328 8.39 0 7 0 4.195 0 1.661 1.34 0 3.402v6.261c5.328-.155 8.51-2.343 10.237-4.181C10.652 6.957 11.801 9 15 9v5c-.253 3.89-3.521 6.969-7.5 6.969S.253 17.89 0 14v7.752c.061.082.118.168.182.248L3 24h9l2.818-2c1.314-1.65 2.118-3.742 2.182-6z"/><path fill="#9266CC" d="M15 22H0v14h18V24.973C18 23 17 22 15 22z"/><path fill="#7450A8" d="M13.986 26h1.028v10h-1.028z"/><path fill="#FFDC5D" d="M5 19v3c0 1.381 1.119 2.5 2.5 2.5S10 23.381 10 22v-3H5z"/><path fill="#DA2F47" d="M4.269 17.769h6.462s-.808 1.616-3.231 1.616-3.231-1.616-3.231-1.616z"/><path fill="#BF6952" d="M8 15.5H7c-.276 0-.5-.224-.5-.5s.224-.5.5-.5h1c.276 0 .5.224.5.5s-.224.5-.5.5z"/><path fill="#662113" d="M4 13c-.553 0-1-.448-1-1v-1c0-.552.447-1 1-1s1 .448 1 1v1c0 .552-.447 1-1 1zm7 0c-.553 0-1-.448-1-1v-1c0-.552.447-1 1-1s1 .448 1 1v1c0 .552-.447 1-1 1z"/><path fill="#FFDC5D" d="M28.998 34v-3h-4v3h-1v2h6v-2z"/><path fill="#88C9F9" d="M24.998 33h-2c-2.493 0-4.276 1.385-4.814 3h17.632c-.517-1.602-2.159-3-3.818-3h-3l-.466.466L26.998 35l-2-2z"/><path fill="#FFDC5D" d="M32.993 27.04l-.002-.04h.007v-4.286l-4.286-.857-7.714.857V27H21l-.002.04c0 .644.106 1.263.296 1.844.782 2.388 3.038 4.116 5.702 4.116 2.659 0 4.911-1.722 5.697-4.103.192-.585.3-1.208.3-1.857z"/><path fill="#F4900C" d="M33.998 25.125c0-3.383-2.742-6.125-6.125-6.125-.298 0-.588.029-.875.07-.286-.041-.577-.07-.875-.07-3.383 0-6.125 2.742-6.125 6.125 0 1.418.487 2.721 1.296 3.759-.19-.581-.296-1.2-.296-1.844L21 27h-.002v-1.911c4.172-.181 6.588-1.592 7.929-2.91.91 1.074 2.351 2.414 4.071 2.816V27h-.007l.002.04c0 .649-.108 1.272-.301 1.857.816-1.04 1.306-2.348 1.306-3.772z"/><path fill="#BF6952" d="M28.998 30h-4s.389 1.333 2 1.333 2-1.333 2-1.333zm-2-.5c-.13 0-.26-.05-.35-.15-.1-.09-.15-.22-.15-.35s.05-.26.15-.36c.17-.17.52-.18.71.01.09.091.14.221.14.351s-.05.26-.15.35c-.09.099-.22.149-.35.149z"/><path fill="#662113" d="M28.998 28c-.461 0-.833-.373-.833-.833v-.833c0-.461.373-.833.833-.833.461 0 .833.373.833.833v.833c.001.46-.372.833-.833.833zm-4 0c-.461 0-.833-.373-.833-.833v-.833c0-.461.373-.833.833-.833.461 0 .833.373.833.833v.833c.001.46-.372.833-.833.833z"/><path fill="#FFDC5D" d="M10.998 34v-3h-4v3h-1v2h6v-2z"/><path fill="#88C9F9" d="M6.998 33h-2C2.505 33 .722 34.385.184 36h17.632c-.517-1.602-2.159-3-3.818-3h-3l-.466.466L8.998 35l-2-2z"/><path fill="#FFDC5D" d="M14.993 27.04l-.002-.04h.007v-4.286l-4.286-.857-7.714.857V27H3l-.002.04c0 .644.106 1.263.296 1.844C4.076 31.272 6.332 33 8.996 33c2.659 0 4.911-1.722 5.697-4.103.192-.585.3-1.208.3-1.857z"/><path fill="#F4900C" d="M15.998 25.125c0-3.383-2.742-6.125-6.125-6.125-.298 0-.588.029-.875.07-.286-.041-.577-.07-.875-.07-3.383 0-6.125 2.742-6.125 6.125 0 1.418.487 2.721 1.296 3.759-.19-.581-.296-1.2-.296-1.844L3 27h-.002v-1.911c4.172-.181 6.588-1.592 7.929-2.91.91 1.074 2.351 2.414 4.071 2.816V27h-.007l.002.04c0 .649-.108 1.272-.301 1.857.816-1.04 1.306-2.348 1.306-3.772z"/><path fill="#BF6952" d="M10.998 30h-4s.389 1.333 2 1.333 2-1.333 2-1.333zm-2-.5c-.13 0-.26-.05-.35-.15-.1-.09-.15-.22-.15-.35s.05-.26.15-.36c.17-.17.52-.18.71.01.09.091.14.221.14.351s-.05.26-.15.35c-.09.099-.22.149-.35.149z"/><path fill="#662113" d="M10.998 28c-.461 0-.833-.373-.833-.833v-.833c0-.461.373-.833.833-.833.461 0 .833.373.833.833v.833c.001.46-.372.833-.833.833zm-4 0c-.461 0-.833-.373-.833-.833v-.833c0-.461.373-.833.833-.833.461 0 .833.373.833.833v.833c.001.46-.372.833-.833.833z"/></svg>