<svg xmlns="http://www.w3.org/2000/svg" viewBox="0 0 36 36"><path fill="#CCD6DD" d="M34.941 36v-4.488c0-3.314-3.685-5.5-7-5.5h-12c-3.313 0-7 2.186-7 5.5V36h26z"/><path fill="#60352A" d="M21.887 4.081c4.104 0 10.947 2.053 10.947 10.947 0 8.895 0 10.948-2.053 10.948s-4.79-2.053-8.895-2.053c-4.105 0-6.785 2.053-8.895 2.053-2.287 0-2.053-8.211-2.053-10.948 0-8.894 6.843-10.947 10.949-10.947"/><path fill="#AF7E57" d="M18.27 28.49c1.466 1.064 5.866 1.064 7.332 0v-5.664H18.27v5.664z"/><path fill="#9B6A49" d="M18.264 24.19c1.022 1.156 2.29 1.469 3.668 1.469 1.379 0 2.647-.312 3.67-1.469v-2.936h-7.338v2.936z"/><path fill="#AF7E57" d="M13.675 14.729c0-5.834 3.676-10.563 8.211-10.563 4.533 0 8.209 4.73 8.209 10.563s-3.676 10.284-8.209 10.284c-4.534.001-8.211-4.451-8.211-10.284"/><path fill="#DF1F32" d="M21.887 22.555c-1.606 0-2.447-.795-2.537-.885-.268-.268-.268-.701 0-.967.266-.266.692-.268.961-.008.035.033.551.492 1.576.492 1.038 0 1.555-.473 1.576-.492.273-.256.703-.248.963.02s.26.691-.004.955c-.09.09-.93.885-2.535.885"/><path fill="#60352A" d="M11.667 18.012c-.021-1-.044-.224-.044-.465 0-3.422 2.053.494 2.053-1.943 0-2.439 1.368-2.683 2.736-4.051.685-.684 2.053-2.026 2.053-2.026s3.421 2.067 6.158 2.067c2.736 0 5.474 1.375 5.474 4.112 0 2.736 2.053-1.584 2.053 1.837 0 .244-.022-.531-.04.469h.719c.006-2 .006-1.924.006-3.202 0-8.895-6.842-12.207-10.948-12.207-4.104 0-10.947 3.257-10.947 12.152 0 .793-.02 1.257.008 3.257h.719z"/><path fill="#AF7E57" d="M15.386 14.947c0 1.448-.734 2.622-1.639 2.622s-1.639-1.174-1.639-2.622.734-2.623 1.639-2.623 1.639 1.175 1.639 2.623m16.388 0c0 1.448-.733 2.622-1.639 2.622-.905 0-1.639-1.174-1.639-2.622s.733-2.623 1.639-2.623 1.639 1.175 1.639 2.623"/><path fill="#60352A" d="M18.55 16.898c-.465 0-.846-.381-.846-.847v-.845c0-.465.381-.846.846-.846.466 0 .847.381.847.846v.845c-.001.467-.381.847-.847.847m6.765 0c-.465 0-.846-.381-.846-.847v-.845c0-.465.381-.846.846-.846.465 0 .846.381.846.846v.845c-.001.467-.382.847-.846.847"/><path fill="#915A34" d="M22.777 19.512h-1.69c-.233 0-.423-.189-.423-.424v-.152c0-.234.189-.424.423-.424h1.69c.233 0 .424.19.424.424v.152c0 .234-.19.424-.424.424"/><path fill="#66757F" d="M19 36l-1.059-9.219s1.41 1.645 4 1.645 4.219-1.645 4.219-1.645L24.938 36H19z"/><path fill="#F5F8FA" d="M17.941 25.25C18.508 25.816 20.86 36 20.86 36h-3.156L16 33.438l1.704-2.835-2.017-.634.254-3.957s1.729-1.033 2-.762m7.994 0c-.567.566-2.919 10.75-2.919 10.75h3.156l1.704-2.562-1.704-2.835 2.017-.634-.254-3.957s-1.73-1.033-2-.762"/><path opacity=".4" fill="#FFF" d="M14.753 12.75h14.5V18h-14.5z"/><path fill="#F5F8FA" d="M29 12H15c-1 0-1 1-1 1v4c0 1.461 2.333 2 4 2s2.599-1 4-1 2.333 1 4 1 4-.539 4-2v-4c0-1.001-1-1-1-1zm0 4c0 1.325-.852 2-3 2-1.539 0-2.804-1-4-1s-2.461 1-4 1c-2.148 0-3-.675-3-2v-3h14v3z"/><circle fill="#9266CC" cx="7" cy="11" r="1"/><circle fill="#9266CC" cx="9" cy="16" r="1"/><circle fill="#9266CC" cx="5.5" cy="14.5" r="1.5"/><path fill="#A8BCCC" d="M10 18H5s-2 0-2 2 2 2 2 2v5l-4 5c-.883 1.104-1 1.821-1 2 0 2 2 2 2 2h11s2 0 2-2c0-.134.153-.559-1-2l-4-5v-5s2 0 2-2-2-2-2-2z"/><path fill="#E1E8ED" d="M9 27.351V21h1c.449-.012 1-.194 1-1 0-.803-.547-.987-1.008-1H5c-.45.012-1 .194-1 1s.55.988 1.012 1l.975.024L6 27.351l-1.894 2.368 3.394 3.5 3.394-3.5L9 27.351z"/><path fill="#9266CC" d="M.999 34.034c.001.772.551.954 1.013.966H13c.449-.012 1-.194 1-1v-.041l.006-.082c0-.003-.055-.337-.787-1.252l-2.325-2.906H4.106l-2.325 2.906c-.719.899-.782 1.404-.782 1.409z"/></svg>