<svg xmlns="http://www.w3.org/2000/svg" viewBox="0 0 36 36"><path fill="#9266CC" d="M35 36v-7c0-3.315-3.685-5.5-7-5.5H16c-3.313 0-7 2.185-7 5.5v7h26z"/><path fill="#FFE51E" d="M21.944 1.569c4.106 0 10.948 2.053 10.948 10.948s0 10.948-2.053 10.948c-2.054 0-4.79-2.053-8.896-2.053-4.105 0-6.784 2.053-8.895 2.053-2.287 0-2.053-8.211-2.053-10.948.002-8.895 6.844-10.948 10.949-10.948"/><path fill="#F3D2A2" d="M18.328 23.52C18.328 25 20.5 25.5 22 25.5s3.66-.5 3.66-1.98v-3.205h-7.332v3.205z"/><path fill="#E2C196" d="M18.321 21.679c1.023 1.155 2.291 1.468 3.669 1.468 1.379 0 2.647-.312 3.67-1.468v-2.936h-7.339v2.936z"/><path fill="#F3D2A2" d="M13.734 12.217c0-5.834 3.676-10.563 8.21-10.563 4.534 0 8.211 4.729 8.211 10.563 0 5.833-3.677 10.286-8.211 10.286-4.534 0-8.21-4.452-8.21-10.286"/><path fill="#DF1F32" d="M21.944 20.043c-1.605 0-2.446-.794-2.536-.885-.268-.267-.268-.7 0-.967.266-.265.692-.267.96-.007.035.032.553.491 1.576.491 1.039 0 1.557-.473 1.577-.492.273-.256.703-.248.963.02.26.269.26.691-.004.955-.089.091-.929.885-2.536.885"/><path fill="#FFE51E" d="M11.725 15.5c-.021-1-.044-.224-.044-.465 0-3.422 2.053.494 2.053-1.943 0-2.439 1.368-2.683 2.736-4.051.685-.685 2.053-2.026 2.053-2.026s3.421 2.067 6.158 2.067c2.736 0 5.474 1.375 5.474 4.112s2.053-1.584 2.053 1.837c0 .244-.022-.531-.04.469h.718c.007-2 .007-1.924.007-3.202C32.893 3.403 26.05.091 21.945.091S10.998 3.348 10.998 12.243c0 .793-.02 1.257.008 3.257h.719z"/><path fill="#662113" d="M18.608 14.386c-.465 0-.846-.381-.846-.846v-.845c0-.465.381-.846.846-.846s.847.381.847.846v.845c0 .465-.382.846-.847.846m6.765 0c-.465 0-.846-.381-.846-.846v-.845c0-.465.381-.846.846-.846.465 0 .846.381.846.846v.845c0 .465-.381.846-.846.846"/><path fill="#C1694F" d="M22.837 17h-1.691c-.233 0-.423-.19-.423-.423v-.153c0-.233.189-.424.423-.424h1.691c.232 0 .423.19.423.424v.153c0 .233-.191.423-.423.423"/><path fill="#F3D2A2" d="M15.444 13.436c0 1.448-.734 2.622-1.639 2.622s-1.639-1.174-1.639-2.622.734-2.623 1.639-2.623c.905-.001 1.639 1.174 1.639 2.623m16.389 0c0 1.448-.733 2.622-1.639 2.622-.905 0-1.639-1.174-1.639-2.622s.733-2.623 1.639-2.623c.906-.001 1.639 1.174 1.639 2.623"/><path fill="#E1E8ED" d="M33 35c0 .553-.447 1-1 1H22c-.553 0-1-.447-1-1 0-.553.447-1 1-1h10c.553 0 1 .447 1 1z"/><path fill="#E1E8ED" d="M20.24 22H3.759c-1.524 0-3.478.771-2.478 3.531l3.072 8.475C4.354 34.006 4.75 36 7 36h20l-4-11.24c-.438-1.322-1.235-2.76-2.76-2.76z"/><path fill="#99AAB5" d="M19.24 22H2.759c-1.524 0-3.478.771-2.478 3.531l3.072 8.475C3.354 34.006 3.75 36 6 36h20l-4-11.24c-.438-1.322-1.235-2.76-2.76-2.76z"/><path fill="#E1E8ED" d="M14.019 29.283c.524 1.572.1 3.13-.949 3.479-1.047.35-2.322-.641-2.846-2.213s-.099-3.13.949-3.479c1.048-.349 2.323.641 2.846 2.213zM19 24.75H3c-.414 0-.75-.336-.75-.75s.336-.75.75-.75h16c.414 0 .75.336.75.75s-.336.75-.75.75z"/></svg>