<svg xmlns="http://www.w3.org/2000/svg" viewBox="0 0 36 36"><path fill="#77B255" d="M30 28h-3.641v-3.71h-8.72V28H14c-3.313 0-6 2.686-6 6v2h28v-2c0-3.314-2.685-6-6-6z"/><path fill="#F9CA55" d="M17.632 25.973c1.216 1.374 2.724 1.746 4.364 1.746 1.639 0 3.147-.372 4.364-1.746v-3.491h-8.728v3.491z"/><path fill="#FFDC5D" d="M15.444 15.935c0 1.448-.734 2.622-1.639 2.622s-1.639-1.174-1.639-2.622.734-2.623 1.639-2.623c.906.001 1.639 1.175 1.639 2.623zm16.389 0c0 1.448-.734 2.622-1.639 2.622s-1.639-1.174-1.639-2.622.734-2.623 1.639-2.623c.906.001 1.639 1.175 1.639 2.623z"/><path fill="#FFDC5D" d="M13.478 16.96c0-5.589 3.816-10.121 8.522-10.121s8.522 4.531 8.522 10.121c0 5.589-3.816 10.12-8.522 10.12s-8.522-4.531-8.522-10.12z"/><path fill="#FFAC33" d="M26.524 21.346l-1.267-.275c-.404-.093-1.173-.071-1.535-.071h-3.689c-.362 0-1.131-.022-1.536.071l-1.267.275c-.348.1-.55.392-.45.74.082.288.345.44.63.44.06 0 .12-.026.181-.043l1.266-.37c-.142.192-.18.447-.066.675.115.23.346.36.587.36.098 0 .198-.024.293-.07l1.034-.517c.024.214.14.413.347.516.094.047.194.069.293.069.241 0 .472-.133.587-.362l.068-.138-.053.138c.115.23.224.362.465.362.098 0 .198-.022.293-.069.207-.103.323-.303.347-.516l1.034.517c.094.047.194.07.293.07.241 0 .472-.13.587-.36.114-.229.076-.483-.066-.675l1.266.37c.06.017.121.043.181.043.285 0 .548-.152.63-.44.097-.348-.105-.64-.453-.74zM22 3.479c5.648 0 9.178 4.168 9.178 7.641s-.706 4.863-1.412 3.473l-1.412-2.778s-4.236 0-5.648-1.39c0 0 2.118 4.168-2.118 0 0 0 .706 2.779-3.53-.695 0 0-2.118 1.39-2.824 4.863-.196.963-1.412 0-1.412-3.473S15.646 3.479 22 3.479z"/><path fill="#662113" d="M18 17c-.55 0-1-.45-1-1v-1c0-.55.45-1 1-1s1 .45 1 1v1c0 .55-.45 1-1 1zm8 0c-.55 0-1-.45-1-1v-1c0-.55.45-1 1-1s1 .45 1 1v1c0 .55-.45 1-1 1z"/><path fill="#C1694F" d="M22.75 19.75h-1.5c-.413 0-.75-.337-.75-.75s.337-.75.75-.75h1.5c.413 0 .75.337.75.75s-.337.75-.75.75z"/><path fill="#66757F" d="M33.015 6.385c-.439-2.026-3.627-3.888-8.267-4.105.346-.222.672-.402.924-.48.72-.224-.218-.917-.917-.917 0 0-1.092.505-1.93 1.41C16.069 2.641 10.832 6.344 11 7.302c.175 1.004 1.232-.01 1.273.845.04.855.938.938.938.938s2.44-.401 7.949.051c5.51.451 8.503.507 9.919.888.872.235 1.006-1.106 1.006-1.106s1.44-.168.93-2.533z"/><path fill="#D99E82" d="M27.47 36c-.279-3.867-4.091-7.954-9.64-9.879-6.703-2.325-13.384-.613-14.923 3.823-.672 1.936-.252 4.071.989 6.056H27.47z"/><ellipse transform="rotate(-70.866 21.804 32.082)" fill="#5C913B" cx="21.805" cy="32.083" rx="1.654" ry="2.141"/><ellipse transform="rotate(-70.866 7.424 33.701)" fill="#269" cx="7.424" cy="33.703" rx="1.654" ry="2.141"/><ellipse transform="rotate(-70.866 9.272 28.72)" fill="#DD2E44" cx="9.272" cy="28.722" rx="1.654" ry="2.141"/><ellipse transform="rotate(-72.681 16.32 28.641)" fill="#FFCC4D" cx="16.32" cy="28.642" rx="1.654" ry="2.141"/><path fill="#FFDC5D" d="M1 30c.078-1.208 1.394-3.184 3-3 1.665.19.129 3.129 0 4s.144 2.938-1 3c-1.546.084-2.14-1.814-2-4z"/></svg>