<svg xmlns="http://www.w3.org/2000/svg" viewBox="0 0 36 36"><path fill="#2A6797" d="M32 36.001V35c0-4-3.685-7-7-7H11c-3.313 0-7 3-7 7v1.001h28z"/><ellipse fill="#2A6797" cx="18.003" cy="7.501" rx="12" ry="7.5"/><path fill="#D4AB88" d="M13.64 28.101s2.848 1.963 4.36 1.963c1.512 0 4.359-1.963 4.359-1.963V24.29h-8.72v3.811z"/><path fill="#CC9B7A" d="M13.632 25.702c1.216 1.374 2.724 1.746 4.364 1.746 1.639 0 3.146-.373 4.363-1.746v-3.491h-8.728v3.491z"/><path fill="#963B22" d="M9.002 8.5c-.372.702-1.092 1.47-1.193 2.288-.425 3.448.522 5.05.86 7.643.382 2.938 1.961 3.878 3.224 4.271 1.816 2.51 3.747 2.402 6.989 2.402 6.331 0 9.088-4.491 9.355-12.016.061-1.722-.379-3.224-1.058-4.587H9.002z"/><path fill="#D4AB88" d="M25.16 13.47c-.613-.887-1.397-1.602-3.116-1.854.645.309 1.263 1.377 1.343 1.967.081.59.161 1.068-.349.478-2.045-2.364-4.271-1.433-6.478-2.877-1.541-1.009-2.011-2.124-2.011-2.124s-.188 1.489-2.525 3.007c-.677.44-1.486 1.419-1.934 2.866-.322 1.04-.222 1.967-.222 3.551 0 4.625 3.644 8.514 8.14 8.514s8.14-3.923 8.14-8.514c-.002-2.879-.29-4.003-.988-5.014z"/><path fill="#C1694F" d="M18 24.467c-2.754 0-3.6-.705-3.741-.848-.256-.256-.256-.671 0-.927.248-.248.646-.255.902-.023.052.037.721.487 2.839.487 2.2 0 2.836-.485 2.842-.49.256-.255.657-.243.913.015.256.256.242.683-.014.938-.141.143-.987.848-3.741.848m.904-3.62h-1.809c-.25 0-.452-.212-.452-.473s.202-.473.452-.473h1.809c.25 0 .452.212.452.473.001.261-.202.473-.452.473z"/><path fill="#662113" d="M14.382 17.536c-.499 0-.904-.424-.904-.946v-.946c0-.522.405-.946.904-.946s.904.424.904.946v.946c.001.522-.404.946-.904.946zm7.236 0c-.499 0-.904-.424-.904-.946v-.946c0-.522.405-.946.904-.946s.904.424.904.946v.946c0 .522-.405.946-.904.946z"/><path fill="#2A6797" d="M8.5 8v1c0 1.105 4.253 2 9.5 2s9.5-.895 9.5-2V8h-19z"/><path fill="#4289C1" d="M27.001 8V6S23.251 3.75 18 3.75C12.752 3.75 9.002 6 9.002 6v2h17.999z"/><path fill="#FDCB58" d="M27.5 8h-19c-.275 0-.5.225-.5.5s.225.5.5.5h19c.275 0 .5-.225.5-.5s-.225-.5-.5-.5z"/><path fill="#193D59" d="M19.947 32.277c.886.622 1.812 1.245 2.147 1.379.018.007.016-.11.012-.114-1.958-2.292-4.084-3.534-4.084-3.534l.013-.009-.014.001h-.03l.011.008s-2.09 1.225-4.035 3.48c.013.103.037.158.076.137.297-.16 1.175-.766 2.03-1.368.039.112.078.213.112.275.156.281.528.906.528.906s-.753.562-1.035 2.563h4.667c-.281-1.595-1.031-2.563-1.031-2.563s.375-.625.531-.906c.031-.059.066-.151.102-.255z"/><path fill="#4289C1" d="M18.001 30.008s-.01-.006-.011-.008c-.124-.084-4.14-2.817-4.698-3.375-.271-.271-.97.905-.958 1.208.041 1.084 1.386 5.939 1.583 5.709l.049-.054c1.945-2.256 4.035-3.48 4.035-3.48zm.02 0s2.126 1.242 4.084 3.534c.004.005.011-.005.016-.005.237.029 1.527-4.642 1.567-5.704.012-.303-.688-1.479-.958-1.208-.557.557-4.56 3.282-4.696 3.374l-.013.009z"/><path fill="#1E4B6E" d="M18.016 30.688c-.562.031-1.452.941-1.359 1.328.427 1.785.779 1.312 1.391 1.312.542 0 .93.437 1.391-1.391.12-.478-1.034-1.272-1.423-1.249zm.026 3.145c-1.477 0-2.019 2.167-2.019 2.167h4.023c.001 0-.527-2.167-2.004-2.167z"/><path fill="#FDCB58" d="M20.25 1.501h-.002c-.233.001-.433.114-.57.282-.281.069-.667.084-1.157-.071-.136-.129-.318-.211-.521-.211-.201 0-.384.082-.519.212-.491.155-.877.14-1.157.071-.138-.168-.338-.282-.571-.282h-.002c-.415 0-.75.335-.75.75 0 .414.335.75.75.75h.002c0 3 1.498 3.75 2.247 3.75.751 0 2.248-.75 2.248-3.75h.002c.416 0 .751-.336.751-.75 0-.416-.335-.751-.751-.751z"/><path fill="#4289C1" d="M11.51 29.389l-5.738 1.754c-.263.08-.544-.068-.625-.332l-.293-.957c-.08-.262.069-.543.332-.624l5.738-1.754c.263-.08.544.069.624.331l.292.957c.083.263-.067.543-.33.625"/><circle fill="#FFF" cx="10.55" cy="28.616" r=".576"/><path fill="#4289C1" d="M24.502 29.389l5.738 1.754c.264.08.544-.068.625-.332l.293-.957c.08-.262-.069-.543-.332-.624l-5.739-1.754c-.263-.08-.544.069-.624.331l-.292.957c-.081.263.068.543.331.625"/><circle fill="#FFF" cx="25.268" cy="28.589" r=".576"/></svg>