<svg xmlns="http://www.w3.org/2000/svg" viewBox="0 0 36 36"><path fill="#F3D2A2" d="M6 20c0 2.209-1.119 4-2.5 4S1 22.209 1 20s1.119-4 2.5-4S6 17.791 6 20zm29 0c0 2.209-1.119 4-2.5 4S30 22.209 30 20s1.119-4 2.5-4 2.5 1.791 2.5 4z"/><path fill="#F3D2A2" d="M4 20.562c0-8.526 6.268-15.438 14-15.438s14 6.912 14 15.438S25.732 35 18 35 4 29.088 4 20.562z"/><path fill="#662113" d="M12 22c-.552 0-1-.447-1-1v-2c0-.552.448-1 1-1s1 .448 1 1v2c0 .553-.448 1-1 1zm12 0c-.553 0-1-.447-1-1v-2c0-.552.447-1 1-1s1 .448 1 1v2c0 .553-.447 1-1 1z"/><path fill="#C1694F" d="M18 30c-4.188 0-6.357-1.06-6.447-1.105-.494-.247-.694-.848-.447-1.342.247-.492.843-.692 1.337-.449.051.024 1.925.896 5.557.896 3.665 0 5.54-.888 5.559-.897.496-.241 1.094-.034 1.336.457.243.493.045 1.089-.447 1.335C24.356 28.94 22.188 30 18 30zm1-5h-2c-.552 0-1-.447-1-1s.448-1 1-1h2c.553 0 1 .447 1 1s-.447 1-1 1z"/><path fill="#FFE51E" d="M18 .354C8.77.354 3 6.816 3 12.2c0 5.385 1.154 7.539 2.308 5.385l2.308-4.308s3.791-.124 6.099-2.278c0 0-1.071 4 6.594.124 0 0-.166 3.876 5.191-.124 0 0 4.039 1.201 5.191 6.586.32 1.494 2.309 0 2.309-5.385C33 6.816 28.385.354 18 .354z"/></svg>