<svg xmlns="http://www.w3.org/2000/svg" viewBox="0 0 36 36"><path fill="#CCD6DD" d="M36 36v-4c0-3.314-2.686-6-6-6H14c-3.313 0-6 2.686-6 6v4h28z"/><path fill="#FFDC5D" d="M18 27l4 4 4-4v-5h-8z"/><path fill="#F9CA55" d="M18 24c1.216 1.374 2.355 1.719 3.996 1.719 1.639 0 2.787-.346 4.004-1.719v-4h-8v4z"/><path fill="#FFDC5D" d="M15.444 13.936c0 1.448-.734 2.622-1.639 2.622s-1.639-1.174-1.639-2.622.734-2.623 1.639-2.623c.905-.001 1.639 1.174 1.639 2.623m16.389 0c0 1.448-.733 2.622-1.639 2.622-.905 0-1.639-1.174-1.639-2.622s.733-2.623 1.639-2.623c.906-.001 1.639 1.174 1.639 2.623"/><path fill="#FFDC5D" d="M13.477 14.96c0-5.589 3.816-10.121 8.523-10.121s8.522 4.532 8.522 10.121S26.707 25.081 22 25.081c-4.706-.001-8.523-4.532-8.523-10.121"/><path fill="#C1694F" d="M22 21.802c-2.754 0-3.6-.705-3.741-.848-.256-.256-.256-.671 0-.927.248-.248.646-.255.902-.023.052.037.721.487 2.839.487 2.2 0 2.836-.485 2.842-.49.256-.255.657-.243.913.015.256.256.242.683-.014.938-.141.143-.987.848-3.741.848"/><path fill="#FFAC33" d="M22 1.48c5.648 0 9.178 4.168 9.178 7.641s-.706 4.863-1.412 3.473l-1.412-2.778s-4.235 0-5.647-1.39c0 0 2.118 4.168-2.118 0 0 0 .706 2.779-3.53-.694 0 0-2.118 1.389-2.824 4.862-.196.964-1.412 0-1.412-3.473C12.822 5.648 15.646 1.48 22 1.48"/><path fill="#662113" d="M18 15c-.55 0-1-.45-1-1v-1c0-.55.45-1 1-1s1 .45 1 1v1c0 .55-.45 1-1 1m8 0c-.55 0-1-.45-1-1v-1c0-.55.45-1 1-1s1 .45 1 1v1c0 .55-.45 1-1 1"/><path fill="#C1694F" d="M22.75 17.75h-1.5c-.413 0-.75-.337-.75-.75s.337-.75.75-.75h1.5c.413 0 .75.337.75.75s-.337.75-.75.75"/><path fill="#66757F" d="M19.059 36L18 26.781s1.41 1.645 4 1.645 4.219-1.645 4.219-1.645L24.996 36h-5.937z"/><path fill="#F5F8FA" d="M18.081 25.25C18.647 25.816 21 36 21 36h-3.156l-1.704-2.562 1.704-2.835-2.017-.634.254-3.957s1.729-1.033 2-.762m7.838 0C25.353 25.816 23 36 23 36h3.156l1.704-2.562-1.704-2.835 2.017-.634-.254-3.957s-1.729-1.033-2-.762"/><path opacity=".4" fill="#FFF" d="M14.753 10.75h14.5V16h-14.5z"/><path fill="#F5F8FA" d="M29 10H15c-1 0-1 1-1 1v4c0 1.461 2.333 2 4 2s2.599-1 4-1 2.333 1 4 1 4-.539 4-2v-4c0-1-1-1-1-1zm0 4c0 1.325-.852 2-3 2-1.539 0-2.804-1-4-1s-2.461 1-4 1c-2.148 0-3-.675-3-2v-3h14v3z"/><circle fill="#9266CC" cx="7" cy="11" r="1"/><circle fill="#9266CC" cx="9" cy="16" r="1"/><circle fill="#9266CC" cx="5.5" cy="14.5" r="1.5"/><path fill="#A8BCCC" d="M10 18H5s-2 0-2 2 2 2 2 2v5l-4 5c-.883 1.104-1 1.821-1 2 0 2 2 2 2 2h11s2 0 2-2c0-.134.153-.559-1-2l-4-5v-5s2 0 2-2-2-2-2-2z"/><path fill="#E1E8ED" d="M9 27.351V21h1c.449-.012 1-.194 1-1 0-.803-.547-.987-1.008-1H5c-.45.012-1 .194-1 1s.55.988 1.012 1l.975.024L6 27.351l-1.894 2.368 3.394 3.5 3.394-3.5L9 27.351z"/><path fill="#9266CC" d="M.999 34.034c.001.772.551.954 1.013.966H13c.449-.012 1-.194 1-1v-.041l.006-.082c0-.003-.055-.337-.787-1.252l-2.325-2.906H4.106l-2.325 2.906c-.719.899-.782 1.404-.782 1.409z"/></svg>