<svg xmlns="http://www.w3.org/2000/svg" viewBox="0 0 36 36"><path fill="#F2D1A1" d="M13.6 26h16v10h-16z"/><path fill="#292F33" d="M29.6 26v10h6v-4c0-3.314-2.685-6-6-6zm-16 0c-3.313 0-6 2.686-6 6v4h6V26z"/><path fill="#8CC6EB" d="M21.783 36h9.001l5.083-6.925s-3.333-3.729-9.771-4.95c0 1.304.988 3.337.988 3.337l-5.301 7.006V36z"/><path fill="#8CC6EB" d="M21.783 36h-9.001l-5.083-6.925s3.333-3.729 9.771-4.95c0 1.304-.988 3.337-.988 3.337l5.301 7.006V36z"/><path fill="#1D6398" d="M33.534 27.094s-2.453-1.665-4.656-2.447c-3.058-1.086-2.375 1.939-2.375 1.939s-3.82 6.429-4.72 7.883c0-.001 7.034-5.535 11.751-7.375zm-23.502 0s2.453-1.665 4.656-2.447c3.058-1.086 2.375 1.939 2.375 1.939s3.82 6.429 4.72 7.883c0-.001-7.035-5.535-11.751-7.375z"/><path fill="#4191CE" d="M21.784 34.563s7.333-7.479 12.125-8.354c-4.083-3.417-10.125-3.042-10.125-3.042 0 1.224 1.988 1.368 1.988 2.882 0 2.485-3.09 6.703-3.989 8.067l.001.447z"/><path fill="#4191CE" d="M21.782 34.563s-7.333-7.479-12.125-8.354c4.083-3.417 10.125-3.042 10.125-3.042 0 1.224-1.988 1.368-1.988 2.882 0 2.485 3.09 6.703 3.989 8.067l-.001.447z"/><path fill="#F2D1A1" d="M17.782 26s.5 3.5 4 3.5 4-3.5 4-3.5v-4h-8v4z"/><path fill="#E0BF94" d="M17.782 24c1.216 1.374 2.355 1.719 3.996 1.719 1.639 0 2.787-.346 4.004-1.719v-1.625h-8V24z"/><path fill="#F2D1A1" d="M30.057 12.577c.132-.625.214-1.508.214-2.634 0-3.212-3.264-7.067-8.489-7.067-5.877 0-8.489 3.855-8.489 7.067 0 .54.04.991.094 1.402-.809.16-1.438 1.253-1.438 2.591 0 1.33.621 2.417 1.423 2.587.077.59.199 1.163.358 1.714.044.152.096.298.146.447.228.683.51 1.332.851 1.932.197.346.415.672.645.987 1.559 2.127 3.848 3.477 6.411 3.477 4.707 0 8.523-4.531 8.523-10.121-.002-.822-.093-1.617-.249-2.382z"/><path fill="#DD2F45" d="M19.452 13.913l2.581-3.69-4.362-1.775-3.943 9.789c.044.152.096.298.146.447l1.963-.805-1.113 2.738c.197.346.415.672.645.987l6.879-8.304-2.796.613z"/><path fill="#C1694F" d="M21.782 21.802c-2.754 0-3.6-.705-3.741-.848-.256-.256-.256-.671 0-.927.248-.248.646-.255.902-.023.052.037.721.487 2.839.487 2.2 0 2.836-.485 2.842-.49.256-.255.657-.243.913.015.256.256.242.683-.014.938-.142.143-.987.848-3.741.848m.75-4.052h-1.5c-.413 0-.75-.337-.75-.75s.337-.75.75-.75h1.5c.413 0 .75.337.75.75s-.337.75-.75.75"/><path fill="#662213" d="M25.782 15c-.55 0-1-.45-1-1v-1c0-.55.45-1 1-1s1 .45 1 1v1c0 .55-.451 1-1 1m-8 0c-.55 0-1-.45-1-1v-1c0-.55.45-1 1-1s1 .45 1 1v1c0 .55-.451 1-1 1"/><path fill="#88C9F9" d="M31.492 8.021c.36.066.776.114 1.139.074-.602-.43-1.421-1.148-1.967-1.641-2.314-3.621-6.343-4.974-9.12-4.974-2.246 0-5.708 1.133-7.628 3.316S13.85 10 15.735 10.763c-.175-.924-.348-2.163-.194-3.17 1.022 1.039 2.682 2.078 5.319 2.574.391.122 1.878.647 3.063 1.885-.037-.761-.313-1.301-.529-1.616.295.012.574.034.887.034 2.285 0 3.816.985 4.446 2.888-.034.512-.19 1.771-.906 2.958.762-.248 1.185-.705 1.374-.96.494 1.429 1.717 2.622 1.717 2.622.562-3.938 2.094-4.135 1.226-7.964-.162-.719-.385-1.378-.646-1.993z"/><path fill="#424143" d="M10.363 20c-1.695 0-3.069 1.374-3.069 3.07 0 .478.119.925.314 1.328l-.232-.232c-.347-.347-.89-.327-1.212.045L.676 30.433c-.544.628-.798 1.643.011 2.452.809.809 1.807.574 2.454.013l.892-.815V36h1.784v-5.546l3.443-3.146c.372-.323.393-.865.045-1.211l-.271-.271c.404.196.851.315 1.33.315 1.696 0 3.07-1.374 3.07-3.07C13.433 21.374 12.058 20 10.363 20z"/><path fill="#59595C" d="M12.011 26.035c-.15.15-.393.15-.543 0l-4.07-4.07c-.15-.15-.15-.392 0-.542l.543-.543c.15-.15.393-.15.543 0l4.07 4.07c.15.15.15.393 0 .543l-.543.542z"/></svg>