<svg xmlns="http://www.w3.org/2000/svg" viewBox="0 0 36 36"><path fill="#E1E8ED" d="M35 36v-3.5c0-2.486-2.073-4.337-4.508-5.107-.409-.129-17.117.044-17.117.044C10.998 28.232 9 30.06 9 32.5V36h26z"/><path fill="#EA596E" d="M29.799 27.127c0 1.36-3.491 2.434-7.799 2.434s-7.798-1.06-7.798-2.42c0-.062-1.41-.042-1.41-.042l.005 1.019c.114 2.405 4.186 3.392 9.204 3.392 4.997 0 9.054-1.009 9.199-3.413l.015-.974c-.001-.001-1.416-.058-1.416.004z"/><path fill="#BE1931" d="M22 23.632c-5.089 0-9.214 1.539-9.214 3.438 0 1.899 4.125 3.439 9.214 3.439s9.214-1.54 9.214-3.439-4.125-3.438-9.214-3.438"/><path fill="#292F33" d="M22 29.533c-4.307 0-7.799-1.104-7.799-2.464 0-1.359 3.492-2.463 7.799-2.463s7.799 1.104 7.799 2.463c0 1.361-3.492 2.464-7.799 2.464"/><path fill="#292F33" d="M21.944 5.069c4.106 0 10.948 2.053 10.948 10.948s0 10.948-2.053 10.948c-2.054 0-4.152-2.053-8.896-2.053-4.105 0-6.784 2.053-8.895 2.053-2.287 0-2.053-8.211-2.053-10.948.002-8.895 6.844-10.948 10.949-10.948"/><path fill="#F7DECE" d="M18.328 27.02c1.466 1.065 2.964 1.207 3.672 1.207s2.194-.142 3.66-1.207v-3.205h-7.332v3.205z"/><path fill="#EEC2AD" d="M18.321 25.179c1.023 1.155 2.291 1.468 3.669 1.468 1.379 0 2.647-.312 3.67-1.468v-2.936h-7.339v2.936z"/><path fill="#F7DECE" d="M13.734 15.717c0-5.834 3.676-10.563 8.21-10.563 4.534 0 8.211 4.729 8.211 10.563 0 5.833-3.677 10.286-8.211 10.286-4.534 0-8.21-4.452-8.21-10.286"/><path fill="#DF1F32" d="M21.944 23.543c-1.605 0-2.446-.794-2.536-.885-.268-.267-.268-.7 0-.967.266-.265.692-.267.96-.007.035.032.553.491 1.576.491 1.039 0 1.557-.473 1.577-.492.273-.256.703-.248.963.02.26.269.26.691-.004.955-.089.091-.929.885-2.536.885"/><path fill="#292F33" d="M11.725 19c-.021-1-.044-.224-.044-.465 0-3.422 2.053.494 2.053-1.943 0-2.439 1.368-2.683 2.736-4.051.685-.685 2.053-2.026 2.053-2.026s3.421 2.067 6.158 2.067c2.736 0 5.474 1.375 5.474 4.112s2.053-1.584 2.053 1.837c0 .244-.022-.531-.04.469h.718c.007-2 .007-1.924.007-3.202 0-8.895-6.843-12.207-10.948-12.207S10.998 6.848 10.998 15.743c0 .793-.02 1.257.008 3.257h.719z"/><path fill="#60352A" d="M18.608 17.886c-.465 0-.846-.381-.846-.846v-.845c0-.465.381-.846.846-.846s.847.381.847.846v.845c0 .465-.382.846-.847.846m6.765 0c-.465 0-.846-.381-.846-.846v-.845c0-.465.381-.846.846-.846.465 0 .846.381.846.846v.845c0 .465-.381.846-.846.846"/><path fill="#C1694F" d="M22.837 20.5h-1.691c-.233 0-.423-.19-.423-.423v-.153c0-.233.189-.424.423-.424h1.691c.232 0 .423.19.423.424v.153c0 .233-.191.423-.423.423"/><path fill="#55ACEE" d="M32 33h3v3h-3z"/><path fill="#FFCC4D" d="M33 34h2v2h-2z"/><path fill="#E1E8ED" d="M24.004 36c-1.198-5.146-6.048-9-11.857-9C6.338 27 1.489 30.854.291 36h23.713z"/><path fill="#292F33" d="M22.669 36c-1.173-4.464-5.432-7.778-10.522-7.778-5.089 0-9.349 3.314-10.522 7.778h21.044z"/><path fill="#FFAC33" d="M21.638 36c-1.148-3.937-4.956-6.833-9.49-6.833S3.805 32.063 2.657 36h18.981z"/><path fill="#FFDC5D" d="M18.195 35.049l.103-.063c.767-.467.928-1.538.3-2.182-.467-.48-.993-.909-1.566-1.268-.56-.35-1.158-.621-1.784-.827-.828-.272-1.711.232-1.866 1.092-.119.66.225 1.346.855 1.577.865.318 1.627.827 2.232 1.474.442.472 1.173.533 1.726.197"/><path fill="#9266CC" d="M6.344 14.262l-1.542-.571-.6-2.2c-.079-.29-.343-.491-.644-.491-.3 0-.564.201-.643.491l-.6 2.2-1.542.571c-.262.096-.435.346-.435.625s.173.529.435.625l1.534.568.605 2.414c.074.297.341.506.646.506.306 0 .573-.209.647-.505l.605-2.414 1.534-.568c.262-.096.435-.346.435-.625 0-.28-.173-.53-.435-.626"/><path fill="#5DADEC" d="M11.28 4.634l-2.61-.966-.966-2.61c-.16-.433-.573-.72-1.035-.72-.461 0-.874.287-1.035.72l-.966 2.61-2.609.966c-.434.161-.722.573-.722 1.035 0 .462.287.874.721 1.035l2.609.966.966 2.61c.161.433.575.72 1.035.72.462 0 .875-.287 1.035-.72l.966-2.61 2.61-.966c.433-.161.721-.573.721-1.035 0-.462-.288-.874-.72-1.035"/></svg>