<svg xmlns="http://www.w3.org/2000/svg" viewBox="0 0 36 36"><path fill="#7C533E" d="M5 8.042c6.626 0 12 5.373 12 12 0 6.626-5.374 12-12 12-1.787 0-3.476-.401-5-1.102V9.143c1.524-.7 3.213-1.101 5-1.101z"/><path fill="#0B0200" d="M15.333 15.042c-.055.06-.128.115-.197.171-.72.716-1.753 1.477-3.219 2.036-3.691 1.407-9.121.297-9.121.297s.748-1.198 2.101-2.492c-1.809.549-3.463 1.359-4.897 2.371v-9.25c1.81-.903 3.843-1.425 6-1.428 6.508-.008 9.915 3.393 10.059 6.135.176.085.352.168.531.265 0 0-.237.641-.902 1.459-.077.094-.161.191-.249.29-.038.047-.064.1-.106.146z"/><path d="M10 21.542c1.411 0 1.497-1.251 1.5-1.503.001-.274.225-.497.5-.497.276 0 .5.224.5.5 0 .864-.523 2.5-2.5 2.5-.276 0-.5-.224-.5-.5 0-.277.224-.5.5-.5zm-5 0c1.411 0 1.497-1.251 1.5-1.503.001-.274.225-.497.5-.497.276 0 .5.224.5.5 0 .864-.523 2.5-2.5 2.5-.276 0-.5-.224-.5-.5 0-.277.224-.5.5-.5z"/><path fill="#3D2E24" d="M9.995 25.542c-.273-.003-.495-.226-.495-.5 0-.276.224-.5.5-.5.602 0 1.5.399 1.5 1.5 0 .438-.143.765-.352 1 .209.235.352.562.352 1 0 1.101-.898 1.5-1.5 1.5-.273 0-.493-.22-.496-.494-.004-.273.217-.499.49-.506.231-.006.506-.098.506-.5s-.275-.494-.5-.5h-.011c-.272-.006-.489-.228-.489-.5 0-.274.222-.497.495-.5.23-.006.505-.098.505-.5 0-.403-.274-.494-.505-.5z"/><path fill="#F3D2A2" d="M31 8.042c-6.626 0-12 5.373-12 12 0 6.626 5.374 12 12 12 1.787 0 3.476-.401 5-1.102V9.143c-1.524-.7-3.213-1.101-5-1.101z"/><path fill="#FFE51E" d="M20.667 15.042c.055.06.128.115.197.171.72.716 1.753 1.477 3.219 2.036 3.691 1.407 9.121.297 9.121.297s-.748-1.198-2.101-2.492c1.809.549 3.463 1.358 4.897 2.371v-9.25c-1.81-.904-3.843-1.426-6-1.429-6.508-.008-9.915 3.393-10.059 6.135-.176.085-.352.168-.531.265 0 0 .237.641.902 1.459.077.094.161.191.249.29.038.048.064.101.106.147z"/><path fill="#662113" d="M26 21.542c-1.411 0-1.497-1.251-1.5-1.503-.001-.274-.225-.497-.5-.497-.276 0-.5.224-.5.5 0 .864.523 2.5 2.5 2.5.276 0 .5-.224.5-.5 0-.277-.224-.5-.5-.5zm5 0c-1.411 0-1.497-1.251-1.5-1.503-.001-.274-.225-.497-.5-.497-.276 0-.5.224-.5.5 0 .864.523 2.5 2.5 2.5.276 0 .5-.224.5-.5 0-.277-.224-.5-.5-.5z"/><path fill="#C1694F" d="M26.005 25.542c.273-.003.495-.226.495-.5 0-.276-.224-.5-.5-.5-.602 0-1.5.399-1.5 1.5 0 .438.143.765.352 1-.209.235-.352.562-.352 1 0 1.101.898 1.5 1.5 1.5.273 0 .493-.22.496-.494.004-.273-.217-.499-.49-.506-.231-.006-.506-.098-.506-.5s.275-.494.5-.5h.011c.272-.006.489-.228.489-.5 0-.274-.222-.497-.495-.5-.23-.006-.505-.098-.505-.5 0-.403.274-.494.505-.5z"/><path fill="#DD2E44" d="M26.539 4.711c0-2.602-2.11-4.711-4.711-4.711C20.249 0 18.855.78 18 1.972 17.144.78 15.751 0 14.172 0c-2.601 0-4.711 2.109-4.711 4.711 0 .369.047.727.127 1.07.654 4.065 5.173 8.353 8.411 9.529 3.238-1.177 7.758-5.465 8.412-9.528.081-.344.128-.702.128-1.071z"/></svg>