<svg xmlns="http://www.w3.org/2000/svg" viewBox="0 0 36 36"><path fill="#FFDC5D" d="M15.438 22v-3h5v3h1.861v6h-9v-6z"/><path fill="#3B93D9" d="M25.472 22h-5L18 25.778 15.438 22H9.472c-1.779 0-1.945 1.193-1.945 2.973V36h20.945V24.973c0-1.973-1-2.973-3-2.973z"/><path fill="#1B6399" d="M23.486 26h1.028v10h-1.028zm-12 0h1.028v10h-1.028z"/><path fill="#FFDC5D" d="M25.438 14V5l-15-1v10h.024c.252 3.89 3.498 6.969 7.476 6.969 3.806 0 6.957-2.822 7.443-6.473.022-.165.046-.329.057-.496z"/><path fill="#FFAC33" d="M25.381 14.495c1.197-1.511 1.917-3.418 1.917-5.495 0-4.893-3.967-8.861-8.861-8.861-1.328 0-2.582.301-3.713.825.11-.007.379-.013.517-.017-3.916.032-7.082 3.213-7.082 7.137 0 2.058.884 3.898 2.278 5.199V10c6.07 0 9.549-2.576 11.356-4.603.491 1.542 1.565 3.883 3.644 4.466V14c-.01.167-.034.331-.056.495z"/><path fill="#BF6952" d="M21.16 17.723h-6.444s.805 1.61 3.222 1.61 3.222-1.61 3.222-1.61zM18.438 15.5h-1c-.276 0-.5-.224-.5-.5s.224-.5.5-.5h1c.276 0 .5.224.5.5s-.224.5-.5.5z"/><path fill="#662113" d="M14.438 13c-.552 0-1-.448-1-1v-1c0-.552.448-1 1-1s1 .448 1 1v1c0 .552-.448 1-1 1zm7 0c-.552 0-1-.448-1-1v-1c0-.552.448-1 1-1s1 .448 1 1v1c0 .552-.448 1-1 1z"/><path fill="#FFDC5D" d="M32.998 22.714l-4.286-.857-7.714.857V27H21l-.002.04c0 3.291 2.685 5.96 5.998 5.96 3.312 0 5.997-2.669 5.997-5.96l-.002-.04h.007v-4.286z"/><path fill="#F4900C" d="M33.995 25.192c0-.023.003-.044.003-.067l-.002-.039.002-.086-.006.006C33.928 21.679 31.216 19 27.873 19c-.298 0-.588.029-.875.07-.286-.041-.577-.07-.875-.07-3.383 0-6.125 2.742-6.125 6.125 0 0 .125 3.188-1 6.875 0 0 3.344 2 8 2s8-2 8-2c-.968-3.172-1.01-6.061-1.003-6.808zm-1.002 1.848c0 3.291-2.685 5.96-5.997 5.96s-5.997-2.669-5.997-5.96c-.001-.013.001-.027.001-.04h-.002v-1.911c4.172-.181 6.588-1.592 7.929-2.91.91 1.074 2.351 2.414 4.071 2.816V27h-.007l.002.04z"/><path fill="#FFDC5D" d="M28.998 34v-3h-4v3h-1v2h6v-2z"/><path fill="#EA596E" d="M31.998 33h-3l-2 2-2-2h-2c-2.493 0-4.276 1.385-4.814 3h17.632c-.518-1.602-2.159-3-3.818-3z"/><path fill="#BF6952" d="M28.998 30h-4s.389 1.333 2 1.333 2-1.333 2-1.333zm-2-.5c-.13 0-.26-.05-.35-.15-.1-.09-.15-.22-.15-.35s.05-.26.15-.36c.17-.17.52-.18.71.01.09.091.14.221.14.351s-.05.26-.15.35c-.09.099-.22.149-.35.149z"/><path fill="#662113" d="M28.998 28c-.461 0-.833-.373-.833-.833v-.833c0-.461.373-.833.833-.833.461 0 .833.373.833.833v.833c.001.46-.372.833-.833.833zm-4 0c-.461 0-.833-.373-.833-.833v-.833c0-.461.373-.833.833-.833.461 0 .833.373.833.833v.833c.001.46-.372.833-.833.833z"/><path fill="#FFDC5D" d="M14.998 22.714l-4.286-.857-7.714.857V27H3l-.002.04c0 3.291 2.685 5.96 5.998 5.96 3.312 0 5.997-2.669 5.997-5.96l-.002-.04h.007v-4.286z"/><path fill="#F4900C" d="M15.995 25.192c0-.023.003-.044.003-.067l-.002-.039.002-.086-.006.006C15.928 21.679 13.216 19 9.873 19c-.298 0-.588.029-.875.07-.286-.041-.577-.07-.875-.07-3.383 0-6.125 2.742-6.125 6.125 0 0 .125 3.188-1 6.875 0 0 3.344 2 8 2s8-2 8-2c-.968-3.172-1.01-6.061-1.003-6.808zm-1.002 1.848c0 3.291-2.685 5.96-5.997 5.96s-5.997-2.669-5.997-5.96C2.998 27.027 3 27.013 3 27h-.002v-1.911c4.172-.181 6.588-1.592 7.929-2.91.91 1.074 2.351 2.414 4.071 2.816V27h-.007l.002.04z"/><path fill="#FFDC5D" d="M10.998 34v-3h-4v3h-1v2h6v-2z"/><path fill="#EA596E" d="M13.998 33h-3l-2 2-2-2h-2C2.505 33 .722 34.385.184 36h17.632c-.518-1.602-2.159-3-3.818-3z"/><path fill="#BF6952" d="M10.998 30h-4s.389 1.333 2 1.333 2-1.333 2-1.333zm-2-.5c-.13 0-.26-.05-.35-.15-.1-.09-.15-.22-.15-.35s.05-.26.15-.36c.17-.17.52-.18.71.01.09.091.14.221.14.351s-.05.26-.15.35c-.09.099-.22.149-.35.149z"/><path fill="#662113" d="M10.998 28c-.461 0-.833-.373-.833-.833v-.833c0-.461.373-.833.833-.833.461 0 .833.373.833.833v.833c.001.46-.372.833-.833.833zm-4 0c-.461 0-.833-.373-.833-.833v-.833c0-.461.373-.833.833-.833.461 0 .833.373.833.833v.833c.001.46-.372.833-.833.833z"/></svg>