<svg xmlns="http://www.w3.org/2000/svg" viewBox="0 0 36 36"><path fill="#9266CC" d="M29.276 33.035l-.843-6.484c.173-3.309-2.369-6.132-5.678-6.306l-8.988-.471c-3.309-.173-6.132 2.369-6.306 5.678L6.41 31.391l22.866 1.644z"/><path fill="#FFAC33" d="M18.824 2.47c3.28.172 8.661 2.099 8.288 9.205s-.458 8.746-2.098 8.66c-1.641-.086-3.741-1.84-7.021-2.012-3.279-.172-5.505 1.356-7.192 1.267-1.827-.096-1.296-6.646-1.182-8.832.373-7.106 5.926-8.46 9.205-8.288"/><path fill="#FFDC5D" d="M15 19.972c0 1.142 1.777 1.528 3.005 1.528 1.227 0 2.995-.386 2.995-1.528V17.5h-6v2.472z"/><path fill="#F9CA55" d="M15 18.584c.837.918 1.873 1.166 3 1.166s2.164-.248 3-1.166V16.25h-6v2.334z"/><path fill="#FFDC5D" d="M11.816 10.633c.244-4.661 3.379-8.285 7.002-8.095 3.622.19 6.362 4.122 6.118 8.783-.244 4.66-3.368 8.063-6.99 7.873-3.624-.19-6.374-3.901-6.13-8.561"/><path fill="#FFAC33" d="M10.077 13.171c.025-.8-.026-.18-.016-.373.143-2.734 1.62.481 1.722-1.467.102-1.949 1.184-1.678 2.334-2.714.576-.519 1.725-1.533 1.725-1.533s2.646 1.794 4.833 1.909c2.186.115 4.337.92 4.222 3.106-.115 2.187 1.706-1.179 1.563 1.554-.01.195.004-.425-.052.373l.573.03c.089-1.598.086-1.537.14-2.558.372-7.106-4.956-10.039-8.236-10.211-3.279-.172-8.882 2.144-9.255 9.25-.033.633-.069 1.003-.13 2.602l.577.032z"/><path fill="#FFDC5D" d="M13.059 12.223c-.061 1.157-.696 2.064-1.419 2.026-.723-.038-1.26-1.007-1.199-2.163.061-1.157.696-2.065 1.419-2.027.722.037 1.259 1.007 1.199 2.164m13.093.686c-.061 1.157-.696 2.064-1.419 2.026-.723-.038-1.26-1.007-1.199-2.163.061-1.157.696-2.065 1.419-2.027.723.038 1.259 1.007 1.199 2.164"/><path fill="#DF1F32" d="M18.027 17.659c-1.283-.067-1.921-.737-1.989-.813-.203-.224-.184-.571.04-.772.223-.2.564-.184.767.035.027.027.421.416 1.239.458.83.044 1.263-.312 1.281-.327.229-.193.572-.169.768.056.196.225.179.563-.043.763-.076.068-.78.667-2.063.6"/><path fill="#C1694F" d="M18.832 15.067l-1.351-.071c-.186-.01-.33-.169-.32-.356l.006-.122c.01-.186.169-.331.356-.321l1.351.071c.186.01.33.17.32.356l-.006.122c-.01.187-.17.331-.356.321"/><path fill="#662113" d="M16.625 12.345c-.058 0-.116-.013-.17-.041-.004-.002-.371-.188-.744-.212-.434-.025-.82.133-.824.134-.192.081-.411-.009-.491-.199-.081-.19.006-.409.196-.491.022-.009.549-.234 1.167-.192.532.034 1.019.283 1.039.293.184.095.255.32.161.504-.067.13-.198.204-.334.204zm5.333.347c-.073 0-.146-.021-.211-.064-.001-.001-.313-.204-.749-.231-.448-.025-.79.106-.794.108-.19.077-.409-.017-.487-.207-.077-.191.013-.409.204-.487.02-.008.5-.196 1.124-.163.637.04 1.075.327 1.124.359.171.116.216.35.1.521-.073.107-.191.164-.311.164z"/><path fill="#744EAA" d="M28.526 30.798c.55 1.503-1.121.825-2.428 1.314-.848.317-2.282.836-2.503.135-.438-1.384-1.215-3.713-1.534-5.108.021-.008.073-.029.092-.038-.09-.134-.104-.552-.119-.723-.135-1.507.912-3.055.912-3.055s2.054-.278 2.573-.547c.246 1.605.468 2.641.468 2.641s1.882 3.586 2.539 5.381z"/><path fill="#E1E8ED" d="M23.519 21.032l.406 1.236c.257.784-.173 1.636-.957 1.893l-4.506 1.48c-.784.257-1.636-.173-1.893-.957l-.406-1.236c-.257-.784.173-1.636.957-1.893l4.506-1.48c.784-.258 1.636.173 1.893.957z"/><path fill="#88C9F9" d="M14.795 23.072c.224.681-1.922 1.386-1.698 2.067.224.681 2.369-.023 2.593.658.224.681.939.446.939.446l-.671-2.043-.671-2.043c0-.001-.715.234-.492.915z"/><path fill="#55ACEE" d="M16.602 22.024l1.164 3.545c.086.261-.058.545-.319.631l-.685.225c-.261.086-.545-.058-.631-.319l-1.164-3.545c-.086-.261.058-.545.319-.631l.685-.225c.261-.085.545.058.631.319z"/><path fill="#A6D388" d="M21.989 35.145c1.066.007 2.736-2.31 1.089-3.653-1.648-1.343-4.499-3.099-5.959-3.806-1.869-.904-5.366-3.919-6.06-4.643s-2.351-.603-3.222.663c-.619.9-1.446 4.193-.004 6.844 1.686 3.098 4.561 5.082 8.396 5.082 1.013 0 2.116.067 2.742-.074s1.736-.421 3.018-.413z"/><path fill="#FFDC5D" d="M24.636 28.21c1.283-.13 1.305-1.899 1.127-2.981-.34-2.066.052-3.88-1.566-4.624-1.416-.651-.693 1.394-1.464 2.998-1.107 2.301-.356 3.386-.356 3.386s1.136 1.314 2.259 1.221z"/><path fill="#9266CC" d="M29.126 32.334c.748 2.158-1.786 3.587-3.434 2.993-.855-.308-1.36-1.539-1.973-3.658-.838-2.892-1.31-4.485-1.31-4.485s.882-.225 1.934-.685c1.042-.456 1.577-.915 1.577-.915s2.589 4.968 3.206 6.75z"/><path fill="#FFDC5D" d="M17.283 35.882h2.565c2.094 0 4.259-1.378 4.368-3.156.096-1.556-1.641-.279-3.392-.598-1.592-.291-2.97.074-2.97.074s.112 2.503-.571 3.68z"/><path fill="#9266CC" d="M6.516 30.976c.653-1.477 3.431-.958 5.844-.364 2.118.521 4.292 1.188 5.903 1.473 0 0 .334.755.171 2.106-.091.752-.506 1.665-.506 1.665s-3.248.091-5.405-.195c-3.238-.428-7.188-2.012-6.007-4.685z"/></svg>