<svg xmlns="http://www.w3.org/2000/svg" viewBox="0 0 36 36"><path fill="#CCD6DD" d="M12.154 19.416l.802.598L3.988 32.04l-.802-.598z"/><path fill="#DD2E44" d="M3.186 31.444L1.093 34.25c-.164.22-.119.535.102.7s.535.119.7-.102l2.092-2.806-.801-.598z"/><path fill="#292F33" d="M11.359 21.319c-.22-.164-.266-.479-.102-.7l1.793-2.405c.164-.22.479-.266.7-.102.22.164.266.479.102.7l-1.793 2.405c-.164.221-.479.267-.7.102z"/><path fill="#292F33" d="M11.76 21.618l-.802-.598c-.22-.164-.266-.479-.102-.7.164-.22.479-.266.7-.102l.802.598c.22.164.266.479.102.7-.164.221-.479.267-.7.102z"/><path fill="#99AAB5" d="M.598 35.751c-.22-.164-.266-.479-.102-.7.164-.22.479-.266.7-.102.22.164.266.479.102.7-.165.22-.48.266-.7.102z"/><path fill="#292F33" d="M20.476 35.056s.061-.144.061-.448c0-.303-.156-.869-.199-.95s-.09-.139-.194-.11c-.079.022-.685.326-1.072.341-.719.027-1.066-.618-1.066-.618s-.399.228-.716.413c-.318.185-.687.462-.959.627-.232.141-.497.208-.771.243s-.497.023-.563.029-.621-.061-.641.488l.004.16s.987.397 2.344.397c1.358 0 1.566-.399 2.444-.399s1.328-.173 1.328-.173z"/><path fill="#292F33" d="M18.726 35.926c-.058-.052-.123-.22-.173-.243s-.57.089-.813.146c-.243.058-.66.156-1.152.156-.491 0-1.126-.144-1.519-.243-.393-.098-.701-.23-.77-.274-.07-.043-.05-.063-.046-.096.004-.033.052-.202.052-.202s.251.132.678.237c.426.104.851.183 1.584.183s1.193-.109 1.574-.211c.475-.128 1.163-.267 1.656-.267.38 0 .648-.112.751-.139.024-.006.046.012.046.037v.649c0 .042-.035.139-.146.162-.112.024-1.664.157-1.722.105zm12.221-5.012s-.072-.142-.307-.343c-.235-.2-.777-.454-.868-.473-.091-.02-.167-.022-.213.078-.035.075-.199.746-.444 1.056-.454.575-1.184.418-1.184.418s-.087.46-.153.828c-.067.368-.096.838-.148 1.158-.044.273-.167.523-.322.758-.154.236-.31.4-.35.456-.039.055-.457.441-.045.82l.127.103s.96-.502 1.857-1.555c.897-1.052.726-1.477 1.306-2.158.581-.682.744-1.146.744-1.146z"/><path fill="#292F33" d="M30.465 32.846c-.078.01-.252-.05-.303-.026-.051.024-.308.5-.424.727-.116.226-.316.615-.64.996s-.856.778-1.192 1.018c-.336.24-.642.391-.721.416-.08.025-.082-.003-.104-.028-.022-.025-.122-.174-.122-.174s.269-.107.631-.369c.363-.261.705-.538 1.189-1.107s.704-.997.876-1.36c.214-.452.562-1.078.887-1.46.251-.295.342-.576.388-.674.011-.023.04-.028.059-.012l.503.429c.033.028.085.118.029.22-.055.103-.977 1.394-1.056 1.404z"/><path fill="#D4AB88" d="M21.541 1.384c-1.593-.627-4.077.182-4.365 2.043-.287 1.848.239 4.747 1.863 4.572 1.702-.184 3.448-.554 4.138-2.307s-.043-3.681-1.636-4.308z"/><path fill="#D4AB88" d="M22.724 6.143c2.318-2.723-3.266-2.458-3.266-2.458-1.057.038-.329 1.799-.827 2.761-.341.665 1.095 1.018 1.095 1.018s.659-.01.694.79v.007c.008.204-.013.445-.108.769-.473 1.601 1.677 2.582 2.149.978.187-.635.114-1.193.02-1.708l-.009-.046c-.143-.766-.321-1.437.252-2.111z"/><path fill="#963B22" d="M23.361 2.026C22.3.784 20.841.269 18.342 1.235c-2.183.844-1.481 2.579-.972 2.282 1.402-.817 2.332-.119 3.046 1.021.208-.56 1.122-.904 1.307-.085.208.921-.647 1.322-.533 1.573.038.084-.043-.076 0 0 .547.96 1.437 1.262 1.437 1.262s.337.132.912-1.001.875-3.028-.178-4.261z"/><path fill="#963B22" d="M22.787 3.332c2.163.467 1.275 3.839 1.487 5.08.261 1.528 1.761 1.582 1.761 1.582s-.247-1.064-.116-2.177c.183-1.543 1.189-2.789.127-4.296-1.356-1.924-4.604-.479-3.259-.189z"/><path fill="#2A6797" d="M18.598 34.203c-1.266.109-1.853-.233-1.721-.416.165-.228.128-.397.13-.536.028-2.441-.472-5.991-.472-5.991 0-.348.003-.813.312-1.562.778-1.883 3.951-7.69 3.951-7.69.548-.958 1.771-1.293 2.728-.744.959.548 1.122 1.405.744 2.729-.715 2.508-2.965 5.602-3.903 7.477.224 2.121-.174 3.853.035 5.857.032.288-.538.767-1.804.876z"/><path fill="#4289C1" d="M29.333 31.931c-.364.553-.97.942-1.598.838-1.269-1.924-4.955-5.321-4.955-5.321-.241-.25-.562-.587-.86-1.341-.748-1.895-2.498-8.277-2.498-8.277-.272-1.07.376-2.16 1.446-2.43 1.07-.272 1.783.232 2.43 1.446 1.227 2.301 1.757 6.09 2.384 8.09 1.87 1.568 2.383 3.603 4.275 5.151-.065.857-.261 1.291-.624 1.844z"/><path fill="#9268CA" d="M25.536 20s0 1-2 1h-4.898c-.415-2 .554-3.818-.102-6.5-.848-3.46 2.406-6.874 3.818-6.42 1.846.594 2.693 2.641 2.932 5.858.238 3.216.25 6.062.25 6.062z"/><path fill="#D4AB88" d="M20.142 11.64c-.783 1.171-2.299 3.804-2.526 3.904-1.206.531-2.551 1.215-3.448 1.307-.65.067-1.256.678-1.51.922-.316.304-.752 1.006-.633 1.369.074.226.57.489.741.254.333-.457.974-.533 1.492-.886 1.039-.71 3.285-.758 4.56-1.7.528-.39 1.583-1.134 3.111-3.722-.591-.426-1.787-1.448-1.787-1.448z"/><path fill="#292F33" d="M14.21 17.018c.477.152.847.624.557 1.114-.29.49.403.185.512-.045.223-.468-.178-1.158-.646-1.314-.468-.156-.746.142-.423.245z"/></svg>