<svg xmlns="http://www.w3.org/2000/svg" viewBox="0 0 36 36"><path fill="#CCD6DC" d="M30 26c0 2.209-1.791 4-4 4H4c-2.209 0-4-1.791-4-4V4c0-2.209 1.791-4 4-4h22c2.209 0 4 1.791 4 4v22z"/><path fill="#F5F8FA" d="M28 26c0 1.104-.896 2-2 2H4c-1.104 0-2-.896-2-2V4c0-1.104.896-2 2-2h22c1.104 0 2 .896 2 2v22z"/><path fill="#50A5E6" d="M6 26c-.552 0-1-.447-1-1V13c0-.552.448-1 1-1s1 .448 1 1v12c0 .553-.448 1-1 1z"/><path fill="#77B255" d="M10 26c-.552 0-1-.447-1-1V8c0-.552.448-1 1-1s1 .448 1 1v17c0 .553-.448 1-1 1z"/><path fill="#226798" d="M36 36v-4.5c0-3.314-3.561-5.5-6.875-5.5h-12C13.812 26 10 28.186 10 31.5V36h26z"/><path fill="#F4F7F9" d="M28.25 26l-3.182 10h-4.091L18.25 26"/><path fill="#3A87C2" d="M19 26h-1.5l-1 5.5 3 1L19 36h3.5zm8.5 0H29l.5 5.5-3 1L27 36h-3.5z"/><path fill="#FFE51E" d="M23.2 3.979c4.104 0 10.947 2.053 10.947 10.947 0 8.895 0 10.948-2.053 10.948s-4.79-2.053-8.895-2.053c-4.106 0-6.785 2.053-8.896 2.053-2.287 0-2.053-8.211-2.053-10.948.002-8.895 6.845-10.947 10.95-10.947"/><path fill="#F2D1A1" d="M19.755 26c1 1.982 2.792 4.5 3.5 4.5s2.512-2.549 3.5-4.5v-3.591h-7V26z"/><path fill="#E0BF94" d="M19.755 24.054c.975 1.102 2.185 1.4 3.499 1.4 1.315 0 2.526-.298 3.501-1.4v-2.801h-7v2.801z"/><path fill="#F2D1A1" d="M14.989 14.627c0-5.834 3.676-10.563 8.211-10.563 4.533 0 8.209 4.729 8.209 10.563 0 5.833-3.676 10.285-8.209 10.285-4.535 0-8.211-4.452-8.211-10.285"/><path fill="#DE2032" d="M23.2 22.452c-1.606 0-2.447-.794-2.537-.885-.268-.267-.268-.7 0-.967.266-.265.692-.267.961-.007.035.032.551.491 1.576.491 1.038 0 1.555-.473 1.576-.492.273-.256.703-.248.963.019.26.269.26.691-.004.955-.089.092-.929.886-2.535.886"/><path fill="#C1694F" d="M24.091 19.409h-1.69c-.233 0-.423-.189-.423-.423v-.153c0-.233.189-.424.423-.424h1.69c.233 0 .424.19.424.424v.153c0 .234-.191.423-.424.423"/><path fill="#662213" d="M26.628 16.796c-.465 0-.846-.381-.846-.847v-.845c0-.465.381-.846.846-.846.465 0 .846.381.846.846v.845c0 .466-.381.847-.846.847m-6.765 0c-.465 0-.846-.381-.846-.847v-.845c0-.465.381-.846.846-.846.466 0 .847.381.847.846v.845c0 .466-.381.847-.847.847"/><path fill="#FFE51E" d="M12.98 17.909c-.021-1-.044-.224-.044-.465 0-3.422 2.053.494 2.053-1.943 0-2.438 1.368-2.683 2.736-4.051.685-.685 2.053-2.026 2.053-2.026s3.421 2.067 6.158 2.067c2.736 0 5.474 1.375 5.474 4.112 0 2.736 2.053-1.584 2.053 1.837 0 .244-.022-.531-.04.469h.719c.006-2 .006-1.924.006-3.202C34.148 5.813 27.306 2.5 23.2 2.5c-4.104 0-10.947 3.257-10.947 12.152 0 .793-.02 1.257.008 3.257h.719z"/><path fill="#F2D1A1" d="M33.088 14.845c0 1.448-.733 2.622-1.639 2.622-.905 0-1.639-1.174-1.639-2.622s.733-2.623 1.639-2.623 1.639 1.175 1.639 2.623m-16.389 0c0 1.448-.734 2.622-1.639 2.622s-1.639-1.174-1.639-2.622.734-2.623 1.639-2.623 1.639 1.175 1.639 2.623"/></svg>