<svg xmlns="http://www.w3.org/2000/svg" viewBox="0 0 36 36"><path fill="#292F33" d="M11 11.844c-2.297-.669-3.315-3.565-3.734-5.369C6.313 7.952 4.23 10.155 0 11.28V.425C.955.154 1.959 0 3 0c6.075 0 11 4.925 11 11 0 3.009-1.211 5.733-3.168 7.719.107-.557.168-1.13.168-1.719v-5.156z"/><path fill="#F7DECE" d="M0 28.604L2 32l3-5v-1.523c2.968-1.051 5.222-3.607 5.832-6.757.107-.558.168-1.131.168-1.72v-5.156c-2.297-.669-3.315-3.565-3.734-5.369C6.313 7.952 4.23 10.155 0 11.28v17.324z"/><path fill="#3B94D9" d="M0 28.604L2 32l3-5h6c2.209 0 4 1.791 4 4v5H0v-7.396z"/><path fill="#1C6399" d="M10 32h1v4h-1z"/><path fill="#C1694F" d="M5 22h1s-1 2-4 2c-.809 0-1.462-.151-2-.363V22h5zm-2-2.5H1c-.276 0-.5-.224-.5-.5s.224-.5.5-.5h2c.276 0 .5.224.5.5s-.224.5-.5.5z"/><path fill="#662113" d="M6 16c-.553 0-1-.448-1-1v-1c0-.552.447-1 1-1s1 .448 1 1v1c0 .552-.447 1-1 1z"/><path fill="#FFE51E" d="M25 11.844c2.297-.669 3.315-3.565 3.734-5.369.953 1.477 3.036 3.68 7.266 4.805V.425C35.045.154 34.041 0 33 0c-6.075 0-11 4.925-11 11 0 3.009 1.211 5.733 3.168 7.719C25.061 18.162 25 17.589 25 17v-5.156z"/><path fill="#F3D2A2" d="M36 11.28c-4.23-1.125-6.313-3.328-7.266-4.804-.42 1.804-1.438 4.699-3.734 5.369V17c0 .589.061 1.162.168 1.719.61 3.15 2.863 5.706 5.832 6.757V27l3 5 2-3.396V11.28z"/><path fill="#3B94D9" d="M36 28.604L34 32l-3-5h-6c-2.209 0-4 1.791-4 4v5h15v-7.396z"/><path fill="#1C6399" d="M25 32h1v4h-1z"/><path fill="#C1694F" d="M31 22h-1s1 2 4 2c.809 0 1.462-.151 2-.363V22h-5zm2-2.5h2c.276 0 .5-.224.5-.5s-.224-.5-.5-.5h-2c-.276 0-.5.224-.5.5s.224.5.5.5z"/><path fill="#662113" d="M30 16c.553 0 1-.448 1-1v-1c0-.552-.447-1-1-1s-1 .448-1 1v1c0 .552.447 1 1 1z"/><path fill="#DD2E44" d="M26.539 4.711c0-2.602-2.11-4.711-4.711-4.711C20.249 0 18.855.78 18 1.972 17.144.78 15.751 0 14.172 0c-2.601 0-4.711 2.109-4.711 4.711 0 .369.047.727.127 1.07.654 4.065 5.173 8.353 8.411 9.529 3.238-1.177 7.758-5.465 8.412-9.528.081-.344.128-.702.128-1.071z"/></svg>