<svg xmlns="http://www.w3.org/2000/svg" viewBox="0 0 36 36"><path fill="#60352A" d="M10.5 0C9.314 0 8.218.379 7.319 1.018 5.473 1.114 4 2.629 4 4.5c0 1.542.007 3.484 2.038 4.208C7.036 10.094 8.66 11 10.5 11c3.037 0 5.5-2.462 5.5-5.499C16 2.463 13.537 0 10.5 0z"/><path fill="#AF7E57" d="M17.896 26.76c.271.091.487-.159.586-.302.279-.405.422-1.309.004-2.227-.423-.927-.702-2.072-1.69-3.821-.115-.204-.494-2.746-1.242-4.354-.202-.435-1.495-.684-2.009-.529-.513.154.005.98.037 1.134.344 1.651 1.305 4.077 1.45 4.404.8 1.806 1.965 2.389 2.071 3.706.055.69.205 1.286.6 1.228.092.352.093.728.193.761zM3.3 26.964c-.257.126-.504-.094-.62-.222-.33-.365-.591-1.242-.296-2.208.297-.975.424-2.146 1.174-4.01.087-.217.129-2.787.66-4.479.143-.457 1.392-.875 1.922-.789.529.086.124.972.112 1.129-.124 1.682-.758 4.213-.859 4.556-.556 1.895-1.634 2.627-1.566 3.946.036.692-.034 1.302-.433 1.296-.048.363 0 .735-.094.781z"/><path fill="#AAB8C2" d="M13.554 29.5c.5-2.734.422-6.5.422-6.5H6.013s-.078 3.766.422 6.5c.063.344.188 3.344-.109 5.5-.066.479 2.886.937 2.844-.125-.078-1.969.264-3.513.328-4.5.035-.547.25-1.875.344-3.208.011-.018.295-.018.306 0 .094 1.333.308 2.661.344 3.208.064.987.406 2.531.328 4.5-.042 1.062 2.91.604 2.844.125-.298-2.156-.173-5.156-.11-5.5z"/><path fill="#292F33" d="M14.538 36c.499-.406-.041-1.161-1.42-1.402-1.163-.203-2.2-.032-2.363.35-.212.493-.05 1.052-.05 1.052h3.833zm-9.117 0c-.499-.406.041-1.161 1.42-1.402 1.163-.203 2.2-.032 2.363.35.212.493.05 1.052.05 1.052H5.421z"/><path fill="#4289C1" d="M14.797 14.766C13.578 14 12 14 12 14H8s-1.578 0-2.797.766c-1.201.754-1.656 3-1.656 3l2.203.688L5.859 24h8.281l.109-5.547 2.203-.688c.001.001-.454-2.245-1.655-2.999z"/><path fill="#AF7E57" d="M8 10.042v4c0 .682.896 1.305 2 1.305s2-.668 2-1.305v-4H8z"/><path fill="#9B6A49" d="M8 13.56c.608.687 1.178.859 1.998.859.819 0 1.394-.173 2.002-.859v-.812H8v.812z"/><path fill="#AF7E57" d="M15 3H5v6c0 2.762 2.238 5 5 5s5-2.237 5-5V3z"/><path fill="#60352A" d="M5 2.5L4.5 5 5 7c2.333 0 2.85-2.412 2.965-3.488C8.004 4.588 8.779 7 15 7l.5-2-.5-2.5H5z"/><path fill="#915A34" d="M12 12H8s0 1 2 1 2-1 2-1z"/><circle fill="#662113" cx="7.5" cy="8.5" r=".5"/><circle fill="#662113" cx="12.5" cy="8.5" r=".5"/><path fill="#915A34" d="M9 10h2s0 1-1 1-1-1-1-1z"/><path fill="#292F33" d="M26.5 0c-1.187 0-2.282.379-3.181 1.018C21.473 1.114 20 2.629 20 4.5c0 1.542.007 3.484 2.038 4.208C23.036 10.094 24.66 11 26.5 11c3.037 0 5.5-2.462 5.5-5.499C32 2.463 29.537 0 26.5 0z"/><path fill="#F7DECE" d="M18.117 26.76c-.271.091-.487-.159-.586-.302-.279-.405-.422-1.309-.004-2.227.423-.927.702-2.072 1.69-3.821.115-.204.494-2.746 1.242-4.354.202-.435 1.495-.684 2.009-.529.513.154-.005.98-.037 1.134-.344 1.651-1.305 4.077-1.45 4.404-.8 1.806-1.965 2.389-2.071 3.706-.055.69-.205 1.286-.6 1.228-.092.352-.094.728-.193.761zm14.595.204c.257.126.504-.094.62-.222.33-.365.591-1.242.296-2.208-.297-.975-.424-2.146-1.174-4.01-.087-.217-.129-2.787-.66-4.479-.143-.457-1.392-.875-1.922-.789-.529.086-.124.972-.112 1.129.124 1.682.758 4.213.859 4.556.556 1.895 1.634 2.627 1.566 3.946-.036.692.034 1.302.433 1.296.048.363 0 .735.094.781z"/><path fill="#F7DECE" d="M18.117 26.76c-.271.091-.487-.159-.586-.302-.279-.405-.422-1.309-.004-2.227.423-.927.702-2.072 1.69-3.821.115-.204.494-2.746 1.242-4.354.202-.435 1.495-.684 2.009-.529.513.154-.005.98-.037 1.134-.344 1.651-1.305 4.077-1.45 4.404-.8 1.806-1.965 2.389-2.071 3.706-.055.69-.205 1.286-.6 1.228-.092.352-.094.728-.193.761zm14.595.204c.257.126.504-.094.62-.222.33-.365.591-1.242.296-2.208-.297-.975-.424-2.146-1.174-4.01-.087-.217-.129-2.787-.66-4.479-.143-.457-1.392-.875-1.922-.789-.529.086-.124.972-.112 1.129.124 1.682.758 4.213.859 4.556.556 1.895 1.634 2.627 1.566 3.946-.036.692.034 1.302.433 1.296.048.363 0 .735.094.781z"/><path fill="#67757F" d="M29.555 29.5c.5-2.734.422-6.5.422-6.5h-7.963s-.078 3.766.422 6.5c.063.344.188 3.344-.109 5.5-.066.479 2.886.937 2.844-.125-.078-1.969.264-3.513.328-4.5.035-.547.25-1.875.344-3.208.011-.018.295-.018.306 0 .094 1.333.308 2.661.344 3.208.064.987.406 2.531.328 4.5-.042 1.062 2.91.604 2.844.125-.297-2.156-.172-5.156-.11-5.5z"/><path fill="#292F33" d="M30.54 36c.499-.406-.041-1.161-1.42-1.402-1.163-.203-2.2-.032-2.363.35-.212.493-.05 1.052-.05 1.052h3.833zm-9.117 0c-.499-.406.041-1.161 1.42-1.402 1.163-.203 2.2-.032 2.363.35.212.494.05 1.053.05 1.053L21.423 36z"/><path fill="#78B159" d="M30.797 14.766C29.578 14 28 14 28 14h-4s-1.578 0-2.797.766c-1.201.754-1.656 3-1.656 3l2.203.688.109 5.546h8.281l.109-5.547 2.203-.688c.001.001-.454-2.245-1.655-2.999z"/><path fill="#F7DECE" d="M24 10.042v4c0 .682.896 1.305 2 1.305s2-.668 2-1.305v-4h-4z"/><path fill="#EEC2AD" d="M24 13.561c.608.687 1.178.859 1.998.859.819 0 1.394-.173 2.002-.859v-.812h-4v.812z"/><path fill="#F7DECE" d="M31 3H21v6c0 2.762 2.238 5 5 5s5-2.237 5-5V3z"/><path fill="#292F33" d="M21 2.5L20.5 5l.5 2c2.333 0 2.85-2.412 2.965-3.488C24.004 4.588 24.779 7 31 7l.5-2-.5-2.5H21z"/><path fill="#C1694F" d="M28 12h-4s0 1 2 1 2-1 2-1z"/><circle fill="#662113" cx="23.5" cy="8.5" r=".5"/><circle fill="#662113" cx="28.5" cy="8.5" r=".5"/><path fill="#C1694F" d="M25 10h2s0 1-1 1-1-1-1-1z"/></svg>