<svg xmlns="http://www.w3.org/2000/svg" viewBox="0 0 36 36"><path fill="#FFDC5D" d="M21 14c.253 3.89 3.521 6.969 7.5 6.969S35.747 17.89 36 14V4H21v10z"/><path fill="#FFAC33" d="M36 21.752V14c-.253 3.89-3.521 6.969-7.5 6.969S21.253 17.89 21 14V9.663c5.328-.155 8.51-2.343 10.237-4.181C31.652 6.957 32.801 9 36 9V1.9c-.931-.689-2.115-1.093-3.462-1.093-.333 0-.657.034-.974.09C30.393.328 29.39 0 28 0c-4.907 0-9 4.093-9 9v7c.064 2.258.868 4.35 2.182 6L24 24h9l2.818-2c.064-.08.121-.166.182-.248z"/><path fill="#9268CA" d="M35.818 22H21c-2 0-3 1-3 2.973V36h18V22h-.182z"/><path fill="#7450A8" d="M20.986 26h1.028v10h-1.028z"/><path fill="#FFDC5D" d="M26 19v3c0 1.381 1.119 2.5 2.5 2.5S31 23.381 31 22v-3h-5z"/><path fill="#DA2F47" d="M25.27 17.769h6.46s-.808 1.616-3.23 1.616-3.23-1.616-3.23-1.616z"/><path fill="#BF6952" d="M29 15.5h-1c-.276 0-.5-.224-.5-.5s.224-.5.5-.5h1c.276 0 .5.224.5.5s-.224.5-.5.5z"/><path fill="#662113" d="M25 13c-.553 0-1-.448-1-1v-1c0-.552.447-1 1-1s1 .448 1 1v1c0 .552-.447 1-1 1zm7 0c-.553 0-1-.448-1-1v-1c0-.552.447-1 1-1s1 .448 1 1v1c0 .552-.447 1-1 1z"/><path fill="#FFDC5D" d="M5 22v-4h5v4h2v6H3v-6z"/><path fill="#3B94D9" d="M15 22h-5l-2.472 3.778L5 22H0v14h18V24.973C18 23 17 22 15 22z"/><path fill="#1B6399" d="M13.986 26h1.028v10h-1.028z"/><path fill="#FFDC5D" d="M15 14V5L0 4v10h.024c.252 3.89 3.498 6.969 7.476 6.969 3.791 0 6.932-2.799 7.438-6.428.025-.18.05-.358.062-.541z"/><path fill="#FFAC33" d="M3.806.806C2.405.806 1.102 1.215 0 1.912v8.083c5.947-.055 9.375-2.593 11.162-4.598.506 1.589 1.633 4.021 3.838 4.51V14c-.012.183-.037.361-.062.54C16.224 13.002 17 11.023 17 8.861 17 3.967 13.033 0 8.139 0 6.801 0 5.538.305 4.4.836c-.196-.017-.394-.03-.594-.03zM15 5v.166l-.028-.167L15 5z"/><path fill="#BF6952" d="M10.722 17.723H4.278s.805 1.61 3.222 1.61 3.222-1.61 3.222-1.61zM8 15.5H7c-.276 0-.5-.224-.5-.5s.224-.5.5-.5h1c.276 0 .5.224.5.5s-.224.5-.5.5z"/><path fill="#662113" d="M4 13c-.552 0-1-.448-1-1v-1c0-.552.448-1 1-1s1 .448 1 1v1c0 .552-.448 1-1 1zm7 0c-.552 0-1-.448-1-1v-1c0-.552.448-1 1-1s1 .448 1 1v1c0 .552-.448 1-1 1z"/><path fill="#FFDC5D" d="M33 22.714l-4.286-.857-7.714.857V27h.002l-.002.04c0 3.291 2.685 5.96 5.998 5.96 3.312 0 5.997-2.669 5.997-5.96l-.002-.04H33v-4.286z"/><path fill="#F4900C" d="M33.997 25.192c0-.023.003-.044.003-.067l-.002-.039L34 25l-.006.006C33.93 21.679 31.218 19 27.875 19c-.298 0-.588.029-.875.07-.287-.041-.577-.07-.875-.07C22.742 19 20 21.742 20 25.125c0 0 .125 3.188-1 6.875 0 0 3.344 2 8 2s8-2 8-2c-.968-3.172-1.01-6.061-1.003-6.808zm-1.002 1.848c0 3.291-2.685 5.96-5.997 5.96C23.685 33 21 30.331 21 27.04l.002-.04H21v-1.911c4.172-.181 6.588-1.592 7.929-2.91.91 1.074 2.351 2.414 4.071 2.816V27h-.007l.002.04z"/><path fill="#FFDC5D" d="M29 34v-3h-4v3h-1v2h6v-2z"/><path fill="#EA596E" d="M32 33h-3l-2 2-2-2h-2c-2.493 0-4.276 1.385-4.814 3h17.632c-.518-1.602-2.159-3-3.818-3z"/><path fill="#BF6952" d="M29 30h-4s.389 1.333 2 1.333S29 30 29 30zm-2-.5c-.13 0-.26-.05-.35-.15-.1-.09-.15-.22-.15-.35s.05-.26.15-.36c.17-.17.52-.18.71.01.09.09.14.22.14.35s-.05.26-.15.35c-.09.1-.22.15-.35.15z"/><path fill="#662113" d="M29 28c-.461 0-.833-.373-.833-.833v-.833c0-.461.373-.833.833-.833.461 0 .833.373.833.833v.833c0 .46-.372.833-.833.833zm-4 0c-.461 0-.833-.373-.833-.833v-.833c0-.461.373-.833.833-.833.461 0 .833.373.833.833v.833c0 .46-.372.833-.833.833z"/><path fill="#FFDC5D" d="M15 22.714l-4.286-.857L3 22.714V27h.002L3 27.04C3 30.331 5.685 33 8.998 33c3.312 0 5.997-2.669 5.997-5.96l-.002-.04H15v-4.286z"/><path fill="#F4900C" d="M15.997 25.192c0-.023.003-.044.003-.067l-.002-.039L16 25l-.006.006C15.93 21.679 13.218 19 9.875 19c-.298 0-.588.029-.875.07-.287-.041-.577-.07-.875-.07C4.742 19 2 21.742 2 25.125c0 0 .125 3.188-1 6.875 0 0 3.344 2 8 2s8-2 8-2c-.968-3.172-1.01-6.061-1.003-6.808zm-1.002 1.848c0 3.291-2.685 5.96-5.997 5.96C5.685 33 3 30.331 3 27.04l.002-.04H3v-1.911c4.172-.181 6.588-1.592 7.929-2.91.91 1.074 2.351 2.414 4.071 2.816V27h-.007l.002.04z"/><path fill="#FFDC5D" d="M11 34v-3H7v3H6v2h6v-2z"/><path fill="#EA596E" d="M14 33h-3l-2 2-2-2H5C2.507 33 .724 34.385.186 36h17.632c-.518-1.602-2.159-3-3.818-3z"/><path fill="#BF6952" d="M11 30H7s.389 1.333 2 1.333S11 30 11 30zm-2-.5c-.13 0-.26-.05-.35-.15-.1-.09-.15-.22-.15-.35s.05-.26.15-.36c.17-.17.52-.18.71.01.09.09.14.22.14.35s-.05.26-.15.35c-.09.1-.22.15-.35.15z"/><path fill="#662113" d="M11 28c-.461 0-.833-.373-.833-.833v-.833c0-.461.373-.833.833-.833.461 0 .833.373.833.833v.833c0 .46-.372.833-.833.833zm-4 0c-.461 0-.833-.373-.833-.833v-.833c0-.461.372-.834.833-.834.461 0 .833.373.833.833v.833c0 .461-.372.834-.833.834z"/></svg>