<svg xmlns="http://www.w3.org/2000/svg" viewBox="0 0 36 36"><path fill="#292F33" d="M7.981 29.995s.097-.127.175-.426.069-.897.047-.988-.053-.16-.163-.158c-.083.001-.759.146-1.144.061-.716-.158-.892-.883-.892-.883s-.452.123-.812.223c-.361.101-.796.279-1.106.372-.265.079-.543.078-.823.041s-.496-.105-.563-.116c-.067-.011-.597-.219-.757.317l-.037.159s.871.645 2.209.993 1.646.009 2.511.234c.866.226 1.355.171 1.355.171z"/><path fill="#292F33" d="M6.032 30.404c-.044-.066-.065-.248-.109-.284-.043-.036-.585-.059-.839-.064-.254-.005-.691-.016-1.175-.142-.484-.126-1.074-.431-1.436-.629s-.632-.407-.689-.468c-.057-.061-.033-.075-.02-.106.013-.031.103-.186.103-.186s.214.195.607.407.792.399 1.514.587 1.204.199 1.606.195c.501-.004 1.215.035 1.701.162.375.098.668.056.776.056.025 0 .043.023.036.048l-.167.64c-.011.042-.07.128-.186.122-.114-.005-1.678-.272-1.722-.338z"/><path fill="#4289C1" d="M23.802 17.195c.193 1.421-.135 2.945-1.22 3.321-1.039.36-3.058.116-3.058.116s-.66.468-.426 1.231c.133.434.314.645.262.692-.046.042-.486.02-.684.027-.528.02-1.114-.114-2.108-.301s-1.44-.16-2.522-.359c-1.198-.22-2.051-.659-2.491-1.745-.375-.927.091-2.139 1.419-2.764 1.08-.508 4.289-.179 5.495-.168s5.166-1.285 5.333-.05z"/><path fill="#4289C1" d="M6.77 28.689c-.656-.086-1.108-.395-1.51-.897 1.506-2.038 3.136-7.609 3.136-7.609.541-1.798 1.36-3.044 2.992-3.124 2.316-.113 5.772.032 5.772.032 2.296.13.738.727 1.448 1.573.712.845-1.115 2.095-2.611 2.126-2.607.054-3.902-.113-5.428 1.324-.596 2.367-1.706 4.252-2.275 6.63-.48.122-.868.031-1.524-.055z"/><path fill="#FFDC5D" d="M21.842.878c-1.405-.68-3.719-.115-4.11 1.557-.388 1.661-.109 4.333 1.379 4.285 1.56-.05 3.174-.266 3.921-1.812.748-1.545.215-3.35-1.19-4.03z"/><path fill="#FFDC5D" d="M22.59 5.288c2.295-2.316-2.801-2.46-2.801-2.46-.964-.038-.424 1.613-.942 2.453-.356.582.925 1.001.925 1.001s.6.036.577.766v.007c-.007.186-.043.404-.151.691-.54 1.423 1.347 2.463 1.887 1.037.213-.564.186-1.077.136-1.552l-.006-.041c-.077-.707-.193-1.329.375-1.902z"/><path fill="#FFAC33" d="M23.453 1.588C22.574.386 21.283-.183 18.944.523c-2.044.617-1.525 2.243-1.042 2.008 1.331-.647 2.128.052 2.699 1.138.228-.495 1.083-.745 1.194.013.126.852-.68 1.158-.593 1.394.029.079-.034-.072 0 0 .431.911 1.22 1.246 1.22 1.246s.297.144.898-.847 1.005-2.693.133-3.887z"/><path fill="#FFAC33" d="M22.934 2.681c1.968.317 1.157 2.559 1.358 3.601.247 1.283 1.436 1.361 1.436 1.361s-.463-.666-.35-1.611c.156-1.312 1.379-2.377.405-3.613-1.244-1.58-4.072.065-2.849.262z"/><path fill="#9268CA" d="M24.353 16.862c.015 1.321-.057 1.777.007 2.351.036.319-1.252-.021-1.954-.176-1.883-.415-3.583-1.221-3.583-1.221.184-1.244.869-3.07-.624-4.823-.455-.535-.375-1.854.369-3.041.828-1.321 1.751-2.535 2.926-2.661.812-.088 1.597.328 2.15 1.2 2.206 1.83.762 1.78.777 3.121.024 2.035-.083 3.929-.068 5.25z"/><g fill="#DD2E44"><path d="M13.465 27.092l10.824.95c.274.024.518-.181.542-.455.024-.274-.181-.518-.455-.542l-10.824-.95c-.274-.024-.518.181-.542.455-.024.274.181.518.455.542z"/><path d="M24.288 28.041c-.274-.024-.478-.268-.455-.542l.436-4.981c.024-.274.268-.478.542-.455.274.024.478.268.455.542l-.436 4.981c-.024.275-.268.479-.542.455zm-10.738-7.58c-.274-.024-.518.181-.542.455l-1.015 11.597c-.024.274.181.518.455.542.274.024.518-.181.542-.455l1.015-11.597c.023-.274-.181-.518-.455-.542z"/></g><path fill="#292F33" d="M23.524 20.592c1.431-.206 2.834-.148 2.345.544-.489.692-1.575 1.905-3.418 1.707-1.844-.198.185-2.123 1.073-2.251z"/><path fill="#292F33" d="M22.45 22.843l-9.962-.872c-.996-.087-.996-.087-.909-1.083.048-.548.535-.957 1.083-.909l9.962.872c.548.048.957.535.909 1.083-.087.996-.087.996-1.083.909z"/><path fill="#DD2E44" d="M22.964 23.136l-10.958-.959c-.274-.024-.478-.268-.455-.542.024-.274.268-.478.542-.455l10.958.959c.274.024.478.268.455.542-.025.275-.268.479-.542.455z"/><path fill="#292F33" d="M27.278 9.454l-.872 9.962c-.087.996-.087.996-1.083.909-.548-.048-.957-.535-.909-1.083l.872-9.962c.048-.548.535-.957 1.083-.909.996.087.996.087.909 1.083z"/><path fill="#DD2E44" d="M27.714 8.996l-.959 10.958c-.024.274-.268.478-.542.455-.274-.024-.478-.268-.455-.542l.959-10.958c.024-.274.268-.478.542-.455.274.025.479.268.455.542z"/><path fill="#292F33" d="M24.62 18.519l-7.552-.661c-.755-.066-.755-.066-.69-.812.036-.41.405-.716.82-.68l7.552.661c.415.036.726.402.69.812-.064.746-.064.746-.82.68z"/><path fill="#DD2E44" d="M22.553 22.096c1.004.088 2.989.261 3.25-2.727s1.258-2.901.996.087-1.909 3.848-4.333 3.636c-1.993-.174-1.906-1.17.087-.996zm-10.449-.914c1.993.166 2.392 1.218.4 1.039-.883-.079-.962.297-1.163 1.063-.189.721-.456 1.803-.858 3.318-.295 1.112-1.221.712-.977-.257.411-1.63.798-3.05 1.052-3.953.258-.922.502-1.297 1.546-1.21z"/><g fill="#66757F"><circle cx="24.5" cy="27.5" r="1.5"/><path d="M31.245 30.817l-6.062-3.5 3.5-6.062-.866-.5-3.5 6.062-6.062-3.5-.5.866 6.062 3.5-3.5 6.062.866.5 3.5-6.062 6.062 3.5z"/><path d="M26.924 34.615l-1.812-6.761 6.762-1.812-.259-.966-6.761 1.812-1.812-6.762-.966.259 1.812 6.761-6.762 1.812.259.966 6.761-1.812 1.812 6.762z"/></g><path fill="#292F33" d="M24.5 19c-4.694 0-8.5 3.806-8.5 8.5s3.806 8.5 8.5 8.5 8.5-3.806 8.5-8.5-3.806-8.5-8.5-8.5zm0 15c-3.59 0-6.5-2.91-6.5-6.5s2.91-6.5 6.5-6.5 6.5 2.91 6.5 6.5-2.91 6.5-6.5 6.5z"/><path fill="#66757F" d="M24.5 20c-4.142 0-7.5 3.358-7.5 7.5s3.358 7.5 7.5 7.5 7.5-3.358 7.5-7.5-3.358-7.5-7.5-7.5zm0 14c-3.59 0-6.5-2.91-6.5-6.5s2.91-6.5 6.5-6.5 6.5 2.91 6.5 6.5-2.91 6.5-6.5 6.5zm-9.152-.433l-2.165-1.25 1.25-2.165-.866-.5-1.25 2.165-2.165-1.25-.5.866 2.165 1.25-1.25 2.165.866.5 1.25-2.165 2.165 1.25z"/><path fill="#292F33" d="M12.5 29C10.567 29 9 30.567 9 32.5s1.567 3.5 3.5 3.5 3.5-1.567 3.5-3.5-1.567-3.5-3.5-3.5zm0 6c-1.381 0-2.5-1.119-2.5-2.5s1.119-2.5 2.5-2.5 2.5 1.119 2.5 2.5-1.119 2.5-2.5 2.5z"/><path fill="#DD2E44" d="M10.288 25.363c-.266-.071-.541.088-.612.354l-1.553 5.796c-.071.266.088.541.354.612.266.071.541-.088.612-.354l1.553-5.796c.07-.265-.089-.541-.354-.612z"/><path fill="#66757F" d="M8.476 32.125L4.612 31.09c-.266-.071-.425-.347-.354-.612.071-.266.347-.425.612-.354l3.864 1.035c.266.071.426.346.354.612-.071.266-.346.425-.612.354z"/><path fill="#DD2E44" d="M30.103 9.969l-2.954-.521c-.271-.048-.453-.308-.406-.579.048-.271.308-.453.579-.406l2.954.521c.271.048.453.308.406.579-.048.272-.308.454-.579.406z"/><path fill="#292F33" d="M31.088 10.143l-2.615-.467c-.271-.048-.26-.274-.213-.545.048-.271.116-.487.386-.44l2.615.467c.271.048.453.308.406.579-.048.271-.308.454-.579.406z"/><path fill="#FFDC5D" d="M22.657 10.9c1.111 1.023 3.158 2.426 3.128 2.68-.174 1.464.402 3.203.2 4.11-.147.657-.805 1.117-.745 1.476.667.012.407 1.163.677 1.687.284.551 1.174-.056 1.311-.909.101-.627-.068-1.112-.113-1.757-.064-.918 1.207-3.625.39-5.457-.276-.618-1.167-1.842-3.212-3.751-.608.439-1.636 1.921-1.636 1.921z"/></svg>