<svg xmlns="http://www.w3.org/2000/svg" viewBox="0 0 36 36"><path fill="#292F33" d="M26 28H10c-3.313 0-6 2.686-6 6v2h28v-2c0-3.314-2.685-6-6-6z"/><path fill="#66757F" d="M8.083 33.341c.251 0 .401 2.659.401 2.659h-.956s.193-2.659.555-2.659m3 0c.251 0 .401 2.659.401 2.659h-.957c.001 0 .194-2.659.556-2.659m13.846 0c-.251 0-.401 2.659-.401 2.659h.956c-.001 0-.194-2.659-.555-2.659m3 0c-.251 0-.401 2.659-.401 2.659h.956c-.001 0-.194-2.659-.555-2.659"/><path fill="#77B255" d="M12.38 28s.24.838.77 1.971c.827 1.766 2.366 4.254 4.85 5.441 2.485-1.187 4.024-3.675 4.85-5.441.53-1.133.77-1.971.77-1.971H12.38z"/><path fill="#5C913B" d="M18 32c2.329 0 3.882-1.02 4.85-2.029.53-1.133.77-1.971.77-1.971H12.38s.24.838.77 1.971C14.118 30.98 15.671 32 18 32z"/><path fill="#D5AB88" d="M13.64 28.106c0 .894 2.36 1.993 4.36 1.993s4.359-1.099 4.359-1.992V24.29h-8.72v3.816z"/><path fill="#CC9B7A" d="M13.632 25.973c1.216 1.374 2.724 1.746 4.364 1.746 1.639 0 3.146-.373 4.363-1.746v-3.491h-8.728v3.491z"/><path fill="#D5AB88" d="M11.444 15.936c0 1.448-.734 2.622-1.639 2.622s-1.639-1.174-1.639-2.622.734-2.623 1.639-2.623c.905-.001 1.639 1.174 1.639 2.623m16.389 0c0 1.448-.733 2.622-1.639 2.622-.905 0-1.639-1.174-1.639-2.622s.733-2.623 1.639-2.623c.906-.001 1.639 1.174 1.639 2.623"/><path fill="#D5AB88" d="M9.477 16.959c0-5.589 3.816-10.121 8.523-10.121s8.522 4.532 8.522 10.121S22.707 27.08 18 27.08c-4.707 0-8.523-4.531-8.523-10.121"/><path fill="#C1694F" d="M18 23.802c-2.754 0-3.6-.705-3.741-.848-.256-.256-.256-.671 0-.927.248-.248.646-.255.902-.023.052.037.721.487 2.839.487 2.2 0 2.836-.485 2.842-.49.256-.255.657-.243.913.015.256.256.242.683-.014.938-.141.143-.987.848-3.741.848m.75-4.052h-1.5c-.413 0-.75-.337-.75-.75s.337-.75.75-.75h1.5c.413 0 .75.337.75.75s-.337.75-.75.75"/><path fill="#662113" d="M14 17c-.55 0-1-.45-1-1v-1c0-.55.45-1 1-1s1 .45 1 1v1c0 .55-.45 1-1 1m8 0c-.55 0-1-.45-1-1v-1c0-.55.45-1 1-1s1 .45 1 1v1c0 .55-.45 1-1 1"/><path fill="#963B22" d="M18 3c5.648 0 9.178 4.648 9.178 8.121 0 3.473-.971 4.968-1.412 3.473C25 12 24 12 24 12s-3.882 1.538-5.294.148c0 0 2.118 4.168-2.118 0 0 0 .706 2.779-3.53-.694 0 0-2.118-.333-2.824 3.14-.196.964-1.412 0-1.412-3.473S11.646 3 18 3"/><path fill="#292F33" d="M32.104 3.511l-14-3c-.068-.015-.14-.015-.209 0l-14 3c-.224.048-.387.243-.395.472-.007.229.142.434.363.498l4.944 1.413C8.615 6.489 8.5 7.176 8.5 8c0 2.29 3.285 3.5 9.5 3.5s9.5-1.21 9.5-3.5c0-.824-.115-1.511-.307-2.106l4.945-1.413c.221-.063.37-.269.362-.498-.008-.229-.171-.424-.396-.472z"/><path fill="#66757F" d="M32.48 3.863c-.076-.265-.35-.417-.618-.344L18 7.48 4.137 3.519c-.262-.073-.542.078-.618.344-.076.265.078.542.344.618l14 4c.045.013.091.019.136.019.045 0 .092-.006.137-.019l14-4c.267-.076.421-.353.344-.618z"/><path fill="#FFCC4D" d="M17.958 3.502l-12 1c-.026.002-.458.057-.458.498v6.095c-.299.186-.5.74-.5 2.405 0 2.485.448 4.5 1 4.5s1-2.015 1-4.5c0-1.665-.201-2.219-.5-2.405V5.46l11.542-.962c.274-.023.479-.264.456-.54-.023-.275-.268-.482-.54-.456z"/></svg>