<svg xmlns="http://www.w3.org/2000/svg" viewBox="0 0 36 36"><path fill="#D99E82" d="M30 26c0 2.209-1.791 4-4 4H4c-2.209 0-4-1.791-4-4V4c0-2.209 1.791-4 4-4h22c2.209 0 4 1.791 4 4v22z"/><path fill="#5C913B" d="M28 26c0 1.104-.896 2-2 2H4c-1.104 0-2-.896-2-2V4c0-1.105.896-2 2-2h22c1.104 0 2 .895 2 2v22z"/><path fill="#FFF" d="M7.515 8.898c-.08.096-.184.24-.184.408 0 .368.272.528.624.528h2.67c.304 0 .576-.16.576-.528s-.271-.528-.624-.528H9.114c.679-.855 1.919-1.958 1.919-3.07 0-1.015-.792-1.663-1.775-1.663s-1.879.807-1.879 1.815c0 .311.2.583.584.583.768 0 .328-1.295 1.247-1.295.328 0 .576.288.576.616 0 .288-.136.536-.28.744-.608.879-1.327 1.599-1.991 2.39zm-1.307 5.433H5.049v-1.16c0-.288-.184-.479-.48-.479-.295 0-.479.192-.479.479v1.16H2.931c-.296 0-.48.192-.48.479 0 .288.184.48.48.48H4.09v1.159c0 .288.184.479.479.479.296 0 .48-.191.48-.479V15.29h1.159c.296 0 .48-.192.48-.48 0-.287-.184-.479-.48-.479zm4.369 1.447H9.113c.68-.855 1.919-1.958 1.919-3.07 0-1.015-.792-1.663-1.775-1.663s-1.879.808-1.879 1.815c0 .311.2.583.583.583.768 0 .328-1.295 1.248-1.295.328 0 .576.288.576.616 0 .288-.136.536-.28.744-.608.879-1.327 1.599-1.991 2.391-.08.096-.184.24-.184.408 0 .368.272.528.624.528h2.67c.304 0 .576-.16.576-.528 0-.369-.271-.529-.623-.529zm.84 3.192H3.083c-.276 0-.5-.224-.5-.5s.224-.5.5-.5h8.333c.276 0 .5.224.5.5.001.276-.223.5-.499.5z"/><path fill="#E1E8ED" d="M36 36v-2c0-3.314-2.686-6-6-6H14c-3.313 0-6 2.686-6 6v2h28z"/><path fill="#F7DECE" d="M17.64 28.101c1.744 1.268 2.848 1.55 4.36 1.55 1.512 0 2.615-.283 4.359-1.55V24.29h-8.72v3.811z"/><path fill="#EEC2AD" d="M17.632 25.973c1.216 1.374 2.724 1.746 4.364 1.746 1.639 0 3.146-.373 4.363-1.746v-3.491h-8.728v3.491z"/><path fill="#F7DECE" d="M15.444 15.936c0 1.448-.734 2.622-1.639 2.622s-1.639-1.174-1.639-2.622.734-2.623 1.639-2.623c.905-.001 1.639 1.174 1.639 2.623m16.389 0c0 1.448-.733 2.622-1.639 2.622-.905 0-1.639-1.174-1.639-2.622s.733-2.623 1.639-2.623c.906-.001 1.639 1.174 1.639 2.623"/><path fill="#F7DECE" d="M13.477 16.959c0-5.589 3.816-10.121 8.523-10.121s8.522 4.532 8.522 10.121S26.707 27.08 22 27.08c-4.706 0-8.523-4.531-8.523-10.121"/><path fill="#292F33" d="M26.525 21.346l-1.268-.274c-.404-.094-1.173-.072-1.535-.072h-3.689c-.362 0-1.131-.022-1.536.071l-1.266.274c-.348.101-.55.393-.45.74.082.288.345.441.63.441.059 0 .12-.026.18-.042l1.267-.371c-.143.191-.181.446-.066.676.115.228.347.36.587.36.099 0 .199-.024.293-.071l1.034-.518c.022.215.139.414.346.518.094.046.195.069.293.069.241 0 .473-.134.587-.363l.068-.138-.053.138c.114.229.224.363.465.363.098 0 .198-.023.292-.069.207-.104.323-.303.347-.518l1.033.518c.095.047.195.071.293.071.241 0 .472-.132.587-.36.114-.229.076-.484-.066-.676l1.266.371c.059.016.121.042.181.042.285 0 .547-.152.63-.441.099-.347-.102-.639-.45-.739zM22 3.48c5.648 0 9.178 4.168 9.178 7.641s-.706 4.863-1.412 3.473l-1.412-2.778s-4.235 0-5.647-1.39c0 0 2.118 4.168-2.118 0 0 0 .706 2.779-3.53-.694 0 0-2.118 1.389-2.824 4.862-.196.964-1.412 0-1.412-3.473C12.822 7.648 15.646 3.48 22 3.48"/><path fill="#662113" d="M18 17c-.55 0-1-.45-1-1v-1c0-.55.45-1 1-1s1 .45 1 1v1c0 .55-.45 1-1 1m8 0c-.55 0-1-.45-1-1v-1c0-.55.45-1 1-1s1 .45 1 1v1c0 .55-.45 1-1 1"/><path fill="#C1694F" d="M22.75 19.75h-1.5c-.413 0-.75-.337-.75-.75s.337-.75.75-.75h1.5c.413 0 .75.337.75.75s-.337.75-.75.75"/><path fill="#99AAB5" d="M21.94 30.883s3.381 2.494 4.094 2.777c.156.062-.367-3.656-.367-3.656h-7.453s-.524 3.781-.235 3.625c.64-.342 3.961-2.746 3.961-2.746"/><path fill="#BE1931" d="M23.252 33.441s.375-.625.531-.906c.182-.328.453-1.57.453-1.57l-2.188-.961c0-.008-.16.006-.16.006l-.184.041-.172.062c-.219.07.094.008.094.016l-1.975.836s.287 1.242.471 1.57c.156.281.527.906.527.906s-.752.562-1.035 2.564h4.667c-.279-1.595-1.029-2.564-1.029-2.564"/><path fill="#F5F8FA" d="M17.229 26.629c.565.566 4.71 3.383 4.71 3.383s-2.125 1.242-4.086 3.535c-.195.23-1.542-4.625-1.584-5.709-.011-.303.69-1.481.96-1.209m9.441 0c-.566.566-4.709 3.383-4.709 3.383s2.125 1.242 4.084 3.535c.195.23 1.541-4.625 1.582-5.709.012-.303-.687-1.481-.957-1.209"/><path fill="#DD2E44" d="M21.955 30.691c.389-.021 1.543.771 1.422 1.25-.461 1.828-.85 1.391-1.391 1.391-.611 0-.965.473-1.391-1.312-.093-.387.798-1.297 1.36-1.329m2.031 5.313h-4.023s.541-2.166 2.018-2.166c1.476 0 2.005 2.166 2.005 2.166"/></svg>