<svg xmlns="http://www.w3.org/2000/svg" viewBox="0 0 36 36"><path fill="#F3D2A2" d="M26.007 1.015c-1.214-.871-3.488-.718-4.13.795-.638 1.502-.813 4.067.598 4.266 1.479.209 3.036.269 3.994-1.066.959-1.335.752-3.124-.462-3.995z"/><path fill="#F3D2A2" d="M25.99 5.295c2.544-1.808-2.238-2.778-2.238-2.778-.902-.194-.664 1.452-1.29 2.159-.431.49.708 1.096.708 1.096s.56.133.419.817l-.002.006c-.037.174-.107.374-.256.627-.743 1.253.866 2.543 1.609 1.287.294-.497.352-.985.382-1.441l.003-.041c.043-.679.036-1.285.665-1.732z"/><path fill="#FFE51E" d="M27.409 1.948C26.777.671 25.632-.212 23.332.206c-.937.17-1.279-.066-1.441.071-.778.661-.222 1.753.13 1.652 1.114-.321 1.948.069 2.068.535.12.466-.272 1.15-.092 1.2.486.137.528-.363.791-.59.431-.371.85.006.829.535-.017.42-.272 1.075-.953 1.03.196 1.086.998 1.604.998 1.604s.256.184.986-.652c.729-.836 1.389-2.375.761-3.643z"/><path fill="#292F33" d="M8.22 28.583s.108-.118.211-.409c.104-.291.147-.888.133-.98-.014-.092-.039-.164-.148-.171-.083-.006-.768.08-1.145-.039-.699-.22-.812-.957-.812-.957s-.46.083-.829.152c-.368.069-.818.209-1.134.274-.271.056-.548.03-.823-.03-.275-.06-.485-.147-.55-.165-.066-.017-.575-.27-.782.25l-.051.154s.811.718 2.114 1.182c1.303.464 1.639.152 2.481.452.843.3 1.335.287 1.335.287z"/><path fill="#292F33" d="M6.243 28.821c-.038-.07-.043-.253-.083-.292-.04-.039-.577-.11-.83-.137-.253-.027-.687-.076-1.158-.244-.471-.168-1.032-.523-1.375-.752-.343-.228-.594-.46-.646-.526s-.026-.078-.011-.107.119-.176.119-.176.196.213.569.459.754.467 1.458.717c.703.25 1.182.303 1.583.335.499.039 1.207.141 1.681.309.365.13.66.114.768.123.025.002.04.027.032.051l-.222.623c-.014.041-.081.121-.196.105s-1.651-.419-1.689-.488z"/><path fill="#4289C1" d="M25.097 17.21c.069 1.432-.391 2.922-1.505 3.202-1.066.268-3.056-.151-3.056-.151s-.698.408-.531 1.189c.095.444.257.67.201.712-.05.038-.486-.022-.684-.032-.528-.027-1.1-.211-2.073-.484-.974-.273-1.421-.285-2.481-.577-1.175-.324-1.986-.835-2.33-1.956-.293-.956.277-2.123 1.654-2.63 1.12-.412 4.339-.347 5.539-.231 1.201.118 5.206-.287 5.266.958z"/><path fill="#4289C1" d="M7.002 27.225c-.646-.143-1.293-.6-1.419-1.224 1.346-1.871 3.671-7.538 3.671-7.538.695-1.744 1.517-3.426 3.133-3.182 2.081.315 5.629 1.028 5.629 1.028 2.276.329 1.144 1.007 1.778 1.912.635.903-1.294 1.99-2.786 1.891-2.602-.173-3.877-.453-5.522.846-.8 2.306-2.071 4.087-2.844 6.406-.826.244-.993.004-1.64-.139z"/><path fill="#77B255" d="M25.569 16.971c-.211.688-.149 1.604-.515 1.362-1.444-.957-5.521-2.045-5.521-2.045.049-1.673.979-3.969 1.559-6.148.762-2.86 3.067-3.951 4.171-3.289 1.443.865 1.75 2.668 1.308 5.266s-.791 4.166-1.002 4.854z"/><path fill="#66757F" d="M27.811 10.609l.425-5.242c.022-.274.265-.48.539-.458.274.022.48.265.458.539l-.425 5.242c-.022.274-.265.48-.539.458-.274-.022-.48-.265-.458-.539z"/><path fill="#292F33" d="M16 21v2s-2 0-2 2v3c0 1 1 2 2 2h10c1 0 2-1 2-2v-5c0-1-1-2-2-2H16z"/><path fill="#292F33" d="M22.956 22.559l-9.848-1.736c-.985-.174-.985-.174-.811-1.158.096-.542.617-.907 1.158-.811l9.848 1.736c.542.096.907.617.811 1.158-.173.985-.173.985-1.158.811z"/><path fill="#292F33" d="M25.238 19.023c-.193.922-.557 1.827-2.094 1.537-1.537-.29-1.782 1.225-.824 1.493.958.267 3.252.646 3.921-.446.668-1.092.78-2.139.713-2.606s-1.572-.66-1.716.022z"/><path fill="#DD2E44" d="M23.442 22.896l-10.833-1.91c-.271-.048-.453-.308-.406-.579.048-.271.308-.453.579-.406l10.833 1.91c.271.048.453.308.406.579-.048.271-.309.454-.579.406z"/><path fill="#292F33" d="M28.932 9.642l-1.736 9.848c-.174.985-.174.985-1.158.811-.542-.096-.907-.617-.811-1.158l1.736-9.848c.096-.542.617-.907 1.158-.811.984.173.984.173.811 1.158zm.992-7.49l-.713 4.025c-.087.493-.168 1.007-1.153.834-.542-.096-.882-.715-.763-1.398l.639-3.609c.163-.579.626-1.004 1.167-.909.985.173.91.564.823 1.057z"/><path fill="#DD2E44" d="M29.406 9.224l-1.91 10.833c-.048.271-.308.453-.579.406-.271-.048-.453-.308-.406-.579l1.91-10.833c.048-.271.308-.453.579-.406.272.048.454.308.406.579zm1.243-7.455l-.91 5.18c-.048.271-.308.453-.579.406-.271-.048-.453-.308-.406-.579l.91-5.18c.048-.271.308-.453.579-.406.271.047.454.308.406.579z"/><path fill="#292F33" d="M25.494 18.441l-7.466-1.316c-.747-.132-.747-.132-.617-.869.071-.405.466-.678.877-.606l7.466 1.316c.411.072.688.463.617.869-.13.738-.13.738-.877.606z"/><path fill="#DD2E44" d="M23.123 21.824c.993.175 2.954.521 3.475-2.433s1.506-2.781.985.174-2.237 3.667-4.634 3.245c-1.969-.348-1.796-1.333.174-.986zm-10.33-1.821c1.971.34 2.277 1.422.308 1.07-.873-.156-.984.212-1.251.958-.252.702-.611 1.757-1.144 3.23-.391 1.082-1.279.603-.95-.342.551-1.588 1.061-2.968 1.392-3.847.338-.895.613-1.247 1.645-1.069z"/><path fill="#DD2E44" d="M10.62 24.01c-.258-.094-.547.04-.641.299l-2.052 5.638c-.094.258.04.547.299.641.258.094.547-.04.641-.299l2.052-5.638c.094-.259-.041-.547-.299-.641z"/><path fill="#66757F" d="M8.226 30.588L4.467 29.22c-.258-.094-.393-.382-.299-.641.094-.258.382-.393.641-.299l3.759 1.368c.258.094.393.382.299.641-.094.258-.383.393-.641.299z"/><path fill="#DD2E44" d="M13.844 30.862l2.95-2.95c.194-.194.194-.513 0-.707-.194-.194-.513-.194-.707 0l-2.95 2.95c-.194.194-.194.513 0 .707.194.194.512.194.707 0zM32 34c-.55 0-1-.45-1-1v-3c0-.55.45-1 1-1s1 .45 1 1v3c0 .55-.45 1-1 1z"/><path fill="#DD2E44" d="M13.5 34c-.55 0-1-.45-1-1v-3c0-.55.45-1 1-1s1 .45 1 1v3c0 .55-.45 1-1 1zm12.983-6.005h2c.275 0 .5-.225.5-.5s-.225-.5-.5-.5h-2c-.275 0-.5.225-.5.5s.225.5.5.5z"/><path fill="#DD2E44" d="M31.123 30.803l-2.95-2.95c-.194-.194-.194-.513 0-.707.194-.194.513-.194.707 0l2.95 2.95c.194.194.194.513 0 .707-.194.195-.512.195-.707 0z"/><path fill="#292F33" d="M11.672 16.127c.742.318 2.05.936 2.339 1.047 0 0 .134-.891.49-.891 0 0 .134-.468.223-.668s.356-.134.379.245c.022.379-.089.512-.089.512s.334.423.134 1.002c0 0 .446.067.356.624-.089.557.067.98-.334 1.092-.401.111-1.916.535-1.938-.067-.022-.601-.401-1.069-1.136-1.515-.735-.446-1.27-.936-1.181-1.181.088-.244.133-.467.757-.2z"/><path fill="#DD2E44" d="M26.5 25h-11c-.275 0-.5-.225-.5-.5s.225-.5.5-.5h11c.275 0 .5.225.5.5s-.225.5-.5.5z"/><path fill="#F3D2A2" d="M22.691 10.276c-.579 1.455-1.125 3.55-1.381 3.561-1.473.062-3.079.948-4.006.893-.672-.04-1.306-.167-1.651-.05-.552.187-1.159.289-1.351.632-.195.348.171.657 1.035.656.635 0 1.045.208 1.674.06.896-.21 3.986.754 5.665-.345.566-.371 1.441-1.871 2.525-4.663-1.084-.477-2.51-.744-2.51-.744z"/><circle fill="#66757F" cx="21.5" cy="31.5" r="4.5"/><circle fill="#66757F" cx="13.5" cy="33.5" r="2.5"/><circle fill="#66757F" cx="32" cy="34" r="2"/><circle fill="#CCD6DD" cx="21.5" cy="31.5" r="2.5"/><circle fill="#CCD6DD" cx="13.5" cy="33.5" r="1.5"/><circle fill="#292F33" cx="32" cy="34" r="1"/><g fill="#292F33"><circle cx="22" cy="30.634" r=".5"/><circle cx="21" cy="32.366" r=".5"/><circle cx="20.634" cy="31" r=".5"/><circle cx="22.366" cy="32" r=".5"/></g><circle fill="#292F33" cx="13.5" cy="33.5" r=".75"/><circle fill="#66757F" cx="32" cy="34" r=".5"/></svg>