<svg xmlns="http://www.w3.org/2000/svg" viewBox="0 0 36 36"><path fill="#963B22" d="M29.96 23.087C34 27 34.043 34.021 33.021 34.021s-4.115-1.852-6.068-3.937C25 28 25.203 23.306 25.203 23.306l1.586-4.319c0-.001-.869.187 3.171 4.1z"/><path fill="#963B22" d="M26.96 23.087C31 27 31.043 34.021 30.021 34.021s-4.115-1.852-6.068-3.937C22 28 22.203 23.306 22.203 23.306l1.586-4.319c0-.001-.869.187 3.171 4.1zM3 34c-1 0-1-7 3-11s3-4 3-4l2 4s0 5-2 7-5 4-6 4z"/><path fill="#963B22" d="M6 34c-1 0-1-7 3-11s3-4 3-4l2 4s0 5-2 7-5 4-6 4z"/><path fill="#D5AB88" d="M6.914 18.353c-.571-2.134-2.116-3.575-3.45-3.217-1.334.358-1.95 2.378-1.379 4.511.571 2.135 2.116 3.574 3.45 3.217 1.334-.358 1.951-2.378 1.379-4.511zm27.001 1.294c.571-2.134-.046-4.154-1.38-4.512-1.333-.356-2.878 1.083-3.449 3.218-.572 2.134.045 4.153 1.379 4.511 1.334.358 2.879-1.083 3.45-3.217z"/><path fill="#D5AB88" d="M31 19c0-9.389-5.82-16-13-16S5 9.611 5 19s5.82 15 13 15 13-5.611 13-15z"/><path fill="#DF1F32" d="M18 27.651c-2.42 0-4.274-.687-4.352-.715-.517-.194-.779-.771-.584-1.288.194-.517.769-.779 1.286-.585.016.006 1.61.588 3.65.588 2.041 0 3.635-.582 3.65-.588.516-.194 1.094.071 1.285.587.193.517-.067 1.092-.584 1.286-.077.029-1.93.715-4.351.715z"/><path fill="#C1694F" d="M19 23h-2c-.552 0-1-.447-1-1s.448-1 1-1h2c.553 0 1 .447 1 1s-.447 1-1 1z"/><path fill="#662113" d="M12 20c-.552 0-1-.447-1-1v-2c0-.552.448-1 1-1s1 .448 1 1v2c0 .553-.448 1-1 1zm12 0c-.553 0-1-.447-1-1v-2c0-.552.447-1 1-1s1 .448 1 1v2c0 .553-.447 1-1 1z"/><path fill="#963B22" d="M32 10c-2-7-7-9-10-9-2 0-4 2-4 2s-2-2-4-2c-3 0-8 2-10 9-1.648 5.769 1 11 1 11 0-3.001 2-9 7-9s6-4 6-4 .786 4 5.786 4S31 18 31 21c0 0 2.648-5.231 1-11z"/></svg>