<svg xmlns="http://www.w3.org/2000/svg" viewBox="0 0 36 36"><path fill="#AF7E57" d="M8 19c0 2.209-1.119 4-2.5 4S3 21.209 3 19s1.119-4 2.5-4S8 16.791 8 19zm25 0c0 2.209-1.119 4-2.5 4S28 21.209 28 19s1.119-4 2.5-4 2.5 1.791 2.5 4z"/><path fill="#AF7E57" d="M5 20.562c0-8.526 5.82-15.438 13-15.438s13 6.912 13 15.438S25.18 36 18 36 5 29.088 5 20.562z"/><path fill="#60352A" d="M13 20c-.552 0-1-.447-1-1v-2c0-.552.448-1 1-1s1 .448 1 1v2c0 .553-.448 1-1 1zm10 0c-.553 0-1-.447-1-1v-2c0-.552.447-1 1-1s1 .448 1 1v2c0 .553-.447 1-1 1z"/><path fill="#915A34" d="M19 24h-2c-.552 0-1-.447-1-1s.448-1 1-1h2c.553 0 1 .447 1 1s-.447 1-1 1z"/><path fill="#60352A" d="M25.274 27.038l-3.294-.941c.003-.034.02-.063.02-.097 0-.553-.447-1-1-1h-6c-.552 0-1 .447-1 1 0 .034.016.063.019.097l-3.294.941c-.531.152-.838.706-.686 1.236.125.44.525.726.961.726.091 0 .184-.013.275-.038l1.931-.552c-.216.293-.274.688-.1 1.037.175.351.528.553.895.553.15 0 .303-.034.446-.105l1.577-.788c.036.326.213.631.529.788.143.071.296.105.446.105.367 0 .72-.202.896-.553l.105-.211.105.211c.176.351.529.553.896.553.15 0 .303-.034.446-.105.315-.157.493-.462.529-.788l1.576.788c.144.071.297.105.447.105.367 0 .72-.202.896-.553.174-.349.116-.744-.1-1.037l1.931.552c.091.025.183.038.275.038.434 0 .835-.286.961-.726.151-.53-.156-1.084-.688-1.236zM18 0c8.615 0 14 6.358 14 11.656 0 5.298-1.077 7.417-2.154 5.298l-2.153-4.238s-6.462 0-8.615-2.12c0 0 3.23 6.358-3.231 0 0 0 1.077 4.239-5.385-1.06 0 0-3.23 2.12-4.308 7.417C5.855 18.423 4 16.954 4 11.656 4 6.357 8.308 0 18 0z"/></svg>