<svg xmlns="http://www.w3.org/2000/svg" viewBox="0 0 36 36"><path fill="#FFDC5D" d="M9 22v-4h5v4h2v6H7v-6z"/><path fill="#3B93D9" d="M21.916 36l.028-11.027c0-1.973-1-2.973-3-2.973h-5l-2.472 3.778L8.944 22h-6C1.165 22 1 23.193 1 24.973V36h20.916z"/><path fill="#1B6399" d="M16.945 26v10h1.027V26zM4.972 26v10H6V26z"/><path fill="#FFDC5D" d="M19 14V5L4 4v10h.024c.252 3.89 3.498 6.969 7.476 6.969 3.736 0 6.847-2.717 7.42-6.27.037-.23.064-.463.08-.699z"/><path fill="#FFAC33" d="M18.92 14.699c1.296-1.541 2.079-3.527 2.079-5.699 0-4.893-3.967-8.861-8.861-8.861-1.328 0-2.582.301-3.713.825.11-.007.379-.013.517-.017C5.026.979 1.86 4.16 1.86 8.084c0 1.992.822 3.785 2.14 5.078V10c6.07 0 9.688-2.576 11.495-4.603.48 1.507 1.518 3.772 3.505 4.419V14c-.016.236-.043.469-.08.699z"/><path fill="#BF6952" d="M14.666 17.723H8.222s.805 1.61 3.222 1.61c2.418 0 3.222-1.61 3.222-1.61zM11.944 15.5h-1c-.276 0-.5-.224-.5-.5s.224-.5.5-.5h1c.276 0 .5.224.5.5s-.223.5-.5.5z"/><path fill="#662113" d="M8 13c-.552 0-1-.448-1-1v-1c0-.552.448-1 1-1s1 .448 1 1v1c0 .552-.448 1-1 1zm7 0c-.552 0-1-.448-1-1v-1c0-.552.448-1 1-1s1 .448 1 1v1c0 .552-.448 1-1 1z"/><path fill="#FFDC5D" d="M32.994 26.047L32.992 26H33v-6h-3.557c-1.018-.574-2.192-.906-3.446-.906s-2.428.332-3.446.906H19v6h.002l-.002.047c0 3.353 2.39 6.152 5.569 6.807.461.095.938.146 1.428.146.492 0 .972-.052 1.435-.148 3.176-.658 5.562-3.454 5.562-6.805z"/><path fill="#F4900C" d="M27.432 32.852c-.264.511-.432.921-.432 1.148 4.656 0 9-3 9-3-1.125-3.688-1.666-8.139-1.666-8.139 0-4.342-3.519-7.861-7.861-7.861-1.245 0-2.418.297-3.464.812-3.33.07-6.009 2.787-6.009 6.133 0 .828.165 1.617.464 2.337-.25 1.611-.733 4.322-1.464 6.718 0 0 4.344 3 9 3 0-.227-.167-.636-.431-1.146C21.39 32.198 19 29.4 19 26.047l.002-.047H19v-3.036c4.856-.18 7.656-1.81 9.204-3.332 1.065 1.257 2.765 2.841 4.796 3.257V26h-.008l.002.047c0 3.351-2.386 6.147-5.562 6.805z"/><path fill="#FFDC5D" d="M28 35v-4h-4v4h-1v1h6v-1z"/><path fill="#EA596E" d="M26 36h8.818c-.518-1.602-2.159-3-3.818-3h-3l-2 3z"/><path fill="#EA596E" d="M22 33c-2.493 0-4.276 1.385-4.814 3H26l-2-3h-2z"/><path fill="#BF6952" d="M29 30h-6s.583 2 3 2 3-2 3-2zm-3-.5c-.13 0-.26-.05-.35-.15-.1-.09-.15-.22-.15-.35s.05-.26.15-.36c.17-.17.52-.18.71.01.09.09.14.22.14.35s-.05.26-.15.35c-.09.1-.22.15-.35.15z"/><path fill="#662113" d="M23 28c-.552 0-1-.447-1-1v-1c0-.553.448-1 1-1s1 .447 1 1v1c0 .553-.448 1-1 1zm6 0c-.553 0-1-.447-1-1v-1c0-.553.447-1 1-1 .553 0 1 .447 1 1v1c0 .553-.447 1-1 1z"/></svg>