<svg xmlns="http://www.w3.org/2000/svg" viewBox="0 0 36 36"><path fill="#FFDC5D" d="M15.438 22v-3h5v3h1.861v6h-9v-6z"/><path fill="#3B93D9" d="M25.472 22h-5L18 25.778 15.438 22H9.472c-1.779 0-1.945 1.193-1.945 2.973V36h20.945V24.973c0-1.973-1-2.973-3-2.973z"/><path fill="#1B6399" d="M23.486 26h1.028v10h-1.028zm-12 0h1.028v10h-1.028z"/><path fill="#FFDC5D" d="M25.438 14V5l-15-1v10h.024c.252 3.89 3.498 6.969 7.476 6.969 3.806 0 6.957-2.822 7.443-6.473.022-.165.046-.329.057-.496z"/><path fill="#FFAC33" d="M25.381 14.495c1.197-1.511 1.917-3.418 1.917-5.495 0-4.893-3.967-8.861-8.861-8.861-1.328 0-2.582.301-3.713.825.11-.007.379-.013.517-.017-3.916.032-7.082 3.213-7.082 7.137 0 2.058.884 3.898 2.278 5.199V10c6.07 0 9.549-2.576 11.356-4.603.491 1.542 1.565 3.883 3.644 4.466V14c-.01.167-.034.331-.056.495z"/><path fill="#BF6952" d="M21.16 17.723h-6.444s.805 1.61 3.222 1.61 3.222-1.61 3.222-1.61zM18.438 15.5h-1c-.276 0-.5-.224-.5-.5s.224-.5.5-.5h1c.276 0 .5.224.5.5s-.224.5-.5.5z"/><path fill="#662113" d="M14.438 13c-.552 0-1-.448-1-1v-1c0-.552.448-1 1-1s1 .448 1 1v1c0 .552-.448 1-1 1zm7 0c-.552 0-1-.448-1-1v-1c0-.552.448-1 1-1s1 .448 1 1v1c0 .552-.448 1-1 1z"/><path fill="#FFDC5D" d="M29 34v-3h-4v3h-1v2h6v-2z"/><path fill="#88C9F9" d="M25 33h-2c-2.493 0-4.276 1.385-4.814 3h17.632c-.518-1.602-2.159-3-3.818-3h-3l-.466.466L27 35l-2-2z"/><path fill="#FFDC5D" d="M32.995 27.04l-.002-.04H33v-4.286l-4.286-.857-7.714.857V27h.002l-.002.04c0 .644.106 1.263.296 1.844.782 2.388 3.037 4.116 5.701 4.116 2.659 0 4.911-1.722 5.697-4.103.193-.585.301-1.208.301-1.857z"/><path fill="#F4900C" d="M34 25.125C34 21.742 31.258 19 27.875 19c-.298 0-.588.029-.875.07-.287-.041-.577-.07-.875-.07C22.742 19 20 21.742 20 25.125c0 1.418.487 2.721 1.296 3.759-.19-.581-.296-1.2-.296-1.844l.002-.04H21v-1.911c4.172-.181 6.588-1.592 7.929-2.91.91 1.074 2.351 2.414 4.071 2.816V27h-.007l.002.04c0 .649-.108 1.272-.301 1.857.816-1.04 1.306-2.348 1.306-3.772z"/><path fill="#BF6952" d="M29 30h-4s.389 1.333 2 1.333S29 30 29 30zm-2-.5c-.13 0-.26-.05-.35-.15-.1-.09-.15-.22-.15-.35s.05-.26.15-.36c.17-.17.52-.18.71.01.09.09.14.22.14.35s-.05.26-.15.35c-.09.1-.22.15-.35.15z"/><path fill="#662113" d="M29 28c-.461 0-.833-.373-.833-.833v-.833c0-.461.373-.833.833-.833.461 0 .833.373.833.833v.833c0 .46-.372.833-.833.833zm-4 0c-.461 0-.833-.373-.833-.833v-.833c0-.461.373-.833.833-.833.461 0 .833.373.833.833v.833c0 .46-.372.833-.833.833z"/><path fill="#FFDC5D" d="M3 22.714V27h.002L3 27.04C3 30.331 5.685 33 8.997 33s5.997-2.669 5.997-5.96l-.002-.04H15v-4.286l-4.286-.857L3 22.714z"/><path fill="#F4900C" d="M15.997 25.192c0-.023.003-.044.003-.067l-.002-.039L16 25l-.006.006C15.93 21.679 13.218 19 9.875 19c-.298 0-.588.029-.875.07-.287-.041-.577-.07-.875-.07C4.742 19 2 21.742 2 25.125c0 0 .125 3.188-1 6.875 0 0 3.344 2 8 2s8-2 8-2c-.968-3.172-1.01-6.061-1.003-6.808zm-1.002 1.848c0 3.291-2.685 5.96-5.997 5.96C5.685 33 3 30.331 3 27.04l.002-.04H3v-1.911c4.172-.181 6.588-1.592 7.929-2.91.91 1.074 2.351 2.414 4.071 2.816V27h-.007l.002.04z"/><path fill="#FFDC5D" d="M11 34v-3H7v3H6v2h6v-2z"/><path fill="#EA596E" d="M14 33h-3l-2 2-1.41-1.41L7 33H5C2.507 33 .724 34.385.186 36h17.632c-.518-1.602-2.159-3-3.818-3z"/><path fill="#BF6952" d="M11 30H7s.389 1.333 2 1.333S11 30 11 30zm-2-.5c-.13 0-.26-.05-.35-.15-.1-.09-.15-.22-.15-.35s.05-.26.15-.36c.17-.17.52-.18.71.01.09.09.14.22.14.35s-.05.26-.15.35c-.09.1-.22.15-.35.15z"/><path fill="#662113" d="M11 28c-.461 0-.833-.373-.833-.833v-.833c0-.461.373-.833.833-.833.461 0 .833.373.833.833v.833c0 .46-.372.833-.833.833zm-4 0c-.461 0-.833-.373-.833-.833v-.833c0-.461.372-.834.833-.834.461 0 .833.373.833.833v.833c0 .461-.372.834-.833.834z"/></svg>