<svg xmlns="http://www.w3.org/2000/svg" viewBox="0 0 36 36"><path fill="#F2760F" d="M32.043 36L32 35c0-4-2.957-7-7.957-7h-12C7.043 28 4 31 4 35l.043 1h28z"/><path fill="#FFF75F" d="M9 28.298V36h3v-8c-1.103 0-2.102.103-3 .298zM24 28v8h3v-7.702c-.898-.195-1.897-.298-3-.298z"/><path fill="#292F33" d="M13 27h10v4H13z"/><path fill="#292F33" d="M14 27h8s-1.018 7-4 7-4-7-4-7"/><path fill="#FFDC5D" d="M13.64 30.038c1.745 1.268 2.849 1.963 4.36 1.963s2.615-.696 4.359-1.963v-5.749h-8.72v5.749z"/><path fill="#F9CA55" d="M13.632 25.973c1.216 1.374 2.724 1.746 4.364 1.746 1.639 0 3.146-.373 4.363-1.746v-3.491h-8.728v3.491z"/><path fill="#FFAC33" d="M21.513 4.15c-1.881-.608-6.306-.443-7.412.996-2.876.055-6.25 2.654-6.693 6.084-.438 3.394.538 4.97.885 7.523.393 2.892 2.019 3.817 3.319 4.204 1.87 2.47 3.858 2.365 7.195 2.365 6.518 0 9.622-4.361 9.896-11.768.167-4.481-2.462-7.874-7.19-9.404z"/><path fill="#FFDC5D" d="M25.24 13.87c-.631-.873-1.438-1.576-3.208-1.825.664.304 1.3 1.355 1.383 1.936.083.581.166 1.051-.359.47-2.105-2.327-4.397-1.411-6.669-2.832-1.587-.993-2.07-2.091-2.07-2.091s-.194 1.466-2.6 2.959c-.697.433-1.53 1.397-1.991 2.821-.332 1.023-.229 1.936-.229 3.496 0 4.553 3.752 8.38 8.38 8.38s8.38-3.861 8.38-8.38c-.001-2.833-.297-3.939-1.017-4.934z"/><path fill="#C1694F" d="M18.807 21.131h-1.862c-.257 0-.466-.208-.466-.466s.208-.466.466-.466h1.862c.257 0 .466.208.466.466s-.208.466-.466.466zM18 24.467c-2.754 0-3.6-.705-3.74-.848-.257-.256-.257-.671 0-.927.248-.248.644-.255.902-.023.051.037.721.487 2.838.487 2.201 0 2.836-.485 2.842-.49.256-.255.658-.243.914.015.256.256.242.683-.014.938-.142.143-.988.848-3.742.848"/><path fill="#662113" d="M14.152 17.872c-.514 0-.931-.417-.931-.931v-.931c0-.514.417-.931.931-.931s.931.417.931.931v.931c0 .514-.417.931-.931.931zm7.449 0c-.514 0-.931-.417-.931-.931v-.931c0-.514.417-.931.931-.931s.931.417.931.931v.931c0 .514-.417.931-.931.931z"/><path fill="#292F33" d="M19 34.938l-1 1.061-1-1v-3h2z"/><path fill="#55ACEE" d="M11 28c0 1 1 3 3 5 1.582 1.581 4 3 4 3 0-3.063-1-4-2-5s-3-2-3-4c0-1-2 1-2 1m14 0c0 1-1 3-3 5-1.58 1.581-4 3-4 3 0-3.063 1-4 2-5s3-2 3-4c0-1 2 1 2 1"/><path fill="#FFF75F" d="M30 11c-3-2-1.008-4.169-3-7-1.873-2.663-5-4-9.002-4C13 0 10.874 1.337 9 4c-1.992 2.831 0 5-3 7-1.861 1.24 6 2.313 12 2.313S31.861 12.24 30 11"/><path fill="#FFAC33" d="M16 11.5V.088c-.35.032-.683.074-1 .124v10.281c-2.09-.05-5.124-.396-7.653-.853-.174.297-.41.59-.73.877 2.91.566 6.596.983 8.883.983h.5zm12.855-1.553c-2.853.304-5.839.517-7.855.549V.292c-.323-.066-.66-.112-1-.155V11.5h.5c2.018 0 5.796-.261 9.289-.657-.402-.295-.708-.593-.934-.896z"/></svg>