<svg xmlns="http://www.w3.org/2000/svg" viewBox="0 0 36 36"><path fill="#CCD6DD" d="M35 17c0 9.389-13.223 19-17 19-3.778 0-17-9.611-17-19S8.611 0 18 0s17 7.611 17 17z"/><path fill="#292F33" d="M13.503 14.845c3.124 3.124 4.39 6.923 2.828 8.485-1.562 1.562-5.361.297-8.485-2.828-3.125-3.124-4.391-6.923-2.828-8.485s5.361-.296 8.485 2.828zm8.994 0c-3.124 3.124-4.39 6.923-2.828 8.485 1.562 1.562 5.361.297 8.485-2.828 3.125-3.125 4.391-6.923 2.828-8.485-1.562-1.562-5.361-.297-8.485 2.828zM18 31c-2.347 0-3.575-1.16-3.707-1.293-.391-.391-.391-1.023 0-1.414.387-.387 1.013-.391 1.404-.01.051.047.806.717 2.303.717 1.519 0 2.273-.689 2.305-.719.398-.374 1.027-.363 1.408.029.379.393.38 1.011-.006 1.396C21.575 29.84 20.347 31 18 31z"/></svg>