<svg xmlns="http://www.w3.org/2000/svg" viewBox="0 0 36 36"><path fill="#FA743E" d="M31.99 36v-2c0-3.314-3.685-6-7-6h-14c-3.313 0-7 2.686-7 6v2h28z"/><path fill="#963B22" d="M21.906 3.262c-2.02-.653-6.772-.475-7.96 1.069-3.089.059-6.713 2.851-7.188 6.535-.47 3.645.578 5.338.951 8.079.422 3.106 2.168 4.099 3.564 4.515C13.28 26.114 15.415 26 19 26c7 0 10.334-4.684 10.629-12.639.178-4.811-2.645-8.456-7.723-10.099z"/><path fill="#D4AB88" d="M15 24v4c0 1.657 1.343 3 3 3s3-1.343 3-3v-4h-6z"/><path fill="#CC9B7A" d="M14.519 26.997c1.058 1.207 2.049 1.51 3.477 1.51 1.426 0 2.426-.304 3.485-1.51v-3.515H14.52v3.515z"/><path fill="#D4AB88" d="M25.909 13.701c-.677-.938-1.544-1.693-3.445-1.96.713.327 1.396 1.455 1.485 2.079.089.624.178 1.129-.386.505-2.261-2.499-4.723-1.515-7.163-3.041-1.704-1.066-2.223-2.246-2.223-2.246s-.208 1.574-2.792 3.178c-.749.465-1.643 1.5-2.139 3.03C8.889 16.345 9 17.325 9 19c0 4.889 4.029 9 9 9s9-4.147 9-9c0-3.041-.319-4.229-1.091-5.299z"/><path fill="#C1694F" d="M22 24h-8s1 2 4 2 4-2 4-2zm-3-2.5h-2c-.276 0-.5-.224-.5-.5s.224-.5.5-.5h2c.276 0 .5.224.5.5s-.224.5-.5.5z"/><path fill="#662113" d="M14 18c-.552 0-1-.448-1-1v-1c0-.552.448-1 1-1s1 .448 1 1v1c0 .552-.448 1-1 1zm8 0c-.552 0-1-.448-1-1v-1c0-.552.448-1 1-1s1 .448 1 1v1c0 .552-.448 1-1 1z"/><path fill="#D4AB88" d="M26.697 15.571c-.248-1.197-.888-3.323-2.333-5.057S20.132 6.2 16.375 7.253s-4.397 4.768-3.22 5.966c.787.8 6.069-.092 9.516 1.445 2.037.907 4.026.907 4.026.907z"/><path fill="#E6E7E8" d="M18.295 9.73s9.543 2.516 11.006 7.046c.638-1.383 1.008-4.409 1.008-6.118 0-5.197-4.005-8.962-10.512-8.962h-3.003c-5.506 0-10.512 3.765-10.512 8.962 0 1.708.37 4.96 1.007 6.342 1.463-4.532 11.006-7.27 11.006-7.27z"/><path fill="#D1D3D4" d="M26.636 9.045c.919-.123 1.836-.207 2.749-.207.271 0 .508-.123.679-.311-.137-.535-.329-1.05-.568-1.542-.038-.005-.072-.022-.111-.022-3.784 0-7.613.961-11.383 2.854.186-.057.294-.087.294-.087s1.088.287 2.585.84c.87-.351 1.741-.631 2.612-.876.02.008.034.025.055.032 2.224.752 4.652 2.241 6.505 3.959.112-.787.188-1.578.226-2.274-1.127-.912-2.374-1.708-3.643-2.366zM6.437 12.948c2.679-1.943 11.569-7.771 21.813-7.852-.579-.677-1.257-1.281-2.015-1.796-8.951.674-16.605 5.197-19.946 7.475.013.616.061 1.371.148 2.173zm.095-4.434C9.839 6.366 16.13 3.25 23.125 2.016c-1.061-.319-2.182-.319-3.328-.319h-2.355C13.805 3.13 10.564 4.21 8.068 5.605c-.715.918-1.247 1.779-1.536 2.909z"/><path fill="#DD551F" d="M24.99 28h-2.607c-3.719 1.618-7.837 4.462-11.434 8h2.174c5.032-4.63 10.088-7.141 13.512-7.785-.547-.136-1.101-.215-1.645-.215z"/></svg>