<svg xmlns="http://www.w3.org/2000/svg" viewBox="0 0 36 36"><path fill="#292F33" d="M32 23s7 0 1-8c0 0 6-2-2-7 0 0 6-6.017-7-3 0 0 0-5-2-5s-4 4-4 4-2-4-4-4-2 5-2 5C-1 1.928 5 8 5 8c-8 5-2 7-2 7-6 8 1 8 1 8s-4 2-4 5 3 2 6 2c-7 9 12 1 12 1s19 8 12-1c3 0 6 1 6-2s-4-5-4-5z"/><path fill="#DD2E44" d="M28.963 16s-.26-6.519-3.982-9C21.982 5 20 5 18 5c-2.089 0-4 0-7 2-3.721 2.481-4 9-4 9-1 0-2.271 2.291-2 5 .289 2.889 2 4 2 4 0 4 3 7 3 7 0 2 0 3 4 3h7.963c4.037 0 4-1 4-3 0 0 3-3 3-7 0 0 1.711-1.111 2-4 .271-2.709-1-5-2-5z"/><path fill="#292F33" d="M25.178 25.622c-.845.445-4.378 1.467-7.178 1.467-3 0-6.508-1.022-7.353-1.467-.844-.444-1.776.344-1.51 1.867.363 2.074 1.253 4.684 3.387 4.195C13.224 31.524 15 30 18 30c3.022 0 4.645 1.524 5.345 1.684 2.133.489 2.893-2.122 3.255-4.195.267-1.523-.578-2.311-1.422-1.867z"/><g fill="#FFF"><path d="M25.721 28.741l-.805-3c-1.155.485-4.343 1.348-6.917 1.348-2.835 0-6.12-.912-7.186-1.388l-.815 3.04c-.142.531.176 1.082.707 1.225.531.142 1.082-.176 1.225-.707l.748-2.331c.892.344 3.114.664 5.322.66 2.161-.004 4.308-.324 5.18-.66l.616 2.331c.142.531.689.849 1.22.707.532-.142.848-.694.705-1.225z"/><path d="M22.929 29.906c.086-.403-.174-.804-.578-.889-.403-.086-.804.174-.889.578l-.119.643c-.351-.19-1.839-.646-3.343-.649-1.553-.003-3.125.454-3.484.649l-.198-.643c-.086-.404-.517-.664-.92-.578-.403.086-.679.486-.593.889l.318 1.514C14.038 30.941 15.632 30 18 30c2.255 0 3.729.847 4.624 1.345l.305-1.439z"/></g><path fill="#55ACEE" d="M13.496 14.984l-2.38-.506c-1.636-.348-3.259.706-3.607 2.342-.348 1.636.706 3.259 2.342 3.607l2.38.506c1.636.348 3.259-.706 3.607-2.342.348-1.636-.706-3.259-2.342-3.607zm9.008-.239l2.38-.506c1.636-.348 3.259.706 3.607 2.342.348 1.636-.706 3.259-2.342 3.607l-2.38.506c-1.636.348-3.259-.706-3.607-2.342-.348-1.636.706-3.259 2.342-3.607z"/><path fill="#FFCC4D" d="M13.737 15.47l-1.956-.416c-1.345-.286-2.679.581-2.965 1.926-.286 1.345.581 2.679 1.926 2.965l1.956.416c1.345.286 2.679-.581 2.965-1.926.285-1.344-.581-2.679-1.926-2.965z"/><circle fill="#292F33" cx="12.739" cy="17.708" r="1.5"/><path fill="#FFCC4D" d="M22.263 15.47l1.956-.416c1.345-.286 2.679.581 2.965 1.926.286 1.345-.581 2.679-1.925 2.965l-1.956.416c-1.345.286-2.679-.581-2.965-1.926-.286-1.344.58-2.679 1.925-2.965z"/><circle fill="#292F33" cx="23.261" cy="17.708" r="1.5"/><path fill="#A0041E" d="M18 26.5c-1.86 0-2.647-1.005-2.901-1.855-.543.128-1.345.209-1.929-.187-.305-.207-.67-.628-.67-1.458 0-.276.224-.5.5-.5s.5.224.5.5c0 .474.173.591.231.63.373.254 1.229.046 1.585-.095.153-.061.328-.042.465.052.136.093.219.247.219.413.003.149.083 1.5 2 1.5 1.978 0 2-1.438 2-1.5 0-.166.082-.32.22-.413.136-.094.309-.113.465-.052.356.142 1.211.35 1.585.095.057-.039.23-.156.23-.63 0-.276.224-.5.5-.5s.5.224.5.5c0 .83-.364 1.251-.671 1.458-.584.396-1.386.314-1.929.187-.253.85-1.041 1.855-2.9 1.855z"/><path fill="#BE1931" d="M23.663 34.095c-.63 0-1.292-.273-1.975-.816-.96-.765-1.864-1.484-3.688-1.484s-2.729.72-3.687 1.483c-1.186.945-2.439.944-3.624.002-.216-.172-.252-.487-.08-.703.171-.216.486-.252.703-.08.821.654 1.556.654 2.377 0 1.003-.798 2.138-1.701 4.311-1.701 2.174 0 3.309.903 4.31 1.7.578.46 1.096.654 1.531.587.477-.075.729-.449.738-.465.151-.229.46-.296.69-.147.229.148.3.452.154.684-.049.077-.5.759-1.403.912-.118.018-.237.028-.357.028z"/><path fill="#F4900C" d="M6.002.95c.026-.497.435-.896.92-.936.632-.053.912.447 1.146.953.73 1.574 1.508 3.121 2.544 4.52.72.973 1.589 2.014 2.696 2.564.589.197.862.911.55 1.449.525.911-.513 1.79-1.366 1.364-1.16.67-3.078-1.545-3.733-2.334-.846-1.019-1.496-2.191-1.954-3.43-.469-1.27-.883-2.779-.803-4.15zm23.988 0c-.026-.497-.435-.896-.92-.936-.632-.053-.912.447-1.146.953-.73 1.574-1.508 3.121-2.544 4.52-.72.973-1.589 2.014-2.696 2.564-.589.197-.862.911-.55 1.449-.525.911.513 1.79 1.366 1.364 1.16.67 3.078-1.545 3.733-2.334.846-1.018 1.496-2.19 1.954-3.429.469-1.271.883-2.78.803-4.151z"/><path fill="#292F33" d="M15 16c-4.254 0-7.422-2.08-7.555-2.168-.459-.306-.583-.927-.277-1.387.306-.458.926-.583 1.385-.279C8.581 12.185 11.372 14 15 14c.552 0 1 .448 1 1s-.448 1-1 1zm6 0c-.553 0-1-.448-1-1s.447-1 1-1c3.655 0 6.418-1.814 6.445-1.832.46-.307 1.08-.183 1.387.277.307.46.183 1.081-.277 1.387C28.422 13.92 25.254 16 21 16z"/></svg>