<svg xmlns="http://www.w3.org/2000/svg" viewBox="0 0 36 36"><path fill="#77B255" d="M31.99 36v-2c0-3.314-2.685-6-6-6h-16c-3.313 0-6 2.686-6 6v2h28z"/><path fill="#5C913B" d="M13.123 36c5.274-4.852 10.596-7.402 14.013-7.888-.371-.072-.754-.112-1.146-.112h-3.607c-3.719 1.618-7.837 4.462-11.434 8h2.174z"/><path fill="#7C533E" d="M13.63 28.101c1.744 1.268 2.848 1.963 4.36 1.963 1.512 0 2.615-.696 4.359-1.963V24.29h-8.72v3.811zm-2.195-12.165c0 1.448-.734 2.622-1.639 2.622s-1.639-1.174-1.639-2.622.734-2.623 1.639-2.623c.905-.001 1.639 1.174 1.639 2.623m16.388 0c0 1.448-.733 2.622-1.639 2.622-.905 0-1.639-1.174-1.639-2.622s.733-2.623 1.639-2.623c.906-.001 1.639 1.174 1.639 2.623"/><path fill="#7C533E" d="M9.468 16.959c0-5.589 3.733-11.001 8.439-11.001 4.707 0 8.605 5.412 8.605 11.001 0 5.589-3.815 10.121-8.522 10.121-4.706 0-8.522-4.531-8.522-10.121"/><path d="M13.99 17c-.55 0-1-.45-1-1v-1c0-.55.45-1 1-1s1 .45 1 1v1c0 .55-.45 1-1 1m8 0c-.55 0-1-.45-1-1v-1c0-.55.45-1 1-1s1 .45 1 1v1c0 .55-.45 1-1 1"/><path fill="#3D2E24" d="M18.74 19.75h-1.5c-.413 0-.75-.337-.75-.75s.337-.75.75-.75h1.5c.413 0 .75.337.75.75s-.337.75-.75.75"/><path fill="#0B0200" d="M24.308 20.273c-.704.789-2.115 2.366-3.526 1.577-1.993-1.114-2.82-.788-2.82-.788s-.826-.326-2.82.788c-1.41.789-2.82-.788-3.525-1.577-.498-.557-2.115-1.576-2.115 0 0 2.366 1.41 3.943 1.41 3.943 1.411 3.941 4.23 3.941 4.23 3.941.706.789 4.936.789 5.641 0 0 0 2.822 0 4.23-3.941 0 0 1.411-1.577 1.411-3.943-.001-1.576-1.618-.556-2.116 0zM18 23.881c-3 0-5-1.381 0-1.381s3 1.381 0 1.381z"/><path fill="#E6E7E8" d="M18 9.934s7.149 1.858 8.245 5.204c.478-1.021.755-3.257.755-4.518C27 6.781 24 4 19.125 4h-2.25C12.75 4 9 6.781 9 10.62c0 1.262.277 3.664.754 4.684C10.851 11.957 18 9.934 18 9.934z"/><path fill="#D1D3D4" d="M24.248 9.428c.688-.091 1.376-.153 2.06-.153.203 0 .381-.091.509-.229-.102-.395-.246-.775-.426-1.139-.028-.004-.054-.016-.083-.016-2.835 0-5.703.71-8.528 2.108.139-.043.22-.065.22-.065s.815.212 1.937.621c.652-.259 1.304-.466 1.957-.647.015.006.025.018.041.024 1.666.555 3.485 1.655 4.873 2.924.084-.582.141-1.166.169-1.68-.844-.674-1.778-1.262-2.729-1.748zM9.117 12.311c2.007-1.436 8.667-5.74 16.341-5.8-.434-.5-.941-.946-1.51-1.327-6.706.498-12.44 3.839-14.943 5.521.01.456.046 1.014.112 1.606zm.071-3.275c2.477-1.586 7.19-3.888 12.431-4.8C20.823 4 19.983 4 19.125 4H17.36c-2.725 1.059-5.152 1.857-7.022 2.887-.536.678-.934 1.314-1.15 2.149z"/></svg>