<svg xmlns="http://www.w3.org/2000/svg" viewBox="0 0 36 36"><path fill="#DD2E44" d="M30 36v-1c0-3.313-1.687-6-5-6H11c-3.313 0-5 2.687-5 6v1h24z"/><path fill="#292F33" d="M27 6c0-3.3-2.7-6-6-6h-6c-3.3 0-6 2.7-6 6v12c0 4.971 4.029 5 9 5s9-.029 9-5V6z"/><path fill="#D5AB88" d="M14.626 29.456c1.344.976 2.195 1.194 3.36 1.194s2.016-.218 3.36-1.194v-2.938h-6.721v2.938z"/><path fill="#CC9B7A" d="M14.62 27.816c.938 1.059 2.1 1.345 3.364 1.345 1.264 0 2.426-.287 3.364-1.345v-2.691H14.62v2.691z"/><path fill="#D5AB88" d="M25.565 20.08c0-1.116-.565-2.021-1.263-2.021-.064 0-.125.015-.186.03-.009-.03-.016-.06-.026-.089H11.883c-.01.029-.016.059-.026.089-.061-.015-.123-.03-.186-.03-.698 0-1.263.905-1.263 2.021 0 1.025.479 1.863 1.097 1.994.489 3.734 3.201 6.595 6.482 6.595s5.993-2.861 6.482-6.595c.618-.132 1.096-.969 1.096-1.994z"/><path fill="#C1694F" d="M17.987 26.143c-2.123 0-2.774-.544-2.884-.653-.197-.197-.197-.517 0-.714.191-.191.497-.197.695-.018.04.029.556.376 2.188.376 1.695 0 2.186-.374 2.191-.377.197-.196.506-.187.704.01.197.197.187.527-.011.724-.109.108-.761.652-2.883.652zm.578-3.123h-1.156c-.318 0-.578-.26-.578-.578 0-.318.26-.578.578-.578h1.156c.318 0 .578.26.578.578 0 .318-.261.578-.578.578z"/><path fill="#662113" d="M14.904 20.9c-.424 0-.771-.347-.771-.771v-.771c0-.424.347-.771.771-.771.424 0 .771.347.771.771v.771c-.001.424-.348.771-.771.771zm6.165 0c-.424 0-.771-.347-.771-.771v-.771c0-.424.347-.771.771-.771.424 0 .771.347.771.771v.771c0 .424-.347.771-.771.771z"/><path fill="#292F33" d="M12.578 30.461l-4.653.737c-.272.043-.529-.144-.572-.416l-.156-.988c-.043-.272.144-.529.416-.572l4.653-.737c.272-.043.529.144.572.416l.156.988c.043.271-.144.529-.416.572zm10.87 0l4.653.737c.272.043.529-.144.572-.416l.156-.988c.043-.272-.144-.529-.416-.572l-4.653-.737c-.272-.043-.529.144-.572.416l-.156.988c-.043.271.144.529.416.572z"/><path fill="#99AAB5" d="M11.875 18s-.174 9 6.113 9 6.137-9 6.137-9H25s-.307 10-7 10-7-10-7-10h.875z"/><path fill="#F5F8FA" d="M17.5 31h1v5h-1z"/><path fill="#292F33" d="M21.38 27.816C21.38 29.391 19.144 30 18 30s-3.38-.609-3.38-2.184c0 0-.62-.127-.62 1.184s1.888 3 4 3 4-1.689 4-3-.62-1.184-.62-1.184z"/></svg>