<svg xmlns="http://www.w3.org/2000/svg" viewBox="0 0 36 36"><path fill="#FFE51E" d="M14 0c-1.721 0-3.343.406-4.793 1.111C8.814 1.043 8.412 1 8 1 4.134 1 1 4.134 1 8v12h.018C1.201 26.467 6.489 31.656 13 31.656c6.511 0 11.799-5.189 11.982-11.656H25v-9c0-6.075-4.925-11-11-11z"/><path fill="#9268CA" d="M22 27H4c-2.209 0-4 1.791-4 4v5h26v-5c0-2.209-1.791-4-4-4z"/><path fill="#7450A8" d="M21 32h1v4h-1zM4 32h1v4H4z"/><path fill="#F3D2A2" d="M10 22v6c0 1.657 1.343 3 3 3s3-1.343 3-3v-6h-6z"/><path fill="#F3D2A2" d="M9 5s-.003 5.308-5 5.936V17c0 4.971 4.029 9 9 9s9-4.029 9-9v-5.019C10.89 11.605 9 5 9 5z"/><path fill="#DF1F32" d="M17 22H9s1 2 4 2 4-2 4-2z"/><path fill="#9268CA" d="M29 36h-7l1-17h6z"/><path fill="#E2C196" d="M31.541 15.443c-.144-.693-.822-1.139-1.517-.997L27.35 15H25c-1.104 0-2 .896-2 2v2h5c1.079 0 1.953-.857 1.992-1.927l.355-.073H31c0-.074-.028-.144-.045-.216.444-.276.698-.799.586-1.341z"/><path fill="#F3D2A2" d="M36 16c0-.552-.447-1-1-1l-6 1h-5c-.553 0-1 .448-1 1v2h6l6-2s1-.447 1-1z"/><path fill="#C1694F" d="M14 19.5h-2c-.276 0-.5-.224-.5-.5s.224-.5.5-.5h2c.276 0 .5.224.5.5s-.224.5-.5.5z"/><path fill="#662113" d="M9 16c-.552 0-1-.448-1-1v-1c0-.552.448-1 1-1s1 .448 1 1v1c0 .552-.448 1-1 1zm8 0c-.552 0-1-.448-1-1v-1c0-.552.448-1 1-1s1 .448 1 1v1c0 .552-.448 1-1 1z"/></svg>