<svg xmlns="http://www.w3.org/2000/svg" viewBox="0 0 36 36"><path fill="#DD2E44" d="M24.77 19.715c0-3.757-3.045-6.801-6.801-6.801-2.28 0-4.292 1.125-5.526 2.845-1.234-1.72-3.247-2.845-5.526-2.845-3.756 0-6.801 3.044-6.801 6.801 0 .531.067 1.049.183 1.545.945 5.867 7.468 12.059 12.144 13.758 4.675-1.699 11.2-7.891 12.142-13.756.117-.498.185-1.016.185-1.547zM35.885 5.693c0-2.602-2.109-4.711-4.711-4.711-1.579 0-2.973.78-3.828 1.972-.855-1.191-2.249-1.972-3.827-1.972-2.602 0-4.711 2.109-4.711 4.711 0 .369.047.727.127 1.07.654 4.064 5.173 8.353 8.411 9.529 3.238-1.177 7.758-5.465 8.412-9.528.08-.344.127-.702.127-1.071z"/></svg>