<svg xmlns="http://www.w3.org/2000/svg" viewBox="0 0 36 36"><g fill="#DD2E44"><path d="M13.589 26.521c-.297-.495-.284-1.117.035-1.599l4.395-6.646-5.995-5.139c-.556-.476-.686-1.283-.31-1.911l4.304-7.172c-1.669-1.301-3.755-2.09-6.035-2.09-5.45 0-9.868 4.417-9.868 9.868 0 .772.098 1.52.266 2.241C1.751 22.587 11.216 31.568 18 34.034c.025-.009.052-.022.077-.032l-4.488-7.481z"/><path d="M26.018 1.966c-2.765 0-5.248 1.151-7.037 2.983l-4.042 6.737 6.039 5.176c.574.492.691 1.335.274 1.966l-4.604 6.962 4.161 6.935c6.338-3.529 13.621-11.263 14.809-18.649.17-.721.268-1.469.268-2.241-.001-5.452-4.419-9.869-9.868-9.869z"/></g></svg>