<svg xmlns="http://www.w3.org/2000/svg" viewBox="0 0 36 36"><path fill="#3E721D" d="M35.01 30.967c-1.385-2.226-3.34-5.001-5.265-7.888-5.141-8.772-1.513-18.411-2.893-21.511-.56-1.259-3.879.966-5.555 4.563-.356-.106-.747-.156-1.17-.148.155-2.397.293-4.31-.193-5.403-.71-1.599-5.867 2.418-6.463 7.729-1.848 1.006-3.223 1.957-3.223 1.957s-.95 1.375-1.954 3.223c-5.312.594-9.331 5.753-7.732 6.464 1.097.488 3.015.349 5.421.192-.006.42.046.807.154 1.159-3.61 1.674-5.848 5.006-4.586 5.567 3.282 1.46 13.9-2.701 23.053 3.892.288.207.479.322.601.371 2.117 1.433 4.113 2.801 5.791 3.846 2.875 1.79 3.962-.007 3.962-.007s1.843-1.13.052-4.006z"/><path fill="#77B255" d="M35.029 34.828c.369-.545.338-1.278-.144-1.761 0 0-11.86-15.812-13.836-23.719-1.977-7.906-4.397-5.737-3.689.474.325 2.848 1.817 6.14 3.806 9.385l-8.941-8.941c-.546-.546-1.431-.546-1.977 0-.545.546-.546 1.431 0 1.977l8.94 8.941c-3.246-1.987-6.536-3.48-9.383-3.805-6.211-.709-8.381 1.712-.475 3.688 7.907 1.976 23.719 13.836 23.719 13.836.481.482 1.215.513 1.758.146.034.007.065.01.078-.004.025-.025.034-.059.058-.086.025-.022.059-.031.083-.056.014-.013.01-.044.003-.075z"/><path fill="#DD2E44" d="M13.771 6.871c1.807 1.806 1.721 4.819-.188 6.73-1.91 1.91-3.771.842-5.577-.964S5.132 8.97 7.042 7.06c1.91-1.91 4.924-1.995 6.729-.189z"/><path fill="#EA596E" d="M12.618 8.024c1.807 1.807 2.874 3.666.965 5.576-1.91 1.91-4.923 1.995-6.729.188-1.806-1.806-.964-5.576-.902-7.82.074-2.627 4.487-.124 6.666 2.056z"/><path fill="#DD2E44" d="M22.665 15.766c1.808 1.807 1.722 4.819-.188 6.729-1.91 1.91-3.77.842-5.576-.964-1.806-1.806-2.874-3.667-.964-5.577 1.91-1.91 4.924-1.994 6.728-.188z"/><path fill="#EA596E" d="M21.514 16.919c1.806 1.807 2.873 3.666.964 5.576-1.91 1.91-4.923 1.995-6.729.188-1.806-1.806-.964-5.575-.901-7.819.073-2.628 4.485-.125 6.666 2.055z"/><path fill="#F4900C" d="M11.203 16.11c2.369 1.052 3.327 3.876 2.139 6.308-1.187 2.434-3.354 2.085-5.723 1.033-2.37-1.052-4.045-2.407-2.857-4.841 1.188-2.432 4.071-3.551 6.441-2.5z"/><path fill="#FFCC4D" d="M10.486 17.578c2.368 1.052 4.043 2.408 2.855 4.84-1.187 2.434-4.071 3.553-6.439 2.501-2.37-1.051-2.857-4.84-3.57-6.943-.836-2.463 4.294-1.666 7.154-.398z"/><path fill="#F4900C" d="M24.93 7.012c1.143 2.447.082 5.359-2.365 6.5-2.446 1.14-3.88-.607-5.023-3.056-1.142-2.449-1.56-4.671.887-5.813 2.448-1.141 5.358-.081 6.501 2.369z"/><path fill="#FFCC4D" d="M23.453 7.7c1.141 2.449 1.559 4.671-.889 5.812-2.446 1.14-5.359.081-6.501-2.368-1.141-2.448.889-5.812 1.676-7.977.925-2.54 4.334 1.578 5.714 4.533z"/></svg>