<svg xmlns="http://www.w3.org/2000/svg" viewBox="0 0 36 36"><path fill="#BF6952" d="M33.541 23.198c.364-1.578.243-3.266-.458-4.946-.678-1.625-1.847-2.91-3.271-3.773.318-1.192.234-2.475-.324-3.75-.841-1.92-2.66-3.201-4.712-3.562.249-.572.329-1.289.036-2.167-1-3-5-1-8-4.999-2.44 1.464-2.97 3.64-2.878 5.487-2.421.412-3.8.936-3.8.936v.002c-1.36.55-2.322 1.883-2.322 3.442 0 .879.318 1.676.828 2.312l-.692.258.001.003c-2.33.871-3.975 2.976-3.975 5.439 0 1.047.3 2.027.82 2.878C1.971 22.027 0 24.781 0 28c0 4.418 3.691 8 8.244 8 3.269 0 6.559-.703 9.531-1.665C20.018 35.375 23.47 36 28.667 36 32.717 36 36 32.717 36 28.667c0-2.176-.953-4.125-2.459-5.469z"/><ellipse fill="#F5F8FA" cx="13.5" cy="15.5" rx="3.5" ry="4.5"/><ellipse fill="#F5F8FA" cx="23.5" cy="15.5" rx="3.5" ry="4.5"/><ellipse fill="#292F33" cx="14" cy="15.5" rx="2" ry="2.5"/><ellipse fill="#292F33" cx="23" cy="15.5" rx="2" ry="2.5"/><path fill="#292F33" d="M9.447 24.895C9.201 24.402 9.45 24 10 24h18c.55 0 .799.402.553.895C28.553 24.895 26 30 19 30s-9.553-5.105-9.553-5.105z"/><path fill="#F2ABBA" d="M19 26c-2.771 0-5.157.922-6.292 2.256C14.2 29.211 16.253 30 19 30s4.801-.789 6.292-1.744C24.157 26.922 21.771 26 19 26z"/></svg>