<svg xmlns="http://www.w3.org/2000/svg" viewBox="0 0 36 36"><path fill="#B78B60" d="M15.977 9.36h3.789c.114-.191.147-.439.058-.673l-3.846-4.705V9.36z"/><path fill="#D4AB88" d="M12.804 22.277c-.057-.349-.124-.679-.206-.973-.62-2.223-1.14-3.164-.918-5.494.29-1.584.273-4.763 4.483-4.268 1.112.131 2.843.927 3.834.91.567-.01.98-1.157 1.017-1.539.051-.526-.865-1.42-1.248-1.554-.383-.134-2.012-.631-2.681-.824-1.039-.301-.985-1.705-1.051-2.205-.031-.235.084-.467.294-.591.21-.124.375-.008.579.125l.885.648c.497.426-.874 1.24-.503 1.376 0 0 1.755.659 2.507.796.412.075 1.834-1.529 1.917-2.47.065-.74-3.398-4.083-5.867-5.381-.868-.456-1.377-.721-1.949-.694-.683.032-.898.302-1.748 1.03C8.302 4.46 4.568 11.577 4.02 13.152c-2.246 6.461-2.597 9.865-2.677 11.788-.049.59-.076 1.177-.076 1.758.065 0-1 5 0 6s5.326 1 5.326 1c10 3.989 28.57 2.948 28.57-7.233 0-12.172-18.813-10.557-22.359-4.188z"/><path fill="#B78B60" d="M20.63 32.078c-3.16-.332-5.628-1.881-5.767-1.97-.465-.297-.601-.913-.305-1.379s.913-.603 1.38-.308c.04.025 4.003 2.492 7.846 1.467 2.125-.566 3.867-2.115 5.177-4.601.258-.49.866-.676 1.351-.419.488.257.676.862.419 1.351-1.585 3.006-3.754 4.893-6.447 5.606-1.257.332-2.502.374-3.654.253z"/></svg>