<svg xmlns="http://www.w3.org/2000/svg" viewBox="0 0 36 36"><path fill="#BDDDF4" d="M36 15c0-4.155-3.169-7.568-7.221-7.96C27.884 3.013 24.297 0 20 0c-4.971 0-9 3.56-9 8.531 0 1.156.25 2.906 1.121 3.785C8.859 12.5 4.094 12.6 0 12.015c0 0 4.816 3.831 15.357 3.985-.151.313-.254 1.43-.306 1.786-.249.003-.595.009-1.051.009C6 17.795 0 17 0 17s3 3.234 15.406 4.106C15 21.234 15 23 15 23c-8 0-15-1-15-1 3.362 2.802 6.724 4.033 9.03 4.574-.011.142-.03.281-.03.426 0 3.313 2.686 5 6 5 .487 0 .958-.064 1.412-.174C18.009 34.333 20.807 36 24 36c4.971 0 9-4.029 9-9 0-1.788-.527-3.449-1.427-4.851C34.195 20.837 36 18.132 36 15z"/></svg>