<svg xmlns="http://www.w3.org/2000/svg" viewBox="0 0 36 36"><path fill="#BB1A34" d="M1.728 21c-.617 0-.953-.256-1.127-.471-.171-.211-.348-.585-.225-1.165L3.104 6.658l-1.714.097h-.013c-.517 0-.892-.168-1.127-.459-.22-.272-.299-.621-.221-.98.15-.702.883-1.286 1.667-1.329l4.008-.227c.078-.005.15-.008.217-.008.147 0 .536 0 .783.306.252.312.167.709.139.839L3.719 19.454c-.187.884-.919 1.489-1.866 1.542L1.728 21zm10.743-2c-1.439 0-2.635-.539-3.459-1.559-1.163-1.439-1.467-3.651-.878-6.397 1.032-4.812 4.208-8.186 7.902-8.395 1.59-.089 2.906.452 3.793 1.549 1.163 1.439 1.467 3.651.878 6.397-1.032 4.81-4.208 8.184-7.904 8.394-.112.008-.223.011-.332.011zm3.414-13.746l-.137.004c-1.94.111-3.555 2.304-4.32 5.866-.478 2.228-.381 3.899.272 4.707.297.368.717.555 1.249.555l.14-.004c1.94-.109 3.554-2.301 4.318-5.864.478-2.228.382-3.9-.27-4.708-.296-.369-.718-.556-1.252-.556zm11.591 12.107c-1.439 0-2.637-.539-3.462-1.56-1.163-1.439-1.467-3.651-.878-6.397 1.033-4.813 4.209-8.186 7.903-8.394 1.603-.09 2.903.453 3.79 1.549 1.163 1.439 1.467 3.651.878 6.396-1.031 4.809-4.206 8.183-7.902 8.396-.112.008-.221.01-.329.01zm3.411-13.747l-.136.004c-1.941.111-3.556 2.304-4.32 5.865-.478 2.229-.381 3.901.272 4.708.297.368.719.555 1.251.555l.14-.004c1.939-.109 3.554-2.302 4.318-5.864.479-2.227.383-3.899-.27-4.707-.298-.37-.72-.557-1.255-.557zM11 35.001c-.81 0-1.572-.496-1.873-1.299-.388-1.034.136-2.187 1.17-2.575.337-.126 8.399-3.108 20.536-4.12 1.101-.096 2.067.727 2.159 1.827.092 1.101-.727 2.067-1.827 2.159-11.59.966-19.386 3.851-19.464 3.88-.23.086-.468.128-.701.128zM2.001 29c-.804 0-1.563-.488-1.868-1.283-.396-1.031.118-2.188 1.149-2.583.542-.209 13.516-5.126 32.612-6.131 1.113-.069 2.045.789 2.103 1.892.059 1.103-.789 2.045-1.892 2.103-18.423.97-31.261 5.821-31.389 5.87-.235.089-.477.132-.715.132z"/></svg>