<svg xmlns="http://www.w3.org/2000/svg" viewBox="0 0 36 36"><path fill="#67757F" d="M6 19h1v7H6z"/><path fill="#9AAAB4" d="M11 18v4c0 1 0 2-2 3l-2 1v-7l4-1z"/><path fill="#9AAAB4" d="M11.237 15h.968c.591 0 .779.479.779 1.071v.267c0 .406-.229.776-.592.958l-4.984 2.48c-.149.074-.312.224-.95.224h-.565c-.475 0-.909-.479-.909-1.071v-.267c0-.406.229-.776.592-.958l5.182-2.591c.149-.074.313-.113.479-.113z"/><path fill="#CCD6DD" d="M12.984 15.996v.498c0 .233-.185.579-.541.802l-5.105 2.478c-.409.205-.89-.093-.89-.55v-.428c0-.416.204-.683.605-.891l5.213-2.584c.408-.205.718.217.718.675z"/><path fill="#5DADEC" d="M27 24H15.033c-2.2 0-4-1.8-4-4V5c0-2.2 1.8-4 4-4H27c2.2 0 4 1.8 4 4v15c0 2.2-1.8 4-4 4z"/><path fill="#4289C1" d="M26 24H14.033c-2.2 0-4-1.8-4-4V5c0-2.2 1.8-4 4-4H26c2.2 0 4 1.8 4 4v15c0 2.2-1.8 4-4 4z"/><path fill="#E1E8ED" d="M15 1h10v8H15z"/><path fill="#9AAAB4" d="M27 33c-1.1 0-2-.9-2-2v-7c0-1.1.9-2 2-2s2 .9 2 2v7c0 1.1-.9 2-2 2z"/><path fill="#9AAAB4" d="M22.524 35.462l5.48-2.745.996-2.003v-5.443l-6 3-1.091 7.492zM13 33c-1.1 0-2-.9-2-2v-7c0-1.1.9-2 2-2s2 .9 2 2v7c0 1.1-.9 2-2 2z"/><path fill="#9AAAB4" d="M8.524 35.462l5.48-2.745.996-2.003v-5.443l-6 3-1.091 7.492z"/><path fill="#67757F" d="M7 36c-1.1 0-2-.9-2-2v-7c0-1.1.9-2 2-2s2 .9 2 2v7c0 1.1-.9 2-2 2zm14 0c-1.1 0-2-.9-2-2v-7c0-1.1.9-2 2-2s2 .9 2 2v7c0 1.1-.9 2-2 2z"/><path fill="#5DADEC" d="M10.805 20.131l-.3.004L4.742 23l-.295.183L22.076 23l6-3zM24 28.623l5.48-2.745.52-1.164v-3.145l-6 3-.615 4.355z"/><path fill="#5DADEC" d="M29 26H11c-.55 0-1-.45-1-1v-4c0-.55.45-1 1-1h18c.55 0 1 .45 1 1v4c0 .55-.45 1-1 1z"/><path fill="#2A6797" d="M23 29H5c-.55 0-1-.45-1-1v-4c0-.55.45-1 1-1h18c.55 0 1 .45 1 1v4c0 .55-.45 1-1 1z"/><path fill="#67757F" d="M26 19h1v7h-1z"/><path fill="#9AAAB4" d="M31 18v4c0 1 0 2-2 3l-2 1v-7l4-1z"/><path fill="#9AAAB4" d="M31.253 15h.968c.592 0 .779.479.779 1.071v.267c0 .406-.229.776-.592.958l-4.984 2.48c-.149.074-.312.224-.95.224h-.564c-.476 0-.91-.479-.91-1.071v-.267c0-.406.229-.776.592-.958l5.182-2.591c.149-.074.313-.113.479-.113z"/><path fill="#CCD6DD" d="M33 15.996v.498c0 .233-.185.579-.541.802l-5.105 2.478c-.409.205-.89-.093-.89-.55v-.428c0-.416.204-.683.605-.891l5.213-2.584c.408-.205.718.217.718.675z"/></svg>