<svg xmlns="http://www.w3.org/2000/svg" viewBox="0 0 36 36"><path fill="#2A6797" d="M2 11c-2 0-2 2-2 2v21s0 2 2 2h32c2 0 2-2 2-2V13s0-2-2-2H2z"/><path fill="#5DADEC" d="M2 6C0 6 0 8 0 8v20s0 2 2 2h32c2 0 2-2 2-2V8s0-2-2-2H2z"/><circle fill="#4289C1" cx="25" cy="18" r="6.5"/><path fill="#2A6797" d="M33 28.5H3c-.827 0-1.5-.673-1.5-1.5V9c0-.827.673-1.5 1.5-1.5h30c.827 0 1.5.673 1.5 1.5v18c0 .827-.673 1.5-1.5 1.5zM3 8.5c-.275 0-.5.224-.5.5v18c0 .275.225.5.5.5h30c.275 0 .5-.225.5-.5V9c0-.276-.225-.5-.5-.5H3z"/><path fill="#FFE8B6" d="M14 6h8v24.062h-8z"/><path fill="#FFAC33" d="M14 30h8v6h-8z"/><path fill="#2A6797" d="M12.764 21.84c0 .658-1.474 1.447-3.301 1.447-2.42 0-3.877-1.681-4.361-3.742H3.808c-.315 0-.571-.255-.571-.569 0-.315.256-.57.571-.57h1.129c-.008-.136-.029-.27-.029-.406 0-.3.026-.597.063-.89H3.808c-.315 0-.571-.256-.571-.571 0-.315.256-.569.571-.569h1.416c.593-1.835 2.03-3.257 4.313-3.257 1.84 0 3.008.993 3.008 1.519 0 .336-.205.612-.526.612-.584 0-.876-1.022-2.482-1.022-1.51 0-2.428.942-2.891 2.147h3.327c.315 0 .57.255.57.569 0 .315-.255.571-.57.571H6.351c-.043.297-.072.596-.072.891 0 .134.016.27.025.405h3.668c.315 0 .57.255.57.57 0 .314-.255.569-.57.569H6.485c.389 1.43 1.346 2.631 2.978 2.631 1.563 0 2.25-.934 2.79-.934.307.001.511.235.511.599z"/></svg>