<svg xmlns="http://www.w3.org/2000/svg" viewBox="0 0 36 36"><path fill="#E5A157" d="M2 11c-2 0-2 2-2 2v21s0 2 2 2h32c2 0 2-2 2-2V13s0-2-2-2H2z"/><path fill="#FFD983" d="M2 6C0 6 0 8 0 8v20s0 2 2 2h32c2 0 2-2 2-2V8s0-2-2-2H2z"/><circle fill="#EDB980" cx="25" cy="18" r="6.5"/><path fill="#E5A157" d="M33 28.5H3c-.827 0-1.5-.673-1.5-1.5V9c0-.827.673-1.5 1.5-1.5h30c.827 0 1.5.673 1.5 1.5v18c0 .827-.673 1.5-1.5 1.5zM3 8.5c-.275 0-.5.224-.5.5v18c0 .275.225.5.5.5h30c.275 0 .5-.225.5-.5V9c0-.276-.225-.5-.5-.5H3z"/><path fill="#FFE8B6" d="M14 6h8v24.062h-8z"/><path fill="#FFAC33" d="M14 30h8v6h-8z"/><path fill="#E5A157" d="M7.238 18.415H4.864c-.398 0-.709-.19-.709-.57 0-.383.312-.573.709-.573h1.664l-2.772-4.28c-.173-.259-.26-.449-.26-.691 0-.33.33-.573.607-.573.278 0 .554.122.797.485L8 16.874l3.102-4.662c.243-.364.52-.485.797-.485.276 0 .605.243.605.573 0 .243-.086.432-.259.691l-2.772 4.28h1.664c.399 0 .711.191.711.573 0 .381-.312.57-.711.57H8.764v1.229h2.373c.399 0 .711.192.711.573 0 .381-.312.571-.711.571H8.764v2.668c0 .502-.312.815-.763.815s-.762-.313-.762-.815v-2.668H4.864c-.398 0-.709-.19-.709-.571 0-.381.312-.573.709-.573h2.375v-1.228z"/></svg>