<svg xmlns="http://www.w3.org/2000/svg" viewBox="0 0 36 36"><path fill="#292F33" d="M28.81 23.209c0-7.672-14.144-7.171-14.144-11.803 0-2.242 2.145-3.337 4.633-3.337 4.184 0 4.929 2.688 6.824 2.688 1.342 0 1.988-.845 1.988-1.792 0-2.201-3.337-3.867-6.537-4.444V2.397c0-1.325-1.072-2.4-2.398-2.4-1.327 0-2.4 1.075-2.4 2.4v2.199c-3.489.794-6.49 3.214-6.49 7.159 0 7.369 14.142 7.071 14.142 12.247 0 1.793-1.941 3.586-5.129 3.586-4.781 0-6.374-3.236-8.316-3.236-.946 0-1.792.796-1.792 1.996 0 1.906 3.195 4.2 7.588 4.841l-.003.015v2.397c0 1.326 1.075 2.401 2.401 2.401 1.325 0 2.399-1.075 2.399-2.401v-2.397c0-.028-.014-.05-.016-.075 3.953-.738 7.25-3.315 7.25-7.92z"/></svg>