<svg xmlns="http://www.w3.org/2000/svg" viewBox="0 0 36 36"><path fill="#292F33" d="M36 32c0 2.209-1.791 4-4 4H4c-2.209 0-4-1.791-4-4V4c0-2.209 1.791-4 4-4h28c2.209 0 4 1.791 4 4v28z"/><path fill="#FFD983" d="M34 18c0 8.837-7.163 16-16 16-8.836 0-16-7.163-16-16C2 9.164 9.164 2 18 2c8.837 0 16 7.164 16 16zm-16-2.667c-1.473 0-2.667 1.194-2.667 2.667 0 1.473 1.194 2.667 2.667 2.667 1.473 0 2.667-1.194 2.667-2.667 0-1.473-1.194-2.667-2.667-2.667z"/><path fill="#FFAC33" d="M13.811 17.535c.109-.982.531-1.868 1.193-2.53L7.943 7.943c-2.226 2.226-3.712 5.187-4.075 8.487l9.943 1.105zm8.378.93c-.109.981-.532 1.867-1.194 2.53l7.062 7.062c2.226-2.226 3.712-5.187 4.075-8.487l-9.943-1.105z"/><path fill="#FFE8B6" d="M18.469 22.189l1.111 9.941c3.295-.365 6.253-1.85 8.476-4.074l-7.062-7.062c-.661.662-1.546 1.086-2.525 1.195zm-.91-8.38l-1.048-9.953c-3.333.347-6.324 1.843-8.569 4.087l7.062 7.062c.668-.668 1.564-1.092 2.555-1.196z"/><path fill="#F5F8FA" d="M36 21c0 1.104-.896 2-2 2H23c-1.104 0-2-.896-2-2v-6c0-1.104.896-2 2-2h11c1.104 0 2 .896 2 2v6z"/></svg>