<svg xmlns="http://www.w3.org/2000/svg" viewBox="0 0 36 36"><path fill="#E1E8ED" d="M32.415 9.586l-9-9C23.054.225 22.553 0 22 0c-1.104 0-1.999.896-2 2 0 .552.224 1.053.586 1.415l-3.859 3.859 9 9 3.859-3.859c.362.361.862.585 1.414.585 1.104 0 2.001-.896 2-2 0-.552-.224-1.052-.585-1.414z"/><path fill="#CCD6DD" d="M22 0H7C4.791 0 3 1.791 3 4v28c0 2.209 1.791 4 4 4h22c2.209 0 4-1.791 4-4V11h-9c-1 0-2-1-2-2V0z"/><path fill="#99AAB5" d="M22 0h-2v9c0 2.209 1.791 4 4 4h9v-2h-9c-1 0-2-1-2-2V0zm-5 8c0 .552-.448 1-1 1H8c-.552 0-1-.448-1-1s.448-1 1-1h8c.552 0 1 .448 1 1zm0 4c0 .552-.448 1-1 1H8c-.552 0-1-.448-1-1s.448-1 1-1h8c.552 0 1 .448 1 1zm12 4c0 .552-.447 1-1 1H8c-.552 0-1-.448-1-1s.448-1 1-1h20c.553 0 1 .448 1 1zm0 4c0 .553-.447 1-1 1H8c-.552 0-1-.447-1-1 0-.553.448-1 1-1h20c.553 0 1 .447 1 1zm0 4c0 .553-.447 1-1 1H8c-.552 0-1-.447-1-1 0-.553.448-1 1-1h20c.553 0 1 .447 1 1zm0 4c0 .553-.447 1-1 1H8c-.552 0-1-.447-1-1 0-.553.448-1 1-1h20c.553 0 1 .447 1 1z"/></svg>