<svg xmlns="http://www.w3.org/2000/svg" viewBox="0 0 36 36"><path fill="#FFCC4D" d="M30.021 34.264c-1.563 1.563-4.095 1.562-5.656 0L1.736 11.636c-1.562-1.562-1.563-4.094 0-5.657l4.243-4.242c1.562-1.562 4.095-1.562 5.657 0l22.626 22.628c1.562 1.562 1.562 4.096.001 5.656l-4.242 4.243z"/><path fill="#292F33" d="M9.515 6.687c-.391.39-1.023.39-1.414 0-.39-.391-.39-1.024 0-1.415l3.536-3.536 1.414 1.415-3.536 3.536zm5.656 1.414c-.39.391-1.024.391-1.414 0-.391-.391-.391-1.024 0-1.414l1.415-1.415 1.414 1.415-1.415 1.414zm1.415 5.656c-.391.391-1.024.391-1.414 0-.39-.391-.39-1.024 0-1.414l3.536-3.536c.486.486.929.928 1.414 1.415l-3.536 3.535zm5.656 1.414c-.39.391-1.023.391-1.413 0-.392-.391-.391-1.024 0-1.414l1.414-1.415c.485.487.928.928 1.414 1.415l-1.415 1.414zm1.415 5.657c-.391.391-1.023.392-1.414 0-.391-.391-.391-1.023-.001-1.414l3.536-3.535 1.414 1.414-3.535 3.535zm7.071 7.071c-.39.391-1.023.391-1.413 0-.392-.391-.392-1.023-.001-1.414l3.536-3.535 1.414 1.414-3.536 3.535zm-1.415-5.657c-.391.391-1.022.391-1.414.001-.391-.391-.39-1.024 0-1.414l1.415-1.414 1.413 1.413-1.414 1.414z"/></svg>