<svg xmlns="http://www.w3.org/2000/svg" viewBox="0 0 36 36"><path fill="#E1E8ED" d="M30.415 9.586l-9-9C21.054.225 20.553 0 20 0c-1.104 0-1.999.896-2 2 0 .552.224 1.053.586 1.415l-3.859 3.859 9 9 3.859-3.859c.362.361.862.585 1.414.585 1.104 0 2.001-.896 2-2 0-.552-.224-1.052-.585-1.414z"/><path fill="#CCD6DD" d="M20 0H5C2.791 0 1 1.791 1 4v28c0 2.209 1.791 4 4 4h22c2.209 0 4-1.791 4-4V11h-9c-1 0-2-1-2-2V0z"/><path fill="#99AAB5" d="M20 0h-2v9c0 2.209 1.791 4 4 4h9v-2h-9c-1 0-2-1-2-2V0zm-5 8c0 .552-.448 1-1 1H6c-.552 0-1-.448-1-1s.448-1 1-1h8c.552 0 1 .448 1 1zm0 4c0 .552-.448 1-1 1H6c-.552 0-1-.448-1-1s.448-1 1-1h8c.552 0 1 .448 1 1zm12 4c0 .552-.447 1-1 1H6c-.552 0-1-.448-1-1s.448-1 1-1h20c.553 0 1 .448 1 1zm0 4c0 .553-.447 1-1 1H6c-.552 0-1-.447-1-1 0-.553.448-1 1-1h20c.553 0 1 .447 1 1zm0 4c0 .553-.447 1-1 1H6c-.552 0-1-.447-1-1 0-.553.448-1 1-1h20c.553 0 1 .447 1 1zm0 4c0 .553-.447 1-1 1H6c-.552 0-1-.447-1-1 0-.553.448-1 1-1h20c.553 0 1 .447 1 1z"/><path fill="#66757F" d="M31 19s-5.906-.002-5.935 0c-.291 0-.91.174-1.255.606l-2.328 2.929c-.644.809-.644 2.119 0 2.93l2.328 2.929c.345.432.964.606 1.255.606.019.002 3.547 0 5.935 0V19z"/><path fill="#744EAA" d="M33 19s-8.056-.002-8.084 0c-.291 0-.91.139-1.255.485l-2.328 2.342c-.643.647-.643 1.695 0 2.344l2.328 2.342c.345.346.964.487 1.255.487.028.002 8.084 0 8.084 0 1.104 0 2-.897 2-2.001V21c0-1.104-.896-2-2-2z"/></svg>