<svg xmlns="http://www.w3.org/2000/svg" viewBox="0 0 36 36"><path fill="#D99E82" d="M36 32c0 2.209-1.791 4-4 4H4c-2.209 0-4-1.791-4-4v-9c0-2.209.791-3 3-3h30c2.209 0 3 .791 3 3v9z"/><path fill="#662113" d="M25 20c0 3.866-3.134 7-7 7s-7-3.134-7-7h14z"/><path fill="#C1694F" d="M4 36h28c2.209 0 4-1.791 4-4H0c0 2.209 1.791 4 4 4z"/><path fill="#DD2E44" d="M27.435 8.511L19.572.648c-.864-.865-2.28-.865-3.145 0L8.564 8.511C7.7 9.377 7.993 10 9.216 10H14v6c0 1.104.896 2 2 2h4c1.104 0 2-.896 2-2v-6h4.784c1.223 0 1.516-.623.651-1.489z"/></svg>