<svg xmlns="http://www.w3.org/2000/svg" viewBox="0 0 36 36"><path fill="#CCD6DD" d="M36 27c0 2.209-1.791 4-4 4H4c-2.209 0-4-1.791-4-4V9c0-2.209 1.791-4 4-4h28c2.209 0 4 1.791 4 4v18z"/><path fill="#99AAB5" d="M11.95 17.636L.637 28.949c-.027.028-.037.063-.06.091.34.57.814 1.043 1.384 1.384.029-.023.063-.033.09-.06L13.365 19.05c.39-.391.39-1.023 0-1.414-.392-.391-1.024-.391-1.415 0M35.423 29.04c-.021-.028-.033-.063-.06-.09L24.051 17.636c-.392-.391-1.024-.391-1.415 0s-.391 1.023 0 1.414l11.313 11.314c.026.026.062.037.09.06.571-.34 1.044-.814 1.384-1.384"/><path fill="#99AAB5" d="M32 5H4C1.791 5 0 6.791 0 9v1.03l14.528 14.496c1.894 1.893 4.988 1.893 6.884 0L36 10.009V9c0-2.209-1.791-4-4-4z"/><path fill="#E1E8ED" d="M32 5H4C2.412 5 1.051 5.934.405 7.275l14.766 14.767c1.562 1.562 4.096 1.562 5.657 0L35.595 7.275C34.949 5.934 33.589 5 32 5z"/><path fill="#66757F" d="M15 9.27c0-.73.365-1.27 1-1.27h3.62c.839 0 1.174.49 1.174 1 0 .496-.349 1-1.035 1h-2.708v2h2.533c.716 0 1.065.489 1.065 1 0 .496-.366 1-1.065 1h-2.533v2h2.84c.699 0 1.037.489 1.037 1 0 .496-.353 1-1.037 1h-3.766C15.482 18 15 17.469 15 16.812V9.27z"/></svg>