<svg xmlns="http://www.w3.org/2000/svg" viewBox="0 0 36 36"><path fill="#F4900C" d="M36 32c0 4-4 4-4 4H4c-4 0-4-4-4-4V4c0-4 4-4 4-4h28s4 0 4 4v28z"/><path d="M7.243 16.916c0-2.971 2-5.256 4.913-5.256 2.871 0 4.913 2.356 4.913 5.256 0 2.957-1.985 5.256-4.913 5.256-2.899 0-4.913-2.3-4.913-5.256zm7.598 0c0-1.728-.9-3.285-2.685-3.285-1.785 0-2.685 1.557-2.685 3.285 0 1.743.872 3.285 2.685 3.285 1.814-.001 2.685-1.543 2.685-3.285zm3.685-3.971c0-.586.4-1.114 1.114-1.114h3.656c.628 0 .957.485.957.985 0 .486-.314.985-.957.985h-2.628v2.085h2.214c.686 0 1.028.486 1.028.971 0 .5-.343 1-1.028 1h-2.214v3.113c0 .714-.457 1.114-1.071 1.114-.614 0-1.071-.4-1.071-1.114v-8.025zm7.771 0c0-.586.4-1.114 1.114-1.114h3.656c.628 0 .957.485.957.985 0 .486-.314.985-.957.985H28.44v2.085h2.214c.686 0 1.028.486 1.028.971 0 .5-.343 1-1.028 1H28.44v3.113c0 .714-.457 1.114-1.071 1.114-.614 0-1.071-.4-1.071-1.114v-8.025z" fill="#FFF"/><path fill="#FFF" d="M19 24v4H5V8h14v2h2V6c0-3-3-3-3-3H6C3 3 3 6 3 6v24c0 3 3 3 3 3h12c3 0 3-3 3-3v-6h-2z"/></svg>