<svg xmlns="http://www.w3.org/2000/svg" viewBox="0 0 36 36"><path fill="#292F33" d="M26.797 28.781c.484 1.109-.268 2.391.739 4.323 1.088 2.087 3.653 2.801 5.292 2.817 1.078.011 1.189-.447.759-.667-.681-.349-.598-.871-.598-.871s.464.429 1.308.663c.621.173 1.307.216 1.518-.379.182-.51-1.647-.142-2.491-1.954 1.092.494 1.692.224 2.146-.151.257-.213.453-.625.109-.5-.344.125-2.703.391-3.047-2.062 1.088 1.231 2.402 1.122 3.019.708.403-.271.503-.803.11-.621-1.422.656-2.051-.606-2.975-1.856-1.113-1.507-2.936-.996-3.686-1.324-.276-.122-2.203 1.874-2.203 1.874z"/><path fill="#553788" d="M10.087 6.851c.894.895.894 2.345 0 3.24-.895.895-2.345.895-3.24 0s-.895-2.345 0-3.24c.895-.894 2.346-.894 3.24 0z"/><path fill="#553788" d="M7.227 10.218c.895.894.895 2.345 0 3.24s-2.345.895-3.239 0c-.894-.895-.894-2.345 0-3.24s2.345-.895 3.239 0z"/><path fill="#553788" d="M5.051 14.064c.894.895.894 2.345 0 3.24-.895.894-2.345.894-3.24 0-.894-.895-.894-2.345 0-3.24.895-.894 2.345-.894 3.24 0z"/><path fill="#553788" d="M4.039 18.317c.894.895.894 2.344 0 3.24-.895.895-2.346.895-3.241 0-.895-.896-.895-2.345 0-3.24s2.346-.895 3.241 0z"/><path fill="#553788" d="M4.494 22.67c.895.895.895 2.346 0 3.239-.894.894-2.345.894-3.239 0-.895-.894-.895-2.344 0-3.239.894-.895 2.345-.895 3.239 0z"/><path fill="#553788" d="M6.848 26.289c.895.894.895 2.346 0 3.24-.895.894-2.344.894-3.24 0-.894-.895-.894-2.346 0-3.24.895-.894 2.345-.894 3.24 0z"/><path fill="#553788" d="M10.923 27.681c.894.896.894 2.346 0 3.24-.895.894-2.345.894-3.24 0-.894-.895-.894-2.345 0-3.24.895-.894 2.345-.894 3.24 0z"/><path fill="#553788" d="M15.327 28.288c.895.896.895 2.346 0 3.241-.895.893-2.345.893-3.24 0-.894-.896-.894-2.346 0-3.241.894-.893 2.345-.893 3.24 0z"/><path fill="#553788" d="M19.604 27.807c.896.896.896 2.346 0 3.241-.894.894-2.345.894-3.239 0-.895-.896-.895-2.346 0-3.241.893-.893 2.344-.893 3.239 0z"/><path fill="#553788" d="M23.806 26.34c.894.895.894 2.346 0 3.239-.895.895-2.346.895-3.24 0-.895-.894-.895-2.345 0-3.239.894-.896 2.345-.896 3.24 0zM10.214 7.231c.895.895 2.345.895 3.24 0 .894-.895.894-2.346 0-3.24-.894-.894-2.345-.894-3.24 0-.895.895-.895 2.346 0 3.24z"/><path fill="#553788" d="M14.061 5.055c.896.894 2.346.894 3.24 0 .894-.895.894-2.345 0-3.24-.895-.894-2.345-.894-3.24 0-.895.895-.895 2.345 0 3.24z"/><path fill="#553788" d="M18.313 4.042c.895.894 2.345.894 3.24 0 .895-.895.895-2.345 0-3.24s-2.345-.895-3.24 0c-.894.895-.894 2.345 0 3.24z"/><path fill="#553788" d="M22.666 4.498c.896.895 2.346.895 3.24 0 .894-.894.894-2.345 0-3.239-.895-.895-2.345-.895-3.24 0-.895.894-.895 2.345 0 3.239z"/><path fill="#553788" d="M26.286 6.851c.894.895 2.344.895 3.238 0 .896-.895.896-2.344 0-3.239-.895-.894-2.345-.894-3.238 0-.895.895-.895 2.345 0 3.239z"/><path fill="#553788" d="M27.677 10.926c.896.894 2.346.894 3.241 0 .892-.895.892-2.344 0-3.24-.896-.894-2.346-.894-3.241 0-.894.896-.894 2.346 0 3.24z"/><path fill="#553788" d="M28.285 15.33c.895.894 2.345.894 3.24 0 .893-.895.893-2.345 0-3.239-.896-.895-2.346-.895-3.24 0-.894.894-.894 2.345 0 3.239z"/><path fill="#553788" d="M27.804 19.607c.895.895 2.345.895 3.24 0 .894-.894.894-2.345 0-3.239-.896-.895-2.346-.895-3.24 0-.894.894-.894 2.345 0 3.239z"/><path fill="#553788" d="M26.336 23.81c.896.894 2.346.894 3.239 0 .895-.895.895-2.347 0-3.241-.894-.894-2.344-.894-3.239 0-.895.895-.895 2.346 0 3.241z"/><path fill="#F4900C" d="M28.153 24.583c-.993-.993-2.605-.993-3.599 0-.995.993-.995 2.605 0 3.599l2.398 1.2 2.4-2.4-1.199-2.399z"/></svg>