<svg xmlns="http://www.w3.org/2000/svg" viewBox="0 0 36 36"><path fill="#31373D" d="M34.074 18l-4.832 3H28v-4c0-.088-.02-.169-.026-.256C31.436 15.864 34 12.735 34 9c0-4.418-3.582-8-8-8s-8.001 3.582-8.001 8c0 1.463.412 2.822 1.099 4H14.92c.047-.328.08-.66.08-1 0-3.866-3.134-7-7-7-3.865 0-7 3.134-7 7 0 2.79 1.638 5.193 4 6.317V29c0 2.209 1.791 4 4 4h15c2.209 0 4-1.791 4-4v-3h1.242l4.832 3H35V18h-.926zM28.727 3.977c1.762.959 2.961 2.819 2.984 4.961L28.18 8.35c-.112-.376-.31-.715-.583-.982l1.13-3.391zm-.9 6.342l3.552.592c-.66 1.857-2.254 3.26-4.214 3.669-.37-.483-.843-.875-1.392-1.148l.625-2.19c.556-.113 1.076-.452 1.429-.923zM26 3.285c.282 0 .557.027.828.067l-1.131 3.392c-.404.054-.772.21-1.081.446L21.42 5.592c1.042-1.397 2.703-2.307 4.58-2.307zM20.285 9c0-.563.085-1.106.236-1.62l3.194 1.597-.002.023c0 .657.313 1.245.771 1.662L23.816 13h-1.871c-1.02-1.03-1.66-2.436-1.66-4zm-9.088-.385c.901.851 1.47 2.048 1.47 3.385 0 .344-.043.677-.113 1H10.1c.145-.304.233-.641.233-1 0-.478-.145-.922-.392-1.292l1.256-2.093zM8 7.333c.519 0 1.01.105 1.476.261L8.22 9.688c-.073-.007-.145-.022-.22-.022-.478 0-.922.145-1.292.392L4.615 8.803c.851-.901 2.048-1.47 3.385-1.47zM3.333 12c0-.519.105-1.01.261-1.477l2.095 1.257c-.007.073-.022.144-.022.22 0 .75.36 1.41.91 1.837-.624.479-1.097 1.134-1.353 1.895-1.141-.851-1.891-2.199-1.891-3.732z"/><circle fill="#8899A6" cx="24" cy="19" r="2"/><circle fill="#8899A6" cx="9" cy="19" r="2"/><path fill="#8899A6" d="M24 27c0-1.104-.896-2-2-2H11c-1.104 0-2 .896-2 2v6c0 1.104.896 2 2 2h11c1.104 0 2-.896 2-2v-6z"/></svg>