<svg xmlns="http://www.w3.org/2000/svg" viewBox="0 0 36 36" xml:space="preserve"><path fill="#77B255" d="M30 32.7c0 1.657-5.373 3.3-12 3.3S6 34.357 6 32.7c0-1.657 5.373-2.7 12-2.7s12 1.043 12 2.7z"/><path fill="#77B255" d="M6 3h24v29.7H6z"/><ellipse fill="#5C913B" cx="18" cy="3" rx="12" ry="3"/><path fill="#FFF" d="M21.956 12.788c.091.544-.321 1.066-.922 1.136-.676.079-1.355.121-2.035.147V16a1 1 0 0 1-2 0v-1.93a26.188 26.188 0 0 1-2.035-.147c-.601-.07-1.012-.591-.922-1.136a1.042 1.042 0 0 1 1.152-.851c.6.07 1.202.109 1.804.133V10a1 1 0 0 1 2 0v2.07a24.781 24.781 0 0 0 1.804-.133 1.042 1.042 0 0 1 1.154.851zm-1.652 17.746a21.119 21.119 0 0 1-4.607 0 1.048 1.048 0 0 0-1.153.854c-.091.544.326 1.067.934 1.134 1.676.184 3.368.184 5.044 0 .609-.067 1.026-.59.934-1.134a1.047 1.047 0 0 0-1.152-.854z"/><ellipse fill="#CCD6DD" cx="18" cy="3" rx="10" ry="2"/><path fill="#99AAB5" d="M14 1v1.5c0 .552 1.791 1 4 1s4-.448 4-1V1h-8z"/><ellipse fill="#CCD6DD" cx="18" cy="1" rx="4" ry="1"/></svg>