<svg xmlns="http://www.w3.org/2000/svg" viewBox="0 0 36 36"><path fill="#31373D" d="M35.311 6.652L25.17.263c-.904-.569-1.645-.181-1.645.865V3h-11.05V1.128c0-1.046-.74-1.434-1.644-.865L.689 6.652c-.904.57-.922 1.527-.037 2.127l10.215 6.932c.885.602 1.607.234 1.607-.812V13h11.051v1.899c0 1.046.723 1.413 1.607.811l10.215-6.931c.885-.6.868-1.557-.036-2.127zM.204 27.986c0-4.529 3.048-8.014 7.49-8.014 4.377 0 7.491 3.594 7.491 8.014 0 4.506-3.027 8.014-7.491 8.014-4.42 0-7.49-3.508-7.49-8.014zm11.584 0c0-2.635-1.372-5.01-4.094-5.01-2.721 0-4.094 2.375-4.094 5.01 0 2.656 1.33 5.008 4.094 5.008 2.765 0 4.094-2.351 4.094-5.008zm4.625-6.184c0-1.089.696-1.699 1.632-1.699.415 0 1.089.327 1.373.72l6.902 9.211h.045v-8.231c0-1.089.694-1.699 1.633-1.699.937 0 1.633.61 1.633 1.699V34.17c0 1.088-.696 1.697-1.633 1.697-.415 0-1.067-.326-1.372-.717l-6.903-9.102h-.044v8.121c0 1.088-.697 1.697-1.633 1.697s-1.632-.609-1.632-1.697V21.802zm16.013 12.499c0-.936.762-1.699 1.698-1.699.936 0 1.698.764 1.698 1.699 0 .936-.763 1.699-1.698 1.699-.936 0-1.698-.764-1.698-1.699zm.131-12.848c0-.914.673-1.48 1.567-1.48.87 0 1.567.588 1.567 1.48v8.384c0 .894-.697 1.479-1.567 1.479-.895 0-1.567-.564-1.567-1.479v-8.384z"/></svg>