<svg xmlns="http://www.w3.org/2000/svg" viewBox="0 0 36 36"><path fill="#31373D" d="M34 3H12.475V1.128c0-1.046-.74-1.434-1.644-.865L.69 6.652c-.905.57-.922 1.527-.038 2.127l10.215 6.931c.884.602 1.607.235 1.607-.811V13H34c1.104 0 2-.896 2-2V5c0-1.104-.896-2-2-2zM.088 22.915c0-1.03.515-1.791 1.606-1.791h5.108c.989 0 1.462.7 1.462 1.421 0 .7-.495 1.421-1.462 1.421H3.178v3.008h3.378c1.009 0 1.503.699 1.503 1.421 0 .699-.515 1.42-1.503 1.42H3.178v3.131h3.811c.988 0 1.462.701 1.462 1.421 0 .701-.495 1.422-1.462 1.422H1.675c-.906 0-1.586-.617-1.586-1.544v-11.33zm9.419-.309c0-1.029.659-1.606 1.545-1.606.392 0 1.03.31 1.298.68l6.529 8.712h.041v-7.785c0-1.029.659-1.606 1.545-1.606.886 0 1.545.577 1.545 1.606v11.699c0 1.03-.659 1.606-1.545 1.606-.391 0-1.009-.309-1.297-.681l-6.53-8.608h-.041v7.683c0 1.03-.659 1.606-1.544 1.606s-1.545-.576-1.545-1.606v-11.7zm14.239.104c0-.948.659-1.586 1.586-1.586h3.419c4.612 0 7.249 2.965 7.249 7.537 0 4.326-2.801 7.127-7.043 7.127h-3.584c-.68 0-1.627-.37-1.627-1.544V22.71zm3.09 10.235h2.08c2.656 0 3.872-1.957 3.872-4.429 0-2.637-1.235-4.551-4.078-4.551h-1.874v8.98z"/></svg>