<svg xmlns="http://www.w3.org/2000/svg" viewBox="0 0 36 36"><path fill="#31373D" d="M25.711 10.867L18.779.652c-.602-.885-1.558-.867-2.127.037l-6.39 10.141c-.569.904-.181 1.644.865 1.644H13V16c0 1.104.896 2 2 2h6c1.105 0 2-.896 2-2v-3.525h1.898c1.047 0 1.414-.723.813-1.608zM3.651 23.575H1.438c-.975 0-1.381-.712-1.381-1.401 0-.71.508-1.399 1.381-1.399h7.469c.874 0 1.381.689 1.381 1.399 0 .69-.406 1.401-1.381 1.401H6.696v10.189c0 1.016-.649 1.584-1.522 1.584s-1.522-.568-1.522-1.584V23.575zM10.396 28c0-4.222 2.841-7.471 6.982-7.471 4.079 0 6.983 3.351 6.983 7.471 0 4.201-2.821 7.471-6.983 7.471-4.121 0-6.982-3.27-6.982-7.471zm10.798 0c0-2.456-1.279-4.67-3.816-4.67s-3.816 2.214-3.816 4.67c0 2.476 1.239 4.668 3.816 4.668 2.578 0 3.816-2.192 3.816-4.668zm4.433-5.644c0-.954.569-1.582 1.585-1.582h3.591c2.985 0 5.197 1.947 5.197 4.851 0 2.963-2.293 4.811-5.074 4.811h-2.253v3.329c0 1.016-.649 1.584-1.521 1.584-.874 0-1.524-.568-1.524-1.584V22.356zm3.046 5.4h2.071c1.277 0 2.089-.934 2.089-2.151 0-1.219-.812-2.152-2.089-2.152h-2.071v4.303z"/></svg>