<svg xmlns="http://www.w3.org/2000/svg" viewBox="0 0 36 36"><path fill="#AAB8C2" d="M35 26c0 2.209-1.791 4-4 4H5c-2.209 0-4-1.791-4-4V6.313C1 4.104 6.791 0 9 0h20.625C32.719 0 35 2.312 35 5.375V26z"/><path fill="#F5F8FA" d="M33 30c0 2.209-1.791 4-4 4H7c-2.209 0-4-1.791-4-4V6c0-4.119-.021-4 5-4h21c2.209 0 4 1.791 4 4v24z"/><path fill="#FFF" d="M31 31c0 1.657-1.343 3-3 3H4c-1.657 0-3-1.343-3-3V7c0-1.657 1.343-3 3-3h24c1.657 0 3 1.343 3 3v24z"/><path fill="#AAB8C2" d="M31 32c0 2.209-1.791 4-4 4H6c-2.209 0-4-1.791-4-4V10c0-2.209 1.791-4 4-4h21c2.209 0 4 1.791 4 4v22z"/><path fill="#E1E8ED" d="M29 32c0 2.209-1.791 4-4 4H6c-2.209 0-4-1.791-4-4V12c0-2.209 1.791-4 4-4h19.335C27.544 8 29 9.456 29 11.665V32z"/><path fill="#AAB8C2" d="M6 6C4.312 6 4.269 4.078 5 3.25 5.832 2.309 7.125 2 9.438 2H11V0H8.281C4.312 0 1 2.5 1 5.375V32c0 2.209 1.791 4 4 4h2V6H6z"/><g fill="#DD2E44"><path d="M17 4v23l4-6 4 6V4z"/><path d="M25 28c-.328 0-.644-.162-.832-.445L21 22.803l-3.168 4.752c-.245.367-.701.531-1.122.402-.421-.128-.71-.517-.71-.957V4c0-.552.448-1 1-1h8c.553 0 1 .448 1 1v23c0 .44-.288.829-.71.957-.096.029-.193.043-.29.043zm-4-8c.334 0 .646.167.832.445L24 23.697V5h-6v18.697l2.168-3.252c.186-.278.498-.445.832-.445z"/></g><path fill="#F5F8FA" d="M15 2h12v2H15z"/></svg>