<svg xmlns="http://www.w3.org/2000/svg" viewBox="0 0 36 36"><path fill="#3B88C3" d="M36 32c0 2.209-1.791 4-4 4H4c-2.209 0-4-1.791-4-4V4c0-2.209 1.791-4 4-4h28c2.209 0 4 1.791 4 4v28z"/><path d="M8.004 4.823c.323-.874 1.064-1.577 2.033-1.577 1.007 0 1.71.665 2.033 1.577l3.724 10.334c.114.304.152.57.152.703 0 .741-.608 1.253-1.311 1.253-.798 0-1.197-.417-1.387-.988l-.57-1.786H7.396l-.57 1.767c-.19.589-.589 1.007-1.368 1.007-.76 0-1.406-.57-1.406-1.33 0-.304.095-.532.133-.627L8.004 4.823zm.209 6.896h3.609L10.055 6.21h-.038l-1.804 5.509zm2.841 7.527c1.387 0 4.084.456 4.084 2.127 0 .685-.475 1.274-1.178 1.274-.779 0-1.311-.665-2.907-.665-2.355 0-3.571 1.995-3.571 4.312 0 2.261 1.235 4.198 3.571 4.198 1.596 0 2.242-.798 3.02-.798.855 0 1.254.856 1.254 1.292 0 1.823-2.869 2.241-4.274 2.241-3.856 0-6.535-3.059-6.535-6.99.001-3.952 2.66-6.991 6.536-6.991zm9.348-14.347c0-.912.627-1.425 1.5-1.425h3.648c1.976 0 3.571 1.33 3.571 3.343 0 1.33-.551 2.223-1.767 2.792v.038c1.615.228 2.888 1.577 2.888 3.229 0 2.679-1.785 4.123-4.407 4.123h-3.913c-.874 0-1.52-.551-1.52-1.444V4.899zm2.85 3.932h1.48c.932 0 1.539-.551 1.539-1.5 0-.893-.703-1.349-1.539-1.349h-1.48v2.849zm0 5.661h2.241c1.026 0 1.786-.589 1.786-1.652 0-.893-.685-1.501-2.014-1.501h-2.014v3.153zm-3.354 6.446c0-.875.608-1.463 1.463-1.463h3.153c4.255 0 6.687 2.735 6.687 6.952 0 3.989-2.583 6.573-6.496 6.573h-3.307c-.627 0-1.5-.342-1.5-1.425V20.938zm2.85 9.44h1.918c2.451 0 3.572-1.805 3.572-4.084 0-2.432-1.141-4.198-3.762-4.198h-1.729v8.282z" fill="#FFF"/></svg>