<svg xmlns="http://www.w3.org/2000/svg" viewBox="0 0 36 36"><path fill="#8899A6" d="M27.989 19.977c-.622 0-1.225.078-1.806.213L15.811 9.818c.134-.581.212-1.184.212-1.806C16.023 3.587 12.436 0 8.012 0 7.11 0 5.91.916 6.909 1.915l2.997 2.997s.999 1.998-.999 3.995-3.996.998-3.996.998L1.915 6.909C.916 5.91 0 7.105 0 8.012c0 4.425 3.587 8.012 8.012 8.012.622 0 1.225-.078 1.806-.212l10.371 10.371c-.135.581-.213 1.184-.213 1.806 0 4.425 3.588 8.011 8.012 8.011.901 0 2.101-.916 1.102-1.915l-2.997-2.997s-.999-1.998.999-3.995 3.995-.999 3.995-.999l2.997 2.997c1 .999 1.916-.196 1.916-1.102 0-4.425-3.587-8.012-8.011-8.012z"/></svg>