<svg xmlns="http://www.w3.org/2000/svg" viewBox="0 0 36 36"><path fill="#3B88C3" d="M36 32c0 2.209-1.791 4-4 4H4c-2.209 0-4-1.791-4-4V4c0-2.209 1.791-4 4-4h28c2.209 0 4 1.791 4 4v28z"/><path d="M9.613 6.096H8.492c-.912 0-1.292-.665-1.292-1.311 0-.665.475-1.311 1.292-1.311h2.698c.817 0 1.273.589 1.273 1.349v10.81c0 .95-.608 1.481-1.425 1.481-.817 0-1.425-.532-1.425-1.481V6.096zm5.129 16.627c0 1.196-.513 2.241-1.558 2.906 1.368.627 2.318 1.9 2.318 3.4 0 2.28-2.09 4.198-4.788 4.198-2.812 0-4.559-2.07-4.559-3.571 0-.74.779-1.272 1.463-1.272 1.291 0 .988 2.223 3.134 2.223.988 0 1.786-.76 1.786-1.767 0-2.66-3.23-.703-3.23-2.944 0-1.995 2.698-.646 2.698-2.755 0-.722-.513-1.273-1.368-1.273-1.805 0-1.558 1.862-2.85 1.862-.779 0-1.235-.703-1.235-1.406 0-1.481 2.033-3.077 4.142-3.077 2.736-.001 4.047 1.993 4.047 3.476zm13.373-8.231c.836 0 1.48.38 1.48 1.254S28.951 17 28.228 17h-6.346c-.835 0-1.48-.38-1.48-1.254 0-.399.246-.741.437-.969 1.577-1.881 3.286-3.59 4.729-5.68.343-.494.666-1.083.666-1.767 0-.779-.59-1.463-1.368-1.463-2.185 0-1.14 3.078-2.964 3.078-.912 0-1.387-.646-1.387-1.387 0-2.394 2.128-4.312 4.465-4.312 2.336 0 4.217 1.539 4.217 3.951 0 2.641-2.944 5.262-4.559 7.295h3.477zm-6.934 15.526c-.931 0-1.33-.627-1.33-1.121 0-.418.152-.646.267-.836l4.255-7.713c.418-.76.95-1.102 1.938-1.102 1.102 0 2.184.703 2.184 2.432v5.832h.323c.741 0 1.33.494 1.33 1.254s-.589 1.254-1.33 1.254h-.323v1.614c0 1.007-.398 1.483-1.367 1.483s-1.368-.476-1.368-1.483v-1.614h-4.579zm4.578-7.808h-.038l-2.564 5.3h2.603v-5.3z" fill="#FFF"/></svg>