<svg xmlns="http://www.w3.org/2000/svg" viewBox="0 0 36 36"><path fill="#3B88C3" d="M36 32c0 2.209-1.791 4-4 4H4c-2.209 0-4-1.791-4-4V4c0-2.209 1.791-4 4-4h28c2.209 0 4 1.791 4 4v28z"/><path d="M15.672 15.328c0 .703 0 1.786-1.311 1.786-.798 0-1.121-.437-1.311-1.159-.703.836-1.558 1.273-2.603 1.273-2.565 0-4.521-2.185-4.521-5.262 0-3.001 2.014-5.3 4.521-5.3 1.007 0 1.995.399 2.603 1.254.076-.665.646-1.14 1.311-1.14 1.311 0 1.311 1.083 1.311 1.786v6.762zm-4.844-.608c1.425 0 2.109-1.444 2.109-2.754 0-1.311-.665-2.792-2.109-2.792-1.501 0-2.166 1.481-2.166 2.792.001 1.31.684 2.754 2.166 2.754zm3.354 10.985c-.684 0-1.292-.532-2.166-.532-1.558 0-2.298 1.387-2.298 2.793 0 1.349.817 2.755 2.298 2.755.684 0 1.71-.57 2.033-.57.646 0 1.178.551 1.178 1.197 0 1.405-2.356 1.88-3.343 1.88-2.945 0-4.901-2.412-4.901-5.262 0-2.773 2.014-5.3 4.901-5.3 1.083 0 3.343.399 3.343 1.729-.001.569-.4 1.31-1.045 1.31zm6.144-21.813c0-.912.569-1.52 1.367-1.52s1.368.608 1.368 1.52v3.723c.722-.627 1.652-.95 2.603-.95 2.944 0 4.407 2.754 4.407 5.414 0 2.584-1.747 5.148-4.503 5.148-.93 0-1.994-.418-2.507-1.254-.171.722-.608 1.14-1.368 1.14-.798 0-1.367-.608-1.367-1.52V3.892zm4.882 10.828c1.425 0 2.128-1.481 2.128-2.754 0-1.292-.703-2.792-2.128-2.792-1.463 0-2.146 1.368-2.146 2.697 0 1.33.645 2.849 2.146 2.849zm4.464 16.874c0 .912-.569 1.521-1.367 1.521-.76 0-1.197-.418-1.367-1.14-.514.835-1.578 1.253-2.508 1.253-2.755 0-4.503-2.564-4.503-5.147 0-2.66 1.463-5.414 4.407-5.414.95 0 1.881.322 2.604.949v-3.723c0-.913.569-1.52 1.367-1.52s1.367.608 1.367 1.52v11.701zm-4.882-6.421c-1.425 0-2.128 1.501-2.128 2.793 0 1.273.703 2.755 2.128 2.755 1.501 0 2.147-1.521 2.147-2.85.001-1.33-.684-2.698-2.147-2.698z" fill="#FFF"/></svg>