<svg xmlns="http://www.w3.org/2000/svg" viewBox="0 0 36 36"><path fill="#66757F" d="M23 17l1-1s1-1 2 0l2 2s1 1 0 2l-1 1-4-4z"/><path fill="#8899A6" d="M34.879 27.879c1.166 1.166 1.166 3.076 0 4.242l-2.758 2.758c-1.166 1.166-3.076 1.166-4.242 0L9.121 16.121c-1.167-1.166-1.167-3.076 0-4.242l2.758-2.758c1.167-1.167 3.076-1.167 4.242 0l18.758 18.758z"/><path fill="#66757F" d="M20.879 10.879c1.166 1.167 1.166 3.076 0 4.242l-5.758 5.758c-1.167 1.166-3.076 1.166-4.242 0L6 16s-1-1 0-2l8-8c1-1 2 0 2 0l4.879 4.879z"/><path fill="#8899A6" d="M7 17L17 7l2 2L9 19z"/><path d="M11.001 6c-.367 0-.72-.202-.896-.553l-2-4C7.858.953 8.059.353 8.553.105c.495-.248 1.095-.047 1.342.447l2 4c.247.494.047 1.095-.447 1.342-.144.072-.297.106-.447.106zm-6.002 6c-.15 0-.303-.034-.446-.106l-4-2c-.494-.247-.695-.847-.448-1.341.247-.494.847-.695 1.342-.447l4 2c.494.247.694.848.447 1.342-.175.35-.528.552-.895.552zM8 9c-.256 0-.512-.098-.707-.293l-4-4c-.391-.391-.391-1.023 0-1.414s1.023-.391 1.414 0l4 4c.391.391.391 1.023 0 1.414C8.512 8.902 8.256 9 8 9z" fill="#FFCC4D"/></svg>