<svg xmlns="http://www.w3.org/2000/svg" viewBox="0 0 36 36"><path fill="#F4900C" d="M23 4.326c0 4.368-9.837 6.652-9.837 13.206 0 2.184 1.085 4.468 2.177 4.468h15.291c1.093 0 2.192-2.284 2.192-4.468C32.823 10.977 23 8.694 23 4.326z"/><path fill="#FFD983" d="M35 33.815C35 35.022 34.711 36 32.815 36h-19.66C11.26 36 11 35.022 11 33.815V22.894c0-1.206.26-1.894 2.156-1.894h19.66c1.895 0 2.184.688 2.184 1.894v10.921z"/><path fill="#FFD983" d="M23 34c0 1.104-.896 2-2 2H3c-1.104 0-2-.896-2-2v-1c0-1.104.896-2 2-2h18c1.104 0 2 .896 2 2v1z"/><path fill="#662113" d="M26 29c0-3-1.896-5-3-5s-3 2-3 5v7h6v-7zm-8 2.333c0-2-1.264-3.333-2-3.333s-2 1.333-2 3.333V36h4v-4.667zm14 0c0-2-1.264-3.333-2-3.333s-2 1.333-2 3.333V36h4v-4.667z"/><path fill="#FFD983" d="M9 34c0 1.104-.896 2-2 2H5c-1.104 0-2-.896-2-2V8c0-1.104.896-2 2-2h2c1.104 0 2 .896 2 2v26z"/><path fill="#F4900C" d="M5.995.326c0 1.837-2.832 2.918-2.832 5.675 0 .919.312 2 .627 2h4.402c.314 0 .631-1.081.631-2 0-2.757-2.828-3.838-2.828-5.675z"/><path fill="#FFAC33" d="M10 12c0 .552-.448 1-1 1H3c-.552 0-1-.448-1-1s.448-1 1-1h6c.552 0 1 .448 1 1zm0-4c0 .552-.448 1-1 1H3c-.552 0-1-.448-1-1s.448-1 1-1h6c.552 0 1 .448 1 1z"/></svg>