<svg xmlns="http://www.w3.org/2000/svg" viewBox="0 0 36 36"><path fill="#9266CC" d="M36 32c0 2.209-1.791 4-4 4H4c-2.209 0-4-1.791-4-4V4c0-2.209 1.791-4 4-4h28c2.209 0 4 1.791 4 4v28z"/><g fill="#FFF"><path d="M16.211 6.396c-.048.075.312 6.076 5.447 6.076 3.681 0 6.534-2.018 6.708-2.191.108-.107-1.709-2.832-1.803-2.841-.116-.01-2.691 2.421-4.9 2.421-3.54 0-5.328-3.247-5.452-3.465zm7.479.198l-2.597-2.405c-.026.024-2.421 2.466-2.421 2.466l2.553 2.383c0 .001 1.914-1.846 2.465-2.444z"/><path d="M7.292 12.36l1.881 3.062s2.464-1.79 4.841-1.79c1.98 0 2.222 1.097 2.222 1.664s-.519 2.767-5.546 1.914c.091.609.457 2.678 1.614 4.049.884-.091 4.448-.55 4.448 2.802 0 3.045-3.108 3.351-3.656 3.351-.549 0-4.631.396-7.952-7.861-.153.609-.244 2.986.944 5.972s3.473 6.084 7.099 6.084S21.139 29 18.397 22h1.98c1.097 0 2.102-.356 3.108-2.946.831-2.141 1.95-3.225 2.925-3.225.67 0 2.559.078 2.559 4.405 0 3.88-1.828 5.623-3.737 5.651-1.764.025-3.597-1.471-4.124-2.948 0 0-.305 5.909 4.042 6.161 5.82.337 5.891-6.005 5.891-7.165 0-2.837-.792-8.747-5.149-8.747-3.778 0-4.692 2.193-5.606 3.807-.914 1.615-1.737 3.808-4.997 2.071 1.554-.853 2.986-2.407 2.986-4.357s-.701-4.631-4.479-4.906-6.504 2.559-6.504 2.559z"/></g></svg>