<svg xmlns="http://www.w3.org/2000/svg" viewBox="0 0 36 36"><path fill="#67757F" d="M20 21.5c0 .828-.672 1.5-1.5 1.5-.829 0-1.5-.672-1.5-1.5v-3c0-.829.671-1.5 1.5-1.5.828 0 1.5.671 1.5 1.5v3z"/><path fill="#E1E8ED" d="M27.138 33.817C27.183 35.022 26.206 36 25 36H12.183C10.977 36 10 35.022 10 33.817V21c0-1.205.115-2.183 2.183-2.183S15 23 25 21c1.091 0 2.183.978 2.138 2.183v10.634z"/><path fill="#FCAB40" d="M18.687 18.538c-2.595 0-6.962-1.934-6.962-5.898 0-3.988 4.351-5.414 7.005-11.401.751-1.693.999-1.107 1.86-.076 2.06 2.463 5.058 7.483 5.058 11.574-.001 4.641-4.64 5.801-6.961 5.801z"/><path fill="#FDCB58" d="M18.687 17.447c-4.184 0-3.482-5.802 0-9.283 2.321 1.16 5.801 9.283 0 9.283z"/><path fill="#CCD6DD" d="M11 29c0 .553-.448 1-1 1s-1-.447-1-1v-7c0-.553.448-1 1-1s1 .447 1 1v7zm4 3c0 .553-.448 1-1 1s-1-.447-1-1v-7c0-.553.448-1 1-1s1 .447 1 1v7zm0-11c0 .553-.448 1-1 1s-1-.447-1-1v-1c0-.553.448-1 1-1s1 .447 1 1v1z"/></svg>