<svg xmlns="http://www.w3.org/2000/svg" viewBox="0 0 36 36"><path fill="#66757F" d="M6.667 30.02l.479-.479c3.97-.534 7.971 1.17 10.369 4.362v.611c0 .268.217.486.486.486.268 0 .486-.217.486-.486v-.637c2.397-3.206 6.376-4.886 10.355-4.351l.479.479c.059.059.13.093.205.115l.029.006c.158.037.33.002.453-.121s.158-.295.121-.453l-.006-.029c-.022-.075-.056-.146-.115-.205l-.479-.479c-.535-3.979 1.145-7.958 4.351-10.355h.636c.268 0 .486-.217.486-.486 0-.268-.217-.486-.486-.486h-.61c-3.193-2.399-4.896-6.399-4.362-10.369l.479-.479c.19-.19.19-.497 0-.687-.066-.066-.147-.1-.231-.12-.159-.038-.332-.004-.456.12l-.479.479c-3.97.534-7.971-1.17-10.369-4.362v-.61c0-.268-.217-.486-.486-.486-.268 0-.486.217-.486.486v.637C15.118 5.328 11.139 7.007 7.16 6.472l-.479-.479c-.059-.059-.13-.093-.205-.115l-.029-.006c-.158-.037-.329-.002-.453.121-.123.123-.158.295-.121.453l.006.029c.022.075.056.146.115.205l.479.479c.535 3.979-1.145 7.958-4.351 10.355h-.636c-.269 0-.486.217-.486.485s.217.486.486.486h.611c3.193 2.399 4.896 6.399 4.362 10.369l-.479.479c-.124.124-.159.297-.12.456.02.084.055.165.12.231.19.19.497.19.687 0zm.86-21.807l2.206 2.206c.103 1.365-.113 2.744-.66 4.041-.493 1.17-1.252 2.217-2.159 3.053H3.613c.121-.11.271-.237.384-.35 2.352-2.352 3.641-5.606 3.53-8.95zm12.098 8.171c.055.589.259 1.15.597 1.636-.156.228-.294.469-.393.735-.107.288-.159.584-.187.882-.296.028-.59.08-.876.186-.263.098-.502.235-.728.389-.239-.168-.493-.316-.773-.42-.287-.107-.582-.159-.879-.187-.054-.58-.253-1.137-.583-1.617.156-.228.295-.469.393-.735.106-.286.159-.58.186-.876.298-.027.594-.08.882-.187.265-.098.506-.236.734-.392.484.332 1.042.532 1.627.586zm-4.673 2.101c.057.078.119.153.166.238.161.286.26.601.296.928.009.082 0 .166 0 .249l-1.544 1.544c-.094-.448-.211-.894-.373-1.331-.214-.575-.486-1.116-.802-1.627h2.257zm1.164 2.086c.073.001.146-.009.22 0 .199.022.397.059.59.131.135.05.261.115.382.186.074.043.138.1.207.15v2.267c-.51-.315-1.052-.588-1.627-.802-.437-.162-.883-.279-1.331-.373l1.559-1.559zm2.37 2.77v-2.248c.09-.068.178-.138.276-.192.285-.16.6-.259.926-.296.076-.009.154.001.231 0l1.539 1.539c-.448.094-.894.211-1.331.373-.566.21-1.136.514-1.641.824zm2.123-3.42c.001-.08-.009-.159 0-.239.022-.199.06-.397.131-.59.045-.12.105-.231.166-.341.053-.095.121-.18.185-.266h2.251c-.31.505-.614 1.075-.825 1.641-.162.437-.279.883-.373 1.331l-1.535-1.536zm.447-2.407c-.054-.074-.113-.144-.159-.223-.168-.292-.27-.615-.308-.95-.009-.08 0-.162 0-.243l1.541-1.541c.094.448.211.894.373 1.331.214.575.486 1.116.802 1.627h-2.249zm-1.161-2.095c-.076-.001-.152.008-.227 0-.331-.036-.649-.136-.938-.299-.086-.048-.163-.111-.243-.17v-2.255c.51.315 1.052.588 1.627.802.437.162.883.279 1.331.373l-1.55 1.549zm-2.38-2.762v2.282c-.083.061-.163.125-.253.175-.108.06-.217.119-.335.163-.193.072-.391.109-.59.131-.08.009-.159-.001-.239 0l-1.555-1.555c.448-.094.894-.211 1.331-.373.566-.209 1.136-.512 1.641-.823zm-2.101 3.442c-.001.077.008.154 0 .231-.037.327-.136.643-.297.929-.051.09-.116.171-.178.255h-2.28c.31-.505.614-1.075.825-1.641.162-.437.279-.883.373-1.331l1.557 1.557zm-2.827 4.351c.223.6.364 1.215.442 1.834l-.62.62-1.674 1.674c-.041-1.165-.285-2.325-.751-3.431-.417-.99-.99-1.88-1.681-2.662h3.224c.434.597.795 1.254 1.06 1.965zm.509 3.141l.62-.62c.619.078 1.235.219 1.834.442.711.264 1.368.625 1.965 1.06v3.224c-.782-.691-1.673-1.265-2.662-1.681-1.106-.466-2.266-.71-3.431-.751l1.674-1.674zm5.39 4.14v-3.219c.591-.428 1.279-.825 1.979-1.085.6-.223 1.215-.364 1.834-.442l2.294 2.294c-1.165.041-2.325.285-3.431.751-.978.413-1.899 1.02-2.676 1.701zm5.121-4.812l-.62-.62c.078-.619.219-1.235.442-1.834.26-.7.657-1.388 1.085-1.979h3.219c-.682.777-1.289 1.698-1.701 2.677-.466 1.106-.71 2.266-.751 3.431l-1.674-1.675zm.868-5.405c-.435-.597-.796-1.254-1.06-1.965-.223-.6-.364-1.215-.442-1.834l.62-.62 1.674-1.674c.041 1.165.285 2.325.751 3.431.417.99.99 1.88 1.681 2.662h-3.224zm-1.57-5.106l-.62.62c-.619-.078-1.235-.219-1.834-.442-.711-.264-1.368-.625-1.965-1.06V8.301c.782.691 1.673 1.265 2.662 1.681 1.106.466 2.266.71 3.431.751l-1.674 1.675zm-5.39-4.141v3.219c-.591.428-1.279.825-1.979 1.085-.6.223-1.215.364-1.834.442l-.62-.62-1.674-1.674c1.165-.041 2.325-.285 3.431-.751.978-.412 1.899-1.019 2.676-1.701zm-4.5 5.433c-.078.619-.219 1.235-.442 1.834-.26.7-.657 1.388-1.085 1.979H8.269c.682-.777 1.289-1.698 1.701-2.677.466-1.106.71-2.266.751-3.431l2.294 2.295zm-9.004 5.121c-.118-.118-.249-.223-.371-.336h3.304c.913.839 1.649 1.863 2.145 3.039.546 1.297.762 2.676.66 4.041l-.979.978-1.229 1.229c.111-3.345-1.177-6.599-3.53-8.951zm13.168 13.168c-2.352-2.352-5.607-3.641-8.951-3.53l1.229-1.229.977-.977c1.365-.103 2.744.113 4.041.66 1.175.496 2.2 1.231 3.039 2.145v3.304c-.112-.125-.217-.256-.335-.373zm1.657.014c-.113.113-.24.264-.35.384v-3.301c.837-.908 1.883-1.666 3.053-2.159 1.297-.546 2.676-.762 4.041-.66l2.206 2.206c-3.343-.111-6.597 1.178-8.95 3.53zm9.638-4.217l-1.229-1.229-.977-.977c-.103-1.365.113-2.744.66-4.041.493-1.17 1.252-2.217 2.159-3.053h3.301c-.121.11-.271.237-.384.35-2.352 2.352-3.641 5.606-3.53 8.95zm3.516-10.608c.118.118.249.223.371.336h-3.304c-.913-.839-1.649-1.863-2.145-3.039-.546-1.297-.762-2.676-.66-4.041l.977-.977 1.229-1.229c-.109 3.343 1.18 6.598 3.532 8.95zM18.822 4.01c2.352 2.352 5.607 3.641 8.951 3.53l-1.229 1.229-.977.977c-1.365.103-2.744-.113-4.041-.66-1.175-.496-2.2-1.231-3.039-2.145V3.639c.112.122.217.254.335.371zm-1.657-.014c.113-.113.24-.264.35-.384v3.301c-.837.908-1.883 1.666-3.053 2.159-1.297.546-2.676.762-4.041.66l-.978-.977-1.229-1.229c3.344.111 6.598-1.178 8.951-3.53z"/></svg>