<svg xmlns="http://www.w3.org/2000/svg" viewBox="0 0 36 36"><path fill="#31373D" d="M14.999 17c-.208 0-.419-.065-.599-.2C9.863 13.397 6.959 7.585 7 1.993c.004-.553.412-.975 1.007-.993.553.004.997.455.993 1.007-.037 4.98 2.554 10.159 6.6 13.193.442.331.531.958.2 1.4-.196.262-.497.4-.801.4z"/><path fill="#31373D" d="M16 19c-.377 0-9.273-.098-12.919-8.606-.218-.508.018-1.096.525-1.313.508-.218 1.096.018 1.313.525C8.052 16.916 15.677 17 16 17c.552 0 1 .448 1 1 0 .553-.448 1-1 1z"/><path fill="#31373D" d="M4 29c-.104 0-.211-.017-.316-.052-.524-.174-.807-.74-.632-1.265 1.388-4.164 4.719-9.054 12.71-8.692.102.005.183.009.238.009.552 0 1 .447 1 1s-.448 1-1 1c-.076 0-.187-.005-.328-.011-5.411-.237-9.021 2.222-10.723 7.327-.14.419-.53.684-.949.684z"/><path fill="#31373D" d="M8 36c-.552 0-1-.447-1-1 0-4.495 3.228-12.703 8.485-15.857.474-.284 1.088-.131 1.372.343s.131 1.088-.343 1.372C11.997 23.568 9 31.165 9 35c0 .553-.448 1-1 1zm13.001-19c-.305 0-.604-.138-.801-.4-.332-.442-.242-1.069.2-1.4 4.046-3.035 6.637-8.213 6.6-13.193-.004-.552.44-1.003.992-1.007H28c.549 0 .996.443 1 .993.042 5.592-2.863 11.404-7.4 14.807-.18.135-.39.2-.599.2z"/><path fill="#31373D" d="M20 19c-.553 0-1-.447-1-1 0-.552.447-1 1-1 .323 0 7.948-.084 11.081-7.394.218-.507.808-.742 1.312-.525.508.217.743.805.525 1.313C29.272 18.902 20.377 19 20 19z"/><path fill="#31373D" d="M32 29c-.419 0-.809-.265-.948-.684-1.702-5.105-5.293-7.559-10.724-7.327-.141.006-.252.011-.328.011-.553 0-1-.447-1-1s.447-1 1-1c.055 0 .136-.004.238-.009 7.979-.36 11.323 4.528 12.71 8.692.175.524-.108 1.091-.632 1.265-.105.035-.212.052-.316.052z"/><path fill="#31373D" d="M28 36c-.553 0-1-.447-1-1 0-3.835-2.997-11.432-7.515-14.143-.474-.284-.627-.898-.343-1.372.284-.473.897-.627 1.372-.343C25.771 22.297 29 30.505 29 35c0 .553-.447 1-1 1z"/><ellipse fill="#31373D" cx="18" cy="25.208" rx="6" ry="6.792"/><ellipse fill="#31373D" cx="18" cy="17" rx="4" ry="6"/><path fill="#31373D" d="M16 14c-.256 0-.512-.098-.707-.293C14 12.414 14 11.076 14 10c0-.552.448-1 1-1s1 .448 1 1c0 .92 0 1.586.707 2.293.391.391.391 1.023 0 1.414-.195.195-.451.293-.707.293zm4 0c-.256 0-.512-.098-.707-.293-.391-.391-.391-1.023 0-1.414C20 11.586 20 10.92 20 10c0-.552.447-1 1-1s1 .448 1 1c0 1.076 0 2.414-1.293 3.707-.195.195-.451.293-.707.293z"/></svg>