<svg xmlns="http://www.w3.org/2000/svg" viewBox="0 0 36 36"><path fill="#99AAB5" d="M16 9h4v17h-4z"/><path fill="#DA2F47" d="M10 24.5c0 .828-.672 1.5-1.5 1.5h-3c-.828 0-1.5-.672-1.5-1.5S4.672 23 5.5 23h3c.828 0 1.5.672 1.5 1.5z"/><path fill="#31373D" d="M34 33c0 1.104-.896 2-2 2H4c-1.104 0-2-.896-2-2v-6c0-1.104.896-2 2-2h28c1.104 0 2 .896 2 2v6z"/><path fill="#31373D" d="M10 34.5c0 .828-.671 1.5-1.5 1.5h-3c-.829 0-1.5-.672-1.5-1.5S4.671 33 5.5 33h3c.829 0 1.5.672 1.5 1.5zm22 0c0 .828-.672 1.5-1.5 1.5h-3c-.828 0-1.5-.672-1.5-1.5s.672-1.5 1.5-1.5h3c.828 0 1.5.672 1.5 1.5z"/><circle fill="#DA2F47" cx="18" cy="7" r="5"/><path fill="#31373D" d="M25 26c0 1.104-.896 2-2 2H13c-1.104 0-2-.896-2-2v-1c0-1.104 3.896-6 5-6h4c1.104 0 5 4.896 5 6v1z"/><path fill="#66757F" d="M33 28c0 .553-.447 1-1 1H4c-.552 0-1-.447-1-1 0-.553.448-1 1-1h28c.553 0 1 .447 1 1z"/></svg>