<svg xmlns="http://www.w3.org/2000/svg" viewBox="0 0 36 36"><path fill="#292F33" d="M26.157 35.26c-.005-.034-.055-.214-.055-.214l-.057.027.004-.134c-.021-.58-.608-.51-.678-.516-.07-.006-.305.006-.596-.031-.29-.037-.57-.108-.816-.257-.287-.174-.678-.467-1.014-.663s-.758-.437-.758-.437-.367.682-1.127.654c-.409-.015-1.05-.337-1.133-.36-.11-.031-.159.031-.205.116-.046.086-.211.684-.211 1.005 0 .204.025.333.044.405l-.055-.017c-.025-.007-.049.012-.049.039v.687c0 .045.037.147.155.171.118.024 1.759.165 1.821.11s.13-.232.183-.257c.053-.024.603.094.859.155s.698.165 1.218.165 1.191-.153 1.607-.257c.415-.104.741-.243.815-.289.074-.046.053-.067.048-.102z"/><path fill="#4B545D" d="M21.19 35.405l-.41-.287c.008-.013.829-1.147 2.439-.666.092-.126.23-.324.363-.544l.428.26c-.24.396-.491.718-.501.731l-.111.142-.17-.061c-1.379-.491-2.031.415-2.038.425z"/><path fill="#292F33" d="M14.268 35.26c-.005-.034-.055-.214-.055-.214l-.057.027.004-.134c-.021-.58-.608-.51-.678-.516-.07-.006-.305.006-.596-.031s-.57-.108-.816-.257c-.287-.174-.678-.467-1.014-.663s-.758-.437-.758-.437-.367.682-1.127.654c-.409-.015-1.05-.337-1.133-.36-.11-.031-.159.031-.205.116-.046.086-.211.684-.211 1.005 0 .204.025.333.044.405l-.055-.017c-.025-.007-.049.012-.049.039v.687c0 .045.037.147.155.171.118.024 1.759.165 1.821.11s.13-.232.183-.257c.053-.024.603.094.859.155s.698.165 1.218.165 1.191-.153 1.607-.257c.415-.104.741-.243.815-.289.073-.046.053-.067.048-.102z"/><path fill="#4B545D" d="M9.3 35.406l-.409-.288c.008-.012.823-1.149 2.439-.666.091-.126.23-.324.363-.544l.428.26c-.24.396-.491.718-.501.731l-.111.142-.17-.061c-1.366-.488-2.012.388-2.039.426z"/><path fill="#D4AB88" d="M28.658 1.816c-.19-.089-.279.102-.279.102l-.378.812c.007-.014-.083-.071-.077-.082l.56-1.201s.089-.19-.102-.279-.279.102-.279.102l-.054.115-.472 1.013c.001-.003-.093-.049-.092-.051l.622-1.336s.089-.19-.102-.279c-.19-.089-.279.102-.279.102l-.622 1.336c-.001.002-.097-.039-.099-.036l.515-1.106s.089-.19-.102-.279c-.19-.089-.279.102-.279.102l-.702 1.507c-.048.103-.139.105-.179.078-.106-.072-.05-.26-.079-.424-.045-.25-.196-.415-.355-.418-.176-.003-.206.138-.192.187.028.095.073.254.126.506.037.177-.017.324-.017.324-.023.072-.085.318-.038.604.028.169.092.352.205.52l-.332.714 1.507.659.366-.956c.267-.119.5-.319.633-.604l.044-.095.631-1.355c.003-.004.091-.194-.099-.282z"/><path fill="#B78B60" d="M26.348 2.443c.04-.012.06-.036.075-.058.168.108.389.272.491.543.132.351.054.627-.028.798-.066.138-.172.168-.099-.047.092-.27.143-.866-.455-1.205l-.055-.03c.001 0 .037.009.071-.001z"/><path fill="#D4AB88" d="M11.397 20.373c-.076-.064-.202-.171-.385-.352-.129-.128-.165-.279-.165-.279-.021-.073-.105-.312-.303-.524-.117-.126-.271-.243-.459-.319l-.116-.779-1.62.284.224.999c-.156.247-.24.542-.193.854l.016.104.224 1.478s.031.207.239.176.176-.239.176-.239L8.9 20.89c.002.015.108.013.11.026l.198 1.31s.031.207.239.176c.207-.031.176-.239.176-.239l-.019-.126-.167-1.105c0 .003.104-.01.105-.009l.221 1.457s.031.207.239.176c.207-.031.176-.239.176-.239l-.22-1.457c0-.002.103-.021.102-.024l.182 1.206s.031.207.239.176c.207-.031.176-.239.176-.239l-.249-1.644c-.017-.112.057-.165.106-.164.128.001.185.189.3.309.176.183.393.237.527.152.148-.092.095-.227.056-.259z"/><path fill="#292F33" d="M25.814 3.729S23.755 8.05 23.512 8.19c-.219.126-1.719-.042-3.699.354-1.979.396-2.744-.155-4.769-.075-1.176.046-2.413.452-3.227.648-1.237.299-3.276 3.237-3.848 4.26-.443.791-.421 1.68-.327 2.372.078.578.058 1.486.82 3.41l1.719-.281s-.289-3.783-.043-4.192c.102-.169 1.323-2.119 2.303-2.473l8.188-.385s3.375-.485 4.302-1.167c.708-.521 2.497-6.251 2.497-6.251l-1.614-.681z"/><path fill="#D4AB88" d="M15.546 5.857c.175-.172.407-.289.671-.314.613-.064 1.16.383 1.222.997l.319 3.153c.061.611-.384 1.16-.997 1.221-.615.063-1.161-.384-1.222-.997l-.32-3.153c-.035-.35.095-.676.327-.907z"/><path fill="#D4AB88" d="M19.243 4.296c0 1.849-1.309 3.348-2.927 3.348s-2.929-1.499-2.929-3.348c0-1.848 1.311-3.347 2.929-3.347 1.618 0 2.927 1.499 2.927 3.347z"/><path fill="#963B22" d="M17.89 2.018s-1.14 1.07-2.349 1.255c0 0-.723 1.171-.768 1.847 0 0-.45-1.081-.81-.9-.36.18-.496.855-.18 1.305.315.451.705 1.226.363 1.003-.689-.45-.79-.768-.976-1.07-.127-.206-.425-.943-.465-2.162-.024-.721.232-2.116 1.707-2.857 1.278-.644 3.287-.315 4.231.359.945.676 1.18 2.38.594 3.056 0 0-.085-.63-.488-1.14-.226-.283-.859-.696-.859-.696z"/><path fill="#DD2E44" d="M12.407 9.474v9.253l7.083-.024s.625-2.703 1.034-4.549c.474-2.135-1.079-5.392-1.079-5.392l-1.082-.108-.212-1.011-1.056.4-.151 1.751-.456-1.666-1.548-.135-.184 1.067-2.349.414z"/><path fill="#292F33" d="M11.781 9.593s.688 2.443.385 7.5c2.228-.038 3.963-.732 3.963-.732s.146-1.919-.228-3.615c-.546-2.469-1.105-3.921-1.105-3.921l-3.015.768zm6.516-1.246s.623 3.271.484 5.224c-.14 1.953-.235 2.694-.235 2.694s.441.486 1.57.466c.467-1.222.752-3.679.695-5.183-.059-1.585-1.002-3.127-1.002-3.127l-1.512-.074zm-5.89 10.38s-.607 6.995-.982 8.307c-.334 1.168-3.799 6.742-3.799 6.742s1.646.406 3.229.094c0 0 3.163-3.836 3.99-5.688.24-.539 1.835-5.521 1.835-5.521s1.712 1.908 2.863 3.599c.728 2.003.09 7.442.09 7.442s1.483.312 2.899.042c0 0 .859-5.397.651-7.688-.033-.367-.103-1.05-.245-1.309-.619-1.123-1.963-3.231-2.822-4.172-.774-.847-.625-1.873-.625-1.873l-7.084.025z"/></svg>