<svg xmlns="http://www.w3.org/2000/svg" viewBox="0 0 36 36"><path fill="#7C533E" d="M32.375 16.219c-1.381-.611-3.354.208-4.75 2.188-.917 1.3-1.187 3.151-2.391 3.344-.46.074-.71-.206-.84-.609-.137-.68-.107-1.731.147-3.201l2.74-12.315c.218-.941-.293-1.852-1.523-2.149s-2.155.306-2.374 1.247L20.938 15.89c-.493 2.466-1.407 2.018-1.186-.775v-.001l.701-13.092C20.51 1.01 19.732.183 18.582.139c-1.15-.044-1.979.646-2.038 1.657l-.668 13.409c-.143 2.707-1.112 1.687-1.322-.274L13 4.083c-.159-1.023-1.118-1.73-2.268-1.546-1.15.185-1.845 1.136-1.686 2.159l1.495 9.914c.593 3.785-.182 4.833-1.458.723L7.489 9.308c-.26-.967-1.213-1.567-2.41-1.231-1.197.336-1.713 1.299-1.454 2.266l1.558 5.663c.651 4.077.651 5.686.651 8.493S7.125 36 17 36s11.906-10.031 12-10.666c0 0 .123-1.48 1.156-2.865 1.469-1.969 2.5-3.156 3.125-3.866.317-.359.625-1.707-.906-2.384z"/><path fill="#583529" d="M24.911 21.741c-.3-.122-.554-.436-.584-1.119-1.892.259-4.451.789-6.42 2.715-2.556 2.499-2.992 5.2-2.971 7.007.017 1.457.812 2.147 1.045-.012.293-2.727 2.282-8.143 8.93-8.591z"/></svg>