<svg xmlns="http://www.w3.org/2000/svg" viewBox="0 0 36 36"><path fill="#D79E84" d="M35 30c0 1.104-.896 2-2 2H3c-1.104 0-2-.896-2-2V6c0-1.104.896-2 2-2h30c1.104 0 2 .896 2 2v24z"/><path fill="#BF6952" d="M33 4H3c-1.104 0-2 .896-2 2v24c0 .389.116.748.307 1.055l33.33-26.198C34.276 4.34 33.679 4 33 4z"/><path fill="#8CCAF7" d="M31 22V9c0-.552-.447-1-1-1H6c-.552 0-1 .448-1 1v13h26z"/><path fill="#5DADEC" d="M6 28h13v-7H5v6c0 .553.448 1 1 1z"/><path fill="#292F33" d="M19 21v7h11c.553 0 1-.447 1-1v-6H19z"/><path fill="#67757F" d="M20 19c-.613 0-.852 1.127-1.405 2-.349.55-.822 1-1.595 1-2 0-2 3-3 3-1.256 0-2.512 1.578-3.273 3H19c.879-1.758 1.761-3.514 4-3.913.307-.055.638-.087 1-.087 3 0 3.106-1.553 4-2 1.358-.679 2.251-.437 3-.211V19H20z"/><path fill="#E75A70" d="M25 11l-4 4v4h8v-4z"/><path fill="#292F33" d="M29 16c-.256 0-.512-.098-.707-.293L25 12.414l-3.293 3.293c-.391.391-1.023.391-1.414 0s-.391-1.023 0-1.414l4-4c.391-.391 1.023-.391 1.414 0l4 4c.391.391.391 1.023 0 1.414-.195.195-.451.293-.707.293z"/><path fill="#BB1A34" d="M23 16h2v3h-2z"/><path fill="#FFF" d="M17.219 14.125c0-1.036-.839-1.875-1.875-1.875-.079 0-.155.014-.232.023.028-.129.044-.261.044-.398 0-1.036-.839-1.875-1.875-1.875-.668 0-1.251.352-1.583.878-.208-.08-.431-.128-.667-.128-.952 0-1.73.713-1.851 1.632-.211-.083-.439-.132-.68-.132-1.036 0-1.875.839-1.875 1.875S7.464 16 8.5 16c.041 0 .08-.01.121-.012l.004.012h6.75v-.003c1.021-.017 1.844-.847 1.844-1.872z"/></svg>