<svg xmlns="http://www.w3.org/2000/svg" viewBox="0 0 36 36"><path fill="#66757F" d="M27.815 4h1.996v2.391h-1.996z"/><path fill="#55ACEE" d="M29 4H9C6.791 4 5 5.791 5 8v24c0 2.209 1.791 4 4 4h20c2.209 0 4-1.791 4-4V8c0-2.209-1.791-4-4-4z"/><path fill="#CCD6DD" d="M27 4H7C4.791 4 3 5.791 3 8v24c0 2.209 1.791 4 4 4h20c2.209 0 4-1.791 4-4V8c0-2.209-1.791-4-4-4z"/><path fill="#99AAB5" d="M28 15c0 .553-.447 1-1 1H7c-.552 0-1-.447-1-1 0-.552.448-1 1-1h20c.553 0 1 .448 1 1zm0 5c0 .553-.447 1-1 1H7c-.552 0-1-.447-1-1 0-.553.448-1 1-1h20c.553 0 1 .447 1 1zm0 5c0 .553-.447 1-1 1H7c-.552 0-1-.447-1-1 0-.553.448-1 1-1h20c.553 0 1 .447 1 1zm-8 5c0 .553-.447 1-1 1H7c-.552 0-1-.447-1-1 0-.553.448-1 1-1h12c.553 0 1 .447 1 1z"/><path fill="#292F33" d="M7.836 8.731c-.702 0-1.271-.666-1.271-1.489 0-.822.569-1.489 1.271-1.489.701 0 1.27.667 1.27 1.489 0 .822-.569 1.489-1.27 1.489z"/><path fill="#66757F" d="M8.543 7.083c-.055-.48-.374-.792-.729-1.017-.485-.307-1-1.008-1-1.877 0-1.104.671-2.095 1.5-2.095s1.5.905 1.5 1.905h1.996c-.021-2-1.575-3.821-3.496-3.821-1.934 0-3.5 1.819-3.5 4.005 0 1.853 1.045 3.371 2.569 3.926.76.276 1.224-.447 1.16-1.026z"/><path fill="#292F33" d="M13.836 8.731c-.702 0-1.271-.666-1.271-1.489 0-.822.569-1.489 1.271-1.489.701 0 1.27.667 1.27 1.489 0 .822-.569 1.489-1.27 1.489z"/><path fill="#66757F" d="M14.543 7.083c-.055-.48-.374-.792-.729-1.017-.485-.307-1-1.008-1-1.877 0-1.104.671-2.095 1.5-2.095s1.5.905 1.5 1.905h1.996c-.02-2-1.575-3.821-3.496-3.821-1.934 0-3.5 1.819-3.5 4.005 0 1.853 1.045 3.371 2.569 3.926.76.276 1.224-.447 1.16-1.026z"/><path fill="#292F33" d="M19.836 8.731c-.702 0-1.271-.666-1.271-1.489 0-.822.569-1.489 1.271-1.489.701 0 1.271.667 1.271 1.489-.001.822-.57 1.489-1.271 1.489z"/><path fill="#66757F" d="M20.543 7.083c-.055-.48-.374-.792-.728-1.017-.485-.307-1-1.008-1-1.877 0-1.104.671-2.095 1.5-2.095s1.5.905 1.5 1.905h1.996c-.02-2-1.575-3.821-3.496-3.821-1.934 0-3.5 1.819-3.5 4.005 0 1.853 1.045 3.371 2.569 3.926.759.276 1.223-.447 1.159-1.026z"/><path fill="#292F33" d="M25.836 8.731c-.702 0-1.271-.666-1.271-1.489 0-.822.569-1.489 1.271-1.489.701 0 1.271.667 1.271 1.489-.001.822-.57 1.489-1.271 1.489z"/><path fill="#66757F" d="M26.543 7.083c-.055-.48-.374-.792-.728-1.017-.485-.307-1-1.008-1-1.877 0-1.104.671-2.095 1.5-2.095s1.5.905 1.5 1.905h1.996c-.02-2-1.575-3.821-3.496-3.821-1.934 0-3.5 1.819-3.5 4.005 0 1.853 1.045 3.371 2.569 3.926.759.276 1.223-.447 1.159-1.026z"/></svg>