<svg xmlns="http://www.w3.org/2000/svg" viewBox="0 0 36 36"><path fill="#FA743E" d="M35.838 23.159c.003.553-.443 1.002-.998 1.003l-5 .013c-.552.002-.999-.446-1-.997-.003-.555.444-1.002.995-1.004l5-.013c.553 0 1.002.445 1.003.998zm-1.587-5.489c.238.499.025 1.095-.475 1.333l-4.517 2.145c-.498.236-1.094.023-1.33-.476-.239-.498-.025-1.094.474-1.333l4.516-2.144c.5-.236 1.095-.024 1.332.475zm.027 10.987c.234-.501.02-1.096-.48-1.33l-4.527-2.122c-.501-.235-1.095-.02-1.33.48-.234.501-.019 1.096.482 1.33l4.526 2.123c.499.234 1.096.019 1.329-.481z"/><path fill="#269" d="M27.979 14.875c-1.42-.419-2.693-1.547-3.136-2.25-.76-1.208.157-1.521-.153-4.889C24.405 4.653 20.16 1.337 15 1c-2.346-.153-4.786.326-7.286 1.693-6.42 3.511-8.964 10.932-4.006 18.099 4.47 6.46.276 9.379.276 9.379s.166 1.36 2.914 3.188c2.749 1.827 6.121.588 6.121.588s1.112-3.954 4.748-3.59c2.606.384 6.266-.129 7.191-1.024.865-.837-.151-1.886.539-4.224-2.365-.232-3.665-1.359-3.79-2.948 2.625.255 3.708-.578 4.458-1.495-.021-.54-.075-1.686-.127-2.454 2.322-.672 3.212-2.962 1.941-3.337z"/></svg>