<svg xmlns="http://www.w3.org/2000/svg" viewBox="0 0 36 36"><path fill="#FFCC4D" d="M36 18c0 9.941-8.059 18-18 18-9.94 0-18-8.059-18-18C0 8.06 8.06 0 18 0c9.941 0 18 8.06 18 18"/><path fill="#664500" d="M16 18c-.419 0-.809-.265-.949-.684C14.848 16.717 14.034 15 13 15c-1.062 0-1.888 1.827-2.051 2.316-.175.523-.738.808-1.265.632-.524-.174-.807-.741-.632-1.265C9.177 16.307 10.356 13 13 13s3.823 3.307 3.949 3.684c.175.524-.108 1.091-.632 1.265-.106.034-.213.051-.317.051zm10 0c-.419 0-.809-.265-.948-.684C24.849 16.717 24.033 15 23 15c-1.062 0-1.889 1.827-2.052 2.316-.175.523-.736.808-1.265.632-.523-.174-.807-.741-.632-1.265C19.177 16.307 20.355 13 23 13s3.823 3.307 3.948 3.684c.175.524-.108 1.091-.632 1.265-.105.034-.212.051-.316.051zm-8 4c-3.623 0-6.027-.422-9-1-.679-.131-2 0-2 2 0 4 4.595 9 11 9 6.404 0 11-5 11-9 0-2-1.321-2.132-2-2-2.973.578-5.377 1-9 1z"/><path fill="#FFF" d="M9 23s3 1 9 1 9-1 9-1-1.344 6.75-9 6.75S9 23 9 23z"/><path fill="#664500" d="M18 27.594c-3.596 0-6.272-.372-7.937-.745l-.825-1.871c.823.312 3.889.897 8.763.897 4.954 0 8.037-.616 8.864-.938l-.701 1.842c-1.634.38-4.419.815-8.164.815z"/></svg>