<svg xmlns="http://www.w3.org/2000/svg" viewBox="0 0 36 36"><path fill="#FFCC4D" d="M36 18c0 9.941-8.059 18-18 18-9.94 0-18-8.059-18-18C0 8.06 8.06 0 18 0c9.941 0 18 8.06 18 18"/><path fill="#664500" d="M28.457 17.797c-.06-.135-1.499-3.297-4.457-3.297-2.957 0-4.397 3.162-4.457 3.297-.092.207-.032.449.145.591.175.142.426.147.61.014.012-.009 1.262-.902 3.702-.902 2.426 0 3.674.881 3.702.901.088.066.194.099.298.099.11 0 .221-.037.312-.109.177-.142.238-.386.145-.594zm-12 0c-.06-.135-1.499-3.297-4.457-3.297-2.957 0-4.397 3.162-4.457 3.297-.092.207-.032.449.144.591.176.142.427.147.61.014.013-.009 1.262-.902 3.703-.902 2.426 0 3.674.881 3.702.901.088.066.194.099.298.099.11 0 .221-.037.312-.109.178-.142.237-.386.145-.594zM31 16c-.396 0-.772-.238-.929-.629-1.778-4.445-6.223-5.381-6.268-5.391-.541-.108-.893-.635-.784-1.177.108-.542.635-.891 1.177-.784.226.045 5.556 1.168 7.732 6.608.205.513-.045 1.095-.558 1.3-.12.05-.246.073-.37.073zM5 16c-.124 0-.249-.023-.371-.072-.513-.205-.762-.787-.557-1.3 2.176-5.44 7.506-6.563 7.732-6.608.543-.106 1.068.243 1.177.784.108.54-.242 1.066-.781 1.176-.185.038-4.506.98-6.271 5.391-.157.391-.533.629-.929.629zm13 6c-3.623 0-6.027-.422-9-1-.679-.131-2 0-2 2 0 4 4.595 9 11 9 6.404 0 11-5 11-9 0-2-1.321-2.132-2-2-2.973.578-5.377 1-9 1z"/><path fill="#FFF" d="M9 23s3 1 9 1 9-1 9-1-2 4-9 4-9-4-9-4z"/><path fill="#5DADEC" d="M10.847 28.229c-.68 2.677-3.4 4.295-6.077 3.615-2.676-.679-4.295-3.399-3.616-6.076.679-2.677 6.337-8.708 7.307-8.462.97.247 3.065 8.247 2.386 10.923zm14.286 0c.68 2.677 3.4 4.295 6.077 3.615 2.677-.679 4.296-3.399 3.616-6.076-.68-2.677-6.338-8.708-7.308-8.462-.968.247-3.064 8.247-2.385 10.923z"/></svg>