<svg xmlns="http://www.w3.org/2000/svg" viewBox="0 0 36 36"><path fill="#FFCC4D" d="M36 18c0 9.941-8.059 18-18 18-9.94 0-18-8.059-18-18C0 8.06 8.06 0 18 0c9.941 0 18 8.06 18 18"/><ellipse fill="#664500" cx="11.5" cy="16.5" rx="2.5" ry="3.5"/><path fill="#664500" d="M28.457 17.797c-.06-.135-1.499-3.297-4.457-3.297-2.957 0-4.397 3.162-4.457 3.297-.092.207-.032.449.145.591.175.142.426.147.61.014.012-.009 1.262-.902 3.702-.902 2.426 0 3.674.881 3.702.901.088.066.194.099.298.099.11 0 .221-.037.312-.109.177-.142.238-.386.145-.594zM5.999 12.458c-.208 0-.419-.065-.599-.2-.442-.331-.531-.958-.2-1.4 3.262-4.35 7.616-4.4 7.8-4.4.552 0 1 .448 1 1 0 .551-.445.998-.996 1-.156.002-3.569.086-6.205 3.6-.195.262-.496.4-.8.4zm23.002 2.125c-.305 0-.604-.138-.801-.4-2.592-3.457-6.961-2.627-7.004-2.62-.547.108-1.068-.243-1.177-.784-.108-.542.243-1.068.784-1.177.231-.047 5.657-1.072 8.996 3.38.332.442.242 1.069-.2 1.4-.179.137-.389.201-.598.201zm-5.747 8.994c-.188-.11-.432-.087-.597.06-.01.008-1.013.863-4.657.863-3.641 0-4.646-.854-4.646-.854-.159-.16-.404-.19-.6-.082-.195.111-.293.339-.238.557.01.044 1.144 4.379 5.484 4.379s5.474-4.335 5.485-4.379c.053-.213-.044-.431-.231-.544z"/></svg>