<svg xmlns="http://www.w3.org/2000/svg" viewBox="0 0 36 36"><circle fill="#FFCC4D" cx="18" cy="18" r="18"/><path fill="#664500" d="M27.335 22.629c-.178-.161-.444-.171-.635-.029-.039.029-3.922 2.9-8.7 2.9-4.766 0-8.662-2.871-8.7-2.9-.191-.142-.457-.13-.635.029-.177.16-.217.424-.094.628C8.7 23.472 11.788 28.5 18 28.5s9.301-5.028 9.429-5.243c.123-.205.084-.468-.094-.628zM26 19c-.419 0-.809-.265-.948-.684C24.849 17.717 24.033 16 23 16c-1.062 0-1.889 1.827-2.052 2.316-.175.523-.736.808-1.265.632-.523-.174-.807-.74-.632-1.265C19.177 17.307 20.355 14 23 14s3.823 3.307 3.948 3.684c.175.524-.108 1.091-.632 1.265-.105.034-.212.051-.316.051zm-10 0c-.419 0-.809-.265-.949-.684C14.848 17.717 14.034 16 13 16c-1.062 0-1.888 1.827-2.051 2.316-.175.523-.738.808-1.265.632-.524-.174-.807-.74-.632-1.265C9.177 17.307 10.355 14 13 14s3.823 3.307 3.949 3.684c.175.524-.108 1.091-.632 1.265-.106.034-.213.051-.317.051z"/><path fill="#FFAC33" d="M33.175 8.316s-9.042.161-15.175.161c-3.905 0-15.206-.118-15.206-.118l-.521.876c3.043 1.856 9.064 2.917 15.727 2.917 6.596 0 12.576-1.04 15.652-2.86l.078-.047s-.374-.664-.555-.929z"/><path fill="#5DADEC" d="M23.777.345c-1.212-.094-2.473-.159-3.773-.19C19.343.139 18.676.129 18 .129c-.672 0-1.336.01-1.993.025-1.302.031-2.564.096-3.777.19C5.34.88.169 2.451.169 5.287c0 3.588 8.264 5.771 17.831 5.771s17.831-2.183 17.831-5.771c0-2.835-5.168-4.405-12.054-4.942zM18 7.383c-6.861 0-12.91-.833-12.91-2.736 0-.536.494-1.023 1.339-1.449 1.153-.581 2.978-1.044 5.189-1.349 1.911-.262 4.098-.41 6.382-.41 2.291 0 4.485.148 6.4.413 2.242.31 4.086.783 5.232 1.377.807.418 1.278.894 1.278 1.418 0 1.903-6.049 2.736-12.91 2.736z"/><path fill="#3B94D9" d="M24.4 1.853c2.242.31 4.086.783 5.232 1.377l.062.017c-2.285-1.674-4.57-2.56-5.917-2.902-1.212-.094-2.473-.159-3.773-.19l.018.007L24.4 1.853zM6.429 3.199c1.153-.581 2.978-1.044 5.189-1.349L15.984.162l.023-.008c-1.302.031-2.564.096-3.777.19-1.347.342-3.633 1.227-5.919 2.902l.118-.047z"/><path fill="#FFCC4D" d="M28.472 3.375c-.66-.443-1.346-.91-2.001-1.26C23.947.765 21.063 0 18 0c-2.929 0-5.695.7-8.14 1.941-1.089.553-1.881.999-2.17 1.434h20.782z"/></svg>