<svg xmlns="http://www.w3.org/2000/svg" viewBox="0 0 36 36"><path fill="#FFCC4D" d="M36 18c0 9.941-8.059 18-18 18-9.94 0-18-8.059-18-18C0 8.06 8.06 0 18 0c9.941 0 18 8.06 18 18"/><path fill="#664500" d="M6 13c-.552 0-1-.448-1-1 0-.551.445-.998.996-1 .156-.002 3.569-.086 6.205-3.6.331-.44.957-.532 1.4-.2.442.331.531.958.2 1.4C10.538 12.95 6.184 13 6 13zm24 0c-.184 0-4.537-.05-7.8-4.4-.332-.442-.242-1.069.2-1.4.441-.333 1.067-.242 1.399.2 2.641 3.521 6.061 3.599 6.206 3.6.55.006.994.456.991 1.005-.002.551-.446.995-.996.995zM6.001 22c-.304 0-.604-.138-.801-.4-.332-.441-.242-1.068.2-1.399.143-.107 2.951-2.183 6.856-2.933C9.781 16.027 7.034 16 6.999 16c-.552-.002-.999-.45-.998-1.002 0-.551.447-.998.999-.998.221 0 5.452.038 8.707 3.293.286.286.372.716.217 1.09-.155.374-.52.617-.924.617-4.613 0-8.363 2.772-8.4 2.8-.18.135-.391.2-.599.2zm23.998-.001c-.208 0-.418-.064-.598-.198C29.363 21.772 25.59 19 21 19c-.404 0-.77-.243-.924-.617-.155-.374-.069-.804.217-1.09C23.549 14.038 28.779 14 29 14c.552 0 .998.447.999.998.001.552-.446 1-.997 1.002-.036 0-2.783.027-5.258 1.268 3.905.75 6.713 2.825 6.855 2.933.441.331.531.956.201 1.398-.196.261-.496.4-.801.4zM18 30c-.304 0-.591-.138-.781-.375l-3.194-3.992L11.8 28.6c-.174.232-.44.377-.729.397-.29.021-.574-.085-.778-.29l-1-1c-.391-.391-.391-1.023 0-1.414s1.023-.391 1.414 0l.185.185L13.2 23.4c.186-.248.475-.396.784-.4.295-.01.603.133.796.375L18 27.399l3.219-4.024c.193-.241.484-.375.797-.375.31.005.599.152.784.4l2.309 3.077.185-.185c.391-.391 1.023-.391 1.414 0s.391 1.023 0 1.414l-1 1c-.205.205-.479.314-.778.29-.289-.021-.555-.165-.729-.397l-2.226-2.967-3.193 3.992c-.191.238-.478.376-.782.376z"/></svg>