<svg xmlns="http://www.w3.org/2000/svg" viewBox="0 0 36 36"><path fill="#FFCC4D" d="M36 18c0 9.941-8.059 18-18 18S0 27.941 0 18 8.059 0 18 0s18 8.059 18 18"/><circle fill="#FF7892" cx="7" cy="21" r="5"/><circle fill="#FF7892" cx="29" cy="21" r="5"/><path fill="#664500" d="M28.416 17.723C28.355 17.632 26.901 15.5 24 15.5c-2.9 0-4.355 2.132-4.416 2.223-.135.202-.104.47.071.638.174.167.446.185.643.042.012-.01 1.262-.903 3.702-.903 2.426 0 3.674.881 3.702.901.089.066.194.099.298.099.124 0 .248-.046.344-.137.177-.167.207-.438.072-.64zM12 15.5c-2.9 0-4.355 2.132-4.416 2.223-.134.202-.104.47.071.638.175.167.447.185.642.042.013-.01 1.262-.903 3.703-.903 2.426 0 3.674.881 3.702.901.089.066.194.099.298.099.124 0 .248-.046.344-.137.177-.167.208-.438.072-.641-.061-.09-1.515-2.222-4.416-2.222zM21.871 27c1.335-.412 2.629-1.156 2.629-2.5 0-2.619-4.912-2.968-5.473-2.999-.277-.036-.51.194-.526.468-.017.274.19.511.464.53.035.002 3.535.299 3.535 2.001s-3.5 1.999-3.535 2.001c-.01.001-.017.006-.026.007-.124.008-.23.065-.31.159l-.015.021c-.029.039-.055.078-.073.125-.011.027-.016.057-.021.086-.005.024-.017.046-.019.07-.001.01.004.02.004.031s-.005.021-.004.031c.002.025.013.046.019.07.006.029.011.059.022.087.013.032.032.06.051.088.017.023.03.047.05.067.023.024.052.043.081.062.024.017.045.033.071.046.031.015.065.021.101.027.023.006.044.018.069.02.035.003 3.535.3 3.535 2.002s-3.5 1.999-3.535 2.001c-.273.02-.481.257-.464.53.017.265.236.469.499.469l.027-.001c.561-.031 5.473-.38 5.473-2.999 0-1.344-1.294-2.088-2.629-2.5zm9.13-11c-.305 0-.604-.138-.801-.4-2.641-3.521-6.061-3.599-6.206-3.6-.55-.006-.994-.456-.991-1.005.003-.551.447-.995.997-.995.184 0 4.537.05 7.8 4.4.332.442.242 1.069-.2 1.4-.18.135-.39.2-.599.2zM4.999 16c-.208 0-.419-.065-.599-.2-.442-.331-.531-.958-.2-1.4C7.462 10.05 11.816 10 12 10c.552 0 1 .448 1 1 0 .551-.445.998-.996 1-.156.002-3.569.086-6.205 3.6-.195.262-.496.4-.8.4z"/></svg>