<svg xmlns="http://www.w3.org/2000/svg" viewBox="0 0 36 36"><circle fill="#FFCC4D" cx="18" cy="18" r="18"/><path fill="#664500" d="M23.485 28.879C23.474 28.835 22.34 24.5 18 24.5s-5.474 4.335-5.485 4.379c-.053.213.044.431.232.544.188.112.433.086.596-.06.009-.008 1.013-.863 4.657-.863 3.59 0 4.617.83 4.656.863.095.09.219.137.344.137.084 0 .169-.021.246-.064.196-.112.294-.339.239-.557zM11.226 15.512c-.317 0-.636.039-.947.116-2.87.707-3.513 4.121-3.539 4.267-.04.223.076.443.281.54.067.031.14.047.211.047.145 0 .287-.063.385-.18.01-.012 1.01-1.178 3.379-1.761.714-.176 1.412-.265 2.073-.265 1.104 0 1.732.253 1.735.254.067.028.131.04.207.04.272.012.509-.221.509-.5 0-.165-.08-.311-.203-.402-.367-.435-1.953-2.156-4.091-2.156zm13.548 0c.317 0 .636.039.947.116 2.87.707 3.513 4.121 3.539 4.267.04.223-.076.443-.281.54-.067.031-.14.047-.211.047-.145 0-.287-.063-.385-.18-.01-.012-1.01-1.178-3.379-1.761-.714-.176-1.412-.265-2.073-.265-1.104 0-1.731.253-1.735.254-.067.028-.131.04-.206.04-.272.012-.509-.221-.509-.5 0-.165.08-.311.203-.402.366-.435 1.952-2.156 4.09-2.156z"/></svg>