<svg xmlns="http://www.w3.org/2000/svg" viewBox="0 0 36 36"><path fill="#FFCC4D" d="M36 18c0 9.941-8.059 18-18 18-9.94 0-18-8.059-18-18C0 8.06 8.06 0 18 0c9.941 0 18 8.06 18 18"/><path fill="#66471B" d="M15.457 15.815c-.06-.135-1.499-3.297-4.457-3.297-2.957 0-4.397 3.162-4.457 3.297-.092.207-.032.449.144.591.177.143.427.147.61.014.013-.009 1.262-.902 3.703-.902 2.426 0 3.674.881 3.702.901.088.066.193.099.298.099.11 0 .221-.037.311-.109.179-.142.238-.386.146-.594z"/><path fill="#F5F8FA" d="M31 13.5c0 3.59-2.91 6.5-6.5 6.5S18 17.09 18 13.5 20.91 7 24.5 7 31 9.91 31 13.5z"/><circle fill="#292F33" cx="24.5" cy="13.5" r="2.5"/><path fill="#66471B" d="M7 21.262c0 3.964 4.596 9 11 9s11-5 11-9c0 0-10.333 2.756-22 0z"/><path fill="#E8596E" d="M18.545 23.604l-1.091-.005c-3.216-.074-5.454-.596-5.454-.596v6.961c0 3 2 6 6 6s6-3 6-6v-6.92c-1.922.394-3.787.542-5.455.56z"/><path fill="#DD2F45" d="M18 31.843c.301 0 .545-.244.545-.545v-7.694l-1.091-.005v7.699c.001.301.245.545.546.545z"/></svg>