<svg xmlns="http://www.w3.org/2000/svg" viewBox="0 0 36 36"><path fill="#FFCC4D" d="M36 18c0 9.941-8.059 18-18 18-9.94 0-18-8.059-18-18C0 8.06 8.06 0 18 0c9.941 0 18 8.06 18 18"/><ellipse fill="#664500" cx="12.5" cy="15.5" rx="2.5" ry="3.5"/><ellipse fill="#664500" cx="23.5" cy="15.5" rx="2.5" ry="3.5"/><path fill="#664500" d="M20.871 28c1.335-.412 2.629-1.156 2.629-2.5 0-2.619-4.912-2.968-5.472-2.999-.274-.027-.509.193-.527.468-.017.274.19.511.464.53.035.002 3.535.299 3.535 2.001s-3.5 1.999-3.535 2.001c-.013.001-.023.008-.036.01-.053.006-.102.018-.149.041l-.015.009c-.048.027-.091.059-.127.1-.014.015-.023.031-.035.047-.023.032-.044.064-.06.103-.012.029-.018.061-.024.092-.004.023-.016.044-.018.067 0 .011.004.021.004.031s-.005.021-.004.031c.001.024.013.045.018.068.006.031.011.061.023.09.013.03.031.057.049.084.017.024.032.05.052.071.023.023.05.041.078.061.024.017.046.034.074.047.032.015.066.021.101.027.024.006.044.018.069.02.035.001 3.535.298 3.535 2s-3.5 1.999-3.535 2.001c-.274.02-.481.257-.464.53.017.265.237.469.499.469l.028-.001c.56-.031 5.472-.38 5.472-2.999 0-1.344-1.294-2.088-2.629-2.5z"/></svg>