<svg xmlns="http://www.w3.org/2000/svg" viewBox="0 0 36 36"><circle fill="#FFCC4D" cx="18" cy="18" r="18"/><path fill="#664500" d="M29.52 15.42c-.294 0-.582-.138-.771-.4-2.543-3.521-5.837-3.599-5.976-3.6-.53-.006-.957-.456-.954-1.005.003-.551.43-.995.96-.995.177 0 4.369.05 7.511 4.4.32.442.233 1.069-.193 1.4-.174.135-.376.2-.577.2zm-25.04 0c-.2 0-.403-.065-.577-.2-.426-.331-.511-.958-.193-1.4 3.141-4.35 7.334-4.4 7.511-4.4.532 0 .963.448.963 1 0 .551-.429.998-.959 1-.15.002-3.437.086-5.975 3.6-.187.262-.477.4-.77.4zm10.223 1.598c-.013.009-1.262.902-3.703.902-2.442 0-3.69-.893-3.7-.9-.194-.146-.466-.132-.644.037-.177.167-.208.438-.072.641.061.09 1.515 2.222 4.416 2.222 2.9 0 4.355-2.132 4.416-2.223.134-.202.104-.47-.071-.638-.176-.169-.449-.184-.642-.041zm12.642.042c-.175-.169-.447-.186-.643-.042-.012.009-1.262.902-3.702.902-2.441 0-3.69-.893-3.7-.9-.193-.146-.466-.132-.644.037-.177.167-.207.438-.072.641.061.09 1.515 2.222 4.416 2.222 2.9 0 4.355-2.132 4.416-2.223.135-.201.104-.469-.071-.637zm-4.86 11.239c-.011-.044-1.145-4.379-5.485-4.379s-5.474 4.335-5.485 4.379c-.053.213.044.431.232.544.188.112.433.086.596-.06.009-.008 1.013-.863 4.657-.863 3.59 0 4.617.83 4.656.863.095.09.219.137.344.137.084 0 .169-.021.246-.064.196-.112.294-.339.239-.557z"/><path fill="#DEE7ED" d="M3.24 29.842c-.035.044-.077.08-.111.127-.9 1.271-.599 3.032.671 3.932.788.558 1.764.653 2.607.343.255.405.591.77 1.006 1.064 1.695 1.201 4.043.8 5.243-.895 1.201-1.695.8-4.043-.895-5.243-1.047-.742-2.344-.869-3.465-.46.186-1.044-.216-2.148-1.139-2.801-1.271-.901-3.032-.6-3.932.671-.712 1.007-.662 2.312.015 3.262z"/><path fill="#F3F7F9" d="M17.283 27.456c-.024.016-1.782 1.313-3.111 3.113-.49.664-.777 1.445-1.039 2.228-.085.254-.205.499-.36.729-.02.05-.05.09-.08.14-.15.21-.32.4-.51.57-1.11.97-2.78 1.1-4.05.21-.36-.26-.65-.57-.87-.93-.74.27-1.59.19-2.27-.3-1.11-.78-1.37-2.31-.59-3.42.03-.04.07-.07.1-.11-.72-1-.621-2.476.495-3.358.964-.761 2.293-.637 3.215.174l.025.022c1.1.988 2.532 1.54 3.988 1.284 1.198-.211 2.708-.593 4.607-1.232.23-.08.49.03.6.25.12.22.05.49-.15.63z"/></svg>