<svg xmlns="http://www.w3.org/2000/svg" viewBox="0 0 36 36"><path fill="#FFCC4D" d="M36 18c0 9.941-8.059 18-18 18-9.94 0-18-8.059-18-18C0 8.06 8.06 0 18 0c9.941 0 18 8.06 18 18"/><ellipse fill="#664500" cx="11.5" cy="17" rx="2.5" ry="3.5"/><ellipse fill="#664500" cx="24.5" cy="17" rx="2.5" ry="3.5"/><path fill="#664500" d="M5.999 13.5c-.208 0-.419-.065-.599-.2-.442-.331-.531-.958-.2-1.4 3.262-4.35 7.616-4.4 7.8-4.4.552 0 1 .448 1 1 0 .551-.445.998-.996 1-.155.002-3.568.086-6.204 3.6-.196.262-.497.4-.801.4zm24.002 0c-.305 0-.604-.138-.801-.4-2.641-3.521-6.061-3.599-6.206-3.6-.55-.006-.994-.456-.991-1.005.003-.551.447-.995.997-.995.184 0 4.537.05 7.8 4.4.332.442.242 1.069-.2 1.4-.18.135-.39.2-.599.2zm-6.516 14.879C23.474 28.335 22.34 24 18 24s-5.474 4.335-5.485 4.379c-.053.213.044.431.232.544.188.112.433.086.596-.06C13.352 28.855 14.356 28 18 28c3.59 0 4.617.83 4.656.863.095.09.219.137.344.137.084 0 .169-.021.246-.064.196-.112.294-.339.239-.557z"/><path fill="#5DADEC" d="M16 31c0 2.762-2.238 5-5 5s-5-2.238-5-5 4-10 5-10 5 7.238 5 10z"/></svg>