<svg xmlns="http://www.w3.org/2000/svg" viewBox="0 0 36 36"><path fill="#FFCC4D" d="M36 18c0 9.941-8.059 18-18 18-9.94 0-18-8.059-18-18C0 8.06 8.06 0 18 0c9.941 0 18 8.06 18 18"/><path fill="#664500" d="M16.664 10.543c-.207-.09-.451-.03-.592.148-.009.012-.979 1.202-3.335 1.844-.775.212-1.531.319-2.245.319-.992 0-1.559-.212-1.562-.213-.21-.085-.453-.014-.587.169-.135.184-.128.435.016.612.071.087 1.78 2.147 4.125 2.147.351 0 .702-.047 1.043-.14 2.854-.778 3.41-4.208 3.432-4.354.034-.223-.087-.441-.295-.532zm10.975 2.155c-.138-.181-.38-.245-.59-.159-.006.003-.633.256-1.737.256-.661 0-1.358-.089-2.073-.265-2.369-.583-3.369-1.749-3.377-1.758-.146-.176-.388-.233-.596-.137-.207.095-.323.318-.283.542.026.145.668 3.56 3.539 4.267.311.077.629.116.946.116 2.396 0 4.099-2.16 4.17-2.252.138-.181.137-.43.001-.61zM9.998 10c-.448 0-.855-.303-.969-.757-.133-.535.191-1.077.724-1.212.036-.009 3.593-.961 5.352-4.478.247-.494.846-.695 1.342-.447.494.247.694.848.447 1.342-2.181 4.361-6.471 5.477-6.652 5.523-.081.02-.163.029-.244.029zM26 10c-.08 0-.161-.01-.242-.03-.182-.045-4.472-1.162-6.652-5.523-.247-.494-.047-1.095.447-1.342.493-.247 1.094-.047 1.342.447 1.758 3.517 5.315 4.469 5.352 4.478.533.137.857.681.722 1.215-.116.453-.522.755-.969.755zm-8 18.965c-3.623 0-6.027.422-9 1-.679.131-2 0-2-2 0-4 4.595-9 11-9 6.404 0 11 5 11 9 0 2-1.321 2.132-2 2-2.973-.578-5.377-1-9-1z"/><path fill="#FFF" d="M10 25s3-1 8-1 8 1 8 1-2-4-8-4-8 4-8 4z"/></svg>