<svg xmlns="http://www.w3.org/2000/svg" viewBox="0 0 36 36"><path fill="#FFCC4D" d="M36 18c0 9.941-8.059 18-18 18-9.94 0-18-8.059-18-18C0 8.06 8.06 0 18 0c9.941 0 18 8.06 18 18"/><ellipse fill="#664500" cx="12" cy="13.5" rx="2.5" ry="3.5"/><ellipse fill="#664500" cx="24" cy="13.5" rx="2.5" ry="3.5"/><path fill="#FFF" d="M25 21c2.209 0 4 1.791 4 4s-1.791 4-4 4H11c-2.209 0-4-1.791-4-4s1.791-4 4-4h14z"/><path fill="#664500" d="M25 20H11c-2.757 0-5 2.243-5 5s2.243 5 5 5h14c2.757 0 5-2.243 5-5s-2.243-5-5-5zm0 2c1.483 0 2.71 1.084 2.949 2.5H24.5V22h.5zm-1.5 0v2.5h-3V22h3zm-4 0v2.5h-3V22h3zm-4 0v2.5h-3V22h3zM11 22h.5v2.5H8.051C8.29 23.084 9.517 22 11 22zm0 6c-1.483 0-2.71-1.084-2.949-2.5H11.5V28H11zm1.5 0v-2.5h3V28h-3zm4 0v-2.5h3V28h-3zm4 0v-2.5h3V28h-3zm4.5 0h-.5v-2.5h3.449C27.71 26.916 26.483 28 25 28z"/></svg>