<svg xmlns="http://www.w3.org/2000/svg" viewBox="0 0 36 36"><path fill="#FFCC4D" d="M36 18c0 9.941-8.059 18-18 18S0 27.941 0 18 8.059 0 18 0s18 8.059 18 18"/><path fill="#664500" d="M23.485 28.879C23.474 28.835 22.34 24.5 18 24.5s-5.474 4.335-5.485 4.379c-.053.213.044.431.232.544.188.112.433.086.596-.06.009-.008 1.013-.863 4.657-.863 3.59 0 4.617.83 4.656.863.095.09.219.137.344.137.084 0 .169-.021.246-.064.196-.112.294-.339.239-.557zm-7.782-11.281c-.013.009-1.262.902-3.703.902-2.442 0-3.69-.893-3.7-.9-.194-.146-.466-.132-.644.037-.177.167-.208.438-.072.641.061.09 1.515 2.222 4.416 2.222 2.9 0 4.355-2.132 4.416-2.223.134-.202.104-.47-.071-.638-.176-.169-.449-.184-.642-.041zm12.642.042c-.175-.169-.447-.186-.643-.042-.012.009-1.262.902-3.702.902-2.441 0-3.69-.893-3.7-.9-.193-.146-.466-.132-.644.037-.177.167-.207.438-.072.641.061.09 1.515 2.222 4.416 2.222 2.9 0 4.355-2.132 4.416-2.223.135-.201.104-.469-.071-.637zM31.001 16c-.305 0-.604-.138-.801-.4-2.641-3.521-6.061-3.599-6.206-3.6-.55-.006-.994-.456-.991-1.005.003-.551.447-.995.997-.995.184 0 4.537.05 7.8 4.4.332.442.242 1.069-.2 1.4-.18.135-.39.2-.599.2zM4.999 16c-.208 0-.419-.065-.599-.2-.442-.331-.531-.958-.2-1.4C7.462 10.05 11.816 10 12 10c.552 0 1 .448 1 1 0 .551-.445.998-.996 1-.156.002-3.569.086-6.205 3.6-.195.262-.496.4-.8.4z"/><path fill="#5DADEC" d="M23 23c6.211 0 13 4 13 9 0 4-3 4-3 4-8 0-1-9-10-13z"/></svg>