<svg xmlns="http://www.w3.org/2000/svg" viewBox="0 0 36 36"><path fill="#FFCC4D" d="M18 0C8.06 0 0 8.06 0 18c0 6.051 2.996 11.392 7.574 14.655C7.678 26.217 5.337 19 1.404 19c-.464 0-.84.066-1.153.183C.554 18.426 1.211 18 2.44 18c4.27 0 6.666 8.506 6.092 15.288C11.286 34.997 14.522 36 18 36c3.479 0 6.716-1.004 9.47-2.713C26.893 26.48 29.288 18 33.561 18c1.233 0 1.892.426 2.192 1.183-.314-.117-.691-.183-1.157-.183-3.938 0-6.278 7.199-6.17 13.655C33.005 29.392 36 24.051 36 18c0-9.94-8.059-18-18-18z"/><path fill="#BDDDF4" d="M18 0C8.06 0 0 8.06 0 18c0 1.192.123 2.356.344 3.484.234-.863.6-1.691 1.058-2.484-.463 0-.838.066-1.15.183.264-.659.822-1.048 1.768-1.142C5.012 13.862 11.037 11 18 11c6.964 0 12.988 2.861 15.98 7.04.95.094 1.51.482 1.772 1.143-.312-.117-.689-.183-1.153-.183.458.793.823 1.621 1.058 2.484.221-1.128.343-2.292.343-3.484 0-9.94-8.059-18-18-18z"/><path fill="#F5F8FA" d="M7.347 11.91c-.946 3.176.107 6.293 2.353 6.962 2.246.67 4.834-1.362 5.779-4.538.946-3.175-.106-6.293-2.351-6.962-2.246-.669-4.834 1.363-5.781 4.538zm21.305 0c.946 3.176-.107 6.293-2.352 6.962-2.246.67-4.834-1.362-5.779-4.538-.946-3.175.107-6.293 2.351-6.962 2.245-.669 4.833 1.363 5.78 4.538z"/><path fill="#664500" d="M18 18c-2.757 0-5 2.243-5 5v6c0 2.757 2.243 5 5 5s5-2.243 5-5v-6c0-2.757-2.243-5-5-5z"/><path fill="#FCAB40" d="M1.404 19c-.464 0-.84.066-1.153.183.072-.179.167-.336.281-.476C-1.33 20.998 2.849 28.54.818 36h6.46c1.19-6.96-1.235-17-5.874-17zm34.349.183c-.314-.117-.691-.183-1.157-.183-4.641 0-7.065 10.002-5.873 17h6.46c-1.906-7.045 1.656-14.089.57-16.817z"/></svg>