<svg xmlns="http://www.w3.org/2000/svg" viewBox="0 0 36 36"><path fill="#FFCC4D" d="M35.734 19.929C35.375 16.66 35 15 34 13c0 0 3-9 1-12.7-.674-1.246-7.404 1.688-10 3.7 0 0-4-.998-7-.998S11 4 11 4C8.404 1.988 1.674-.946 1 .3-1 4 2 13 2 13 1 15 .625 16.66.266 19.929-.129 23.513.657 26.37 1 27c.39.716 2.367 3.025 5 5 4 3 10 4 12 4s8-1 12-4c2.633-1.975 4.61-4.284 5-5 .343-.63 1.129-3.487.734-7.071z"/><path fill="#E75A70" d="M18 19.5c3 0 3 .5 3 1.5s-1.5 3-3 3-3-2-3-3-.001-1.5 3-1.5z"/><path fill="#F18F26" d="M2 3c.447-1.342 5.64 1 6.64 2C8.64 5 4 8 3 11c0 0-2-5-1-8zm32 0c-.447-1.342-5.64 1-6.64 2 0 0 4.64 3 5.64 6 0 0 2-5 1-8z"/><path fill="#FFCC4D" d="M4.934 5.603C4.934 4.189 11 7 10 8s-2 1.603-3 2.603-2.066-4-2.066-5zm26.132 0C31.066 4.189 25 7 26 8s2 1.603 3 2.603 2.066-4 2.066-5z"/><path fill="#FEE7B8" d="M.701 25c-.148 0-.294-.065-.393-.19-.171-.217-.134-.531.083-.702.162-.127 4.02-3.12 10.648-2.605.275.02.481.261.46.536-.021.275-.257.501-.537.46-6.233-.474-9.915 2.366-9.951 2.395-.093.071-.202.106-.31.106zm8.868-4.663c-.049 0-.1-.007-.149-.022-4.79-1.497-8.737-.347-8.777-.336-.265.081-.543-.07-.623-.335-.079-.265.071-.543.335-.622.173-.052 4.286-1.247 9.362.338.264.083.411.363.328.627-.066.213-.263.35-.476.35zM35.299 25c.148 0 .294-.065.393-.19.171-.217.134-.531-.083-.702-.162-.127-4.02-3.12-10.648-2.605-.275.02-.481.261-.46.536.021.275.257.501.537.46 6.233-.474 9.915 2.366 9.951 2.395.093.071.202.106.31.106zm-8.868-4.663c.049 0 .1-.007.149-.022 4.79-1.497 8.737-.347 8.777-.336.265.081.543-.07.623-.335.079-.265-.071-.543-.335-.622-.173-.052-4.286-1.247-9.362.338-.264.083-.411.363-.328.627.065.213.263.35.476.35z"/><path fill="#292F33" d="M25.327 25.622c-.152-.132-.369-.159-.551-.069l-4 2c-1.871.935-6.727.947-6.776.947-.276 0-.5.224-.5.5 0 .185.101.347.25.433v.001h.001v.001c.071.04.153.063.24.065h7.008c2.658 0 4.089-2.186 4.475-3.342.064-.192.006-.403-.147-.536z"/><g fill="#292F33"><ellipse cx="12" cy="14.5" rx="2" ry="3.5"/><ellipse cx="24" cy="14.5" rx="2" ry="3.5"/><path d="M21 12c-.256 0-.512-.098-.707-.293-.391-.391-.391-1.023 0-1.414C24.537 6.049 28.819 6 29 6c.553 0 1 .448 1 1 0 .551-.445.998-.995 1-.065.001-3.687.096-7.298 3.707-.195.195-.451.293-.707.293zm-6 0c-.256 0-.512-.098-.707-.293C10.667 8.082 7.031 8 6.995 8c-.551-.006-.995-.455-.992-1.005C6.006 6.444 6.45 6 7 6c.18 0 4.463.049 8.707 4.293.391.391.391 1.023 0 1.414-.195.195-.451.293-.707.293z"/></g></svg>