<svg xmlns="http://www.w3.org/2000/svg" viewBox="0 0 36 36"><path fill="#FFCC4D" d="M36 18c0 9.941-8.059 18-18 18-9.94 0-18-8.059-18-18C0 8.06 8.06 0 18 0c9.941 0 18 8.06 18 18"/><ellipse fill="#664500" cx="11.5" cy="16.5" rx="2.5" ry="3.5"/><ellipse fill="#664500" cx="24.5" cy="16.5" rx="2.5" ry="3.5"/><path fill="#664500" d="M23.485 27.879C23.474 27.835 22.34 23.5 18 23.5s-5.474 4.335-5.484 4.379c-.053.213.043.431.231.544.187.112.433.086.596-.06.01-.008 1.014-.863 4.657-.863 3.59 0 4.617.83 4.656.863.095.09.219.137.344.137.084 0 .169-.021.246-.064.196-.112.294-.339.239-.557z"/><path fill="#5DADEC" d="M10 30c0 2.762-2.238 5-5 5s-5-2.238-5-5 4-10 5-10 5 7.238 5 10z"/><path fill="#BDDDF4" d="M18 11c8.749 0 16.033 4.509 17.656 10.484.222-1.128.344-2.292.344-3.484 0-9.94-8.059-18-18-18C8.06 0 0 8.06 0 18c0 1.192.123 2.356.344 3.484C1.967 15.509 9.252 11 18 11z"/><path fill="#664500" d="M30 12c-5.554 0-7.802-4.367-7.895-4.553-.247-.494-.047-1.095.447-1.342.492-.247 1.092-.048 1.34.443C23.967 6.694 25.713 10 30 10c.553 0 1 .448 1 1s-.447 1-1 1zM6 12c-.552 0-1-.448-1-1s.448-1 1-1c5.083 0 5.996-3.12 6.033-3.253.145-.528.69-.848 1.219-.709.53.139.851.673.718 1.205C13.921 7.437 12.704 12 6 12z"/></svg>