<svg xmlns="http://www.w3.org/2000/svg" viewBox="0 0 36 36"><circle fill="#F3F7F9" cx="30.583" cy="7.966" r="4"/><path fill="#F3F7F9" d="M7.839 29.942c-.49.236-1.016.381-1.578.436-2.359.181-4.427-1.578-4.627-3.937-.181-2.377 1.579-4.427 3.937-4.627 1.506-.109 2.867.544 3.719 1.633l-1.451 6.495z"/><circle fill="#FFCC4D" cx="18" cy="18" r="16"/><path fill="#664500" d="M15.057 17.023c0 1.664-.966 3.019-2.152 3.019-1.196 0-2.162-1.355-2.162-3.019 0-1.674.967-3.019 2.162-3.019 1.185-.001 2.152 1.345 2.152 3.019zm11.229 0c0 1.664-.967 3.019-2.162 3.019-1.196 0-2.162-1.355-2.162-3.019 0-1.674.967-3.019 2.162-3.019 1.196-.001 2.162 1.345 2.162 3.019z"/><path fill="#C9D5DD" d="M13.931 8.882c-.11.209-.229.418-.359.618-.438.668-.976 1.265-1.604 1.774-.598.488-1.255.877-1.963 1.156-1.614.668-3.527.737-5.092.12-.239-.09-.478-.199-.697-.329-.947-.488-1.734-1.216-2.212-2.102.787.588 1.684 1.006 2.63 1.216 1.355.299 2.8.189 4.175-.418.588-.259 1.126-.588 1.594-.986.558-.458 1.036-.996 1.415-1.594.458-.717.767-1.514.927-2.361.578-.149 1.116-.389 1.574-.737.159-.12.319-.249.458-.379.1 1.352-.179 2.767-.846 4.022z"/><path fill="#F3F7F9" d="M35.378 4.814c.061.813-.213 1.586-.702 2.166-.071.081-.142.153-.213.224-.478.447-1.108.752-1.81.813-.61.041-1.19-.102-1.678-.366-.224.397-.498.752-.803 1.078-.071.071-.132.132-.204.193-1.24 1.179-2.979 1.779-4.799 1.474-1.83-.295-3.294-1.434-4.088-2.959-.173-.325-.315-.671-.417-1.037-.275.132-.569.214-.885.244-1.322.102-2.481-.885-2.593-2.206-.102-1.332.885-2.481 2.207-2.593.845-.061 1.607.305 2.085.915.732-1.505 2.217-2.593 4.006-2.745 2.135-.163 4.057 1.047 4.87 2.898.478-.458 1.108-.763 1.82-.824 1.628-.132 3.072 1.098 3.204 2.725z"/><path fill="#C9D5DD" d="M34.467 7.208c-.1.339-.269.658-.518.937-.299.359-.707.608-1.166.807-.179.08-.389.14-.588.169-.179.279-.389.538-.628.787-.578.638-1.325 1.156-2.152 1.495-1.415.598-3.109.658-4.553.159-.787-.259-1.525-.697-2.132-1.265-.498-.438-.917-.967-1.196-1.544-.08-.149-.149-.309-.209-.458-.11-.279-.189-.568-.239-.857.12.239.259.458.418.678.458.648 1.056 1.206 1.764 1.614h.01c.568.329 1.206.558 1.893.668 1.823.309 3.557-.299 4.803-1.475.07-.06.13-.12.199-.189.1-.11.199-.219.289-.339.199-.229.369-.478.518-.747.488.269 1.066.409 1.674.369.697-.062 1.334-.371 1.813-.809z"/><path fill="#F3F7F9" d="M23.775 5.926c0 3.091-3.162 5.592-7.067 5.592-2.267 0-4.291-.844-5.582-2.156-1.261 1.485-3.437 2.471-5.277 2.471-2.786 0-5.043-2.257-5.043-5.043s2.257-5.043 5.043-5.043c.071 0 .152 0 .224.01C6.653.974 7.568.476 8.615.476c1.23 0 2.298.712 2.806 1.739C12.712 1.046 14.604.324 16.708.324c3.905-.001 7.067 2.501 7.067 5.602z"/><path fill="#DEE7ED" d="M27.92 4.408c-.06.409-.219.827-.458 1.216-.319.508-.777.966-1.345 1.285-.438.249-.947.468-1.485.548-.329.817-.787 1.584-1.355 2.272h-.01c-.169.199-.349.389-.538.568-.219.219-.448.418-.697.608-1.485 1.146-3.408 1.793-5.311 1.774-1.644 0-3.368-.478-4.753-1.405-.199-.13-.379-.269-.558-.408-.359-.289-.697-.598-1.006-.937-.329-.339-.628-.707-.897-1.096-.229-.37-.429-.738-.598-1.137-.478-.05-.957-.169-1.375-.379-.209-.09-.399-.199-.578-.329-.568-.408-1.026-.936-1.255-1.554-.19-.428-.269-.886-.24-1.315.429 1.405 1.824 2.302 3.289 2.113l.189-.03c.389-.07.747-.229 1.056-.428.199.458.428.887.707 1.285.08.13.169.249.269.369.249.329.538.638.847.907.518.478 1.106.867 1.754 1.166.797.379 1.684.598 2.621.638 1.973.1 3.786-.608 5.131-1.843l.179-.179c.648-.628 1.166-1.395 1.534-2.242.658.279 1.395.329 2.152.229.598-.08 1.236-.458 1.744-.837.559-.41.957-.819.987-.859z"/><path fill="#F3F7F9" d="M33.607 33.196c-.824.63-1.861.783-2.776.468l-.041-.01c0 .02-.393 1.209-1.922 1.2-.671-.004-1.261-.285-1.668-.752-.803.752-1.881 1.22-3.081 1.22-.508 0-.996-.081-1.454-.244-.712.498-1.576.791-2.522.793-1.881.005-2.695-.671-3.142-1.139-3.891 2.271-8.874 1.171-10.483-.783-.151-.183-.285-.376-.397-.58-.671.376-1.444.539-2.247.427C1.84 33.542.386 31.661.641 29.627c.122-.946.59-1.759 1.261-2.339.051-.051.112-.102.163-.142.763-.58 1.739-.874 2.756-.742.163.02.315.051.468.092l.122.03c.152.041.295.102.437.163.142.061.285.132.417.213.193.112.366.234.529.376.102-.112.203-.214.305-.315l.02-.02c1.932-1.891 4.83-2.593 7.514-1.546 1.261.488 2.318 1.312 3.071 2.318.702-.468 1.535-.732 2.44-.732.946 0 1.82.295 2.542.803 1.779-.488 3.64-.224 5.196.62.01 0 .01.01.01.01.224.112.447.244.651.397.213.142.417.305.62.468.183-.325.437-.62.752-.864 1.251-.956 3.01-.793 4.057.336l.183.214c1.018 1.311.774 3.212-.548 4.229z"/><path fill="#DEE7ED" d="M22.729 35.087l-.07-.01c.02-.08.03-.149.04-.229.07-.528 0-1.046-.189-1.514-.389-.967-1.285-1.704-2.401-1.843-.12-.02-.249-.02-.379-.02-.259 0-.508.03-.757.09-.03-.399-.1-.807-.199-1.186-.219-.917-.618-1.764-1.166-2.501-.757-1.026-1.823-1.863-3.109-2.361-2.66-1.036-5.54-.339-7.453 1.534l-.02.02c-.11.1-.209.209-.309.319-.159-.139-.329-.269-.528-.379-.13-.08-.269-.149-.408-.209-.12-.05-.239-.1-.369-.14-.02-.01-.05-.01-.07-.02l-.12-.03c-.149-.04-.299-.07-.458-.09-1.016-.14-1.983.159-2.74.737-.05.04-.11.09-.159.14l-.01-.02c.438-.857 1.355-1.574 2.491-1.803.13-.02.259-.05.389-.06.389-.05.787-.06 1.186.01.897-1.076 2.122-1.943 3.517-2.431 1.754-.618 3.776-.618 5.56 0 1.764.578 3.428 1.774 4.434 3.358 0 .02.01.02.01.03.03.04.06.09.08.13.438.678.767 1.405 1.006 2.162.01.04.03.09.05.13 0 .02.01.04.02.06.11.418.179.847.219 1.265.658.299 1.216.727 1.604 1.275.369.508.618 1.076.688 1.654.01.07.02.139.02.209.048.627-.101 1.245-.4 1.723z"/><path fill="#C9D5DD" d="M34.118 28.979c-.996-1.016-2.621-1.226-3.866-.498-.1.04-.189.1-.279.169-.319.239-.578.528-.767.847-.199-.169-.418-.319-.628-.458-.209-.149-.438-.279-.668-.389 0 0 0-.01-.01-.01-1.893-.976-4.215-1.146-6.327-.249-.359.149-.688.319-.996.508-.02-.04-.04-.09-.05-.13-.239-.757-.568-1.485-1.006-2.162.14-.07.269-.14.399-.199 1.704-.817 3.776-1.126 5.669-.737.937.189 1.833.508 2.66.937.379.219.737.468 1.066.737.658-.249 1.355-.339 2.003-.249.03 0 .07 0 .1.01.717.11 1.375.369 1.863.797.378.299.667.678.837 1.076z"/></svg>