<svg xmlns="http://www.w3.org/2000/svg" viewBox="0 0 36 36"><circle fill="#FFCC4D" cx="18" cy="18" r="18"/><path fill="#664500" d="M22.886 27.485c-1.575 0-2.393-.797-3.049-1.437-.56-.545-.965-.939-1.827-.939-.863 0-1.268.395-1.827.939-.656.64-1.474 1.437-3.048 1.437s-2.39-.797-3.046-1.437c-.557-.544-.96-.937-1.815-.939-.611.002-.97.193-1.32.48-.374.308-.926.252-1.231-.122-.306-.374-.251-.926.122-1.231.456-.373 1.198-.867 2.405-.877h.049c1.552.012 2.361.801 3.012 1.437.559.546.963.939 1.824.939.863 0 1.268-.395 1.828-.939.656-.64 1.474-1.437 3.048-1.437s2.392.796 3.048 1.437c.561.545.965.939 1.828.939s1.268-.395 1.828-.939c.656-.641 1.474-1.437 3.049-1.437.913 0 1.67.263 2.383.828.378.301.441.851.142 1.229-.301.379-.851.442-1.229.142-.294-.233-.654-.449-1.295-.449-.863 0-1.268.395-1.828.939-.659.641-1.476 1.437-3.051 1.437zm-11.491-8.61c-2.075 0-3.762-1.688-3.762-3.762 0-2.075 1.688-3.763 3.762-3.763 1.279 0 2.319 1.04 2.319 2.319s-1.04 2.319-2.319 2.319c-.483 0-.875-.392-.875-.875s.392-.875.875-.875c.313 0 .569-.255.569-.569s-.255-.569-.569-.569c-1.109 0-2.012.903-2.012 2.013 0 1.109.903 2.012 2.012 2.012 1.906 0 3.456-1.55 3.456-3.456s-1.55-3.456-3.456-3.456c-2.702 0-4.899 2.198-4.899 4.9 0 .483-.392.875-.875.875s-.875-.392-.875-.875c0-3.667 2.983-6.65 6.649-6.65 2.871 0 5.206 2.335 5.206 5.206s-2.334 5.206-5.206 5.206zm13.209 0c-2.871 0-5.206-2.335-5.206-5.206s2.335-5.206 5.206-5.206c2.075 0 3.763 1.688 3.763 3.762s-1.688 3.763-3.763 3.763c-1.278 0-2.318-1.04-2.318-2.319s1.04-2.319 2.318-2.319c.483 0 .875.392.875.875s-.391.875-.875.875c-.313 0-.568.255-.568.569s.255.569.568.569c1.109 0 2.013-.903 2.013-2.013 0-1.109-.903-2.012-2.013-2.012-1.905 0-3.456 1.55-3.456 3.456 0 1.905 1.551 3.456 3.456 3.456 2.701 0 4.899-2.198 4.899-4.899 0-.483.392-.875.875-.875s.875.392.875.875c.001 3.666-2.983 6.649-6.649 6.649z"/></svg>