<svg xmlns="http://www.w3.org/2000/svg" viewBox="0 0 36 36"><path fill="#BF6952" d="M18.985 35h-1.97c-6.5 0-12.803-4.982-12.803-11.956 0-3.985 1.477-5.978 1.477-5.978s-.492-1.993-.492-3.985C5.197 7.103 11.5 2.121 18 2.121c6.5 0 12.803 5.978 12.803 10.96 0 1.993-.492 3.985-.492 3.985s1.477 1.993 1.477 5.978C31.788 30.018 25.485 35 18.985 35z"/><path fill="#D79E84" d="M29.667 15.379c0-3.807-3.087-6.894-6.894-6.894-1.854 0-3.534.736-4.773 1.926-1.239-1.191-2.919-1.926-4.773-1.926-3.807 0-6.894 3.087-6.894 6.894 0 2.309 1.14 4.348 2.882 5.599-.489 1.212-.761 2.546-.761 3.946 0 5.565 4.274 9.015 9.545 9.015s9.545-3.45 9.545-9.015c0-1.401-.272-2.734-.761-3.946 1.744-1.251 2.884-3.29 2.884-5.599z"/><ellipse fill="#292F33" cx="13" cy="17" rx="2" ry="3"/><ellipse fill="#292F33" cx="23" cy="17" rx="2" ry="3"/><path fill="#642116" d="M18 31.5c2.715 0 5.027-1.38 5.895-3.309.359-.798-.25-1.691-1.157-1.691h-9.476c-.907 0-1.516.893-1.157 1.691.868 1.929 3.18 3.309 5.895 3.309z"/><ellipse fill="#642116" cx="16.5" cy="22" rx="1" ry="1.061"/><circle fill="#642116" cx="19.5" cy="22" r="1"/><path fill="#BF6952" d="M22.242.17s-5.303-1.061-7.424 2.121 4.242 1.061 4.242 1.061S20.121.17 22.242.17z"/><path fill="#9B3C07" d="M9 31.997c.125.659 1.781 1.409 1.781 1.409L10 18.996 8 24s.875 7.337 1 7.997zm18 0c-.188.722-1.75 1.378-1.75 1.378l.751-14.379L28 24s-.812 7.275-1 7.997z"/><path fill="#BF6952" d="M2 36h8L8.988 20.167l-3.997-4.168zm32 0h-8l1.002-15.833 3.997-4.168z"/><path fill="#D79E84" d="M30.608 15.053s.2-2.476 1.197-3.542c1.302-1.393 2.87-.314 2.749 1.64-.44 7.086-1.996 9.033-4.018 10.196-2.021 1.164-4.789.946-7.718-1.872s-4.158-4.554-4.508-5.797c-.35-1.244.956-2.254 2.07-1.621 1.002.569 2.51 2.308 2.51 2.308s-1.947-2.696-2.223-3.738c-.382-1.441 1.322-2.301 2.247-1.507.912.783 2.792 3.156 2.792 3.156s-1.606-2.464-1.754-3.651c-.146-1.172 1.239-2.208 2.463-1.186 1.223 1.023 3.189 3.971 4.193 5.614zm-25.216 0s-.2-2.476-1.197-3.542c-1.302-1.393-2.87-.314-2.749 1.64.44 7.086 1.996 9.033 4.018 10.196 2.021 1.164 4.789.946 7.718-1.872s4.158-4.554 4.508-5.797c.35-1.244-.956-2.254-2.07-1.621-1.002.569-2.51 2.308-2.51 2.308s1.947-2.696 2.223-3.738c.382-1.441-1.322-2.301-2.247-1.507-.912.783-2.792 3.156-2.792 3.156s1.606-2.464 1.754-3.651c.146-1.172-1.239-2.208-2.463-1.186s-3.189 3.971-4.193 5.614z"/><path fill="#BF6952" d="M28.082 24.512c-1.83 0-3.774-.909-5.611-2.676-2.795-2.688-4.227-4.546-4.642-6.022-.217-.771.034-1.554.656-2.041.592-.464 1.362-.54 2.036-.207-.157-.308-.278-.588-.337-.81-.226-.851.09-1.666.823-2.126.726-.456 1.623-.412 2.233.112.084.073.176.157.272.251-.026-.107-.046-.209-.058-.305-.097-.776.307-1.553 1.004-1.934.727-.396 1.577-.281 2.275.302 1.12.936 2.682 3.211 3.59 4.611.187-.834.523-1.864 1.115-2.498.681-.729 1.536-.972 2.292-.647.879.379 1.398 1.423 1.321 2.659-.436 7.031-1.956 9.269-4.268 10.6-.847.49-1.76.731-2.701.731zm-8.422-10.15c-.197 0-.391.066-.559.198-.301.236-.417.603-.311.983.355 1.26 1.785 3.083 4.373 5.572 2.474 2.378 5.002 3.017 7.123 1.799 1.658-.955 3.315-2.498 3.768-9.794.057-.921-.32-1.507-.72-1.679-.355-.156-.771-.008-1.165.412-.717.768-1.011 2.6-1.063 3.241-.018.216-.172.396-.383.446-.21.051-.429-.042-.542-.226-.963-1.575-2.907-4.504-4.088-5.49-.52-.434-.947-.307-1.155-.192-.341.186-.538.56-.491.932.11.88 1.248 2.781 1.678 3.44.146.224.09.522-.127.679-.215.156-.518.115-.684-.095-.019-.023-1.861-2.345-2.727-3.087-.313-.27-.765-.202-1.05-.024-.17.107-.548.42-.388 1.023.207.781 1.618 2.845 2.145 3.574.156.217.115.519-.095.685-.209.164-.513.138-.688-.064-.403-.466-1.618-1.77-2.378-2.201-.153-.089-.314-.132-.473-.132z"/><path fill="#BF6952" d="M7.918 24.512c-.942 0-1.854-.241-2.704-.73-2.311-1.331-3.831-3.568-4.267-10.6-.077-1.236.442-2.28 1.322-2.659.75-.324 1.609-.083 2.291.647.592.633.929 1.663 1.116 2.498.908-1.399 2.468-3.674 3.59-4.611.699-.585 1.549-.699 2.274-.302.698.38 1.102 1.158 1.004 1.934-.012.096-.032.198-.058.305.097-.094.188-.179.273-.251.608-.522 1.507-.567 2.232-.112.734.46 1.05 1.275.825 2.126-.059.222-.18.502-.336.811.672-.332 1.443-.257 2.034.207.623.487.874 1.27.657 2.041-.416 1.478-1.848 3.335-4.643 6.022-1.836 1.765-3.78 2.674-5.61 2.674zM2.954 11.381c-.1 0-.196.02-.29.06-.399.172-.776.758-.719 1.679.453 7.296 2.11 8.839 3.768 9.794 2.121 1.221 4.648.581 7.122-1.799 2.588-2.488 4.018-4.311 4.373-5.572.107-.38-.009-.748-.31-.983-.303-.238-.689-.264-1.032-.068-.761.433-1.975 1.735-2.379 2.201-.176.202-.48.229-.688.064-.209-.166-.251-.468-.095-.685.526-.729 1.938-2.793 2.146-3.574.16-.603-.219-.916-.389-1.023-.284-.179-.734-.248-1.049.024-.865.743-2.707 3.064-2.725 3.087-.166.208-.467.251-.684.095-.217-.156-.273-.455-.127-.679.429-.659 1.568-2.561 1.677-3.44.046-.372-.151-.746-.491-.932-.208-.113-.636-.241-1.154.192-1.03.86-2.841 3.449-4.089 5.49-.113.185-.329.278-.542.226-.21-.05-.365-.23-.383-.446-.052-.641-.346-2.473-1.063-3.241-.292-.309-.594-.47-.877-.47z"/><path fill="#9B3C07" d="M25.988 9.758c.036.026.069.035.106.066 1.181.986 3.125 3.915 4.088 5.49.09.146.249.21.414.215.216-1.052.273-2.283.266-3.455-.247.518-.425 1.087-.538 1.593-.908-1.4-2.47-3.675-3.59-4.611-.666-.557-1.468-.672-2.171-.34.672.226 1.12.615 1.425 1.042zm-20.17 5.556c1.248-2.042 3.059-4.63 4.089-5.49.069-.058.131-.082.196-.121.299-.4.731-.759 1.359-.976-.708-.349-1.522-.235-2.197.33-1.122.937-2.683 3.212-3.59 4.611-.106-.472-.267-1.001-.488-1.49-.003 1.141.057 2.328.265 3.349.148-.02.286-.082.366-.213z"/></svg>