<svg xmlns="http://www.w3.org/2000/svg" viewBox="0 0 36 36"><path fill="#DD551F" d="M6 28h24v8H6z"/><path fill="#963B22" d="M21.906 1.262c-2.02-.654-6.772-.475-7.96 1.069-3.089.059-6.713 2.851-7.188 6.535-.47 3.645.578 5.338.951 8.079.422 3.106 2.168 4.099 3.564 4.515C13.281 24.114 15.415 24 19 24c7 0 10.334-4.684 10.629-12.639.178-4.812-2.645-8.456-7.723-10.099z"/><path fill="#D4AB88" d="M25.909 11.701c-.677-.938-1.545-1.693-3.446-1.96.713.327 1.396 1.455 1.485 2.079.089.624.178 1.129-.386.505-2.26-2.499-4.722-1.515-7.162-3.041-1.704-1.066-2.223-2.246-2.223-2.246s-.208 1.574-2.792 3.178c-.749.465-1.643 1.5-2.139 3.03C8.889 14.345 9 15.325 9 17c0 4.889 4.029 9 9 9s9-4.147 9-9c0-3.041-.319-4.229-1.091-5.299z"/><path fill="#C1694F" d="M19 19.5h-2c-.276 0-.5-.224-.5-.5s.224-.5.5-.5h2c.276 0 .5.224.5.5s-.224.5-.5.5z"/><path fill="#662113" d="M14 16c-.552 0-1-.448-1-1v-1c0-.552.448-1 1-1s1 .448 1 1v1c0 .552-.448 1-1 1zm8 0c-.553 0-1-.448-1-1v-1c0-.552.447-1 1-1s1 .448 1 1v1c0 .552-.447 1-1 1z"/><path fill="#CC9B7A" d="M3.195 18.025c.263-.484.776-.74 1.268-.694.034-.064 7.084 2.942 7.084 2.942l-1.268 1.547c-.7.854-1.907 1.023-2.696.376l-1.677-1.375-2.26-1.137c-.586-.297-.788-1.039-.451-1.659z"/><path fill="#D4AB88" d="M.365 14.985c-.35.427-.315 1.035.08 1.359l4.917 2.738 3.569 2.926c.395.323.998.239 1.348-.188l1.268-1.547-1.428-1.17-3.223-1.893-5.183-2.413c-.001 0-.998-.239-1.348.188z"/><path fill="#FA743E" d="M9.52 18.438s19.597 8.657 20.108 8.884c1.19.529 3.154 1.7 3.154 3.678l-.351 4.75c0 .138-.112.25-.25.25h-3.323c-.05 0-.098-.015-.139-.043L9.279 22.898c-.069-.046-.111-.124-.111-.207v-4.025c.001-.181.186-.302.352-.228z"/><path fill="#DD551F" d="M18.226 22.266l-.779-.324-6.462 2.109 1.482 1.031zm5.203 2.316l1.007.445-5.175 4.594-3.821-.025z"/><path fill="#CC9B7A" d="M32.752 18.025c-.263-.484-.776-.74-1.268-.694-.034-.064-7.084 2.942-7.084 2.942l1.268 1.547c.7.854 1.907 1.023 2.696.376l1.677-1.375 2.26-1.137c.586-.297.788-1.039.451-1.659z"/><path fill="#D4AB88" d="M35.582 14.985c.35.427.315 1.035-.08 1.359l-4.917 2.738-3.569 2.926c-.395.323-.998.239-1.348-.188L24.4 20.273l1.428-1.17 3.223-1.892 5.183-2.413c0-.001.998-.24 1.348.187z"/><path fill="#FA743E" d="M26.427 18.438S6.83 27.095 6.319 27.322c-1.19.529-3.154 1.7-3.154 3.678l.351 4.75c0 .138.112.25.25.25h3.323c.05 0 .098-.015.139-.043l19.439-13.059c.069-.046.111-.124.111-.207v-4.025c0-.181-.186-.302-.351-.228z"/></svg>