<svg xmlns="http://www.w3.org/2000/svg" viewBox="0 0 36 36"><path fill="#F6DDCD" d="M21 25.477c3.493-1.237 6-4.56 6-8.477v-.433c.96-.051 1.729-1.304 1.729-2.852 0-1.548-.769-2.801-1.729-2.852V7H9v3.863c-.96.051-1.729 1.304-1.729 2.852 0 1.548.77 2.801 1.729 2.852V17c0 3.917 2.507 7.24 6 8.477V27h6v-1.523z"/><path fill="#292F33" d="M18 .823c-7.019 0-10.139 4.684-10.139 8.588 0 3.903 1.343 4.986 1.56 3.903.78-3.903 3.12-5.101 3.12-5.101 4.68 3.904 3.9.781 3.9.781 4.679 4.684 2.34 0 2.34 0 1.56 1.562 6.239 1.562 6.239 1.562s.78 1.198 1.559 2.759c.78 1.562 1.56 0 1.56-3.903 0-3.905-3.9-8.589-10.139-8.589z"/><path fill="#4289C1" d="M32 6.625L29 5l-2 1.625s3 7.25 3 11.125-3.999 9.249-4 9.25H10c-.001-.001-4-5.375-4-9.25S9 6.625 9 6.625L7 5 4 6.625S0 13.75 0 17.75 5 36 5 36h26s5-14.25 5-18.25-4-11.125-4-11.125z"/><path fill="#F6DDCD" d="M18 31c1.657 0 3-1.343 3-3v-2h-6v2c0 1.657 1.343 3 3 3zm1.24-28.604c.042-.521.593-.727 1.146-.708 0 0 5.456.311 7.521 1.271C30.522 4.174 32 6.625 32 6.625h-5S25.917 5.104 25.062 4.5c-.881-.623-4.222-1.215-4.719-1.312s-1.145-.271-1.103-.792zm-2.48 0c-.042-.521-.593-.727-1.146-.708 0 0-5.456.311-7.521 1.271C5.478 4.174 4 6.625 4 6.625h5s1.083-1.521 1.938-2.125c.881-.623 4.222-1.215 4.719-1.312.496-.098 1.145-.271 1.103-.792z"/><path fill="#C1694F" d="M14 22h8s-1 2-4 2-4-2-4-2zm5-2.5h-2c-.276 0-.5-.224-.5-.5s.224-.5.5-.5h2c.276 0 .5.224.5.5s-.224.5-.5.5z"/><path fill="#662113" d="M14 16c-.552 0-1-.448-1-1v-1c0-.552.448-1 1-1s1 .448 1 1v1c0 .552-.448 1-1 1zm8 0c-.552 0-1-.448-1-1v-1c0-.552.448-1 1-1s1 .448 1 1v1c0 .552-.448 1-1 1z"/></svg>