<svg xmlns="http://www.w3.org/2000/svg" viewBox="0 0 36 36"><path fill="#4289C1" d="M27 22H9s-9 0-9 7c0 3.156 4 7 4 7h28s4-3.844 4-7c0-7-9-7-9-7z"/><circle fill="#664131" cx="18" cy="28" r="3"/><path fill="#7C533E" d="M9 9.938V21c0 4.971 4.029 9 9 9s9-4.029 9-9V10.25L9 9.938z"/><path fill="#7C533E" d="M10.847 17.715c0 1.58-.8 2.861-1.788 2.861s-1.788-1.281-1.788-2.861c0-1.58.801-2.861 1.788-2.861s1.788 1.281 1.788 2.861zm17.882 0c0 1.58-.8 2.861-1.788 2.861s-1.788-1.281-1.788-2.861c0-1.58.8-2.861 1.788-2.861s1.788 1.281 1.788 2.861z"/><path fill="#0B0200" d="M18 4.823c-7.019 0-10.139 4.684-10.139 8.588 0 3.903 1.343 4.986 1.56 3.903.78-3.903 3.12-5.101 3.12-5.101 4.68 3.904 3.9.781 3.9.781 4.679 4.684 2.34 0 2.34 0 1.56 1.562 6.239 1.562 6.239 1.562s.78 1.198 1.559 2.759c.78 1.562 1.56 0 1.56-3.903 0-3.905-3.9-8.589-10.139-8.589z"/><path fill="#7C533E" d="M17 34l-5-1-2-1H7l-1 4h11c1 0 1-1 1-1 0-.553-1-1-1-1zm9-2l-2 1-5 1s-1 .447-1 1c0 0 0 1 1 1h11l-1-4h-3z"/><path d="M22 22c-.553 0-1-.447-1-1v-1c0-.553.447-1 1-1s1 .447 1 1v1c0 .553-.447 1-1 1zm-8 0c-.552 0-1-.447-1-1v-1c0-.553.448-1 1-1s1 .447 1 1v1c0 .553-.448 1-1 1z"/><path fill="#3D2E24" d="M19 26.5h-2c-.276 0-.5-.224-.5-.5s.224-.5.5-.5h2c.276 0 .5.224.5.5s-.224.5-.5.5z"/><path d="M5.499 8c-.209 0-.419-.065-.599-.2l-4-3C.458 4.469.369 3.842.7 3.4c.332-.441.958-.531 1.4-.2l4 3c.442.331.531.958.2 1.4-.197.262-.497.4-.801.4zm3.002-3c-.323 0-.64-.156-.833-.445l-2-3c-.306-.46-.182-1.081.277-1.387.459-.307 1.08-.182 1.387.277l2 3c.306.459.182 1.081-.277 1.387-.171.114-.364.168-.554.168zm22 3c-.305 0-.604-.138-.801-.4-.332-.442-.242-1.069.2-1.4l4-3c.44-.333 1.068-.242 1.399.2.332.442.242 1.069-.2 1.4l-4 3c-.179.135-.389.2-.598.2zm-3.002-3c-.19 0-.383-.054-.554-.168-.46-.306-.584-.927-.277-1.387l2-3c.306-.459.925-.585 1.387-.277.46.306.584.927.277 1.387l-2 3c-.192.289-.51.445-.833.445z" fill="#5DADEC"/></svg>