<svg xmlns="http://www.w3.org/2000/svg" viewBox="0 0 36 36"><path fill="#FFCC4D" d="M35 .3C34.326-.946 27.596 1.988 25 4c0 0-4-.998-7-.998S11 4 11 4C8.404 1.988 1.674-.946 1 .3-1 4 2 13 2 13 1.102 14.796.709 16.328.377 18.987c.353-.097.76-.157 1.265-.157 5.002 0 7.857 8.145 7.352 14.925C12.541 35.401 16.458 36 18 36c1.549 0 5.497-.605 9.058-2.27-.497-6.775 2.357-14.9 7.353-14.9.48 0 .868.058 1.21.145C35.29 16.323 34.897 14.793 34 13c0 0 3-9 1-12.7z"/><path fill="#E75A70" d="M18 15c3 0 3 .5 3 1.5s-1.5 3-3 3-3-2-3-3-.001-1.5 3-1.5z"/><path fill="#F18F26" d="M2 3c.447-1.342 5.64 1 6.64 2C8.64 5 4 8 3 11c0 0-2-5-1-8zm32 0c-.447-1.342-5.64 1-6.64 2 0 0 4.64 3 5.64 6 0 0 2-5 1-8z"/><path fill="#FFCC4D" d="M4.934 5.603C4.934 4.189 11 7 10 8s-2 1.603-3 2.603-2.066-4-2.066-5zm26.132 0C31.066 4.189 25 7 26 8s2 1.603 3 2.603 2.066-4 2.066-5z"/><path fill="#FEE7B8" d="M11.039 21.502c-1.801-.14-3.389-.016-4.762.234.198.292.386.6.565.924 1.208-.193 2.586-.279 4.12-.162.28.041.516-.184.537-.46.02-.275-.185-.516-.46-.536zm-1.321-2.143c-4.002-1.25-7.396-.772-8.742-.488.206-.024.421-.042.666-.042.889 0 1.71.26 2.457.722 1.482-.021 3.326.14 5.321.764.049.016.1.022.149.022.213 0 .41-.137.477-.351.083-.263-.064-.544-.328-.627zm20.053 2.386c-1.384-.256-2.988-.384-4.809-.243-.275.02-.481.261-.46.536.021.275.257.501.537.46 1.554-.118 2.95-.03 4.17.169.177-.323.364-.631.562-.922zm2.183-2.194c.747-.462 1.568-.722 2.458-.722.216 0 .403.018.589.037-1.361-.284-4.739-.75-8.718.493-.264.083-.411.363-.328.627.067.214.264.351.477.351.049 0 .1-.007.149-.022 2.018-.632 3.883-.79 5.373-.764z"/><path fill="#292F33" d="M18 21c-2.209 0-4 1.791-4 4v6c0 2.209 1.791 4 4 4s4-1.791 4-4v-6c0-2.209-1.791-4-4-4z"/><path fill="#F5F8FA" d="M7.347 10.665c-.946 3.176.107 6.293 2.352 6.962 2.246.67 4.834-1.362 5.779-4.538.947-3.175-.106-6.293-2.35-6.962-2.245-.669-4.834 1.364-5.781 4.538zm21.305 0c.946 3.176-.107 6.293-2.352 6.962-2.246.67-4.834-1.362-5.779-4.538-.946-3.175.107-6.293 2.351-6.962 2.245-.669 4.833 1.364 5.78 4.538z"/><path fill="#FCAB40" d="M35.753 19.183c-.314-.117-.691-.183-1.157-.183-4.641 0-7.065 10.002-5.873 17h6.46c-1.906-7.045 1.656-14.089.57-16.817zM1.404 19c-.464 0-.84.066-1.153.183l-.001.014C-.832 21.94 2.722 29.006.818 36h6.46c1.19-6.96-1.235-17-5.874-17z"/></svg>