<svg xmlns="http://www.w3.org/2000/svg" viewBox="0 0 36 36"><ellipse transform="rotate(-14.3 5.8 17)" fill="#D79E84" cx="5.801" cy="17" rx="3.678" ry="5.335"/><ellipse transform="rotate(-75.7 30.2 17)" fill="#D79E84" cx="30.199" cy="17" rx="5.335" ry="3.678"/><path fill="#BF6952" d="M18.985 35h-1.97c-6.5 0-12.803-4.982-12.803-11.956 0-3.985 1.477-5.978 1.477-5.978s-.492-1.993-.492-3.985C5.197 7.103 11.5 2.121 18 2.121c6.5 0 12.803 5.978 12.803 10.96 0 1.993-.492 3.985-.492 3.985s1.477 1.993 1.477 5.978C31.788 30.018 25.485 35 18.985 35z"/><path fill="#BF6952" d="M22.242.17s-5.303-1.061-7.424 2.121 4.242 1.061 4.242 1.061S20.121.17 22.242.17z"/><path fill="#D79E84" d="M29.667 15.379c0-3.807-3.087-6.894-6.894-6.894-1.854 0-3.534.736-4.773 1.926-1.239-1.191-2.919-1.926-4.773-1.926-3.807 0-6.894 3.087-6.894 6.894 0 2.309 1.14 4.348 2.882 5.599-.489 1.212-.761 2.546-.761 3.946 0 5.565 4.274 9.015 9.545 9.015s9.545-3.45 9.545-9.015c0-1.401-.272-2.734-.761-3.946 1.744-1.251 2.884-3.29 2.884-5.599z"/><ellipse fill="#292F33" cx="13" cy="17" rx="2" ry="3"/><ellipse fill="#292F33" cx="23" cy="17" rx="2" ry="3"/><path fill="#642116" d="M18 31.5c2.715 0 5.027-1.38 5.895-3.309.359-.798-.25-1.691-1.157-1.691h-9.476c-.907 0-1.516.893-1.157 1.691.868 1.929 3.18 3.309 5.895 3.309z"/><ellipse fill="#642116" cx="16.5" cy="22" rx="1" ry="1.061"/><circle fill="#642116" cx="19.5" cy="22" r="1"/><path fill="#BF6952" d="M6.874 23.245c.598-1.293.876-2.323.876-3.245 0-1.308-.604-2.56-1.09-3.566-.274-.568-.557-1.156-.557-1.434 0-.193.142-.793.267-1.323.387-1.636.868-3.673.263-4.649-.15-.241-.434-.528-.942-.528C3.74 8.5.75 12.756.75 18c0 2.576.174 4.177.555 5.112L.5 36h7l-.837-12.441c.085-.093.157-.197.211-.314z"/><path fill="#9B3C07" d="M6.874 23.245c.598-1.293.876-2.323.876-3.245 0-1.308-.604-2.56-1.09-3.566-.274-.568-.557-1.156-.557-1.434 0-.193.142-.793.267-1.323.387-1.636.868-3.673.263-4.649-.064-.102-.158-.209-.277-.303-.734 1.341-1.159 2.814-1.159 4.356 0 1.992-.197 5.978-.197 9.963C5 23.359 7 36 7 36h.5l-.839-12.469c.079-.089.162-.175.213-.286z"/><path fill="#D79E84" d="M5.691 9.5c-1.373 0-4.118 3.675-4.118 8.5 0 2.542.185 4.174.55 4.851.255.475.985.47 1.688.463l.232-.001c1.16 0 1.985-.283 2.112-.558.519-1.121.771-2.023.771-2.755 0-1.036-.519-2.112-.977-3.061-.374-.776-.67-1.389-.67-1.939 0-.318.108-.791.299-1.599.264-1.116.755-3.194.396-3.771-.023-.039-.08-.13-.283-.13z"/><path fill="#BF6952" d="M35.5 36l-.805-12.888c.381-.935.555-2.535.555-5.112 0-5.244-2.99-9.5-4.941-9.5-.508 0-.792.287-.942.528-.606.976-.124 3.013.263 4.649.125.53.267 1.13.267 1.323 0 .278-.283.866-.557 1.434-.486 1.006-1.09 2.259-1.09 3.566 0 .922.278 1.952.877 3.245.054.117.126.221.211.314L28.5 36h7z"/><path fill="#9B3C07" d="M31 23.044c0-3.985-.197-7.971-.197-9.963 0-1.374-.493-2.822-1.324-4.201-.042.05-.082.1-.112.148-.606.976-.124 3.013.263 4.649.125.53.267 1.13.267 1.323 0 .278-.283.866-.557 1.434-.486 1.006-1.09 2.259-1.09 3.566 0 .922.278 1.952.877 3.245.051.11.134.197.213.286L28.5 36h.5s2-12.641 2-12.956z"/><path fill="#D79E84" d="M30.309 9.5c-.203 0-.26.091-.284.13-.358.577.133 2.655.396 3.771.191.808.299 1.281.299 1.599 0 .55-.296 1.163-.67 1.939-.458.949-.977 2.025-.977 3.061 0 .732.252 1.634.77 2.755.127.274.951.558 2.112.558l.232.001c.702.007 1.432.012 1.689-.463.365-.676.55-2.308.55-4.851 0-4.825-2.744-8.5-4.117-8.5z"/></svg>