<svg xmlns="http://www.w3.org/2000/svg" viewBox="0 0 36 36"><path fill="#FFE51E" d="M19 0c-1.721 0-3.343.406-4.793 1.111C13.814 1.043 13.412 1 13 1 9.134 1 6 4.134 6 8v12h.018C6.201 26.467 11.489 31.656 18 31.656S29.799 26.467 29.982 20H30v-9c0-6.075-4.925-11-11-11z"/><path fill="#F3D2A2" d="M9 5v12c0 4.971 4.029 9 9 9s9-4.029 9-9V5H9z"/><path fill="#FFE51E" d="M26.999 5V4H8v7c6 0 6-6 6-6s2 7 14 7V5h-1.001z"/><path fill="#F3D2A2" d="M12.421 2.935c-.591-.389-1.387-.224-1.776.367L10 4.284V2c0-1.105-.896-2-2-2H4C2.896 0 2 .896 2 2v8s0 1 1 1h6l1-1V8.957l2.789-4.246c.389-.592.225-1.387-.368-1.776z"/><path fill="#C68F6A" d="M4 0h1v5H4zm3 0h1v5H7z"/><path fill="#9268CA" d="M27 27H9l1-17H2v17s0 9 8 9h21v-5c0-2.209-1.791-4-4-4z"/><path fill="#C1694F" d="M19 19.5h-2c-.276 0-.5-.224-.5-.5s.224-.5.5-.5h2c.276 0 .5.224.5.5s-.224.5-.5.5z"/><path fill="#662113" d="M14 16c-.552 0-1-.448-1-1v-1c0-.552.448-1 1-1s1 .448 1 1v1c0 .552-.448 1-1 1zm8 0c-.553 0-1-.448-1-1v-1c0-.552.447-1 1-1s1 .448 1 1v1c0 .552-.447 1-1 1z"/><path fill="#F3D2A2" d="M15 22v6c0 1.657 1.343 3 3 3s3-1.343 3-3v-6h-6z"/><path fill="#7450A8" d="M26 32h1v4h-1z"/><path fill="#DF1F32" d="M22 22h-8s1 2 4 2 4-2 4-2z"/></svg>