<svg xmlns="http://www.w3.org/2000/svg" viewBox="0 0 36 36"><path fill="#F7DECE" d="M28.752 13.715c0-1.548-.769-2.801-1.729-2.852V6.25l-18-.312v4.926c-.96.051-1.729 1.304-1.729 2.852 0 1.548.77 2.801 1.729 2.852V17c0 4.971 4.029 9 9 9s9-4.029 9-9v-.433c.96-.051 1.729-1.304 1.729-2.852z"/><path fill="#292F33" d="M18.023.823c-7.019 0-10.139 4.684-10.139 8.588 0 3.903 1.343 4.986 1.56 3.903.78-3.903 3.12-5.101 3.12-5.101 4.68 3.904 3.9.781 3.9.781 4.679 4.684 2.34 0 2.34 0 1.56 1.562 6.239 1.562 6.239 1.562s.78 1.198 1.559 2.759c.78 1.562 1.56 0 1.56-3.903 0-3.905-3.9-8.589-10.139-8.589z"/><path fill="#C1694F" d="M14.023 22h8s-1 2-4 2-4-2-4-2z"/><path fill="#2A6797" d="M6 28h24v8H6z"/><path fill="#C1694F" d="M19.023 19.5h-2c-.276 0-.5-.224-.5-.5s.224-.5.5-.5h2c.276 0 .5.224.5.5s-.224.5-.5.5z"/><path fill="#662113" d="M14.023 16c-.552 0-1-.448-1-1v-1c0-.552.448-1 1-1s1 .448 1 1v1c0 .552-.448 1-1 1zm8 0c-.552 0-1-.448-1-1v-1c0-.552.448-1 1-1s1 .448 1 1v1c0 .552-.448 1-1 1z"/><path fill="#EEC2AD" d="M3.195 18.025c.263-.484.776-.74 1.268-.694.034-.064 7.084 2.942 7.084 2.942l-1.268 1.547c-.7.854-1.907 1.023-2.696.376l-1.677-1.375-2.26-1.137c-.586-.297-.788-1.039-.451-1.659z"/><path fill="#F7DECE" d="M.365 14.985c-.35.427-.315 1.035.08 1.359l4.917 2.738 3.569 2.926c.395.323.998.239 1.348-.188l1.268-1.547-1.428-1.17-3.223-1.893-5.183-2.413c-.001 0-.998-.239-1.348.188z"/><path fill="#4289C1" d="M9.52 18.438s19.597 8.657 20.108 8.884c1.19.529 3.154 1.7 3.154 3.678l-.351 4.75c0 .138-.112.25-.25.25h-3.323c-.05 0-.098-.015-.139-.043L9.279 22.898c-.069-.046-.111-.124-.111-.207v-4.025c.001-.181.186-.302.352-.228z"/><path fill="#2A6797" d="M18.226 22.266l-.779-.324-6.462 2.109 1.482 1.031zm5.203 2.316l1.007.445-5.175 4.594-3.821-.025z"/><path fill="#EEC2AD" d="M32.752 18.025c-.263-.484-.776-.74-1.268-.694-.034-.064-7.084 2.942-7.084 2.942l1.268 1.547c.7.854 1.907 1.023 2.696.376l1.677-1.375 2.26-1.137c.586-.297.788-1.039.451-1.659z"/><path fill="#F7DECE" d="M35.582 14.985c.35.427.315 1.035-.08 1.359l-4.917 2.738-3.569 2.926c-.395.323-.998.239-1.348-.188L24.4 20.273l1.428-1.17 3.223-1.892 5.183-2.413c0-.001.998-.24 1.348.187z"/><path fill="#4289C1" d="M26.427 18.438S6.83 27.095 6.319 27.322c-1.19.529-3.154 1.7-3.154 3.678l.351 4.75c0 .138.112.25.25.25h3.323c.05 0 .098-.015.139-.043l19.439-13.059c.069-.046.111-.124.111-.207v-4.025c0-.181-.186-.302-.351-.228z"/></svg>