<svg xmlns="http://www.w3.org/2000/svg" viewBox="0 0 36 36"><path fill="#292F33" d="M34 33c0 1.104-.896 2-2 2h-3c-1.104 0-2-.896-2-2v-8c0-1.104.896-2 2-2h3c1.104 0 2 .896 2 2v8zM9 33c0 1.104-.896 2-2 2H4c-1.104 0-2-.896-2-2v-8c0-1.104.896-2 2-2h3c1.104 0 2 .896 2 2v8z"/><path fill="#3B88C3" d="M9 5c4-1 14-1 18 0 3.881.97 5 11 5 11s2 0 2 4v8s-.119 3.03-4 4c-4 1-7 1-12 1s-8 0-12-1c-3.88-.97-4-4-4-4v-8s0-4 2-4C4 16 5.12 5.97 9 5z"/><path fill="#BBDDF5" d="M18 15c3.905 0 8.623.2 12 .561L29 10c-1-3-7-3-11-3S8 7 7 10l-1 5.561C9.377 15.2 14.095 15 18 15z"/><path fill="#3B88C3" d="M5 15.5c0 .829-.671 1.5-1.5 1.5h-2C.671 17 0 16.329 0 15.5S.671 14 1.5 14h2c.829 0 1.5.671 1.5 1.5zm26 0c0 .829.672 1.5 1.5 1.5h2c.828 0 1.5-.671 1.5-1.5s-.672-1.5-1.5-1.5h-2c-.828 0-1.5.671-1.5 1.5z"/><path fill="#FFCC4D" d="M11 23c0 1.657-1.343 3-3 3H7c-1.657 0-3-1.343-3-3s1.343-3 3-3h1c1.657 0 3 1.343 3 3zm21 0c0 1.657-1.344 3-3 3h-1c-1.656 0-3-1.343-3-3s1.344-3 3-3h1c1.656 0 3 1.343 3 3z"/><path fill="#269" d="M12.001 22c-.323 0-.64-.156-.833-.445-1.742-2.614-6.319-3.565-6.365-3.574-.541-.109-.892-.636-.783-1.178.109-.541.632-.891 1.176-.783.221.044 5.431 1.119 7.636 4.426.306.46.182 1.08-.277 1.387-.171.112-.364.167-.554.167zm11.998 0c-.19 0-.383-.055-.554-.168-.46-.307-.584-.927-.277-1.387 2.204-3.307 7.415-4.382 7.636-4.426.54-.106 1.067.242 1.176.783.109.542-.241 1.068-.782 1.178-.046.009-4.623.96-6.365 3.574-.193.29-.511.446-.834.446z"/><path fill="#55ACEE" d="M18 29c-5.663 0-12.639-.225-13.707-1.293-.391-.391-.391-1.023 0-1.414.344-.345.877-.386 1.267-.122.232.1 2.285.829 12.44.829s12.208-.729 12.44-.829c.391-.264.922-.223 1.267.122.391.391.391 1.023 0 1.414C30.639 28.775 23.663 29 18 29z"/><path fill="#269" d="M25 29.5c0 1.5-3.134 2.5-7 2.5s-7-1-7-2.5c0-.828 3.134-.5 7-.5s7-.328 7 .5z"/></svg>