<svg xmlns="http://www.w3.org/2000/svg" viewBox="0 0 36 36"><path fill="#CCD6DD" d="M11 11h3v9h-3z"/><path fill="#77B255" d="M24 26.157C24 28.832 22.354 31 20.325 31H4.709c-2.029 0-3.488-1.565-3.258-3.494l.625-5.241c.23-1.93 1.992-3.808 3.928-4.199l14.628-3.21C22.496 14.413 24 16.219 24 18.893v7.264z"/><path fill="#292F33" d="M16.535 24.167C16.239 26.283 17.791 28 20 28h9c2.209 0 4-1.717 4-3.833V8.833C33 6.716 31.547 5 29.755 5h-7.303c-1.792 0-3.484 1.716-3.78 3.833l-2.137 15.334z"/><path fill="#BBDDF5" d="M18.245 25c-.135 1.104.65 2 1.755 2h9c1.104 0 2-.896 2-2V11c0-1.104-.743-2-1.66-2h-7.473c-.917 0-1.771.896-1.906 2l-1.716 14z"/><path fill="#77B255" d="M15 21h18v10H15z"/><path fill="#FFCC4D" d="M33 23H2l1-2h30z"/><circle fill="#292F33" cx="8" cy="31" r="4"/><circle fill="#FFCC4D" cx="8" cy="31" r="2"/><path fill="#77B255" d="M33 16v4l-10 9-7-1 3-10 3-2z"/><path fill="#292F33" d="M18.222 26.111c0-4.91 3.979-8.889 8.889-8.889 4.91 0 8.889 3.979 8.889 8.889C36 31.021 32.021 35 27.111 35c-4.91 0-8.889-3.979-8.889-8.889z"/><path fill="#FFCC4D" d="M32.667 26.111c0 3.068-2.487 5.556-5.556 5.556-3.068 0-5.556-2.487-5.556-5.556 0-3.068 2.487-5.556 5.556-5.556 3.069.001 5.556 2.488 5.556 5.556z"/><path fill="#FFE8B6" d="M30.444 26.111c0 1.841-1.492 3.333-3.333 3.333-1.842 0-3.334-1.492-3.334-3.333 0-1.842 1.492-3.334 3.334-3.334 1.841 0 3.333 1.493 3.333 3.334z"/><path fill="#77B255" d="M32.588 7c-.552-1.187-1.606-2-2.833-2h-7.303c-1.227 0-2.395.813-3.112 2h13.248z"/><path fill="#F4900C" d="M29.333 26.111c0 1.227-.995 2.222-2.222 2.222-1.227 0-2.223-.995-2.223-2.222 0-1.227.995-2.223 2.223-2.223 1.227.001 2.222.996 2.222 2.223z"/><circle fill="#F4900C" cx="8" cy="31" r="1"/><path fill="#66757F" d="M11 13h3v2h-3z"/><path fill="#5C913B" d="M16 28.75c-.094 0-.19-.013-.285-.041-.529-.157-.832-.714-.675-1.243l2-6.75C17.421 18.796 19.188 15 23 15h10c.553 0 1 .448 1 1s-.447 1-1 1H23c-3.144 0-4.011 4.154-4.02 4.196l-2.021 6.838c-.129.435-.527.716-.959.716z"/><path fill="#3E721D" d="M2.001 29c-.042 0-.083-.003-.125-.008-.548-.068-.937-.568-.868-1.116l1-8c.068-.549.569-.936 1.116-.868.548.068.937.568.868 1.116l-1 8c-.063.506-.494.876-.991.876z"/></svg>