<svg xmlns="http://www.w3.org/2000/svg" viewBox="0 0 36 36"><path fill="#292F33" d="M16 0h4v5h-4z"/><path fill="#D1D3D4" d="M16 2h4v4h-4z"/><path fill="#A7A9AC" d="M18 2h2v4h-2z"/><path fill="#66757F" d="M18 19H5s1.355 8 4.875 14C13.394 39 18 33 18 33s4.606 6 8.125 0C29.645 27 31 19 31 19H18z"/><path fill="#99AAB5" d="M18 19H5s1.355 8 4.875 14C13.394 39 18 33 18 33V19z"/><path fill="#55ACEE" d="M0 30h36v6H0z"/><path fill="#E6E7E8" d="M30 9h-2.45l-.242-4H8.692l-.241 4H6v6h2.088l-.242 4h20.308l-.242-4H30z"/><path fill="#D1D3D4" d="M10 15h16v4H10z"/><path fill="#6D6E71" d="M8 11h20v2H8z"/><path fill="#BCBEC0" d="M10 7h16v2H10z"/><path fill="#BE1931" d="M5.913 23h24.174c.201-.747.368-1.427.5-2H5.413c.132.573.299 1.253.5 2z"/><path fill="#A0041E" d="M18 23h12.087c.201-.747.368-1.427.5-2H18v2z"/><path fill="#BCBEC0" d="M12 17h12v2H12z"/><path fill="#58595B" d="M16 0h2v2h-2z"/></svg>