<svg xmlns="http://www.w3.org/2000/svg" viewBox="0 0 36 36"><path d="M34.999 17.999c0 9.389-7.611 17-17 17S1 27.388 1 17.999 8.61 1 17.999 1s17 7.61 17 16.999z"/><ellipse fill="#FFF" cx="20" cy="7.5" rx="3" ry="3.5"/><path fill="#FFF" d="M26 13s0-2-2-2h-7c-1 0-2 1-2 1l-2 2H9s-1 0-1 1 1 1 1 1h5l2-1.171V31s0 1 1 1h1s1 0 1-1v-8s0-1 1-1 1 1 1 1v8s0 1 1 1h1s1 0 1-1v-9s2 0 2-2v-7zM9.242 19.467c0 .846-.726 1.533-1.621 1.533S6 20.313 6 19.467c0-.847.726-1.533 1.621-1.533s1.621.686 1.621 1.533z"/><path fill="#FFF" d="M13.242 22.467c0 .847-.726 1.533-1.621 1.533S10 23.313 10 22.467c0-.847.726-1.533 1.621-1.533s1.621.686 1.621 1.533zm-2 4c0 .847-.726 1.533-1.621 1.533S8 27.313 8 26.467c0-.847.726-1.533 1.621-1.533s1.621.686 1.621 1.533z"/><path fill="#DD2E44" d="M18 0C8.059 0 0 8.06 0 18c0 9.941 8.059 18 18 18s18-8.059 18-18c0-9.94-8.059-18-18-18zm16 18c0 3.968-1.453 7.591-3.845 10.388L7.612 5.845C10.409 3.453 14.032 2 18 2c8.837 0 16 7.164 16 16zM2 18c0-3.968 1.453-7.592 3.845-10.388l22.543 22.544C25.592 32.548 21.968 34 18 34 9.164 34 2 26.837 2 18z"/></svg>