<svg xmlns="http://www.w3.org/2000/svg" viewBox="0 0 36 36"><path d="M15.356 15.875l3.083 1.158-1.156 3.084s-4.55-1.004-5.259-2.113c-.709-1.111.602-2.729.602-2.729l2.73.6z"/><path fill="#C1694F" d="M2 17h32s0 2-1 7c-.86 4.302-21 1-24.601 0C5.316 23.144 2 17 2 17z"/><path fill="#F4900C" d="M35 18c0 .553-.447 1-1 1H2c-.552 0-1-.447-1-1 0-.553.448-1 1-1h32c.553 0 1 .447 1 1z"/><path fill="#55ACEE" d="M0 23.933V34c0 1.105.895 2 2 2h32c1.105 0 2-.895 2-2v-9.637c0-.637-.585-1.097-1.21-.976-11.333 2.19-22.667-2.809-34-.439-.461.096-.79.514-.79.985z"/><path fill="#1C6399" d="M24.646 13.533c-.171-.171-.448-.171-.619 0l-8.031 8.031c-2.225 2.224-2.691.599-5.033 2.941l-3.231 3.231c-.2.199-.199.523 0 .723l.994.994.994.994c.2.2.523.2.722 0l3.231-3.231c2.342-2.342.717-2.809 2.941-5.033l8.031-8.031c.172-.171.172-.448.001-.619z"/><path fill="#F7DECE" d="M18.133 6.036c1.024-.19 2.358.58 2.372 1.726.019 1.599-1.112 2.732-2.062 2.439-.996-.307-1.576-.653-1.786-1.78-.209-1.127.452-2.195 1.476-2.385z"/><path fill="#F7DECE" d="M16.876 8.742c-1.07-1.895 2.236-1.091 2.236-1.091.627.145-.011 1.113.175 1.745.127.437-.772.482-.772.482s-.393-.082-.506.392l-.001.004c-.028.121-.044.268-.024.472.098 1.011-1.3 1.349-1.397.336-.038-.401.07-.726.186-1.023l.01-.026c.173-.441.357-.822.093-1.291z"/><path fill="#292F33" d="M16.872 6.134c.593-.544 2.277-.8 3.121.197.716.014.854.724.721 1.091-.106.293-.864.228-1.162.766-.102-.169-.079-.471-.02-.623-.281.182-.294.801-1.301 1.012-.973.204-.968 1.03-.968 1.03s-.431-.316-.687-.762c-.489-.851-.357-2.111.296-2.711z"/><path fill="#F7DECE" d="M24.122 14.09l-.118-.118c-.271-.28-.439-.192-.587-.1-.064.04-.23.128-.231.128-.178-.025-2.234-.791-2.498-1.042-.072-.069-.521-.474-.661-.63-.399-.449-.849-.971-1.466-1.383-.484-.323-.631-.348-.859-.289-.277.071-.515.266-.655.534-.315.605-.131 1.283.447 1.647 1.135.716 2.013 1.25 2.539 1.542.41.227 1.505.465 2.229.624.248.054.482.105.526.123.079.032.188.141.292.247.163.165.331.333.502.333.017 0 .033-.001.051-.005.267-.055.406-.338.677-.773.252-.402.068-.585-.188-.838z"/><path fill="#FA743E" d="M19.45 11.544c-.482-.732-.727-1.12-1.462-1.282-1.287-.284-2.912.308-4.222 1.927-.829 1.024-.947 2.174-2.259 3.794 0 0 4.569.724 4.754.092.184-.629.406-1.528 1.1-2.15.501-.449.507-.661.626-.779.426.358 1.002.67 1.002.67l1.209-1.394-.748-.878z"/></svg>