<svg xmlns="http://www.w3.org/2000/svg" viewBox="0 0 36 36"><path fill="#58595B" d="M19 12V5h-2v7h-3v3h8v-3z"/><path fill="#6D6E71" d="M33.213 10.977L3.27 2.954c-.533-.144-.85-.691-.707-1.226.143-.533.691-.85 1.225-.707L33.73 9.045c.534.144.851.691.707 1.225-.142.534-.69.851-1.224.707z"/><path fill="#A7A9AC" d="M23.348 4.361l-1.933-.518.259-.965-5.795-1.553-.259.966-1.932-.518c-1.067-.285-2.164.348-2.45 1.415-.286 1.066.348 2.163 1.414 2.449l9.66 2.588c1.066.286 2.163-.348 2.449-1.414.286-1.066-.347-2.164-1.413-2.45z"/><path fill="#808285" d="M13.877 4.931c-.286 1.066-1.383 1.7-2.45 1.414-1.066-.286-1.7-1.383-1.414-2.449.286-1.067 1.383-1.7 2.449-1.415 1.068.286 1.701 1.382 1.415 2.45zm11.592 3.105c-.286 1.067-1.383 1.7-2.449 1.414-1.067-.286-1.7-1.382-1.414-2.449.285-1.067 1.382-1.7 2.449-1.414 1.066.286 1.7 1.383 1.414 2.449z"/><path fill="#DD2E44" d="M6 32c0 2.209 1.791 4 4 4h16c2.209 0 4-1.791 4-4v-5H6v5zm20-18H10c-1.477 0-2.752.809-3.445 2h22.89c-.693-1.191-1.968-2-3.445-2z"/><path fill="#88C9F9" d="M6 18h24v9H6z"/><path fill="#55ACEE" d="M6.555 16C6.211 16.59 6 17.268 6 18h24c0-.732-.211-1.41-.555-2H6.555z"/><path fill="#231F20" d="M12 16h2v11h-2zm9 0h2v11h-2z"/></svg>