<svg xmlns="http://www.w3.org/2000/svg" viewBox="0 0 36 36"><path fill="#DD2E44" d="M34.16 28.812L31.244 2.678C31.074 1.153 29.785 0 28.251 0H7.664C6.119 0 4.825 1.168 4.667 2.704l-2.67 26.108H34.16z"/><circle fill="#BE1931" cx="18.069" cy="14" r="9.366"/><path fill="#99AAB5" d="M35.521 29.18H.479L0 34c0 2 2 2 2 2h32s2 0 2-2l-.479-4.82z"/><path fill="#CCD6DD" d="M35.594 29.912l-.073-.732C35.38 28.442 34.751 28 34 28H2c-.751 0-1.38.442-1.521 1.18l-.073.732h35.188z"/><path fill="#EC9DAD" d="M29.647 13.63l-7.668-1.248 4.539-6.308c.107-.148.091-.354-.039-.484-.131-.129-.336-.146-.484-.039l-6.309 4.538-1.247-7.667c-.029-.181-.187-.314-.37-.314s-.341.133-.37.314l-1.248 7.667-6.308-4.538c-.149-.107-.353-.09-.484.039-.13.131-.146.335-.039.484l4.538 6.308L6.49 13.63c-.181.029-.314.186-.314.37s.133.341.314.37l7.668 1.248-4.538 6.308c-.107.149-.091.354.039.484.131.129.335.146.484.039l6.308-4.538 1.248 7.667c.029.182.187.314.37.314s.341-.134.37-.314l1.247-7.667 6.308 4.538c.148.106.354.09.484-.039.13-.131.146-.335.039-.484l-4.538-6.308 7.668-1.248c.182-.029.314-.187.314-.37s-.132-.341-.314-.37z"/></svg>