<svg xmlns="http://www.w3.org/2000/svg" viewBox="0 0 36 36"><path fill="#3B88C3" d="M36 32c0 2.209-1.791 4-4 4H4c-2.209 0-4-1.791-4-4V4c0-2.209 1.791-4 4-4h28c2.209 0 4 1.791 4 4v28z"/><path fill="#FFF" d="M17.838 18.211c-.657-1.534-2.699-5.82-5.525-7.509C12.736 10.1 13 9.339 13 8.5 13 6.566 11.656 5 10 5 8.343 5 7 6.566 7 8.5c0 .84.264 1.6.687 2.203-2.826 1.689-4.868 5.976-5.525 7.51-.435 1.014.035 2.189 1.049 2.625.257.109.524.162.788.162.775 0 1.513-.454 1.839-1.211.052-.122.107-.242.162-.363V31.5c0 .828.671 1.5 1.5 1.5S9 32.328 9 31.5V24c0-.553.448-1 1-1s1 .447 1 1v7.5c0 .828.672 1.5 1.5 1.5s1.5-.672 1.5-1.5V19.428c.055.12.109.239.162.361.437 1.014 1.612 1.483 2.627 1.048 1.014-.437 1.484-1.61 1.049-2.626zm13.158 1.914c.297.346.717.523 1.14.523.345 0 .692-.119.976-.361.629-.539.701-1.486.162-2.115l-5.73-6.686C28.412 10.874 29 9.771 29 8.5 29 6.566 27.656 5 26 5c-1.657 0-3 1.567-3 3.5 0 1.35.662 2.507 1.621 3.091l-5.739 6.408c-.552.617-.5 1.566.117 2.118.618.553 1.567.499 2.118-.117L23 18v2l-4 6h3v5.5c0 .828.671 1.5 1.5 1.5s1.5-.672 1.5-1.5V26h2v5.5c0 .828.672 1.5 1.5 1.5s1.5-.672 1.5-1.5V26h3l-4-6v-2l1.996 2.125z"/></svg>