<svg xmlns="http://www.w3.org/2000/svg" viewBox="0 0 36 36"><path fill="#66757F" d="M31.543 17.53c.77-.782.767-2.039-.01-2.817L17.977 1.156c-.781-.781-2.047-.781-2.829 0l-3 3c-.781.781-.781 2.048 0 2.829l13.556 13.556c.781.781 2.048.781 2.829 0l.182-.182c1.937 1.949 3.223 3.834 3.223 6.641v6.707c0 1.104.896 2 2 2s2-.896 2-2V27c0-4.43-2.21-7.273-4.395-9.47z"/><path fill="#99AAB5" d="M32.104 20.971c-.781.78-2.048.78-2.829 0L11.718 3.414c-.781-.781-.781-2.047 0-2.829.781-.781 2.047-.781 2.829 0l17.557 17.556c.78.782.78 2.049 0 2.83z"/><path fill="#55ACEE" d="M17.414 15.586c.391.391.391 1.023 0 1.414L1.708 32.707c-.391.391-1.023.391-1.415 0-.391-.391-.39-1.024 0-1.414L16 15.586c.391-.391 1.023-.391 1.414 0zm-3-3c.391.391.391 1.023 0 1.414L1.708 26.707c-.391.391-1.023.391-1.415 0-.391-.391-.39-1.024 0-1.414L13 12.586c.391-.391 1.023-.391 1.414 0zm-3-3c.391.391.391 1.023 0 1.414L2 20.414c-.391.391-1.023.391-1.415 0-.391-.391-.39-1.024 0-1.414L10 9.586c.391-.391 1.023-.391 1.414 0zm9 9c.391.391.391 1.024 0 1.414L7.708 32.707c-.391.391-1.023.391-1.415 0-.391-.391-.39-1.024 0-1.414L19 18.586c.391-.391 1.023-.391 1.414 0zm3 3c.391.391.391 1.024 0 1.414L14 32.414c-.391.391-1.023.391-1.415 0-.391-.391-.39-1.024 0-1.414L22 21.586c.391-.391 1.023-.391 1.414 0z"/></svg>