<svg xmlns="http://www.w3.org/2000/svg" viewBox="0 0 36 36"><path fill="#269" d="M36 32c0 2.209-1.791 4-4 4H4c-2.209 0-4-1.791-4-4V4c0-2.209 1.791-4 4-4h28c2.209 0 4 1.791 4 4v28z"/><path d="M1.695 13.402c-.066-.286-.088-.44-.088-.748 0-.704.594-1.452 1.562-1.452 1.057 0 1.562.616 1.761 1.584l1.87 9.352h.044l2.86-9.638c.242-.792.902-1.298 1.716-1.298s1.475.506 1.717 1.298l2.86 9.638h.044l1.87-9.352c.198-.968.704-1.584 1.76-1.584.969 0 1.562.748 1.562 1.452 0 .308-.021.462-.088.748l-2.794 12.014c-.221.924-.946 1.716-2.179 1.716-1.078 0-1.914-.704-2.178-1.606l-2.553-8.493h-.044l-2.553 8.493c-.264.902-1.1 1.606-2.178 1.606-1.232 0-1.959-.792-2.179-1.716L1.695 13.402zm27.654-2.332c1.608 0 4.731.528 4.731 2.464 0 .792-.549 1.474-1.363 1.474-.902 0-1.518-.77-3.367-.77-2.729 0-4.136 2.31-4.136 4.994 0 2.619 1.431 4.863 4.136 4.863 1.85 0 2.598-.924 3.5-.924.99 0 1.451.989 1.451 1.496 0 2.112-3.322 2.596-4.951 2.596-4.466 0-7.568-3.542-7.568-8.097-.002-4.576 3.078-8.096 7.567-8.096z" fill="#FFF"/></svg>