<svg xmlns="http://www.w3.org/2000/svg" viewBox="0 0 36 36"><path fill="#EA596E" d="M7 24c1.957 0 3.633 1.135 4.455 2.772l3.477-1.739C13.488 22.058 10.446 20 6.916 20c-1.301 0-2.534.285-3.649.787l1.668 3.67C5.566 24.17 6.262 24 7 24zm22 0c1.467 0 2.772.643 3.688 1.648l2.897-2.635C33.952 21.169 31.573 20 28.916 20c-3.576 0-6.652 2.111-8.073 5.15l3.648 1.722C25.293 25.18 27.003 24 29 24z"/><path fill="#292F33" d="M7 22c-3.866 0-7 3.134-7 7s3.134 7 7 7 7-3.134 7-7-3.133-7-7-7zm0 12c-2.761 0-5-2.238-5-5s2.239-5 5-5 5 2.238 5 5-2.238 5-5 5zm22-12c-3.865 0-7 3.134-7 7s3.135 7 7 7c3.867 0 7-3.134 7-7s-3.133-7-7-7zm0 12c-2.761 0-5-2.238-5-5s2.239-5 5-5c2.762 0 5 2.238 5 5s-2.238 5-5 5z"/><path fill="#DD2E44" d="M29.984 28.922c-.005-.067-.021-.132-.04-.198-.019-.065-.04-.126-.071-.186-.013-.024-.015-.052-.029-.075l-7-11c-.297-.466-.914-.604-1.381-.307-.299.19-.444.513-.445.843H12c-.552 0-1 .447-1 1 0 .553.448 1 1 1h10c.027 0 .05-.014.077-.016L27.178 28H18c-.552 0-1 .447-1 1s.448 1 1 1h11.001c.116 0 .23-.028.343-.069.034-.013.064-.027.097-.043.031-.017.066-.024.097-.044.03-.02.048-.051.075-.072.055-.044.103-.089.147-.143.041-.049.074-.099.104-.154.03-.056.055-.11.075-.172.021-.066.033-.132.04-.201.004-.036.021-.066.021-.102 0-.027-.014-.051-.016-.078z"/><path fill="#DD2E44" d="M21.581 16l-2.899 8.117-5.929-6.775c-.364-.415-.996-.459-1.411-.094-.415.364-.457.995-.094 1.411l6.664 7.615-.854 2.39c-.185.519.086 1.092.606 1.277.111.04.224.059.336.059.411 0 .796-.255.942-.664L23.705 16h-2.124z"/><path fill="#DD2E44" d="M7 30c-.15 0-.303-.034-.446-.105-.494-.247-.694-.848-.447-1.342l3.062-6.106C9.186 22.419 11 19.651 11 17c0-3.242-2.293-4.043-2.316-4.051-.524-.175-.807-.741-.632-1.265.174-.524.739-.81 1.265-.632C9.467 11.102 13 12.333 13 17c0 3.068-1.836 6.042-2.131 6.497l-2.974 5.949C7.72 29.798 7.367 30 7 30z"/><path fill="#292F33" d="M14.612 13.663c-.054 0-.11-.004-.165-.014l-6-1c-.544-.091-.913-.606-.822-1.151.091-.544.601-.913 1.151-.822l6 1c.544.091.913.606.822 1.151-.082.489-.506.836-.986.836zM26.383 17c-.03 0-.059-.002-.089-.006l-5.672-.708c-.372-.046-.644-.374-.62-.748.023-.374.333-.665.707-.665.041 0 4.067-.018 5.989-1.299.25-.167.582-.157.824.026.239.185.337.501.241.788l-.709 2.127c-.096.293-.369.485-.671.485z"/><path fill="#66757F" d="M20 29c0 1.104-.895 2-2 2-1.104 0-2-.896-2-2s.896-2 2-2c1.105 0 2 .896 2 2z"/></svg>