<svg xmlns="http://www.w3.org/2000/svg" viewBox="0 0 36 36"><path fill="#F4900C" d="M36 32c0 2.209-1.791 4-4 4H4c-2.209 0-4-1.791-4-4V4c0-2.209 1.791-4 4-4h28c2.209 0 4 1.791 4 4v28z"/><path fill="#FFF" d="M14.431 24.691c-1.513-.06-3.773.47-5.538 2.686-.534-.294-1.203-.316-1.779-.004-.898.489-1.229 1.613-.74 2.512.428.785 1.31 1.645 2.504 1.697.039.002.079.003.119.003.713 0 1.696-.287 2.543-1.559 1.214-1.821 2.748-1.651 2.945-1.622.516.1 1.022-.032 1.42-.318-.557-.954-.344-2.44-1.474-3.395zm14.287 2.672c-.581-.315-1.255-.293-1.79.005-1.698-2.128-3.849-2.691-5.357-2.678-1.155.975-.911 2.499-1.514 3.451.373.229.822.336 1.281.265.173-.028 1.724-.218 2.949 1.621.848 1.271 1.831 1.559 2.544 1.559.041 0 .08-.001.119-.003 1.193-.053 2.076-.912 2.504-1.697.489-.899.162-2.033-.736-2.523zm-.658-8.423c-.508-.508-1.291-.576-1.872-.201-.14-.037-.516-.187-1.128-.799-2.031-2.031-4.096-2.859-5.466-3.199 1.348-.45 2.455-1.455 3.086-2.758.743-.091 1.32-.716 1.32-1.483 0-.56-.31-1.042-.765-1.3C23.086 6.303 20.803 4 18 4s-5.086 2.303-5.235 5.2c-.455.258-.765.74-.765 1.3 0 .767.577 1.392 1.319 1.482.631 1.303 1.739 2.308 3.087 2.758-1.371.34-3.436 1.168-5.466 3.199-.612.612-.988.762-1.127.799-.583-.374-1.365-.308-1.874.202-.586.586-.586 1.535 0 2.121.047.048.712.691 1.83.691.856 0 1.978-.378 3.291-1.691.408-.408.809-.731 1.202-1.019-.12.494-.186.988-.186 1.453C14.077 22.917 15.833 23 18 23c2.166 0 3.923-.083 3.923-2.506 0-.465-.065-.959-.186-1.453.394.288.794.611 1.202 1.019 1.312 1.314 2.434 1.691 3.291 1.691 1.117 0 1.782-.643 1.83-.691.586-.585.586-1.535 0-2.12z"/></svg>