<svg xmlns="http://www.w3.org/2000/svg" viewBox="0 0 36 36"><path fill="#D99E82" d="M31 18H5c-1.1 0-2 .9-2 2v15c0 .55.45 1 1 1h28c.55 0 1-.45 1-1V20c0-1.1-.9-2-2-2z"/><path fill="#662113" d="M14 26h8v10h-8z"/><path fill="#C1694F" d="M33 24.671v-2.347H3v2.34c.32-.133.625-.37.625-.37s.491.458.982.542c.491.083.848-.583.848-.583s.357.5 1.027.5c.67 0 .804-.5.804-.5s.179.5.804.542c.625.042.848-.5.848-.5s.134.458.893.5c.759.042.803-.542.803-.542s.223.417.759.458c.536.042.848-.417.848-.417s.357.5.938.5c.58 0 .848-.417.848-.417s.089.542.67.542c.58 0 .893-.583.893-.583s0 .542.67.542.893-.5.893-.5 0 .542.625.542.982-.542.982-.542.045.583.804.542c.759-.042.938-.542.938-.542s.223.5.759.542c.536.042.803-.542.803-.542s.045.583.714.5c.67-.083.803-.542.803-.542s.089.667.759.625c.67-.042.848-.583.848-.583s.179.583.803.583c.625 0 .759-.542.759-.542s0 .583.714.542c.714-.042.982-.583.982-.583s.223.542.938.542.759-.5.759-.5.223.5.848.458c.625-.042.759-.458.759-.458s.357.458.804.458c.184-.001.329-.099.446-.207z"/><path opacity=".3" fill="#662113" d="M5 36H4c-.552 0-1-.448-1-1V21h2v15zm27 0h-1V21h2v14c0 .552-.448 1-1 1z"/><path opacity=".15" fill="#662113" d="M5 21h5v15H5zm21 0h5v15h-5z"/><path fill="#FFD983" d="M18.242 4.234c-.177-.129-.4-.132-.58-.007-1.179.823-5.745 4.565-10.379 9.037-3.675 3.546-6.071 7.361-7.162 8.794-.284.374-.033.928.416.928h34.928c.461 0 .707-.584.398-.951-1.562-1.856-5.152-6.882-8.193-9.703-3.573-3.313-8.235-7.228-9.428-8.098z"/><path fill="#FFD983" d="M16.997 5.203s-1.003-1.274-.821-1.813c.148-.437.775-.343.867 0 0 0 .182-.784.593-.882.41-.098.593.735.593.735s.365-.735.775-.588c.41.147.137.931.137.931s.319-.539.775-.196-1.231 2.058-1.231 2.058-1.368.294-1.688-.245zm-15.415 17.1c-.228.735.319 1.225.73 1.274s1.049-.539 1.049-.539.502.539 1.003.637.867-.686.867-.686.365.588 1.049.588.821-.588.821-.588.182.588.821.637.867-.588.867-.588.137.539.912.588c.775.049.821-.637.821-.637s.228.49.775.539c.547.049.866-.49.866-.49s.365.588.958.588.867-.49.867-.49.091.637.684.637c.593 0 .912-.686.912-.686s0 .637.684.637.912-.588.912-.588 0 .637.639.637 1.003-.637 1.003-.637.046.686.821.637c.775-.049.958-.637.958-.637s.228.588.775.637c.547.049.821-.637.821-.637s.046.686.73.588c.684-.098.821-.637.821-.637s.091.784.775.735c.684-.049.866-.686.866-.686s.182.686.821.686.775-.637.775-.637 0 .686.73.637c.73-.049 1.003-.686 1.003-.686s.228.637.958.637.775-.588.775-.588.228.588.867.539.775-.539.775-.539.365.539.821.539.73-.637.73-.637.274.735.912.588c.639-.147.456-.931.456-.931l-1.14-1.029-29.052-.098-3.238.686z"/><path fill="#FFAC33" d="M16.085 7.064s-6.522 4.997-8.711 7.349c-2.189 2.352-4.424 6.909-4.424 6.909s4.15-5.586 5.245-6.762c1.095-1.175 7.89-7.496 7.89-7.496zm5.519 1.568s2.417 2.94 3.512 4.115c1.095 1.176 4.834 8.33 4.834 8.33s-3.512-5.293-4.743-7.154c-.897-1.355-3.603-5.291-3.603-5.291zm-6.112.637s-2.691 3.038-4.014 5.291C10.174 16.785 9.427 20 9.427 20s2.957-5.034 3.74-6.468l2.325-4.263zm3.649.882s.224 3.052.684 5.634c.41 2.303 1.095 5.929 1.095 5.929s-.319-4.362-.684-6.86c-.34-2.323-1.095-4.703-1.095-4.703z"/><g fill="#C1694F"><path opacity=".9" d="M4.958 27.292s-.917 5.667 0 7.667c0 0 .083-4.792.083-5.792s-.083-1.875-.083-1.875zM31 26.417s.958 7 .042 9c0 0-.241-5.5-.241-6.5s.199-2.5.199-2.5z"/><path opacity=".7" d="M9.958 25.667s-.875 8 .042 10c0 0 .083-6.125.083-7.125s-.125-2.875-.125-2.875zm15.968-.292s.991 7.375.074 9.375c0 0-.157-4.542-.157-5.542s.083-3.833.083-3.833z"/></g></svg>