<svg xmlns="http://www.w3.org/2000/svg" viewBox="0 0 36 36"><path fill="#5D9040" d="M36 23v13H0V23h36z"/><path fill="#CCD6DD" d="M0 25h36v6H0z"/><path fill="#F5F8FA" d="M10 28c0 .553-.448 1-1 1H3c-.552 0-1-.447-1-1 0-.553.448-1 1-1h6c.552 0 1 .447 1 1zm12 0c0 .553-.447 1-1 1h-6c-.552 0-1-.447-1-1 0-.553.448-1 1-1h6c.553 0 1 .447 1 1zm12 0c0 .553-.447 1-1 1h-6c-.553 0-1-.447-1-1 0-.553.447-1 1-1h6c.553 0 1 .447 1 1z"/><circle fill="#67757F" cx="17.345" cy="17.015" r="1.5"/><circle fill="#67757F" cx="27.442" cy="17.567" r="1.5"/><path fill="#5DADEC" d="M17.049 11.065c.505 1.419 7.708 2.361 6.105.235-4.613-7.025-10-9.342-9.055-7.126 1.065 2.495 1.718 4.29 2.95 6.891z"/><path fill="#CCD6DD" d="M35.596 15.167c-.391 1.892-5.08 2.014-6.973 1.624l-17.108-3.532c-1.893-.391-8.528-3.361-8.137-5.254.417-2.021 5.67-2.403 7.563-2.012l19.097 3.943c1.894.39 5.949 3.338 5.558 5.231z"/><path fill="#67757F" d="M32.791 11.306c-.5.192-1.146.162-1.61.285-.675.179-1.082 1.532.21 1.607 1.107.065 2.236-.287 2.875-.66-.44-.44-.948-.86-1.475-1.232z"/><path fill="#5DADEC" d="M3.504 7.65C3.673 6.83 4.671 1.744 4.84.924c.508-2.46 2.979 2.134 4.111 4.933-2.005.119-3.918.365-5.447 1.793zm.64.513c1.105-.341 4.233.364 1.791 1.901-3.544 2.332-5.754 1.81-4.873.972.992-.944 1.991-1.918 3.082-2.873zm11.489 4.318c1.024-1.097 8.017.89 5.704 2.199-7.023 4.619-12.887 4.614-11.141 2.953 1.966-1.87 3.277-3.26 5.437-5.152z"/><circle fill="#9AAAB4" cx="27.964" cy="12.57" r="1"/><circle fill="#9AAAB4" cx="25.025" cy="11.963" r="1"/><circle fill="#9AAAB4" cx="22.087" cy="11.357" r="1"/><circle fill="#9AAAB4" cx="19.149" cy="10.75" r="1"/><circle fill="#9AAAB4" cx="16.211" cy="10.144" r="1"/><circle fill="#9AAAB4" cx="13.274" cy="9.537" r="1"/></svg>