<svg xmlns="http://www.w3.org/2000/svg" viewBox="0 0 36 36"><path fill="#66757F" d="M25.819 10.731c-.22.132-.505.061-.637-.158l-3.135-5.201c-.133-.219-.062-.504.157-.636l.062-.038c.22-.132.505-.062.637.158l3.136 5.2c.132.219.061.504-.158.637l-.062.038z"/><path fill="#66757F" d="M25.27 10.181c-.132.219-.062.504.158.636l5.2 3.135c.22.133.505.062.637-.157l.037-.062c.133-.219.062-.504-.158-.637l-5.2-3.135c-.219-.132-.504-.062-.637.158l-.037.062z"/><path fill="#BE1931" d="M13.049 32.144l-3.536-4.95-.707-.707-4.95-3.535c-.391-.391-1.023-.391-1.414 0L.32 25.073c-.391.391-.39 1.023 0 1.414l9.192 9.192c.391.391 1.023.391 1.415 0l2.121-2.121c.391-.391.391-1.024.001-1.414z"/><path fill="#CCD6DD" d="M23.204 17.747C16.209 24.74 3.535 33.304 3.116 32.884c-.42-.419 8.144-13.093 15.138-20.087 6.993-6.993 8.821-6.605 10.188-5.238 1.367 1.366 1.755 3.194-5.238 10.188z"/><path fill="#BE1931" d="M32.076 4.632c-.977.976-1.927 1.609-2.122 1.414-.195-.195.438-1.145 1.414-2.122.976-.976 1.927-1.609 2.122-1.414.196.196-.438 1.145-1.414 2.122z"/><path fill="#CCD6DD" d="M23.944 17.005c-.781.781-2.048.781-2.828 0l-2.122-2.121c-.781-.781-.781-2.047 0-2.829l7.778-7.778c.781-.781 3.222-1.955 4.003-1.174l2.121 2.121c.781.781-.393 3.221-1.174 4.002l-7.778 7.779z"/><path fill="#269" d="M28.526 3.203l4.272 4.271c.364-.883.529-1.818.099-2.249l-2.121-2.121c-.431-.431-1.367-.266-2.25.099z"/><path fill="#BE1931" d="M32.592 3.733c-.196.196-1.145-.438-2.121-1.414-.977-.977-1.61-1.926-1.414-2.122.195-.195 1.145.438 2.121 1.415.976.976 1.609 1.926 1.414 2.121z"/><path fill="#BE1931" d="M35.823 6.965c-.195.195-1.145-.438-2.121-1.414-.976-.977-1.61-1.926-1.414-2.122.195-.195 1.144.438 2.121 1.415.977.976 1.61 1.926 1.414 2.121z"/><path fill="#66757F" d="M24.517 10.108l1.375 1.375c.578.578 1.114 1.088 1.285 1.746l.061-.061c.944-.945.944-2.478 0-3.422l-.982-.982c-.944-.945-2.477-.945-3.422 0l-.061.06c.657.171 1.167.707 1.744 1.284z"/><path fill="#292F33" d="M21.831 6.39c-.34.34-.893.34-1.233 0l-.18-.18c-.341-.341-.341-.893-.001-1.233l1.596-1.595c.34-.34.893-.34 1.233 0l.18.18c.341.341.341.893.001 1.233L21.831 6.39zm9.159 9.226c-.322.322-.844.322-1.166 0l-.248-.248c-.322-.322-.322-.844 0-1.167l1.662-1.662c.322-.322.844-.322 1.166 0l.248.248c.322.322.322.844 0 1.166l-1.662 1.663z"/><path fill="#EA596E" d="M3.865 27.202l-.716-.716-1.423-1.423c-.386-.386-1.011-.386-1.397 0l-.017.017c-.386.387-.386 1.012 0 1.397L1.735 27.9l.715.716.699.698.699-.698.017-.016.698-.7-.698-.698zm7.063 7.063l-1.44-1.44-.681-.681-.707-.707-1.414 1.414.707.707.681.681 1.44 1.44c.391.391 1.023.391 1.415 0 .389-.391.389-1.024-.001-1.414z"/><path fill="#BE1931" d="M7.119 29.475c-2.047 2.047-3.84 3.573-4.003 3.409-.164-.163 1.362-1.956 3.41-4.003 2.047-2.048 3.84-3.574 4.004-3.41.163.164-1.363 1.956-3.411 4.004zm28.013-6.302L12.803.845c-.781-.781-2.047-.781-2.829 0l-2.536 2.95 8.227 10.641 5.9 5.899 10.617 8.204 2.95-2.537c.781-.78.781-2.048 0-2.829z"/><path d="M16.525 10.49L8.544 2.508 7.438 3.794l6.882 8.901zm16.943 16.943l-8.457-8.458-2.269 2.269 9.44 7.294z" fill="#EA596E"/></svg>