<svg xmlns="http://www.w3.org/2000/svg" viewBox="0 0 36 36"><path fill="#5D9040" d="M36 23v13H0V23h36z"/><path fill="#CCD6DD" d="M0 25h36v6H0z"/><path fill="#F5F8FA" d="M10 28c0 .553-.448 1-1 1H3c-.552 0-1-.447-1-1 0-.553.448-1 1-1h6c.552 0 1 .447 1 1zm12 0c0 .553-.447 1-1 1h-6c-.552 0-1-.447-1-1 0-.553.448-1 1-1h6c.553 0 1 .447 1 1zm12 0c0 .553-.447 1-1 1h-6c-.553 0-1-.447-1-1 0-.553.447-1 1-1h6c.553 0 1 .447 1 1z"/><circle fill="#67757F" cx="19.034" cy="16.656" r="1.5"/><circle fill="#67757F" cx="28.489" cy="13.071" r="1.5"/><path fill="#5DADEC" d="M16.354 11.337c1.037 1.093 8.003-.963 5.677-2.258C14.968 4.524 9.104 4.587 10.865 6.23c1.984 1.85 3.309 3.227 5.489 5.107z"/><path fill="#CCD6DD" d="M34.972 7.575c.409 1.889-3.829 3.899-5.718 4.308l-17.072 3.699c-1.889.409-9.158.381-9.567-1.508-.437-2.017 4.211-4.494 6.1-4.903l19.058-4.129c1.888-.409 6.79.644 7.199 2.533z"/><path fill="#67757F" d="M30.844 5.181c-.38.378-.982.612-1.356.913-.545.438-.369 1.839.843 1.384 1.038-.389 1.928-1.168 2.361-1.768-.581-.224-1.216-.403-1.848-.529z"/><path fill="#5DADEC" d="M2.586 13.7c-.177-.818-1.325-5.873-1.502-6.691-.532-2.455 3.588.745 5.756 2.845-1.785.921-3.434 1.92-4.254 3.846zm.792.209c.872-.759 4.017-1.382 2.407 1.013-2.296 3.567-4.528 3.986-4.062 2.863.526-1.265 1.045-2.56 1.655-3.876zm12.254-.704c.492-1.418 7.691-2.434 6.106-.3-4.55 7.068-9.914 9.438-8.991 7.212 1.041-2.506 1.676-4.307 2.885-6.912z"/><circle fill="#9AAAB4" cx="26.942" cy="8.292" r="1"/><circle fill="#9AAAB4" cx="24.01" cy="8.927" r="1"/><circle fill="#9AAAB4" cx="21.078" cy="9.563" r="1"/><circle fill="#9AAAB4" cx="18.146" cy="10.198" r="1"/><circle fill="#9AAAB4" cx="15.214" cy="10.833" r="1"/><circle fill="#9AAAB4" cx="12.282" cy="11.468" r="1"/></svg>