<svg xmlns="http://www.w3.org/2000/svg" viewBox="0 0 36 36"><path fill="#E1E8ED" d="M36 13.062V32s0 4-4 4H4c-4 0-4-4-4-4v-4.938s17-10 36-14z"/><path fill="#9D0522" d="M26.004 15.523c-1.341.693-17.35 9.168-19.132 10.044-2.822 1.388-5.22.05-6.416-1.769-.617-.938-.406-1.219 0-1.312s1.424-.277 1.688.25c.438.875 2.531 2.031 3.625 1.531s17.938-9.531 18.562-9.812.906-.281 1.375 0 1.315.542.298 1.068z"/><path fill="#E75A70" d="M11.143 29.264c-.081 0-.163-.02-.238-.061l-9.301-5.06c-.243-.132-.333-.436-.201-.679.132-.242.436-.332.678-.2l9.301 5.06c.243.132.333.436.201.679-.091.166-.263.261-.44.261z"/><path fill="#9D0522" d="M35.452 20.607c-1.341.693-17.35 9.168-19.132 10.044-2.822 1.387-5.22.05-6.416-1.769-.617-.938-.406-1.219 0-1.312s1.424-.277 1.688.25c.438.875 2.531 2.031 3.625 1.531s17.938-9.531 18.563-9.812.906-.281 1.375 0 1.314.542.297 1.068z"/><path fill="#9D0522" d="M19.167 28.271c-.058 0-.117-.01-.174-.031-.259-.097-.391-.384-.295-.643l2.479-6.666c.062-.166.206-.286.379-.318.18-.029.352.031.467.164l3.334 3.833c.182.208.159.524-.049.705-.209.183-.523.158-.705-.049l-2.782-3.198-2.185 5.877c-.075.201-.266.326-.469.326zm-9.289-4.909c-.058 0-.117-.01-.174-.031-.259-.097-.391-.384-.294-.643l2.479-6.667c.062-.166.206-.286.379-.317.173-.036.35.03.467.164l3.333 3.833c.181.208.159.524-.049.705-.208.182-.523.159-.706-.049l-2.781-3.198-2.186 5.876c-.075.203-.265.327-.468.327zm18.605 0c-.058 0-.117-.01-.174-.031-.26-.097-.391-.384-.295-.643l2.479-6.667c.062-.166.206-.286.379-.317.179-.034.352.031.467.164l3.333 3.833c.182.208.159.524-.049.705-.208.183-.523.158-.705-.049l-2.781-3.198-2.186 5.876c-.074.203-.264.327-.468.327z"/><path fill="#C1694F" d="M23.921 10.779c1.076-.558 1.113-.628 2.249-.024 1.136.604 6.569 3.484 7.21 3.825.814.434 1.112.591-.449 1.421-1.695.903-12.305 6.512-12.931 6.824-.765.381-1.311.327-2.206-.112-.718-.352-6.549-3.463-7.276-3.875-.82-.465-.482-.706.769-1.37 1.251-.666 12.634-6.689 12.634-6.689z"/><path fill="#C1694F" d="M10.085 17.075h1.416v1.329h-1.416zm22.838-3.308h1.125v1.422h-1.125z"/><path fill="#D99E82" d="M23.921 9.435c1.076-.558 1.113-.628 2.249-.024 1.136.604 6.569 3.484 7.21 3.825.814.434 1.112.591-.449 1.421-1.695.902-12.305 6.511-12.931 6.823-.765.381-1.311.327-2.206-.112-.718-.352-6.549-3.463-7.276-3.875-.82-.465-.482-.706.769-1.37 1.251-.665 12.634-6.688 12.634-6.688z"/><path fill="#BF6952" d="M12.532 17.375c-.179 0-.352-.096-.442-.265-.13-.244-.037-.547.207-.676L24.609 9.89c.242-.13.547-.038.676.207.13.244.037.547-.207.676l-12.312 6.544c-.075.039-.155.058-.234.058zm6.714 3.45c-.179 0-.352-.097-.441-.266-.13-.243-.037-.546.207-.676l12.312-6.544c.241-.131.546-.037.676.207s.037.547-.207.676L19.48 20.767c-.074.04-.154.058-.234.058zm-2.171-1.133c-.179 0-.352-.097-.442-.266-.13-.243-.037-.546.207-.676l12.313-6.544c.241-.131.546-.037.676.207s.037.547-.207.676L17.31 19.634c-.076.04-.156.058-.235.058zM14.84 18.56c-.179 0-.352-.096-.442-.265-.13-.244-.037-.547.207-.676l12.313-6.544c.242-.13.546-.038.676.207s.037.547-.207.676l-12.312 6.544c-.075.039-.156.058-.235.058z"/></svg>