<svg xmlns="http://www.w3.org/2000/svg" viewBox="0 0 36 36"><path fill="#F4900C" d="M32 24h-1c-.55 0-1-.45-1-1s.45-1 1-1h1c.55 0 1 .45 1 1s-.45 1-1 1"/><path fill="#292F33" d="M10 31.5c0 2.485-2.015 4.5-4.5 4.5S1 33.985 1 31.5 3.015 27 5.5 27s4.5 2.015 4.5 4.5m24 0c0 2.485-2.015 4.5-4.5 4.5S25 33.985 25 31.5s2.015-4.5 4.5-4.5 4.5 2.015 4.5 4.5"/><path fill="#99AAB5" d="M8 31.5C8 32.881 6.881 34 5.5 34S3 32.881 3 31.5 4.119 29 5.5 29 8 30.119 8 31.5m24 0c0 1.381-1.119 2.5-2.5 2.5S27 32.881 27 31.5s1.119-2.5 2.5-2.5 2.5 1.119 2.5 2.5"/><path fill="#DD2E44" d="M5.854 24.082l2.615-6.989L8 16s-.916.008-1-1c-.083-1.007 2.408-3.079 3-3 .593.08 0 2 0 2s2.32.557 2 2c-.319 1.444-2.375 8.688-2.375 8.688S11.375 25.563 12 27c.449 1.032 1.681 1.018 3 1 1.319-.016 4.393-.007 5-2 .606-1.991 1-3 1-3l-1-1 10-2s-.891 1.982 1 3c2.168 1.169 2.86 2.669 4 5 .749 1.534.448 1.897-1 2-1.941.14-4.44.386-5.79.535-1.197.134-2.284 1.65-4.164 1.65s-10.052.049-12.046-.186c-3.496-.409-4.758-3-10-3-2.072 0-1.06-1.563.028-2.665 1.209-1.226 3.801-2.4 3.826-2.252"/><path fill="#BE1931" d="M22 33h-3c-1.1 0-2-.9-2-2s.9-2 2-2h3c1.1 0 2 .9 2 2s-.9 2-2 2"/><path fill="#BE1931" d="M19 33h-5c-.55 0-1-.45-1-1s.45-1 1-1h5c.55 0 1 .45 1 1s-.45 1-1 1"/><path fill="#292F33" d="M22 22c-1.618 0-2.431.306-3-1s-.02-2 1-2 5.728-.181 8-1c2.272-.819 3.053-.831 3 0s-1 2-1 2-1.254 2-8 2m-8-6h-3.251c-.55 0-1-.45-1-1s.45-1 1-1H14c.55 0 1 .45 1 1s-.45 1-1 1"/><path fill="#F4900C" d="M7.5 16c-.275 0-.5-.225-.5-.5v-1c0-.275.225-.5.5-.5s.5.225.5.5v1c0 .275-.225.5-.5.5"/><path fill="#292F33" d="M13.062 13h-.125c-.516 0-.937-.422-.937-.937V9.937c0-.515.421-.937.938-.937h.125c.516 0 .937.422.937.937v2.126c0 .515-.421.937-.938.937"/><path fill="#292F33" d="M9.982 15.066l-.022-.022c-.188-.188-.188-.497 0-.685l2.85-2.851c.189-.188.497-.188.685 0l.023.022c.188.189.188.497 0 .685l-2.851 2.851c-.188.188-.497.188-.685 0"/></svg>