<svg xmlns="http://www.w3.org/2000/svg" viewBox="0 0 36 36"><path fill="#90603E" d="M20.035 18.576c-2.337 0-8.909-.521-11.246.648s-5.842 4.674-5.842 5.842-.14 4.502-.14 6.839c0 2.752 4.786 3.655 10.486 3.901 5.587.241 12.796-1.014 16.151-2.446 1.976-.844 3.437-2.106 3.581-7.89.124-4.956-2.181-18.241-2.475-19.446-1.149-4.71-2.571-1.716-2.581-1.746-.51-1.531-2.164-2.358-3.695-1.847-1.531.51-2.355 2.164-1.848 3.695.046.137 1.603 7.256 2.772 13.098.643 3.151.174 4.874-3.18 4.76-4.084-.139-3.544-2.685-1.983-5.408z"/><path fill="#90603E" d="M16.946 22.785s3.56 3.082 5.772 2.387 5.671-18.206 2.508-22.044C22.99.414 19.033 2.103 19.701 5.623c.244 1.287 1.261 5.03 2.272 8.822.178.668-.21 3.411-.263 4.563-.157 3.447-4.764 3.777-4.764 3.777z"/><path fill="#9B6A49" d="M17.356 22.952s5.464 3.077 7.509 2.033 3.127-16.824.717-21.101c-1.972-3.499-5.84-1.616-5.168 1.559.332 1.572 1.645 5.284 2.317 8.644.178.891-.045 3.119-.274 4.777-.467 3.381-5.101 4.088-5.101 4.088z"/><path fill="#90603E" d="M18.663 23.043s3.56 2.968 5.772 2.215c2.212-.753 5.691-19.397 2.528-23.557-2.236-2.942-6.06-.719-5.391 2.718.229 1.176 1.468 4.603 2.272 9.267.223 1.292-.178 3.386-.416 5.263-.47 3.711-4.765 4.094-4.765 4.094z"/><path fill="#9B6A49" d="M19.133 23.245s5.405 2.943 7.45 1.812S29.73 6.96 27.32 2.325c-1.972-3.792-5.706-1.079-5.035 2.361.352 1.804 1.614 5.305 2.317 8.777.18.887-.089 3.698-.401 5.748-.556 3.655-5.068 4.034-5.068 4.034z"/><path fill="#90603E" d="M30.442 4.441C29.528.179 26.325.167 24.853 1.982c-1.573 1.939-.349 7.61.418 11.126 1.604 7.351-1.025 10.381-5.97 10.559-2.611.094 7.6 2.367 10.107 1.629 2.506-.738 2.099-11.001 2.037-12.578-.047-1.168-1.003-8.277-1.003-8.277z"/><path fill="#9B6A49" d="M30.334 4.618C29.173.306 26.342.437 25.159 2.702c-.752 1.439-.177 4.789.596 9.784 1.188 7.676.272 11.543-5.546 12.184-2.597.286 4.201 3.197 6.531 2.016 2.331-1.181 5.761-2.303 5.882-3.465.18-1.724-.356-11.317-.624-12.297-1.044-3.828-1.664-6.306-1.664-6.306z"/><path fill="#90603E" d="M20.214 18.264c-2.337 0-9.087-.209-11.424.96s-5.706 4.682-5.842 5.842c-.095.808.019 3.83.262 7.092.205 2.744 4.295 2.913 9.994 3.159 5.587.241 12.326-1.095 15.681-2.527 1.976-.844 3.531-1.798 3.676-7.582.124-4.956-.114-6.351-.517-7.524-1.253-3.644-4.064-13.376-4.075-13.406-.51-1.531-2.164-2.358-3.695-1.847-1.531.51-2.4 2.413-2.078 3.993.26 1.278.891 2.139 2.584 6.95.173.445.49 3.965.624 7.129.093 2.193-2.101 3.098-3.906 3.371-3.74.567-2.846-2.887-1.284-5.61z"/><path fill="#90603E" d="M2.947 25.067c0 1.168 12.503-2.488 14.354-3.539 4.705-2.671 5.195-11.994 5.195-13.815s-.595-3.936-2.405-4.129c-1.699-.181-2.716.849-2.998 2.881C15.427 18.473 2.947 15.28 2.947 25.067z"/><path fill="#AF7E57" d="M32.189 17.406c-.247-2.237-.68-5.368-.992-6.081-.897-2.051-3.219-7.031-3.227-7.047-.827-1.641-1.91-2.062-3.441-1.552-1.531.51-2.126 2.519-1.418 4.366.475 1.24 2.308 5.277 2.532 6.06.172.517.725 4.789.654 8.041-.045 2.05-2.74 3.163-4.361 3.21-4.463.13-4.375-2.753-2.813-5.475l.313-.565c2.2-3.811 2.421-8.913 2.421-10.291 0-1.822-.134-3.348-1.842-3.98-1.604-.594-2.639.34-2.921 2.372C15.427 18.473 2.947 15.28 2.947 25.067c-.095.808.064 2.347.307 5.608.205 2.744 4.373 3.615 10.073 3.861 5.587.241 12.203-.314 15.557-1.746 1.976-.844 3.531-1.798 3.676-7.582.125-4.956-.235-6.569-.371-7.802z"/></svg>