<svg xmlns="http://www.w3.org/2000/svg" viewBox="0 0 36 36"><path fill="#D2A077" d="M15.5 2.965c1.381 0 2.5 1.119 2.5 2.5v.005L20.5.465c1.381 0 2.5 1.119 2.5 2.5V4.25l2.5-1.535c1.381 0 2.5 1.119 2.5 2.5V8.75L29 18H15.458L15.5 2.965z"/><path fill="#F3D2A2" d="M4.625 16.219c1.381-.611 3.354.208 4.75 2.188.917 1.3 1.187 3.151 2.391 3.344.46.073 1.234-.313 1.234-1.397V4.5s0-2 2-2 2 2 2 2v11.633c0-.029 1-.064 1-.082V2s0-2 2-2 2 2 2 2v14.053c0 .017 1 .041 1 .069V4.25s0-2 2-2 2 2 2 2v12.638c0 .118 1 .251 1 .398V8.75s0-2 2-2 2 2 2 2V24c0 6.627-5.373 12-12 12-4.775 0-8.06-2.598-9.896-5.292C8.547 28.423 8.096 26.051 8 25.334c0 0-.123-1.479-1.156-2.865-1.469-1.969-2.5-3.156-3.125-3.866-.317-.359-.625-1.707.906-2.384z"/></svg>