<svg xmlns="http://www.w3.org/2000/svg" viewBox="0 0 36 36"><path fill="#583529" d="M26.362 18.513l-.372-.521-4.656-6.523 2.28-.006.514-1.366V4.2H21.96l-.628 1.165-3.602.591c-.613.525-.879 1.383-.586 2.187l1.721 4.727v2.882l-1.93 2.449c-.083.031-.62.313-.773.44l-.162.137-3.611-3.954c-.817.364-1.389 1.181-1.389 2.133v.96l-4 4.166.016 2.188L17 35s10.518-15.288 10.543-15.258c-.286-.504-.689-.926-1.181-1.229z"/><g fill="#7C533E"><path d="M9.062 25c1.024 0 1.925-.526 2.45-1.322.123.183.271.346.431.497 1.185 1.115 3.034 1.044 4.167-.086.152-.152.303-.305.419-.488l-.003-.003C16.727 23.713 17 24 18 24h2.537c-.37.279-.708.623-1.024 1-1.228 1.467-2.013 3.606-2.013 6 0 .276.224.5.5.5s.5-.224.5-.5c0-2.548.956-4.775 2.377-6 .732-.631 1.584-1 2.498-1 .713.079.847-1 .125-1H18c-1.104 0-2-.896-2-2s.896-2 2-2h8c.858 0 1.66.596 1.913 1.415L29 24c.103.335.479 1.871.411 2.191C29.411 31 24.715 36 19 36c-6.537 0-11.844-5.231-11.986-11.734l.014.01c.515.445 1.176.724 1.91.724h.124zM18 18c-.703 0-1.066.202-1.066.202l1.931-5.331L20.731 18H18z"/><path d="M8.916 16h.168c1.059 0 1.916.858 1.916 1.917v4.166C11 23.142 10.143 24 9.084 24h-.168C7.857 24 7 23.142 7 22.083v-4.166C7 16.858 7.857 16 8.916 16zm6.918 2.96l-.056.062C15.304 19.551 15 20.233 15 21c0 .063.013.123.018.185.044.678.308 1.292.728 1.774-.071.129-.163.243-.259.353-.366.417-.89.688-1.487.688-1.104 0-2-.896-2-2v-6c0-.441.147-.845.389-1.176.364-.497.947-.824 1.611-.824 1.104 0 2 .896 2 2v2.778c-.061.055-.109.123-.166.182zm6.392-15.253c.445-.903 1.501-1.35 2.468-.998 1.038.377 1.573 1.525 1.195 2.563l-1.761 4.821-.001.003L21.96 4.2l.266-.493zM26.001 18l-2.388-6.537-2.07-5.688c-.054-.149-.128-.283-.211-.41-.497-.759-1.464-1.109-2.353-.785-.642.234-1.089.762-1.25 1.376-.099.379-.09.791.055 1.187L21.733 18h4.268z"/></g></svg>