<svg xmlns="http://www.w3.org/2000/svg" viewBox="0 0 36 36"><path fill="#B78B60" d="M18 32.625l-8.146-7.583L11 17c0-.811.485-1.507 1.18-1.82L16 16c0-.811.485-1.507 1.18-1.82l3.716.799L21 15V6c0-.811.485-1.507 1.18-1.82l3.612 13.66L26 18c.922 0 1.723 2 1.723 2l.002.015L18 32.625z"/><g fill="#D4AB88"><path d="M16 18.778c-.609.549-1 1.336-1 2.222 0 .753.287 1.433.745 1.959C15.404 23.576 14.755 24 14 24c-1.104 0-2-.896-2-2v-6c0-.293.067-.569.18-.82.313-.695 1.009-1.18 1.82-1.18 1.104 0 2 .896 2 2v2.778z"/><path d="M7 8c0-1.104.896-2 2-2s2 .896 2 2v14c0 .839.378 1.659.999 2.221 1.168.96 2.843 1.043 4-.002.202-.184.384-.387.53-.618l-.003-.003C16.727 23.713 17 24 18 24h2.537c-1.809 1.365-3.037 3.99-3.037 7 0 .276.224.5.5.5s.5-.224.5-.5c0-3.859 2.187-7 4.875-7 .713.079.847-1 .125-1H18c-1.104 0-2-.896-2-2s.896-2 2-2h8c.968 0 1.481.596 1.725 1.015.126.217.185.389.188.4L29 24c.103.335.479 1.871.411 2.191C29.411 31 24.715 36 19 36c-6.537 0-12-5.25-12-12 .008.007 0-16 0-16z"/><path d="M21 18h-3c-.352 0-.685.072-1 .184V15c0-.293.067-.569.18-.82.313-.695 1.009-1.18 1.82-1.18 1.104 0 2 .896 2 2v3zm1 0V5c0-.293.067-.569.18-.82C22.493 3.485 23.189 3 24 3c1.104 0 2 .896 2 2v13h-4z"/></g></svg>