<svg xmlns="http://www.w3.org/2000/svg" viewBox="0 0 36 36"><path fill="#D5AB88" d="M19.15 34.768c2.772-1.191 4.574-3.617 5.644-5.956 1.673-3.657 7.582-5.169 9.05-6.211 2.038-1.446.166-4.373-2.864-3.889-3.265.522-4.053 1.943-6.021 2.804-1.004.438-1.713.297-1.847-1.556-.098-1.359 1.656-12.037 2.19-16.96.183-1.685-.519-2.645-1.875-2.826-1.536-.205-2.331.631-2.656 2.17-.81 3.832-2.094 11.344-2.633 11.768-2.896 1.817-6.757 4.194-10.208-.423 0 0-1.651-8.661-1.908-10.409C5.577.254 1.491.8 1.826 3.955c.314 2.972 1.289 9.985.435 12.476-.75 2.189-2.074 9.702.843 14.277 2.878 4.514 10.56 6.417 16.046 4.06z"/><path fill="#B78B60" d="M8.834 22.614c.865 4.156 5.886 3.689 5.569-.27-.257-3.22-1.235-8.846-1.553-10.252-.648-2.877-5.659-2.238-5.249 1.159.266 2.205.56 6.128 1.233 9.363z"/><path fill="#D5AB88" d="M9.758 22.191c.795 3.449 4.429 2.49 4.244-.734-.185-3.225-.931-8.139-1.159-9.563-.534-3.326-4.806-1.829-4.459.621s.781 7.104 1.374 9.676z"/><path fill="#B78B60" d="M12.73 23.52c.069 4.943 5.581 4.674 6.013.974.375-3.208-.419-10.28-.478-11.722-.111-2.683-5.015-2.702-5.176.345-.13 2.472-.396 7.764-.359 10.403z"/><path fill="#D5AB88" d="M13.667 23.666c-.141 3.074 4.014 3.422 4.315.207.302-3.215.23-10.089.206-11.53-.041-2.508-4.234-2.419-4.352.661-.094 2.472-.049 8.025-.169 10.662z"/></svg>