<svg xmlns="http://www.w3.org/2000/svg" viewBox="0 0 36 36"><path fill="#FFCC4D" d="M34 16c0 8.834-7.166 16-16 16-8.836 0-16-7.166-16-16C2 7.164 9.164 0 18 0c8.834 0 16 7.164 16 16"/><path fill="#664500" d="M25.861 16.129c-.15-.161-.374-.171-.535-.029-.033.029-3.303 2.9-7.326 2.9-4.013 0-7.293-2.871-7.326-2.9-.162-.142-.385-.13-.535.029-.149.16-.182.424-.079.628C10.168 16.972 12.769 22 18 22s7.833-5.028 7.94-5.243c.103-.205.07-.468-.079-.628z"/><path d="M13.393 23.154l-1.539-2.219s-.543-.867-1.411-.325c-.867.541-.324 1.409-.324 1.409l1.758 3.38s.144.768-.918-.091c-.463-.374-.197-.163-.197-.163l-.44-.361-5.491-4.508s-.709-.748-1.359.042c-.648.791.223 1.341.223 1.341l5.193 4.266c-.12.12-.482.534-.6.663l-5.557-4.56s-.71-.749-1.358.041c-.65.791.222 1.341.222 1.341l5.555 4.562c-.103.14-.363.476-.459.614l-4.792-3.934s-.71-.748-1.358.042c-.651.791.222 1.342.222 1.342l5.094 4.184c-.064.178-.363.646-.41.82l-3.672-3.012s-.709-.752-1.357.041c-.65.791.222 1.341.222 1.341l5.93 4.868.395.326c2.62 2.151 6.489 1.771 8.64-.849 1.971-2.403 1.817-5.853-.24-8.069-.729-.782-1.36-1.653-1.972-2.532zm22.19 4.916c-.648-.793-1.357-.041-1.357-.041l-3.672 3.012c-.047-.174-.346-.643-.41-.82l5.094-4.184s.873-.551.223-1.342c-.648-.79-1.358-.042-1.358-.042l-4.792 3.934c-.096-.139-.357-.475-.459-.614l5.555-4.562s.873-.55.223-1.341c-.648-.79-1.357-.041-1.357-.041l-5.558 4.56c-.117-.129-.479-.543-.6-.663l5.193-4.266s.87-.55.223-1.341c-.65-.79-1.359-.042-1.359-.042l-5.491 4.508-.439.361s.99-.841-.197.163c-1.188 1.004-.918.091-.918.091l1.758-3.38s.543-.868-.324-1.409c-.869-.542-1.411.325-1.411.325l-1.538 2.219c-.613.879-1.244 1.75-1.974 2.533-2.058 2.217-2.212 5.666-.239 8.069 2.15 2.62 6.02 3 8.64.849l.396-.326 5.93-4.868c-.005-.001.867-.551.218-1.342z" fill="#F4900C"/><path fill="#664500" d="M27.677 10.983C27.626 10.861 26.392 8 23.856 8c-2.534 0-3.768 2.861-3.819 2.983-.08.188-.028.406.123.536.149.128.365.132.523.012.01-.009 1.081-.816 3.173-.816 2.079 0 3.149.797 3.174.816.075.059.165.089.255.089.095 0 .189-.034.267-.099.153-.129.205-.35.125-.538zm-11 0C16.625 10.861 15.392 8 12.856 8c-2.534 0-3.768 2.861-3.82 2.983-.079.188-.028.406.124.536.15.128.366.132.523.012.011-.009 1.081-.816 3.173-.816 2.08 0 3.149.797 3.173.816.076.059.165.089.255.089.095 0 .189-.034.267-.099.154-.129.205-.35.126-.538z"/><path fill="#B55005" d="M11.182 25.478s-2.593 3.314.484 7.46c.212.285.75.146.521-.188-.25-.364-2.75-3.896-.4-7.057 0 0-.381-.047-.605-.215zm13.583.098s2.594 3.314-.484 7.46c-.212.285-.75.146-.521-.188.25-.364 2.75-3.896.4-7.057-.001.001.381-.046.605-.215z"/></svg>