<svg xmlns="http://www.w3.org/2000/svg" viewBox="0 0 36 36"><path fill="#FFCC4D" d="M36 18c0 9.941-8.059 18-18 18-9.94 0-18-8.059-18-18C0 8.06 8.06 0 18 0c9.941 0 18 8.06 18 18"/><path fill="#664500" d="M7 21.263c0 3.964 4.596 9 11 9s11-5 11-9c0 0-10.333 2.756-22 0z"/><path fill="#5D9040" d="M12 23.003v6.961c0 3 2 6 6 6s6-3 6-6v-6.92c-6.291 1.292-12-.041-12-.041z"/><path d="M12.284 12.33c-.756-.292-1.471-.568-1.471-.968 0-.659.884-.693 1.061-.693.625 0 .936.234 1.21.441.21.159.428.323.731.323.564 0 .821-.397.821-.766 0-.736-.902-1.256-1.858-1.474V8.8c0-.518-.421-.939-.939-.939s-.939.421-.939.939v.426c-1.144.333-1.845 1.174-1.845 2.235 0 1.311 1.293 1.849 2.434 2.323.817.34 1.589.661 1.589 1.162 0 .366-.46.762-1.203.762-.75 0-1.18-.3-1.56-.564-.262-.183-.51-.356-.806-.356-.43 0-.766.362-.766.824 0 .679.931 1.356 2.157 1.594v.47c0 .518.421.938.939.938s.939-.421.939-.938l-.005-.498c1.296-.315 2.062-1.222 2.062-2.459.001-1.404-1.414-1.95-2.551-2.389zm14.41 2.406c0-1.404-1.415-1.95-2.552-2.389-.756-.292-1.47-.568-1.47-.968 0-.659.884-.693 1.061-.693.625 0 .935.234 1.21.441.211.159.428.323.73.323.565 0 .822-.397.822-.766 0-.737-.902-1.256-1.858-1.474v-.392c0-.518-.422-.939-.939-.939-.518 0-.94.421-.94.939v.426c-1.143.333-1.845 1.174-1.845 2.235 0 1.311 1.293 1.849 2.434 2.323.817.34 1.589.661 1.589 1.162 0 .366-.459.762-1.202.762-.75 0-1.18-.3-1.559-.564-.263-.183-.511-.356-.806-.356-.431 0-.767.362-.767.824 0 .679.931 1.356 2.156 1.594v.47c0 .517.423.938.941.938s.938-.421.938-.938l-.003-.498c1.295-.317 2.06-1.223 2.06-2.46z" fill="#664500"/><path fill="#FFF" d="M20.97 31.069c0-1.368-1.379-1.901-2.487-2.329-.737-.284-1.434-.554-1.434-.943 0-.643.861-.675 1.034-.675.609 0 .912.229 1.18.43.205.155.418.315.713.315.55 0 .801-.388.801-.747 0-.717-.879-1.224-1.812-1.437V25.3c0-.505-.411-.916-.916-.916s-.916.411-.916.916v.415c-1.115.324-1.799 1.145-1.799 2.179 0 1.278 1.261 1.803 2.373 2.265.797.331 1.549.644 1.549 1.132 0 .357-.448.743-1.173.743-.731 0-1.15-.292-1.52-.551-.255-.178-.497-.347-.785-.347-.419 0-.748.354-.748.804 0 .663.907 1.322 2.102 1.554v.459c0 .504.411.914.917.914.505 0 .915-.41.915-.914l-.003-.486c1.263-.309 2.009-1.193 2.009-2.398z"/></svg>