<svg xmlns="http://www.w3.org/2000/svg" viewBox="0 0 36 36"><path fill="#FFCC4D" d="M35 17c0 9.389-7.611 17-17 17-9.388 0-17-7.611-17-17C1 7.612 8.612 0 18 0c9.389 0 17 7.612 17 17"/><path fill="#664500" d="M28.457 14.297C28.397 14.162 26.958 11 24 11c-2.957 0-4.397 3.162-4.457 3.297-.092.207-.032.449.145.591.175.142.426.147.61.014C20.31 14.893 21.56 14 24 14c2.426 0 3.674.881 3.702.901.088.066.194.099.298.099.11 0 .221-.037.312-.109.177-.142.238-.386.145-.594zm-12 0C16.397 14.162 14.958 11 12 11c-2.957 0-4.397 3.162-4.457 3.297-.092.207-.032.449.144.591.176.142.427.147.61.014C8.31 14.893 9.559 14 12 14c2.426 0 3.674.881 3.702.901.088.066.194.099.298.099.11 0 .221-.037.312-.109.178-.142.237-.386.145-.594z"/><path fill="#F4900C" d="M26.503 27.371s.997-.721.165-1.614c-.832-.893-1.621.052-1.621.052L20.9 29.675c-.069-.205-.459-.743-.55-.947l5.755-5.366s.998-.721.164-1.615c-.832-.892-1.622.051-1.622.051l-5.413 5.046c-.125-.158-.461-.54-.594-.698l6.276-5.85s.997-.722.164-1.614c-.832-.893-1.621.051-1.621.051l-6.278 5.848c-.15-.145-.612-.609-.764-.746l5.866-5.468s.996-.722.164-1.614c-.833-.893-1.621.051-1.621.051l-6.203 5.781-.497.464-.222.207s-.538.744-1.087.179l1.842-4.158s.58-1.074-.493-1.655c-1.075-.581-1.655.493-1.655.493l-1.668 2.758c-.663 1.093-1.349 2.178-2.159 3.167-2.284 2.793-2.211 6.914.318 9.629 2.759 2.959 7.396 3.122 10.355.364l.447-.418 6.699-6.244z"/></svg>