<svg xmlns="http://www.w3.org/2000/svg" viewBox="0 0 36 36"><path fill="#DA2F47" d="M36 18c0 9.941-8.059 18-18 18-9.94 0-18-8.059-18-18C0 8.06 8.06 0 18 0c9.941 0 18 8.06 18 18"/><path fill="#292F33" d="M25.485 29.879C25.44 29.7 24.317 25.5 18 25.5c-6.318 0-7.44 4.2-7.485 4.379-.055.217.043.442.237.554.195.109.439.079.6-.077.019-.019 1.954-1.856 6.648-1.856s6.63 1.837 6.648 1.855c.096.095.224.145.352.145.084 0 .169-.021.246-.064.196-.112.294-.339.239-.557zm-9.778-14.586C12.452 12.038 7.221 12 7 12c-.552 0-.999.447-.999.998-.001.552.446 1 .998 1.002.029 0 1.925.023 3.983.737-.593.64-.982 1.634-.982 2.763 0 1.934 1.119 3.5 2.5 3.5s2.5-1.566 2.5-3.5c0-.174-.019-.34-.037-.507.013 0 .025.007.037.007.256 0 .512-.098.707-.293.391-.391.391-1.023 0-1.414zM29 12c-.221 0-5.451.038-8.707 3.293-.391.391-.391 1.023 0 1.414.195.195.451.293.707.293.013 0 .024-.007.036-.007-.016.167-.036.333-.036.507 0 1.934 1.119 3.5 2.5 3.5s2.5-1.566 2.5-3.5c0-1.129-.389-2.123-.982-2.763 2.058-.714 3.954-.737 3.984-.737.551-.002.998-.45.997-1.002-.001-.551-.447-.998-.999-.998z"/><path fill="#292F33" d="M29.739 33H6.261C5.017 33 4 31.983 4 30.739V25c0-1.244 1.017-2.261 2.261-2.261h23.478C30.983 22.739 32 23.756 32 25v5.739C32 31.983 30.983 33 29.739 33z"/><path d="M7.841 27.229h-.818c-.314 0-.457-.229-.457-.457s.143-.456.457-.456h.95l.209-1.53c.047-.342.19-.456.475-.456.228 0 .438.151.438.38 0 .143 0 .076-.019.229l-.19 1.378h.913l.209-1.53c.047-.342.19-.456.475-.456.228 0 .438.151.438.38 0 .143 0 .076-.019.229l-.191 1.378h.818c.314 0 .456.229.456.456 0 .228-.143.457-.456.457h-.951l-.152 1.083h.818c.314 0 .456.229.456.457s-.143.456-.456.456h-.951l-.209 1.53c-.048.343-.191.456-.476.456-.228 0-.438-.151-.438-.38 0-.143 0-.076.019-.229l.191-1.378h-.912l-.209 1.53c-.048.343-.19.456-.476.456-.228 0-.438-.151-.438-.38 0-.143 0-.076.019-.229l.19-1.378h-.816c-.313 0-.456-.229-.456-.456 0-.229.143-.457.456-.457h.951l.152-1.083zm.77 1.083h.903l.152-1.083h-.903l-.152 1.083zm4.616-2.5c0-.827.618-1.54 1.464-1.54s1.464.713 1.464 1.54-.618 1.531-1.464 1.531c-.847.001-1.464-.703-1.464-1.531zm1.958 0c0-.304-.181-.57-.494-.57-.314 0-.495.267-.495.57 0 .305.181.562.495.562.313 0 .494-.257.494-.562zm2.31-1.292c.124-.237.219-.304.438-.304.295 0 .561.237.561.532 0 .076 0 .143-.076.285l-3.194 5.979c-.143.199-.2.313-.428.313-.247 0-.542-.237-.542-.522 0-.143.057-.275.095-.352l3.146-5.931zm-.922 5.219c0-.827.618-1.54 1.464-1.54s1.464.713 1.464 1.54c0 .826-.618 1.53-1.464 1.53-.847.001-1.464-.704-1.464-1.53zm1.958 0c0-.305-.181-.57-.495-.57s-.495.266-.495.57c0 .304.181.561.495.561s.495-.257.495-.561zm2.486.789c0-.409.333-.742.741-.742.409 0 .742.333.742.742 0 .408-.333.741-.742.741-.408.001-.741-.332-.741-.741zm.057-5.609c0-.399.294-.646.684-.646.381 0 .685.257.685.646v3.66c0 .39-.304.646-.685.646-.39 0-.684-.247-.684-.646v-3.66zm8.078 6.407c-.187 0-.304-.053-.431-.196l-.724-.79-.072.066c-.702.645-1.308.919-2.024.919-1.109 0-2.229-.632-2.229-2.044 0-1.107.867-1.769 1.384-2.065l.117-.067-.095-.098c-.425-.445-.599-.813-.599-1.269 0-1.077.983-1.567 1.896-1.567.764 0 1.84.453 1.84 1.458 0 .951-.883 1.501-1.153 1.647l-.115.062 1.161 1.341.444-.536c.247-.297.391-.422.646-.422.205 0 .424.184.424.523 0 .254-.252.585-.499.875l-.297.335.706.838c.131.156.185.239.185.428.001.295-.269.562-.565.562zm-3.447-3.474c-.428.287-.864.665-.864 1.291 0 .656.427 1.079 1.089 1.079.552 0 .909-.242 1.275-.606l.071-.069-1.5-1.743-.071.048zm.671-2.711c-.28 0-.67.229-.67.602 0 .348.171.56.534.929l.051.052.063-.033c.497-.26.749-.553.749-.869.001-.468-.376-.681-.727-.681z" fill="#FFF"/></svg>