<svg xmlns="http://www.w3.org/2000/svg" viewBox="0 0 36 36"><path fill="#4289C1" d="M27 27H10v9h21v-5c0-2.209-1.791-4-4-4z"/><path fill="#2A6797" d="M26 32h1v4h-1z"/><path fill="#D5AB88" d="M9 5.938V17c0 4.971 4.029 9 9 9s9-4.029 9-9V6.25L9 5.938z"/><path fill="#C1694F" d="M19 19.5h-2c-.276 0-.5-.224-.5-.5s.224-.5.5-.5h2c.276 0 .5.224.5.5s-.224.5-.5.5z"/><path fill="#D5AB88" d="M10.847 13.715c0 1.58-.8 2.861-1.788 2.861s-1.788-1.281-1.788-2.861c0-1.58.801-2.861 1.788-2.861s1.788 1.281 1.788 2.861zm17.882 0c0 1.58-.8 2.861-1.788 2.861s-1.788-1.281-1.788-2.861c0-1.58.8-2.861 1.788-2.861s1.788 1.281 1.788 2.861z"/><path fill="#963B22" d="M18 .823c-7.019 0-10.139 4.684-10.139 8.588 0 3.903 1.343 4.986 1.56 3.903.78-3.903 3.12-5.101 3.12-5.101 4.68 3.904 3.9.781 3.9.781 4.679 4.684 2.34 0 2.34 0 1.56 1.562 6.239 1.562 6.239 1.562s.78 1.198 1.559 2.759c.78 1.562 1.56 0 1.56-3.903 0-3.905-3.9-8.589-10.139-8.589z"/><path fill="#D5AB88" d="M15 24v4c0 1.657 1.343 3 3 3s3-1.343 3-3v-4h-6z"/><path fill="#2A6797" d="M18.734 18.386l1.827.691s-6.529 13.746-7.413 15.022c-.884 1.276-1.87 2.055-4.57 1.76l10.156-17.473zM26 32h1v4h-1z"/><path fill="#B78B60" d="M13.513 7.846c.945-.291 1.598.508 1.77 1.195l.284 1.14.756-2.155c.366-1.042 1.507-1.591 2.549-1.225l3.774 1.324c1.042.366 1.591 1.507 1.225 2.549l-2.648 7.549s-.331.944-1.275.613l-5.662-1.986-.613-1.275.345-.984-1.226-4.929c-.17-.688.044-1.607.721-1.816z"/><path fill="#662113" d="M24.157 16.371c-.026-.058-.596-1.288-1.747-1.529l-.49 1.395c.037-.001.063-.009.101-.009 1.162 0 1.76.422 1.774.432.042.032.093.047.143.047.053 0 .106-.018.149-.052.085-.067.114-.184.07-.284z"/><path fill="#4F140B" d="M22.021 14.792c-1.417 0-2.107 1.515-2.136 1.58-.044.099-.016.215.069.283.084.068.204.07.292.007.005-.004.578-.397 1.673-.423l.49-1.395c-.124-.027-.25-.052-.388-.052z"/><path fill="#C1694F" d="M20.995 23.364s-.56-1.117-1.678-1.681c-.246.514-.516 1.078-.807 1.681h2.485z"/><path fill="#B78B60" d="M18.734 18.386l-1.9 3.234-1.024 1.744-1.16 1.974L15 28c0 .594.178 1.144.476 1.61.98-1.986 2.097-4.295 3.035-6.246l.807-1.681c.741-1.547 1.244-2.606 1.244-2.606l-1.828-.691z"/><path fill="#894935" d="M19.317 21.683c-.377-.191-.818-.319-1.322-.319-.438 0-.819.107-1.161.256l-1.024 1.744h2.701l.806-1.681z"/><path fill="#D5AB88" d="M12.513 7.657c.687-.171 1.383.248 1.555.934l.284 1.14.756-2.155c.366-1.042 1.507-1.591 2.549-1.225l3.774 1.324c1.042.366 1.591 1.507 1.225 2.549l-2.648 7.549s-.331.944-1.275.613L13.072 16.4l-.613-1.275.345-.984-1.226-4.929c-.171-.688.248-1.385.935-1.555z"/><path fill="#B78B60" d="M18.743 12.054l1.655-4.718.944.331-1.655 4.718zm-2.83-.993l1.656-4.718.943.331-1.655 4.718z"/><path fill="#4289C1" d="M14.278 29.85s-1.719 3.579-2.107 4.416C11.484 35.75 10 36 10 36c-8 0-3.622-8.343-3.622-8.343l6.432-11.846 6.541 2.58-5.073 11.459z"/></svg>