<svg xmlns="http://www.w3.org/2000/svg" viewBox="0 0 36 36"><circle fill="#FFCC4D" cx="18" cy="18" r="18"/><path fill="#664500" d="M22.5 25H18c-5.6 0-7-1-7-1s1.267 3.594 6.179 3.963c.104.023.211.037.321.037H22c.825 0 2-1.175 2-2s-.675-1-1.5-1zm-6.687-7.112c-.176.143-.427.147-.61.014-.013-.01-1.261-.902-3.703-.902-2.441 0-3.69.893-3.7.9-.183.137-.435.133-.611-.009-.178-.142-.238-.386-.146-.594.06-.135 1.5-3.297 4.457-3.297 2.958 0 4.397 3.162 4.457 3.297.092.207.032.449-.144.591zm12.999 0c-.176.143-.426.148-.61.014-.012-.01-1.261-.902-3.702-.902-2.44 0-3.69.893-3.7.9-.183.137-.434.133-.611-.009-.178-.142-.238-.386-.146-.594.059-.135 1.5-3.297 4.457-3.297 2.958 0 4.398 3.162 4.457 3.297.092.207.032.449-.145.591zM13.114 6.002c.552.021.982.486.961 1.038-.022.55-.484.979-1.034.96-.156-.004-3.57-.052-6.339 3.357-.348.427-.977.494-1.407.145-.429-.348-.494-.978-.145-1.407 3.428-4.219 7.78-4.1 7.964-4.093zm9.403 1.672c.181-.033 4.473-.763 8.461 2.933.406.375.43 1.008.053 1.413-.375.407-1.007.429-1.413.054-3.228-2.992-6.608-2.456-6.75-2.432-.542.093-1.06-.27-1.155-.812-.095-.541.263-1.057.804-1.156z"/><path fill="#88C9F9" d="M23 26h-3c-.55 0-1 .45-1 1v4c0 .55.45 1 1 1s1-.45 1-1v3.5c0 .825.675 1.5 1.5 1.5s1.5-.675 1.5-1.5V27c0-.55-.45-1-1-1z"/></svg>