<svg xmlns="http://www.w3.org/2000/svg" viewBox="0 0 36 36"><path fill="#FFCC4D" d="M36 18c0 9.941-8.059 18-18 18-9.94 0-18-8.059-18-18C0 8.06 8.06 0 18 0c9.941 0 18 8.06 18 18"/><path fill="#664500" d="M6.001 19c-.304 0-.604-.138-.801-.4-.332-.441-.242-1.068.2-1.399.143-.107 2.951-2.183 6.856-2.933C9.781 13.027 7.034 13 6.999 13c-.552-.002-.999-.45-.998-1.002 0-.551.447-.998.999-.998.221 0 5.452.038 8.707 3.293.286.286.372.716.217 1.09-.155.374-.52.617-.924.617-4.613 0-8.363 2.772-8.4 2.8-.18.135-.391.2-.599.2zm23.998-.001c-.208 0-.418-.064-.598-.198C29.363 18.772 25.59 16 21 16c-.404 0-.77-.243-.924-.617-.155-.374-.069-.804.217-1.09C23.549 11.038 28.779 11 29 11c.552 0 .998.447.999.998.001.552-.446 1-.997 1.002-.036 0-2.783.027-5.258 1.268 3.905.75 6.713 2.825 6.855 2.933.441.331.531.956.201 1.398-.196.261-.496.4-.801.4zM16 29c2-5 13-5 13-3 0 1-8-1-13 3z"/><path fill="#CCD6DD" d="M18.406 18.033c2.678 2.676-3.974 15.524-5.25 16.8-1.05 1.05-4.2 1.05-5.25-1.05-1.05-2.1-4.2 0-5.25-1.05-2.1-2.1 1.05-3.15 0-5.25s-3.15-3.15-1.05-5.25 7.35-1.05 10.5-3.15c3.15-2.1 5.249-2.1 6.3-1.05z"/><path fill="#F5F8FA" d="M17.322 19.872c-.016-.062-.053-.113-.079-.17-.03-.066-.05-.135-.094-.194-.161-.218-.405-.374-.694-.415h-.001c-.137-.019-.274-.011-.406.022-.091.023-.169.071-.249.117-.038.021-.08.03-.115.056-.111.082-.206.185-.278.305-2.934 4.89-9.942 7.944-10.013 7.975-.533.229-.779.846-.55 1.379.171.398.558.636.965.636.138 0 .278-.027.413-.085.223-.096 4.055-1.77 7.425-4.712-2.068 3.825-5.23 5.995-5.273 6.025-.481.323-.61.974-.288 1.456.203.302.535.467.874.467.2 0 .402-.057.581-.176.273-.183 6.703-4.549 7.807-12.274.018-.14.009-.279-.025-.412z"/></svg>