<svg xmlns="http://www.w3.org/2000/svg" viewBox="0 0 36 36"><path fill="#FFCB4C" d="M30.728 5.272c7.029 7.029 7.029 18.427 0 25.456s-18.426 7.029-25.456 0c-7.029-7.029-7.029-18.427 0-25.456s18.426-7.029 25.456 0"/><path fill="#65471B" d="M19.279 19.28c-3.494 3.494-6.219 5.404-9.645 7.714-.781.529-1.928 1.929.001 3.859 3.857 3.857 13.111 4.247 19.287-1.929 6.177-6.177 5.788-15.43 1.929-19.288-1.929-1.93-3.33-.782-3.858 0-2.308 3.423-4.219 6.149-7.714 9.644z"/><path fill="#FFF" d="M11.564 28.923s3.858-1.929 9.644-7.716c5.787-5.786 7.715-9.643 7.715-9.643s1.928 5.787-4.822 12.537c-6.75 6.751-12.537 4.822-12.537 4.822z"/><path fill="#65471B" d="M8.265 25.234c-.215.215-.525.33-.849.283-.547-.078-.927-.584-.848-1.131.025-.176.543-3.63 2.774-6.922-2.627.873-4.589 2.796-4.614 2.821-.391.389-1.024.388-1.414-.003-.39-.39-.39-1.022 0-1.412.156-.156 3.882-3.828 8.485-3.828.405 0 .769.243.924.617.155.374.069.804-.217 1.09-3.262 3.262-3.953 7.874-3.96 7.919-.031.224-.134.419-.281.566zm16.968-16.97c-.147.147-.341.25-.563.282-.047.007-4.676.715-7.921 3.96-.286.286-.716.372-1.09.217-.374-.155-.617-.519-.617-.924 0-4.604 3.672-8.329 3.828-8.485.39-.39 1.022-.39 1.412 0 .391.389.392 1.023.003 1.413-.026.026-1.949 1.987-2.822 4.614 3.292-2.231 6.745-2.749 6.921-2.774.546-.078 1.052.3 1.131.847.049.324-.066.635-.282.85z"/><path fill="#64AADD" d="M30.101 12.055c2.741.334 5.234-1.618 5.567-4.36.334-2.741-1.617-5.234-4.359-5.568-2.741-.333-10.409 2.763-10.53 3.756-.121.992 6.581 5.837 9.322 6.172zM12.157 29.999c.334 2.741-1.618 5.234-4.36 5.567-2.741.334-5.234-1.617-5.568-4.359-.334-2.742 2.763-10.41 3.756-10.531.992-.12 5.837 6.582 6.172 9.323z"/></svg>