<svg xmlns="http://www.w3.org/2000/svg" viewBox="0 0 36 36"><path fill="#7C533E" d="M20.533 30.046c-.945-1.361-.746-3.135.443-3.963 1.189-.826 2.922-.395 3.867.967.946 1.359.747 3.134-.443 3.961-1.189.827-2.922.395-3.867-.965z"/><path fill="#7C533E" d="M21.251 24.544l1.871 3.49c.264.486.082 1.127-.4 1.384-.484.264-1.09.097-1.354-.389l-1.75-3.22-2.281 1.586-.436-2.134c-.142-.22 5.374-2.71 5.745-3.124.001.001.492 1.327-1.395 2.407z"/><path fill="#7C533E" d="M26.857 21.431l-4.341.033c-.516.004-.934.428-.931.943.004.515.43.935.945.93l4.342-.031c.516-.004.934-.429.931-.944-.005-.515-.43-.934-.946-.931z"/><path fill="#7C533E" d="M30.852 22.974c-.743-.149-3.178-1.455-3.772-1.485-.594-.03-.799.189-.965.679-.166.486.223.747 1.025 1.311.802.564 2.911.505 3.386.624.135.034.398.385.653.505.505.238.833-.071 1.129-.059.442.018.76.209.832 0l.148-.267c.119-.416-.471-.753-1.069-1.129-.303-.191-1.117-.129-1.367-.179z"/><path fill="#0B0200" d="M25.36 28.167s.236.077.49.713c.223.557.267 1.248 0 1.871-.336.783-1.515 1.537-2.606 1.515-1.527-.031-2.378-.501-2.963-1.738-.538-1.137-.377-2.306-.377-2.306s.947.638.805.762c-.264.229.176 1.224.576 1.291.421.071.492-.343.383-.631-.11-.289-.34-.542-.139-.676s.361.205.691.512c.334.312.557.713 1.203 1.069 0 0 1.803-.434 1.96-1.092.133-.555-.023-1.29-.023-1.29z"/><path fill="#7C533E" d="M20.926 8.62c-.168.504-.934 1.145-1.116 1.322-.822.803-2.361 2.536-3.141 3.099l2.927 2.037c.571-.547 1.504-1.719 2.309-2.726.48-.6 1.16-1.419 1.458-2.328 0 0 .484-2.929 1.486-5.51.32-.825-1.304-1.405-1.67-.718-.363.681-.776 1.496-1.015 2.137-.161.439-1.162 2.459-1.238 2.687z"/><path fill="#269" d="M23.011 2.446c-.055.164-.202.758-.202.984l-.24 1.347c-.014.067.032.132.099.142.197.031.834-.084 1.225.272.262.238.292.663.443.728.048.02.102-.005.119-.054 0 0 .048-.246.11-.456.13-.166.283-.5.519-.634.14-.024.291-.151.66-.174.219-.014 1.224-.085 1.224-.085.255-.014.335-.093.472-.102.282-.02 1.02.002 1.26-.017.239-.018.374-.165.423-.292.048-.126.035-.208.035-.208s-.233-.403-1.596-.956c-.8-.324-4.189-1.074-4.189-1.074l-.127.1c-.125.1-.177.307-.235.479z"/><path fill="#CCD6DD" d="M25.017 4.972c-.007.028-.021.055-.041.078-.066.072-.177.078-.249.012l-.229-.208c-.073-.066-.076-.179-.012-.249.066-.072.177-.078.249-.012l.229.208c.049.044.067.11.053.171z"/><path fill="#3B88C3" d="M25.098 2.587c-.133.188-.556.591-.925.646-.332.05-1.174-.059-1.334-.08.036-.26.144-.649.185-.772.055-.162.131-.375.255-.467.013-.009 1.365.52 1.819.673z"/><path fill="#CCD6DD" d="M23.26 1.913s.14.035.221.123c.081.089.308.19.481.248.173.058.82.288 1.291.379.471.091 1.349.142 1.633.201.284.059.72.167 1.031.302.31.135.585.266.751.357.215.116.382.245.491.374 0 0 .061-.375-.419-.784-.38-.323-.765-.544-1.159-.684-.03-.011-1.085-.357-1.613-.528-.386-.124-1.001-.327-1.001-.327-.728-.245-1.103-.35-1.253-.351-.027 0-.133-.02-.261.035-.084.035-.286.624-.193.655zm2.321 2.786c-.015.064-.065.116-.134.132-.095.021-.189-.039-.21-.134l-.067-.302c-.02-.097.039-.189.134-.211.095-.021.189.039.21.134l.067.302c.007.027.006.054 0 .079zm.618-.098c-.017.073-.08.13-.159.136-.097.006-.182-.067-.188-.164l-.023-.326c-.007-.101.066-.182.164-.189.097-.006.181.067.188.164l.023.326c0 .019-.001.036-.005.053zm.628-.061c-.019.081-.094.14-.18.135-.097-.004-.172-.087-.167-.185l.015-.299c.007-.104.088-.172.185-.167.097.004.172.087.167.185l-.015.299c-.001.012-.002.022-.005.032z"/><path fill="#7C533E" d="M10.141 9.777c.528.627 1.938 1.882 2.115 2.065.858.887 1.814 1.427 2.462 2.275l-2.361 2.434c-.63-.478-1.263-1.253-2.178-2.161-.545-.541-1.833-2.663-2.476-3.332 0 0-1.266-1.767-2.555-4.217-.413-.784.991-1.416 1.577-.904.627.548 1.394 1.44 1.978 2.103.308.35 1.282 1.553 1.438 1.737z"/><path fill="#CCD6DD" d="M3.126 1.742c.72-.945 2.329-.518 2.762.695.291.816.305 2.096.709 2.499.403.404.557 1.034.564 1.244.007.21-.226.356-.443.153 0 0 .587.633-.079.709-.665.075-.213.506-.649.398-.436-.108-.371-.43-.371-.43s.003.777-.318.443c-.321-.335-1.899-2.64-2.247-3.716-.228-.706-.453-1.306.072-1.995z"/><path fill="#269" d="M3.37 1.971c.68-.974 2.206-.218 2.442.615.236.833.295 1.916.699 2.319.403.403.945 1.181.951 1.391.007.21-.308.354-.525.151 0 0 .702.676.036.751-.666.075-.492.662-.928.554-.436-.108-.512-.774-.512-.774s.003.777-.318.443c-.321-.335-1.64-2.454-1.968-3.536s-.197-1.456.123-1.914z"/><path fill="#CCD6DD" d="M5.26 6.328c-.044.049-.058.12-.032.185.037.09.14.133.23.096l1.16-.595c.091-.039.133-.14.096-.231-.037-.09-.14-.133-.23-.096l-1.16.595c-.025.012-.046.027-.064.046zm-.395-.779c-.044.049-.058.12-.032.185.037.09.14.133.23.096l1.09-.48c.091-.039.133-.14.096-.231-.037-.09-.14-.133-.23-.096l-1.09.48c-.025.012-.047.027-.064.046zm-.318-.737c-.059.047-.083.128-.055.202.036.091.138.136.228.1l.974-.415c.094-.037.136-.137.101-.229-.035-.09-.137-.135-.228-.099l-.974.415c-.018.006-.033.015-.046.026zm-.244-.697c-.073.041-.107.13-.079.211.032.092.133.14.224.108l.934-.349c.098-.036.14-.133.108-.225-.032-.092-.133-.14-.224-.108l-.934.35c-.011.003-.02.008-.029.013z"/><path fill="#269" d="M14.549 19.12s-1.718-1.063-2.419-1.602c-.699-.539-2.317-2.941-2.317-2.941s1.985-2.051 3.074-2.762l2.584 1.916 2.391-2.222s2.49.991 3.178 2.139c0 0-1.129 1.842-1.485 2.436-.017.458.008 1.039.238 1.069l-5.244 1.967z"/><path fill="#7C533E" d="M14.593 29.239l1.825-3.939c.215-.468.774-.673 1.242-.458.467.217.674.778.457 1.245l-1.822 3.941c-.217.468-.776.674-1.245.457-.467-.217-.672-.777-.457-1.246z"/><path fill="#7C533E" d="M13.976 34.214s.297-3.515.386-4.188c.089-.673.599-1.197 1.114-1.146.511.049.75.431.817 1.294.066.863-.959 3.206-.867 4.121.03.297.935.551.683.743-.111.085-.853.164-1.01.149l-.564.03c-.252-.025-.888.031-1.04-.149-.158-.188.454-.593.481-.854z"/><path fill="#3B88C3" d="M18.425 26.836s.568-.446.979-.776c0 0-.409-.721.615-1.479 1.025-.758 1.688-.396 1.688-.396s.231.09 1.038-.153c.383-.115 1.147-.307 1.147-.307s-.041-1.617-.267-2.601l-1.951-.077s-.341-.402-.546-.989c-.142-.404-.479-1.167-.624-1.515-.446-1.069-.73-1.909-.799-2.272 0 0-2.408.956-4.149 1.446-1.348.38-3.291.024-3.291.024.481.655 1.307 2.352 1.823 3.297 1.094 2.003 2.734 3.803 2.297 4.289-.438.487-1.062 1.535-1.062 1.535s.615.449 1.032.802c.584.493 1.072.613 1.072.613s.646-1.102.998-1.441z"/></svg>