<svg xmlns="http://www.w3.org/2000/svg" viewBox="0 0 36 36"><path fill="#0B0200" d="M19 0c-1.721 0-3.343.406-4.793 1.111C13.814 1.043 13.412 1 13 1 9.134 1 6 4.134 6 8v12h.018C6.201 26.467 11.489 31.656 18 31.656S29.799 26.467 29.982 20H30v-9c0-6.075-4.925-11-11-11z"/><path fill="#9268CA" d="M27 21H9c-2.209 0-4 1.791-4 4v11h26V25c0-2.209-1.791-4-4-4z"/><path fill="#7C533E" d="M14 5s-.003 5.308-5 5.936V17c0 4.971 4.029 9 9 9s9-4.029 9-9v-5.019C15.89 11.605 14 5 14 5z"/><path fill="#7450A8" d="M10 27h1v9h-1z"/><path fill="#583529" d="M4.702 26.495l-.283-.059h-.511c0-.058.023-.112.035-.169-.348-.215-.546-.625-.458-1.048.112-.542.643-.89 1.186-.779l2.091.433h1.676c.863 0 1.562.7 1.562 1.564V28H6.253s-1.481-.669-1.551-1.505z"/><path fill="#7C533E" d="M0 25.655c0-.432.35-.782.781-.782l4.69.782h3.747c.432 0 .781.351.781.781V28H5L.781 26.437S0 26.087 0 25.655z"/><path fill="#9268CA" d="M4 36h6v-8H5z"/><path fill="#7450A8" d="M25 27h1v9h-1z"/><path fill="#583529" d="M31.298 26.495l.283-.059h.511c0-.058-.023-.112-.035-.169.348-.215.546-.625.458-1.048-.112-.542-.642-.89-1.185-.779l-2.091.433h-1.676c-.863 0-1.562.7-1.562 1.564V28h3.747c-.001 0 1.48-.669 1.55-1.505z"/><path fill="#7C533E" d="M36 25.655c0-.432-.35-.782-.781-.782l-4.691.782h-3.747c-.432 0-.781.351-.781.781V28h5l4.219-1.563s.781-.35.781-.782z"/><path fill="#9268CA" d="M32 36h-6v-8h5z"/><path fill="#3D2E24" d="M19 19.5h-2c-.276 0-.5-.224-.5-.5s.224-.5.5-.5h2c.276 0 .5.224.5.5s-.224.5-.5.5z"/><path fill="#DF1F32" d="M20.5 23H20c-.276 0-.5-.224-.5-.5s.224-.5.5-.5h.5c.276 0 .5.224.5.5s-.224.5-.5.5z"/><path d="M14 16c-.552 0-1-.448-1-1v-1c0-.552.448-1 1-1s1 .448 1 1v1c0 .552-.448 1-1 1zm8 0c-.553 0-1-.448-1-1v-1c0-.552.447-1 1-1s1 .448 1 1v1c0 .552-.447 1-1 1z"/></svg>