<svg xmlns="http://www.w3.org/2000/svg" viewBox="0 0 36 36"><path fill="#FFDC5D" d="M34.081 1.421C32.559.337 30.55 3.943 30.094 4.437l1.764 1.469-.592 5.579s-2.617-.596-4.297-.579-1.688-.438-3.242-.438c-1.152 0-2.226.513-2.226.513l-.453-1.713c.97-.747 1.608-1.972 1.608-3.363 0-2.278-1.699-4.125-3.793-4.125-2.094 0-3.786 1.856-3.582 4.125.167 1.861 1.017 3.351 2.405 3.893l-.167 1.441c-.486-.042-2.154-.302-3.21.009-2.333.688-5.404 2.711-6.08 2.81-.474.07-2.608.675-4.14.901-.277.041-.891-.966-1.416-1.033-.15-.019-.686.691-.835.672-.56-.069-1.079-.115-1.307-.022-.926.381-.4 3.381.727 3.213 0 0 2.036-.483 2.793-.574 1.669-.2 4.343-.272 5.317-.536 1.416-.382 4.34-1.451 4.34-1.451-.139.467 2.479 4.3 2.979 10.632 0 0 3.692.012 5.469.012 0 0 .036-4.343.438-6.469.255-1.349 1.188-1.438 1.188-1.438.538-1.309.395-3.18.406-3.531 0 0 7.942.453 8.938-.312 1.012-.777.522-8.46.438-8.232.561-.515 1.811-3.546.517-4.469z"/><path fill="#DD2E44" d="M21.797 10.844c-.206.63-.344.903-.478 1.251-.242.625-.975 2.202-3.037 2.312-1.806.096-2.331-.675-2.13-1.877.101-.601.194-.792.489-1.373 0 0-.438-.062-1.094-.047 0 0-1.511 2.156-2.109 5.391-.34 1.84 1.344 3.188 1.875 6.531.35 2.203 8.156.719 8.156.719s-.656-3.812.312-5.781c-1.06-1.221-1.525-4.558-.949-7.413l-1.035.287zm-4.006-7.988c1.875-.188 3.306.636 3.625 2.512.499 2.935-.802 4.155-1.971 4.592-1.06.396-2.553-.555-2.488-.547 0 0 .991 1.387 2.74.85 1.387-.426 1.859-1.793 2.218-1.96.464-.216.87-.458 1.032-.728.312-.531.406-1.281.25-1.969-.062-.274-.323-.538-.331-.808-.062-2.083-1.662-3.567-4.024-3.379-1.662.132-2.676 1.064-3.21 2.398.178-.101.836-.829 2.159-.961z"/><path fill="#55ACEE" d="M0 36V24h8.686c2.716 0 4.023-1.106 5.474-1.235C15.61 22.636 16.958 24 17.737 24c.78 0 1.09-.509 1.66-.509.295 0 .918.509 1.593.509s2.385-1.235 3.074-1.235c1.395 0 3.575 1.235 5.011 1.235H36v12H0z"/><circle fill="#FFD03F" cx="31.415" cy="2.972" r="2.75"/><path fill="#FFAD1F" d="M33.677 1.413c-.329-.014-.811.026-1.254.299l-.004.001c-.003.002-.005.005-.008.006-.328.206-.631.541-.827 1.078-.366-.007-.698-.044-.991-.109C31.225.868 32.577.81 33.185.885c-.14-.119-.291-.222-.453-.311-.774.042-1.879.409-2.435 2.035-.274-.088-.507-.206-.693-.353.008-.012.015-.024.02-.038C30.129.687 31.467.342 31.878.271c-.151-.026-.305-.047-.463-.047-.161 0-.317.021-.471.047-.569.281-1.229.799-1.575 1.755-.174-.215-.233-.416-.256-.549-.076.116-.141.239-.198.366.065.154.153.319.313.486.484.505 1.298.765 2.415.777.098.341.148.655.163.94-1.782.064-2.684-.668-3.121-1.257-.004.062-.019.122-.019.185 0 .096.019.188.028.281.525.549 1.419 1.1 2.905 1.1.068 0 .139-.003.209-.005-.011.295-.058.554-.125.778-1.464-.039-2.28-.518-2.735-.962.134.276.305.532.519.747.507.27 1.178.482 2.114.502-.048.116-.101.217-.152.307.122-.001.239-.02.357-.036.28-.573.51-1.479.132-2.732l-.03-.094c.139-.361.333-.613.549-.786.682 1.388.321 2.7-.016 3.452.145-.057.282-.129.414-.209.307-.84.521-2.095-.141-3.411.214-.111.435-.164.633-.185.001.002.001.005.003.007.655 1.021.369 2.297-.009 3.221.233-.225.421-.492.564-.787.221-.937.163-1.777-.209-2.45.073.004.129.012.18.019-.055-.109-.11-.218-.179-.318z"/></svg>