<svg xmlns="http://www.w3.org/2000/svg" viewBox="0 0 36 36"><path fill="#1C6399" d="M28.648 31.324c.294.944.323 1.49.512 2.473.139.722.656 1.525 1.252 1.381.472-.114.821-.587.675-1.614-.078-.55-.238-.916-.45-1.477-.122-.324-.297-.771-.401-1.202-.114-.47-.484-.963-1.091-.816-.45.107-.693.627-.497 1.255z"/><path fill="#3B94D9" d="M29.952 31.074c-.026-.017-.255-.137-.58-.031-.325.106-.434.3-.448.328-.013.028.339.801.394 1.019.057.232.254.882.263.909.016.056.076.087.134.07l.62-.179c.059-.017.092-.076.076-.132l-.254-.878c-.071-.243-.178-1.089-.205-1.106z"/><path fill="#CCD6DD" d="M29.463 33.264c.019 0 .037-.002.057-.008l.944-.277c.105-.031.166-.142.136-.248-.031-.106-.137-.167-.249-.136l-.944.277c-.105.031-.166.142-.136.248.026.087.105.144.192.144zm-.22-.747c.019 0 .037-.002.057-.008l.944-.277c.105-.031.166-.142.136-.248-.031-.106-.137-.167-.249-.136l-.944.277c-.105.031-.166.142-.136.248.026.088.105.144.192.144zm-.218-.747c.019 0 .037-.002.057-.008l.944-.277c.105-.031.166-.142.136-.248-.031-.106-.137-.167-.249-.136l-.944.277c-.105.031-.166.142-.136.248.026.088.105.144.192.144z"/><path fill="#1C6399" d="M21.01 30.366c.189.97.423 1.465.723 2.419.22.701.146 1.653-.446 1.809-.469.124-1.001-.127-1.36-1.101-.192-.521-.225-.919-.306-1.514-.046-.343-.105-.819-.218-1.249-.123-.468-.031-1.077.573-1.236.447-.116.908.226 1.034.872z"/><path fill="#3B94D9" d="M20.725 30.544c-.026-.018-.252-.143-.579-.045-.327.098-.441.289-.456.317-.014.028.319.809.369 1.028.051.233.233.888.241.915.015.056.074.089.132.073l.624-.164c.059-.016.094-.074.079-.13l-.233-.883c-.064-.245-.15-1.093-.177-1.111z"/><path fill="#CCD6DD" d="M20.18 32.705c.017 0 .034-.002.051-.007l.951-.25c.107-.028.171-.137.143-.244-.027-.106-.138-.172-.244-.142l-.951.25c-.107.028-.171.137-.143.244.023.09.104.149.193.149zm-.198-.752c.017 0 .034-.002.051-.007l.951-.251c.107-.028.171-.137.143-.244-.028-.106-.138-.172-.244-.142l-.951.251c-.107.028-.171.137-.143.244.023.09.104.149.193.149zm-.199-.753c.017 0 .034-.002.051-.007l.951-.251c.107-.028.171-.137.143-.244-.028-.106-.138-.172-.244-.142l-.951.251c-.107.028-.171.137-.143.244.023.09.105.149.193.149z"/><g fill="#7C533E"><path d="M20.093 24.067l2.664-1.668 1.149 2.757c.24.185.28.276 1.615 1.052 1.203.699 3.041 2.897 3.791 3.832.213.198.504.544.646 1.061-.566.137-1.023.266-1.023.266s-.171-.202-.466-.396c-1.438-.821-6.319-3.633-6.319-3.633-.394-.283-.64-.478-.78-.72l-.01.006c-.954-1.365-1.048-2.063-1.267-2.557zm-6.532-2.196l2.815 1.487c-.171.271-.513.854-.797 1.59-.083.213-.132.49.223.746.2.146.433.331.731.568.204.163.438.349.714.563.997.778 2.582 2.469 2.694 2.575.059.056.145.12.239.202.08.07.165.163.248.278.002.004.005.005.007.008l.002.005c.12.17.231.388.292.673-.087.019-.965.233-.965.233s-.164-.223-.464-.399c-.907-.513-5.677-3.215-6.356-3.703l-.062-.044c-.69-.495-.977-.699-.915-1.409.108-1.241 1.264-2.916 1.594-3.373zm8.389-11.505c-.03-.672.209-1.616 1.772-1.616 1.699 0 3.246.172 3.686.298.651.186.707-.9 1.002-1.952.295-1.056.577-2.448.546-2.676-.053-.384.461-3.239.505-3.282.072-.07.275.067.413.075.111.007.19.098.308.176.682.447.906 1.376.974 2 .042.386-.597 1.118-.661 1.525-.047.301-.154 4.237-.231 4.678-.095.539-.207 1.278-1.122 1.502-.916.223-4.298.317-5.205.406-1.039.102-1.947-.243-1.987-1.134zM2.177 12.341c.285-.018.335-.066.612-.059.406.01.393.062.577.059.399-.007.967-.038 1.387-.094.31-.041 1.968-.32 2.419-.413.614-.126 1.372-.353 2.786-.23v-.001c1.217-.728 3.875-1.827 4.754-2.147 1.009-.367 2.187 2.707.602 2.97-1.277.211-3.237 1.018-5.292 1.425l-.001-.032c-.023.016-.037.039-.062.052 0 0-1.491-.204-2.303-.259-1.124-.076-2.682-.406-3.092-.267-.518.176-1.068.34-1.715-.034-1.106-.639-2.212-.265-2.095-.794.026-.124.88-.142 1.423-.176zm15.996-7.515c.062-.564.59-1 1.148-.934.564.062.977.558.914 1.122l-.411 3.61.328.048s.391 1.056-1.422 1.056-1.621-.825-1.621-.825l.595-.113.469-3.964z"/><path d="M16.142 4.648c0-1.702 1.208-3.083 2.697-3.083s2.697 1.38 2.697 3.083-1.011 3.082-2.794 3.082c-.68 0-1.784-.136-2.258-.61-.565-.565-.342-1.547-.342-2.472z"/></g><path fill="#0B0200" d="M17.126.73c.718-.5 2.529-.678 3.757-.029 1.386.732 1.733 2.08 1.502 3.466-.212 1.274-.825 1.802-.825 1.802-.235.254-.86-.413-.502-.977.42-.66.302-1.439-.174-1.488-.336-.034-.697.162-.6.464.116.363-.033.512-.033.512s-.277.197-.555-.644c-.146-.441-1.189-.372-2.721-1.066-.181-.082-.642.433-.772 1.581-.028.248-.491-.516-.555-1.073-.105-.923.558-1.906 1.478-2.548z"/><g fill="#1C6399"><path d="M21.211 17.894s.826 2.083 1.101 2.948c.275.865.848 1.848.848 1.848s-1.729 1.586-3.066 1.546l-1.843-3.299-2.021 2.896s-1.959-1.333-3.167-1.542c0 0 1.709-3.03 2.062-3.698.354-.668.75-1.094.75-1.094l5.336.395z"/><path d="M20.089 24.411c-.062-.002-.118-.036-.148-.09l-1.707-3.055-1.86 2.667c-.055.077-.163.097-.242.044-.019-.013-1.941-1.313-3.099-1.513-.056-.01-.104-.047-.128-.098-.024-.052-.022-.111.006-.161.017-.03 1.712-3.036 2.061-3.694.359-.681.76-1.113.776-1.131.036-.038.085-.06.141-.055l5.335.394c.067.005.125.047.15.11.034.085.831 2.099 1.105 2.96.266.836.827 1.804.833 1.813.042.071.027.161-.033.217-.072.066-1.754 1.593-3.136 1.593l-.054-.001zm2.055-3.516c-.235-.74-.887-2.406-1.056-2.834l-5.139-.379c-.118.138-.407.499-.67.995-.296.561-1.557 2.802-1.948 3.496 1.036.27 2.407 1.13 2.853 1.421l1.923-2.756c.034-.049.092-.072.152-.074.06.003.115.037.144.09l1.793 3.209c1.054-.035 2.366-1.089 2.741-1.409-.164-.298-.57-1.059-.793-1.759z"/></g><path fill="#4289C1" d="M22.141 8.562c-.812 0-1.45.072-1.99.111 0 0-.077.847-1.387.886-1.309.039-1.656-.655-1.656-.655s-1.411-.055-2.143.407l-1.606.685s.915 1.338.821 2.719l.74-.212s-.032.025-.068.525c-.088 1.207.208 5.343.054 5.69 0 0 1.521.536 3.469.75 1.192.131 3.703.106 3.703.106-.31-1.295-.529-3.545-.578-4.652-.096-2.173.497-3.318.708-3.298.896.083 1.729-.125 1.729-.125s-.375-.688-.292-1.458c.083-.771.312-1.292.312-1.292s-1.004-.187-1.816-.187z"/><circle fill="#269" cx="28.5" cy="2.917" r="2.055"/><path fill="#7C533E" d="M29.282 1.82l.079-.014c-.134.021-.261-.069-.284-.203-.023-.135.068-.265.204-.289l.513-.092.825.901.25.922-.817.15c-.135.023-.265-.068-.288-.204-.022-.129.064-.248.189-.279l-.22.038c-.135.023-.265-.068-.288-.204-.023-.131.065-.253.194-.282l-.271.046c-.135.023-.265-.068-.288-.204s.067-.263.202-.286z"/></svg>