<svg xmlns="http://www.w3.org/2000/svg" viewBox="0 0 36 36"><path fill="#FFE51E" d="M18.004 3.979c4.104 0 10.947 2.053 10.947 10.947 0 8.895 0 10.948-2.053 10.948s-4.79-2.053-8.894-2.053c-4.106 0-6.785 2.053-8.896 2.053-2.287 0-2.053-8.211-2.053-10.948 0-8.895 6.844-10.947 10.949-10.947"/><path fill="#292F33" d="M31 36v-4.5c0-3.314-3.56-5.5-6.875-5.5h-12C8.812 26 5 28.186 5 31.5V36h26z"/><path fill="#F3D2A2" d="M14.5 26c1 1.982 2.792 2 3.5 2s2.512-.049 3.5-2v-3.591h-7V26z"/><path fill="#E2C196" d="M14.5 24.054c.975 1.102 2.185 1.4 3.499 1.4 1.315 0 2.526-.298 3.501-1.4v-1.051h-7v1.051z"/><path fill="#546170" d="M13.95 29.603l-3.863-.825L11.808 26l2.142.003z"/><path fill="#66757F" d="M16.078 36h-2.406l-4.485-7.9 2.621.831 1.571-1.983z"/><path fill="#546170" d="M22.05 29.603l3.863-.825L24.192 26l-2.141.003z"/><path fill="#66757F" d="M19.922 36h2.406l4.485-7.9-2.621.831-1.57-1.983z"/><path fill="#DFE7EC" d="M20.145 36l3.011-10L18 27l-5.156-1 3.011 10z"/><circle fill="#292F33" cx="18" cy="30.796" r=".625"/><circle fill="#292F33" cx="18" cy="33.396" r=".625"/><path fill="#292F33" d="M18 35.375c-.345 0-.625.28-.625.625h1.25c0-.345-.28-.625-.625-.625z"/><path fill="#F4F7F9" d="M14.294 24.872L18 26.966l-2.417 2.564-2.74-3.53zm7.412 0L18 26.966l2.417 2.564 2.74-3.53z"/><path fill="#292F33" d="M20.781 26.053c-.072-.043-.159-.043-.231-.003l-2.551 1.402-2.551-1.402c-.072-.04-.159-.039-.231.003-.071.042-.115.119-.115.201v2.928c0 .082.044.159.115.201.037.021.078.032.119.032.039 0 .077-.01.112-.029l2.551-1.402 2.551 1.402c.035.02.073.029.112.029.041 0 .082-.011.119-.032.07-.042.114-.119.114-.201v-2.928c.001-.082-.043-.159-.114-.201z"/><path fill="#F3D2A2" d="M9.793 14.627c0-5.834 3.676-10.563 8.211-10.563 4.533 0 8.209 4.729 8.209 10.563 0 5.833-3.676 10.285-8.209 10.285-4.535 0-8.211-4.452-8.211-10.285"/><path fill="#DF1F32" d="M18.004 22.452c-1.606 0-2.447-.794-2.537-.885-.268-.267-.268-.7 0-.967.266-.265.692-.267.961-.007.035.032.551.491 1.576.491 1.038 0 1.555-.473 1.576-.492.273-.256.703-.248.963.019.26.269.26.691-.004.955-.09.092-.929.886-2.535.886"/><path fill="#C1694F" d="M18.895 19.409h-1.69c-.233 0-.423-.189-.423-.423v-.153c0-.233.189-.424.423-.424h1.69c.233 0 .424.19.424.424v.153c0 .234-.191.423-.424.423"/><path fill="#662113" d="M21.432 16.796c-.465 0-.846-.381-.846-.847v-.845c0-.465.381-.846.846-.846.465 0 .846.381.846.846v.845c0 .466-.381.847-.846.847m-6.765 0c-.465 0-.846-.381-.846-.847v-.845c0-.465.381-.846.846-.846.466 0 .847.381.847.846v.845c0 .466-.381.847-.847.847"/><path fill="#FFE51E" d="M7.784 17.909c-.021-1-.044-.224-.044-.465 0-3.422 2.053.494 2.053-1.943 0-2.438 1.368-2.683 2.736-4.051.685-.685 2.053-2.026 2.053-2.026s3.421 2.067 6.158 2.067c2.736 0 5.474 1.375 5.474 4.112 0 2.736 2.053-1.584 2.053 1.837 0 .244-.022-.531-.04.469h.719c.006-2 .006-1.924.006-3.202C28.951 5.813 22.11 2.5 18.003 2.5c-4.105 0-10.947 3.257-10.947 12.152 0 .793-.02 1.257.008 3.257h.72z"/><path fill="#F3D2A2" d="M11.503 14.845c0 1.448-.734 2.622-1.639 2.622s-1.639-1.174-1.639-2.622.734-2.623 1.639-2.623 1.639 1.175 1.639 2.623m16.389 0c0 1.448-.733 2.622-1.639 2.622-.905 0-1.639-1.174-1.639-2.622s.733-2.623 1.639-2.623c.905 0 1.639 1.175 1.639 2.623"/></svg>