<svg xmlns="http://www.w3.org/2000/svg" viewBox="0 0 36 36"><path fill="#553788" d="M32.424 27.812s.59 1.186 1.777.594c1.186-.591.293 2.075.293 2.075s-2.887.123-4.931.019c-1.872-.095-.697-.915.488-1.506l2.373-1.182z"/><path fill="#F9CA55" d="M26.506 13.359c-.655 1.039-1.508 2.081-2.078 2.228-.428.111-1.28.317-1.847.663-.567.345-.483.7.255 1.063.737.364 1.703.209 2.208-.352.505-.562 1.834-1.453 2.656-1.981.82-.527-.702-2.401-1.194-1.621z"/><path fill="#F9CA55" d="M26.259 13.863c.287-.48.958-1.044.958-1.044l-.387-2.473 3.029.12s-.421 2.558-.549 3.137c-.127.579-1.305 1.332-2.087 1.666-.781.334-1.285-.869-.964-1.406zm5.241 9.949s-3.5-1.299-3.5-.375C28 24.36 31.25 26 32.438 28c.479.808 2.23 1.372 1.875-.375-.687-3.38-2.813-3.813-2.813-3.813z"/><path fill="#F9CA55" d="M28.99 23.447s1.303 1.517 2.135 1.115 2.445-3.768 2.875-5-.491-3.736-1.752-2.104c-1.261 1.634-3.258 5.989-3.258 5.989z"/><path fill="#553788" d="M35.101 17.623L29 20l3.855 2.08z"/><path fill="#FFDC5D" d="M27.999 20s-2 3-2 4 1 4 1 7 2 3 2 2 1.581-5.419 0-7c-1-1 2-4 2-4l-3-2z"/><path fill="#9266CC" d="M29.999 16l-2.624 5 3 1.938s5.56-5.017 5.56-7.017c0-2.797-2.497-3.733-2.497-3.733L29.999 16z"/><path fill="#FFDC5D" d="M26.995 5.054l1.014 2.162-2.562 1.035-1.057-1.77z"/><path fill="#FFDC5D" d="M27.474 4.856c-.178 1.588-1.526 2.277-2.88 2.804-1.291.502-2.363-1.756-2.536-3.333-.175-1.588 1.681-2.8 3.124-2.638s2.47 1.579 2.292 3.167zM22.5 13.438c-1.312.875-2.812 2.5-3.625 2.625-.988.152-1.688-.938-2.59.366-.569.822.34 1.696 2.215 1.696 1.079 0 4.091-1.626 5.25-2.438 1.25-.875 1.528-1.867 1.982-3.061.051-.134.106-.069.197.085L30.5 8.062c-2.521-1.908-3.59-.753-5.382.134-1.267.628-1.868 2.366-2.618 5.242z"/><path fill="#9266CC" d="M29.999 16c3.209-1.291 4.563-3.062 4.563-3.062C33 11.188 32.095 9.269 30.5 8.062c-.354-.267-.676-.469-.978-.625.125.229.106.47-.334.625-.952.336-2.056-.277-3.219-.318-.205.112-.416.228-.637.343.978.12 1.86.977 1.903 2.21.047 1.344-1.375 2.328-1.375 2.328s.26.536.849 1.042c.588.505 1.994.849 3.29 2.333zm-3.071 15.773s.705 1.226 1.931.52c1.226-.705.445 2.191.445 2.191s-3.417 1.151-5.348.63-.705-1.226.521-1.931l2.451-1.41z"/><path fill="#FFAC33" d="M26.815 1.812c-.495-.339-1.024-.538-1.609-.559-.768-.028-1.608.297-2.677 1.02-.982.665-.869 1.927-.534 2.131.034.008.063.032.098.034.023.001.042-.007.064-.007.485-.015.827-.447 1.373-.51.255-.029.551.015.937.237.059.034.109.096.154.167.224.35.295 1.038.295 1.038s.027-.785.056-1.06c.028-.256.29-.547.626-.157.292.338.125.986-.085 1.05-.162.049.09.448.485.757.721.563 1.378.333 1.378.333s.305.034.526-1.022c.221-1.056.049-2.675-1.087-3.452z"/><path fill="#FFAC33" d="M27.636 4.5s-.656-.872.631-1.65c1.061-.642 1.956.422 2.972.457.767.026 1.463-.307 1.784-.872 0 0-.264 1.132-.856 1.807-.77.878-2.088 1.215-2.808 1.193-1.126-.034-1.723-.935-1.723-.935z"/><path fill="#A0041E" d="M10.089 28.128s-.736 1.102-1.838.365c-1.102-.736-.553 2.021-.553 2.021s2.849.486 4.889.642c1.869.142.807-.819-.294-1.555l-2.204-1.473z"/><path fill="#DD2E44" d="M3.852 31.3s-.924 1.07-1.994.146c-1.07-.924-.852 2.068-.852 2.068s3.137 1.776 5.132 1.631c1.995-.146.925-1.07-.146-1.995l-2.14-1.85zM7.75 7.812c2.732-.311 3.692 1.405 3.692 1.405 1.12 3.658-1.341 4.022-1.341 4.022-.471.688-2.862 2.717-3.152 3.841-.29 1.123.145 1.123.906 1.667.297.212.883.543 1.51.919l-1.662 2.803-1.297-.406-3.532.93c-.29-.616-2.048-3.014-2.048-4.318 0-1.304.652-3.297 1.159-4.022.507-.725 1.531-3.522 1.775-4.312.472-1.522 2.069-2.31 3.99-2.529z"/><path fill="#FFDC5D" d="M6.219 21.562s-2.293.614-3.344 1.43c.266.627.649 1.389.396 1.86-.254.471-1.14 2.155-1.285 3.133-.145.978-.127 3.46-.127 3.46 1.104 1.069 1.993-.145 1.993-.145.019-1.505 1.213-4.111 1.793-4.836.358-.447 1.196-1.703 1.232-2.355.036-.652-.399-1.92-.399-1.92l-.259-.627z"/><path fill="#F9CA55" d="M11.667 21.479c-.245-.534-1.337-1.236-2.321-1.825-.864.629-1.653 2.407-1.814 2.783L8.875 23s-.326.697-.507 1.711c-.181 1.014-.254 3.696-.254 3.696C9.25 29.328 10 28.25 10 28.25c-.072-.833 1.065-3.937 1.5-4.625s.565-1.276.167-2.146z"/><path fill="#FFDC5D" d="M3.406 11.281c-.156 1.156 1 1.469 2 1.062 1-.406 1.812-1.094 2-2.156.121-.688-.219-2.281-1.25-2.062-1.388.294-2.507 1.358-2.75 3.156z"/><path fill="#F9CA55" d="M9.578 7.953c.969.125 1.922.484 2.234 1.422s.732 3.709.844 3.969c.094.219.281.469.625.312.344-.156 1.5-.375 2.094-.438.594-.062.594-.875 1.375-1.156.781-.281 1.656.25 1.688 1.031.031.781-.188 1.125-1.188 1.312s-1.625.469-1.938.625c-.312.156-3.125 1-3.531.906-.406-.094-1.68-2.698-1.68-2.698s.92-.537 1.039-1.52c.391-3.218-1.562-3.765-1.562-3.765z"/><path fill="#FFDC5D" d="M3.531 11.125c-.036.844.344 4 .375 4.5s3.969 2.25 4.344 2.406c.375.156 1.094 1.094 1.656 1.125.563.031 2.156-.25 1.625-1.125-.531-.875-1.438-1.406-2.125-1.344-.688.062-2.531-1.719-2.938-1.875-.406-.156-.562-.375-.406-.844.156-.469.75-2.625.812-3.312.064-.687-3.28-1-3.343.469z"/><path fill="#A0041E" d="M7.531 22.438c-.094.031-1.125-.375-1.125-.375l-.844-2.156 2.5 1.437s-.156.266-.281.516-.25.578-.25.578z"/><path fill="#FFDC5D" d="M9.031 7.719c.281.031.793 1.064.844 1.5.094.813-.906 1.156-1.469.188S7.594 8 7.125 7.906c0 0 .5-.125.969-.156s.937-.031.937-.031z"/><path fill="#FFDC5D" d="M8.583 6.208l-.875 1.667 1.761 1.344 1-1.875z"/><path fill="#FFDC5D" d="M10.928 3.075c-1.269-.154-2.442.899-2.617 2.35s.712 2.752 1.982 2.906c1.27.154 2.442-.899 2.617-2.35s-.712-2.752-1.982-2.906z"/><path fill="#FFAC33" d="M7.197 2.672c-1.037-.214-1.453.898-2.261 1.216-.609.24-1.265.171-1.684-.192 0 0 .535.835 1.204 1.21.87.487 2.027.382 2.6.159.896-.35 1.12-1.245 1.12-1.245s.279-.889-.979-1.148z"/><path fill="#FFAC33" d="M12.474 2.54c-.56-.5-2.086-.839-3.199-.412-1.257.482-1.692 1.594-1.638 2.8.032.715.426 1.744.678 1.821.387.118.733-.531.571-.569-.3-.071-.369-1.026-.084-1.244.3-.229.525.064.559.334.034.27.121 1.037.121 1.037s.068-.948.367-1.212c.298-.264 1.538-.047 2.218-1.264 0 0 .393.207.662.739.221.44.181 1.411.181 1.411s.319-.564.561-1.117c.276-.633-.279-1.682-.997-2.324z"/></svg>