<svg xmlns="http://www.w3.org/2000/svg" viewBox="0 0 36 36"><path fill="#3E721D" d="M32.424 27.812s.59 1.186 1.777.594c1.186-.591.293 2.075.293 2.075s-2.887.123-4.931.019c-1.872-.095-.697-.915.488-1.506l2.373-1.182z"/><path fill="#F9CA55" d="M26.506 13.359c-.655 1.039-1.508 2.081-2.078 2.228-.428.111-1.28.317-1.847.663-.567.345-.483.7.255 1.063.737.364 1.703.209 2.208-.352.505-.562 1.834-1.453 2.656-1.981.82-.527-.702-2.401-1.194-1.621z"/><path fill="#F9CA55" d="M26.259 13.863c.287-.48.958-1.044.958-1.044l-.387-2.473 3.029.12s-.421 2.558-.549 3.137c-.127.579-1.305 1.332-2.087 1.666-.781.334-1.285-.869-.964-1.406zm5.241 9.949s-3.5-1.299-3.5-.375C28 24.36 31.25 26 32.438 28c.479.808 2.23 1.372 1.875-.375-.687-3.38-2.813-3.813-2.813-3.813z"/><path fill="#F9CA55" d="M28.99 23.447s1.303 1.517 2.135 1.115 2.445-3.768 2.875-5-.491-3.736-1.752-2.104c-1.261 1.634-3.258 5.989-3.258 5.989z"/><path fill="#3E721D" d="M35.101 17.623L29 20l3.855 2.08z"/><path fill="#FFDC5D" d="M27.999 20s-2 3-2 4 1 4 1 7 2 3 2 2 1.581-5.419 0-7c-1-1 2-4 2-4l-3-2z"/><path fill="#77B255" d="M29.999 16l-2.624 5 3 1.938s5.56-5.017 5.56-7.017c0-2.797-2.497-3.733-2.497-3.733L29.999 16z"/><path fill="#FFDC5D" d="M26.995 5.054l1.014 2.162-2.562 1.035-1.057-1.77z"/><path fill="#FFDC5D" d="M27.474 4.856c-.178 1.588-1.526 2.277-2.88 2.804-1.291.502-2.363-1.756-2.536-3.333-.175-1.588 1.681-2.8 3.124-2.638s2.47 1.579 2.292 3.167zM22.5 13.438c-1.312.875-2.812 2.5-3.625 2.625-.988.152-1.688-.938-2.59.366-.569.822.34 1.696 2.215 1.696 1.079 0 4.091-1.626 5.25-2.438 1.25-.875 1.528-1.867 1.982-3.061.143-.377.518.561 1.393.998 1.45.725 2.438 1.438 3 2.312 2.688-1.438 4.438-3 4.438-3C33 11.188 32.095 9.269 30.5 8.062c-2.521-1.908-3.59-.753-5.382.134-1.267.628-1.868 2.366-2.618 5.242z"/><path fill="#77B255" d="M30.062 16.188c2.688-1.438 4.5-3.25 4.5-3.25C33 11.188 32.095 9.269 30.5 8.062c-.354-.267-.676-.469-.978-.625.125.229.106.47-.334.625-.952.336-2.056-.277-3.219-.318-.205.112-.416.228-.637.343.978.12 2.082 1.323 2.293 2.538.214 1.229-.213 2.361-.731 2.861.074.049.149.098.231.139 1.45.725 2.375 1.687 2.937 2.563zm-3.134 15.585s.705 1.226 1.931.52c1.226-.705.445 2.191.445 2.191s-3.417 1.151-5.348.63-.705-1.226.521-1.931l2.451-1.41z"/><path fill="#FFAC33" d="M22.529 2.273c1.834-1.344 3.143-1.244 4.286-.461 1.135.777 1.308 2.396 1.087 3.452-.221 1.056-.526 1.022-.526 1.022s-1.404.431-1.61-.886c-.065-.417.385-.677-.168-1.254-.356-.371-1.067-.119-1.028.451.039.57-.26.485-.26.485l-.97-1.446s-.743.013-1.103.722c-.226.445-1.31-.912.292-2.085z"/><path fill="#2A6797" d="M10.089 28.128s-.736 1.102-1.838.365c-1.102-.736-.553 2.021-.553 2.021s2.849.486 4.889.642c1.869.142.807-.819-.294-1.555l-2.204-1.473z"/><path fill="#4289C1" d="M3.852 31.3s-.924 1.07-1.994.146c-1.07-.924-.852 2.068-.852 2.068s3.137 1.776 5.132 1.631c1.995-.146.925-1.07-.146-1.995l-2.14-1.85z"/><path fill="#4289C1" d="M7.75 7.812c2.732-.311 3.272.58 3.692 1.405.978 1.92-.87 3.333-1.341 4.022-.471.688-2.862 2.717-3.152 3.841-.29 1.123.145 1.123.906 1.667.761.543 3.413 1.863 3.812 2.733.398.869.268 1.457-.167 2.146s-1.574 3.876-1.502 4.709c0 0-.978.833-1.884.073 0 0 .072-2.681.254-3.696.181-1.014.57-1.805.57-1.805l-2.531-.844s.507 1.394.471 2.046-.874 1.908-1.232 2.355c-.58.725-1.774 3.331-1.793 4.836 0 0-.89 1.214-1.994.146 0 0-.017-2.481.127-3.46.145-.978 1.268-3.08 1.522-3.551.254-.471-.374-.881-.664-1.497S.826 19.979.826 18.674c0-1.304.652-3.297 1.159-4.022.507-.725 1.531-3.522 1.775-4.312.472-1.521 2.069-2.309 3.99-2.528z"/><path fill="#FFDC5D" d="M6.219 21.562s-2.293.614-3.344 1.43c.266.627.649 1.389.396 1.86-.254.471-1.14 2.155-1.285 3.133-.145.978-.127 3.46-.127 3.46 1.104 1.069 1.993-.145 1.993-.145.019-1.505 1.213-4.111 1.793-4.836.358-.447 1.196-1.703 1.232-2.355.036-.652-.399-1.92-.399-1.92l-.259-.627z"/><path fill="#F9CA55" d="M11.667 21.479c-.245-.534-1.337-1.236-2.321-1.825-.864.629-1.653 2.407-1.814 2.783L8.875 23s-.326.697-.507 1.711c-.181 1.014-.254 3.696-.254 3.696.906.761 1.884-.073 1.884-.073-.072-.833 1.067-4.021 1.502-4.709s.565-1.276.167-2.146z"/><path fill="#FFDC5D" d="M3.406 11.281c-.156 1.156 1 1.469 2 1.062 1-.406 1.812-1.094 2-2.156.121-.688-.219-2.281-1.25-2.062-1.388.294-2.507 1.358-2.75 3.156z"/><path fill="#F9CA55" d="M9.812 7.844c.969.125 1.688.594 2 1.531s.732 3.709.844 3.969c.094.219.281.469.625.312.344-.156 1.5-.375 2.094-.438.594-.062.594-.875 1.375-1.156.781-.281 1.656.25 1.688 1.031.031.781-.188 1.125-1.188 1.312s-1.625.469-1.938.625c-.312.156-3.125 1-3.531.906-.406-.094-1.68-2.698-1.68-2.698l.774-1.052s-.497-.58-.219-1.344c.5-1.373-.844-2.998-.844-2.998z"/><path fill="#FFDC5D" d="M3.531 11.125c-.036.844.344 4 .375 4.5s3.969 2.25 4.344 2.406c.375.156 1.094 1.094 1.656 1.125.563.031 2.156-.25 1.625-1.125-.531-.875-1.438-1.406-2.125-1.344-.688.062-2.531-1.719-2.938-1.875-.406-.156-.562-.375-.406-.844.156-.469.75-2.625.812-3.312.064-.687-3.28-1-3.343.469z"/><path fill="#2A6797" d="M7.531 22.438c-.094.031-1.125-.375-1.125-.375l-.844-2.156 2.406 1.406s-.125.312-.25.562-.187.563-.187.563z"/><path fill="#FFDC5D" d="M9.031 7.719c.281.031.793 1.064.844 1.5.094.813-.906 1.156-1.469.188S7.594 8 7.125 7.906c0 0 .5-.125.969-.156s.937-.031.937-.031z"/><path fill="#FFDC5D" d="M8.34 5.804l-.965 2.102 2.094 1.313 1-1.875z"/><path fill="#FFDC5D" d="M7.86 5.606c.178 1.588 1.719 2.737 3.015 2.863 1.446.141 2.213-1.798 2.394-3.429.176-1.588-1.674-2.764-3.117-2.602-1.444.162-2.47 1.58-2.292 3.168z"/><path fill="#FFAC33" d="M13.024 3.023C11.5 1.75 9.881 1.779 8.738 2.562c-1.135.777-1.308 2.396-1.087 3.452.221 1.056.38.892.38.892s.344-.125.438-.562c.088-.413-.209-.768.343-1.344.356-.371.57.273.531.844s.312.25.312.25l.625-1.219s.622.584 1.812.188c.844-.281 1.188-.281 1.125.5.658-1.125.347-2.089-.193-2.54z"/></svg>