<svg xmlns="http://www.w3.org/2000/svg" viewBox="0 0 36 36"><path fill="#0B0200" d="M21.906 1.262c-2.02-.654-6.772-.475-7.96 1.069-3.089.059-6.713 2.851-7.188 6.535-.47 3.645.578 5.338.951 8.079.422 3.106 2.168 4.099 3.564 4.515C13.281 24.114 15.415 24 19 24c7 0 10.334-4.684 10.629-12.639.178-4.812-2.645-8.456-7.723-10.099z"/><path fill="#FA743E" d="M27 21H9c-2.209 0-4 1.791-4 4v11h26V25c0-2.209-1.791-4-4-4z"/><path fill="#7C533E" d="M25.904 11.734c-.677-.938-1.545-1.693-3.446-1.96.713.327 1.396 1.455 1.485 2.079.089.624.178 1.129-.386.505-2.261-2.499-4.723-1.515-7.163-3.041-1.703-1.067-2.222-2.247-2.222-2.247s-.208 1.574-2.792 3.178c-.749.465-1.643 1.501-2.139 3.03-.356 1.099-.246 2.079-.246 3.754 0 4.889 4.029 9 9 9s9-4.147 9-9c0-3.041-.318-4.229-1.091-5.298z"/><path fill="#DD551F" d="M10 27h1v9h-1z"/><path fill="#583529" d="M4.702 26.495l-.283-.059h-.511c0-.058.023-.112.035-.169-.348-.215-.546-.625-.458-1.048.112-.542.643-.89 1.186-.779l2.091.433h1.676c.863 0 1.562.7 1.562 1.564V28H6.253s-1.481-.669-1.551-1.505z"/><path fill="#7C533E" d="M0 25.655c0-.432.35-.782.781-.782l4.69.782h3.747c.432 0 .781.351.781.781V28H5L.781 26.437S0 26.087 0 25.655z"/><path fill="#FA743E" d="M4 36h6v-8H5z"/><path fill="#DD551F" d="M25 27h1v9h-1z"/><path fill="#583529" d="M31.298 26.495l.283-.059h.511c0-.058-.023-.112-.035-.169.348-.215.546-.625.458-1.048-.112-.542-.642-.89-1.185-.779l-2.091.433h-1.676c-.863 0-1.562.7-1.562 1.564V28h3.747c-.001 0 1.48-.669 1.55-1.505z"/><path fill="#7C533E" d="M36 25.655c0-.432-.35-.782-.781-.782l-4.691.782h-3.747c-.432 0-.781.351-.781.781V28h5l4.219-1.563s.781-.35.781-.782z"/><path fill="#FA743E" d="M32 36h-6v-8h5z"/><path fill="#3D2E24" d="M19 19.5h-2c-.276 0-.5-.224-.5-.5s.224-.5.5-.5h2c.276 0 .5.224.5.5s-.224.5-.5.5zm1.5 3.5H20c-.276 0-.5-.224-.5-.5s.224-.5.5-.5h.5c.276 0 .5.224.5.5s-.224.5-.5.5z"/><path d="M14 16c-.552 0-1-.448-1-1v-1c0-.552.448-1 1-1s1 .448 1 1v1c0 .552-.448 1-1 1zm8 0c-.553 0-1-.448-1-1v-1c0-.552.447-1 1-1s1 .448 1 1v1c0 .552-.447 1-1 1z"/></svg>