<svg xmlns="http://www.w3.org/2000/svg" viewBox="0 0 36 36"><path fill="#DD551F" d="M28.65 31.29c.257.905.272 1.425.428 2.365.115.69.588 1.466 1.158 1.343.452-.097.795-.538.68-1.52-.061-.525-.205-.877-.393-1.416-.108-.311-.264-.74-.353-1.153-.097-.45-.438-.928-1.018-.802-.43.091-.673.58-.502 1.183z"/><path fill="#C63900" d="M29.941 31.084c-.024-.017-.237-.141-.55-.054-.313.087-.425.267-.44.293-.014.027.289.776.332.985.044.223.205.849.212.876.013.054.069.086.125.072l.597-.144c.056-.014.09-.068.077-.122l-.205-.845c-.057-.235-.123-1.044-.148-1.061z"/><path fill="#CCD6DD" d="M29.385 33.14c.016 0 .031-.002.047-.006l.91-.22c.107-.026.174-.134.147-.241-.026-.107-.134-.173-.241-.147l-.91.22c-.107.026-.174.134-.147.241.022.091.103.153.194.153zm-.175-.72c.016 0 .031-.002.047-.006l.91-.22c.107-.026.174-.134.147-.241-.025-.107-.135-.174-.241-.147l-.91.22c-.107.026-.174.134-.147.241.022.092.103.153.194.153zm-.174-.72c.016 0 .031-.002.047-.006l.91-.22c.107-.026.174-.134.147-.241s-.134-.174-.241-.147l-.91.22c-.107.026-.174.134-.147.241.022.092.103.153.194.153z"/><path fill="#DD551F" d="M21.133 30.401c.18.923.402 1.394.688 2.302.21.667.139 1.573-.425 1.722-.447.118-.953-.12-1.294-1.047-.183-.496-.214-.875-.291-1.441-.044-.326-.1-.78-.207-1.188-.117-.445-.029-1.025.545-1.176.425-.113.864.213.984.828z"/><path fill="#C63900" d="M20.862 30.571c-.024-.017-.24-.136-.551-.043-.311.094-.42.275-.434.302-.013.027.304.77.351.978.049.222.221.845.229.871.014.054.071.084.126.07l.594-.156c.056-.015.089-.07.075-.124l-.221-.841c-.062-.233-.144-1.041-.169-1.057z"/><path fill="#CCD6DD" d="M20.343 32.637c.017 0 .034-.002.051-.007l.905-.239c.107-.028.171-.137.143-.244-.027-.106-.137-.172-.244-.142l-.905.239c-.107.028-.171.137-.143.244.023.089.104.149.193.149zm-.189-.716c.017 0 .034-.002.051-.007l.905-.239c.107-.028.171-.137.143-.244-.027-.106-.138-.172-.244-.142l-.905.239c-.107.028-.171.137-.143.244.023.089.104.149.193.149zm-.188-.716c.017 0 .034-.002.051-.007l.905-.239c.107-.028.171-.137.143-.244-.028-.106-.139-.173-.244-.142l-.905.239c-.107.028-.171.137-.143.244.023.089.104.149.193.149z"/><path d="M19.984 24.417l2.474-1.709 1.281 2.614c.24.185.28.276 1.615 1.052 1.203.699 3.46 3.091 4.21 4.025.213.198.259.341.393.701l-1.023.266s-.182-.34-.476-.533c-1.453-.618-6.23-3.343-6.23-3.343-.394-.283-.64-.478-.78-.72 0 0-1.245-1.86-1.464-2.353zm-6.078-2.65l2.515 1.534c-.171.271-.513.854-.797 1.59-.083.213-.154.445.201.701.2.146.59.466.889.704.204.163.438.349.714.563.997.778 2.994 2.961 3.16 3.124.166.164.283.377.344.662-.087.019-.965.233-.965.233s-.123-.307-.421-.487c-.929-.561-6.214-3.599-6.214-3.599-.69-.495-1.067-.722-1.005-1.432.108-1.241 1.249-3.137 1.579-3.593zm8.518-12.445c.268-.28.705-.422 1.299-.422 1.689 0 3.358.215 3.783.3.118.023.173.024.301-.052.318-.188.435-.697.583-1.341.049-.217.102-.445.165-.672.279-1.001.588-2.46.55-2.736-.053-.384.312-3.219.356-3.262.071-.07.274.067.413.075.111.007.19.098.308.176.682.447.78 1.376.849 2 .042.386-.62 1.095-.684 1.502-.021.133.012.946-.03 2.03-.044 1.135-.082 2.63-.124 2.869-.101.572-.285.962-1.087 1.159-.604.147-2.17.29-3.465.359-.65.035-1.848.115-2.147.144-.647.062-.771-.158-1.088-.432-.192-.167-.296-.389-.309-.66-.016-.443.092-.793.327-1.037zM2.393 12.423c.285-.016.335-.059.612-.053.406.009.393.056.577.053.399-.006.967-.034 1.387-.084.31-.037 1.968-.116 2.419-.198.614-.113 1.384-.261 2.798-.152.794-.409 1.869-.87 2.823-1.279.699-.3 1.359-.583 1.802-.8.223-.109.442-.165.652-.165.156 0 .308.031.449.092.325.141.568.43.686.813.043.142.162.638-.108 1.073-.216.347-.624.573-1.214.671-.618.102-1.111.368-1.979.636-.857.265-2.101.615-3.084.826 0 0-1.562-.168-2.374-.217-1.124-.068-2.651-.447-3.06-.324-.518.157-1.068.303-1.715-.03-1.106-.569-2.212-.236-2.095-.707.027-.109.881-.125 1.424-.155z" fill="#FFDC5D"/><g fill="#DD551F"><path d="M20.896 18.375c.318 1.396 2.009 4.729 2.009 4.729s-1.639 1.477-2.987 1.437L17.963 21.7l-1.735 2.446s-1.713-1.274-2.931-1.485c0 0 1.666-3.182 2.023-3.856.357-.674 1.057-1.547 1.057-1.547s4.271.028 4.519 1.117z"/><path d="M19.815 24.612l-1.853-2.693-1.632 2.3c-.02.027-.049.046-.082.051-.032.004-.066-.003-.094-.022-.018-.013-1.703-1.259-2.879-1.463-.039-.007-.073-.032-.091-.067-.018-.036-.017-.078.002-.113 0 0 1.666-3.183 2.022-3.857.358-.676 1.042-1.53 1.07-1.566.023-.03.06-.047.098-.047h.001c.447.003 4.377.062 4.64 1.214.31 1.365 1.981 4.667 1.998 4.7.026.051.014.111-.028.149-.067.061-1.646 1.471-3.016 1.471-.058-.001-.123-.008-.156-.057zm.959-6.209c-.163-.714-2.72-1.001-4.336-1.019-.149.19-.707.912-1.008 1.479-.311.587-1.613 3.076-1.945 3.709 1.05.248 2.342 1.132 2.715 1.398l1.662-2.343c.023-.033.062-.053.102-.053h.001c.041 0 .079.021.102.054l1.918 2.788c1.115-.008 2.444-1.073 2.765-1.345-.275-.545-1.684-3.383-1.976-4.668z"/></g><path fill="#FFDC5D" d="M29.282 1.82l.079-.014c-.134.021-.261-.069-.284-.203-.023-.135.068-.265.204-.289l.513-.092.825.901.25.922-.817.15c-.135.023-.265-.068-.288-.204-.022-.129.064-.248.189-.279l-.22.038c-.135.023-.265-.068-.288-.204-.023-.131.065-.253.194-.282l-.271.046c-.135.023-.265-.068-.288-.204s.067-.263.202-.286zm-7.901 2.909c.084 1.655-1.021 3.056-2.469 3.131-1.446.074-2.69-1.208-2.774-2.863-.086-1.654 1.02-3.056 2.468-3.13 1.447-.074 2.691 1.208 2.775 2.862z"/><path fill="#FFDC5D" d="M17.866 9.022l.254-3.952c.033-.552.525-1 1.071-.964.551.032.977.493.944 1.045l-.199 3.787 2.674-.039-.671 1.81c.004.261-5.995-.536-6.528-.38-.001 0 .282-1.386 2.455-1.307z"/><path fill="#FFAC33" d="M16.139 4.998s-.121-.757-.351-1.402c-.263-.737-.002-2.239 1.112-2.455.648-.745 2.424-.785 3.65-.215 1.385.643 1.789 1.935 1.633 3.294-.143 1.249-1.258 2.376-1.258 2.376.342-1.342-.589-3.012-1.36-3.025.287.242.406.615.386.862-.677-.908-2.046-.474-2.691-1.799 0 0-.092.198-.583.662-.445.419-.516 1.09-.538 1.702z"/><path fill="#FA743E" d="M22.043 8.722c-.549-.02-1.321.078-1.865.117 0 0-.078.855-1.399.894-1.321.039-1.671-.661-1.671-.661s-1.01.078-1.749.544c-.738.466-1.865.884-1.865.884s1.078 1.291.689 2.263l.852-.248s-.048.542.237 2.047c.209 1.102.049 3.754-.107 4.103 0 0 1.224.002 3.189.218 1.205.132 3.046.617 3.046.617.058-1.25-.31-3.028-.292-4.168.028-1.679.962-3.63 1.18-3.664.671-.103 1.208-.217 1.208-.217s-.17-1.098-.015-1.642c.155-.544.233-.933.233-.933s-1.121-.134-1.671-.154z"/><circle fill="#269" cx="28.5" cy="2.917" r="2.055"/><path fill="#FFDC5D" d="M29.282 1.82l.079-.014c-.134.021-.261-.069-.284-.203-.023-.135.068-.265.204-.289l.513-.092.825.901.25.922-.817.15c-.135.023-.265-.068-.288-.204-.022-.129.064-.248.189-.279l-.22.038c-.135.023-.265-.068-.288-.204-.023-.131.065-.253.194-.282l-.271.046c-.135.023-.265-.068-.288-.204s.067-.263.202-.286z"/></svg>