<svg xmlns="http://www.w3.org/2000/svg" viewBox="0 0 36 36"><path fill="#7C533E" d="M20.533 30.046c-.945-1.361-.746-3.135.443-3.963 1.189-.826 2.922-.395 3.867.967.946 1.359.747 3.134-.443 3.961s-2.922.395-3.867-.965z"/><path fill="#7C533E" d="M21.251 24.544l1.871 3.49c.264.486.082 1.127-.4 1.384-.484.264-1.09.097-1.354-.389l-1.75-3.22-2.281 1.586-.435-2.134c-.142-.22 5.374-2.71 5.745-3.124 0 0 .491 1.327-1.396 2.407z"/><path fill="#7C533E" d="M26.857 21.431l-4.341.033c-.516.004-.934.428-.931.943.004.515.43.935.945.93l4.342-.031c.516-.004.934-.429.931-.944-.005-.515-.43-.934-.946-.931z"/><path fill="#7C533E" d="M30.852 22.974c-.743-.149-3.178-1.455-3.772-1.485-.594-.03-.799.189-.965.679-.166.486.223.747 1.025 1.312.802.564 2.911.505 3.386.624.135.034.398.385.653.505.505.238.833-.071 1.129-.059.442.018.76.209.832 0l.149-.267c.119-.416-.471-.753-1.069-1.129-.305-.192-1.118-.13-1.368-.18z"/><path fill="#0B0200" d="M24.843 27.05s.503.579 1.039 1.005c.612.487 1.183 1.901.352 2.672-.157.975-1.644 1.946-2.986 2.11-1.516.185-2.541-.699-3.126-1.936-.538-1.137-.186-2.682-.186-2.682.418 1.32 2.09 2.247 2.753 1.851-.371-.054-.67-.308-.784-.528 1.054.413 1.987-.678 3.235.107 0 0-.027-.217.145-.87.156-.591-.138-1.198-.442-1.729z"/><path fill="#7C533E" d="M21.078 8.847c-.168.504-.729.966-.91 1.143-.822.803-2.415 2.375-3.194 2.938l2.622 2.15c.571-.547 1.504-1.719 2.309-2.726.48-.6.976-.907 1.274-1.816 0 0 .668-3.441 1.67-6.022.32-.825-1.304-1.405-1.67-.718-.363.681-.824 1.654-1.063 2.295-.162.439-.962 2.528-1.038 2.756z"/><path fill="#DD551F" d="M23.011 2.446c-.055.164-.202.758-.203.984l-.24 1.347c-.014.067.032.132.099.142.197.031.834-.084 1.226.272.262.238.292.663.443.728.048.02.103-.005.12-.054 0 0 .047-.246.11-.456.13-.166.283-.5.519-.634.14-.024.291-.151.66-.174.219-.014 1.224-.085 1.224-.085.255-.013.335-.093.472-.102.282-.02 1.02.002 1.26-.017.239-.018.375-.165.423-.292.048-.126.035-.208.035-.208s-.233-.403-1.596-.956c-.8-.324-4.189-1.074-4.189-1.074l-.127.1c-.126.1-.178.307-.236.479z"/><path fill="#CCD6DD" d="M25.017 4.972c-.007.028-.021.055-.041.078-.065.072-.177.078-.249.012l-.229-.208c-.073-.066-.076-.179-.012-.249.066-.072.177-.078.249-.012l.229.208c.049.044.067.11.053.171z"/><path fill="#FA743E" d="M25.098 2.587c-.133.188-.556.591-.925.646-.332.05-1.174-.059-1.334-.08.036-.26.144-.649.185-.772.055-.162.131-.375.255-.467.013-.009 1.365.52 1.819.673z"/><path fill="#CCD6DD" d="M23.26 1.913s.14.035.221.123c.081.089.308.19.481.248.173.058.82.288 1.291.379.471.091 1.349.142 1.633.201.284.059.72.167 1.031.302.31.135.585.266.751.357.215.116.382.245.491.374 0 0 .061-.375-.419-.784-.38-.323-.765-.544-1.158-.684-.03-.011-1.085-.357-1.613-.528-.386-.124-1.002-.327-1.002-.327-.728-.245-1.103-.35-1.253-.351-.027 0-.133-.02-.261.035-.084.035-.286.624-.193.655zm2.321 2.786c-.015.064-.065.116-.134.132-.095.021-.189-.039-.21-.134l-.067-.302c-.02-.097.039-.189.134-.211.095-.021.189.039.21.134l.067.302c.007.027.006.054 0 .079zm.618-.098c-.017.073-.08.13-.159.136-.097.006-.182-.067-.188-.164l-.023-.326c-.007-.101.066-.182.164-.189.097-.006.182.067.188.164l.023.326c0 .019-.001.036-.005.053zm.628-.061c-.019.081-.094.14-.18.135-.097-.004-.172-.087-.167-.185l.015-.299c.007-.104.088-.172.185-.167.097.004.172.087.167.185l-.015.299c-.001.012-.002.022-.005.032z"/><path fill="#7C533E" d="M9.959 9.913c.528.627 2.12 1.746 2.296 1.929.858.887 1.814 1.427 2.462 2.275l-2.361 2.434c-.63-.478-1.263-1.252-2.178-2.161-.545-.541-1.597-2.568-2.24-3.237 0 0-1.501-1.862-2.791-4.312-.412-.784.992-1.416 1.578-.904.627.548 1.394 1.44 1.978 2.103.308.35 1.101 1.689 1.256 1.873z"/><path fill="#CCD6DD" d="M3.126 1.742c.72-.945 2.329-.518 2.762.695.291.816.305 2.096.709 2.499.403.404.557 1.034.564 1.244.007.21-.226.356-.443.153 0 0 .587.633-.079.709-.665.075-.213.506-.649.398-.436-.109-.371-.43-.371-.43s.003.777-.318.443c-.321-.335-1.899-2.64-2.247-3.716-.228-.706-.453-1.306.072-1.995z"/><path fill="#DD551F" d="M3.37 1.971c.68-.974 2.206-.218 2.442.615.236.833.295 1.916.699 2.319.403.403.945 1.181.951 1.391.007.21-.308.354-.525.151 0 0 .702.676.036.751-.666.075-.492.662-.928.554-.436-.108-.512-.774-.512-.774s.003.777-.318.443c-.321-.335-1.64-2.454-1.968-3.536s-.197-1.456.123-1.914z"/><path fill="#CCD6DD" d="M5.26 6.328c-.044.049-.058.12-.032.185.037.09.14.133.23.096l1.16-.595c.091-.039.133-.14.096-.231-.037-.09-.14-.133-.23-.096l-1.16.595c-.025.012-.046.027-.064.046zm-.395-.779c-.044.049-.058.12-.032.185.037.09.14.133.23.096l1.09-.48c.091-.039.133-.14.096-.231-.037-.09-.14-.133-.23-.096l-1.09.48c-.025.012-.047.027-.064.046zm-.318-.737c-.059.047-.083.128-.055.202.036.091.138.136.228.1l.974-.415c.094-.037.136-.137.101-.229-.035-.09-.137-.135-.228-.099l-.974.415c-.018.006-.033.015-.046.026zm-.244-.697c-.073.041-.107.13-.079.211.032.092.133.14.224.108l.934-.349c.098-.036.14-.133.108-.225-.032-.092-.133-.14-.224-.108l-.934.35c-.011.003-.02.008-.029.013z"/><path fill="#DD551F" d="M14.549 19.12s-1.718-1.063-2.419-1.602c-.699-.539-2.317-2.94-2.317-2.94s1.985-2.051 3.074-2.762l2.584 1.916 2.391-2.222s2.49.991 3.178 2.139c0 0-1.129 1.842-1.485 2.436-.017.458.008 1.039.238 1.069l-5.244 1.966z"/><path fill="#7C533E" d="M14.593 29.239l1.825-3.94c.215-.468.774-.673 1.242-.458.467.217.674.778.457 1.245l-1.822 3.941c-.217.468-.776.674-1.245.457-.467-.216-.672-.776-.457-1.245z"/><path fill="#7C533E" d="M14.07 34.202s.297-3.515.386-4.188c.089-.673.599-1.197 1.114-1.146.511.049.75.431.817 1.294.066.863-.959 3.206-.867 4.121.03.297.934.551.683.743-.111.085-.853.163-1.01.148l-.564.03c-.252-.025-.888.031-1.04-.149-.158-.187.454-.592.481-.853z"/><path fill="#FA743E" d="M18.425 26.836s.568-.446.979-.776c0 0-.409-.721.615-1.478 1.025-.758 1.688-.397 1.688-.397s.231.09 1.038-.153c.383-.115 1.147-.307 1.147-.307s-.041-1.617-.267-2.601l-1.951-.077s-.631-1.372-1.191-1.978c-.834-.904-.709-2.434-.778-2.798 0 0-2.408.956-4.149 1.446-1.348.38-3.291.024-3.291.024.481.655 1.768 1.946 2.346 2.855.687 1.081 2.212 4.245 1.775 4.731-.438.487-1.061 1.535-1.061 1.535s.615.449 1.032.802c.584.493 1.072.613 1.072.613s.644-1.102.996-1.441z"/></svg>