<svg xmlns="http://www.w3.org/2000/svg" viewBox="0 0 36 36"><path fill="#DD551F" d="M32.424 27.812s.59 1.186 1.777.594c1.186-.591.293 2.075.293 2.075s-2.887.123-4.931.019c-1.872-.095-.697-.915.488-1.506l2.373-1.182z"/><path fill="#F9CA55" d="M26.506 13.359c-.655 1.039-1.508 2.081-2.078 2.228-.428.111-1.28.317-1.847.663-.567.345-.483.7.255 1.063.737.364 1.703.209 2.208-.352.505-.562 1.834-1.453 2.656-1.981.82-.527-.702-2.401-1.194-1.621z"/><path fill="#F9CA55" d="M26.259 13.863c.287-.48.958-1.044.958-1.044l-.387-2.473 3.029.12s-.421 2.558-.549 3.137c-.127.579-1.305 1.332-2.087 1.666-.781.334-1.285-.869-.964-1.406zm5.241 9.949s-3.5-1.299-3.5-.375C28 24.36 31.25 26 32.438 28c.479.808 2.297 1.357 1.875-.375-.692-2.839-2.813-3.813-2.813-3.813z"/><path fill="#F9CA55" d="M28.99 23.447s1.303 1.517 2.135 1.115 2.445-3.768 2.875-5-.491-3.736-1.752-2.104c-1.261 1.634-3.258 5.989-3.258 5.989z"/><path fill="#DD551F" d="M35.101 17.623L29 20l3.855 2.08z"/><path fill="#FFDC5D" d="M27.999 20s-2 3-2 4 1 4 1 7 2 3 2 2 .514-5.462-.27-7.061c-.395-.805 2.27-3.939 2.27-3.939l-3-2z"/><path fill="#FA743E" d="M29.999 16l-2.624 5 3 1.938s5.56-5.017 5.56-7.017c0-2.797-2.658-3.343-2.658-3.343L29.999 16z"/><path fill="#FFDC5D" d="M26.995 5.054l1.014 2.162-2.562 1.035-1.057-1.77z"/><path fill="#FFDC5D" d="M27.474 4.856c-.178 1.588-1.526 2.277-2.88 2.804-1.291.502-2.363-1.756-2.536-3.333-.175-1.588 1.681-2.8 3.124-2.638s2.47 1.579 2.292 3.167zm-4.896 8.825c-1.312.875-2.89 2.257-3.703 2.382-.988.152-1.688-.938-2.59.366-.569.822.34 1.696 2.215 1.696 1.079 0 4.091-1.626 5.25-2.438 1.25-.875 1.528-1.867 1.982-3.061.143-.377.536.645 1.455.98 1.666.606 2.376 1.456 2.938 2.331 2.688-1.438 3.982-2.766 3.982-2.766-2.056-1.83-2.012-3.902-3.607-5.109-2.521-1.908-3.59-.753-5.382.134-1.267.628-1.79 2.61-2.54 5.485z"/><path fill="#FA743E" d="M30.062 16.188c2.688-1.438 4.754-2.821 4.754-2.821-2.557-1.915-2.721-4.098-4.316-5.304-.354-.267-.676-.469-.978-.625.125.229.106.47-.334.625-.952.336-2.056-.277-3.219-.318-.205.112-.416.228-.637.343.978.12 2.082 1.323 2.293 2.538.214 1.229-.213 2.361-.731 2.861.074.049.144.108.231.139 1.666.605 2.519 1.458 2.937 2.562zm-3.134 15.585s.705 1.226 1.931.52c1.226-.705.445 2.191.445 2.191s-3.417 1.151-5.348.63-.705-1.226.521-1.931l2.451-1.41z"/><path fill="#FFAC33" d="M27.084 1.913c-.832-.764-3.197-1.124-4.382.277-1.005.02-1.126.995-1.013 1.532.128.608.864.652 1.109 1.231.143-.237.349-.725.267-.939.394.256.223 1.436 1.381 1.586 1.385.18 1.365 1.503 1.365 1.503s1.153-.501 1.689-1.383c.716-1.178.501-2.964-.416-3.807z"/><path fill="#66757F" d="M10.089 28.128s-.736 1.102-1.838.365c-1.102-.736-.553 2.021-.553 2.021s2.849.486 4.889.642c1.869.142.807-.819-.294-1.555l-2.204-1.473z"/><path fill="#99AAB5" d="M3.852 31.3s-.924 1.07-1.994.146c-1.07-.924-.852 2.068-.852 2.068s3.137 1.776 5.132 1.631c1.995-.146.925-1.07-.146-1.995l-2.14-1.85z"/><path fill="#99AAB5" d="M7.125 7.906c1.472-.243 3.645.766 4.065 1.591.978 1.92-.577 3.13-1.089 3.742-.535.64-2.895 2.102-3.152 3.841-.169 1.148.145 1.123.906 1.667.761.543 3.413 1.863 3.812 2.733.398.869.268 1.457-.167 2.146s-1.574 3.876-1.502 4.709c0 0-.978.833-1.884.073 0 0 .208-2.345.389-3.359.181-1.014.699-2.157.699-2.157l-2.796-.828s.507 1.394.471 2.046-.874 1.908-1.232 2.355c-.58.725-1.774 3.331-1.793 4.836 0 0-.89 1.214-1.994.146 0 0 .311-2.655.456-3.633.145-.978.94-2.906 1.193-3.377.254-.471-.374-.881-.664-1.497S.825 19.981.825 18.676c0-1.304.304-2.323 1.031-3.232.986-1.231 1.659-4.312 1.903-5.102.473-1.523 1.609-2.146 3.366-2.436z"/><path fill="#FFDC5D" d="M6.219 21.562s-2.293.614-3.344 1.43c.266.627.843 1.01.633 1.443-.234.481-1.049 2.399-1.193 3.377-.145.978-.456 3.633-.456 3.633 1.104 1.069 1.993-.145 1.993-.145.019-1.505 1.213-4.111 1.793-4.836.358-.447 1.196-1.703 1.232-2.355.036-.652-.399-1.92-.399-1.92l-.259-.627z"/><path fill="#F9CA55" d="M11.667 21.479c-.245-.534-1.337-1.236-2.321-1.825-.864.629-1.653 2.407-1.814 2.783l1.608.547s-.455 1.049-.636 2.063c-.181 1.014-.389 3.359-.389 3.359.906.761 1.884-.073 1.884-.073-.072-.833 1.067-4.021 1.502-4.709s.564-1.275.166-2.145z"/><path fill="#FFDC5D" d="M3.406 11.281c-.156 1.156 1 1.469 2 1.062 1-.406 1.812-1.094 2-2.156.121-.688-.219-2.281-1.25-2.062-1.388.294-2.507 1.358-2.75 3.156z"/><path fill="#F9CA55" d="M9.305 8.162c.969.125 2.021.895 2.334 1.833s.713 3.033.825 3.294c.094.219.133.578.481.431.438-.184 1.837-.439 2.431-.501.594-.062.594-.875 1.375-1.156.781-.281 1.656.25 1.688 1.031.031.781-.188 1.125-1.188 1.312s-1.625.469-1.938.625c-.312.156-3.125 1-3.531.906-.406-.094-1.68-2.698-1.68-2.698s.896-.726.703-2.682c-.144-1.456-1.5-2.395-1.5-2.395z"/><path fill="#FFDC5D" d="M3.531 11.125c-.036.844.344 4 .375 4.5s3.969 2.25 4.344 2.406c.375.156 1.094 1.094 1.656 1.125.563.031 2.156-.25 1.625-1.125-.531-.875-1.438-1.406-2.125-1.344-.688.062-2.221-1.397-3.04-1.741-.401-.168-.42-.498-.303-.978.136-.56.427-2.174.49-2.861.062-.687-2.959-1.451-3.022.018z"/><path fill="#66757F" d="M7.531 22.438c-.094.031-1.125-.375-1.125-.375l-.844-2.156 2.406 1.406s-.125.312-.25.562-.187.563-.187.563z"/><path fill="#FFDC5D" d="M9.031 7.719c.281.031.793 1.064.844 1.5.094.813-.906 1.156-1.469.188S7.594 8 7.125 7.906c0 0 .5-.125.969-.156s.937-.031.937-.031z"/><path fill="#FFDC5D" d="M8.34 5.804l-.965 2.102 2.094 1.313 1-1.875z"/><path fill="#FFDC5D" d="M7.86 5.606c.178 1.588 1.719 2.737 3.015 2.863 1.446.141 2.213-1.798 2.394-3.429.176-1.588-1.674-2.764-3.117-2.602-1.444.162-2.47 1.58-2.292 3.168z"/><path fill="#FFAC33" d="M8.088 2.479c.828-.769 3.197-1.124 4.382.277 1.005.02 1.224 1.614 1.039 2.131-.148.412-1.359-.872-2.161.356-.143-.237-.416-.744-.334-.958-.394.256-.19 1.085-1.604 1.381-1.368.287-1.441 1.69-1.441 1.69s-2.146-2.772.119-4.877z"/></svg>