<svg xmlns="http://www.w3.org/2000/svg" viewBox="0 0 36 36"><path fill="#66757F" d="M21 25c-2.556 0-4.062-3.128-5.161-4.676-.412-.58-1.266-.58-1.677 0C13.062 21.872 11.557 25 9 25c-4.551 0-7.923-3.033-8.784-7.619C-.804 11.955 3.589 7 9.11 7h11.78c5.521 0 9.914 4.955 8.894 10.381C28.923 21.967 25.551 25 21 25z"/><path fill="#292F33" d="M18 22l-3-3-3 3-2 2c2 0 3 3 5 3s3-3 5-3l-2-2z"/><path fill="#4E9322" d="M21 25c-2.556 0-4.062-3.128-5.161-4.676-.412-.58-1.266-.58-1.677 0C13.062 21.872 11.557 25 9 25c-4.551 0-7.923-3.033-8.784-7.619C-.804 11.955 3.589 7 9.11 7h11.78c5.521 0 9.914 4.955 8.894 10.381C28.923 21.967 25.551 25 21 25z"/><path fill="#88C9F9" d="M21 23c-1.041 0-2.113-1.664-2.896-2.88-.226-.35-.437-.676-.635-.954-.568-.8-1.491-1.277-2.469-1.277-.979 0-1.901.477-2.469 1.275-.199.281-.41.606-.635.957C11.113 21.336 10.042 23 9 23c-3.512 0-6.125-2.295-6.819-5.988-.365-1.941.147-3.87 1.442-5.431C4.984 9.941 6.984 9 9.11 9h11.78c2.126 0 4.126.941 5.486 2.581 1.295 1.561 1.808 3.49 1.442 5.431C27.125 20.706 24.512 23 21 23z"/><path fill="#292F33" d="M26.761 11.262C25.305 9.507 23.165 8.5 20.89 8.5H9.11c-2.275 0-4.415 1.007-5.871 2.762-1.392 1.678-1.942 3.752-1.549 5.842C2.431 21.049 5.232 23.5 9 23.5c1.314 0 2.424-1.723 3.316-3.108.221-.344.428-.663.622-.938.475-.667 1.245-1.065 2.062-1.065s1.587.398 2.062 1.067c.194.272.401.593.622.935.892 1.385 2.002 3.109 3.316 3.109 3.769 0 6.569-2.45 7.31-6.396.393-2.089-.158-4.164-1.549-5.842zm.566 5.658c-.646 3.442-3.07 5.58-6.327 5.58-.769 0-1.837-1.659-2.476-2.651-.23-.356-.445-.688-.647-.972-.662-.931-1.737-1.487-2.877-1.487-1.14 0-2.215.555-2.877 1.486-.203.287-.417.618-.648.976-.639.99-1.706 2.648-2.475 2.648-3.256 0-5.681-2.139-6.328-5.581-.336-1.792.138-3.574 1.336-5.019 1.266-1.525 3.125-2.4 5.102-2.4h11.78c1.977 0 3.836.875 5.102 2.4 1.197 1.445 1.672 3.228 1.335 5.02z"/><path fill="#BBDDF5" d="M12.495 9.505l-8.977 8.977c.436 1.29 1.091 2.313 1.996 3.004L17.495 9.505h-5z"/><path fill="#3C96CE" d="M15 15c-1.837 0-3.674 4.215-5.511 7.227.827-.557 1.732-1.831 2.286-2.692.209-.325.405-.627.589-.888.527-.741 1.515-1.277 2.635-1.277 1.315 0 2.352.719 2.879 1.461.184.258.38.561.589.885.561.871 1.127 2.044 2.058 2.537C18.685 19.24 16.842 15 15 15z"/><path fill="#F4900C" d="M26 36c-3.557 0-6.874-1.914-8.659-4.995-.553-.956-.227-2.179.729-2.732.958-.554 2.18-.228 2.733.729C21.874 30.851 23.865 32 26 32c3.309 0 6-2.691 6-6V2c0-1.104.896-2 2-2s2 .896 2 2v24c0 5.514-4.486 10-10 10z"/><path fill="#292F33" d="M21.586 30.146l-3.732 1.44c-1.026.396-2.19-.12-2.586-1.146-.396-1.026.12-2.19 1.146-2.586l3.732-1.44c1.026-.396 2.19.12 2.586 1.146.396 1.027-.12 2.19-1.146 2.586z"/><path fill="#FFCC4D" d="M32 5h4v4h-4zm0 7h4v4h-4z"/></svg>