<svg xmlns="http://www.w3.org/2000/svg" viewBox="0 0 36 36"><path fill="#55ACEE" d="M18 8l-7-8H0l14 17 11.521-4.75z"/><path fill="#3B88C3" d="M25 0l-7 8 5.39 7.312 1.227-1.489L36 0z"/><path fill="#FF8A3B" d="M23.205 16.026c.08-.217.131-.448.131-.693 0-1.104-.896-2-2-2h-6.667c-1.105 0-2 .896-2 2 0 .245.05.476.131.693-3.258 1.826-5.464 5.307-5.464 9.307C7.335 31.224 12.111 36 18.002 36s10.667-4.776 10.667-10.667c0-4-2.206-7.481-5.464-9.307z"/><path fill="#7C4119" d="M14.121 29.35l1.178-1.178c.13-.132.318-.15.467-.038 0 0 1.159.861 2.056.861.805 0 1.628-.673 1.628-1.496s-.842-1.514-2.225-1.514h-.639c-.186 0-.354-.168-.354-.355v-1.552c0-.206.168-.355.354-.355h.639c1.309 0 2-.635 2-1.439 0-.805-.691-1.402-1.496-1.402-.823 0-1.346.43-1.626.747-.132.15-.355.15-.504.02l-1.141-1.122c-.151-.132-.132-.355 0-.486 0 0 1.533-1.646 3.57-1.646 2.169 0 4.039 1.328 4.039 3.422 0 1.439-1.085 2.505-1.926 2.897v.057c.879.374 2.262 1.533 2.262 3.141 0 2.038-1.776 3.572-4.357 3.572-2.354 0-3.552-1.16-3.944-1.664-.113-.134-.093-.34.019-.47z"/></svg>