<svg xmlns="http://www.w3.org/2000/svg" viewBox="0 0 36 36"><path fill="#292F33" d="M33.772 12.827l-.125-.388-.993.343.756-2.274-.389.126-.003-.009-1.867.6.95-2.982.214-1.222-.805-.097-3.524 1.135 1.176-3.709-.163-.591-1.218.186-2.961.947.572-1.988-.023-.007.127-.423-2.247.7.213-.686-.388-.126-.299.959-2.425.756-.134.431 2.421-.745-.634 2.036-2.925.941.125.388 2.643-.851-.605 1.863-2.627.848.125.388 2.347-.757-.604 1.861-3.137 1.013.125.388.519-.167-.608 1.872-2.284.739.125.388 2.003-.648-.61 1.879-2.36.766.126.388 2.078-.675-.604 1.86-1.6.52.126.388 1.319-.428-.759 2.34 2.34-.759-.428 1.319.388.126.519-1.601 1.86-.604-.674 2.078.389.126.766-2.36 1.878-.61-.648 2.003.389.125.739-2.284 2.349-.762.755-2.338 1.861-.604-.757 2.347.389.125.848-2.627 1.862-.604-.851 2.644.389.125.941-2.924 1.837-.632-.782 2.324.431-.178.761-2.291 1.28-.44zm-3.101-1.447l-1.86.604.601-1.864 1.858-.6-.599 1.86zm-9.532 3.523l-.604 1.86-1.86.604.604-1.86 1.86-.604zm-1.704.124l.609-1.876 1.859-.602-.608 1.874-1.86.604zm2.184-.28l1.872-.608-.601 1.86-1.875.608.604-1.86zm.156-.479l.608-1.873 1.869-.604-.605 1.87-1.872.607zm3.389-5.3l-1.865.602.604-1.861 1.862-.601-.601 1.86zm.325.324l1.862-.601-.602 1.863-1.864.603.604-1.865zm-.479.154l-.603 1.866-1.868.604.606-1.868 1.865-.602zm-.279 2.189l1.865-.603-.603 1.867-1.867.606.605-1.87zm2.343-.758l1.859-.602-.602 1.864-1.86.604.603-1.866zm4.948-3.694l-.598 1.859-1.857.601.6-1.861 1.855-.599zm-2.334.753l-.601 1.861-1.859.602.601-1.863 1.859-.6zm-2.183.277l-1.862.601.602-1.86 1.861-.6-.601 1.859zm1.354-4.194l-.599 1.856-1.86.6.601-1.858 1.858-.598zm-2.337.752l-.601 1.859-1.862.601.604-1.861 1.859-.599zm-3.413-1.153l1.81-.557-.58 1.986-1.859.598.629-2.027zm-.784 2.505l1.858-.598-.604 1.861-1.859.6.605-1.863zm-.76 2.341l1.859-.6-.604 1.861-1.859.6.604-1.861zm-.759 2.339l1.859-.6-.606 1.868-1.859.602.606-1.87zm-2.338.755l1.859-.6-.607 1.87-1.859.602.607-1.872zm-.763 2.35l1.859-.601-.609 1.876-1.86.604.61-1.879zm-.765 2.358l1.86-.604-.604 1.86-1.86.604.604-1.86zm.497 3.596l-1.861.604.604-1.861 1.86-.604-.603 1.861zm2.339-.759l-1.86.604.604-1.861 1.86-.604-.604 1.861zm2.358-.766l-1.878.609.604-1.861 1.875-.609-.601 1.861zm2.349-.762l-1.87.607.602-1.86 1.869-.606-.601 1.859zm.755-2.338l-1.868.606.602-1.86 1.867-.606-.601 1.86zm2.34-.76l-1.86.604.6-1.859 1.86-.604-.6 1.859zm2.341-.76l-1.862.604.6-1.859 1.86-.604-.598 1.859zm.479-.155l.598-1.859 1.858-.597-.61 1.818-1.846.638z"/><path fill="#269" d="M1.277 35.899c-.298 0-.596-.114-.824-.341-.455-.455-.455-1.192 0-1.647l11.678-11.678c.455-.454 1.192-.454 1.647 0 .455.455.455 1.192 0 1.647L2.101 35.559c-.228.227-.526.34-.824.34z"/><path fill="#292F33" d="M27.783 17.28l-1.473-.229c.331-2.125-.304-4.169-1.741-5.608-1.438-1.437-3.478-2.076-5.608-1.742l-.229-1.472c2.598-.405 5.112.382 6.89 2.16 1.778 1.779 2.565 4.291 2.161 6.891z"/><path fill="#292F33" d="M30.558 16.604l-1.477-.194c.351-2.659-.515-5.249-2.372-7.106-1.857-1.858-4.452-2.722-7.105-2.373l-.195-1.477c3.126-.412 6.167.607 8.354 2.796 2.187 2.188 3.207 5.232 2.795 8.354z"/><circle fill="#F4900C" cx="24.937" cy="28.875" r="3.4"/><path fill="#55ACEE" d="M32.53 3.481c-3.026-3.025-7.951-5.17-11.871-1.25-1.468 1.467-1.742 2.914-2.033 4.445-.396 2.083-.845 4.445-4.431 8.031-1.691 1.691-1.774 3.066-1.848 4.279-.059.964-.109 1.797-.899 2.918-.209.296-.174.7.082.956l1.624 1.624c.145.144.335.218.527.218.149 0 .3-.044.429-.136 1.12-.79 1.953-.84 2.917-.899 1.213-.074 2.587-.157 4.278-1.848 3.587-3.586 5.948-4.035 8.032-4.431 1.531-.291 2.978-.565 4.444-2.033 3.92-3.922 1.777-8.847-1.251-11.874zm-.767 2.368c.498-.352 1.187-.234 1.539.263.352.498.234 1.187-.263 1.539s-1.187.235-1.539-.263c-.353-.498-.235-1.187.263-1.539zM29.26 2.458c.61 0 1.104.494 1.104 1.104s-.494 1.105-1.104 1.105-1.104-.494-1.104-1.104.495-1.105 1.104-1.105zm-4.724-.94c.154-.59.757-.944 1.347-.79.59.154.944.757.79 1.347-.154.59-.757.944-1.347.79-.591-.154-.944-.757-.79-1.347zm8.193 12.781c-1.144 1.143-2.203 1.344-3.67 1.623-2.182.415-4.896.93-8.807 4.841-.185.185-.36.339-.531.477-1.086.258-2.598.261-3.904-1.045s-1.304-2.818-1.045-3.904c.138-.17.292-.345.476-.53 3.911-3.911 4.426-6.625 4.841-8.807.278-1.467.479-2.526 1.622-3.669.261-.261.524-.486.79-.68 2.958.286 5.35 1.361 7.48 3.427 2.132 2.068 3.18 4.787 3.424 7.478-.193.264-.416.529-.676.789zm1.485-2.82c-.61 0-1.104-.494-1.104-1.104s.494-1.104 1.104-1.104c.61 0 1.104.494 1.104 1.104s-.495 1.104-1.104 1.104z"/><path fill="#292F33" d="M32.548 13.134c-.035 0-.071-.007-.105-.023-.125-.059-.18-.207-.121-.333.261-.558.74-1.28 1.078-1.764-.662.064-1.479-.086-1.831-.905-.398-.927-.023-2.09.243-2.716-.75.093-2.164.147-2.812-.63-.604-.722-.469-1.896-.313-2.593-.67.312-1.847.729-2.735.345-.482-.209-.797-.535-.933-.966-.101-.317-.088-.649-.029-.947-.497.388-1.183.838-1.907 1.047-.139.039-.272-.039-.31-.171-.038-.132.038-.271.171-.31 1.254-.363 2.446-1.584 2.458-1.597.089-.092.232-.101.332-.024.102.078.127.219.061.328-.005.01-.512.855-.299 1.525.092.29.306.505.654.656 1.049.455 2.782-.576 2.801-.586.09-.054.203-.046.287.021.081.067.112.177.078.277-.007.018-.634 1.838.066 2.675.577.689 2.222.511 2.808.384.095-.021.195.016.253.095.059.078.067.184.019.27-.01.016-.898 1.639-.435 2.72.421.979 1.812.507 1.871.486.103-.035.219-.001.284.088.065.088.064.209-.001.297-.01.013-1.007 1.349-1.407 2.206-.042.092-.132.145-.226.145z"/></svg>