<svg xmlns="http://www.w3.org/2000/svg" viewBox="0 0 36 36"><path fill="#CCD6DD" d="M33.553 17.894c.143.072.296.106.446.106.367 0 .72-.202.896-.553.247-.494.047-1.095-.447-1.342L32 14.881v-1.764l1.553.776c.143.073.296.107.446.107.367 0 .72-.202.896-.553.247-.494.047-1.095-.447-1.342L32 10.881V7c0-.552-.447-1-1-1s-1 .448-1 1v2.881l-1.553-.776C28.133 8.948 27.187 9 27 9h-2V6c0-.552-.447-1-1-1s-1 .448-1 1v3h-2V6c0-.552-.447-1-1-1s-1 .448-1 1v3h-2V6c0-.552-.448-1-1-1s-1 .448-1 1v3h-2V6.028c0-.552-.448-1-1-1s-1 .448-1 1V9H9c-.187 0-1.132-.051-1.447.106L6 9.882V7c0-.552-.448-1-1-1s-1 .448-1 1v3.882l-2.447 1.224c-.494.247-.694.848-.447 1.342.175.35.528.552.895.552.15 0 .303-.034.446-.105L4 13.118v1.764l-2.447 1.224c-.494.247-.694.848-.447 1.342.175.35.528.552.895.552.15 0 .303-.034.446-.105L4 17.118v1.764l-2.447 1.224c-.494.247-.694.848-.447 1.342.175.35.528.552.895.552.15 0 .303-.034.446-.105L4 21.118v1.764l-2.447 1.224c-.494.247-.694.848-.447 1.342.175.35.528.552.895.552.15 0 .303-.034.446-.105L4 25.118v1.764l-2.447 1.224c-.494.247-.694.848-.447 1.342.175.35.528.552.895.552.15 0 .303-.034.446-.105L4 29.118V30c0 .553.448 1 1 1s1-.447 1-1v-1.882L8.236 27H11v1.865c0 .553.448 1 1 1s1-.447 1-1V27h2v2c0 .553.448 1 1 1s1-.447 1-1v-2h2v2.146c0 .553.447 1 1 1s1-.447 1-1V27h2v2.146c0 .553.447 1 1 1s1-.447 1-1V27h2.765L30 28.117V30c0 .553.447 1 1 1s1-.447 1-1v-.883l1.553.776c.144.071.296.105.446.105.367 0 .72-.202.896-.553.247-.494.047-1.095-.447-1.342L32 26.881v-1.764l1.553.776c.144.071.296.105.446.105.367 0 .72-.202.896-.553.247-.494.047-1.095-.447-1.342L32 22.881v-1.764l1.553.776c.144.071.296.105.446.105.367 0 .721-.202.896-.553.247-.494.047-1.095-.447-1.342L32 18.881v-1.763l1.553.776zM11 25H9c-.187 0-1.132-.051-1.447.106L6 25.882v-1.764L8.236 23H11v2zm0-4H9c-.187 0-1.132-.051-1.447.106L6 21.882v-1.764L8.236 19H11v2zm0-4H9c-.187 0-1.132-.052-1.447.106L6 17.882v-1.764L8.236 15H11v2zm0-4H9c-.187 0-1.132-.052-1.447.106L6 13.882v-1.764L8.236 11H11v2zm4 11.999h-2v-2h2v2zM15 21h-2v-2h2v2zm0-4.001h-2v-2h2v2zm0-4h-2v-2h2v2zm4 12h-2v-2h2v2zM19 21h-2v-2h2v2zm0-4.001h-2v-2h2v2zm0-4h-2v-2h2v2zm4 12h-2v-2h2v2zM23 21h-2v-2h2v2zm0-4.001h-2v-2h2v2zm0-4h-2v-2h2v2zm7 12.882l-1.553-.776C28.133 24.949 27.187 25 27 25h-2v-2h2.765L30 24.117v1.764zm0-4l-1.553-.776C28.133 20.948 27.187 21 27 21h-2v-2h2.764L30 20.117v1.764zm0-4l-1.553-.776C28.133 16.948 27.187 17 27 17h-2v-2h2.764L30 16.118v1.763zm0-4l-1.553-.776C28.133 12.948 27.187 13 27 13h-2v-2h2.764L30 12.118v1.763z"/><path fill="#8C989F" d="M1.999 34c-.191 0-.383-.055-.554-.168-.459-.307-.583-.928-.277-1.387 1.465-2.194 3.785-3.446 6.379-3.446l.114.001h20.691c2.604-.06 4.994 1.218 6.479 3.444.307.459.183 1.08-.277 1.387-.459.305-1.08.182-1.387-.277-1.117-1.675-2.784-2.612-4.802-2.554H7.647c-1.99-.014-3.697.879-4.815 2.555-.193.289-.51.445-.833.445z"/><path fill="#8C989F" d="M28 30c-.553 0-1-.447-1-1V6.324c0-.552.447-1 1-1s1 .448 1 1V29c0 .553-.447 1-1 1zm-20-.135c-.552 0-1-.447-1-1V6.028c0-.552.448-1 1-1s1 .448 1 1v22.837c0 .553-.448 1-1 1z"/><path fill="#BE2032" d="M34 34.25c-.69 0-1.25-.56-1.25-1.25V12c0-2.619-2.131-4.75-4.75-4.75H8c-2.619 0-4.75 2.131-4.75 4.75v21c0 .69-.56 1.25-1.25 1.25S.75 33.69.75 33V12C.75 8.002 4.002 4.75 8 4.75h20c3.998 0 7.25 3.252 7.25 7.25v21c0 .69-.56 1.25-1.25 1.25z"/></svg>