<svg xmlns="http://www.w3.org/2000/svg" viewBox="0 0 36 36"><path fill="#5C913B" d="M20.958 8.542c-2.811 4.371-6.701 7.706-8.542 9.125C7.938 21.122.488 25.179 1 30.15c.375 3.642 2.714 5.669 8.143 5.283 5.184-.368 11.058-4.834 15.763-10.48 5.197-6.236 8.195-10.559 9.355-14.551.974-3.355 1.468-7.515-1.219-9.027C30.71.063 25.83.965 20.958 8.542z"/><circle fill="#5C913B" cx="18.217" cy="30.997" r=".639"/><circle fill="#5C913B" cx="21.417" cy="27.975" r=".639"/><circle fill="#5C913B" cx="20.987" cy="28.668" r=".639"/><circle fill="#5C913B" cx="23.958" cy="25.404" r=".639"/><circle fill="#5C913B" cx="30.021" cy="17.935" r=".639"/><circle fill="#5C913B" cx="33.708" cy="10.81" r=".639"/><circle fill="#5C913B" cx="34.427" cy="4.06" r=".639"/><path fill="#77B255" d="M6.924 34.192c5.312-.377 11.331-4.953 16.152-10.739 5.325-6.39 8.397-10.819 9.585-14.911.687-2.365 1.141-5.12.46-7.114-.028-.017-.051-.038-.08-.054C30.709.062 25.83.964 20.958 8.541c-2.811 4.372-6.701 7.706-8.542 9.125C7.938 21.122.488 25.179 1 30.15c.161 1.561.686 2.822 1.656 3.727 1.146.323 2.556.437 4.268.315z"/><path d="M16.497 25.752c-.441.097-.862-.029-1.258-.378-.396-.348-.575-.752-.535-1.2.004-.042.012-.13-.073-.168-.05-.021-.112-.007-.147.034-.469.533-.363 1.395.235 1.922.298.263.663.393 1.012.393.354 0 .69-.134.927-.402.036-.041.043-.104.016-.149-.049-.079-.135-.061-.177-.052zm8.904-8.142c-.449-.019-.826-.251-1.119-.69-.293-.44-.361-.877-.205-1.298.015-.04.046-.122-.028-.181-.043-.032-.104-.034-.15-.004-.289.192-.475.499-.524.865-.048.359.043.733.255 1.053.294.441.764.687 1.219.687.23 0 .458-.062.657-.195.044-.03.067-.089.053-.141-.028-.09-.116-.094-.158-.096zm-5.552.98h.002c.23 0 .438-.091.581-.253.036-.041.044-.102.017-.149-.027-.047-.104-.066-.159-.056-.237.054-.474-.017-.693-.21-.221-.193-.32-.417-.297-.662.005-.054-.024-.129-.074-.15-.051-.021-.109-.008-.146.034-.294.334-.23.874.143 1.202.177.156.4.243.626.244zm8.934-7.262c-.221-.193-.32-.417-.297-.662.005-.054-.024-.129-.074-.15-.051-.022-.11-.007-.146.034-.294.334-.23.874.143 1.202.179.157.401.244.627.245h.002c.23 0 .438-.091.581-.253.036-.041.044-.102.017-.149-.027-.046-.104-.067-.159-.056-.238.053-.474-.017-.694-.211zm-4.302.229h.002c.23 0 .438-.09.582-.254.036-.041.042-.102.015-.148-.028-.048-.108-.066-.158-.055-.245.054-.475-.018-.693-.21-.221-.194-.32-.417-.297-.662.005-.054-.024-.129-.074-.15-.05-.022-.11-.008-.146.033-.294.334-.23.874.143 1.202.178.157.401.244.626.244zm6.191-6.676c-.246.055-.475-.018-.693-.21-.221-.194-.32-.417-.297-.662.005-.054-.024-.129-.074-.15-.051-.022-.11-.008-.146.033-.294.334-.23.874.143 1.202.179.157.401.244.627.244h.002c.23 0 .438-.09.582-.254.036-.041.042-.102.015-.148-.028-.048-.108-.066-.159-.055zM5.82 28.208c-.337-.42-.375-1.015-.093-1.479.029-.049.021-.111-.018-.152-.04-.041-.103-.05-.152-.021-.065.038-.13.076-.189.124-.308.247-.501.598-.544.99s.069.777.315 1.084c.291.363.72.552 1.152.552.324 0 .65-.105.922-.323.058-.047.106-.099.162-.159.039-.042.044-.104.013-.152-.031-.049-.094-.068-.145-.051-.514.172-1.085.007-1.423-.413zm9.722-7.372c.324 0 .65-.105.922-.323.058-.047.106-.099.162-.159.039-.042.044-.104.013-.152-.031-.049-.094-.068-.145-.051-.514.174-1.086.009-1.424-.411-.337-.42-.375-1.015-.093-1.479.029-.049.021-.111-.018-.152-.04-.041-.104-.049-.152-.021-.065.038-.13.076-.189.124-.308.247-.501.598-.544.99s.069.777.315 1.084c.292.361.72.55 1.153.55zm9.622-14.159c-.337-.42-.375-1.015-.093-1.479.029-.049.021-.111-.018-.152-.04-.041-.104-.05-.152-.021-.065.038-.13.076-.189.124-.308.247-.501.598-.544.99s.069.777.315 1.084c.291.363.72.552 1.152.552.324 0 .65-.105.922-.323.058-.047.106-.099.162-.159.039-.042.044-.104.013-.152-.031-.049-.094-.068-.145-.051-.514.172-1.085.007-1.423-.413zM12.559 29.056c-.3.252-.727.292-1.064.098-.337-.193-.519-.583-.451-.97.008-.045-.016-.09-.058-.108-.04-.019-.091-.007-.119.029-.034.043-.068.087-.097.135-.145.251-.183.543-.107.823.075.28.256.513.507.657.166.096.352.145.538.145.095 0 .19-.013.284-.038.279-.075.513-.255.657-.507.028-.049.049-.101.068-.152.016-.042.001-.09-.036-.116-.038-.028-.087-.026-.122.004zm-2.836-5.818c-.092-.378.065-.777.393-.995.038-.025.054-.073.039-.116-.016-.043-.059-.071-.104-.066-.054.004-.108.01-.165.023-.281.068-.52.242-.67.489-.151.247-.196.538-.129.819.068.281.241.519.488.67.173.105.366.159.563.159.085 0 .171-.01.255-.03.055-.013.104-.032.159-.055.042-.018.067-.061.061-.106-.006-.045-.042-.081-.087-.086-.39-.045-.713-.328-.803-.706zm12.202-9.621c-.26.294-.677.396-1.038.256-.362-.142-.6-.5-.592-.892.001-.045-.028-.086-.072-.098-.045-.014-.092.006-.113.045-.028.048-.056.097-.075.149-.218.557.059 1.187.615 1.403.129.05.261.074.392.074.434 0 .845-.263 1.013-.691.02-.053.032-.106.044-.16.01-.044-.012-.09-.053-.111-.039-.019-.091-.009-.121.025zm-1.15 8.999c-.267.286-.688.377-1.045.226-.358-.152-.585-.517-.565-.908.003-.046-.027-.086-.07-.1-.044-.014-.092.005-.115.044-.029.046-.057.092-.079.144-.233.55.024 1.188.574 1.42.138.059.281.086.422.086.422 0 .824-.248.999-.66.021-.047.033-.096.05-.159.012-.045-.009-.091-.049-.113-.039-.021-.09-.013-.122.02z" fill="#5C913B"/><circle fill="#77B255" cx="24.844" cy="20.719" r=".5"/><circle fill="#77B255" cx="30.875" cy="12.219" r=".5"/><circle fill="#77B255" cx="32.656" cy="7.219" r=".5"/><circle fill="#77B255" cx="28" cy="16.75" r=".5"/><circle fill="#77B255" cx="17.938" cy="28.344" r=".5"/><circle fill="#77B255" cx="20.656" cy="25.5" r=".789"/><circle fill="#77B255" cx="11.062" cy="32.938" r=".5"/><circle fill="#77B255" cx="25.781" cy="19.969" r=".5"/><circle fill="#77B255" cx="11.297" cy="19.828" r="1.422"/><circle fill="#77B255" cx="5.698" cy="23.355" r=".98"/><circle fill="#77B255" cx="26.448" cy="3.324" r=".98"/><circle fill="#77B255" cx="1.948" cy="27.23" r=".694"/><circle fill="#77B255" cx="2.48" cy="26.512" r=".694"/><circle fill="#77B255" cx="1.855" cy="31.324" r=".859"/><circle fill="#77B255" cx="13.509" cy="17.138" r=".639"/><circle fill="#77B255" cx="27.478" cy="2.169" r=".639"/><circle fill="#77B255" cx="31.447" cy="1.294" r=".639"/><circle fill="#77B255" cx="16.728" cy="14.201" r=".639"/><circle fill="#77B255" cx="19.697" cy="10.951" r=".639"/><circle fill="#77B255" cx="19.125" cy="11.594" r=".639"/><circle fill="#77B255" cx="22.009" cy="7.763" r=".639"/></svg>