<svg xmlns="http://www.w3.org/2000/svg" viewBox="0 0 36 36"><path fill="#FFD983" d="M1.443 13.658c1.03-.715 2.03-1.58 2.285-2.54s3.186-2.313 3.679-1.971c.493.344 1.075.014 1.371-.743.296-.757 3.476-2.541 4.244-2.093.768.448 2.095.028 2.558-.458.463-.486 3.891-.542 4.29.19s1.061.596 1.857.268c.797-.329 3.266-.289 3.587.391.321.681 1.161 1.12 1.772.941.611-.179 2.967.435 2.721 1.324-.245.889.317 1.531 1.146 1.486.828-.044 2.3 1.661 2.156 2.085-.144.424.418.945.987 1.197.569.252.71 2.529-.863 3.112-1.573.583-26.976 2.845-28.954.634-1.978-2.212-2.836-3.823-2.836-3.823z"/><path fill="#FFD983" d="M20.89 12.836c-.48 4.459-3.09 7.96-4.838 7.752-1.749-.208-2.777-3.991-2.297-8.45.48-4.457 1.589-7.388 3.909-7.388 2.552 0 3.705 3.629 3.226 8.086z"/><path fill="#FFD983" d="M25.97 13.193c-.48 4.459-3.09 7.96-4.838 7.752-1.749-.208-2.777-3.991-2.297-8.45.48-4.457 1.824-5.906 4.036-6.642 2.872-.954 3.579 2.883 3.099 7.34z"/><path fill="#FFD983" d="M28.212 15.827c-1.624 4.15-4.101 7.009-5.535 6.388-1.433-.621-.905-4.346.343-8.636 1.67-5.745 4.58-6.606 6.014-5.985 1.432.62.802 4.084-.822 8.233z"/><path fill="#FFD983" d="M29.335 18.306c-2.794 3.391-6.008 5.272-7.179 4.203-1.171-1.068.143-4.683 2.936-8.073 2.793-3.39 6.043-4.557 7.434-3.837 1.924.995-.398 4.317-3.191 7.707z"/><path fill="#FFD983" d="M29.232 20.85c-4.118 1.167-7.832.649-8.294-1.159-.462-1.806 2.499-4.219 6.617-5.386 4.117-1.168 7.544-1.327 8.294 1.159.539 1.783-2.499 4.219-6.617 5.386zm-12.31-8.807c-1.384-4.245-3.912-6.918-6.156-6.013-2.436.982-2.903 4.693-1.519 8.937 1.382 4.244 5.062 6.961 6.529 6.431 1.466-.53 2.53-5.112 1.146-9.355z"/><path fill="#FFD983" d="M11.697 13.646c-2.715-3.461-5.176-6.257-7.081-4.385-1.889 1.857-1.068 5.908 1.647 9.368 2.713 3.461 6.988 4.2 8.184 3.161 1.195-1.037-.035-4.684-2.75-8.144z"/><path fill="#FFD983" d="M8.414 14.828c-6.326-2.947-7.706-1.047-8.257.478-.552 1.524 2.3 5.035 6.285 6.633 3.984 1.6 7.663 1.658 8.215.134.552-1.523-2.344-5.428-6.243-7.245z"/><path fill="#FFD983" d="M35.65 24.036c0 5.312-7.752 7.214-17.315 7.214-9.563 0-18.036-3.105-18.036-8.417 0-5.312 8.473-14.429 18.036-14.429 9.562 0 17.315 10.319 17.315 15.632z"/><path fill="#FFAC33" d="M19.537 16.631c0 2.989-.538 5.411-1.202 5.411-.664 0-1.202-2.422-1.202-5.411 0-2.988.538-5.41 1.202-5.41.663 0 1.202 2.422 1.202 5.41zm4.684-.23c.513 2.533.446 4.683-.148 4.804-.595.12-1.492-1.834-2.006-4.368-.513-2.532-.447-4.683.148-4.803.595-.121 1.492 1.834 2.006 4.367zm3.853.223c.945 1.944 1.269 3.734.724 4-.546.265-1.754-1.095-2.7-3.04-.945-1.944-1.269-3.734-.724-4 .546-.265 1.754 1.097 2.7 3.04zm-13.493-.113c-.646 2.701-1.63 4.78-2.201 4.644-.571-.137-.51-2.436.134-5.137.645-2.701 1.738-4.304 2.309-4.167.572.136.403 1.96-.242 4.66zm-4.323.374c-.868 1.94-2.018 3.312-2.573 3.064-.554-.248-.3-2.02.567-3.961.867-1.94 2.086-2.915 2.64-2.667.554.249.233 1.625-.634 3.564z"/><path fill="#FFCC4D" d="M12.865 7.319c.514.603.618 1.387.233 1.751-.386.364-1.115.169-1.629-.434s-.618-1.387-.233-1.751c.385-.363 1.115-.169 1.629.434zm-6.392 3.462c.263.762.082 1.53-.405 1.716-.487.186-1.095-.28-1.358-1.042-.263-.762-.082-1.53.405-1.716.487-.185 1.095.281 1.358 1.042zm-3.492 4.904c.663.572.935 1.378.607 1.799-.328.421-1.132.299-1.796-.273-.663-.572-.935-1.378-.607-1.799.329-.422 1.133-.299 1.796.273zm15.691-9.214c.514.603.618 1.387.233 1.751-.386.364-1.115.169-1.629-.434s-.618-1.387-.233-1.751c.385-.364 1.115-.17 1.629.434z"/><ellipse transform="rotate(-3.242 23.923 7.975)" fill="#FFCC4D" cx="23.913" cy="7.978" rx="1.118" ry="1.668"/><path fill="#FFCC4D" d="M29.092 9.926c.147.795-.147 1.524-.655 1.628-.508.104-1.039-.457-1.186-1.252-.147-.795.147-1.524.655-1.628.508-.104 1.039.457 1.186 1.252zm3.167 3.436c-.333.684-.976 1.038-1.437.79s-.565-1.004-.233-1.688c.333-.684.976-1.038 1.437-.79.462.248.566 1.003.233 1.688zm2.285 3.81c-.414.532-1.118.646-1.572.255-.454-.391-.485-1.14-.071-1.671.415-.532 1.118-.646 1.572-.255.453.391.485 1.139.071 1.671z"/></svg>