<svg xmlns="http://www.w3.org/2000/svg" viewBox="0 0 36 36"><path fill="#D99E82" d="M17.256 31.519c-4.754 4.754-11.207 5.573-14.683 2.097C-.902 30.141.056 23.55 4.672 18.934c3.355-3.356 6.711-3.356 9.228-5.873 2.517-2.516 1.678-5.033 5.454-8.809C23.968-.361 29.84-1.201 33.616 2.574c3.774 3.776 2.832 9.754-1.678 14.263-3.775 3.775-6.292 2.936-8.809 5.452-2.518 2.518-2.518 5.873-5.873 9.23z"/><path fill="#C1694F" d="M8.211 21.397c-.324 0-.643-.157-.835-.448-.305-.46-.179-1.081.282-1.386.682-.451 1.438-.853 2.245-1.193 3.938-1.516 6.902-4.208 7.765-7.037.161-.529.721-.829 1.248-.665.529.161.826.72.666 1.248-1.039 3.406-4.46 6.589-8.931 8.309-.665.28-1.31.623-1.889 1.006-.17.113-.361.166-.551.166zm-5.044 8.937h-.022c-.552-.012-.99-.47-.979-1.021.047-2.164.385-4.916 2.601-7.002.403-.377 1.036-.358 1.414.043.379.402.359 1.035-.042 1.414-1.666 1.567-1.932 3.704-1.972 5.588-.012.544-.458.978-1 .978zm4.125-.709c-.082 0-.166-.01-.249-.031-.535-.137-.858-.682-.721-1.217.562-2.191 1.782-5.277 5.875-6.774.517-.188 1.093.077 1.282.596.19.519-.077 1.093-.596 1.283-3.171 1.159-4.137 3.49-4.625 5.392-.113.451-.52.751-.966.751zm17.667-11.041c-.412 0-.798-.257-.943-.667-.184-.521.09-1.092.61-1.276 4.279-1.51 6.849-4.449 7.856-8.982.12-.54.657-.874 1.193-.759.539.12.879.654.76 1.193-1.154 5.19-4.23 8.701-9.144 10.435-.109.037-.222.056-.332.056z"/><path fill="#C1694F" d="M24.459 14.875c-.397 0-.774-.24-.93-.632-.203-.514.048-1.095.562-1.298 1.722-.682 3.378-2.263 4.12-3.935.225-.502.813-.732 1.32-.508.505.225.731.815.508 1.32-.956 2.151-3.002 4.107-5.212 4.982-.121.049-.245.071-.368.071zm-8.709 7.209c-.395 0-.768-.234-.926-.622-.209-.512.037-1.095.548-1.304.955-.39 1.979-1.345 2.266-1.832.28-.476.895-.635 1.369-.354.477.28.635.893.354 1.369-.513.873-1.864 2.11-3.233 2.669-.124.051-.252.074-.378.074zm4-12.667c-.108 0-.22-.018-.328-.056-.522-.181-.798-.751-.617-1.272.4-1.152 1.234-2.255 2.124-2.812.469-.293 1.086-.15 1.378.318.293.468.15 1.085-.317 1.378-.421.263-1.017.973-1.295 1.772-.144.413-.531.672-.945.672zM6.457 33.915c-.49 0-.917-.358-.988-.857-.064-.451 0-1.253.098-1.691.12-.539.659-.87 1.193-.759.539.12.879.655.759 1.194-.064.286-.09.824-.069.975.076.546-.305 1.053-.852 1.129-.048.006-.095.009-.141.009z"/></svg>