<svg xmlns="http://www.w3.org/2000/svg" viewBox="0 0 36 36"><path fill="#DD2E44" d="M20.469 32.031c-.847-.703-.443-2.444-2-4-1.557-1.557-5.102-1.785-6.658-3.342-1.557-1.557-2.785-6.102-4.342-7.659-1.556-1.557-3.016-1.508-4-2-2-1-2.882-2.942-3-4 0 0 3.143-3.001 3-5-.143-1.999 2-5 2-5s1-1.001 5 5c.784 1.177 4 1 6 3s2 4.999 4 7c2 2 5 2 7 4s1.822 5.216 3 6c6 4 5 5 5 5s-4.17 3-6.999 3c-1.001 0-4.001 1-4.001 1-1 .001-2.123-1.439-4-2.999z"/><path fill="#F4ABBA" d="M34.452 31.467c-.257-.657-1.298-1.979-4.984-4.436-1.178-.784-1-4-3-6s-5-2-7-4-2-5-4-7-5.216-1.823-6-3C7.012 3.345 5.69 2.305 5.033 2.048c-.066-.026-.125-.045-.178-.057-.196.331-.413.723-.619 1.15.079.043.166.095.26.159.753.511 1.995 1.763 3.973 4.73.784 1.177 4 1 6 3s2 5 4 7 5 2 7 4 1.822 5.216 3 6c2.967 1.978 4.219 3.22 4.73 3.973.083.122.145.23.193.327.425-.238.805-.467 1.122-.667-.012-.056-.033-.123-.062-.196z"/><path fill="#FFE8B6" d="M33.199 32.004c-.511-.753-1.763-1.995-4.73-3.973-1.178-.784-1-4-3-6s-5-2-7-4-2-5-4-7-5.216-1.823-6-3c-1.978-2.967-3.22-4.219-3.973-4.73-.094-.064-.181-.117-.26-.159-.202.418-.389.866-.529 1.314.068.053.142.115.217.179.769.656 1.9 1.929 3.545 4.396 2 3 4 2 6 4s2 4 4 6 4 2 6 4 1 4 4 6c2.466 1.644 3.739 2.775 4.396 3.545.12.141.224.272.306.389.431-.206.842-.422 1.221-.634-.048-.097-.11-.205-.193-.327z"/><path fill="#EA596E" d="M31.865 32.576c-.656-.769-1.929-1.9-4.396-3.545-3-2-2-4-4-6s-4-2-6-4c-2-2.001-2-4-4-6s-4-1-6-4C5.825 6.564 4.694 5.292 3.924 4.635c-.075-.064-.149-.126-.217-.179-.134.425-.222.848-.239 1.244-.005.112-.007.224.001.331.025.353-.056.738-.2 1.131.607.651 1.329 1.562 2.2 2.869.784 1.177 4 1 6 3s2 6 4 8 5 2 7 4 2.822 5.216 4 6c1.521 1.014 2.524 1.833 3.18 2.494.102.102.185.196.27.291.751-.195 1.524-.504 2.251-.852-.081-.116-.185-.247-.305-.388z"/><path fill="#FFE8B6" d="M26.469 31.031c-1.178-.784-2-4-4-6s-5-2-7-4c-2-2.001-2-6-4-8s-5.216-1.823-6-3c-.871-1.307-1.593-2.218-2.2-2.869-.227.618-.616 1.256-1.036 1.834.614.73 1.347 1.702 2.236 3.035.784 1.177 4 1 6 3s2 5 4 7 5 2 7 4 1.822 5.216 3 6c1.277.852 2.223 1.56 2.943 2.159.426-.095.806-.159 1.058-.159.456 0 .947-.084 1.45-.214-.085-.095-.169-.189-.27-.291-.657-.661-1.66-1.481-3.181-2.495z"/><path fill="#EA596E" d="M21.469 26.031c-2-2-5-2-7-4-2-2.001-2-5-4-7s-5.216-1.823-6-3c-.889-1.333-1.622-2.305-2.236-3.035-.134.184-.269.36-.405.529-.171.214-.338.411-.495.59.054.066.104.122.161.192.559.691 1.212 1.578 1.975 2.724.784 1.177 4 1 6 3s2 5 4 7 5 2 7 4 1.822 5.216 3 6c.908.605 1.638 1.134 2.253 1.608.53-.157 1.147-.329 1.689-.45-.72-.599-1.665-1.307-2.943-2.159-1.177-.783-.999-3.999-2.999-5.999z"/></svg>