<svg xmlns="http://www.w3.org/2000/svg" viewBox="0 0 36 36"><path fill="#FFAC33" d="M35.15 20.01c-.115-3.396-.216-7.078-.216-7.078 0-4.97-7.545-8.929-16.934-8.929-9.389 0-17 4.03-17 9 0 0-.1 4.364-.1 7.438s.162 5.154.162 5.154c.108 1.187.511 2.056 1.533 3.21.41.464 1.115.891 1.596 1.051.48.16 1.89-.479 1.89-.479L18 25.004l4.554 6.831s.506.894 1.269 1.257c.763.364 1.724-.015 2.602-.281 5.12-1.549 8.131-3.98 8.617-6.461.118-.603.216-3.158.108-6.34z"/><path fill="#F4900C" d="M18 4.003c-9.389 0-17 4.03-17 9 0 1.905 1.125 3.669 3.033 5.124L18 13.003l5.653 8.48C30.259 20.248 35 16.922 35 13.003c0-4.97-7.611-9-17-9z"/><path fill="#994500" d="M18 4.003c-8.837 0-16 3.806-16 8.5 0 1.942 1.24 3.727 3.304 5.158L18 13.003l5.042 7.563C29.405 19.443 34 16.26 34 12.503c0-4.694-7.163-8.5-16-8.5z"/><path fill="#662113" d="M18 4.003c-8.317 0-15.059 3.582-15.059 8 0 1.985 1.369 3.797 3.622 5.196L18 13.003l4.431 6.647c6.154-1.006 10.628-4.049 10.628-7.647 0-4.418-6.742-8-15.059-8z"/><path fill="#662113" d="M23.23 22.875c-.642-1.016-5.23-8.368-5.23-8.368S7.21 18.518 5.107 19.273c-.993.356-.758 3.185-.701 5.297.108 4.045.485 3.98 1.564 3.5C8.397 26.992 18 23.513 18 23.513s3.881 5.852 4.96 7.362c.394.552.737 1.247.809-2.421.042-2.112.108-4.554-.539-5.579z"/><path fill="#FFAC33" d="M18.112 16.114s-3.889.813-3.889 4.423c0 3.741 3.776 2.211 3.776 2.211s2.247 2.843 2.839-.356c.572-3.095-2.726-6.278-2.726-6.278z"/><path fill="#F4900C" d="M17.998 18.434s-1.78.265-1.78 1.942c0 1.737 1.726 1.133 1.726 1.133s1.189 1.292 1.402-.324c.212-1.602-1.348-2.751-1.348-2.751zm8.576 13.432c-.054 0-.109-.009-.163-.027-.261-.09-.399-.375-.309-.636.476-1.381.169-7.087-.179-8.772-.057-.271.117-.535.388-.591.268-.062.535.116.591.388.299 1.445.744 7.565.146 9.302-.072.206-.267.336-.474.336zM2.517 27.659c-.24 0-.452-.173-.493-.417-.328-1.961-.179-7.172.167-8.844.056-.271.319-.443.591-.388.27.056.444.321.388.591-.324 1.565-.468 6.638-.16 8.475.045.272-.138.53-.411.576-.027.005-.055.007-.082.007zm28.156 2.373c-.054 0-.109-.009-.163-.027-.261-.09-.399-.375-.31-.636.477-1.381.17-7.087-.178-8.772-.057-.271.117-.535.388-.591.266-.061.534.116.591.388.299 1.446.744 7.567.145 9.302-.072.206-.266.336-.473.336zm3.183-2.804c-.033 0-.066-.003-.1-.01-.271-.054-.446-.317-.392-.589.352-1.758.269-6.905-.053-8.46-.057-.271.117-.535.388-.591.266-.054.534.117.591.389.345 1.667.432 6.975.055 8.859-.047.237-.255.402-.489.402z"/><path fill="#994500" d="M6.375 16c-.109 0-.219-.036-.312-.109-1.808-1.444-2.625-2.966-2.429-4.524.387-3.079 4.646-5.033 4.827-5.114.253-.116.548-.002.661.25.114.251.002.547-.25.661-.04.018-3.931 1.806-4.247 4.329-.149 1.188.545 2.405 2.061 3.616.216.172.251.487.079.703-.098.124-.244.188-.39.188zm20.167 1.667c-.219 0-.419-.144-.482-.365-.074-.266.08-.542.346-.617.045-.012 4.469-1.294 5.104-4.289.617-2.905-3.962-5.002-4.008-5.023-.252-.113-.364-.409-.251-.661.113-.253.412-.363.661-.251.22.099 5.358 2.458 4.576 6.144-.763 3.588-5.607 4.986-5.812 5.044-.044.012-.089.018-.134.018zm-10.44-5.795l.066.003c.385 0 .712-.294.746-.685.036-.413-.27-.776-.682-.812l-1.87-.162.747-2.672c1.775-.417 2.438-1.216 2.535-1.346.242-.325.175-.775-.143-1.027-.318-.25-.785-.196-1.047.114-.01.012-1.084 1.238-4.735.973-.41-.036-.772.281-.802.694-.03.413.281.772.694.802.394.029.764.042 1.112.042.27 0 .522-.01.765-.025l-.647 2.313-1.9-.165c-.42-.042-.777.269-.812.682-.036.413.27.776.682.812l.968.084-3.492 2.747c-.189.148-.287.368-.287.591 0 .162.052.325.161.463.148.188.368.286.59.286.162 0 .326-.052.463-.161l2.735-2.151-.608 2.175 1.735-.637.509-1.819.737 1.363 1.423-.522-1.129-2.087 1.486.127zm7.624 6.623c.147.143.335.213.524.213.195 0 .39-.076.536-.226.29-.296.284-.771-.012-1.061-1.564-1.526-1.815-4.857-1.818-4.891-.009-.121-.051-.228-.108-.325 1.071-2.898 1.251-5.646 1.263-5.848.024-.414-.292-.768-.706-.792-.414-.034-.768.292-.792.705-.003.067-.37 5.63-3.138 8.945l.862 1.294c.55-.605 1.025-1.274 1.428-1.978.298 1.272.87 2.899 1.961 3.964z"/><path fill="#994500" d="M26.671 9.842c-.225-.347-.69-.446-1.037-.221l-1.542 1c-.348.226-.446.69-.221 1.038.144.22.384.341.63.341.14 0 .281-.039.407-.121l1.542-1c.348-.225.446-.69.221-1.037zm-6.752 1.388c.148.152.343.229.539.229.188 0 .376-.07.521-.211.298-.289.306-.763.018-1.061l-1.291-1.333c-.289-.299-.764-.305-1.061-.018-.298.289-.306.763-.018 1.061l1.292 1.333z"/></svg>