<svg xmlns="http://www.w3.org/2000/svg" viewBox="0 0 36 36"><path fill="#8899A6" d="M26.864 8H18v28c6 0 10-1 11.393-7.015.774-3.342 1.663-12.335 1.663-17.841C31.056 9.279 29.623 8 26.864 8zM8.892 8H18v28c-6 0-10-1-11.515-7.015-.838-3.327-1.724-12.335-1.724-17.841C4.761 9.279 6.132 8 8.892 8z"/><path fill="#CCD6DD" d="M31.052 10.5c0 2.071-3.13 3.75-13.057 3.75-9.926 0-13.057-1.679-13.057-3.75 0-2.072 3.131-3.75 13.057-3.75 9.927 0 13.057 1.678 13.057 3.75z"/><path fill="#CCD6DD" d="M18.025 12.997L6.516 12c0 7 1.104 14.382 1.681 16.572C8.859 31.081 11 30.981 18 30.998V31v-.002c7-.018 9.166.083 9.827-2.426C28.405 26.382 29.52 19 29.52 12l-11.495.997z"/><path fill="#55ACEE" d="M18 21v13c7 0 9-1 9.857-5.428.241-1.243.807-4.075 1.174-7.572H18zM7.019 21c.366 3.497.915 6.327 1.149 7.572C9 33 11 34 18 34V21H7.019z"/><path fill="#3B88C3" d="M18 30.16c-4.556 0-8.249.895-8.249 2 0 .009.005.018.006.028C11.154 33.598 13.578 34 18 34c4.413 0 6.836-.4 8.241-1.803.001-.012.008-.024.008-.037 0-1.105-3.693-2-8.249-2z"/><ellipse fill="#88C9F9" cx="17.995" cy="21" rx="11.016" ry="2"/><path fill="#E1E8ED" d="M33.958.936l-6.824 1.697c-.751.187-1.565.577-2.44 1.239-1.643 1.243-1.978 2.93-2.246 3.861L18.34 22h3.122L25.33 8.564c.264-.916.526-1.702 1.129-2.249.534-.484 1.417-.769 2.244-.983l5.977-1.483c.801-.199 1.293-1.016 1.095-1.817-.199-.802-1.016-1.295-1.817-1.096z"/><path fill="#88C9F9" d="M18.34 22l-2.671 9.277c-.228.793.234 1.628 1.026 1.857.793.228 1.628-.234 1.856-1.026L21.462 22H18.34z"/><path fill="#744EAA" d="M18.641 22.677l-.588.322-.273.947 2.066 3.669.776-2.696-1.261-2.241z"/><path fill="#DD2E44" d="M27.906 2.441l-1.128 3.647c.531-.347 1.242-.58 1.927-.757l.434-.108 1.035-3.346-2.268.564z"/><path fill="#744EAA" d="M17.045 26.499l-.777 2.697 1.962 3.485c.144-.162.258-.353.322-.574l.558-1.939-2.065-3.669z"/><path fill="#DD2E44" d="M20.048 16.068l-.777 2.698 1.381 2.452.472.105.626-.323.364-1.262zM34.495.907c-.175-.021-.356-.016-.537.029l-1.696.422-1.036 3.347 2.267-.563L34.495.907zM20.791 13.488l2.066 3.668.776-2.696-2.065-3.669zm3.862-9.579c-.798.617-1.285 1.338-1.601 2.022l1.32 5.968.96-3.335c.066-.23.133-.452.204-.664l-.883-3.991z"/><path fill="#55ACEE" d="M18.663 20.881L18.053 23c1.094-.001 2.15-.031 3.147-.086l.585-2.032c-.938.483-2.894.181-3.122-.001z"/><path fill="#FFF" d="M29.615 11.309c-.242-.649-.954-.975-1.584-.724-3.606 1.416-7.044 1.909-10.036 1.937v2.492c3.333-.034 7.089-.577 10.913-2.08.633-.248.95-.976.707-1.625zm-23.24 0c.242-.649.954-.975 1.584-.724 3.606 1.416 7.044 1.909 10.036 1.937v2.492c-3.333-.034-7.089-.577-10.913-2.08-.632-.248-.95-.976-.707-1.625z"/></svg>