<svg xmlns="http://www.w3.org/2000/svg" viewBox="0 0 36 36"><path fill="#5C913B" d="M29.866 24.625c2.522-.841 5.884-4.203 5.884-5.884s-2.522-.841-1.681-3.362 1.681-5.043 0-6.724-3.362 0-5.043-1.681 0-3.362-1.681-5.043-4.203-.841-6.724 0S18.939.25 17.258.25s-5.043 3.362-5.884 5.884-2.521.84-3.361 3.362c-.78 2.341.177 4.823-1.972 9.748-1.026 1.621-1.995 3.178-2.899 4.543C-.836 29.792.449 35.552.449 35.552s5.76 1.285 11.765-2.693c1.365-.904 2.922-1.873 4.543-2.899 4.925-2.15 7.407-1.192 9.748-1.972 2.521-.841.84-2.522 3.361-3.363z"/><path fill="#679E44" d="M34.253 19.017c-.103-.312-.438-.483-.75-.379-3.21 1.054-5.749.677-7.001.349 2.811-2.865 5.337-5.842 7.222-8.589.186-.271.116-.641-.154-.827-.271-.187-.641-.116-.826.154-1.082 1.576-2.403 3.251-3.878 4.944.082-1.765-.065-4.516-1.327-7.238-.139-.298-.492-.427-.789-.289-.298.138-.428.491-.289.789 1.679 3.623 1.194 7.416 1.062 8.235-1.369 1.489-2.837 2.973-4.356 4.402.156-1.873.084-4.922-1.559-7.337-.183-.271-.552-.343-.825-.158-.271.185-.342.554-.157.826 1.957 2.879 1.347 7.003 1.178 7.925-2.44 2.2-4.953 4.211-7.33 5.836 1.535-2.474 3.146-6.37 2-10.845-.082-.318-.406-.511-.723-.428-.318.082-.51.405-.428.723 1.679 6.557-3.33 11.987-3.778 12.456-5.407 3.356-8.373 4.368-8.407 4.379-.311.104-.479.439-.375.751.083.249.314.407.563.407.062 0 .125-.01.187-.03.16-.054 3.996-1.354 11.056-6.036 1.365-.905 2.768-1.936 4.176-3.05.695.426 2.288 1.141 5.162 1.141.804 0 1.706-.057 2.717-.19.325-.043.554-.342.511-.667-.042-.325-.349-.555-.667-.511-3.704.492-5.777-.136-6.717-.581 1.974-1.619 3.937-3.396 5.799-5.235.617.218 1.922.586 3.735.586 1.299 0 2.854-.189 4.592-.761.309-.105.478-.441.376-.752z"/><path fill="#3E721D" d="M12.753 24.327c.456-.09 1.009-.182 1.61-.281 3.811-.633 7.752-1.288 7.752-3.729 0-1.241-.664-1.982-1.101-2.436.25-.076.59-.147.825-.198 1.07-.227 2.402-.51 2.983-1.69.359-.729.313-1.608-.143-2.635.416-.307 1.58-.678 2.308-.909 1.796-.572 3.493-1.113 3.959-2.504.163-.484.223-1.25-.409-2.144-.008-.011-.02-.035-.028-.05-.495-.084-.989-.284-1.484-.778-.313-.313-.509-.626-.632-.939.234.645.845 2.094 1.123 2.486 2.031 2.872-7.321 2.534-6.024 5.247 1.541 3.222-2.907 2.206-3.747 3.467-.841 1.261 1.121 1.401 1.121 3.082s-5.746 2.271-8.354 2.783C7.243 24.136.448 35.552.448 35.552s.508.11 1.363.165c2.052-3.324 7.257-10.666 10.942-11.39z"/><path fill="#77B255" d="M12.512 23.101c2.608-.512 8.354-1.102 8.354-2.783s-1.961-1.821-1.121-3.082c.841-1.261 5.288-.245 3.747-3.467-1.298-2.713 8.055-2.375 6.024-5.247-.322-.455-1.094-2.335-1.205-2.729-.363-1.287.321-2.574-.967-3.861-1.681-1.681-4.203-.841-6.724 0S18.939.25 17.258.25s-5.043 3.362-5.884 5.884-2.521.84-3.361 3.362c-.78 2.341.177 4.823-1.972 9.748-1.026 1.621-1.995 3.178-2.899 4.543C-.836 29.792.449 35.552.449 35.552s6.794-11.416 12.063-12.451z"/><path fill="#A6D388" d="M28.4 8.292c-2.723-1.262-5.475-1.409-7.24-1.326 1.693-1.476 3.367-2.797 4.944-3.878.271-.186.34-.556.154-.827-.186-.27-.556-.339-.826-.154-2.747 1.884-5.724 4.411-8.589 7.222-.329-1.253-.706-3.791.349-7.001.103-.312-.067-.648-.379-.75-.31-.103-.647.067-.75.379-1.366 4.158-.55 7.265-.176 8.328-1.839 1.862-3.616 3.824-5.235 5.799-.445-.94-1.071-3.013-.58-6.719.043-.325-.186-.624-.511-.667-.32-.043-.623.184-.667.51-.613 4.63.407 6.991.951 7.879-1.115 1.408-2.145 2.811-3.05 4.176C2.112 28.323.812 32.159.759 32.318c-.104.312.065.647.376.751.062.021.125.03.188.03.249 0 .481-.157.564-.406.011-.034 1.023-2.999 4.378-8.406.463-.446 5.882-5.465 12.456-3.778.314.079.642-.111.723-.429.081-.318-.11-.642-.429-.724-4.475-1.144-8.373.468-10.848 2.003 1.625-2.378 3.637-4.893 5.838-7.334.923-.169 5.047-.777 7.925 1.18.103.069.219.103.333.103.19 0 .378-.091.492-.26.185-.271.114-.641-.157-.826-2.416-1.642-5.465-1.714-7.338-1.558 1.428-1.518 2.912-2.986 4.401-4.355.814-.134 4.598-.625 8.236 1.061.081.038.166.056.25.056.224 0 .438-.128.539-.345.142-.298.012-.652-.286-.789z"/></svg>