<svg xmlns="http://www.w3.org/2000/svg" viewBox="0 0 36 36"><path fill="#F4900C" d="M7.728 3.132s.418-1.003 1.661-.838c1.243.165 9.667 1.593 13.676 3.454 4.01 1.86 8.529 4.059 11.358 7.384.75.883.445 1.529.445 1.529l-1.036 7.438s-.3 1.489-1.737 1.886L2.507 32.139S1 32.483 1 30.932v-7.766s.152-.933.521-2.025c.368-1.095 6.207-18.009 6.207-18.009z"/><path fill="#A0041E" d="M30.609 20.547c-4.448-4.258-15.009-9.219-22.834-9.965-.221-.018-.435.114-.507.329 0 0-6.278 18.61-6.278 18.918 0 .15.07.293.187.386.086.066.193.102.3.102.039 0 .079-.005.119-.014l29.419-8.115c.186-.048.279-.154.312-.344.061-.332-.076-.684-.718-1.297z"/><path fill="#A0041E" d="M31.323 21.879L1 30.029v-7.112S6.331 10.942 7.397 3.662C24.143 6.08 32.149 14.778 32.149 14.778l-.826 7.101z"/><path fill="#BE1931" d="M8.188 25.532c0 1.421-1.151 2.572-2.573 2.572s-2.573-1.151-2.573-2.572c0-1.422 1.151-2.573 2.573-2.573 1.421 0 2.573 1.151 2.573 2.573zm5-4c0 1.421-1.151 2.572-2.573 2.572s-2.573-1.151-2.573-2.572c0-1.422 1.151-2.573 2.573-2.573 1.421 0 2.573 1.151 2.573 2.573zm6 1c0 1.421-1.151 2.572-2.573 2.572s-2.573-1.151-2.573-2.572c0-1.422 1.151-2.573 2.573-2.573 1.421 0 2.573 1.151 2.573 2.573zm5-4c0 1.421-1.151 2.572-2.573 2.572s-2.573-1.151-2.573-2.572c0-1.422 1.151-2.573 2.573-2.573 1.421 0 2.573 1.151 2.573 2.573zm6 1c0 1.421-1.151 2.572-2.573 2.572s-2.573-1.151-2.573-2.572c0-1.422 1.151-2.573 2.573-2.573 1.421 0 2.573 1.151 2.573 2.573z"/><path fill="#F4900C" d="M32.096 13.498C27.647 9.24 15.601 4.328 7.775 3.582c-.221-.019-.435.114-.507.329 0 0-4.982 13.827-6.193 17.621C.9 22.08.99 22.79.99 22.829c0 .15.07.293.187.386.086.066.193.102.3.102.039 0 .079-.005.119-.014l30.797-7.747c.186-.047.326-.199.359-.389.06-.331-.015-1.055-.656-1.669z"/><path fill="#F4900C" d="M32.096 13.498C27.647 9.24 15.601 4.328 7.775 3.582c-.221-.019-.435.114-.507.329 0 0-6.278 17.61-6.278 17.918 0 .15.07.293.187.386.086.066.193.102.3.102.039 0 .079-.005.119-.014l30.194-7.739c.185-.047.326-.199.359-.389.06-.331.588-.063-.053-.677z"/><path fill="#FFCC4D" d="M9.65 20.239l-1.833-2.456 4.458-.527 1.436 1.942 5.584-1.431-.922-1.232 4.218-.499.571.772 5.571-1.456-.029-.039.325-.038 3.613-.944c-.099-.271-.262-.561-.546-.832-.612-.586-1.38-1.184-2.249-1.783l-3.569.355-1.941-2.595 1.416-.167c-3.435-1.761-7.531-3.361-11.415-4.435l1.437 1.944-4.348.432-1.67-2.234 3.527-.417c-1.951-.496-3.83-.857-5.509-1.017-.221-.019-.435.114-.507.329 0 0-1.376 3.586-2.768 7.741l3.453-.24 1.709 2.311-4.539.451-1.022-1.339c-.721 2.154-1.568 4.362-2.15 6.124l2.124 2.709 5.575-1.429zm8.62-10.047l1.842 2.491-4.301.428-1.806-2.415 4.265-.504z"/><path fill="#F4900C" d="M10.862 17.487c.807-.218 2.42-1.237 4.013-1.456 1.594-.219 3.531.617 4.108.549l2.313-.273c.516-.061 2.829-1.338 4.173-1.526 1.344-.188 3.145.762 3.791.584 0 0 .718.203 0 .294-.718.091-2.601-.645-3.646-.472-1.502.25-2.573 1.112-4.318 1.393-1.052.169-1.792.307-2.421.357-1.164.094-2.6-.779-4.069-.529-1.469.25-2.275 1.243-3.945 1.404-.989.096-.616-.158.001-.325zm-4.32 2.961c1.194-.278 2.57-.742 3.108-.21L6.959 21.27l-2.884.397c-.001.001.092-.666 2.467-1.219zm9.854-2.552c1.489-.356 2.464-.425 2.898-.129l-2.72 1.025-2.864.406c.001 0 .248-.719 2.686-1.302z"/><path fill="#F4900C" d="M25.708 15.583c1.082-.297 2.479-.438 2.833-.354 0 0 2.857-.741 3.991-.871 0 0-2.604.891-3.412 1.1-.808.208-5.901 1.616-5.959 1.35-.057-.266.881-.766 2.547-1.225z"/><path fill="#FFCC4D" d="M1.95 18.959s-.075-1.197.758-3.359 1.2-3.017 1.392-2.765c.192.252-.559 2.999-.851 3.665s-.757 2.04-.979 2.312c-.221.273-.32.147-.32.147zm2.55-7.308s.062-1.526.437-2.589S5.985 7.38 6.075 7.131c.09-.249.07-1.507.32-2.09s.758-1.711 1.379-1.46-1.395 4.315-1.636 5.127c-.242.813-1.638 2.943-1.638 2.943z"/><path fill="#F4900C" d="M6.862 11.487c.807-.218 2.419-1.237 4.013-1.456 1.594-.219 3.531.617 4.108.549l2.313-.273c.516-.061 2.829-1.338 4.173-1.526 1.344-.188 3.145.762 3.791.584 0 0 .718.203 0 .294-.718.091-2.601-.645-3.646-.472-1.502.25-2.573 1.113-4.318 1.393-1.052.169-1.792.307-2.421.357-1.164.094-2.6-.779-4.069-.529-1.469.25-2.275 1.243-3.945 1.404-.989.096-.616-.158.001-.325zm1.986 6.173c-.759.09-1.809-.775-3.703-.437-1.895.339-3.195 1.736-3.195 1.736l.122.573s-.48-.337.187-.544c.667-.207 1.366-1.232 2.991-1.407 1.625-.175 2.156.388 3.25.419 1.094.031.348-.34.348-.34zM28 15.235l1.579.092L30 15l-.281.89-1.313.405zM7.125 4.719c1.469-.406 2.426.322 3.489.196 1.063-.126 1.078.167.261.335s-2.86-.545-3.706-.269c-.846.276-.985 1.15-.985 1.15l.14-.874c-.001 0-.163-.272.801-.538zm1.971 9.059c2.06-.33 2.204-.847 3.748-1.154 1.406-.28 2.281.383 3.071.383 1.284 0 .892-.784.46-.6-.906.386-2.734-.712-4.531 0-.917.363-1.339.865-2.748 1.042-1.408.176-.738.448 0 .329zm10.372-1.031c.86-.085 2.188-.882 3.5-1.095 1.312-.214 2.487.5 3.309.419.822-.082.99-.524.348-.459s-2.281-.642-3.875-.33c-1.594.312-2.219.969-3.282 1.125-1.062.155-.644.404 0 .34zM3.262 14.192c.715-.188 1.459.236 2.239-.056.78-.292.832-.636.114-.448s-1.551-.135-2.192.12l-.161.384zm5.269-7.223c1.355-.061 2.104.358 3.067.262.962-.096.559-.341-.144-.302-.704.04-1.722-.429-3.182-.148s-1.387.572-2.517.817l-.255.36s.51-.105 1.083-.36c.573-.254 1.2-.596 1.948-.629zm7.031-.132c.887-.053 1.633-.706 2.582-.771l-.551-.19s-1.126.588-2.032.653c-.905.065-.937.364.001.308z"/></svg>