<svg xmlns="http://www.w3.org/2000/svg" viewBox="0 0 36 36"><path fill="#C1694F" d="M34.469 28.156c-.59-.885-2.458-2.365-4.5-2.656-2.112-.302-3.877.18-6.571-1.394-.086-.066-.171-.131-.273-.19-2.153-1.247-5.917-5.417-6-9.542-.047-2.336-3-2.625-5.375-2.333-2.375.292-10.083 2.083-9.792 3.25.248.991.224 5.316-.018 8.205-.366 2.27-.636 5.435-.636 7.44C1.303 31.599 2.333 32 2.333 32l14.198.5 17.688-.477s.933-.084.906-.711c-.042-.958-.156-2.406-.656-3.156z"/><path fill="#662113" d="M23.208 32.458c.75-1.333 2.375-2.417 4.75-2.583s5.792-2.531 5.792-2.531.969 0 1.531 2.031c.463 1.67-.406 2.094-.406 2.094s-3.542 1.99-5.875 1.615-5.792-.626-5.792-.626zM1.906 24.156s-1.125 3.656-.86 5.661c.181 1.369.573 2.351 1.376 2.58.803.229 9.5.066 9.328.009-.172-.057-1.097-4.124-4.594-5.156-3.497-1.032-5.25-3.094-5.25-3.094z"/><path fill="#292F33" d="M1.906 35.562c-.55 0-1.031-.438-1.156-1.938l-.031-.562c.156-2 .638.625 1.188.625.55 0 1 .45 1 1-.001.55-.451.875-1.001.875zm3.032.25c-.55 0-1-.45-1-1s.45-1 1-1 1 .45 1 1-.45 1-1 1zM8 36c-.55 0-1-.45-1-1s.45-1 1-1 1 .45 1 1-.45 1-1 1zm3.062-.156c-.55 0-1-.45-1-1s.45-1 1-1 1 .45 1 1-.449 1-1 1zM20 36c-.55 0-1-.45-1-1s.45-1 1-1 1 .45 1 1-.45 1-1 1zm3 0c-.55 0-1-.45-1-1s.45-1 1-1 1 .45 1 1-.45 1-1 1zm2.938-.125c-.55 0-1-.45-1-1s.45-1 1-1 1 .45 1 1-.451 1-1 1zm3.031-.187c-.55 0-1-.45-1-1s.45-1 1-1 1 .45 1 1c0 .549-.45 1-1 1zm3-.188c-.55 0-1-.45-1-1s.45-1 1-1 1 .45 1 1-.45 1-1 1zm2.962-.481h-.281c-.55 0-1-.606-1-1.156 0-.55.45-1 1-1s1.219-.675 1.219-.125l-.063 1.062c0 .55-.325 1.219-.875 1.219z"/><path fill="#662113" d="M2.167 16.042c-.713.366-.75-1.25-.083-2s6.25-1.75 7.625-2 4.042-.75 4.875-.083c.833.667 1 2.833.958 3.625-.042.791-3.084-.417-5.542-.667-2.323-.237-6.208.291-7.833 1.125z"/><circle fill="#292F33" cx="14.604" cy="18.583" r="1.5"/><circle fill="#292F33" cx="15.948" cy="21.781" r="1.5"/><circle fill="#292F33" cx="18.292" cy="24.458" r="1.5"/><circle fill="#292F33" cx="21.562" cy="25.938" r="1.5"/><circle fill="#292F33" cx="25" cy="26.823" r="1.5"/><path fill="#BE1931" d="M14.5 19.425c-.362 0-.69-.247-.777-.614-.103-.43.162-.861.592-.964l3.833-.917c.428-.105.861.162.964.592.103.43-.162.861-.592.964l-3.833.917c-.063.015-.126.022-.187.022zm1.5 3.187c-.288 0-.566-.155-.709-.429-.205-.392-.054-.875.337-1.08l3.542-1.854c.392-.203.874-.054 1.08.338.205.392.054.875-.338 1.08l-3.542 1.854c-.118.062-.245.091-.37.091zm2.25 2.688c-.225 0-.449-.095-.607-.278-.288-.335-.25-.84.085-1.128l2.958-2.542c.336-.288.84-.249 1.128.085.288.335.25.84-.085 1.128l-2.958 2.542c-.15.129-.336.193-.521.193zm3.332 1.5c-.125 0-.252-.029-.37-.091-.392-.205-.543-.688-.338-1.08l1.417-2.708c.205-.391.69-.541 1.08-.338.392.205.543.688.338 1.08l-1.417 2.708c-.143.273-.422.429-.71.429zm3.45.906c-.037 0-.074-.002-.112-.008-.438-.062-.742-.466-.681-.903l.386-2.739c.061-.438.462-.75.903-.681.438.062.742.466.681.903l-.386 2.739c-.055.401-.398.689-.791.689z"/><path fill="#292F33" d="M1.334 31.216c.787.175 2.201.662 4.591.7 2.755.044 5.187-.525 8.308-.525 2.991 0 6.9.848 10.319.7 3.487-.152 7.35-.652 8.192-.799 1.667-.292 2.438-.479 2.438-.479s.365-.021.531.688c.167.708.304 2.083-.841 2.427-2.186.656-7.554 1.113-12.724 1.049-2.626-.032-5.549-.81-6.966-.976-1.417-.167-2.667-.287-3.062 0-.396.287.089.792-.946.933-2.58.35-8.614.044-9.928-.516-.672-.286-1.051-3.455.088-3.202zm12.102-10.613c-.219 0-.421-.146-.482-.368l-.61-2.224c-.073-.266.084-.542.35-.615.264-.073.541.083.615.35l.61 2.225c.073.266-.084.541-.35.614-.045.012-.09.018-.133.018zm1.505 3.28c-.201 0-.39-.122-.467-.32l-.827-2.153c-.099-.258.03-.548.288-.646.257-.1.547.03.646.287l.827 2.153c.099.258-.03.548-.288.646-.059.022-.12.033-.179.033zm2.992 2.861c-.127 0-.254-.048-.352-.145l-1.639-1.622c-.196-.194-.198-.511-.004-.707s.511-.198.707-.004l1.639 1.622c.196.194.198.511.004.707-.098.099-.226.149-.355.149zm3.998 1.563c-.077 0-.155-.018-.228-.055l-2.053-1.051c-.246-.126-.344-.428-.218-.673.127-.246.431-.343.673-.218l2.053 1.051c.246.126.344.428.218.673-.089.173-.264.273-.445.273zm3.993.755c-.032 0-.065-.003-.098-.01l-2.263-.448c-.271-.054-.447-.316-.394-.587.054-.271.32-.45.587-.394l2.263.448c.271.054.447.316.394.587-.047.239-.256.404-.489.404z"/></svg>