<svg xmlns="http://www.w3.org/2000/svg" viewBox="0 0 36 36"><circle fill="#FFCC4D" cx="18" cy="18" r="18"/><path fill="#664500" d="M16 16.958c-.419 0-.809-.265-.949-.684-.203-.599-1.018-2.316-2.051-2.316-1.062 0-1.888 1.827-2.051 2.316-.175.523-.738.808-1.265.632-.524-.174-.807-.741-.632-1.265.125-.377 1.304-3.684 3.949-3.684s3.823 3.307 3.949 3.684c.175.524-.108 1.091-.632 1.265-.106.036-.213.052-.318.052zm10 0c-.419 0-.809-.265-.948-.684-.203-.599-1.019-2.316-2.052-2.316-1.062 0-1.889 1.827-2.052 2.316-.175.523-.736.808-1.265.632-.523-.174-.807-.741-.632-1.265.125-.377 1.304-3.684 3.948-3.684s3.823 3.307 3.948 3.684c.175.524-.108 1.091-.632 1.265-.104.036-.21.052-.315.052zm1.335 3.733c-.178-.161-.444-.171-.635-.029-.039.029-3.922 2.9-8.7 2.9-4.766 0-8.662-2.871-8.7-2.9-.191-.142-.457-.13-.635.029-.177.16-.217.424-.094.628.129.215 3.217 5.243 9.429 5.243s9.301-5.028 9.429-5.243c.123-.205.084-.467-.094-.628z"/><path fill="#FFAC33" d="M21.229 3.947c0 .24.03.472.082.696.425 2.643 3.364 5.431 5.47 6.197 1.665-.605 3.846-2.476 4.898-4.539C29.59 3.861 26.86 1.987 23.75.939c-1.432.257-2.521 1.502-2.521 3.008zm-7.486 25.131c.057-.242.09-.494.09-.754 0-1.833-1.486-3.319-3.319-3.319-1.113 0-2.094.549-2.697 1.389-.602-.839-1.584-1.389-2.697-1.389-1.241 0-2.311.689-2.88 1.698 1.824 3.295 4.65 5.957 8.068 7.574 1.637-1.351 3.131-3.307 3.435-5.199zm20.558-3.436c-.282-.95-1.152-1.647-2.194-1.647-.771 0-1.451.38-1.868.962-.417-.582-1.097-.962-1.868-.962-1.27 0-2.299 1.029-2.299 2.299 0 .18.023.354.062.522.307 1.905 2.348 3.896 3.909 4.561 1.776-1.6 3.231-3.547 4.258-5.735z"/><path fill="#DD2E44" d="M33.625 3.269c0-1.692-1.372-3.063-3.063-3.063-1.027 0-1.933.507-2.489 1.282C27.517.713 26.611.206 25.584.206c-1.692 0-3.063 1.371-3.063 3.063 0 .24.03.472.082.696.426 2.643 3.364 5.431 5.47 6.197 2.106-.766 5.044-3.554 5.469-6.196.053-.225.083-.457.083-.697zM12.208 28.408c0-1.833-1.486-3.319-3.319-3.319-1.113 0-2.094.549-2.697 1.389-.602-.84-1.584-1.389-2.697-1.389-1.833 0-3.319 1.486-3.319 3.319 0 .26.033.511.089.754.461 2.863 3.644 5.884 5.926 6.714 2.282-.829 5.465-3.85 5.926-6.713.058-.244.091-.496.091-.755zm23.74-2.281c0-1.27-1.029-2.299-2.299-2.299-.771 0-1.451.38-1.868.962-.417-.582-1.097-.962-1.868-.962-1.27 0-2.299 1.029-2.299 2.299 0 .18.023.354.062.522.319 1.983 2.524 4.076 4.105 4.65 1.58-.574 3.786-2.667 4.104-4.65.04-.168.063-.342.063-.522z"/></svg>