<svg xmlns="http://www.w3.org/2000/svg" viewBox="0 0 36 36"><path fill="#FFAC33" d="M22.88 33.097c-.098-.18-.25-.302-.418-.391C20.865 31 22 28.999 22 28.999c0-.553 1-2 0-2l-1 1c-1 1-1 4-1 4h-2c-.553 0-1 .447-1 1 0 .553.447 1 1 1h1.107l-.222.12c-.486.263-.667.869-.404 1.356.263.486.869.667 1.356.404l2.639-1.427c.486-.263.667-.869.404-1.355zm-7 0c-.097-.18-.25-.302-.417-.391C13.866 31 15 28.999 15 28.999c0-.553 1-2 0-2l-1 1c-1 1-1 4-1 4h-2c-.553 0-1 .447-1 1 0 .553.447 1 1 1h1.108l-.222.12c-.486.263-.667.869-.404 1.356.263.486.869.667 1.356.404l2.639-1.427c.485-.263.666-.869.403-1.355z"/><path fill="#BE1931" d="M5.134 7c2 5-3 5-2 7s5-2 3-7-1 0-1 0z"/><path fill="#FFAC33" d="M7 6c0 1.104 1.933 2 0 2S0 7 0 6s1.067-3 3-3 4 1.896 4 3z"/><path fill="#C1694F" d="M6 21C6 15 9.209 8 7 8 3 8 3 6.209 3 4s1.791-4 4-4c7 0 6 9 4 13-1.674 3.348-2.022 8-5 8z"/><path fill="#31373D" d="M36 17c0 7.959-5 11.3-10 11.249C23.966 30.045 21.073 31 18 31c-6.627 0-12-4.836-12-10.8 0-5.965 5.373-10.8 12-10.8 3-2.7 7-6.5 10-7.4 6 3.6 8 7.8 8 15z"/><circle fill="#292F33" cx="6" cy="3" r="1"/><path fill="#66757F" d="M17.984 9.4c-1.626.002-3.174.297-4.585.829 3.914-.229 6.351-.042 9.602 1.552-.923-1.515-3.392-2.381-5.017-2.381zm17.942 5.435c-.086-1.278-.254-2.456-.52-3.545-6.25 1.272-3.404 3.545.52 3.545zm-1.985-7.223c-.676-1.154-1.541-2.205-2.623-3.186-7.162 3.574-3.006 4.73 2.623 3.186zm1.212 14.473c-3.402-1.085-4.247.821-2.215 3.415-2.5-2.344-4.031-1.062-3.344 2-1.469-2.188-2.969-.208-3.594.749 3.761.038 7.52-1.844 9.153-6.164zM31.315 4.424C30.378 3.574 29.286 2.771 28 2c-7 3.688-2 4.406 3.315 2.424zm3.838 17.66C35.691 20.66 36 18.973 36 17c0-.755-.027-1.471-.074-2.163-4.61.382-3.801 2.882.006 3.351-3.557.062-4.181 2.25-.779 3.896zm-1.21-14.469c-6.427 2.385-3.693 4.291 1.462 3.673-.328-1.344-.808-2.557-1.462-3.673z"/></svg>