<svg xmlns="http://www.w3.org/2000/svg" viewBox="0 0 36 36"><path fill="#66757F" d="M23 21c0 6.352-3 10-5 10s-5-3.648-5-10 2.239-7 5-7c2.762 0 5 .648 5 7z"/><circle fill="#66757F" cx="18" cy="11" r="4"/><path fill="#66757F" d="M14 11c-2-5 1-7 1-7s2 1 2 4-3 3-3 3z"/><path fill="#546066" d="M14.668 9.904c-.776-2.457-.119-3.896.403-4.58C15.486 5.773 16 6.608 16 8c0 1.268-.739 1.734-1.332 1.904z"/><path fill="#66757F" d="M22 11c2-5-1-7-1-7s-2 1-2 4 3 3 3 3zm-5.984 3c-1.62 1.157-10 2-9-5 .142-.99-1-1-2 0-3 3-6 7.834-4 20 3-5 6-4 7 1 3-4 6-2 8 0 3-3 0-16 0-16zm3.937 0c1.62 1.157 10 2 9-5-.142-.99 1-1 2 0 3 3 6 7.834 4 20-3-5-6-4-7 1-3-4-6-2-8 0-3-3 0-16 0-16z"/><circle fill="#292F33" cx="16" cy="11" r="1"/><circle fill="#292F33" cx="20" cy="11" r="1"/><path fill="#546066" d="M21.332 9.904c.775-2.457.118-3.896-.403-4.58C20.514 5.773 20 6.608 20 8c0 1.268.739 1.734 1.332 1.904z"/><path fill="#99AAB5" d="M7.996 26.91c.892-2.691.573-5.988-.996-9.91-1.487-3.719-1.315-6.329-1.129-7.423-.049.041-.096.078-.148.13C3.017 12.414.477 16.531 1.66 26.436c1.276-1.379 2.412-1.723 3.228-1.723 1.265 0 2.333.783 3.108 2.197z"/><path fill="#99AAB5" d="M6.832 13.25c-.019-.03-.041-.058-.06-.087C7 16 8.4 17.001 9 20c.588 2.94.476 5.519.088 7.564.839-.571 1.726-.874 2.656-.874 1.264 0 2.548.538 3.895 1.627C14 19 9 17 6.832 13.25zm21.172 13.66c-.893-2.691-.572-5.988.996-9.91 1.487-3.719 1.315-6.329 1.129-7.423.049.041.097.078.148.13 2.706 2.707 5.246 6.824 4.063 16.729-1.275-1.379-2.412-1.723-3.227-1.723-1.266 0-2.334.783-3.109 2.197z"/><path fill="#99AAB5" d="M29.168 13.25l.061-.087C29 16 27.6 17.001 27 20c-.588 2.94-.477 5.519-.088 7.564-.84-.571-1.726-.874-2.656-.874-1.264 0-2.548.538-3.895 1.627C22 19 27 17 29.168 13.25zm-10.48-.144c-.378.378-.998.378-1.375 0l-.57-.571c-.378-.378-.25-.688.285-.688h1.945c.535 0 .664.309.285.688l-.57.571z"/></svg>