<svg xmlns="http://www.w3.org/2000/svg" viewBox="0 0 36 36"><path fill="#C1CDD5" d="M36 19.854C33.518 9.923 25.006 1.909 16.031 6.832c0 0-4.522-1.496-5.174-1.948-.635-.44-1.635-.904-.912.436.423.782.875 1.672 2.403 3.317C8 12.958 9.279 18.262 7.743 21.75c-1.304 2.962-2.577 4.733-1.31 6.976 1.317 2.33 4.729 3.462 7.018 1.06 1.244-1.307.471-1.937 3.132-4.202 2.723-.543 4.394-1.791 4.394-4.375 0 0 .795-.382 1.826 6.009.456 2.818-.157 5.632-.039 8.783H36V19.854z"/><path fill="#60379A" d="M31.906 6.062c.531 1.312.848 3.71.595 5.318-.15-3.923-3.188-6.581-4.376-7.193-2.202-1.137-4.372-.979-6.799-.772.111.168.403.814.32 1.547-.479-.875-1.604-1.42-2.333-1.271-1.36.277-2.561.677-3.475 1.156-.504.102-1.249.413-2.372 1.101-1.911 1.171-4.175 4.338-6.737 3.511 1.042 2.5 3.631 1.845 3.631 1.845 1.207-1.95 4.067-3.779 6.168-4.452 7.619-1.745 12.614 3.439 15.431 9.398.768 1.625 2.611 7.132 4.041 10.292V10.956c-.749-1.038-1.281-3.018-4.094-4.894z"/><path fill="#C1CDD5" d="M13.789 3.662c.573.788 3.236.794 4.596 3.82 1.359 3.026-1.943 2.63-3.14 1.23-1.334-1.561-1.931-2.863-2.165-3.992-.124-.596-.451-2.649.709-1.058z"/><path fill="#758795" d="M14.209 4.962c.956.573 2.164 1.515 2.517 2.596.351 1.081-.707.891-1.349-.042-.641-.934-.94-1.975-1.285-2.263-.346-.289.117-.291.117-.291z"/><circle fill="#292F33" cx="15.255" cy="14.565" r=".946"/><path fill="#53626C" d="M8.63 26.877c.119.658-.181 1.263-.67 1.351-.49.089-.984-.372-1.104-1.03-.119-.659.182-1.265.671-1.354.49-.088.984.373 1.103 1.033z"/><path fill="#EE7C0E" d="M13.844 8.124l.003-.002-.005-.007-.016-.014c-.008-.007-.011-.019-.019-.025-.009-.007-.021-.011-.031-.018C12.621 7.078.933-.495.219.219-.51.948 10.443 9.742 11.149 10.28l.011.006.541.439c.008.007.01.018.018.024.013.01.028.015.042.024l.047.038-.009-.016c.565.361 1.427.114 1.979-.592.559-.715.577-1.625.066-2.079z"/><path fill="#C43512" d="M4.677 2.25l.009-.025c-.301-.174-.594-.341-.878-.5-.016.038-.022.069-.041.11-.112.243-.256.484-.429.716-.166.224-.349.424-.541.595-.02.018-.036.026-.056.043.238.22.489.446.745.676.234-.21.456-.449.654-.717.214-.287.395-.589.537-.898zm2.275 2.945c.306-.41.521-.822.66-1.212-.292-.181-.584-.36-.876-.538-.076.298-.247.699-.586 1.152-.31.417-.613.681-.864.845.259.223.52.445.779.665.314-.244.619-.552.887-.912zM9.87 7.32c.365-.49.609-.983.734-1.437l-.906-.586c-.023.296-.172.81-.631 1.425-.412.554-.821.847-1.1.978l.814.671c.381-.256.761-.611 1.089-1.051z"/></svg>