<svg xmlns="http://www.w3.org/2000/svg" viewBox="0 0 36 36"><path fill="#3E721D" d="M15.66 6.844c.485-2.03.384-3.139-.553-3.677-.936-.537.337-2.666 1.977-.793 1.641 1.873 1.428 3.618.662 4.853-.767 1.234-2.336.66-2.086-.383zm-.48 2.951c-.916 1.877-1.699 2.668-2.764 2.487-1.064-.18-1.435 2.272 1.023 1.869 2.457-.403 3.401-1.886 3.595-3.326.193-1.44-1.383-1.994-1.854-1.03zm11.336 6.261c-2.072-1.377-5.382 1.43-5.699 2.28-.317.85 1.721 3.461 1.146 4.94-.577 1.477 1.142 1.768 1.92.491.778-1.278.304-3.612.156-4.169-.148-.557 2.189-1.219 3.671-.037 1.481 1.18-.323-2.925-1.194-3.505zm1.068-.818c-1.546-1.949.975-5.482 1.794-5.87.821-.387 2.572.402 3.997-.295 1.424-.697 1.745.854.65 1.874-1.227 1.142-2.241 1.335-3.119 1.526-.563.122-.032 2.033-.009 3.97.023 1.799-2.663-.385-3.313-1.205z"/><path fill="#3E721D" d="M15.319 3.167c0 .4-.324.724-.724.724-.399 0-.724-.324-.724-.724 0-.399.324-.724.724-.724.4 0 .724.325.724.724zm-2.999 8.897c0 .399-.324.724-.724.724-.399 0-.724-.324-.724-.724 0-.399.324-.724.724-.724.4 0 .724.324.724.724zm-.298 1.677c0 .4-.324.724-.724.724-.399 0-.724-.324-.724-.724 0-.399.324-.724.724-.724.4 0 .724.324.724.724zm1.447.724c0 .399-.324.724-.724.724-.399 0-.724-.324-.724-.724 0-.4.324-.724.724-.724.4 0 .724.324.724.724zm8.575 8.848c.128.378-.073.791-.452.92-.377.129-.789-.075-.918-.453s.072-.79.45-.919c.379-.129.791.074.92.452zm.772 1.268c.128.378-.073.79-.452.919-.377.128-.789-.074-.918-.452-.129-.377.073-.79.451-.918.379-.13.791.073.919.451zm1.627-.24c.13.377-.073.79-.452.919-.376.129-.788-.074-.917-.451-.129-.378.073-.791.45-.919.379-.13.791.073.919.451zm9.803-15.752c0 .399-.325.724-.725.724s-.724-.325-.724-.724c0-.399.324-.725.724-.725s.725.326.725.725zm1.504.725c0 .399-.324.724-.725.724-.398 0-.723-.325-.723-.724s.324-.724.723-.724c.401-.001.725.325.725.724zm-.346 1.716c0 .399-.324.724-.725.724-.399 0-.724-.325-.724-.724 0-.399.324-.724.724-.724.401 0 .725.325.725.724zM15.512 1.618c0 .399-.324.724-.724.724-.399 0-.724-.324-.724-.724 0-.4.324-.724.724-.724.4 0 .724.324.724.724zm1.571-.469c0 .4-.324.724-.724.724-.399 0-.724-.324-.724-.724 0-.399.324-.724.724-.724.4.001.724.325.724.724z"/><path fill="#3E721D" d="M.208 5.652C.472 4.599 4.865.929 8.85 1.618c2.024.351 2.942 3.354 5.102 3.428 11.289.389 22.272 11.138 18.847 21.391-1.506 4.507-5.618 8.798-15.461 5.001-1.956-.754-3.97-1.985-7.824-1.227-2.852.563-3.149 3.159-2.803 4.497.272 1.048-.161 1.582-.701.759-1.226-1.867-1.317-4.347.643-5.955 3.912-3.211 9.248-1.284 13.137-.059 6.481 2.044 9.917-3.651 6.346-10.315-3.503-6.54-9.812-8.324-14.005-8.816-1.168-.137-3.639 2.048-5.367 1.742C3.143 11.421.018 6.416.208 5.652z"/><path fill="#77B255" d="M.208 5.652C.472 4.599 4.865.929 8.85 1.618c2.024.351 2.942 3.354 5.102 3.428 11.289.389 22.272 11.138 18.847 21.391-1.506 4.507-5.618 8.798-15.461 5.001-1.956-.754-3.97-1.985-7.824-1.227-2.852.563-3.149 3.159-2.803 4.497.134.516.097.906-.039 1.073-.922-1.281-1.362-4.339.661-5.864 3.539-2.667 8.568-.131 13.301 1.042 10.251 2.541 12.183-7.995 7.907-14.875C23.355 7.736 7 5.75.208 5.652z"/><circle fill="#292F33" cx="7" cy="3" r="1"/><circle fill="#292F33" cx="6" cy="10" r="1"/></svg>