<svg xmlns="http://www.w3.org/2000/svg" viewBox="0 0 36 36"><path fill="#3E701E" d="M12.45 21.329s-2.459 4.086-1.78 5.652c.409.945 1.123 2.064 2.389 2.271.423.069.623.898.501 1.505-.139.686-.621 1.646-.886 2.132-.265.487-.777.481-1.411 1.041-.442.39-.597 1.075.153 1.082l3.545.029c.664.006 1.093-.398 1.24-1.067.204-.928.76-4.461.551-5.146-.15-.491-.667-.886-.995-1.835-.243-.703.343-1.803.343-1.803l-3.65-3.861zm-5.748-5.571s.824-.146 1.272-.061c.448.086 1.705 1.019 2.085 1.16.38.141 1.299-.075 1.299-.075s1.065 1.436.995 1.581c-.07.145-1.617.47-1.981.579-.363.109-1.755-2.081-2.146-2.327s-.98.359-1.373.341c-.392-.018-.282-.298-.005-.374 0 0-.467.157-.483-.019-.016-.176.388-.281.388-.281s-.409.146-.475-.026c-.064-.172.063-.38.424-.498z"/><path fill="#5C913A" d="M26.724 30.309c-1.101-2.09-6.263-4.52-7.324-5.413-1.061-.894-3.012-6.693-4.634-7.756-1.161-.76-1.624-2.415-1.942-3.968-.126-.617-1.672-1.333-1.787-1.855-.295.505-3.17 2.043-1.624 2.459 1.384.372.367 4.27 1.865 6.728.907 1.487.991 3.889 3.095 6.033 2.038 2.077 6.383 1.324 8.357 4.051 3.533 4.88 9.644 4.87 12.129 1.469 0 0-2.543.77-4.135.733-1.685-.039-3.003-.59-4-2.481z"/><path fill="#77B155" d="M14.136 21.625s-1.471 3.333-.728 5.108c.687 1.643 2.359 2.952 3.897 3.472.374.126 1.093.116 1.268.658s-.164 2.343-.408 2.791c-.244.448-1.532.685-1.799 1.506-.1.307-.303.749.281.803.687.063 4.266.026 4.877.032.611.005.765-.474.771-1.104.003-.398-.688-2.39-.39-3.803.176-.835.526-1.626 1.002-2.334 1.001-1.489.044-1.661-1.351-1.661-2.176 0-4.34-.611-4.34-.611l-3.08-4.857zm-7.892-3.142s.78-.424 1.26-.489c.48-.064 2.057.452 2.488.466.43.014 1.69-.85 1.69-.85s1.146 1.425 1.124 1.595c-.022.169-1.469 1.016-1.798 1.248-.329.232-2.143-1.459-2.619-1.575-.476-.116-1.188.646-1.588.76-.401.114-.384-.205-.13-.375 0 0-.417.315-.493.144-.075-.171.296-.413.296-.413s-.362.285-.486.133c-.125-.152-.067-.403.256-.644z"/><path fill="#292E32" d="M10.64 8.102c.111.194-1.26 1.786-1.677 2.011-.243.134-.797.086-1.34.037.723-.302.527-.751.202-1.164.256.086.459.144.559.139.409-.034 1.941-1.616 2.256-1.023z"/><path fill="#77B155" d="M8.957 11.055c-.543.142-1.212 0-1.527-.242-.251-.176-.294-.414.075-.606.029-.012.058-.033.098-.046.01-.001.009-.011.019-.011.544.049 1.098.097 1.34-.037.418-.224 1.789-1.817 1.677-2.011-.315-.593-1.847.988-2.256 1.022-.1.006-.304-.053-.559-.138-.14-.182-.3-.353-.429-.506 0 0 .341-.691 1.34-1.26.999-.569 2.665-.174 3.275.502.611.677-2.066 3.076-3.053 3.333z"/><path fill="#77B155" d="M9.026 13.803c-.517-.212-.677-.371-1.116-.716-.294-.23-.706-.445-1.239-.394-1.266.121-3.474.638-3.893.322-.419-.316-.65-1.195-.348-1.343.029-.012.088-.035.157-.059l.002.03s-.043.984.34 1.032c.384.058 3.315-1.234 4.009-1.544.235-.104.388-.223.493-.319.315.242.984.384 1.527.242.987-.257 3.664-2.657 3.054-3.333-.612-.675-2.278-1.069-3.277-.501-.999.569-1.34 1.26-1.34 1.26.129.153.289.324.43.506-.326-.101-.726-.258-1.115-.406.174-.281.335-.611.335-.611s-1.175-.573-1.921-.48c-.747.093-3.918.527-4.224.775-.297.238.251 1.058.251 1.058.034.068.068.126.102.194-.159.019-.278.036-.339.03C.43 9.494.101 7.789.318 7.216c.227-.574 1.215-2.044 2.726-2.763 1.521-.729 2.342-.794 2.756-1.249.111-.119.126-.476.654-.638.571-.175 1.549-.12 2.291-.797 2.216-2.022 2.556-.636 3.865-.205 1.648.543 2.54-.56 3.956 3.137 1.092 2.851-.663 4.345 1.291 6.132 0 0 1.667 1.543 2.941 2.195 8.734 4.467 5.016 13.718 9.487 17.011 4.08 3.005 4.782-1.706 3.977-3.145-.136-.242.114-.59.481-.243.892.841 1.169 2.697.918 3.855-.66 3.052-3.498 3.58-6.268 3.231-4.426-.557-6.575-7.672-10.763-5.514-2.202 1.135-3.547-3.743-5.097-6.071-1.371-2.058-3.049-7.104-3.33-8.034-.044-.149-.632-.092-1.177-.315z"/><path fill="#F4900C" d="M7.045 7.969s-.161.33-.335.611c-.13.188-.251.345-.34.37-.07.004-.146-.282-.192-.55l-.01.001-.067-.467s-.028.202-.066.424c-.073.285-.175.602-.314.62-.06.003-.262-.366-.408-.638-.079-.156-.136-.273-.136-.273s-.002.14-.012.321c-.013.292-.03.694-.089.707-.06.004-.268-.305-.412-.547l-.145-.252-.003.291c-.003.3-.019.722-.078.745-.07.004-.3-.333-.464-.574-.078-.136-.143-.232-.143-.232s-.003.12-.024.282c-.013.301-.058.735-.137.749-.08.005-.289-.324-.434-.576-.1-.165-.168-.301-.168-.301s.019.159.03.349c.037.298.061.708-.028.733-.088.035-.349-.32-.515-.581-.098-.145-.175-.271-.175-.271s.027.129.057.297c.047.298.092.726.014.761-.078.035-.32-.342-.487-.623l-.001-.01c-.1-.165-.178-.3-.178-.3l.02.35c.017.3.02.7-.038.734-.078.045-.292-.204-.516-.601-.032-.07-.066-.128-.1-.196 0 0-.548-.82-.251-1.058.306-.248 3.478-.682 4.224-.775.746-.093 1.921.48 1.921.48zm.574 2.472s-.001.16-.189.372c-.105.096-.258.215-.493.319-.693.311-3.625 1.602-4.009 1.544-.384-.048-.34-1.032-.34-1.032l-.002-.03c-.052-.558.004-.972.114-.979.09-.005.348.641.409.828.012.029.023.049.023.049s-.001-.02.006-.06c.017-.221.101-1.028.22-1.045.12-.007.308.654.362.891.013.049.025.079.025.079s-.002-.03.015-.091c.026-.252.113-.988.232-1.015.119-.027.315.593.39.849l.036.108s.008-.041.013-.121c.043-.293.139-1.06.238-1.086.098-.046.372.71.443.896.012.029.012.039.012.039l-.003-.05c.018-.211.052-1.005.151-1.021.07-.004.305.423.442.706.068.136.114.234.114.234s.001-.15-.009-.33c.002-.291.001-.661.06-.675.04-.002.172.2.294.404.133.223.257.446.257.446s.003-.301.018-.562c.01-.181.03-.342.059-.364.039-.022.159.151.26.346.121.193.224.408.224.408s.009-.191.047-.394c.02-.181.059-.364.107-.407.057-.053.213.218.326.442.022.029.033.048.034.068.068.137.114.234.114.234z"/><path fill="#77B155" d="M2.437 9.208c-.167.059-.325.098-.473.127l.001.01-.159.039c-.217.063-.405.104-.553.132-.034-.068-.068-.126-.102-.194 0 0-.548-.82-.251-1.058.306-.248 3.478-.682 4.224-.775.746-.093 1.921.48 1.921.48s-.161.33-.335.611c-.184-.06-.369-.129-.532-.18l-.01.001c-.051-.017-.091-.025-.133-.043-.234-.066-.426-.105-.525-.079-.04.012-.109.026-.197.061-.039.012-.089.025-.148.049-.138.038-.305.087-.501.159l-.148.038c-.168.05-.344.11-.541.172-.049.013-.108.036-.168.05-.187.061-.384.122-.571.173-.05.013-.099.026-.138.048-.187.051-.365.101-.542.152-.039.012-.079.024-.119.027zm2.66-4.262c2.271-.762 1.011-1.05 2.169-1.658.613-.317 1.458-.255 1.614.187.159.502.118 1.175-1.072 1.575-.688.23-2.711-.104-2.711-.104zm3.86 6.109c-.543.142-1.212 0-1.527-.242-.105.096-.258.215-.493.319-.693.311-3.625 1.602-4.009 1.544-.384-.048-.34-1.032-.34-1.032l-.002-.03.522-.15c.01-.001.02-.001.029-.012.178-.05.375-.102.582-.154.01-.001.03-.002.039-.012.207-.052.424-.115.622-.166.02-.001.03-.002.049-.013.267-.066.503-.139.68-.19l.009-.011c.049-.013.099-.026.138-.038.187-.061.321-.169.455-.277.038-.032.066-.064.105-.096.114-.107.219-.203.355-.271.077-.055.165-.09.274-.116.049-.013.099-.016.159-.019.05-.003.1-.006.16.001.08.005.171.01.271.014.13.002.282.024.433.035.05.007.101.014.151.011.544.049 1.098.097 1.34-.037.418-.224 1.789-1.817 1.677-2.011-.315-.593-1.847.988-2.256 1.022-.1.006-.304-.053-.559-.138-.137-.182-.297-.353-.426-.506 0 0 .341-.691 1.34-1.26.999-.569 2.665-.174 3.275.502.611.677-2.066 3.076-3.053 3.333z"/><path fill="#3E701E" d="M7.808 5.05c-.688.23-2.711-.104-2.711-.104 2.271-.762 1.011-1.05 2.169-1.658.613-.317 1.458-.255 1.614.187.159.502.118 1.175-1.072 1.575z"/><circle fill="#292F33" cx="7.647" cy="4.11" r=".484"/><g fill="#3E701E"><path d="M20.363 14.538c-.127.245-.429.34-.674.213-.245-.127-.34-.429-.213-.674.127-.245.429-.34.674-.213.245.127.34.429.213.674zm1.246 3.151c-.181.349-.611.484-.96.303s-.484-.611-.303-.96.611-.484.96-.303c.349.182.484.612.303.96zm.537-2.21c-.096.185-.325.258-.51.161s-.258-.325-.161-.511.325-.258.511-.161.257.326.16.511zm1.062 1.438c-.091.175-.307.244-.483.152-.175-.091-.244-.307-.152-.483.091-.175.307-.243.483-.152.175.092.243.308.152.483zm3.005 7.533c-.069.133-.233.185-.366.116s-.185-.233-.116-.366c.069-.133.233-.185.366-.115s.185.232.116.365zm-1.216-5.37c-.169.324-.568.45-.893.282-.324-.169-.45-.568-.282-.893.169-.324.568-.45.893-.282.325.169.451.569.282.893z"/><circle cx="24.35" cy="23.682" r=".424"/><circle cx="22.836" cy="18.997" r=".424"/><circle cx="25.621" cy="22.387" r=".424"/><circle cx="24.04" cy="21.036" r=".627"/></g></svg>