<svg xmlns="http://www.w3.org/2000/svg" viewBox="0 0 36 36"><path fill="#31373D" d="M15.245 11c-2.036 0-4.296-.088-5.354-1.146-.585-.586-.361-1.687-.124-2.852.152-.75.383-1.883.12-2.153-.205-.209-1.078-.664-1.849-1.065-1.187-.617-2.533-1.317-3.147-1.93-.195-.195-.195-.512 0-.707s.512-.195.707 0c.505.505 1.833 1.195 2.901 1.75 1.108.576 1.802.945 2.104 1.254.633.649.396 1.815.145 3.05-.133.651-.354 1.74-.149 1.945.853.854 3.415.854 4.646.854.276 0 .5.224.5.5s-.224.5-.5.5zM1.244 26c-.075 0-.151-.017-.223-.053-.247-.124-.347-.424-.224-.671.896-1.791 3.218-3.082 4.465-3.775.315-.176.559-.308.679-.398.079-.15.215-1.123.325-1.904.284-2.025.605-4.32 1.685-5.103 2.917-2.117 7.71-2.092 8.188-1.499l.298.371-.36.351c-.191.17-.479.166-.666-.001-.759-.146-4.4-.206-6.873 1.588-.735.533-1.064 2.88-1.281 4.432-.226 1.608-.332 2.273-.709 2.561-.159.121-.428.271-.799.478-1.153.641-3.299 1.834-4.057 3.349-.088.172-.264.274-.448.274z"/><path fill="#31373D" d="M5.245 36c-.184 0-.36-.102-.448-.276-.124-.247-.023-.547.224-.671.582-.365 4.724-5.776 4.724-7.553 0-1.126-.343-2.984-.619-4.478-.213-1.152-.381-2.062-.381-2.522 0-1.315 4.287-5.524 6.29-6.454.25-.116.548-.007.664.243.116.25.007.548-.243.664-1.926.894-5.629 4.774-5.711 5.553 0 .361.177 1.319.365 2.334.283 1.533.636 3.441.636 4.659 0 2.146-4.355 7.986-5.276 8.447-.074.037-.15.054-.225.054zm15.51-25c-.276 0-.5-.224-.5-.5s.224-.5.5-.5c1.231 0 3.793 0 4.646-.854.206-.206-.016-1.295-.148-1.946-.251-1.235-.488-2.401.144-3.05.302-.309.996-.678 2.104-1.254 1.067-.555 2.396-1.246 2.9-1.75.195-.195.512-.195.707 0s.195.512 0 .707c-.613.614-1.959 1.313-3.146 1.931-.771.401-1.645.855-1.85 1.065-.263.27-.032 1.402.12 2.152.237 1.166.462 2.267-.124 2.853C25.051 10.912 22.79 11 20.755 11zm14 15c-.183 0-.359-.102-.447-.276-.757-1.515-2.903-2.708-4.058-3.35-.371-.206-.64-.355-.798-.477-.377-.288-.483-.951-.709-2.559-.218-1.553-.546-3.9-1.282-4.434-2.471-1.793-6.112-1.734-6.873-1.587-.187.167-.474.171-.666 0-.198-.177-.228-.514-.061-.721.476-.595 5.272-.617 8.188 1.499 1.079.783 1.401 3.079 1.685 5.105.109.78.246 1.752.374 1.951.07.042.313.174.629.349 1.248.694 3.57 1.985 4.466 3.776.123.247.023.548-.224.671-.073.036-.149.053-.224.053z"/><path fill="#31373D" d="M30.744 35.998c-.071 0-.144-.017-.213-.051-.922-.462-5.276-6.301-5.276-8.447 0-1.218.353-3.126.636-4.659.188-1.015.364-1.973.364-2.341-.081-.772-3.784-4.652-5.711-5.546-.25-.116-.358-.414-.242-.664.115-.251.413-.359.664-.243 2.002.929 6.289 5.138 6.289 6.454 0 .46-.168 1.37-.381 2.522-.275 1.493-.619 3.352-.619 4.478 0 1.775 4.143 7.188 4.734 7.559.227.142.316.445.186.678-.092.163-.258.26-.431.26z"/><circle cx="15" cy="7" r="1"/><circle cx="21" cy="7" r="1"/><path fill="#66757F" d="M17 6s.438-6 1-6 1 6 1 6h-2z"/><path fill="#66757F" d="M21 8c0 1.657-1.757 2-3 2s-3-.343-3-2 1.757-3 3-3 3 1.343 3 3zm2 14c0 2.761-2.239 10-5 10s-5-7.239-5-10 2.239-8 5-8 5 5.239 5 8z"/><ellipse fill="#66757F" cx="18" cy="12.5" rx="4" ry="3.5"/><path fill="#CCD6DD" d="M20 11s13 2 15 3-3 4-7 3c-4.947-1.237-10-6-8-6z"/><path fill="#E1E8ED" d="M20 11s13 2 15 3-3 1-7 0c-4.947-1.237-10-3-8-3z"/><path fill="#CCD6DD" d="M16.007 11s-13 2-15 3 3 4 7 3c4.947-1.237 10-6 8-6z"/><path fill="#E1E8ED" d="M16.007 11s-13 2-15 3 3 1 7 0c4.947-1.237 10-3 8-3z"/></svg>