<svg xmlns="http://www.w3.org/2000/svg" viewBox="0 0 36 36"><g fill="#BE1931"><path d="M14.847 22.402h-.064c-2.117-.069-4.919-1.006-6.246-5.077-.135-.413.089-.864.503-.999.414-.135.857.085.992.499l.003.011c.312.959 1.263 3.876 4.8 3.991.435.015.776.378.762.812-.014.415-.344.743-.75.763zm-5.348 5.637c.151-.221.411-.359.698-.342 3.034.181 4.578-1.938 5.086-2.634.256-.352.749-.429 1.1-.173.352.256.414.747.173 1.1-1.698 2.33-3.869 3.434-6.453 3.28-.434-.026-.766-.399-.74-.834.01-.148.059-.284.136-.397z"/><path d="M14.362 23.967c.421-.064.767-.141 1.022-.2l.179-.04c.426-.092.695-.511.603-.937-.092-.425-.515-.698-.937-.603l-.193.043c-1.087.245-3.635.824-6.463-1.149-.357-.248-.849-.161-1.096.195-.249.357-.161.848.195 1.096 2.665 1.86 5.165 1.826 6.69 1.595z"/><path d="M15.403 25.298c.376-.199 1.053-.624 1.053-.624.371-.228.487-.712.259-1.084-.227-.37-.718-.488-1.084-.259l-.168.105c-.944.591-3.156 1.981-6.479 1.057-.419-.116-.854.129-.97.548-.117.419.129.854.548.97 3.131.87 5.479.009 6.841-.713z"/></g><g fill="#BE1931"><path d="M21.833 22.402h.064c2.117-.069 4.919-1.006 6.246-5.077.135-.413-.089-.864-.503-.999-.414-.135-.857.085-.992.499l-.003.011c-.312.959-1.263 3.876-4.8 3.991-.435.015-.776.378-.762.812.015.415.344.743.75.763zm5.348 5.637c-.151-.221-.411-.359-.698-.342-3.034.181-4.578-1.938-5.086-2.634-.256-.352-.749-.429-1.1-.173-.352.256-.414.747-.173 1.1 1.698 2.33 3.869 3.434 6.453 3.28.434-.026.766-.399.74-.834-.009-.148-.058-.284-.136-.397z"/><path d="M22.318 23.967c-.421-.064-.767-.141-1.022-.2l-.179-.04c-.426-.092-.695-.511-.603-.937.092-.425.515-.698.937-.603l.193.043c1.087.245 3.635.824 6.463-1.149.357-.248.849-.161 1.096.195.249.357.161.848-.195 1.096-2.664 1.86-5.165 1.826-6.69 1.595z"/><path d="M21.277 25.298c-.376-.199-1.053-.624-1.053-.624-.371-.228-.487-.712-.259-1.084.227-.37.718-.488 1.084-.259l.168.105c.944.591 3.156 1.981 6.479 1.057.419-.116.854.129.97.548.117.419-.129.854-.548.97-3.131.87-5.479.009-6.841-.713z"/></g><path fill="#BE1931" d="M8.983 6.922c.752-.779 2.316-2.461 1.59-3.954.949.077 6.757 6.159-.06 9.073-1.072-.137-1.53-5.119-1.53-5.119zm8.772 23.394c-.726.329-4.25 2.171-4.354 5.46.069.789 2.73-1.25 5.01-1.25v-3.454l-.656-.756z"/><path fill="#BE1931" d="M19.035 30.316c.726.329 4.25 2.171 4.354 5.46-.069.789-2.73-1.25-5.01-1.25v-3.454l.656-.756zm-11.4-18.303c.133 1.429 2.975 2.889 5.023 3.227.262-.57-1.354-2.237-2.227-3.246-.488-.564-.701-1.904-2.185-1.321s-.611 1.34-.611 1.34z"/><path fill="#BE1931" d="M11.742 13.793c-.655 0-.83 1.754 2.489 2.544s1.56-.878 1.048-1.667c-.656-1.009-3.537-.877-3.537-.877z"/><path fill="#89021F" d="M15.465 25.382c-.187.987-.075 6.217 2.961 6.612v-7.006l-2.961.394z"/><path fill="#BE1931" d="M27.629 6.922c-.752-.779-2.316-2.461-1.59-3.954-.949.077-6.757 6.159.06 9.073 1.072-.137 1.53-5.119 1.53-5.119z"/><path fill="#BE1931" d="M28.976 12.013c-.133 1.429-2.975 2.889-5.023 3.227-.262-.57 1.354-2.237 2.227-3.246.488-.564.701-1.904 2.185-1.321s.611 1.34.611 1.34z"/><path fill="#BE1931" d="M24.87 13.793c.655 0 .83 1.754-2.489 2.544s-1.56-.878-1.048-1.667c.655-1.009 3.537-.877 3.537-.877z"/><path fill="#DD2E44" d="M28.391.042c2.633.67 4.675 5.092 4.174 7.847-.782 4.302-2.992 5.787-5.428 6.164-.748-.058-3.293-3.474-.576-6.272s2.505-5.856 1.83-7.739z"/><path fill="#BE1931" d="M17.541 12.5c-.258 0-.478-.199-.498-.461-.498-6.35-2.635-10.064-6.018-10.459-.274-.032-.471-.28-.438-.555.032-.273.274-.468.555-.438 2.264.264 6.17 2.093 6.898 11.374.021.275-.184.516-.459.538l-.04.001zm1.418 0l-.04-.001c-.275-.021-.481-.262-.459-.538C19.188 2.68 23.095.851 25.359.587c.27-.038.522.164.555.438.031.274-.165.523-.439.555-3.383.395-5.52 4.109-6.018 10.459-.02.262-.239.461-.498.461z"/><path fill="#A0041E" d="M18.381 23.04c0 1 .019 3.326.019 4.876-.576 0-1.491-.016-2.438-.3-1.497-.45-1.113-3.901-.614-4.701l3.033.125z"/><path fill="#BE1931" d="M18.335 19.239c0 1.113.022 3.702.022 5.428-.655 0-1.696-.017-2.773-.334-1.703-.501-1.266-4.342-.699-5.233l3.45.139z"/><path fill="#DD2E44" d="M18.335 11.731c0 2.169.279 8.822.279 9.497-1.397 0-5.301.337-5.082-3.134.218-3.47 2.358-6.363 4.803-6.363z"/><path fill="#89021F" d="M21.152 25.382c.187.987.075 6.217-2.961 6.612v-7.006l2.961.394z"/><path fill="#A0041E" d="M18.235 23.04c0 1-.152 3.326-.152 4.876.576 0 1.624-.016 2.57-.3 1.497-.45 1.113-3.901.614-4.701l-3.032.125z"/><path fill="#BE1931" d="M18.282 19.239c0 1.113-.165 3.702-.165 5.428.655 0 1.84-.017 2.916-.334 1.703-.501 1.266-4.342.699-5.233l-3.45.139z"/><path fill="#DD2E44" d="M18.282 11.731c0 2.169-.21 8.822-.21 9.497 1.397 0 5.231.337 5.013-3.134s-2.358-6.363-4.803-6.363zM8.22.042c-2.633.67-4.675 5.092-4.174 7.847.782 4.302 2.992 5.787 5.428 6.164.748-.058 3.293-3.474.576-6.272S7.546 1.925 8.22.042z"/><ellipse transform="rotate(-10.068 16.574 12.941)" fill="#BE1931" cx="16.578" cy="12.94" rx="1.015" ry="1.435"/><ellipse transform="rotate(-79.939 19.875 12.896)" fill="#BE1931" cx="19.875" cy="12.896" rx="1.435" ry="1.015"/><ellipse transform="rotate(-10.068 16.45 12.233)" fill="#292F33" cx="16.453" cy="12.232" rx="1.015" ry="1.435"/><ellipse transform="rotate(-79.939 19.99 12.232)" fill="#292F33" cx="19.99" cy="12.232" rx="1.435" ry="1.015"/><path fill="#EA596E" d="M14.375 18.906c.281.844.844 1.75 3.844 1.75 2.094 0 4.156-.375 4.094-1.906-.781.656-1.75.938-4.094.938-2.5 0-3.844-.782-3.844-.782z"/><path fill="#DD2E44" d="M15.272 22.923c.218.595.653 1.234 2.975 1.234 1.62 0 3.217-.264 3.168-1.344-.605.463-1.354.661-3.168.661-1.935-.001-2.975-.551-2.975-.551z"/><path fill="#BE1931" d="M15.376 26.089c.205.595.615 1.234 2.803 1.234 1.527 0 3.031-.264 2.986-1.344-.57.463-1.276.661-2.986.661-1.823 0-2.803-.551-2.803-.551z"/><path fill="#EA596E" d="M8.812 12.781c-.106 0-.214-.022-.316-.07-2.026-.944-3.157-2.62-3.361-4.98-.036-.412.265-.812.677-.848.413-.036.773.231.81.643l.006.076c.064.737.233 2.693 2.501 3.75.375.175.538.621.363.997-.127.272-.397.432-.68.432zm18.938 0c-.282 0-.553-.16-.68-.433-.175-.375-.013-.822.363-.997 2.268-1.057 2.437-3.013 2.5-3.75l.754-.008.741.137c-.205 2.36-1.336 4.036-3.362 4.98-.102.049-.21.071-.316.071z"/></svg>