<svg xmlns="http://www.w3.org/2000/svg" viewBox="0 0 36 36"><path d="M22.217 35.615h-.002c-.804-.142-1.34-.908-1.198-1.712l.59-3.344s.68-3.165-1.076-5.449c1.259-1.171 5.024.085 5.024.085l-1.626 9.221c-.142.804-.908 1.34-1.712 1.199zm-12.692-.021h-.002c-.804-.142-1.34-.908-1.198-1.712l1.312-7.025s.503-2.419.503-4.439c1.142-.439 2.723 2.757 2.723 2.757l-1.626 9.221c-.143.803-.909 1.339-1.712 1.198zm21.277-9.823c-.537 0-.977-.431-.985-.969-.012-.723-.304-4.326-4.925-4.326-.545 0-.985-.441-.985-.985s.441-.985.985-.985c5.363 0 6.858 3.938 6.896 6.264.009.545-.425.993-.969 1.002l-.017-.001z" fill="#F4900C"/><g fill="#754C29"><path d="M15.226 17.252l-3.46-11.98 1.687-1.02c.369.61.628 1.722 1.054 3.633.569 2.558 1.349 6.06 2.657 7.876.318.442.218 1.058-.224 1.376-.175.126-1.714.115-1.714.115zM7.615 2.71V.739c0-.408.331-.739.739-.739s.739.331.739.739V2.71H7.615zm2.332 0V.739c0-.408.331-.739.739-.739s.739.331.739.739V2.71H9.947z"/><ellipse cx="30.802" cy="26.263" rx="1.971" ry="2.464"/></g><path fill="#FFCC4D" d="M28.935 34.094s-.647-2.515-.998-4.154c-.332-1.549-1.025-3.981-1.171-8.225-.01-.145-.039-.512-.138-.779-.122-.33-.567-.933-.766-1.203-.777-1.052-2.012-1.691-3.526-1.847-1.283-.132-2.573-.185-3.854-.339-.59-.071-1.1-.156-1.422-.272-1.636-.589-1.962-2.502-2.414-3.965-.8-2.59-1.508-5.225-1.961-7.9l-.036.009.036-.009-.027-.165V4.84c1.567-.714 2.79-2.888 1.971-3.706-1.416-.708-2.827.11-3.513.992-.02-.001-.039-.006-.059-.006H8.459c-.655 0-1.304.16-1.872.51-.584.359-.986.907-1.633 1.19-.786.344-1.721.093-2.417.64-1.189.933-.625 2.525.854 2.578.201.577.745.993 1.39.993h2.106c.055.011.108.021.173.029.604.071 1.088.525 1.477 1.215 1.047 1.856 1.244 4.244 1.415 6.324.119 1.448.177 2.906.158 4.36-.293 1.566-.12 3.377-.12 3.377.044.419.186.777.394 1.095l-.01.011c1.99 2.81 2.449 5.97 2.449 5.97l.784 4.193c.142.804.908 1.341 1.713 1.199.804-.142 1.341-.908 1.199-1.712l-1.262-7.159c1.977.534 4.609.932 6.449.852 0 .006-.003.014-.002.02 2.371-.146 3.26 1.73 3.454 2.576.194.846.868 4.228.868 4.228.142.804.909 1.341 1.712 1.199.802-.143 1.339-.91 1.197-1.714z"/><path fill="#F4900C" d="M11.975 22.1c-.985.985-1.16 2.408-.391 3.178.77.77 2.193.595 3.178-.391s1.16-2.408.391-3.178c-.77-.77-2.193-.595-3.178.391zm1.088-6.185c0 1.633 1.324 2.956 2.956 2.956 1.029 0 1.933-.526 2.462-1.323-.59-.071-1.1-.156-1.422-.272-1.564-.563-1.872-2.237-2.253-3.441-.057-.179-.108-.349-.162-.523-.935.496-1.581 1.469-1.581 2.603zm-.986-4.434c0-1.361-1.103-2.464-2.464-2.464-.388 0-.75.098-1.077.257.635 1.126 1.015 2.885 1.242 4.653 1.282-.086 2.299-1.142 2.299-2.446zm-1.093-4.079c0 1.118.906 2.023 2.023 2.023.182 0 .355-.032.523-.077-.449-1.787-.709-3.122-.847-3.937-.961.156-1.699.985-1.699 1.991zm8.977 12.456c0 1.633 1.324 2.956 2.956 2.956 1.633 0 2.956-1.324 2.956-2.956 0-.043-.011-.082-.013-.124-.777-1.052-2.012-1.691-3.526-1.847-.457-.047-.972-.088-1.499-.128-.538.536-.874 1.277-.874 2.099zM11.598 2.613c.505-.483 1.317-1.089 1.778-.856.461.233.258 1.273-1.166 2.151.113-.439.551-1.215-.612-1.295z"/><circle fill="#292F33" cx="8.772" cy="4.09" r=".985"/><path d="M21.047 33.545s-1.142 1.351-.985 1.781 2.741.491 3.249.022-1.951-1.842-2.264-1.803zm-12.623 0s-1.142 1.351-.985 1.781c.156.43 2.741.491 3.249.022s-1.951-1.842-2.264-1.803zm4.547 2.22c.136.391 2.766.329 3.205-.461.439-.79-2.678-1.317-2.678-1.317s-.703 1.273-.527 1.778zm12.404 0c.136.391 2.766.329 3.205-.461.439-.79-2.678-1.317-2.678-1.317s-.703 1.273-.527 1.778z" fill="#754C29"/></svg>