<svg xmlns="http://www.w3.org/2000/svg" viewBox="0 0 36 36"><path fill="#C1694F" d="M2.262 12.452c-.238 1.726 0 3.214 1.131 3.036.532-.084 1.071-1.488.893-2.381-.179-.893-2.024-.655-2.024-.655z"/><path fill="#FFE9B7" d="M2.56 12.929c-.238 1.726.06 2.5.595 2.44.536-.06.833-1.31.655-2.202-.179-.893-1.25-.238-1.25-.238z"/><path fill="#C1694F" d="M1.37 9.544c.932-.673 2.495-1.916 4.322-2.406s4.144-.579 4.901-.757c.757-.178 2.584-.446 2.851.312s3.743 2.094 5.525 1.827 7.359-1.037 10.871 1.025c4.099 2.406 5.614 7.262 4.767 10.738-.847 3.475-2.896 6.059-5.525 6.371-2.629.312-5.748.178-8.332-2.495s-4.188-5.436-6.683-5.703-3.03-2.139-3.787-3.03c-.757-.891-3.208-.356-5.213-.802-1.532-.34-2.762-1.827-3.342-2.941s-1.157-1.56-.355-2.139z"/><path fill="#93493B" d="M12.144 14.035c-2.477 0-4.789-1.862-4.789-1.862s-4.033.944-5.629-.49c.579 1.114 1.809 2.6 3.342 2.941 2.005.446 4.455-.089 5.213.802.254.298.487.708.773 1.129.634-.829 1.35-2.082 1.09-2.52zm-.014-5.758s.725.275 1.239-.276c.35-.376.38-.729.319-.999-.126-.109-.211-.214-.244-.309l-.005-.007c-.028.352-.216 1.15-1.309 1.591zm5.131 7.874c-.449.766-1.39 2.016-1.904 2.686 1.321.647 2.452 2.002 3.776 3.531 1.4-.7 4.878-2.38 6.847-2.804-3.102-3.086-6.694-1.564-8.719-3.413zm10.571 4.495c-.438.189-.602 3.636-.664 6.123.656.003 1.299-.044 1.915-.117 2.629-.312 4.678-2.896 5.525-6.371.446-1.829.23-4.039-.665-6.075.481 4.745-4.255 6.69-6.111 6.44z"/><path fill="#292F33" d="M.493 10.45C.33 9.455 1.592 9.128 1.86 9.663c.267.535.876 2.525.356 2.51-.637-.019-1.505-.401-1.723-1.723z"/><path fill="#662113" d="M24.805 19.167c-1.565-.351-5.168-.535-6.015 1.47-.144.341-.178.745-.144 1.168.648.746 1.332 1.553 2.105 2.352 2.4 2.483 4.36 2.582 6.861 2.361.526-.943 1.412-2.252 1.203-3.386-.312-1.692-1.426-3.385-4.01-3.965z"/><path fill="#C1694F" d="M24.939 19.346c-2.673-.312-4.901.356-5.881 1.782s.401 3.921 3.03 4.812c0 0-3.475.178-3.921.757-.446.579-.446 1.649.178 1.693.624.045 7.218-.579 8.955-.802 1.738-.223 2.139-2.807 1.827-4.5s-1.615-3.442-4.188-3.742z"/><path fill="#662113" d="M14.409 14.023c-1.337-.312-2.688-.163-2.911 1.218-.088.542-.254 1.215-.327 1.634.575.876 1.142 1.392 2.896 1.58.602.065 1.152.277 1.677.596.437-.634.804-1.349.996-2.066.43-1.599-.994-2.65-2.331-2.962z"/><path fill="#C1694F" d="M11.172 14.979c-.215 1.336-.212 2.264-.847 2.941-.668.713-1.871 1.158-2.851 1.203-.98.045-1.782.936-1.782 1.916s.757 1.47 1.248 1.559c.766.139 1.559.178.847-.535-.713-.713-.09-1.435.713-1.47 1.025-.045 2.985-.045 4.054-.49 1.069-.446 3.23-1.77 4.188-3.119 2.406-3.386-.847-3.119-2.183-3.431-1.338-.311-3.165.045-3.387 1.426z"/><path fill="#662113" d="M10.905 7.152c.456-.684 2.629-.624 1.738.178s-2.54 1.025-1.738-.178z"/><circle fill="#292F33" cx="7" cy="9.001" r="1"/><path fill="#662113" d="M31.31 22.197c1.233-.231 3.965 2.228 3.52 5.391-.446 3.163-3.653 5.881-7.129 7.04s-12.609 1.604-16.173.312c-3.564-1.292-2.851-4.455 0-5.703s6.861-1.693 11.406-1.604c3.566.07 7.04-1.693 6.861-2.762-.178-1.07.089-2.407 1.515-2.674z"/><path fill="#C1694F" d="M31.845 24.202c1.025 1.871.422 4.916-3.832 6.371-3.386 1.158-6.793.825-9.401.891-1.96.05-3.698.223-4.634.401 0 0 1.66-.677 4.366-.847 2.274-.142 6.798-.136 8.465-.668 6.283-2.004 5.036-6.148 5.036-6.148z"/></svg>