<svg xmlns="http://www.w3.org/2000/svg" viewBox="0 0 36 36"><path fill="#E26000" d="M36 32c0-12-2-28-18-28S0 20 0 32h8v-5c0-1 1-1 1 0 0 7 4 6 4 6l2 2 1-1c0-.552 1.448-1 2-1s2 .448 2 1l1 1 2-2s4 1 4-6c0-1 1-1 1 0v5h8z"/><circle fill="#E26000" cx="18" cy="13.5" r="11.5"/><path fill="#D9B981" d="M32 31c-3 0-4 1-4 1v1c0 .552.448 1 1 1s1-.448 1-1c0 .552.448 1 1 1s1-.448 1-1c0 .552.448 1 1 1s1-.448 1-1c0 .552.448 1 1 1s1-.448 1-1v-1s-1-1-4-1zM4 31c-3 0-4 1-4 1v1c0 .552.448 1 1 1s1-.448 1-1c0 .552.448 1 1 1s1-.448 1-1c0 .552.448 1 1 1s1-.448 1-1c0 .552.448 1 1 1s1-.448 1-1v-1s-1-1-4-1z"/><path fill="#C45400" d="M6.5 19.607C6.5 25.051 14.167 27 18 27s11.5-1.949 11.5-7.393c0-2.366-.974-4.536-2.595-6.235.023-.244.04-.491.04-.747C26.944 7.862 24.9 4 18 4s-8.944 3.862-8.944 8.625c0 .256.017.503.04.747C7.474 15.071 6.5 17.241 6.5 19.607z"/><path fill="#D9B981" d="M8 17.571C8 22.305 14.667 24 18 24s10-1.695 10-6.429c0-2.057-.847-3.944-2.257-5.422.02-.212.035-.427.035-.65C25.778 7.358 24 4 18 4s-7.778 3.358-7.778 7.5c0 .223.015.438.035.65C8.847 13.627 8 15.514 8 17.571z"/><circle fill="#292F33" cx="16" cy="11" r="1"/><circle fill="#292F33" cx="20" cy="11" r="1"/><path fill="#FFE8B6" d="M12.67 11.073c-.042 0-.084-.005-.127-.016-.267-.07-.427-.343-.357-.61.488-1.867 2.405-2.988 4.271-2.503.267.07.427.343.357.61-.07.267-.343.424-.61.357-1.332-.347-2.702.455-3.05 1.788-.059.225-.262.374-.484.374zm10.66 0c-.223 0-.425-.149-.483-.374-.169-.646-.579-1.188-1.155-1.525-.576-.339-1.249-.432-1.896-.262-.269.069-.54-.091-.609-.357-.07-.268.09-.541.357-.61.901-.236 1.846-.106 2.653.367.807.473 1.381 1.231 1.616 2.136.07.267-.09.54-.357.61-.042.009-.085.015-.126.015z"/><path fill="#C09154" d="M13 5l2 3 1-1 2 3 2-3 1 1 2-3s-2-1-5-1-5 1-5 1z"/><path fill="#E26000" d="M13 5l2 2 1-2 2 3 2-3 1 2 2-2s-2-2-5-2-5 2-5 2z"/><circle fill="#C09154" cx="17.5" cy="13.5" r=".5"/><circle fill="#C09154" cx="18.5" cy="13.5" r=".5"/><path fill="#292F33" d="M18 21c-3.665 0-5.286-1.579-5.354-1.646-.195-.195-.195-.512 0-.707.195-.194.51-.195.705-.002C13.365 18.658 14.783 20 18 20c3.218 0 4.635-1.342 4.648-1.356.197-.191.514-.189.706.006.193.195.193.509-.001.703C23.286 19.421 21.665 21 18 21z"/><path fill="#D9B981" d="M17.295 33c-.235 2.224-5 4-6 2-.247-.494-2.341-4.936-2.535-5.453-.194-.517.068-1.094.586-1.287s1.094.068 1.287.586c-.194-.517.068-1.094.586-1.287.517-.194 1.094.068 1.287.586-.194-.517.068-1.094.586-1.287.517-.194 1.094.068 1.287.586-.194-.517.068-1.094.586-1.287s1.094.068 1.287.586c.193.514 1.148 5.263 1.043 6.257zm1.41 0c.235 2.224 5 4 6 2 .247-.494 2.341-4.936 2.535-5.453.194-.517-.068-1.094-.586-1.287s-1.094.068-1.287.586c.194-.517-.068-1.094-.586-1.287-.517-.194-1.094.068-1.287.586.194-.517-.068-1.094-.586-1.287-.517-.194-1.094.068-1.287.586.194-.517-.068-1.094-.586-1.287s-1.094.068-1.287.586c-.193.514-1.148 5.263-1.043 6.257z"/></svg>