<svg xmlns="http://www.w3.org/2000/svg" viewBox="0 0 36 36"><path fill="#5C913B" d="M6.032 6.345c-.409 0-.792-.253-.94-.659-.016-.042-.875-2.253-2.414-2.436-.548-.065-.94-.563-.875-1.111s.567-.933 1.111-.875c2.802.333 4.009 3.603 4.059 3.742.187.519-.083 1.092-.603 1.279-.112.04-.226.06-.338.06z"/><path fill="#5C913B" d="M7.902 6.501c-.087 0-.176-.012-.264-.036-.532-.144-.846-.693-.702-1.224.01-.04.578-2.346-.578-3.38-.412-.368-.447-1-.079-1.412C6.647.038 7.28.002 7.691.371c2.103 1.881 1.214 5.251 1.175 5.394-.121.444-.524.736-.964.736z"/><path fill="#5C913B" d="M10.348 6.544c-.15 0-.303-.034-.447-.106-.493-.247-.693-.846-.447-1.339.011-.021 1.033-2.182.1-3.428-.331-.442-.241-1.069.202-1.4.442-.33 1.068-.24 1.4.202 1.69 2.259.154 5.387.088 5.52-.176.349-.529.551-.896.551z"/><path fill="#5C913B" d="M12.624 6.486c-.225 0-.451-.075-.637-.229-.425-.352-.484-.98-.135-1.406.025-.031 1.494-1.898.867-3.317-.223-.505.005-1.095.511-1.318.504-.224 1.095.005 1.318.511 1.14 2.581-1.059 5.284-1.153 5.398-.198.238-.483.361-.771.361z"/><path fill="#5C913B" d="M15.28 6.428c-.281 0-.561-.118-.759-.348-.359-.418-.312-1.048.104-1.409.03-.027 1.792-1.62 1.412-3.124-.135-.536.189-1.079.725-1.214.536-.133 1.08.189 1.214.725.69 2.736-1.933 5.031-2.045 5.128-.188.163-.42.242-.651.242zm2.971.408c-.354 0-.697-.188-.878-.521-.264-.484-.087-1.09.395-1.355.021-.012 2.09-1.205 2.035-2.761-.021-.552.411-1.016.963-1.036.556-.008 1.015.411 1.035.963.103 2.819-2.941 4.516-3.071 4.586-.152.085-.316.124-.479.124zm3.162 1.074c-.441 0-.847-.296-.966-.743-.142-.533.175-1.08.707-1.223.048-.013 2.319-.682 2.632-2.198.111-.542.64-.89 1.182-.777.541.112.889.641.777 1.182-.57 2.763-3.931 3.688-4.074 3.726-.086.021-.172.033-.258.033zm3.13 1.755c-.51 0-.945-.388-.994-.906-.053-.549.35-1.036.897-1.089.032-.003 2.397-.284 2.959-1.734.199-.515.777-.769 1.294-.571.515.2.771.779.571 1.294-1.02 2.631-4.485 2.988-4.632 3.002-.032.003-.064.004-.095.004zm3.083 3.67c-.265 0-.436-.014-.466-.017-.55-.05-.956-.536-.906-1.086.05-.549.548-.958 1.083-.906.049.003 2.412.154 3.226-1.162.291-.47.909-.614 1.376-.325.471.291.615.907.325 1.376-1.179 1.908-3.614 2.12-4.638 2.12zm3.551 4.541c-1.004 0-1.783-.21-1.85-.229-.532-.148-.844-.699-.696-1.231.149-.531.703-.841 1.229-.696.023.006 2.34.594 3.383-.561.371-.411 1.004-.442 1.413-.071.409.37.441 1.002.071 1.412-1.003 1.109-2.419 1.376-3.55 1.376zm1.515 5.104c-1.597 0-2.987-.719-3.074-.765-.488-.258-.676-.862-.418-1.352.258-.487.859-.676 1.349-.419.021.011 2.16 1.078 3.426.17.448-.321 1.074-.217 1.396.231.321.449.218 1.073-.231 1.396-.774.554-1.637.739-2.448.739zm.162 4.475c-2.046 0-3.795-1.495-3.886-1.573-.417-.362-.461-.994-.099-1.411.363-.417.992-.46 1.409-.101.043.037 1.867 1.535 3.295.947.51-.21 1.095.03 1.306.542.211.511-.031 1.096-.542 1.306-.499.206-1 .29-1.483.29zm-1.083 4.305c-2.807 0-4.401-3.076-4.468-3.207-.25-.493-.054-1.095.438-1.345.493-.25 1.091-.055 1.344.437.015.028 1.138 2.115 2.687 2.115h.018c.55 0 .996.443 1 .993.004.553-.441 1.003-.993 1.007h-.026zm-6.809 4.129c-.206 0-.413-.063-.592-.194-2.272-1.673-1.709-5.111-1.684-5.257.095-.544.61-.905 1.155-.815.543.094.908.609.816 1.152-.006.034-.354 2.389.897 3.309.444.327.54.953.213 1.398-.195.266-.497.407-.805.407zm3.585-1.108c-.132 0-.265-.025-.393-.08-2.595-1.108-2.834-4.584-2.843-4.731-.033-.552.387-1.025.938-1.059.545-.032 1.023.384 1.059.935.002.03.202 2.405 1.632 3.016.508.217.744.805.527 1.312-.162.38-.532.607-.92.607zm-11.075.031c-.487 0-.914-.357-.988-.854-.413-2.791 2.425-4.813 2.546-4.898.45-.316 1.076-.207 1.393.246.316.451.207 1.074-.244 1.391-.045.033-1.942 1.439-1.716 2.969.081.547-.296 1.055-.843 1.136-.05.006-.099.01-.148.01z"/><path fill="#5C913B" d="M20.883 35.956c-.359 0-.707-.194-.886-.534-1.315-2.496.693-5.345.779-5.465.322-.45.945-.553 1.396-.229.448.321.551.944.231 1.394-.023.032-1.359 1.996-.637 3.369.258.488.07 1.094-.419 1.351-.148.077-.307.114-.464.114zm-6.834-3.946c-.072 0-.145-.008-.218-.023-.539-.12-.879-.654-.759-1.193.612-2.755 3.986-3.628 4.129-3.663.535-.134 1.079.19 1.213.728.134.534-.19 1.076-.725 1.212-.023.006-2.327.638-2.665 2.157-.104.464-.517.782-.975.782zm-1.665-3.622c-.129 0-.26-.024-.386-.078-.509-.213-.749-.8-.536-1.309 1.091-2.602 4.566-2.862 4.714-2.872.537-.03 1.027.381 1.064.932.037.55-.378 1.025-.928 1.064-.033.002-2.404.217-3.005 1.649-.161.383-.532.614-.923.614zm-1.363-4.306c-.209 0-.421-.065-.601-.202-.441-.332-.529-.959-.196-1.4 1.699-2.252 5.131-1.649 5.276-1.622.543.101.902.622.802 1.165-.1.542-.619.9-1.162.803-.022-.005-2.383-.383-3.32.859-.196.26-.496.397-.799.397zm-1.76-3.399c-.185 0-.372-.051-.539-.158-.465-.298-.601-.916-.302-1.381 1.522-2.377 4.991-2.036 5.138-2.02.549.059.947.551.888 1.1-.058.549-.545.938-1.098.889-.05-.01-2.409-.195-3.245 1.108-.19.3-.512.462-.842.462zm-2.908-2.409c-.121 0-.244-.022-.364-.069-.514-.201-.768-.781-.567-1.295 1.027-2.628 4.495-2.973 4.642-2.987.553-.039 1.037.355 1.087.905.05.549-.354 1.035-.902 1.086-.037.004-2.399.278-2.964 1.724-.155.395-.532.636-.932.636zM2.89 15.691c-.121 0-.244-.022-.364-.069-.514-.201-.768-.781-.567-1.295 1.027-2.628 4.495-2.973 4.642-2.987.556-.039 1.037.355 1.087.905.05.549-.354 1.035-.902 1.086-.037.004-2.399.278-2.964 1.724-.155.394-.532.636-.932.636z"/><path fill="#5C913B" d="M5.828 11.457c-.167 0-.336-.042-.491-.129-.021-.012-2.123-1.147-3.418-.281-.459.305-1.08.183-1.387-.276-.307-.459-.184-1.08.276-1.387 2.345-1.568 5.388.132 5.517.205.479.273.647.884.374 1.364-.185.322-.523.504-.871.504zm-.421-2.618c-.284 0-.566-.121-.764-.354-.03-.033-1.599-1.812-3.108-1.448-.54.126-1.077-.203-1.206-.739-.128-.537.202-1.077.739-1.206 2.749-.655 5.008 1.991 5.104 2.104.355.423.301 1.054-.122 1.409-.188.157-.416.234-.643.234z"/><path fill="#3E721D" d="M12.802 2.922c-3.988 0-8.432 1.417-9.21 4.124-1.087 3.783 1.763 5.681 4.053 7.207 1.751 1.167 3.563 2.373 4.566 4.456l.051.105.063.099c.978 1.541 1.544 3.54 2.092 5.473 1.086 3.834 2.438 8.606 7.835 8.606 2.948-.004 5.945-2.281 7.648-5.802 2.62-5.417 1.649-11.861-2.597-17.237-5.039-6.122-11.247-7.031-14.501-7.031z"/><path fill="#77B255" d="M12.802 4.922c4.04 0 9.016 1.514 12.931 6.271 7.573 9.587 1.618 19.792-3.472 19.799h-.009c-6.002 0-5.022-8.082-8.239-13.151C11.316 12.24 4.25 12 5.515 7.598c.364-1.267 3.39-2.676 7.287-2.676"/><circle fill="#3E721D" cx="23" cy="24" r="3"/><circle fill="#C6E5B3" cx="24" cy="17" r="2"/><circle fill="#C6E5B3" cx="17" cy="15" r="2"/><circle fill="#C6E5B3" cx="20" cy="10" r="1"/><circle fill="#C6E5B3" cx="11" cy="8" r="1"/></svg>