<svg xmlns="http://www.w3.org/2000/svg" viewBox="0 0 36 36"><path fill="#292F33" d="M35.876 23.572c0-3.299-1.021-5.408-4.901-9.145-2.746-2.645-2.088-5.807-.237-5.365s2.229 2.293 2.229 2.293 1.133-1.448-.378-2.937c1.096.362 1.73 1.158 2.005 2.271 1.431-1.817 2.426-6.125-1.376-8.94C29.695-.86 24.025-.332 20.915 3.361c-3.516 4.175-1.506 8.346 1.266 10.672 1.676 1.406 3.089 2.617 3.878 3.925-3.408-.743-7.49.538-9.063 1.167-1.629.652-2.544-.231-2.863-.324 1.077-2.555-2.966-2.347-2.997-.726-.39-.05-.802-.07-1.22-.071-.023-1.44-2.206-.909-2.111.295-.223.066-.447.123-.669.216-3.235 1.355-2.583 3.237-4.578 4.597-1.179.803-2.345.388-2.345 2.18 0 .985 1.584 1.759 3.171 1.835 3.058.146 4.583-.806 5.801-.48 3.326.89 4.07 4.401 4.498 6.752.387 2.13.339 2.597 1.317 2.542.978-.054 3 .168 3-2.832 1.704-.273 3.974.717 7 .387.422-.046.697 2.074 1.272 2.339.515.238 2.15.147 2.931-.634.569-.569.59-1.485.595-2.466 4.87-2.039 6.078-6.188 6.078-9.163z"/><g fill="#E1E8ED"><circle cx="8.17" cy="21.424" r="1"/><path d="M4.951 21.424c.413-1.834 1.85-3.156 4.073-3.374 1.541-.151 2.111.026 2.111.026s-.692 1.065-1.502 1.285c-1.134.31-2.783-.18-4.682 2.063zm10.629-1.99c2.747 1.123 4.557 4.732 7.591 6.159 6.083 2.862 9.112-.932 9.826-3.385.853-2.932-1.514-6.22-4.541-9.067-3.595-3.381-2.754-7.868-.798-9.456 1.899-1.541 4.23-2.085 7.122-.364-2.415-2.553-5.112-2.596-7.534-1.59s-5.036 4.145-3.605 7.982c1.294 3.468 5.367 5.672 6.33 8.397.492 1.393-.282 4.22-2.835 4.566-4.223.572-6.579-2.725-11.556-3.242z"/><path d="M17.117 19.373s2.972-.699 5.835-.534c2.862.165 4.156.534 4.156.534s.734-1.84-2.394-4.569c-3.557-3.103-5.712-5.296-4.483-9.159 1.085-3.41 6.272-6.86 11.46-4.779-5.463-1.2-8.463 2.02-9.564 3.974-1.101 1.954-1.183 4.761 1.624 7.872s5.367 4.761 4.183 6.853c-.401.709-2.175 1.472-4.679.816-1.882-.491-3.992-1.228-6.138-1.008z"/></g></svg>