<svg xmlns="http://www.w3.org/2000/svg" viewBox="0 0 36 36"><path fill="#E08110" d="M17.338 26.109c0 1.515-.032 2.456-.771 2.813-.739.357-3.354.065-3.805.339-.45.274-.845.792-.42.78.425-.012 1.004.13 1.004.13s-.821.222-1.127.531-.464.961-.148.923c.316-.038 1.869-.427 2.177-.429 0 0-.386.482-.429.816-.043.335.229.478.229.478s1.118-.495 1.551-.697c.433-.202 1.161-.83 1.504-.977.343-.147.768-.158 2.126.249 0 0 .016-.655-.51-.859-.526-.205-.915-.058-.802-.847.134-.936.436-2.834.713-3.342.278-.505-1.292-1.027-1.292.092z"/><path fill="#66757F" d="M13.427 21.831c1.303 1.002 2.871 2.423 3.206 3.132.336.708.186 1.864 1.118 1.901.932.037 1.454-.746 1.827-1.901.373-1.156 1.007-3.02.634-4.175s-5.48-.746-6.263-.41c-.783.334-1.492.707-.522 1.453z"/><path fill="#CCD6DD" d="M10.009 1.94c0 .801-.651 1.352-1.552 1.602s-2.403.2-3.204 1.001-1.201 2.803 1.452 4.806c0 0-.401-.701-.25-1.202 0 0 .801.2 1.352-.1.551-.3.801-.951 1.302-1.302.501-.35 1.652-.651 1.852.751s2.186-.419 2.47-.834c.434-.634 1.619-2.553 1.168-3.104S13.33 2.59 12.93 2.09c-.401-.501-2.921-.15-2.921-.15z"/><path fill="#E1E8ED" d="M10.009 1.94c0 .801-.651 1.352-1.552 1.602s-2.403.2-3.204 1.001-1.201 2.803 1.452 4.806c0 0-.401-.701-.25-1.202 0 0 .801.2 1.352-.1.551-.3.801-.951 1.302-1.302.501-.35 1.652-.651 1.852.751s1.952-.1 2.003-.601c.05-.501.25-1.101-.2-1.652s-1.902-.601-2.303-1.101c-.402-.5-.452-2.202-.452-2.202z"/><path fill="#FFAC33" d="M6.289 7.708c.167-.5.458-.749.874-.985.405-.886.534-2.102.456-3.021-.825.125-1.781.257-2.366.841-.773.773-1.164 2.667 1.197 4.599-.279-.447-.323-.948-.161-1.434z"/><path fill="#FFAC33" d="M8.31 6.423l-.087.073c-.533.433-1.267.511-1.7 1.312-.05.093-.064.213-.064.34.018.004.804.196 1.349-.101.082-.045.148-.109.218-.168.294-.364.304-1.073.284-1.456z"/><path fill="#C1694F" d="M9.859 4.927c-.867.167-1.402 1.134-2.136 1.502-.21.105-.393.199-.56.294-.416.236-.707.485-.874.985-.162.486-.118.987.161 1.434.084.069.164.138.255.207 0 0-.4-.701-.25-1.201l.003.001c0-.127.014-.247.064-.34.434-.802 1.168-.88 1.702-1.314l.086-.072c.532-.444 1.283-1.164 1.916-1.196.667-.033 2.003.167 2.003.167s-1.502-.634-2.37-.467z"/><path fill="#99AAB5" d="M10.026 2.323c-.255-.074-.425-.467-.3-.801.142-.38 1.135-1.168 2.87-1.068s4.139 1.335 4.205 4.606c.067 3.271-1.569 4.239-2.203 5.006-.634.768-.634 1.769.868 1.836 1.502.067-.2 3.605-1.368 5.04s-4.339 3.304-5.607 1.535c-1.268-1.769-1.902-2.637-1.969-4.606s.935-3.638 2.069-4.606 2.169-1.135 2.336-2.069c0 0 .567.067.901-.434.334-.501.768-.501 1.202-.567s1.202-.968 1.168-1.635c-.033-.655-.38-1.646-.884-2.069-1.035-.868-2.644.019-3.288-.168z"/><circle fill="#292F33" cx="12.097" cy="3.601" r=".75"/><path fill="#99AAB5" d="M13.998 11.523c.668.374 2.011.257 2.61.086s2.61-.599 3.893-.428 3.166 1.112 4.192 1.711c1.027.599 1.754.856 2.396.471s2.011 2.909 2.182 4.62c.171 1.711.299 3.251-1.283 4.492-1.583 1.241-4.306 2.644-8.513 2.396-4.286-.253-11.147-2.432-11.389-7.234-.28-5.557.48-4.402 1.977-5.557s2.866-1.156 3.935-.557z"/><path fill="#FFAC33" d="M20.457 27.401c-.039 1.158-.045 2.673-.802 3.297-.757.624-3.876 1.025-4.322 1.47-.446.446-.757 1.158-.267 1.025s1.203-.134 1.203-.134-.891.49-1.158.936c-.267.446-.267 1.248.089 1.114s2.05-1.025 2.406-1.114c0 0-.312.668-.267 1.069.045.401.401.49.401.49s1.158-.891 1.604-1.248 1.114-1.292 1.47-1.559c.356-.267.847-.401 2.54-.312 0 0-.223-.624-.891-.713-.668-.089-1.515.089-1.337-.847s.713-3.208.891-3.876c.178-.667-1.515-.935-1.56.402z"/><path fill="#99AAB5" d="M15.957 22.366c1.557 1.198 3.431 2.896 3.832 3.743s.223 2.228 1.337 2.272c1.114.045 1.738-.891 2.183-2.272.446-1.381 1.203-3.609.757-4.99s-6.549-.891-7.485-.49c-.936.401-1.782.846-.624 1.737z"/><path fill="#66757F" d="M13.614 15.306c-.325.812-.3 3.254.3 3.755.601.501 1.445 1.202 1.502 1.802.1 1.051 1.302 2.703 2.553 3.354 1.252.651 3.004.651 3.755.551.751-.1 1.252-.951 1.001-2.353-.25-1.402-.951-3.004-2.003-3.304 0 0 1.252-.951 1.252-1.802 0-.851-1.202-2.854-1.952-3.454-.751-.601-5.707-.301-6.408 1.451z"/><path fill="#99AAB5" d="M13.452 15.013c-.325.812.112 3.197.712 3.697.601.501 1.602 1.402 1.652 2.003.05.601.901 2.303 2.153 2.954 1.252.651 2.603.851 3.354.751.751-.1 1.352-.651 1.101-2.053-.25-1.402-.701-3.154-2.253-3.404 0 0 1.502-.851 1.502-1.702s-.893-3.097-1.644-3.698c-.75-.601-5.876-.3-6.577 1.452z"/><path fill="#CCD6DD" d="M25.999 13.524c.23-1.11 1.477-2.227 2.903-2.135.921.059 1.842.446 2.243 1.188.421.78-.059 1.515-.059 1.515s.356.52.238 1.396c-.105.771-.743.802-.743.802s-.305 1.343-.802 1.871c-1.426 1.515-1.693 1.411-1.693 1.411s.297-.876.431-1.678c0 0-.475-.074-.475-.876s-.016-1.369-.327-2.347c-.298-.935-1.716-1.147-1.716-1.147zm-7.623 5.727s1.211-.081 1.776.081c.565.161 1.897 1.09 1.17 1.13-.727.04-2.946-1.211-2.946-1.211zm-.081.807s1.574.242 2.139.404c.565.161 1.897 1.164 1.17 1.13-1.735-.081-3.309-1.534-3.309-1.534zm.363 1.009s1.574.525 2.139.686 1.897.881 1.17.847c-1.735-.081-3.309-1.533-3.309-1.533zm0 .968s1.574.525 2.139.686 1.897.881 1.17.847c-1.735-.08-3.309-1.533-3.309-1.533zm-1.077-4.89s1.659.033 2.246.02c.587-.014 2.073.278 1.369.462-1.68.438-3.615-.482-3.615-.482zm.835-.638s.986-.176 1.573-.189c.587-.014 1.795.331 1.09.512-1.251.322-2.663-.323-2.663-.323zm.202-.727s.906-.107 1.493-.121 1.592.181.888.363c-1.251.323-2.381-.242-2.381-.242zm-.242 7.264s1.13.282 1.695.444c.565.161 1.897.881 1.17.847-1.736-.08-2.865-1.291-2.865-1.291zm-.808-4.923s.987-.237 1.572-.188c.586.049 2.032.498 1.312.605-1.718.256-2.884-.417-2.884-.417z"/></svg>