<svg xmlns="http://www.w3.org/2000/svg" viewBox="0 0 36 36"><path fill="#A78E81" d="M2.381 8.671c-1.573 0-2.359.786-1.573 1.573 1.573 1.573 3.145 1.573 3.931.786L2.381 8.671zm6.29-6.29c0-1.573.786-2.359 1.573-1.573 1.573 1.573 1.573 3.145.786 3.931L8.671 2.381zm-4.717 9.435s8.547 14.433 14.939 16.512c3.344 1.087 5.692.599 7.863-1.573s2.406-4.447 1.573-7.863C26.937 13.188 11.816 3.954 11.816 3.954l-7.862 7.862z"/><path fill="#A78E81" d="M16.129 26.852c4.231 5.36 8.793 7.807 10.465 6.519 1.624-1.25-.324-2.578-2.174-6.954-1.936-4.58-10.526-2.397-8.291.435zM26.85 16.07c5.36 4.231 7.803 8.858 6.516 10.53-1.25 1.624-2.578-.324-6.954-2.174-4.581-1.936-2.394-10.591.438-8.356z"/><path fill="#846659" d="M17.008 21.564c.699-1.287-.914-3.363-2.504-3.314-1.172.036-3.617 1.934-5.883-.746-.209.209-.304.496-.311.829 1.158 1.577 2.472 3.242 3.848 4.765 1.656.479 3.913.192 4.85-1.534zm1.242-7.06c-.049 1.589 2.028 3.203 3.314 2.504 1.712-.93 2.007-3.159 1.544-4.81-1.545-1.372-3.246-2.703-4.851-3.882-.3.02-.56.113-.753.306 2.679 2.265.782 4.71.746 5.882z"/><path fill="#CAB8AC" d="M13.341 16.895c1.589-.049 3.203 2.028 2.504 3.314-1.12 2.061-4.135 2.086-5.74 1.183-1.79-1.007-3.732-4.157-2.646-5.243 2.265 2.68 4.709.783 5.882.746zm3.553-3.553c-.049 1.589 2.028 3.203 3.314 2.504 2.061-1.12 2.086-4.135 1.183-5.74-1.007-1.79-4.157-3.732-5.243-2.646 2.679 2.265.782 4.71.746 5.882z"/><path fill="#A78E81" d="M27.542 24.397c3.474 3.474 8.731 10.139 7.863 11.008-.868.868-7.534-4.389-11.008-7.863s-4.014-5.422-3.145-6.29c.868-.869 2.816-.329 6.29 3.145zM12.603 3.167c2.171 2.171 1.554 4.736-1.573 7.863s-5.692 3.744-7.863 1.573-2.34-5.523.787-8.649 6.477-2.958 8.649-.787z"/><path fill="#CAB8AC" d="M13.738 4.303c1.223 1.223 1.991 5.173-1.136 8.3s-7.076 2.359-8.3 1.136c-1.93-1.93 1.223-5.067 2.796-6.64s4.71-4.726 6.64-2.796z"/><path fill="#292F33" d="M9.457 6.312c.868.868.868 2.277 0 3.145s-2.277.868-3.145 0-.082-1.49.787-2.358 1.49-1.655 2.358-.787z"/><circle fill="#292F33" cx="4.74" cy="9.457" r="1.112"/><circle fill="#292F33" cx="9.457" cy="4.74" r="1.112"/><path fill="#A78E81" d="M10.655 10.401c-.426 0-.82-.101-1.132-.308-.189-.125-.241-.38-.116-.57.125-.19.38-.242.57-.116.452.299 1.339.188 2.019-.253.276-.179.906-.674.785-1.399-.037-.224.114-.436.338-.473.225-.036.436.114.473.338.139.836-.291 1.668-1.15 2.224-.565.368-1.205.557-1.787.557z"/><path fill="#A78E81" d="M7.931 13.619c-.103 0-.207-.009-.31-.026-.224-.038-.376-.249-.338-.473.038-.224.251-.375.473-.338.722.121 1.22-.509 1.399-.786.441-.681.553-1.568.253-2.019-.125-.189-.074-.444.116-.57.189-.126.445-.074.57.116.489.739.387 1.939-.249 2.92-.488.753-1.187 1.176-1.914 1.176z"/><path fill="#846659" d="M25.635 28.904c-1.021-1.634-1.501-3.563-.898-4.166.613-.613 2.073-.745 4.186.878-1.348-1.286-3.757-2.695-4.186-5.044.123 2.164-.419 4.625-4.125 4.043 2.082.614 5.023 4.289 5.023 4.289z"/><g fill="#67757F"><path d="M2.928 15.73c-.028 0-.057-.002-.086-.008-.264-.047-.44-.3-.393-.564.407-2.269 1.793-3.891 3.707-4.338.261-.06.523.102.584.363.061.262-.101.523-.363.584-1.524.356-2.634 1.689-2.971 3.564-.042.233-.246.399-.478.399z"/><path d="M5.072 15.974c-.253 0-.466-.195-.484-.451-.079-1.078.493-2.498 1.586-3.008.244-.113.533-.009.646.235.113.243.009.533-.235.646-.671.313-1.08 1.335-1.028 2.056.02.268-.181.501-.449.52-.013.002-.024.002-.036.002zm6.208-9.209c-.037 0-.074-.004-.111-.013-.262-.061-.424-.323-.363-.584.448-1.914 2.07-3.299 4.338-3.707.264-.047.517.129.564.393.047.264-.128.517-.393.564-1.875.337-3.207 1.447-3.564 2.971-.05.225-.25.376-.471.376z"/><path d="M12.944 6.877c-.069 0-.139-.015-.205-.046-.244-.113-.348-.403-.235-.646.51-1.093 1.919-1.664 3.008-1.586.268.019.469.253.449.52-.019.267-.248.468-.52.449-.712-.048-1.742.357-2.056 1.028-.083.177-.258.281-.441.281z"/></g></svg>