<svg xmlns="http://www.w3.org/2000/svg" viewBox="0 0 36 36"><g fill="#99AAB5"><path d="M3.016 5.201c-.062 0-.116-.043-.128-.105-.105-.555-.092-1.586.168-1.875.047-.053.129-.058.184-.01.053.048.058.13.01.184-.159.176-.216 1.072-.106 1.652.013.071-.033.139-.104.152-.008.002-.016.002-.024.002zm.517.9c-.057 0-.109-.038-.125-.096-.203-.74-.075-1.858-.008-2.097.019-.068.093-.107.16-.09.069.019.109.091.09.16-.069.246-.172 1.299.008 1.959.019.069-.022.141-.091.16-.011.003-.023.004-.034.004z"/><path d="M4.17 7.035c-.054 0-.105-.035-.123-.089-.45-1.338-.336-2.578-.331-2.63.007-.07.066-.121.142-.116.071.007.124.07.117.142-.001.012-.113 1.238.318 2.521.023.068-.014.142-.082.165-.013.005-.027.007-.041.007zm.87.931c-.05 0-.098-.029-.12-.079-.779-1.808-.767-3.11-.766-3.164.001-.071.059-.128.13-.128h.002c.072.001.129.06.128.132 0 .013-.011 1.305.745 3.059.028.066-.002.142-.068.171-.017.006-.034.009-.051.009z"/></g><path fill="#292F33" d="M7.708 16.15c-.002 2.273.264 7.198.191 7.812-.074.614-.588 1.462-1.51 1.562s-4.156.409-4.99.453-.651.443.198.538 4.364.221 5.254.265 1.967-.352 2.424-.868 1.872-2.953 2.367-3.985-.37-4.296-1.56-5.379-2.372-2.543-2.374-.398z"/><path fill="#66757F" d="M8.11 19.867c-.153-1.414-.339-5.618.171-4.463s1.666 4.203 1.097 7.238c-.115.613-.422 1.719-.684 2.352-.262.633-.751.882-1.518.91s-.575-.294.012-.467.967-.54 1.052-2.122c.07-1.295-.13-3.448-.13-3.448z"/><path fill="#99AAB5" d="M8.375 20.025c-.008.362.047 1.3.042 1.829s-.154 2.317-.353 2.773c-.199.457.334.213.458-.36.125-.573.516-2.418.528-2.885.012-.468-.654-2.323-.675-1.357z"/><path fill="#66757F" d="M2.85 1.802c.708-.674 1.726-.02 2.38.023.939.062 1.79-.263 3.018-.116s3.479.487 4.434 2.202c.787 1.415 1.852 3.802 2.682 4.979 1.019 1.445 2.753 3.657 3.875 4.803 1.206 1.232 4.908 2.917 6.094 3.118 2.351.399 6.989 1.903 8.042 5.612s1.328 5.824.563 6.513c-.765.689-1.571-.297-2.595-1.585-1.025-1.288-4.498-1.939-7.478-1.897s-8.146 1.437-11.177-.752c-3.034-2.19-4.614-6.029-5.104-9.706s-.205-4.92-.574-6.185C6.6 7.406 5.704 5.782 4.375 5.133S2.131 2.486 2.85 1.802z"/><path fill="#99AAB5" d="M2.85 1.802c.708-.674 1.726-.02 2.38.023.939.062 1.79-.263 3.018-.116s3.479.487 4.434 2.202c.787 1.415 1.852 3.802 2.682 4.979 1.019 1.445 2.753 3.657 3.875 4.803 1.206 1.232 4.908 2.917 6.094 3.118 2.351.399 6.989 1.903 8.042 5.612s1.328 5.824.563 6.513c-.765.689-1.158-.539-2.183-1.827-1.025-1.288-4.751-2.343-7.73-2.301s-8.188 1.199-11.22-.989c-3.034-2.19-4.73-5.144-5.22-8.821s-.205-4.92-.574-6.185c-.41-1.405-1.306-3.029-2.635-3.678S2.131 2.486 2.85 1.802z"/><path fill="#292F33" d="M15.746 19.496c-.933 1.551-1.064 3.557-1.218 4.784s-.098 2.076.517 2.618 1.714.754 2.466.816c.752.063 5.063.575 6.082.517s.714-.306-.047-.461-3.053-.967-3.58-1.566-.27-3.185-.324-4.158-.696-3.519-1.228-4.163c-.532-.643-1.951.422-2.668 1.613z"/><path fill="#66757F" d="M16.148 19.095c-.924 1.556-1.073 3.877-1.221 5.105-.147 1.228-.048 1.855.569 2.394s1.608.79 2.519.878c.751.073 3.179.372 4.367.43 1.02.05.436-.28-.326-.431-.762-.151-1.831-.548-2.361-1.144-.53-.595-.134-3.979-.193-4.952s-.473-3.228-1.008-3.869-1.636.394-2.346 1.589z"/><path fill="#99AAB5" d="M15.817 19.193c-.924 1.556-.411 2.811-.643 4.7-.15 1.228.116 2.225.586 2.548.676.464 1.421.779 2.331.867.751.073 2.026.341 3.213.399 1.02.05.603-.174-.159-.325-.762-.151-1.264-.485-1.795-1.081s.263-4.248.528-5.185c.562-1.988-.677-3.392-1.212-4.034s-2.139.916-2.849 2.111z"/><path fill="#292F33" d="M2.932 1.7c.567-.453 1.162-.032.464.416s-.936-.038-.464-.416zm.3 2.346s-.177-.773.274-.915c.451-.142 2.077.242 2.929 1.222 0 0-2.116-1.03-2.659-.878s-.544.571-.544.571z"/><path fill="#66757F" d="M11.228 3.835c.614.074 1.113.812.397.656-.716-.155-.397-.656-.397-.656z"/><path fill="#292F33" d="M7.584 2.037c.616.048.535.642.059.553-.475-.088-.812-.611-.059-.553zm25.477 25.458c1.51-.349 2.406 3.478 1.786 5.029-.63 1.575-2.047 1.961-3.222 2.137-.587.088-1.068.122-1.475-.043-.397-.161-.362-.509.09-.589.384-.067 1.006-.244 1.309-.356.35-.13.523-.437.523-.437s-1.84.665-3.083.379c-1.278-.293-.694-.811.417-.884.802-.053 1.698-.253 2.426-.845 0 0-.93.38-1.975.493-1.045.113-2.13.04-1.423-.662.144-.143 1.235-.286 1.906-.485.797-.238 1.448-.623 1.448-.623s-1.43.331-2.018.311c-.697-.023-.758-.423-.502-.552.531-.267 1.41-.367 1.929-.558.957-.352.348-1.965 1.864-2.315z"/><path d="M5.216 4.637c-.06 0-.113-.041-.127-.102-.213-.949-.958-1.66-.965-1.667-.052-.049-.055-.131-.005-.183s.131-.055.183-.006c.033.031.81.771 1.041 1.8.016.07-.028.14-.099.155-.009.002-.018.003-.028.003zm1.249.775c-.056 0-.107-.036-.124-.091-.377-1.214-1.404-2.154-1.415-2.164-.053-.048-.057-.13-.009-.184.049-.053.131-.056.184-.009.044.041 1.09.997 1.488 2.279.021.068-.017.142-.085.163-.013.004-.026.006-.039.006zm1.057.724c-.054 0-.104-.034-.123-.087-.524-1.521-1.584-2.511-1.595-2.521-.053-.049-.055-.131-.007-.184.05-.053.131-.056.184-.008.045.042 1.118 1.042 1.665 2.627.023.068-.013.142-.081.166-.014.005-.028.007-.043.007zm1.194 1.34c-.057 0-.109-.038-.125-.095-.521-1.892-1.608-3.114-1.62-3.126-.048-.053-.044-.135.01-.184.053-.048.134-.044.184.01.045.05 1.138 1.276 1.677 3.231.019.069-.021.141-.091.16-.012.003-.023.004-.035.004z" fill="#CCD6DD"/></svg>