<svg xmlns="http://www.w3.org/2000/svg" viewBox="0 0 36 36"><path fill="#31373D" d="M34.157 20.709c-.807-1.404-1.932-2.604-3.565-3.526-.431-.244-1.826-.275-1.826-.275s-.707-.809-1.344-.978c-3.476-.923-8.798.434-10.427 1.086-1.628.652-1.914.299-3.995-.016-.277-.042-.586-.066-.918-.073-.503-.431-.114-1.509-1.114-1.509S9.535 16.465 9 17c-.226.031-.456.074-.688.125-.207.042-.412.097-.621.155-.32-.673-.774-1.347-1.222-1.28-.402.06-.466 1.098-.421 1.943-.272.152-1.946 3.729-3.019 6.198-.092.212-1.882.83-2.064 1.011-.616.612-1.062 1.152-.653 1.642.631.757 2.649.694 3.91.505 1.261-.189 3.847-1.513 5.108-1.513 3.443 0 3.925 3.154 4.353 5.505.387 2.128.339 4.763 1.317 4.709s3-2 3-5c1 0 7.728.674 8 1s1 4 2 4 5-7 5-13c1 2 .668 4.172.668 4.878S34 30 35 30s1-2.009 1-3-.594-4.119-1.843-6.291z"/><path fill="#99AAB5" d="M32.62 20.788c-.43-1.59-1.333-2.86-2.031-3.598-.895-.506-1.934-.933-3.166-1.26.261 1.098-.923 6.903-8.923 11.133-.94.497.857 2.652 3.469 3.312 4.907 1.241 8.457.855 10.098-1.79.553-1.802.933-3.74.933-5.585.02.04.032.081.051.121v-.001c-.097-.937-.277-1.761-.431-2.332z"/><path fill="#E1E8ED" d="M4.958 22c.853-2.352 1.615-3.78 4.042-5-1.229.167-2.579.554-3.75 1.458-2.775 2.144-1.659 3.795-3.235 5.624-.329.381-.714.736-1.049 1.069C2.75 25 4.11 24.34 4.958 22zm11.596-3.809c-2.504.888-5.941 3.094-7.679 4.553C6.5 24.74 4.559 25.473 3.562 26c-1.631.863.755 1.177 3.438 0 2.108-.925 5.94-2.519 8.875-2.5 6.462.041 9.625-5.292 11.548-7.57-3.792-.334-8.162 1.301-10.869 2.261z"/><circle fill="#E1E8ED" cx="7" cy="21" r="1"/></svg>