<svg xmlns="http://www.w3.org/2000/svg" viewBox="0 0 36 36"><path fill="#662113" d="M9.396 20.496s2.053 6.29 2.053 8.144.023 3.271-.374 4.463c-.397 1.192-.066 1.523 1.523 1.589 1.589.066 3.774 0 3.973-1.192.199-1.192-.156-1.55-.089-2.742.066-1.192.331-4.37.53-4.701.199-.331 3.906.662 4.635.927s3.046.265 3.112 1.059c.066.795.487 4.86.288 5.655-.199.795.397.993 2.251.927 1.986-.071 3.112-.463 2.979-1.324-.132-.861-.222-2.146.043-3.139s1.258-3.84 1.324-4.767c0 0 .927-2.053.861-3.575-.066-1.523-.651-3.477-2.522-5.575-1.28-1.435-3.196-1.466-5.579-2.194s-4.461-1.581-5.454-2.508c-.993-.927-3.694-1.065-5.078-.439-1.362.616-6.059 10.788-4.476 9.392z"/><path fill="#C1694F" d="M35.627 28.281c-.53-1.523-.993-3.906-1.059-5.429-.029-.661-.076-1.581-.263-2.576l.619.435c-.104-1.144-1.069-2.108-1.069-2.108l1.126-.118c-.28-.504-1.854-1.338-1.854-1.338l1.283-.318c-.56-.84-2.03-.98-2.03-.98l.318-.504c-.402-.281-1.209-.247-2.149-.532-1.02-.603-2.203-1.096-3.576-1.515-1.12-.342-2.124-.907-2.984-1.504l1.289-.444s-1.157-.459-1.628-.619c-.378-.129-.988-.154-1.217-.16l-.026-.023 1.32-.401c-.413-.558-2.555-.759-2.555-.759s.988-.197 1.139-.287c-.755-.574-2.112-.319-2.112-.319l.995-.859c-.583-.077-2.719.602-2.719.602l.582-.999c-.734.013-1.586 1.026-2.27 1.061-.051.003-.097.011-.147.016-.489-.106-.982-.292-1.425-.68-.497-.435-1.054-.86-1.638-1.183-.757-.419-1.558-.666-2.326-.539-1.195.199-1.565 1.223-2.53 1.674-.113.053-.214.115-.304.184-.828.376-1.435.846-1.641 1.093l.802.059s-1.661.726-2.02 1.188l1.042-.031s-.926.655-1.131 1.22l.772.012s-1.279 1.13-1.485 1.592l.971-.258-.704 1.654.543-.055c-.073.341-.135.678-.187 1.012-.039.12-.067.266-.074.455-.031.811-1.09 1.688-1.09 1.688l.541.609s-.565 1.302-.883 1.674c0 0 .931-.215 1.09-.481 0 0-.297 1.16-.52 2.022l.777-.481c.164 2.254.028 5.167-.987 6.98-1.031 1.843-2.782 2.646-3.715 3.193-.933.547.109 3.102.733 3.012.624-.09 2.429-.561 4.762-2.374.442-.344.808-.679 1.14-1.01l.201.67c.445-.683.799-1.769.799-1.769l.799.4v-1.598l.799.285s-.483-1.41-.24-2.181c.39-1.353 1.351-2.888 2.309-3.965.588 1.9 1.691 5.641 1.691 7.001 0 1.854.023 3.271-.374 4.463s-.066 1.523 1.523 1.589 3.774 0 3.973-1.192c.199-1.192-.156-1.55-.089-2.742.065-1.168.2-3.8.392-4.216l.403.587.645-.751.02.001.479 2.204.529-1.925.498.897.692-.957.449 2.156.562-1.64.693 1.069.601-.935.564 1.634.481-1.388c.06.025.118.049.175.075l.522.995c.035-.012.215-.165.422-.405.129.133.225.27.237.417.066.795.398 4.328.199 5.123-.199.795.397.993 2.251.927 1.986-.071 3.112-.463 2.979-1.324-.132-.861-.222-2.146.043-3.139.265-.993 1.258-3.84 1.324-4.767 0 0 .07 1.396.596 2.185 1.195 1.784 1.857 1.188 1.327-.335z"/><path fill="#DA9E82" d="M9.808 21.064s-1.305 3.179-2.829 3.704c-1.857.64-4.21.573-4.917-.904-.748-1.564-.534-3.186.46-4.254.412-.443-.03-.645-.567-.31-1.484.926-2 2.417-1.777 4.256.188 1.544 1.681 3.207 3.59 3.465s4.308.127 6.011-1.73c1.283-1.399 1.78-2.374 2.118-2.947.316-.539-1.879-1.763-2.089-1.28z"/><path fill="#FFE9B7" d="M9.808 21.064s-1.45 3.394-2.973 3.92c-1.857.64-4.283.497-4.99-.98-.749-1.564-.727-3.209.267-4.277.412-.443.2-.542-.297-.149C.538 20.588.136 21.69.36 23.528c.188 1.544 1.596 3.069 3.505 3.327 1.909.258 4.119.283 5.822-1.574 1.283-1.399 1.872-2.364 2.209-2.937.317-.539-1.878-1.763-2.088-1.28z"/><circle fill="#292F33" cx="11" cy="14" r="1"/><path fill="#662113" d="M15.552 10.936c.068.616.89 1.848 1.369 2.258.479.411.616 1.574-.205 2.532s-1.095 2.532-1.848 3.148-1.779.137-1.984-.342c0 0-.411.958.753 1.232 1.163.274 1.848.068 2.463-1.095.616-1.163 1.437-2.326 2.053-3.148.616-.821.479-2.395-.274-2.874-.754-.48-2.327-1.711-2.327-1.711z"/><path opacity=".6" fill="#662113" d="M30.355 17.471c.175.738.01 1.891-.319 1.115s-.49-2.059-.49-2.059.634.205.809.944zm1.691 1.199s.119 1.173.43 2.049.395-.374.215-1.196c-.179-.822-.645-.853-.645-.853zm.581 4.422s.013.997.228 2.011c.215 1.013.472.175.398-.76s-.626-1.251-.626-1.251zm-3.314 1.979s.024 1.299.227 2.122.535-.031.475-.792c-.06-.761-.702-1.33-.702-1.33zm1.971 2.413s-.233 1.278-.197 2.125c.036.846.531.076.622-.682.091-.758-.425-1.443-.425-1.443zm-3.123-8.993s.009 1.086.223 2.099c.215 1.013.567.018.493-.917-.074-.935-.716-1.182-.716-1.182zm-.371 4.332s-.327.753-.255 1.787c.072 1.033.56.096.616-.84.057-.936-.361-.947-.361-.947zm2.948-1.222s-.055.874.305 1.845.578.202.369-.712c-.21-.914-.674-1.133-.674-1.133zm-4.319-6.013s-.066.762.268 1.742.498-.137.336-1.057c-.162-.92-.604-.685-.604-.685zm-4.664-2.692s.533.878 1.09 1.545.402-.278.012-.955c-.389-.678-1.102-.59-1.102-.59zm1.136 3.228s.029.94.325 1.757.473-.125.337-.894c-.135-.769-.662-.863-.662-.863zm-.872 4.083s-.16.921-.006 1.776.568.425.564-.356-.558-1.42-.558-1.42zm3.283 4.984s-.056.822.098 1.678c.154.855.487-.043.484-.824s-.582-.854-.582-.854zm-5.278-1.775s-.294.818-.229 1.684c.065.866.428.51.505-.267.077-.777-.276-1.417-.276-1.417zm-1.474 1.519s-.294.818-.229 1.684c.065.866.428.51.505-.267.077-.778-.276-1.417-.276-1.417zm5.181.848s-.294.818-.229 1.684c.065.866.428.51.505-.267.077-.777-.276-1.417-.276-1.417zm-6.063-5.633s-.205 1.204-.14 2.071c.065.866.398.391.475-.386.077-.778-.335-1.685-.335-1.685zm-3.681 4.336c.132.77.548 1.608.522.745s-.283-1.826-.283-1.826-.371.31-.239 1.081zm1.713 2.67c.132.77.548 1.608.522.745s-.323-1.807-.323-1.807-.331.292-.199 1.062zm-1.295 3.171c.132.77.548 1.608.522.745s-.273-1.673-.273-1.673-.381.158-.249.928zm5.334-18.798s.49 1.29.926 2.041.443-.207.173-.94c-.27-.732-1.099-1.101-1.099-1.101zm-.063 6.407s.08 1.378.27 2.226c.191.848.485-.064.447-.844s-.717-1.382-.717-1.382zm5.426.772s.253 1.357.549 2.174c.296.817.473-.125.337-.894-.135-.77-.886-1.28-.886-1.28zm-1.42 2.546s-.09 1.071.096 1.92.485-.061.452-.842c-.032-.78-.548-1.078-.548-1.078zM7.259 14.74s-.67.491-.938 1.027c-.268.536-.089 1.072.223.536.313-.536.715-1.563.715-1.563zm1.161-4.422s-.715.134-1.117.491-.313.849.134.491c.447-.357.983-.982.983-.982zm-1.563 2.769c.402-.447 1.921-1.608 1.206-1.429-.715.179-1.295.938-1.295.938-.269.312-.313.938.089.491zm2.769-4.154c.536-.402 1.34-.804 1.34-.804s-.448.061-1.206.313c-.536.179-.67.893-.134.491zm-2.412 8.084s-.581.223-.938 1.027c-.357.804-.179 1.251.134.625.313-.624.804-1.652.804-1.652zm.536 2.323s-.581.402-.804 1.027c-.223.625-.089 1.251.134.625.223-.625.67-1.652.67-1.652zm1.697-1.653s-.402.759-.447 1.295c-.045.536.268.983.313.357.045-.624.134-1.652.134-1.652zm-2.456 4.69s-.581.313-.938.804c-.357.491-.223 1.251.089.67.313-.581.849-1.474.849-1.474zm.178 7.191c-.045.67.536.134.536-.447s-.178-1.251-.178-1.251-.313 1.028-.358 1.698zm-2.724 0s-.491.134-.983.313c-.491.179-1.072 1.027-.491.759s1.474-1.072 1.474-1.072zm-.313 2.322s-.536.402-1.117.581c-.581.179-.357.67.357.313.716-.358.76-.894.76-.894zM14.449 8.576c.804.536.759.223.491-.223-.268-.447-1.519-.625-1.519-.625s.224.312 1.028.848zm-.808 2.433c.466.549.513-.414.028-.823s-1.122-.654-1.122-.654.628.928 1.094 1.477zm-.666 5.964c.22.686.559.028.268-.536s-.687-.837-.687-.837.2.687.419 1.373zm1.564-2.546c.22.686.559.028.268-.536s-.687-.837-.687-.837.199.687.419 1.373zm13.264 1.474c.22.686.559.028.268-.536s-.687-.837-.687-.837.2.687.419 1.373zm.626 15.41c.102.713.547.121.354-.484-.193-.605-.537-.94-.537-.94s.081.711.183 1.424zm-11.16 1.26c-.081.716.499.255.464-.379-.034-.634-.284-1.045-.284-1.045s-.1.708-.18 1.424zM11.055 10.05s-.983.357-1.251.759-.089.938.179.491c.268-.446 1.072-1.25 1.072-1.25z"/></svg>