<svg xmlns="http://www.w3.org/2000/svg" viewBox="0 0 36 36"><path fill="#FFDC5D" d="M0 21h30v15H0z"/><path fill="#FFAC33" d="M35 26.417c0-1.812-.954-3.39-2.381-4.29.216-.563.348-1.169.348-1.81 0-2.595-1.95-4.709-4.459-5.02.239-.657.392-1.357.392-2.097 0-3.369-2.731-6.1-6.1-6.1-.803 0-1.566.165-2.267.447-.704-2.595-3.05-4.514-5.866-4.514-1.769 0-3.347.765-4.461 1.966C9.347 2.669 7.127 1 4.5 1 2.704 1 1.111 1.792 0 3.03v27.447c1.289.645 2.834 1.023 4.5 1.023 2.635 0 4.955-.956 6.44-2.414.968 2.56 4.071 4.447 7.794 4.447 2.188 0 4.166-.655 5.626-1.71.4 1.394.511 2.668.542 4.177h6.948c.688-.911 1.117-2.131 1.117-3.483 0-.653-.108-1.271-.285-1.842C34.075 29.768 35 28.202 35 26.417z"/></svg>