<svg xmlns="http://www.w3.org/2000/svg" viewBox="0 0 36 36"><g fill="#DD2E44"><path d="M11.83 26.822l11.18.981c.274.024.518-.18.542-.454l.003-.03c.024-.274-.181-.518-.455-.542l-11.18-.981c-.274-.024-.518.18-.542.455l-.003.03c-.024.273.181.517.455.541z"/><path d="M23.01 27.803l-.03-.003c-.274-.024-.478-.268-.455-.542l.452-5.161c.024-.274.268-.478.542-.455l.03.003c.274.024.478.268.455.542l-.452 5.161c-.024.274-.268.479-.542.455zm-11.062-7.809l-.03-.003c-.274-.024-.518.181-.542.454l-1.048 11.977c-.024.274.181.518.455.542l.03.003c.274.024.518-.181.542-.454l1.048-11.977c.023-.274-.181-.518-.455-.542z"/></g><path fill="#292F33" d="M22.207 20.128c1.475-.212 2.919-.152 2.416.56-.504.713-1.623 1.963-3.521 1.759-1.899-.204.191-2.188 1.105-2.319z"/><path fill="#292F33" d="M21.101 22.447l-10.262-.898c-1.026-.09-1.026-.09-.936-1.116.049-.564.552-.986 1.116-.936l10.262.898c.564.049.986.552.936 1.116-.089 1.025-.089 1.025-1.116.936z"/><path fill="#DD2E44" d="M21.645 22.75l-11.318-.99c-.274-.024-.478-.268-.455-.542l.003-.03c.024-.274.268-.478.542-.455l11.318.99c.274.024.478.268.455.542l-.003.03c-.024.274-.268.479-.542.455z"/><path fill="#292F33" d="M26.074 8.654l-.898 10.262c-.09 1.026-.09 1.026-1.116.936-.564-.049-.986-.552-.936-1.116l.898-10.262c.049-.564.552-.986 1.116-.936 1.026.09 1.026.09.936 1.116z"/><path fill="#DD2E44" d="M26.525 8.167l-.99 11.318c-.024.274-.268.478-.542.455l-.03-.003c-.274-.024-.478-.268-.455-.542l.99-11.318c.024-.274.268-.478.542-.455l.03.003c.274.025.479.268.455.542z"/><path fill="#292F33" d="M23.337 17.992l-7.78-.681c-.778-.068-.778-.068-.711-.836.037-.423.417-.738.845-.7l7.78.681c.428.037.748.414.711.836-.067.768-.067.768-.845.7z"/><path fill="#DD2E44" d="M21.207 21.677c1.035.091 3.079.269 3.348-2.809s1.296-2.989 1.026.09-1.966 3.964-4.464 3.746c-2.052-.18-1.963-1.206.09-1.027zm-10.764-.941c2.053.171 2.464 1.255.412 1.07-.909-.082-.991.305-1.198 1.095-.195.743-.469 1.858-.884 3.418-.304 1.146-1.258.734-1.006-.265.423-1.679.822-3.142 1.083-4.072.267-.95.517-1.336 1.593-1.246z"/><g fill="#66757F"><circle cx="23.213" cy="27.244" r="1.545"/><path d="M30.161 30.661l-6.245-3.606 3.606-6.245-.892-.515-3.606 6.245-6.245-3.605-.515.892 6.245 3.605-3.605 6.245.892.515 3.605-6.245 6.245 3.606z"/><path d="M25.71 34.573l-1.866-6.965 6.965-1.866-.267-.995-6.965 1.866-1.866-6.965-.995.266 1.866 6.966-6.965 1.866.266.995 6.966-1.866 1.866 6.965z"/></g><path fill="#292F33" d="M23.213 18.488c-4.836 0-8.756 3.92-8.756 8.756S18.377 36 23.213 36s8.756-3.92 8.756-8.756-3.92-8.756-8.756-8.756zm0 15.452c-3.698 0-6.696-2.998-6.696-6.696s2.998-6.696 6.696-6.696 6.696 2.998 6.696 6.696-2.998 6.696-6.696 6.696z"/><path fill="#66757F" d="M23.213 19.518c-4.267 0-7.726 3.459-7.726 7.726s3.459 7.726 7.726 7.726 7.726-3.459 7.726-7.726-3.459-7.726-7.726-7.726zm0 14.422c-3.698 0-6.696-2.998-6.696-6.696s2.998-6.696 6.696-6.696 6.696 2.998 6.696 6.696-2.998 6.696-6.696 6.696zm-9.428-.446l-2.23-1.288 1.287-2.23-.892-.515-1.287 2.23-2.231-1.288-.515.892 2.231 1.288-1.288 2.23.892.515 1.288-2.23 2.23 1.288z"/><path fill="#292F33" d="M10.851 28.789c-1.991 0-3.605 1.614-3.605 3.605S8.86 36 10.851 36s3.605-1.614 3.605-3.605-1.614-3.606-3.605-3.606zm0 6.181c-1.422 0-2.575-1.153-2.575-2.575 0-1.422 1.153-2.575 2.575-2.575s2.575 1.153 2.575 2.575c.001 1.422-1.152 2.575-2.575 2.575z"/><path fill="#DD2E44" d="M8.587 25.046l-.029-.008c-.266-.071-.541.088-.612.354l-1.608 5.999c-.071.266.088.541.354.612l.029.008c.266.071.541-.088.612-.354l1.608-5.999c.07-.265-.089-.54-.354-.612z"/><path fill="#66757F" d="M6.72 32.012l-4.009-1.074c-.266-.071-.425-.347-.354-.612l.008-.029c.071-.266.347-.425.612-.354l4.009 1.074c.266.071.425.347.354.612l-.008.029c-.07.266-.346.425-.612.354z"/><path fill="#DD2E44" d="M29 9.187l-3.073-.542c-.271-.048-.453-.308-.406-.579l.005-.03c.048-.271.308-.453.579-.406l3.073.542c.271.048.453.308.406.579l-.005.03c-.048.272-.309.454-.579.406z"/><path fill="#292F33" d="M29.999 9.364l-2.694-.482c-.279-.049-.268-.283-.219-.562.049-.279.119-.502.398-.453l2.694.482c.279.049.467.318.418.597-.049.279-.318.467-.597.418z"/></svg>