<svg xmlns="http://www.w3.org/2000/svg" viewBox="0 0 36 36"><path fill="#E1E8ED" d="M18 2C13 2 11.11-1.276 7.002.7 3 2.625 7 17.002 9 20c-.444 2.537-.59 8.787-.171 10.91.576 2.921 1.561 5.09 2.748 5.09 2 0 2.423-13.002 6.423-13V2zm0 0c5 0 6.89-3.276 10.998-1.3C33 2.625 29 17.002 27 20c.444 2.537.59 8.787.171 10.91-.575 2.921-1.561 5.09-2.748 5.09-2 0-2.423-13.002-6.423-13V2z"/><path fill="#9AAAB4" d="M18 7.259c-2.278 0-4.419-.81-5.444-1.563-.334-.245-.406-.715-.161-1.048.246-.335.714-.405 1.048-.161.84.617 2.722 1.273 4.556 1.273 1.97 0 3.942-.709 4.489-1.217.305-.282.777-.264 1.06.039.281.304.265.778-.039 1.06-.958.891-3.431 1.617-5.509 1.617z"/></svg>