<svg xmlns="http://www.w3.org/2000/svg" viewBox="0 0 36 36"><path fill="#292F33" d="M8.115 16.988c0 2.848 2.876 7.967 9.795 7.967s9.665-4.837 9.665-9.055c0-1.127-4.043-3.61-9.575-3.61s-9.885 2.625-9.885 4.698z"/><path fill="#A0041E" d="M29.627 28.35C26.627 26.351 18 31 18 31s-8.627-4.649-11.627-2.65C3.373 30.35 1 36 1 36h34s-2.373-5.65-5.373-7.65z"/><path fill="#55ACEE" d="M28 29H8c-3 0-4 7-4 7h28s-1-7-4-7z"/><path fill="#DD2E44" d="M24.056 36c-1.211-1.194-3.466-2-6.056-2s-4.845.806-6.056 2h12.112z"/><path fill="#F7DECE" d="M14.33 30.02c1.466 1.065 3.666.98 3.666.98s2.201.085 3.667-.98v-5.664H14.33v5.664z"/><path fill="#DD2E44" d="M14.375 27.875c-.572-.82-1.601-.914-2.667-.914-1 0-1.708.768-1.708.768s-1.5-.764-3.068-.021C5.124 28.565 4 30.683 4 30.683S6 29 8 29s3 3 3 3c2-1 7-1 7-1-1 0-2.906-2.094-3.625-3.125zm14.693-.167c-1.568-.743-3.068.021-3.068.021s-.708-.768-1.708-.768c-1.066 0-2.095.094-2.667.914C20.906 28.906 19 31 18 31c0 0 5 0 7 1 0 0 1-3 3-3s4 1.683 4 1.683-1.124-2.118-2.932-2.975z"/><path fill="#EEC2AD" d="M14.264 25.179c1.022 1.155 2.29 1.468 3.668 1.468 1.379 0 2.647-.312 3.67-1.468v-2.936h-7.338v2.936z"/><path fill="#F7DECE" d="M9.675 15.718c0 5.833 3.676 10.285 8.211 10.285 4.533 0 8.209-4.452 8.209-10.285 0-5.834-3.676-10.563-8.209-10.563-4.534-.001-8.211 4.729-8.211 10.563"/><path fill="#292F33" d="M13.556 5.93S11 4 8 6s-1 6-1 6-2 1-2 3 2 3 2 3-1 1-1 2 2 2.001 2 3.001-2 2-2 2 4 0 4-2S8 15 14 11c0 0 3 1 5 1s7 1 7 4v7.001c0 1 2 2 3 2 0 0-1.077-.962-1.077-1.962s2.482-2.962 2.482-4.962S29 15 29 15s2-3 1-5-3.557-2.372-3.557-2.372-.048-3.136-3.048-4.136-5.877 1.001-5.877 1.001-1.524-1.306-2.786-.784c-1.307.541-1.176 2.221-1.176 2.221z"/><path fill="#269" d="M24.523 13c-2.796 0-4.66.857-6.523.857S14.272 13 11.477 13c-2.796 0-.932 4.903 0 5.76s4.66-.857 6.523-.857 5.591 1.714 6.523.857 2.796-5.76 0-5.76z"/><path fill="#88C9F9" d="M14.5 17.269c-.465 0-.846-.381-.846-.847v-.845c0-.465.381-.846.846-.846.466 0 .847.381.847.846v.845c-.001.466-.382.847-.847.847m7 0c-.465 0-.846-.381-.846-.847v-.845c0-.465.381-.846.846-.846.465 0 .846.381.846.846v.845c0 .466-.381.847-.846.847"/><path fill="#DF1F32" d="M17.887 23.543c-1.606 0-2.447-.794-2.537-.885-.268-.267-.268-.7 0-.967.266-.265.692-.267.961-.007.035.032.551.491 1.576.491 1.038 0 1.555-.473 1.576-.492.273-.256.703-.248.963.02.26.269.26.691-.004.955-.09.091-.93.885-2.535.885"/><path fill="#C1694F" d="M18.777 20.5h-1.69c-.233 0-.423-.19-.423-.423v-.153c0-.233.189-.424.423-.424h1.69c.233 0 .424.19.424.424v.153c0 .233-.19.423-.424.423"/></svg>