<svg xmlns="http://www.w3.org/2000/svg" viewBox="0 0 36 36"><path fill="#66757F" d="M26.623 9.859l.44-5.43c.022-.274.265-.48.539-.458l.03.002c.274.022.48.265.458.539l-.44 5.43c-.022.274-.265.48-.539.458l-.03-.002c-.275-.023-.481-.265-.458-.539z"/><path fill="#292F33" d="M14.457 20.548v2.06s-2.06 0-2.06 2.06v3.09c0 1.03 1.03 2.06 2.06 2.06h10.302c1.03 0 2.06-1.03 2.06-2.06v-5.151c0-1.03-1.03-2.06-2.06-2.06l-10.302.001z"/><path fill="#292F33" d="M21.622 22.154l-10.145-1.789c-1.014-.179-1.014-.179-.836-1.193.098-.558.635-.934 1.193-.836l10.145 1.789c.558.098.934.635.836 1.193-.178 1.015-.178 1.015-1.193.836z"/><path fill="#292F33" d="M23.974 18.511c-.199.949-.574 1.882-2.157 1.583-1.583-.298-1.836 1.262-.849 1.538.987.275 3.35.666 4.039-.459.688-1.124.803-2.203.734-2.685-.069-.481-1.62-.679-1.767.023z"/><path fill="#DD2E44" d="M22.137 22.504l-11.189-1.973c-.271-.048-.453-.308-.406-.579l.005-.03c.048-.271.308-.453.579-.406l11.189 1.973c.271.048.453.308.406.579l-.005.03c-.047.271-.308.453-.579.406z"/><path fill="#292F33" d="M27.778 8.848l-1.789 10.145c-.179 1.014-.179 1.014-1.193.836-.558-.098-.934-.635-.836-1.193L25.749 8.49c.098-.558.635-.934 1.193-.836 1.015.179 1.015.179.836 1.194zM28.8 1.132l-.734 4.146c-.09.508-.173 1.038-1.188.859-.558-.099-.908-.737-.786-1.441L26.75.978c.168-.597.645-1.034 1.203-.936 1.014.18.937.582.847 1.09z"/><path fill="#DD2E44" d="M28.27 8.402l-1.973 11.189c-.048.271-.308.453-.579.406l-.03-.005c-.271-.048-.453-.308-.406-.579l1.973-11.189c.048-.271.308-.453.579-.406l.03.005c.271.048.453.308.406.579zm1.28-7.68l-.943 5.366c-.048.271-.308.454-.579.406l-.03-.005c-.271-.048-.453-.308-.406-.579l.943-5.366c.048-.271.308-.453.579-.406l.03.005c.271.048.453.308.406.579z"/><path fill="#292F33" d="M24.237 17.912l-7.691-1.356c-.769-.136-.769-.136-.635-.895.074-.418.48-.698.903-.624l7.691 1.356c.423.075.709.477.635.895-.134.759-.134.759-.903.624z"/><path fill="#DD2E44" d="M21.794 21.397c1.023.18 3.043.537 3.58-2.507.537-3.043 1.551-2.865 1.014.179s-2.304 3.778-4.773 3.342c-2.029-.357-1.85-1.372.179-1.014zm-10.641-1.876c2.03.35 2.345 1.465.317 1.102-.899-.161-1.014.218-1.289.987-.259.723-.63 1.81-1.178 3.328-.403 1.115-1.317.621-.979-.352.568-1.636 1.093-3.058 1.434-3.962.348-.924.632-1.286 1.695-1.103z"/><path fill="#DD2E44" d="M8.929 23.654l-.029-.011c-.258-.094-.547.04-.641.299l-2.124 5.836c-.094.258.04.547.299.641l.028.01c.258.094.547-.04.641-.299l2.124-5.836c.094-.258-.04-.546-.298-.64z"/><path fill="#66757F" d="M6.462 30.43l-3.9-1.42c-.258-.094-.393-.382-.299-.641l.01-.028c.094-.258.382-.393.641-.299l3.9 1.42c.258.094.393.382.299.641l-.01.028c-.094.258-.382.393-.641.299z"/><path fill="#DD2E44" d="M12.225 30.718l3.06-3.06c.194-.194.194-.513 0-.707l-.021-.021c-.194-.194-.513-.194-.707 0l-3.06 3.06c-.194.194-.194.513 0 .707l.021.021c.194.194.512.194.707 0zm18.744 3.222h-.06c-.55 0-1-.45-1-1v-3.151c0-.55.45-1 1-1h.06c.55 0 1 .45 1 1v3.151c0 .55-.45 1-1 1z"/><path fill="#DD2E44" d="M11.911 33.94h-.06c-.55 0-1-.45-1-1v-3.151c0-.55.45-1 1-1h.06c.55 0 1 .45 1 1v3.151c0 .55-.45 1-1 1zm13.329-6.186h2.09c.275 0 .5-.225.5-.5v-.03c0-.275-.225-.5-.5-.5h-2.09c-.275 0-.5.225-.5.5v.03c0 .275.225.5.5.5z"/><path fill="#DD2E44" d="M30.047 30.657l-3.06-3.06c-.194-.194-.194-.513 0-.707l.021-.021c.194-.194.513-.194.707 0l3.06 3.06c.194.194.194.513 0 .707l-.021.021c-.195.195-.513.195-.707 0z"/><path fill="#292F33" d="M9.998 15.528c.765.328 2.111.964 2.41 1.079 0 0 .138-.918.505-.918 0 0 .138-.482.229-.688.092-.207.367-.138.39.252.023.39-.092.528-.092.528s.344.436.138 1.033c0 0 .459.069.367.643-.092.574.069 1.01-.344 1.124-.413.115-1.974.551-1.997-.069-.023-.62-.413-1.102-1.17-1.561-.757-.459-1.308-.964-1.216-1.216.091-.253.137-.482.78-.207z"/><path fill="#DD2E44" d="M25.288 24.668H13.927c-.275 0-.5-.225-.5-.5v-.03c0-.275.225-.5.5-.5h11.362c.275 0 .5.225.5.5v.03c-.001.275-.226.5-.501.5z"/><circle fill="#66757F" cx="20.122" cy="31.364" r="4.636"/><circle fill="#66757F" cx="11.881" cy="33.425" r="2.575"/><circle fill="#66757F" cx="30.939" cy="33.94" r="2.06"/><circle fill="#CCD6DD" cx="20.122" cy="31.364" r="2.575"/><circle fill="#CCD6DD" cx="11.881" cy="33.425" r="1.545"/><circle fill="#292F33" cx="30.939" cy="33.94" r="1.03"/><g fill="#292F33"><circle cx="20.638" cy="30.472" r=".515"/><circle cx="19.607" cy="32.256" r=".515"/><circle cx="19.23" cy="30.849" r=".515"/><circle cx="21.015" cy="31.879" r=".515"/></g><circle fill="#292F33" cx="11.881" cy="33.425" r=".773"/><circle fill="#66757F" cx="30.939" cy="33.94" r=".515"/></svg>