<svg xmlns="http://www.w3.org/2000/svg" viewBox="0 0 36 36"><circle fill="#66757F" cx="17.221" cy="29.784" r="2.5"/><circle fill="#66757F" cx="10.517" cy="9.871" r="4.592"/><path fill="#CCD6DD" d="M9.914 4.746c3.03-2.02 12.594-4.04 14.733-4.218s4.517.295 5.347 1.069c.891.832 2.131 2.311 1.96 4.693-.178 2.495-1.485 4.634-4.218 5.049-2.733.416-8.554-.832-11.168.238-1.583.648-1.901.178-2.317-.95-.416-1.129-1.423-2.677-2.203-3.62-1.183-1.429-3.4-1.417-2.134-2.261z"/><path fill="#99AAB5" d="M27.736 11.34c2.733-.416 4.04-2.554 4.218-5.049.03-.415.004-.793-.042-1.155-5.661-.212-14.809 1.095-18.741 3.45.446.697.854 1.427 1.081 2.042.416 1.129.734 1.598 2.317.951 2.613-1.071 8.434.177 11.167-.239zm-20.955.698c-1.1 2.201-.505 6.034 3.301 11.003 2.287 2.986 3.658 4.841 4.758 5.941s5.501 0 4.401-2.201c-3.301-6.602.744-10.343-6.552-15.049-3.161-2.039-5.156-1.198-5.908.306z"/><path fill="#CCD6DD" d="M17.289 29.293c1.358-.315 2.595-1.225 1.952-2.511-3.301-6.602.744-10.343-6.552-15.049-1.373-.886-2.526-1.228-3.453-1.209 6.347 5.916 3.403 9.656 8.053 18.769z"/><path fill="#8899A6" d="M13.726 29.713c.278.253 1.134.43 1.677.6-.162-.236-.574-.917-.735-1.257-.051-.108-.187-.15-.298-.094l-.677.426c-.131.064-.073.229.033.325zm-6.869 5.581c1.108.427 2.151.629 3.153.652.076.002 2.741 0 4.072-.007.974-.005 1.809-.01 2.091-.008l.174.001.263.002c1.844.011 3.116.105 3.668-.382.081-.072.112-.18.116-.3.006-.166-.008-.341-.008-.341-.035.125-5.57.481-7.417.58-6.101.326-7.589-1.435-7.656-1.586 0-.001.142.848 1.544 1.389z"/><path fill="#BE1931" d="M9.667 34.83c2.065.131 10.352-.655 10.352-.655l.214-.305c.215-.305.178-.785.181-1.198.003-.413-.119-1.959-.302-2.359-.183-.4-.555-.856-.899-.711-.432.181-1.221 1.125-1.89 1.12-.968-.006-3.215-1.482-3.533-1.485-.477-.003-.592.519-1.64.914-.49.185-2.727 1.049-2.727 1.049-.572.21-.608.322-.914.44-.628.242-1.996.653-2.528.863-.532.21-.729.622-.745.928-.016.306.076.473.076.473s.833.702 4.355.926z"/><path fill="#A0041E" d="M17.318 31.102c.81.005 1.764-1.19 2.297-1.433-.13-.088-.268-.124-.402-.068-.431.181-1.221 1.125-1.89 1.12-.969-.006-3.215-1.482-3.533-1.485-.132-.001-.237.041-.341.107.789.491 2.893 1.753 3.869 1.759z"/><path fill="#DD2E44" d="M20.079 34.068s.067-.022.145-.125c.217-.285.204-.733.207-1.121.002-.294-.043-1.205-.156-1.791-.38.068-2.38.431-3.1.773-.768.365-1.411 1.457-1.603 1.984-.008.021 4.507.28 4.507.28z"/><path fill="#CCD6DD" d="M12.974 30.691l-.379-.604c-.089-.143-.039-.327.112-.412.151-.085.347-.037.436.105l.379.604c.089.143.039.327-.112.412-.116.065-.258.053-.358-.021-.03-.023-.057-.051-.078-.084zm-1.139.529l-.296-.687c-.066-.154.012-.329.175-.392.163-.063.349.011.415.165l.296.687c.066.154-.012.329-.175.392-.109.042-.229.023-.316-.041-.043-.031-.077-.073-.099-.124zm-1.2.343l-.19-.652c-.046-.16.053-.325.223-.369.17-.044.345.05.391.21l.19.653c.046.16-.053.325-.223.369-.101.026-.204.004-.28-.053-.052-.039-.092-.093-.111-.158zm-1.187.284l-.125-.522c-.038-.162.069-.323.241-.359.172-.036.342.066.381.227l.125.522c.038.162-.069.323-.241.359-.097.021-.193-.003-.266-.056-.056-.041-.097-.1-.115-.171zM20.4 35.008c-.001.119-.139.316-.802.511-.466.138-2.68.115-3.423.111-.743-.005-5.333.033-6.156.015-.822-.018-1.731-.145-2.955-.545-1.28-.419-1.692-1.054-1.752-1.196.344.2.822.357 1.399.456.447.077 1.171.165 1.979.236.809.071 1.886-.005 2.576-.08.691-.075 2.731-.586 3.873-.724 1.142-.138 2.79-.101 3.228-.099.438.003 1.031.059 1.282.192.251.133.596.109.596.109.253.003.158.724.155 1.014z"/><path fill="#DD2E44" d="M5.436 32.906c.378.267 1.401.317 2.282.054 1.099-.328 1.244-.825 1.083-1.303-.011-.033-.043-.093-.062-.123-.251.102-.665.239-.749.28-.628.242-1.476.48-2.008.69-.253.098-.428.244-.546.402z"/></svg>