<svg xmlns="http://www.w3.org/2000/svg" viewBox="0 0 36 36"><path fill="#A0041E" d="M33.035 28.055c-3.843-2.612-14.989 2.92-15.037 2.944-.047-.024-11.193-5.556-15.037-2.944C-.021 30.082 0 36 0 36h35.996s.021-5.918-2.961-7.945z"/><path fill="#55ACEE" d="M32 29c-2.155-1.085-4 0-4 0l-10-1-10 1s-1.845-1.085-4 0c-3.995 2.011-2 7-2 7h32s1.995-4.989-2-7z"/><path fill="#DD2E44" d="M24.056 36c-1.211-1.194-3.466-2-6.056-2s-4.845.806-6.056 2h12.112z"/><path fill="#F7DECE" d="M13.64 28.537C15.384 29.805 16.487 30.5 18 30.5c1.512 0 2.615-.696 4.359-1.963V24.29h-8.72v4.247z"/><path fill="#DD2E44" d="M30.453 27c-1.953-.266-3.594.547-3.594.547s-.845-.594-1.845-.614c-1.469-.03-2.442.935-3.014 1.755C21.281 29.719 19 30 18 30s-3.281-.281-4-1.312c-.572-.82-1.545-1.784-3.014-1.755-1 .02-1.845.614-1.845.614S7.5 26.734 5.547 27c-1.305.177-2.357.764-2.846 1.248 2.83-1.685 4.757-.229 6.065.643C10.074 29.763 11 32 11 32c2-1 7-1 7-1s5 0 7 1c0 0 .926-2.237 2.234-3.109 1.308-.872 3.234-2.328 6.065-.643-.489-.484-1.541-1.071-2.846-1.248z"/><path fill="#EEC2AD" d="M13.632 25.5c.368 2.027 2.724 2.219 4.364 2.219 1.639 0 4.004-.191 4.363-2.219v-3.019h-8.728V25.5z"/><path fill="#F7DECE" d="M11.444 15.936c0 1.448-.734 2.622-1.639 2.622s-1.639-1.174-1.639-2.622.734-2.623 1.639-2.623c.905-.001 1.639 1.174 1.639 2.623m16.389 0c0 1.448-.733 2.622-1.639 2.622-.905 0-1.639-1.174-1.639-2.622s.733-2.623 1.639-2.623c.906-.001 1.639 1.174 1.639 2.623"/><path fill="#F7DECE" d="M18 7c-5 0-8 2-8 5s0 9 2 12 4 3 6 3 4 0 6-3 2-9 2-12-3-5-8-5z"/><path fill="#292F33" d="M18.821 3.118c6.004.49 8.356 4.246 8.356 7.851 0 3.604-.706 5.047-1.412 3.604-.706-1.441-1.356-3.368-1.356-3.368s-4.292.485-5.704-.957c0 0 2.118 4.326-2.118 0 0 0 .706 2.884-3.53-.72 0 0-2.118 1.442-2.824 5.046-.196 1.001-1.412 0-1.412-3.604.001-2.677.179-6.652 4.908-6.17 1.028-1.639 3.018-1.851 5.092-1.682z"/><path fill="#269" d="M25 12c-3 0-5 1-7 1s-4-1-7-1-1 5.72 0 6.72 5-1 7-1 6 2 7 1S28 12 25 12z"/><path fill="#88C9F9" d="M14 17c-.55 0-1-.45-1-1v-1c0-.55.45-1 1-1s1 .45 1 1v1c0 .55-.45 1-1 1m8 0c-.55 0-1-.45-1-1v-1c0-.55.45-1 1-1s1 .45 1 1v1c0 .55-.45 1-1 1"/><path fill="#C1694F" d="M18.75 19.75h-1.5c-.413 0-.75-.337-.75-.75s.337-.75.75-.75h1.5c.413 0 .75.337.75.75s-.337.75-.75.75m-.75 3.5c-2.058 0-3.594-.504-3.658-.525-.262-.088-.403-.37-.316-.632.086-.262.366-.407.632-.317.014.004 1.455.474 3.342.474s3.328-.47 3.343-.475c.257-.087.544.055.632.317.087.262-.055.544-.316.632-.065.022-1.601.526-3.659.526z"/></svg>