<svg xmlns="http://www.w3.org/2000/svg" viewBox="0 0 36 36"><ellipse fill="#939598" cx="18" cy="26" rx="18" ry="10"/><ellipse fill="#CCD6DD" cx="18" cy="24" rx="18" ry="10"/><path fill="#F4900C" d="M15.714 32.54L2.575 24.857c-1.262-.738-.929-3.558-.929-4.785l14.069-6.657c1.262-.738 3.308-.738 4.57 0L34.37 20.26c0 1.689.316 3.859-.947 4.597L20.285 32.54c-1.262.738-3.309.738-4.571 0z"/><path fill="#FFAC33" d="M15.714 29.279L2.575 21.596c-1.262-.738-1.262-1.934 0-2.672l13.139-7.683c1.262-.738 3.308-.738 4.57 0l13.139 7.683c1.262.738 1.262 1.934 0 2.672l-13.139 7.683c-1.261.738-3.308.738-4.57 0z"/><path d="M17.463 14.416l-1.61-.942c-.296-.173-.296-.454 0-.628l1.61-.942c.296-.173.777-.173 1.074 0l1.61.942c.296.173.296.454 0 .628l-1.61.942c-.297.174-.778.174-1.074 0zm3.757 2.197l-1.61-.942c-.296-.173-.296-.454 0-.628l1.61-.942c.296-.173.777-.173 1.074 0l1.61.942c.296.173.296.454 0 .628l-1.61.942c-.297.174-.777.174-1.074 0zm3.757 2.197l-1.61-.942c-.296-.173-.296-.454 0-.628l1.61-.942c.296-.173.777-.173 1.074 0l1.61.942c.296.173.296.454 0 .628l-1.61.942c-.297.174-.777.174-1.074 0zm3.758 2.198l-1.61-.942c-.296-.173-.296-.454 0-.628l1.61-.942c.296-.173.777-.173 1.074 0l1.61.942c.296.173.296.454 0 .628l-1.61.942c-.297.173-.778.173-1.074 0zm-15.03-4.395l-1.61-.942c-.296-.173-.296-.454 0-.628l1.61-.942c.296-.173.777-.173 1.074 0l1.61.942c.296.173.296.454 0 .628l-1.61.942c-.297.174-.777.174-1.074 0zm3.758 2.197l-1.61-.942c-.296-.173-.296-.454 0-.628l1.61-.942c.296-.173.777-.173 1.074 0l1.61.942c.296.173.296.454 0 .628l-1.61.942c-.297.174-.778.174-1.074 0zm3.757 2.198l-1.61-.942c-.296-.173-.296-.454 0-.628l1.61-.942c.296-.173.777-.173 1.074 0l1.61.942c.296.173.296.454 0 .628l-1.61.942c-.297.173-.777.173-1.074 0zm3.757 2.197l-1.61-.942c-.296-.173-.296-.454 0-.628l1.61-.942c.296-.173.777-.173 1.074 0l1.61.942c.296.173.296.454 0 .628l-1.61.942c-.297.173-.777.173-1.074 0zM9.948 18.81l-1.61-.942c-.296-.173-.296-.454 0-.628l1.61-.942c.296-.173.777-.173 1.074 0l1.61.942c.296.173.296.454 0 .628l-1.61.942c-.297.174-.778.174-1.074 0zm3.757 2.198l-1.61-.942c-.296-.173-.296-.454 0-.628l1.61-.942c.296-.173.777-.173 1.074 0l1.61.942c.296.173.296.454 0 .628l-1.61.942c-.297.173-.777.173-1.074 0zm3.758 2.197l-1.61-.942c-.296-.173-.296-.454 0-.628l1.61-.942c.296-.173.777-.173 1.074 0l1.61.942c.296.173.296.454 0 .628l-1.61.942c-.297.173-.778.173-1.074 0zm3.757 2.197l-1.61-.942c-.296-.173-.296-.454 0-.628l1.61-.942c.296-.173.777-.173 1.074 0l1.61.942c.296.173.296.454 0 .628l-1.61.942c-.297.173-.777.173-1.074 0zM6.191 21.008l-1.61-.942c-.296-.173-.296-.454 0-.628l1.61-.942c.296-.173.777-.173 1.074 0l1.61.942c.296.173.296.454 0 .628l-1.61.942c-.297.173-.778.173-1.074 0zm3.757 2.197l-1.61-.942c-.296-.173-.296-.454 0-.628l1.61-.942c.296-.173.777-.173 1.074 0l1.61.942c.296.173.296.454 0 .628l-1.61.942c-.297.173-.778.173-1.074 0zm3.757 2.197l-1.61-.942c-.296-.173-.296-.454 0-.628l1.61-.942c.296-.173.777-.173 1.074 0l1.61.942c.296.173.296.454 0 .628l-1.61.942c-.297.173-.777.173-1.074 0zm3.758 2.197l-1.61-.942c-.296-.173-.296-.454 0-.628l1.61-.942c.296-.173.777-.173 1.074 0l1.61.942c.296.173.296.454 0 .628l-1.61.942c-.297.173-.778.173-1.074 0z" fill="#F4900C"/><path fill="#D3790D" d="M15.72 16.354c-3.406-1.039-4.841-.515-4.618 2.165.058.693-.895 1.847-1.847 2.511-2.215 1.544-1.263 4.124 2.54 2.222 1.905-.952 4.682-.887 8.052.144 2.828.866 4.589 2.05 4.82 3.32 1.122-.367 1.732-.847 2.28-1.309-.233-.526-1.27-2.04-2.915-2.761-3.112-1.365-.106-3.331 2.222-3.81 2.107-.433.029-2.02-3.175-1.963-3.202.058-2.397.995-7.359-.519z"/><path opacity=".5" fill="#D3790D" d="M24.668 26.542c0 .456.058.468.058 1.387 0 1.789 2.194 1.472 2.194-1.501 0-.346.029-1.021.029-1.021l-2.281 1.135z"/><path fill="#FFAC33" d="M22.16 17.651c.46.262.461 1.863 0 2.125l-3.328 1.897c-.46.262-1.204.262-1.664 0l-3.329-1.897c-.46-.262-.46-1.863 0-2.125l3.329-.721c.46-.262 1.204-.262 1.664 0l3.328.721z"/><path fill="#FFD983" d="M22.16 17.651c.46.262.461.686 0 .948l-3.328 1.897c-.46.262-1.204.262-1.664 0l-3.329-1.897c-.46-.262-.46-.686 0-.948l3.329-1.897c.46-.262 1.204-.262 1.664 0l3.328 1.897z"/></svg>