<svg xmlns="http://www.w3.org/2000/svg" viewBox="0 0 36 36"><path fill="#F7DECE" d="M13.449 22.569c-.236.161-.512-.02-.646-.131-.379-.313-.763-1.144-.611-2.142.154-1.008.404-2.185.878-4.137.055-.228-.274-2.776.007-4.528.076-.473.958-1.066 1.495-1.057.536.008.263.944.274 1.101.12 1.682-.143 4.279-.193 4.632-.277 1.956-1.239 2.835-.981 4.13.135.679.154 1.293-.242 1.345.004.366.105.728.019.787zm9.102 0c.236.161.512-.02.646-.131.379-.313.763-1.144.611-2.142-.154-1.008-.404-2.185-.878-4.137-.055-.228.274-2.776-.007-4.528-.076-.473-.958-1.066-1.495-1.057-.536.008-.263.944-.274 1.101-.12 1.682.143 4.279.193 4.632.277 1.956 1.239 2.835.981 4.13-.135.679-.154 1.293.242 1.345-.004.366-.105.728-.019.787z"/><path fill="#4289C1" d="M21.717 25.17c0-1.012.084-3.628-.241-5.198-.325-1.57-6.687-1.605-7.012 0-.325 1.605-.075 4.081-.075 5.158 0 2.141 1.159 7.747.862 9.903-.066.479 2.492.937 2.449-.125-.078-1.969-.104-5.193-.04-6.18.035-.547.171-4.771.265-6.105.011-.018.295-.018.306 0 .094 1.333.387 5.558.423 6.105.064.987.137 4.212.059 6.18-.042 1.062 2.525.604 2.459.125-.296-2.156.545-9.514.545-9.863z"/><path fill="#292F33" d="M19.744 5.553c.814.198 1.151.895 1.116 1.616-.024.488.384.93.384.93s-2.07.419-2.481-1.409c-.371-1.641.981-1.137.981-1.137z"/><path fill="#9268CA" d="M22.131 9.371c-.665-.794-3.019-1.356-3.019-1.356h-2.225s-2.355.561-3.019 1.356c-.807.964-.982 2.71-.982 2.71l1.608.298s.461 1.862.461 3.3c0 1.147-.422 3.328-.593 4.163-.043.211-.035.227 0 .279s.233.057.233.057h6.814s.128.022.198-.036.051-.084.002-.286c-.203-.833-.722-3.073-.722-4.176 0-1.371.65-3.301.65-3.301l1.58-.298c-.004-.001-.179-1.746-.986-2.71z"/><path fill="#F7DECE" d="M19.36 4.361l-2.688.019v3.981c0 .963 2.688.998 2.688 0v-4z"/><path fill="#EEC2AD" d="M19.36 3.851l-2.688.019v3.901s1.17 1.151 2.688.035V3.851z"/><path fill="#292F33" d="M15.11 3.437c0-1.753 1.335-2.651 2.983-2.651 1.647 0 2.983.898 2.983 2.651s-1.335 3.174-2.983 3.174c-1.648 0-2.983-1.421-2.983-3.174z"/><path fill="#F7DECE" d="M20.702 2.283h-5.21v2.738c0 1.337 1.447 2.993 2.605 2.993s2.605-1.516 2.605-2.912V2.283z"/><path fill="#292F33" d="M18.199 2.233s-.967 1.739-2.707 1.739V2.233h2.707z"/><path fill="#292F33" d="M17.937 2.233s1.033 1.739 2.772 1.739V2.233h-2.772z"/><circle fill="#662113" cx="17.049" cy="4.777" r=".339"/><circle fill="#662113" cx="19.165" cy="4.777" r=".339"/><path fill="#DF1F32" d="M18.112 7.03c-.404 0-.616-.2-.639-.223-.067-.067-.067-.176 0-.243s.174-.067.242-.002c.009.008.139.124.397.124.261 0 .391-.119.397-.124.069-.064.177-.062.242.005.065.068.065.174-.001.24-.022.023-.233.223-.638.223"/><path fill="#C1694F" d="M18.31 6.138h-.395c-.109 0-.198-.089-.198-.198 0-.109.089-.198.198-.198h.395c.109 0 .198.089.198.198-.001.109-.09.198-.198.198z"/><path fill="#292F33" d="M14.173 35.898c-.558-.051-.192-.684.062-.897.282-.238.734-.441.961-.852.251-.455 1.465-.395 1.721-.023.457.664.66.179.792.488.212.494.05 1.284.05 1.284h-3.586zm8.029 0c.558-.051.192-.684-.062-.897-.282-.238-.734-.441-.961-.852-.251-.455-1.465-.395-1.721-.023-.457.664-.66.179-.792.488-.212.494-.05 1.284-.05 1.284h3.586z"/></svg>