<svg xmlns="http://www.w3.org/2000/svg" viewBox="0 0 36 36"><path fill="#D39954" d="M26.617 32.441c-.02-.039-.373-.678-1.025-1.172.103-.421.056-.835-.307-1.103-.9-.662-8.82.226-9.386 3.057-.234 1.171.588 1.171 1.038.809-.137.499-.212 1.011-.169 1.49.024.269.261.467.531.444.029-.002.057-.007.084-.015.225-.06.381-.275.36-.516-.03-.334.022-.694.111-1.051.201.18.424.327.686.269.312-.07.51-.378.64-.712.015.212.046.348.05.363.069.259.333.411.593.345l.006-.002c.257-.069.411-.333.348-.591-.004-.017-.051-.229-.019-.565.442.267 1 .509 1.457.398.581-.142.859-.631.997-1.113.439.412.698.895.958 1.454.101.219.344.327.569.267.028-.007.054-.016.08-.029.246-.113.352-.405.238-.65-.185-.399-.414-.88-.793-1.348.346.231.711.393.95.253.166-.097.364-.302.545-.553.377.336.589.721.592.727.11.204.344.3.559.242.035-.009.069-.023.103-.04.239-.126.33-.419.204-.658z"/><path fill="#EDD6A6" d="M21.708 6.32c-2.741-.932-5.978-3.134-6.754-6.03-.273-1.02-.952 1.29-1.891 1.541-.939.252-2.682-1.409-2.408-.389.776 2.896-.926 6.422-2.834 8.599-3.575 4.08-6.287 8.95-4.89 14.165 2 7.465 10.1 10.746 18.41 8.519s13.684-9.118 11.684-16.582c-1.398-5.215-6.182-8.077-11.317-9.823z"/><path fill="#E2A759" d="M13.66 32.585c-3.296-1.993-7.838-5.273-8.227-11.23-.425-6.519 4.936-10.098 5.304-13.826.444 4.428-3.559 7.236-3.214 12.866.313 5.101 2.429 8.841 6.137 12.19z"/><path fill="#E2A759" d="M19.764 32.885c-3.097-1.934-6.932-5.916-7.944-11.203-1.457-7.611 1.103-12.145.203-17.89 1.897 6.644 1.034 9.757 2.302 16.336.825 4.282 2.9 10.213 5.439 12.757zm8.158-4.121c1.858-3.374 4.302-8.526 1.66-13.88-2.891-5.858-9.474-6.237-11.657-9.281 1.829 4.057 6.85 4.447 9.367 9.495 2.28 4.574 2.166 8.912.63 13.666z"/><path fill="#E2A759" d="M22.786 32.076c1.715-3.223 3.045-8.589 1.278-13.674-2.543-7.32-7.027-9.966-9.121-15.392 1.679 6.703 3.983 8.966 6.174 15.298 1.427 4.12 2.596 10.295 1.669 13.768z"/></svg>