<svg xmlns="http://www.w3.org/2000/svg" viewBox="0 0 36 36"><path fill="#D4AB88" d="M22.933 22.368c.236.161.512-.02.646-.131.379-.313.763-1.144.611-2.142-.154-1.008-.11-2.185-.584-4.137-.055-.228.274-2.776-.007-4.528-.076-.473-1.251-1.066-1.789-1.057-.536.008-.263.944-.274 1.101-.12 1.682.143 4.279.193 4.632.277 1.956 1.239 2.835.981 4.13-.135.679-.154 1.293.242 1.345-.004.366-.105.728-.019.787zm-9.866-.192c-.236.161-.512-.02-.646-.131-.379-.313-.763-1.144-.611-2.142.154-1.008.11-2.185.584-4.137.055-.228-.274-2.776.007-4.528.076-.473 1.251-1.066 1.789-1.057.536.008.263.944.274 1.101.12 1.682-.143 4.279-.193 4.632-.277 1.956-1.239 2.835-.981 4.13.135.679.154 1.293-.242 1.345.004.366.105.728.019.787z"/><path fill="#4289C1" d="M21.702 26.733c.021-3.063.014-6.5.014-6.5h-7.465s.035 3.747.123 6.46c.07 2.14.396 6.193.1 8.349-.066.479 2.886.937 2.844-.125-.078-1.969.264-6.322.328-7.309.035-.547.25-2.326.344-3.659.011-.018.295-.018.306 0 .094 1.333.308 3.112.344 3.659.064.987.406 5.34.328 7.309-.042 1.062 2.91.604 2.844.125-.298-2.157-.113-7.96-.11-8.309z"/><path fill="#77B255" d="M22.822 9.472c-.778-.849-3.536-1.449-3.536-1.449h-2.605s-2.757.6-3.536 1.449c-.945 1.031-1.15 2.895-1.15 2.895l1.882.318s.283.9.283 2.436-.177 5.896-.177 5.896h8.032s-.209-4.43-.209-5.895.315-2.437.315-2.437l1.85-.318c.001 0-.205-1.865-1.149-2.895z"/><path fill="#D4AB88" d="M19.344 4.369l-2.688.019v3.981c0 .963 2.688.998 2.688 0v-4z"/><path fill="#CC9B7A" d="M19.344 3.86l-2.688.019V7.78s1.17 1.151 2.688.035V3.86z"/><path fill="#963B22" d="M18.402.716c-.613-.078-1.567.093-2.032.605-.651-.233-1.415.479-1.415 1.453 0 1.116.164 2.206.857 2.64.52.723 1.571 1.046 2.53 1.046 1.582 0 2.703-.756 2.703-3.093 0-1.883-.992-2.442-2.643-2.651z"/><path fill="#D4AB88" d="M20.687 2.292h-5.21V5.03c0 1.337 1.166 2.993 2.605 2.993s2.605-1.516 2.605-2.912V2.292z"/><path fill="#963B22" d="M17.146 1.588l-1.67.704v2.084c0-.799.545-.846.871-1.358.012.322.658.628 1.636.628.744 0 2.703-1.291 2.703.73V2.007l-3.54-.419z"/><circle fill="#662113" cx="17.033" cy="4.786" r=".339"/><circle fill="#662113" cx="19.15" cy="4.786" r=".339"/><path fill="#C1694F" d="M18.573 6.984h-.953c-.102 0-.186-.084-.186-.186s.084-.186.186-.186h.953c.102 0 .186.084.186.186s-.084.186-.186.186zm-.279-.838h-.395c-.109 0-.198-.089-.198-.198 0-.109.089-.198.198-.198h.395c.109 0 .198.089.198.198 0 .109-.089.198-.198.198z"/><path fill="#292F33" d="M13.789 35.907c-.558-.051-.192-.684.062-.897.282-.238.734-.441.961-.852.251-.455 1.465-.395 1.721-.023.457.664.66.179.792.488.212.494.05 1.284.05 1.284h-3.586zm8.666 0c.558-.051.192-.684-.062-.897-.282-.238-.734-.441-.961-.852-.251-.455-1.465-.395-1.721-.023-.457.664-.66.179-.792.488-.212.494-.05 1.284-.05 1.284h3.586z"/></svg>