<svg xmlns="http://www.w3.org/2000/svg" viewBox="0 0 36 36"><path fill="#E3A919" d="M28.337 32.563l-2.579 3.082c-.552.553-1.758.007-1.758-.545V12.001c0-.552 2.372-4.501 5-4.501l-.028 23.007c0 1.134-.093 1.308-.635 2.056z"/><path fill="#FFD983" d="M26 10.454H9l.194-.348L12.74 7.5c.486-.379.831-.5 1.383-.5h14.363c.188 0 .514.277.344.47L26 10.454z"/><path fill="#FFCC4D" d="M25 36H10c-.552 0-1-.448-1-1V10.454S9.448 10 10 10h15c.552 0 1 .454 1 .454V35c0 .552-.448 1-1 1z"/><circle fill="#F4900C" cx="15" cy="27" r="3"/><circle fill="#EA596E" cx="15" cy="21" r="4"/><circle fill="#FFE8B6" cx="19.5" cy="23.5" r="4.5"/><circle fill="#FFCC4D" cx="19.5" cy="23.5" r="2.5"/><path fill="#CCD6DD" d="M22.999 8.464s-.21.431-.967.431-1.033-.431-1.033-.431V4.342c0-1.993.532-3.309 1.582-3.911 1.005-.576 2.326-.398 3.922.535 1.274.743 4.421 2.972 4.496 3.034 0 0 .165.565-.303 1.1-.468.535-.965.447-.965.447-.018-.014-3.101-2.191-4.236-2.855-.881-.515-1.584-.623-1.904-.436-.279.16-.592.726-.592 2.086v4.122z"/><path fill="#99AAB5" d="M25.434.44c-1.124-.446-2.082-.451-2.853-.01-.791.454-1.287 1.314-1.484 2.562l1.975.367c.108-.664.322-.989.52-1.103.22-.129.63-.105 1.146.082L25.434.44z"/><path fill="#FFE8B6" d="M25.931 11H9.5c-.275 0-.5-.225-.5-.5s.225-.5.5-.5h16.431c.275 0 .5.225.5.5s-.225.5-.5.5z"/><path fill="#FFE8B6" d="M28.908 7.796l-2.536 3.036c-.163.201-.471.223-.684.05-.214-.173-.255-.479-.093-.68l2.536-3.036c.163-.201.471-.223.684-.05.214.174.255.479.093.68z"/></svg>