<svg xmlns="http://www.w3.org/2000/svg" viewBox="0 0 36 36"><path fill="#4289C1" d="M35.002 36v-2c0-3.314-2.686-6-6-6h-16c-3.313 0-6 2.686-6 6v2h28z"/><path fill="#FFDC5D" d="M16.642 28.101c0 .736 1.965 1.963 4.36 1.963s4.359-1.157 4.359-1.963V24.29h-8.72v3.811z"/><path fill="#F9CA55" d="M16.634 25.973c1.216 1.374 2.724 1.746 4.364 1.746 1.639 0 3.146-.373 4.363-1.746v-3.491h-8.728v3.491z"/><path fill="#FFDC5D" d="M14.447 15.936c0 1.448-.734 2.622-1.639 2.622s-1.639-1.174-1.639-2.622.734-2.623 1.639-2.623c.905-.001 1.639 1.174 1.639 2.623m16.388 0c0 1.448-.733 2.622-1.639 2.622-.905 0-1.639-1.174-1.639-2.622s.733-2.623 1.639-2.623c.906-.001 1.639 1.174 1.639 2.623"/><path fill="#FFDC5D" d="M12.48 16.959c0-5.589 3.816-10.121 8.522-10.121 4.707 0 8.523 4.532 8.523 10.121S25.709 27.08 21.002 27.08c-4.706 0-8.522-4.531-8.522-10.121"/><path fill="#C1694F" d="M21.002 23.802c-2.754 0-3.6-.705-3.741-.848-.256-.256-.256-.671 0-.927.248-.248.646-.255.902-.023.052.037.721.487 2.839.487 2.2 0 2.836-.485 2.842-.49.256-.255.657-.243.913.015.256.256.242.683-.014.938-.141.143-.987.848-3.741.848"/><path fill="#FFAC33" d="M21 3.48c5.648 0 9.178 4.168 9.178 7.641s-.706 4.863-1.412 3.473l-1.412-2.778s-4.235 0-5.647-1.39c0 0 2.118 4.168-2.118 0 0 0 .706 2.779-3.53-.694 0 0-2.118 1.389-2.824 4.862-.196.964-1.412 0-1.412-3.473C11.822 7.648 14.646 3.48 21 3.48"/><path fill="#662113" d="M17.002 17c-.55 0-1-.45-1-1v-1c0-.55.45-1 1-1s1 .45 1 1v1c0 .55-.45 1-1 1m8 0c-.55 0-1-.45-1-1v-1c0-.55.45-1 1-1s1 .45 1 1v1c0 .55-.45 1-1 1"/><path fill="#C1694F" d="M21.752 19.75h-1.5c-.413 0-.75-.337-.75-.75s.337-.75.75-.75h1.5c.413 0 .75.337.75.75s-.336.75-.75.75"/><path fill="#2A6797" d="M8.002 28.558V36h1l.303-7.442z"/><path fill="#4289C1" d="M4.335 28.053L3.002 36h5l.721-7.588z"/><path fill="#FFDC5D" d="M6.789 22.258c.923-.923 3.558-2.964 4.215-3.637.658-.672 1.53.097 1.068.918-.462.821-3.129 3.847-3.129 3.847s1.59.462 1.949.872 1.026 3.078.41 3.488-1.539.103-1.539.103-.973 2.411-3.487 2.257c-1.044-.064-2.103-.975-2.001-2.514.103-1.539.904-2.969 1.18-3.796.308-.923 1.334-1.538 1.334-1.538z"/><path d="M6.103 20.705c-.048 0-.097-.007-.146-.021-2.429-.74-2.859-3.564-2.876-3.684-.039-.273.15-.525.423-.565.272-.038.526.149.566.422.003.023.362 2.316 2.178 2.869.264.081.413.36.333.624-.066.216-.264.355-.478.355zm-1.077 2.012c-.049 0-.099-.007-.148-.023C1.321 21.593.366 17.585.327 17.415c-.062-.269.106-.537.375-.599.271-.062.537.106.6.375.008.036.872 3.618 3.873 4.548.264.082.411.361.33.625-.067.215-.265.353-.479.353z" fill="#5DADEC"/></svg>