<svg xmlns="http://www.w3.org/2000/svg" viewBox="0 0 36 36"><path fill="#8899A6" d="M6 10l3 23c0 1.657 4.029 3 9 3s9-1.343 9-3l3-23H6z"/><path fill="#D3A471" d="M7 10l3 22.644c0 1.243 3.582 2.25 8 2.25s8-1.007 8-2.25L29 10H7z"/><path fill="#CCD6DD" d="M27.756 19.538L29 10H7l1.244 9.538z"/><path fill="#E1E8ED" d="M25.982 19.538L27 10H9l1.018 9.538z"/><ellipse fill="#ECD2A7" cx="18" cy="19.455" rx="9.764" ry="2.355"/><path fill="#AA8DD8" d="M21.836 19.144l1.627-18.067-2.988-.27-1.651 18.337z"/><path fill="#55ACEE" d="M5.696 10.003c-.179 1.05-.162 2.363.413 2.527.46.132 1.104-.09 1.639.177.535.267.963.965 1.506 1.151 1.04.356 1.678-.299 2.303-.221 1.188.148 1.721 1.284 2.702 1.373.98.089 1.781-.738 2.701-.709.984.032.936.767 2.48.797 1.516.029 1.766-.959 2.657-1.019.891-.059 1.471.547 2.303.399.832-.149 1.177-1.017 1.86-1.196.683-.178 1.045.326 1.639.177.594-.148.907-1.17 1.264-1.438.356-.267 1.571 1.26 1.277-1.663-.536-5.328-19.13-.563-20.882-.681-1.753-.119-3.491-1.845-3.862.326z"/><ellipse fill="#88C9F9" cx="18" cy="10.011" rx="12.35" ry="3.8"/><path fill="#9266CC" d="M23.463 1.077L20.475.808l-.853 9.474c-.001.007-.006.013-.006.019 0 .276.672.5 1.5.5s1.5-.224 1.5-.5V10.3h.017l.83-9.223z"/><path fill="#553788" d="M23.463 1.077c-.025.275-.714.438-1.539.363-.825-.074-1.474-.358-1.449-.633.025-.275.714-.438 1.539-.363s1.474.358 1.449.633z"/><ellipse fill="#AA8DD8" cx="20.314" cy="19.19" rx="1.5" ry=".5"/><g fill="#292F33"><path d="M11.295 29.554c-.327.327-.911.275-1.303-.117-.392-.392-.445-.976-.117-1.303.327-.327.911-.275 1.303.117.392.392.444.975.117 1.303zm2.938 4.348c-.089.351-.5.549-.917.444-.417-.106-.684-.476-.595-.827.089-.351.5-.55.917-.444.418.106.684.476.595.827zm3.551-6.591c-.094.37-.508.583-.926.478-.417-.106-.68-.491-.586-.861.094-.37.508-.583.926-.478.417.106.68.492.586.861z"/><ellipse cx="17.217" cy="33.802" rx="1.071" ry=".905"/><path d="M25.148 26.582c.102.45-.206.904-.688 1.013-.482.11-.956-.166-1.059-.616-.102-.45.206-.903.688-1.013.482-.11.956.166 1.059.616zm-2.993 4.497c-.184.561-.75.879-1.265.71-.514-.169-.782-.76-.598-1.322s.75-.879 1.265-.71c.514.169.782.76.598 1.322zm-5.126-.479c.166.531-.114 1.091-.626 1.251-.512.16-1.061-.141-1.227-.672-.166-.531.114-1.091.626-1.251.511-.16 1.061.141 1.227.672zm2.381-.292c-.455.238-1.01.076-1.239-.361-.229-.438-.046-.986.41-1.224.455-.238 1.01-.077 1.239.361.229.438.045.986-.41 1.224zm1.699 2.608c.082.501-.334.986-.929 1.083-.595.097-1.144-.23-1.225-.731-.082-.501.334-.986.929-1.083.595-.097 1.143.23 1.225.731zm-6.762-3.885c-.351.289-.946.145-1.329-.321-.383-.466-.408-1.077-.057-1.366.351-.289.946-.145 1.329.32.382.467.408 1.079.057 1.367zm9.457 3.687c.251.394.066.961-.412 1.266-.479.305-1.07.232-1.321-.163-.251-.394-.066-.961.412-1.266.478-.304 1.07-.232 1.321.163zm1.778-.814c.304.208.32.714.036 1.13-.284.417-.761.586-1.066.378-.304-.208-.32-.714-.036-1.13.285-.416.762-.586 1.066-.378zm-15.854-6.47c.278-.015.522.335.547.783.024.448-.181.823-.458.838-.278.015-.522-.335-.547-.783s.181-.823.458-.838zM23.845 28.9c.19.326.044.764-.326.98-.37.216-.824.127-1.014-.199-.19-.326-.044-.764.326-.98.37-.216.824-.127 1.014.199zm-5.291 2.468c.27.184.319.581.11.887-.209.306-.596.404-.866.22-.27-.184-.319-.581-.11-.887.209-.305.597-.404.866-.22zm7.324-2.306c.295.078.441.493.327.928-.115.435-.446.725-.741.647-.295-.078-.441-.493-.327-.928.115-.435.446-.725.741-.647zM26 27.13c.231.061.341.405.245.769-.096.364-.361.61-.592.549s-.341-.405-.245-.769c.096-.364.361-.609.592-.549zm-1.272 3.396c.3.274.254.812-.102 1.203-.357.391-.889.486-1.189.212-.3-.274-.254-.812.102-1.203.357-.391.889-.486 1.189-.212zm-11.456.686c-.242.356-.801.399-1.249.095-.448-.304-.615-.839-.373-1.196s.801-.399 1.249-.095c.448.304.615.84.373 1.196zm8.985-3.5c.034.457-.375.86-.915.901-.54.041-1.005-.297-1.04-.753-.034-.457.375-.86.915-.901.54-.041 1.005.296 1.04.753zm-7.088 5.02c-.267.338-.828.34-1.253.004-.425-.335-.553-.881-.286-1.219.267-.338.828-.34 1.252-.004.425.335.554.881.287 1.219zm-3.382-.593c.341.451.332 1.034-.022 1.301-.353.267-.916.118-1.258-.334s-.332-1.034.022-1.301c.353-.267.916-.118 1.258.334z"/></g></svg>