<svg xmlns="http://www.w3.org/2000/svg" viewBox="0 0 36 36"><path fill="#BBDDF5" d="M5 21.875s1.589 5.727 2 8.482c.464 3.111 3.571 5.571 11 5.571s10.536-2.461 11-5.571c.411-2.755 2-8.482 2-8.482H5z"/><path fill="#662113" d="M5.094 21.969c.25 1.219.694 1.994 1.344 1.594.65-.4 1.65-.193 1.344.625-.281.75.969 1.094 1.5.656.509-.419 1.555-.881 1.656.062.094.875 1.168 1.11 1.656.469.5-.656 1.875-.394 2.125.406s1.594.688 1.969.125c.355-.533.713-.885 1.312-.885V25c.6 0 .957.373 1.312.906.375.562 1.719.675 1.969-.125s1.625-1.062 2.125-.406c.489.641 1.562.406 1.656-.469.101-.943 1.147-.482 1.656-.062.531.438 1.781.094 1.5-.656-.307-.818.694-1.025 1.344-.625.65.4 1.094-.375 1.344-1.594H5.094z"/><path fill="#C1694F" d="M33 18.969c0-4.919-6.731-8.906-15.033-8.906-8.303 0-15.033 3.987-15.033 8.906 0 3.969 9 6.031 15.033 6.031S33 23 33 18.969z"/><path d="M18 35.5c-.276 0-.5-.224-.5-.5v-8.646c0-.276.224-.5.5-.5s.5.224.5.5V35c0 .276-.224.5-.5.5zm-6.699-1.268c-.248 0-.463-.184-.496-.436l-1.031-7.982c-.035-.274.158-.525.432-.561.272-.041.524.158.56.432l1.031 7.982c.035.274-.158.525-.432.561-.021.003-.043.004-.064.004zm3.179.976c-.257 0-.476-.197-.498-.459l-.708-8.521c-.023-.274.182-.517.457-.539.283-.022.517.182.54.457l.708 8.521c.023.274-.182.517-.457.539l-.042.002zm-5.959-3.041c-.175 0-.331-.123-.367-.301l-1.5-7.438c-.041-.203.09-.4.293-.441.198-.048.4.09.442.293l1.5 7.438c.041.203-.09.4-.293.441-.026.006-.051.008-.075.008zm16.1 1.952c-.024 0-.048-.002-.072-.005-.273-.039-.463-.293-.424-.566l1.13-7.869c.039-.274.296-.456.566-.424.273.039.463.293.424.566l-1.13 7.869c-.036.249-.25.429-.494.429zm-3.042 1.089l-.042-.002c-.275-.022-.48-.265-.457-.539l.708-8.521c.022-.276.292-.474.539-.457.275.022.48.265.457.539l-.708 8.521c-.021.262-.24.459-.497.459zm5.983-3c-.023 0-.047-.002-.07-.007-.204-.039-.337-.235-.298-.438l1.438-7.479c.039-.203.241-.337.438-.298.204.039.337.235.298.438l-1.438 7.479c-.034.18-.191.305-.368.305z" fill="#88C9F9"/><path fill="#FFE8B6" d="M16.912-.011s1.087 1.144 2.175 1.167c2.268.049 4.355 1.315 4.355 3.506 0 0 5.261 0 5.443 4.674 0 0 2.655.045 3.263 4.672.454 3.456-3.038 8.227-14.148 8.178-9.795-.043-14.806-3.524-14.148-8.176.634-4.48 4.354-4.673 4.354-4.673s-.636-5.843 6.529-5.842c0 0 .726-2.337 2.177-3.506z"/><path fill="#FFCC4D" d="M17.91 10.504c2.936-1.108 5.623-3.115 5.533-5.841 0-.858-.327-1.568-.852-2.125.643 2.808-3.651 6-8.399 6.506-5.941.633-5.261-2.872-5.261-2.872l-.007.007c-.883 1.536-.717 3.159-.717 3.159.905 2.383 5.576 2.724 9.703 1.166z"/><path fill="#FFCC4D" d="M28.885 9.337c-.006-.143-.03-.268-.045-.402-.116-.677-.453-1.506-.774-2.138-.19-.265-.4-.499-.63-.702 1.109 4.426-5.563 9.749-11.93 10.982-8.299 1.606-11.654-3.065-11.654-3.065-.342 2.415.858 4.509 3.449 5.976 10.227 4.169 21.673-6.095 21.584-10.651z"/><path fill="#DD2E44" d="M8.689 14.201l-1.181 1.614c-.325.444-.954.541-1.398.216-.444-.325-.541-.954-.216-1.398l1.181-1.614c.325-.444.954-.541 1.398-.216.444.325.541.954.216 1.398z"/><path fill="#55ACEE" d="M14.935 8.187l-1.956-.419c-.538-.115-.884-.65-.768-1.187.115-.538.65-.884 1.187-.768l1.956.419c.538.115.884.65.768 1.187-.115.538-.649.884-1.187.768z"/><path fill="#77B255" d="M16.431 14.173l1.313 1.509c.361.415.317 1.05-.098 1.411-.415.361-1.05.317-1.411-.098l-1.313-1.509c-.361-.415-.317-1.05.098-1.411.415-.361 1.05-.317 1.411.098z"/><path fill="#F4900C" d="M24.372 11.499l-1.871.707c-.515.194-1.095-.068-1.289-.582-.194-.515.068-1.095.582-1.289l1.871-.707c.515-.194 1.095.068 1.289.582.195.514-.067 1.094-.582 1.289z"/><path fill="#AA8DD8" d="M30.366 14.051l-1 1.732c-.275.476-.89.641-1.366.366-.476-.275-.641-.89-.366-1.366l1-1.732c.275-.476.89-.641 1.366-.366.476.275.641.889.366 1.366z"/></svg>