<svg xmlns="http://www.w3.org/2000/svg" viewBox="0 0 36 36"><path fill="#7C533E" d="M18.973 1.123c-1.849-.728-4.732.211-5.067 2.372-.333 2.145.278 5.51 2.162 5.306 1.976-.213 4.003-.643 4.803-2.677.802-2.034-.048-4.273-1.898-5.001z"/><path fill="#7C533E" d="M20.347 6.648c2.691-3.161-3.791-2.853-3.791-2.853-1.227.045-.383 2.089-.96 3.205-.396.772 1.271 1.182 1.271 1.182s.765-.011.806.917v.008c.009.236-.016.517-.126.892-.549 1.858 1.946 2.997 2.494 1.135.217-.737.133-1.385.023-1.983l-.01-.053c-.166-.889-.372-1.668.293-2.45z"/><path fill="#0B0200" d="M21.086 1.869C19.855.428 18.091-.338 15.26.951c-1.153.525-1.67.331-1.834.561-.788 1.106.286 2.333.706 2.088 1.332-.777 2.534-.546 2.841.016.307.562.024 1.571.272 1.578.671.018.562-.64.828-1.019.435-.62 1.098-.269 1.243.42.115.546 0 1.475-.893 1.639.607 1.336 1.81 1.744 1.81 1.744s.391.154 1.059-1.162c.668-1.316 1.017-3.516-.206-4.947z"/><path fill="#77B255" d="M23.563 21.568c-.048.956.379 2.392-.173 2.198-2.174-.763-7.786-.837-7.786-.837-.482-2.173-.032-5.437.006-8.437.05-3.936 2.667-6.094 4.306-5.601 2.142.645 3.126 2.87 3.403 6.364.278 3.495.292 5.357.244 6.313z"/><path fill="#292F33" d="M25.935 32.82l1.062-1.377c.354-.458 1.05-.442 1.382.032.363.518 1.507 1.698 3.203 2.312.264.096.724.291-.165 1.082 0 0-1.048.797-5.627-.453M8.498 36h5.005c.241 0 .436-.195.436-.436v-.412c0-.452-.138-.894-.396-1.266l-.383-.553h-1.933l-1.89.522c-.769.213-1.295.922-1.275 1.72.006.236.199.425.436.425z"/><path fill="#2A6797" d="M17.337 25.683l-.311 7.133s-.156 2.994 3.033 2.936l6.844-.836s.505-1.75-.35-2.508l-4.933-.591c-.137-.016-.228-.149-.194-.282l1.579-5.122c.201-.652.548-2.06.603-2.735.034-.414-.195-.091-.185-.51l-6.397 1.838.311.677z"/><path fill="#4289C1" d="M19.208 21.379c-1.871-.051-7.328.63-7.328.63-2.677.629-2.034 4.537-2.034 4.537l.524 6.91s1.668.953 3.05 0l.929-6.91 4.066.048s6.825 1.359 5.158-5.252c0 .001-3.984.048-4.365.037z"/><path fill="#7C533E" d="M17.683 13.919c-.374 1.973-.192 5.151-.5 5.295-1.776.833-4.337 1.001-5.502 1.41-.844.296-.825.466-1.188.786-.581.513-1.273.95-1.333 1.47-.061.528.547.718 1.607.273.779-.326 1.389-.282 2.085-.786.991-.718 5.126.558 6.62-1.653.504-.746 1.04-2.491 1.757-6.143-.924-.378-3.546-.652-3.546-.652z"/></svg>