<svg xmlns="http://www.w3.org/2000/svg" viewBox="0 0 36 36"><ellipse fill="#292F33" cx="18" cy="3.5" rx="4" ry="3.5"/><ellipse fill="#292F33" cx="18" cy="16" rx="12" ry="10"/><ellipse fill="#FFCC4D" cx="18" cy="4" rx="3" ry="2"/><path fill="#88C9F9" d="M31 36v-4.5c0-3.314-3.56-5.5-6.875-5.5h-12C8.812 26 5 28.186 5 31.5V36h26z"/><path fill="#88C9F9" d="M14.5 26.518c1.466 1.065 2.792.98 3.5.98s2.194.085 3.488-.949l.012-4.14h-7v4.109z"/><path fill="#55ACEE" d="M14.483 24.438c.973.938 2.674 1.118 3.508 1.118.823 0 2.537-.181 3.51-1.118v-3.286h-7.017v3.286z"/><path fill="#88C9F9" d="M10.734 14.627c0-5.834 3.229-10.563 7.211-10.563 3.981 0 7.209 4.73 7.209 10.563s-3.228 10.285-7.209 10.285c-3.983 0-7.211-4.452-7.211-10.285"/><path fill="#DF1F32" d="M17.945 22.452c-1.606 0-2.447-.794-2.537-.885-.268-.267-.268-.7 0-.967.266-.265.692-.267.961-.007.035.032.551.491 1.576.491 1.038 0 1.555-.473 1.576-.492.273-.256.703-.248.963.02.26.269.26.691-.004.955-.089.091-.929.885-2.535.885"/><path fill="#662113" d="M14.608 16.796c-.465 0-.846-.381-.846-.847v-.845c0-.465.381-.846.846-.846.466 0 .847.381.847.846v.845c0 .466-.381.847-.847.847m6.765 0c-.465 0-.846-.381-.846-.847v-.845c0-.465.381-.846.846-.846.465 0 .846.381.846.846v.845c0 .466-.381.847-.846.847"/><path fill="#55ACEE" d="M18.836 19.409h-1.69c-.233 0-.423-.19-.423-.423v-.153c0-.233.189-.424.423-.424h1.69c.233 0 .424.19.424.424v.153c0 .234-.191.423-.424.423"/><path fill="#292F33" d="M18.052 3C26.107 3 29 9.197 29 15.123S26.107 23 26.107 23s1-1.951 0-3.902-1-5.854-1-5.854-2.879-.286-5-.976c-3-.976-4-1.951-4-1.951s-3 2.927-5 2.927c0 0 0 1.951-1 4.878-.632 1.851 0 4.878 0 4.878s-3-2.927-3-8.78S9.996 3 18.052 3z"/><ellipse transform="rotate(-21.844 10.413 16.5)" fill="#88C9F9" cx="10.413" cy="16.5" rx="1.5" ry="2.5"/><ellipse transform="rotate(-68.155 25.587 16.5)" fill="#88C9F9" cx="25.587" cy="16.5" rx="2.5" ry="1.5"/><path fill="#A0041E" d="M9 36s-1-3 1-4c2.828-1.414 7 3 8 3s5.172-4.414 8-3c2 1 1 4 1 4H9z"/><path fill="#FFCC4D" d="M18 29c3 0 4-3 4-3h1s0 5-5 5-5-5-5-5h1s1 3 4 3z"/></svg>