<svg xmlns="http://www.w3.org/2000/svg" viewBox="0 0 36 36"><path fill="#AF7E57" d="M18.154 26.76c.271.091.487-.159.586-.302.279-.405.422-1.309.004-2.227-.423-.927-.702-2.072-1.69-3.821-.115-.204-.494-2.746-1.242-4.354-.202-.435-1.495-.684-2.009-.529-.513.154.005.98.037 1.134.344 1.651 1.305 4.077 1.45 4.404.8 1.806 1.965 2.389 2.071 3.706.055.69.205 1.286.6 1.228.092.352.093.728.193.761zm-14.823.204c-.257.126-.504-.094-.62-.222-.33-.365-.591-1.242-.296-2.208.297-.975.424-2.146 1.174-4.01.087-.217.129-2.787.66-4.479.143-.457 1.392-.875 1.922-.789.529.086.124.972.112 1.129-.124 1.682-.758 4.213-.859 4.556-.556 1.895-1.634 2.627-1.566 3.946.036.692-.034 1.302-.433 1.296-.048.363 0 .735-.094.781z"/><path fill="#5C913B" d="M6.488 29.5c-.5-2.734-.263-6.48-.263-6.48h7.644s.238 3.746-.262 6.48c-.063.344-.188 3.344.109 5.5.066.479-2.886.937-2.844-.125.078-1.969-.264-3.513-.328-4.5-.035-.547-.25-1.875-.344-3.208-.011-.018-.295-.018-.306 0-.094 1.333-.308 2.661-.344 3.208-.064.987-.406 2.531-.328 4.5.042 1.062-2.91.604-2.844.125.297-2.156.172-5.156.11-5.5z"/><path fill="#292F33" d="M5.503 36c-.499-.406.041-1.161 1.42-1.402 1.163-.203 2.2-.032 2.363.35.212.493.05 1.052.05 1.052H5.503zm9.117 0c.499-.406-.041-1.161-1.42-1.402-1.163-.203-2.2-.032-2.363.35-.212.493-.05 1.052-.05 1.052h3.833z"/><path fill="#99AAB5" d="M5.246 14.766C6.465 14 8.043 14 8.043 14h4s1.578 0 2.797.766c1.201.754 1.656 3 1.656 3l-2.373.688-.105 5.527h-7.95l-.105-5.527-2.373-.688s.455-2.246 1.656-3z"/><path fill="#60352A" d="M12.217.49C11.114.133 8.519.23 7.87 1.074c-1.687.032-3.666 1.557-3.926 3.569-.257 1.991.316 2.915.519 4.412.231 1.696 1.184 2.239 1.947 2.466 1.097 1.449 2.263 1.387 4.22 1.387 3.823 0 5.644-2.558 5.805-6.902.097-2.629-1.445-4.619-4.218-5.516z"/><path fill="#AF7E57" d="M8.446 11.599v2.458c0 .905.688 2.72 1.638 2.72s1.638-1.815 1.638-2.72v-2.458H8.446z"/><path fill="#9B6A49" d="M8.446 13.716c.498.563.965.704 1.637.704.671 0 1.142-.142 1.64-.704v-.666H8.446v.666z"/><path fill="#AF7E57" d="M14.403 6.191c-.37-.512-.843-.925-1.882-1.071.389.178.762.795.811 1.135.049.341.097.616-.211.276-1.235-1.365-2.579-.827-3.912-1.661-.93-.582-1.213-1.226-1.213-1.226s-.114.86-1.525 1.736c-.409.254-.897.819-1.168 1.655-.195.6-.134 1.136-.134 2.05 0 2.67 2.201 4.915 4.915 4.915s4.915-2.265 4.915-4.915c0-1.661-.174-2.31-.596-2.894z"/><path fill="#915A34" d="M12 12H8s0 1 2 1 2-1 2-1z"/><circle fill="#662113" cx="7.5" cy="8.5" r=".5"/><circle fill="#662113" cx="12.5" cy="8.5" r=".5"/><path fill="#915A34" d="M9 10h2s0 1-1 1-1-1-1-1z"/><path fill="#F3D2A2" d="M18.074 26.76c-.271.091-.487-.159-.586-.302-.279-.405-.422-1.309-.004-2.227.423-.927.702-2.072 1.69-3.821.115-.204.494-2.746 1.242-4.354.202-.435 1.495-.684 2.009-.529.513.154-.005.98-.037 1.134-.344 1.651-1.305 4.077-1.45 4.404-.8 1.806-1.965 2.389-2.071 3.706-.055.69-.205 1.286-.6 1.228-.093.352-.094.728-.193.761zm14.595.204c.257.126.504-.094.62-.222.33-.365.591-1.242.296-2.208-.297-.975-.424-2.146-1.174-4.01-.087-.217-.129-2.787-.66-4.479-.143-.457-1.392-.875-1.922-.789-.529.086-.124.972-.112 1.129.124 1.682.758 4.213.859 4.556.556 1.895 1.634 2.627 1.566 3.946-.036.692.034 1.302.433 1.296.048.363 0 .735.094.781z"/><path fill="#4289C1" d="M29.512 29.5c.5-2.734.263-6.48.263-6.48h-7.644s-.238 3.746.262 6.48c.063.344.188 3.344-.109 5.5-.066.479 2.886.937 2.844-.125-.078-1.969.264-3.513.328-4.5.035-.547.25-1.875.344-3.208.011-.018.295-.018.306 0 .094 1.333.308 2.661.344 3.208.064.987.406 2.531.328 4.5-.042 1.062 2.91.604 2.844.125-.297-2.156-.172-5.156-.11-5.5z"/><path fill="#292F33" d="M30.497 36c.499-.406-.041-1.161-1.42-1.402-1.163-.203-2.2-.032-2.363.35-.212.493-.05 1.052-.05 1.052h3.833zm-9.117 0c-.499-.406.041-1.161 1.42-1.402 1.163-.203 2.2-.032 2.363.35.212.494.05 1.053.05 1.053L21.38 36z"/><path fill="#FA743E" d="M30.754 14.766C29.535 14 27.957 14 27.957 14h-4s-1.578 0-2.797.766c-1.201.754-1.656 3-1.656 3l2.373.688.105 5.527h7.95l.105-5.527 2.373-.688s-.455-2.246-1.656-3z"/><path fill="#FFE51E" d="M28.015.49c-1.103-.357-3.699-.26-4.347.584-1.687.032-3.666 1.557-3.926 3.569-.257 1.991.316 2.915.519 4.412.231 1.696 1.184 2.239 1.947 2.466 1.097 1.449 2.263 1.387 4.22 1.387 3.823 0 5.644-2.558 5.805-6.902.097-2.629-1.445-4.619-4.218-5.516z"/><path fill="#F3D2A2" d="M24.239 11.599v2.458c0 .905.688 2.72 1.638 2.72s1.638-1.815 1.638-2.72v-2.458h-3.276z"/><path fill="#E2C196" d="M24.24 13.716c.498.563.965.704 1.637.704.671 0 1.142-.142 1.64-.704v-.666H24.24v.666z"/><path fill="#F3D2A2" d="M30.201 6.191c-.37-.512-.844-.925-1.882-1.071.389.178.762.795.811 1.135.049.341.097.616-.211.276-1.235-1.365-2.579-.827-3.912-1.661-.931-.582-1.214-1.226-1.214-1.226s-.114.86-1.525 1.736c-.409.254-.897.819-1.168 1.655-.195.6-.134 1.136-.134 2.05 0 2.67 2.201 4.915 4.915 4.915s4.915-2.265 4.915-4.915c.001-1.661-.173-2.31-.595-2.894z"/><path fill="#C1694F" d="M28 12h-4s0 1 2 1 2-1 2-1z"/><circle fill="#662113" cx="23.5" cy="8.5" r=".5"/><circle fill="#662113" cx="28.5" cy="8.5" r=".5"/><path fill="#C1694F" d="M25 10h2s0 1-1 1-1-1-1-1z"/></svg>