<svg xmlns="http://www.w3.org/2000/svg" viewBox="0 0 36 36"><path fill="#3B88C3" d="M32 36v-4c0-3.314-2.685-6-6-6H10c-3.313 0-6 2.686-6 6v4h28z"/><path fill="#F3D2A2" d="M14 26l4 5.001L22 26v-4h-8z"/><path fill="#E2C196" d="M14 24c1.216 1.374 2.355 1.719 3.996 1.719 1.639 0 2.787-.346 4.004-1.719v-4h-8v4z"/><path fill="#FFE51E" d="M21.597 1.368c-1.925-.623-6.455-.453-7.588 1.019-2.944.057-6.398 2.718-6.851 6.228-.448 3.475.551 5.088.906 7.701.403 2.96 2.067 3.907 3.397 4.303 1.914 2.529 3.949 2.421 7.366 2.421 6.672 0 9.85-4.464 10.131-12.047.17-4.586-2.521-8.059-7.361-9.625z"/><path fill="#F3D2A2" d="M25.413 11.318c-.646-.894-1.472-1.614-3.284-1.868.68.311 1.331 1.387 1.416 1.982.085.595.17 1.076-.368.481-2.155-2.382-4.502-1.444-6.827-2.899-1.624-1.016-2.119-2.141-2.119-2.141s-.198 1.5-2.661 3.029c-.714.443-1.566 1.43-2.038 2.888-.34 1.048-.234 1.982-.234 3.578 0 4.66 3.841 8.578 8.578 8.578s8.578-3.953 8.578-8.578c-.001-2.899-.305-4.031-1.041-5.05z"/><path fill="#C1694F" d="M18.827 18.751h-1.906c-.263 0-.477-.213-.477-.477s.213-.477.477-.477h1.906c.263 0 .477.213.477.477s-.213.477-.477.477z"/><path fill="#662113" d="M14.062 15.415c-.526 0-.953-.427-.953-.953v-.953c0-.526.427-.953.953-.953s.953.427.953.953v.953c0 .526-.427.953-.953.953zm7.625 0c-.526 0-.953-.427-.953-.953v-.953c0-.526.427-.953.953-.953s.953.427.953.953v.953c0 .526-.427.953-.953.953z"/><path fill="#C1694F" d="M18 22.731c-2.754 0-3.6-.705-3.741-.848-.256-.256-.256-.671 0-.927.248-.248.645-.255.902-.023.052.037.721.487 2.839.487 2.2 0 2.836-.485 2.842-.49.256-.255.657-.243.913.015.256.256.242.683-.014.938-.141.143-.987.848-3.741.848"/><path fill="#292F33" d="M10 32.5H8c0-4.094 1.877-8.5 6-8.5v2c-3.164 0-4 4.252-4 6.5zm17-4h-2c0-.411-.521-2.5-3-2.5v-2c3.533 0 5 2.931 5 4.5z"/><circle fill="#CCD6DD" cx="9" cy="32.5" r="3"/><circle fill="#F5F8FA" cx="9" cy="32.5" r="2"/><path fill="#292F33" d="M30 34h-2c0-.835-.108-5-2.25-5s-2.25 4.165-2.25 5h-2c0-4.383 1.589-7 4.25-7S30 29.617 30 34z"/><circle fill="#CCD6DD" cx="22.5" cy="34" r="1"/><circle fill="#CCD6DD" cx="29" cy="34" r="1"/></svg>