<svg xmlns="http://www.w3.org/2000/svg" viewBox="0 0 36 36"><path fill="#AF7E57" d="M8 19c0 2.209-1.119 4-2.5 4S3 21.209 3 19s1.119-4 2.5-4S8 16.791 8 19zm25 0c0 2.209-1.119 4-2.5 4S28 21.209 28 19s1.119-4 2.5-4 2.5 1.791 2.5 4z"/><path fill="#AF7E57" d="M5 20.562c0-8.526 5.82-15.438 13-15.438s13 6.912 13 15.438S25.18 36 18 36 5 29.088 5 20.562z"/><path fill="#662113" d="M13 20c-.552 0-1-.447-1-1v-2c0-.552.448-1 1-1s1 .448 1 1v2c0 .553-.448 1-1 1zm10 0c-.553 0-1-.447-1-1v-2c0-.552.447-1 1-1s1 .448 1 1v2c0 .553-.447 1-1 1z"/><path fill="#915A34" d="M19 24h-2c-.552 0-1-.447-1-1s.448-1 1-1h2c.553 0 1 .447 1 1s-.447 1-1 1z"/><path fill="#60352A" d="M18 0c8.615 0 14 6.358 14 11.656 0 5.298-1.077 7.417-2.154 5.298l-2.153-4.238s-6.462 0-8.615-2.12c0 0 3.23 6.358-3.231 0 0 0 1.077 4.239-5.385-1.06 0 0-3.23 2.12-4.308 7.417C5.855 18.423 4 16.954 4 11.656 4 6.357 8.308 0 18 0zm9.375 24.174c-1.042 1.1-3.125 3.3-5.208 2.2-2.946-1.556-4.167-1.1-4.167-1.1s-1.221-.455-4.167 1.1c-2.083 1.1-4.167-1.1-5.208-2.2-.737-.778-3.125-2.2-3.125 0 0 3.3 2.083 5.5 2.083 5.5 2.083 5.5 6.25 5.5 6.25 5.5 1.042 1.1 7.292 1.1 8.333 0 0 0 4.167 0 6.25-5.5 0 0 2.083-2.2 2.083-5.5.001-2.2-2.388-.777-3.124 0z"/><path fill="#AF7E57" d="M18 29.675c-4.167 0-7.292-2.2 0-2.2s4.167 2.2 0 2.2"/></svg>