<svg xmlns="http://www.w3.org/2000/svg" viewBox="0 0 36 36"><path fill="#88C9F9" d="M32 36v-2c0-3.313-2.687-6-6-6H10c-3.313 0-6 2.687-6 6v2h28z"/><path fill="#88C9F9" d="M13.64 28.101c1.744 1.267 2.849 3.728 4.36 3.728 1.511 0 2.616-2.462 4.36-3.728V24.29h-8.72v3.811zm-2.196-12.166c0 1.448-.734 2.622-1.639 2.622C8.9 18.558 8 17.448 8 16c0-1.935.501-2.687 1.806-2.687.905 0 1.638 1.174 1.638 2.622zM28 16c0 1.448-.9 2.558-1.806 2.558-.905 0-1.639-1.174-1.639-2.622s.734-2.623 1.639-2.623c1.352 0 1.806.752 1.806 2.687z"/><path fill="#88C9F9" d="M9.478 16.96C9.478 11.371 11 5 18 5s8.522 6.371 8.522 11.96C26.522 22 24 27.08 18 27.08S9.478 22 9.478 16.96z"/><path fill="#662113" d="M21.703 16.908h-.145c-.459 0-.835-.376-.835-.835V15.02c0-.459.376-.835.835-.835h.145c.459 0 .835.376.835.835v1.053c0 .459-.375.835-.835.835zm-7.406 0h.145c.459 0 .835-.376.835-.835V15.02c0-.459-.376-.835-.835-.835h-.145c-.459 0-.835.376-.835.835v1.053c0 .459.375.835.835.835z"/><path fill="#269" d="M18.007 23.802c2.754 0 3.6-.706 3.741-.848.256-.256.256-.671 0-.927-.248-.248-.645-.255-.902-.024-.052.038-.721.487-2.839.487-2.2 0-2.836-.485-2.842-.49-.255-.255-.656-.243-.913.013-.256.256-.242.684.014.94.141.143.987.849 3.741.849z"/><path fill="#55ACEE" d="M18.75 19.75h-1.5c-.413 0-.75-.337-.75-.75s.337-.75.75-.75h1.5c.413 0 .75.337.75.75s-.337.75-.75.75z"/><path fill="#744EAA" d="M12.016 27.95s-.157 6.817 3.987 6.817V36H8.984S8.77 30.076 10 28l2.016-.05zm11.955 0s.157 6.817-3.987 6.817V36h7.019s.214-5.924-1.016-8l-2.016-.05zM18 8.934s7.149 1.858 8.245 5.204c.478-1.021.755-3.257.755-4.518C27 5.781 24 3 19.125 3h-2.25C12.75 3 9 5.781 9 9.62c0 1.262.277 3.664.754 4.684C10.851 10.957 18 8.934 18 8.934z"/><g fill="#CBB7EA"><path d="M26.985 10.177c-1.396-1.115-3.044-2.037-4.612-2.559-.365-.122-.755.076-.876.437-.121.363.075.755.438.876 1.666.555 3.495 1.666 4.882 2.935.09-.623.151-1.328.168-1.689zM9.117 11.311c2.007-1.436 8.723-5.759 16.398-5.819-.473-.545-.984-.937-1.579-1.308-6.706.498-12.428 3.839-14.931 5.522.01.455.046 1.013.112 1.605z"/><path d="M26.421 6.89c-.028-.004-.084 0-.113 0-2.835 0-5.703.71-8.528 2.108.139-.042.22-.064.22-.064s.815.212 1.937.621c2.126-.845 4.263-1.28 6.371-1.28.203 0 .404.014.573.052-.075-.419-.248-1.011-.46-1.437zM9.188 8.036c2.477-1.586 7.101-3.872 12.342-4.784C20.734 3.016 19.983 3 19.125 3H17.36c-2.725 1.059-5.152 1.857-7.022 2.887-.536.678-.934 1.314-1.15 2.149z"/></g><path fill="#FFD983" d="M18.112 5.887c.887 0 1.612.726 1.612 1.612V9.15c0 .887-.726 1.612-1.612 1.612-.887 0-1.612-.726-1.612-1.612V7.499c0-.887.726-1.612 1.612-1.612z"/><path fill="#FFAC33" d="M18.112 6.89c.484 0 .881.396.881.881v1.108c0 .484-.396.881-.881.881-.484 0-.881-.396-.881-.881V7.771c.001-.485.397-.881.881-.881z"/><path d="M26.546 20.159c.032-.204-.107-.396-.312-.428-.209-.039-.396.108-.428.312-.01.064-1.072 6.251-7.231 6.625.111-.968-.078-1.805-.088-1.846-.063-.27-.334-.44-.602-.372-.269.063-.435.332-.372.601.002.009.178.784.052 1.627-6.269-.28-7.328-6.37-7.37-6.636-.033-.204-.224-.344-.429-.312-.204.032-.344.224-.312.428.008.049.567 3.305 3.133 5.45.007.017.026.04.07.078.749.646 3.923 3.988 5.34 4.061v.001l.004-.001.004.001v-.001c1.416-.073 4.591-3.415 5.34-4.061.043-.037.062-.06.07-.077 2.564-2.144 3.124-5.401 3.131-5.45z"/></svg>