<svg xmlns="http://www.w3.org/2000/svg" viewBox="0 0 36 36"><path fill="#3B88C3" d="M29.08 31.069s-.77.477-1.539 0c-.77-.477-.311-1.246-.311-1.246-.867-.075-.958-.878-.643-1.604C26.081 28.08 25.551 28 25 28H11c-3.313 0-6 2.687-6 6v2h26v-2c0-.62-.094-1.219-.269-1.782-1.684.642-1.651-1.149-1.651-1.149z"/><path fill="#662113" d="M25.929 33.341c-.127 1.929-.83 2.659-.83 2.659h1.385s.189-2.975-.555-2.659zm-19.312.621c.319-.251.872-1.996 1.869-2.411s3.206-.957 3.173.09-1.34 2.485-1.068 3.018c-.98.476-4.987.099-3.974-.697z"/><path fill="#CCD6DD" d="M7.238 33.802c.319-.251.651-1.746 1.648-2.16s2.806-1.047 2.772 0-1.23 1.685-2.21 2.16c-.979.475-3.222.795-2.21 0z"/><path fill="#292F33" d="M29.656 21.816c-.469-.527-.771-2.129-.764-2.66.002-.118-.005-.202-.014-.271.008-.613.014-1.254.014-1.959 0-8.895-6.843-10.947-10.947-10.947-4.106 0-10.949 2.053-10.949 10.947 0 .276-.002.62-.004.994-.007.05-.012.122-.011.236.013 1.156-.825 2.16-.919 3.125s.444.409.594.128c.078-.147.204-.471.359-.647.089 3.296.476 7.111 2.035 7.111 2.111 0 4.79-2.053 8.896-2.053 4.104 0 6.196 1.259 8.249 1.259.749 0 1.309-.173 1.721-.819.141.204.284.378.398.457.312.219.688.219.58-.134-.107-.353-.424-.741-.331-2.419v-.011c.096-.626.168-1.39.22-2.299.108.104.215.196.312.27.405.314 1.03.22.561-.308z"/><path fill="#CCD6DD" d="M14 28h8l-4 5-4-5"/><path fill="#CCD6DD" d="M14.5 28.518c1.466 1.065 2.792.98 3.5.98s2.194.085 3.488-.949l.012-4.14h-7v4.109z"/><path fill="#99AAB5" d="M14.483 26.088c.978 1.155 2.19 1.468 3.508 1.468 1.319 0 2.532-.312 3.51-1.468v-2.937h-7.017v2.937z"/><path fill="#CCD6DD" d="M9.758 16.585c0-5.834 3.676-10.563 8.211-10.563 4.533 0 8.209 4.729 8.209 10.563 0 5.833-3.676 10.285-8.209 10.285-4.535 0-8.211-4.452-8.211-10.285"/><path fill="#66757F" d="M17.941 22.4c1.606 0 2.447.794 2.537.885.268.267.268.7 0 .967-.266.265-.692.267-.961.007-.035-.032-.551-.491-1.576-.491-1.038 0-1.555.473-1.576.492-.273.256-.703.248-.963-.02-.26-.269-.26-.691.004-.955.09-.091.929-.885 2.535-.885"/><path fill="#292F33" d="M28.719 10.094c.5-.031.5-.5 0-.5s-2.049-.724-2.917-1.506l-.005-.003c-1.879-2.029-4.306-3.105-6.392-3.452.266-.251.49-.499.634-.687.195-.256.272-.674-.195-.421-.5.271-1.763.927-3.28 1.026-.131.009-.227.028-.307.053-.992-.395-2.427-.598-2.89-.537-.303.04-.56.44-.128.516.306.053.596.26.93.703-1.827.731-3.662 2.01-5.022 3.959-.032.023-.058.025-.09.058C8.375 10 6.938 11.906 6.312 12c-.459.069-.531.469-.031.438.268-.017.771.068 1.327-.033-.385 1.246-.612 2.653-.612 4.247 0 .793-.02 1.257.008 3.257h.72c-.021-1-.044-.224-.044-.465 0-3.422 2.053.494 2.053-1.943 0-1.931.86-2.491 1.897-3.317.012.154.028.305.028.473.002.491.466.5.528.094s.315-1.269 1.041-2.052c.633-.626 1.295-1.275 1.295-1.275s.347.209.905.493l.003.002c1.069.541 1.046 2.019 1.292 2.394s.446-.116.595-.594c.086-.276.12-.606.073-.935 1.037.387 2.216.707 3.291.707 2.736 0 5.474 1.375 5.474 4.112 0 2.736 2.053-1.584 2.053 1.837 0 .244-.023-.531-.04.469h.719c.006-2 .006-1.924.006-3.202 0-2.701-.637-4.881-1.631-6.616.598.064 1.173.02 1.457.003z"/><path fill="#99AAB5" d="M16.326 18.737l-.655.655c-.765.765-2.016.765-2.781 0-.765-.765-.765-2.016 0-2.781l.655-.655c.765-.765 2.016-.765 2.781 0 .765.765.765 2.016 0 2.781zm3.984.654l-.655-.655c-.765-.765-.765-2.016 0-2.781.765-.765 2.016-.765 2.781 0l.655.655c.765.765.765 2.016 0 2.781-.765.765-2.016.765-2.781 0z"/><path fill="#662113" d="M15.877 17.528c0 .465-.381.846-.847.846h-.845c-.465 0-.846-.381-.846-.846 0-.466.381-.847.846-.847h.845c.467 0 .847.381.847.847m6.765-.001c0 .465-.381.846-.847.846h-.845c-.465 0-.846-.381-.846-.846 0-.465.381-.846.846-.846h.845c.466.001.847.381.847.846"/><path fill="#99AAB5" d="M18.802 21.409c.252 0 .458-.206.458-.458v-.584c0-.252-.206-.458-.458-.458s-.458.206-.458.458v.584c0 .252.206.458.458.458zm-1.621 0c.252 0 .458-.206.458-.458v-.584c0-.252-.206-.458-.458-.458s-.458.206-.458.458v.584c0 .252.206.458.458.458z"/><path fill="#CCD6DD" d="M11.444 17.845c0 1.448-.734 2.622-1.639 2.622s-1.639-1.174-1.639-2.622.734-2.623 1.639-2.623 1.639 1.174 1.639 2.623m16.389 0c0 1.448-.733 2.622-1.639 2.622-.905 0-1.639-1.174-1.639-2.622s.733-2.623 1.639-2.623 1.639 1.174 1.639 2.623"/></svg>