<svg xmlns="http://www.w3.org/2000/svg" viewBox="0 0 36 36"><path fill="#2CB4CD" d="M20.716 11.182c-.994-1.383-1.654-5.509-1.654-5.509-.155-2.715-2.494-5.572-5.571-5.572-1.173 0-2.26.365-3.159.985-.182-.027-.365-.056-.555-.056-2.051 0-3.714 1.663-3.714 3.714 0 0-.73 2.881-1.521 3.797.377-.223.706-.465.997-.724-.259 1.306-.788 3.586-1.478 4.547.765-.55 1.41-1.136 1.859-1.795-.021.647-.399 1.267-.837 3.348-.458 2.177.364 2.197 1.385 2.646 1.795.789 12.847 1.296 13.281-.969.513-2.675.068-4.112-.425-5.624.391.429.86.83 1.392 1.212z"/><path fill="#D4AB88" d="M16.125 13.384s-2.26-.137-3.764-.137-2.959.1-3.392.137l-1.963 3.619.526.283s1.209 4.354 1.209 5.202c0 .848-1.209 5.202-1.209 5.202h9.674s-1.209-4.075-1.209-5.202 1.209-5.202 1.209-5.202l.495-.266-1.576-3.636z"/><path fill="#DD415D" d="M12.369 17.286s-1.209-1.301-2.418-1.301-2.418 1.301-2.418 1.301l.983 3.902h7.681l1.009-3.902s-1.209-1.301-2.418-1.301-2.419 1.301-2.419 1.301z"/><path fill="#316116" d="M28.744 25.545c1.738-2.783-.967-7.196-.967-7.196-.067.534-.348 1.714-.348 1.714-.163.998-.678 2.566-2.219 4.469-1.049 1.294 4.467 5.504 5.708 4.687 1.937-1.276 1.587-3.432 3.655-5.726.367-.407.8-.817 1.346-1.228-3.575-.319-7.175 3.28-7.175 3.28zm-3.123 3.078c-4.478 3.618-9.355 2.292-10.385 1.38l-7.644-5.978c-5.516 0-4.48 7.846 1.132 10.349 9.576 4.271 17.103-1.423 18.399-4.18l-1.502-1.571z"/><path fill="#66A644" d="M27.814 26.878c1.408-2.155.357-5.346-.385-6.815-.163.998-.843 2.383-2.384 4.286-1.049 1.294-.483 3.302-.021 4.199l.001.001c-3.596 2.842-7.065 2.264-8.825 1.464 1.17-.542 1.986-1.7 1.986-3.053 0-1.87-1.547-3.385-3.454-3.385h-7.14c-5.516 0-4.48 7.39 1.132 9.843 9.165 4.007 17-.67 18.793-3.448.863.096 2.363.056 3.573-.741 1.937-1.276 1.414-3.441 3.482-5.734-3.483.249-6.758 3.383-6.758 3.383z"/><path fill="#316116" d="M16.212 30.014c-2.309-.46-6.994-2.625-7.193-2.717-.194-.09-.278-.319-.188-.512.09-.195.321-.28.513-.188.048.022 5.488 2.428 7.707 2.869 0 0-.158.133-.336.267-.179.132-.503.281-.503.281z"/><path fill="#D4AB88" d="M7.399 17.278c-1.878 1.035-3.24 2.455-3.336 2.617-.239.404-.437 1.592-.276 2.415.145.741.177 2.238.66 2.915.198.277.107.759-.032 1.208-.419 1.353.306 3.199-.145 2.882-.918-.644-1.074-1.83-1.047-2.528.015-.393-.166-.884-.257-1.138-.059-.16-1.245-3.203-1.518-4.54-.148-.722-.333-1.302.275-2.155.903-1.266 2.094-2.996 3.311-3.885 2.012-1.471 3.936-1.687 3.936-1.687s-.911 3.532-1.571 3.896zm23-6.626c-.084.009-.143.102-.203.238-.023-.164-.074-.276-.184-.264-.129.013-.201.22-.304.492-.027-.047-.062-.079-.117-.078-.261.009-.349.811-.909 1.334-.081.036-.154.078-.248.104-.059.016-.098.041-.146.061.005-.255.171-.405.271-.474.239-.166.089-.586-.314-.331-.289.183-.41.365-.501.55-.255.519-.354 1.058-.333 1.487l-.119.215c-.139.242-1.626 1.17-2.696 1.967-1.066.793-1.846 1.694-2.415 1.132-.396-.391-1.591-1.706-3.322-2.833-1.093-.712-2.733-.866-2.733-.866-.807.662.166 3.109.894 3.566.938.589 4.26 2.925 5.306 3.391s1.704-.161 2.196-.609c.403-.366 3.434-4.072 3.703-4.326.365-.344 1.063-.797 1.457-1.491.338-.596.543-1.079.667-1.855.071-.456.402-1.447.05-1.41zM10.706 9.387v3.714c0 1.026.831 1.857 1.857 1.857s1.857-.831 1.857-1.857V9.387h-3.714z"/><path fill="#CC9B7A" d="M14.419 9.387l-3.714.017v3.697s1.857.928 3.714 0V9.387z"/><path fill="#D4AB88" d="M17.205 2.934H7.92V8.48c0 2.553 2.078 4.621 4.642 4.621 2.564 0 4.643-2.068 4.643-4.621V2.934z"/><path fill="#DF1F32" d="M14.419 11.244h-3.714s0 .928 1.857.928 1.857-.928 1.857-.928z"/><circle fill="#662113" cx="10.241" cy="7.994" r=".464"/><circle fill="#662113" cx="14.884" cy="7.994" r=".464"/><path fill="#C1694F" d="M11.634 9.387h1.857s0 .928-.929.928c-.928 0-.928-.928-.928-.928z"/><path fill="#2CB4CD" d="M18.133 6.601l-.613-4.114H6.992v4.114c3.674 0 3.713-3.628 3.714-3.707.001.08.08 3.707 7.427 3.707z"/></svg>