<svg xmlns="http://www.w3.org/2000/svg" viewBox="0 0 36 36"><path fill="#D4AB88" d="M16.703 13.234c-2.061-.088-4.3-.078-4.3-.078s-2.24-.01-4.3.078c-.501.021-.979.233-1.35.456-.439.264-.728.544-.728.544.105 1.368 1.219 3.286 1.368 3.564.418.78.922 4.264.922 4.264.114 1.201 0 2 0 2h8.176s-.114-.799 0-2c0 0 .504-3.484.922-4.264.149-.278 1.263-2.196 1.368-3.564 0 0-.984-.953-2.078-1z"/><path fill="#B78B60" d="M14.985 18.332c-1.131 0-1.968-.354-2.014-.374-.126-.055-.185-.202-.13-.328.054-.126.2-.187.328-.131.014.006 1.35.565 2.857.215.137-.029.269.053.3.187.031.134-.053.269-.187.3-.403.095-.793.131-1.154.131zm-5.324 0c-.36 0-.75-.036-1.155-.13-.134-.031-.218-.166-.187-.3.031-.134.164-.216.3-.187 1.516.353 2.844-.209 2.857-.215.127-.056.274.003.329.13s-.004.274-.13.329c-.047.02-.883.373-2.014.373z"/><path fill="#184F87" d="M28.744 25.545c1.738-2.783-.967-7.196-.967-7.196-.067.534-.348 1.714-.348 1.714-.163.998-.678 2.566-2.219 4.469-1.049 1.294 4.467 5.504 5.708 4.687 1.937-1.276 1.587-3.432 3.655-5.726.367-.407.8-.817 1.346-1.228-3.575-.319-7.175 3.28-7.175 3.28zm-3.123 3.078c-4.478 3.618-9.355 2.292-10.385 1.38l-7.644-5.978c-5.516 0-4.48 7.846 1.132 10.349 9.576 4.271 17.103-1.423 18.399-4.18l-1.502-1.571z"/><path fill="#4292E0" d="M27.814 26.878c1.408-2.155.357-5.346-.385-6.815-.163.998-.843 2.383-2.384 4.286-1.049 1.294-.483 3.302-.021 4.199l.001.001c-3.596 2.842-7.065 2.264-8.825 1.464 1.17-.542 1.986-1.7 1.986-3.053 0-1.87-1.547-3.385-3.454-3.385h-7.14c-5.516 0-4.48 7.39 1.132 9.843 9.165 4.007 17-.67 18.793-3.448.863.096 2.363.056 3.573-.741 1.937-1.276 1.414-3.441 3.482-5.734-3.483.249-6.758 3.383-6.758 3.383z"/><path fill="#184F87" d="M16.212 30.014c-2.309-.46-6.994-2.625-7.193-2.717-.194-.09-.278-.319-.188-.512.09-.195.321-.28.513-.188.048.022 5.488 2.428 7.707 2.869 0 0-.158.133-.336.267-.179.132-.503.281-.503.281z"/><path fill="#D4AB88" d="M7.482 17.392c-1.878 1.035-3.267 2.429-3.38 2.58-.477.637-.324 1.509-.251 2.345.086.995.112 2.231.595 2.908.198.277.107.759-.032 1.208-.419 1.353.306 3.199-.145 2.882-.918-.644-1.074-1.83-1.047-2.528.015-.393-.166-.884-.257-1.138-.059-.16-1.348-3.094-1.622-4.431-.148-.722-.186-1.381.379-2.263.621-.971 1.939-2.945 3.117-3.885.989-.789 1.564-1.189 1.914-1.38 1.57-.857 1.389 3.338.729 3.702zm22.917-6.74c-.084.009-.143.102-.203.238-.023-.164-.074-.276-.184-.264-.129.013-.201.22-.304.492-.027-.047-.062-.079-.117-.078-.261.009-.349.811-.909 1.334-.081.036-.154.078-.248.104-.059.016-.098.041-.146.061.005-.255.171-.405.271-.474.239-.166.089-.586-.314-.331-.289.183-.41.365-.501.55-.255.519-.354 1.058-.333 1.487l-.119.215c-.139.242-1.626 1.17-2.696 1.967-1.066.793-1.846 1.694-2.415 1.132-.396-.391-1.462-1.74-3.322-2.833-1.124-.661-2.733-.866-2.733-.866-.807.662.226 3.019.812 3.647.981 1.051 4.341 2.844 5.388 3.31s1.704-.161 2.196-.609c.403-.366 3.434-4.072 3.703-4.326.365-.344 1.063-.797 1.457-1.491.338-.596.543-1.079.667-1.855.071-.456.402-1.447.05-1.41zm-19.86-.361v3.727c0 1.029.834 1.864 1.864 1.864 1.029 0 1.864-.834 1.864-1.864v-3.727h-3.728z"/><path fill="#CC9B7A" d="M14.267 9.36l-3.727.017v3.71s1.864.932 3.727 0V9.36z"/><path fill="#D4AB88" d="M17.062 4.701l-9.318-.827v4.554c0 2.574 2.086 4.659 4.659 4.659s4.659-2.085 4.659-4.659V4.701z"/><path fill="#C1694F" d="M14.267 11.223h-3.728s0 .932 1.864.932 1.864-.932 1.864-.932z"/><circle fill="#662113" cx="10.073" cy="7.962" r=".466"/><circle fill="#662113" cx="14.733" cy="7.962" r=".466"/><path fill="#C1694F" d="M11.471 9.36h1.864s0 .932-.932.932-.932-.932-.932-.932z"/><path fill="#4292E0" d="M12.403 1.013c3.199 0 5.198 2.36 5.198 4.327s-.4 2.754-.8 1.967l-.8-1.573s-2.399 0-3.198-.787c0 0 1.2 2.36-1.2 0 0 0 .4 1.574-1.999-.393 0 0-1.2.787-1.599 2.753-.111.546-.8 0-.8-1.967 0-1.966 1.6-4.327 5.198-4.327"/></svg>