<svg xmlns="http://www.w3.org/2000/svg" viewBox="0 0 36 36"><path fill="#88C9F9" d="M32 36v-2c0-3.313-2.687-6-6-6H10c-3.313 0-6 2.687-6 6v2h28z"/><path fill="#744EAA" d="M25.987 28l-2.016-.05s.762 6.816-5.977 6.816-5.977-6.816-5.977-6.816L10 28c-1.229 2.076-1.016 8-1.016 8h18.018c.001 0 .214-5.924-1.015-8z"/><path fill="#FFCC4D" d="M18.005 32.04c4.09 0 5.453-4.09 5.453-4.09h1.363s0 6.816-6.816 6.816-6.816-6.816-6.816-6.816h1.363s1.364 4.09 5.453 4.09z"/><path fill="#88C9F9" d="M14 28.267l4 1.88 4-1.88V23.97h-8z"/><path fill="#539AE0" d="M14 26.242c1.216 1.374 2.355 1.817 3.996 1.817 1.639 0 2.787-.602 4.004-1.975v-4h-8v4.158z"/><path fill="#292F33" d="M21.597 3.6c-1.925-.623-6.455-.453-7.588 1.019-2.944.057-6.398 2.718-6.851 6.228-.448 3.475.551 5.088.906 7.701.403 2.96 2.067 3.907 3.397 4.303 1.914 2.529 3.949 2.421 7.366 2.421 6.672 0 9.85-4.464 10.131-12.047.17-4.585-2.521-8.059-7.361-9.625z"/><path fill="#88C9F9" d="M25.413 13.55c-.646-.894-1.472-1.614-3.284-1.868.68.311 1.331 1.387 1.416 1.982.085.595.17 1.076-.368.481-2.155-2.382-4.502-1.444-6.827-2.899-1.624-1.016-2.119-2.141-2.119-2.141s-.198 1.5-2.661 3.029c-.714.443-1.566 1.43-2.038 2.888-.34 1.048-.234 1.982-.234 3.578 0 4.66 3.841 8.578 8.578 8.578s8.578-3.953 8.578-8.578c-.001-2.898-.305-4.031-1.041-5.05z"/><path fill="#55ACEE" d="M18.827 20.983h-1.906c-.263 0-.477-.213-.477-.477s.213-.477.477-.477h1.906c.263 0 .477.213.477.477s-.213.477-.477.477z"/><path fill="#662113" d="M14.062 17.647c-.526 0-.953-.427-.953-.953v-.953c0-.526.427-.953.953-.953s.953.427.953.953v.953c0 .527-.427.953-.953.953zm7.625 0c-.526 0-.953-.427-.953-.953v-.953c0-.526.427-.953.953-.953s.953.427.953.953v.953c0 .527-.427.953-.953.953z"/><path fill="#269" d="M18 24.963c-2.754 0-3.6-.705-3.741-.848-.256-.256-.256-.671 0-.927.248-.248.646-.255.902-.023.052.037.721.487 2.839.487 2.2 0 2.836-.485 2.842-.49.256-.255.657-.243.913.015.256.256.242.683-.014.939-.141.142-.987.847-3.741.847"/><path fill="#744EAA" d="M18.105 8.739s9.223 2.397 10.636 6.713c.616-1.318.974-4.201.974-5.829 0-4.952-3.87-8.539-10.159-8.539h-2.903c-5.321 0-10.159 3.588-10.159 8.539 0 1.628.358 4.726.973 6.043 1.415-4.318 10.638-6.927 10.638-6.927z"/><path fill="#CBB7EA" d="M29.696 10.342c-1.801-1.439-3.926-2.627-5.95-3.301-.471-.157-.974.098-1.13.564-.156.468.097.974.564 1.13 2.149.716 4.508 2.15 6.298 3.787.117-.805.196-1.714.218-2.18zm-23.05 1.463c2.589-1.852 11.253-7.429 21.153-7.506-.61-.703-1.269-1.209-2.037-1.687-8.651.642-16.031 4.952-19.26 7.122.012.587.059 1.307.144 2.071z"/><path fill="#CBB7EA" d="M28.968 6.102c-.037-.005-.108 0-.146 0-3.657 0-7.357.916-11.001 2.719.18-.054.284-.082.284-.082s1.052.273 2.498.801c2.743-1.09 5.499-1.652 8.219-1.652.262 0 .521.018.739.068-.096-.541-.319-1.305-.593-1.854zM6.737 7.58c3.195-2.046 9.161-4.995 15.921-6.172-1.026-.304-1.994-.324-3.102-.324H17.28c-3.515 1.366-6.647 2.395-9.059 3.724-.691.875-1.205 1.696-1.484 2.772z"/><path fill="#FFD983" d="M17.782 4.808h.935c.887 0 1.612.726 1.612 1.612v3.065c0 .887-.726 1.612-1.612 1.612h-.935c-.887 0-1.612-.726-1.612-1.612V6.42c0-.886.726-1.612 1.612-1.612z"/><path fill="#FFAC33" d="M17.995 6.102h.511c.484 0 .881.396.881.881v1.94c0 .484-.396.881-.881.881h-.511c-.484 0-.881-.396-.881-.881v-1.94c0-.484.396-.881.881-.881z"/></svg>