<svg xmlns="http://www.w3.org/2000/svg" viewBox="0 0 36 36"><path fill="#FFDC5D" d="M7.399 17.278c-1.878 1.035-3.24 2.455-3.336 2.617-.239.404-.437 1.592-.276 2.415.145.741.177 2.238.66 2.915.198.277.107.759-.032 1.208-.419 1.353.306 3.199-.145 2.882-.918-.644-1.074-1.83-1.047-2.528.015-.393-.166-.884-.257-1.138-.059-.16-1.245-3.203-1.518-4.54-.148-.722-.333-1.302.275-2.155.903-1.266 2.094-2.996 3.311-3.885 2.012-1.471 3.936-1.687 3.936-1.687s-.911 3.532-1.571 3.896zm23-6.626c-.084.009-.143.102-.203.238-.023-.164-.074-.276-.184-.264-.129.013-.201.22-.304.492-.027-.047-.062-.079-.117-.078-.261.009-.349.811-.909 1.334-.081.036-.154.078-.248.104-.059.016-.098.041-.146.061.005-.255.171-.405.271-.474.239-.166.089-.586-.314-.331-.289.183-.41.365-.501.55-.255.519-.354 1.058-.333 1.487l-.119.215c-.139.242-1.626 1.17-2.696 1.967-1.066.793-1.846 1.694-2.415 1.132-.396-.391-1.591-1.706-3.322-2.833-1.093-.712-2.733-.866-2.733-.866-.807.662.166 3.109.894 3.566.938.589 4.26 2.925 5.306 3.391s1.704-.161 2.196-.609c.403-.366 3.434-4.072 3.703-4.326.365-.344 1.063-.797 1.457-1.491.338-.596.543-1.079.667-1.855.071-.456.402-1.447.05-1.41z"/><path fill="#FFDC5D" d="M16.125 13.384s-2.26-.137-3.764-.137-2.959.1-3.392.137l-1.963 3.619.526.283s1.209 4.354 1.209 5.202c0 .848-1.209 5.202-1.209 5.202h9.674s-1.209-4.075-1.209-5.202 1.209-5.202 1.209-5.202l.495-.266-1.576-3.636z"/><path fill="#FF5540" d="M8.969 13.384l-1.437 3.902.983 6.288 7.697.327.994-6.615-1.081-3.902s-.857-.176-3.562-.176-3.594.176-3.594.176z"/><path fill="#316116" d="M28.744 25.545c1.738-2.783-.967-7.196-.967-7.196-.067.534-.348 1.714-.348 1.714-.163.998-.678 2.566-2.219 4.469-1.049 1.294 4.467 5.504 5.708 4.687 1.937-1.276 1.587-3.432 3.655-5.726.367-.407.8-.817 1.346-1.228-3.575-.319-7.175 3.28-7.175 3.28zm-3.123 3.078c-4.478 3.618-9.355 2.292-10.385 1.38l-7.644-5.978c-5.516 0-4.48 7.846 1.132 10.349 9.576 4.271 17.103-1.423 18.399-4.18l-1.502-1.571z"/><path fill="#66A644" d="M27.814 26.878c1.408-2.155.357-5.346-.385-6.815-.163.998-.843 2.383-2.384 4.286-1.049 1.294-.483 3.302-.021 4.199l.001.001c-3.596 2.842-7.065 2.264-8.825 1.464 1.17-.542 1.986-1.7 1.986-3.053 0-1.87-1.547-3.385-3.454-3.385h-7.14c-5.516 0-4.48 7.39 1.132 9.843 9.165 4.007 17-.67 18.793-3.448.863.096 2.363.056 3.573-.741 1.937-1.276 1.414-3.441 3.482-5.734-3.483.249-6.758 3.383-6.758 3.383z"/><path fill="#316116" d="M16.212 30.014c-2.309-.46-6.994-2.625-7.193-2.717-.194-.09-.278-.319-.188-.512.09-.195.321-.28.513-.188.048.022 5.488 2.428 7.707 2.869 0 0-.158.133-.336.267-.179.132-.503.281-.503.281z"/><path fill="#FFDC5D" d="M10.63 9.387v3.714c0 1.026.831 3.61 1.857 3.61s1.857-2.584 1.857-3.61V9.387H10.63z"/><path fill="#F9CA55" d="M10.63 12.825c.517.585 1.159.743 1.857.743.697 0 1.339-.159 1.857-.743v-1.486H10.63v1.486z"/><path fill="#744EAA" d="M14.509.429c-1.043-.338-3.498-.246-4.112.552-1.596.031-3.467 1.473-3.713 3.376-.243 1.883.298 2.757.491 4.173.218 1.604 1.12 2.117 1.841 2.332 1.037 1.371 2.14 1.312 3.992 1.312 3.616 0 5.338-2.419 5.49-6.529.093-2.485-1.366-4.367-3.989-5.216z"/><path fill="#FFDC5D" d="M16.577 5.821c-.35-.484-.798-.875-1.78-1.013.368.169.721.752.767 1.074.046.322.092.583-.199.261-1.168-1.291-2.44-.783-3.7-1.571-.88-.551-1.148-1.16-1.148-1.16s-.107.813-1.442 1.642c-.387.24-.849.775-1.105 1.565-.185.568-.128 1.074-.128 1.939 0 2.526 2.081 4.649 4.649 4.649s4.649-2.142 4.649-4.649c.001-1.571-.164-2.184-.563-2.737z"/><path fill="#C1694F" d="M14.558 11.141h-4.132s.517 1.033 2.066 1.033 2.066-1.033 2.066-1.033zm-1.55-1.291h-1.033c-.143 0-.258-.116-.258-.258s.116-.258.258-.258h1.033c.143 0 .258.116.258.258s-.115.258-.258.258z"/><path fill="#662113" d="M10.425 8.042c-.285 0-.517-.231-.517-.517v-.516c0-.285.231-.517.517-.517.285 0 .517.231.517.517v.517c0 .285-.231.516-.517.516zm4.133 0c-.285 0-.517-.231-.517-.517v-.516c0-.285.231-.517.517-.517s.517.231.517.517v.517c-.001.285-.232.516-.517.516z"/></svg>