<svg xmlns="http://www.w3.org/2000/svg" viewBox="0 0 36 36"><path fill="#292F33" d="M32 36v-2c0-3.313-2.687-6-6-6H10c-3.313 0-6 2.687-6 6v2h28z"/><path fill="#BE1931" d="M18 12C4 12 3 17 3 17c0 4 7 7 7 11 2 3 8 4 8 4s6-1 8-4c0-4 7-7 7-11 0 0-3.667-5-15-5z"/><path fill="#E1E8ED" d="M22.635 30.033l-2.905 1.295c-.184-.199-.44-.328-.73-.328h-2c-.29 0-.546.129-.73.328l-2.905-1.295c-.693-.173-1.365.351-1.365 1.066v2c0 .796.748 1.38 1.521 1.187l2.967-1.449c.152.094.321.163.512.163h2c.191 0 .36-.069.512-.163l2.967 1.449c.773.193 1.521-.391 1.521-1.187v-2c0-.715-.672-1.239-1.365-1.066z"/><path fill="#99AAB5" d="M15.517 33.325c-.025-.049-.607-1.195-.144-2.373l.931.367c-.294.747.097 1.537.101 1.545l-.888.461zm5.004 0l-.889-.461c.003-.005.396-.798.102-1.545l.93-.367c.464 1.178-.118 2.324-.143 2.373z"/><path fill="#AF7E57" d="M13.64 28.101c1.744 1.267 2.848 1.962 4.36 1.962 1.511 0 2.616-.696 4.36-1.962V24.29h-8.72v3.811z"/><path fill="#9B6A49" d="M13.632 25.973c1.216 1.374 2.724 1.746 4.364 1.746 1.639 0 3.147-.372 4.364-1.746v-3.491h-8.728v3.491z"/><path fill="#AF7E57" d="M9.478 16.96c0-5.589 3.816-10.121 8.522-10.121s8.522 4.531 8.522 10.121c0 5.589-3.816 10.12-8.522 10.12s-8.522-4.531-8.522-10.12z"/><path fill="#915A34" d="M21.755 22.015c-.257-.256-.657-.268-.913-.013-.006.005-.643.49-2.842.49-2.118 0-2.787-.449-2.839-.487-.257-.232-.654-.225-.902.024-.256.256-.256.671 0 .927.036.036.118.186.265.389-.033.156-.031.32.009.481.008.034.02.067.036.098l1.012 2.072c.084.172.258.281.449.281h.009c.194-.003.369-.119.448-.296l.484-1.085c.31.062.647.104 1.029.104.367 0 .694-.037.996-.096l.479 1.075c.079.177.254.293.448.296h.009c.191 0 .365-.109.449-.281l1.012-2.072c.015-.031.027-.064.036-.098.036-.144.032-.29.008-.432.167-.226.265-.4.304-.438.256-.256.27-.683.014-.939z"/><path fill="#F5F8FA" d="M19.586 23.188l.809-.188c.368 0 .639.346.549.703l-1.012 2.072-.88-1.973c-.08-.321.212-.568.534-.614zm-3.211 0L15.566 23c-.368 0-.639.346-.549.703l1.012 2.072.88-1.973c.08-.321-.212-.568-.534-.614z"/><path fill="#DD2E44" d="M14 17c-.55 0-1-.45-1-1v-1c0-.55.45-1 1-1s1 .45 1 1v1c0 .55-.45 1-1 1zm8 0c-.55 0-1-.45-1-1v-1c0-.55.45-1 1-1s1 .45 1 1v1c0 .55-.45 1-1 1z"/><path fill="#915A34" d="M18.75 19.75h-1.5c-.413 0-.75-.337-.75-.75s.337-.75.75-.75h1.5c.413 0 .75.337.75.75s-.337.75-.75.75z"/><path fill="#AF7E57" d="M26 16l-.47.129s-1.192 3.401 0 3.997C28.194 21.457 29 16.332 29 15c0-1-3 1-3 1zm-16 0l.47.129s1.192 3.401 0 3.997C7.806 21.457 7 16.332 7 15c0-1 3 1 3 1z"/><path fill="#292F33" d="M18 3c-8 0-9 4-9 10s1.757.97 2 0c1-4 5-5 7-1 2-4 6-3 7 1 .243.97 2 6 2 0S26 3 18 3z"/></svg>