<svg xmlns="http://www.w3.org/2000/svg" viewBox="0 0 36 36"><path fill="#E1E8ED" d="M36 36v-2c0-3.314-2.686-6-6-6H14c-3.313 0-6 2.686-6 6v2h28z"/><path fill="#269" d="M22 36l5-8H17z"/><path fill="#FFDC5D" d="M17.64 28.038c0 1.962 8.72 1.962 8.72 0v-3.749h-8.72v3.749z"/><path fill="#F9CA55" d="M17.632 25.973c1.216 1.374 2.724 1.746 4.364 1.746 1.639 0 3.146-.373 4.363-1.746v-3.491h-8.728v3.491z"/><path fill="#FFAC33" d="M23.157 6.984c-1.925-.623 1.444-3.7.312-2.228-2.944.057-7.652 3.158-9.802 5.97-2.317 3.03-1.824 4.933-1.469 7.546.403 2.96 2.067 3.907 3.397 4.303 1.914 2.529 3.949 2.421 7.366 2.421 6.672 0 9.24-4.913 8.884-11.106-.267-2.981-3.848-5.34-8.688-6.906z"/><path fill="#FFDC5D" d="M29.547 13.273c-.646-.894-1.472-1.614-3.284-1.868.68.311 1.725 1.727 1.81 2.321.085.595.082 1.75-.386 1.099-2.049-2.851-4.878-2.401-7.204-3.856-1.624-1.016-2.119-2.141-2.119-2.141s-.198 1.5-2.661 3.029c-.714.443-1.566 1.43-2.038 2.888-.34 1.048-.234 1.982-.234 3.578 0 4.66 3.841 8.578 8.578 8.578s8.578-3.953 8.578-8.578c-.001-2.898-.304-4.031-1.04-5.05z"/><path fill="#C1694F" d="M22.961 20.706h-1.906c-.263 0-.477-.213-.477-.477s.213-.477.477-.477h1.906c.263 0 .477.213.477.477s-.213.477-.477.477z"/><path fill="#662113" d="M18.195 17.37c-.526 0-.953-.427-.953-.953v-.953c0-.526.427-.953.953-.953s.953.427.953.953v.953c0 .527-.426.953-.953.953zm7.626 0c-.526 0-.953-.427-.953-.953v-.953c0-.526.427-.953.953-.953s.953.427.953.953v.953c0 .527-.427.953-.953.953z"/><path fill="#C1694F" d="M22.134 24.686c-2.754 0-3.6-.705-3.741-.848-.256-.256-.256-.671 0-.927.248-.248.646-.255.902-.023.052.037.721.487 2.839.487 2.2 0 2.836-.485 2.842-.49.256-.255.657-.243.913.015.256.256.242.683-.014.938-.142.143-.987.848-3.741.848"/><path fill="#CCD6DD" d="M31.178 12S28.556 13 22 13s-9.178-1-9.178-1V6h18.355v6z"/><path fill="#99AAB5" d="M16 11.25c0 .276-.224.5-.5.5s-.5-.224-.5-.5v-3c0-.276.224-.5.5-.5s.5.224.5.5v3zm13 0c0 .276-.224.5-.5.5s-.5-.224-.5-.5v-3c0-.276.224-.5.5-.5s.5.224.5.5v3zm-10 .4c0 .276-.224.5-.5.5s-.5-.224-.5-.5v-3c0-.276.224-.5.5-.5s.5.224.5.5v3zm3.5.1c0 .276-.224.5-.5.5s-.5-.224-.5-.5v-3c0-.276.224-.5.5-.5s.5.224.5.5v3zm3.5-.1c0 .276-.224.5-.5.5s-.5-.224-.5-.5v-3c0-.276.224-.5.5-.5s.5.224.5.5v3z"/><path fill="#E1E8ED" d="M28.25 0c-1.157 0-2.237.32-3.167.869C24.153.32 23.073 0 21.916 0c-1.122 0-2.173.3-3.083.818C17.923.3 16.872 0 15.75 0 12.298 0 9.5 2.798 9.5 6.25S20.794 9.5 21.916 9.5c1.157 0 12.584.202 12.584-3.25S31.701 0 28.25 0z"/><path fill="#99AAB5" d="M10 24.75C10 28.202 7.985 30 5.5 30S1 28.202 1 24.75s2.015-7.25 4.5-7.25 4.5 3.798 4.5 7.25z"/><path fill="#99AAB5" d="M4.5 28h2v8h-2z"/><path fill="#C1694F" d="M10 24.75C10 28.202 7.985 30 5.5 30S1 28.202 1 24.75s2.015-7.25 4.5-7.25 4.5 3.798 4.5 7.25z"/><path fill="#C1694F" d="M4.5 28h2v8h-2z"/><path fill="#CCD6DD" d="M14.894 4.489c.036.008.071.011.106.011.231 0 .438-.16.488-.394.031-.145.334-1.441 1.319-2.212.76-.595 1.749-.987 2.007-1.084-.396-.225-.824-.4-1.268-.535-.423.21-.914.486-1.355.832-1.236.967-1.617 2.492-1.681 2.788-.057.27.115.536.384.594zm12.157-2.586c.986.772 1.289 2.066 1.319 2.211.051.235.258.395.489.395.034 0 .069-.003.105-.011.27-.058.441-.324.384-.594-.064-.296-.443-1.82-1.681-2.789-.426-.333-.896-.602-1.309-.809-.434.139-.851.317-1.237.542.337.132 1.227.504 1.93 1.055z"/></svg>