<svg xmlns="http://www.w3.org/2000/svg" viewBox="0 0 36 36"><path fill="#FA743E" d="M29.258 33.016l-.287-6.788c.116-3.312-2.475-6.09-5.787-6.206l-9.994-.349c-3.312-.116-5.115 2.169-6.206 5.787l-.669 6.296 22.943 1.26z"/><path fill="#7C533E" d="M14.6 20.207c0 .692 1.841 1.543 3.4 1.543 1.56 0 3.4-.851 3.4-1.543V17.25h-6.8v2.957z"/><path fill="#664131" d="M14.6 18.557c.947 1.058 2.122 1.344 3.4 1.344 1.277 0 2.452-.287 3.4-1.344v-2.688h-6.8v2.688z"/><path fill="#0B0200" d="M21.628 1.32c-1.455-.557-4.945-.608-5.875.478-2.266-.075-5.03 1.832-5.519 4.513-.485 2.654.218 3.935.386 5.958.19 2.292 1.432 3.088 2.439 3.446 1.37 2.022 2.939 2.021 5.566 2.158 5.13.269 7.754-3.036 8.275-8.855.316-3.52-1.613-6.299-5.272-7.698z"/><path fill="#7C533E" d="M24.128 9.766c-.46-.713-1.067-1.3-2.45-1.569.51.267.967 1.12 1.009 1.581.041.461.087.834-.302.355-1.561-1.918-3.411-1.125-5.141-2.337-1.208-.847-1.536-1.374-1.536-1.374s-.262.846-2.218 1.923c-.567.312-1.261 1.084-1.683 2.186-.303.792-.177.602-.242 1.829-.188 3.584 2.607 6.751 6.251 6.942s6.756-2.694 6.942-6.251c.116-2.23-.105-2.472-.63-3.285z"/><path fill="#3D2E24" d="M17.989 17.837c-2.118-.111-2.739-.687-2.843-.803-.186-.207-.17-.526.037-.713.201-.181.507-.17.695.018.038.031.535.404 2.163.489 1.692.089 2.2-.259 2.205-.262.207-.186.515-.161.702.048.186.207.159.535-.048.721-.115.105-.793.613-2.911.502m.797-3.027l-1.466-.077c-.203-.011-.358-.183-.347-.386.011-.203.183-.358.386-.347l1.466.077c.203.011.358.183.347.386s-.184.357-.386.347z"/><path d="M16.19 11.917c-.058 0-.116-.013-.17-.041-.004-.002-.371-.188-.744-.212-.436-.027-.82.133-.824.134-.193.082-.41-.009-.491-.199-.081-.19.006-.409.196-.491.022-.009.55-.234 1.167-.192.532.034 1.019.283 1.039.293.184.095.255.32.161.504-.066.13-.197.204-.334.204zm5.913.37c-.073 0-.146-.021-.211-.065-.001 0-.312-.204-.748-.231-.448-.025-.792.106-.795.108-.194.077-.41-.017-.487-.208s.014-.409.204-.487c.021-.008.499-.196 1.125-.163.637.04 1.075.327 1.123.359.171.116.216.35.1.521-.074.108-.191.166-.311.166z"/><path fill="#DD2E44" d="M28.526 30.798c.55 1.503-1.121.825-2.428 1.314-.848.317-2.282.836-2.503.135-.438-1.384-1.215-3.713-1.534-5.108.021-.008.073-.029.092-.038-.09-.134-.104-.552-.119-.723-.135-1.507.912-3.055.912-3.055s2.054-.278 2.573-.547c.246 1.605.468 2.641.468 2.641s1.882 3.586 2.539 5.381z"/><path fill="#E1E8ED" d="M23.519 21.032l.406 1.236c.257.784-.173 1.636-.957 1.893l-4.506 1.48c-.784.257-1.636-.173-1.893-.957l-.406-1.236c-.257-.784.173-1.636.957-1.893l4.506-1.48c.784-.258 1.636.173 1.893.957z"/><path fill="#88C9F9" d="M14.795 23.072c.224.681-1.922 1.386-1.698 2.067.224.681 2.369-.023 2.593.658.224.681.939.446.939.446l-.671-2.043-.671-2.043c0-.001-.715.234-.492.915z"/><path fill="#55ACEE" d="M16.602 22.024l1.164 3.545c.086.261-.058.545-.319.631l-.685.225c-.261.086-.545-.058-.631-.319l-1.164-3.545c-.086-.261.058-.545.319-.631l.685-.225c.261-.085.545.058.631.319z"/><path fill="#A6D388" d="M21.989 35.145c1.066.007 2.736-2.31 1.089-3.653-1.648-1.343-4.499-3.099-5.959-3.806-1.869-.904-5.366-3.919-6.06-4.643s-2.351-.603-3.222.663c-.619.9-1.446 4.193-.004 6.844 1.686 3.098 4.561 5.082 8.396 5.082 1.013 0 2.116.067 2.742-.074s1.736-.421 3.018-.413z"/><path fill="#7C533E" d="M24.636 28.21c1.283-.13 1.305-1.899 1.127-2.981-.34-2.066.052-3.88-1.566-4.624-1.416-.651-.693 1.394-1.464 2.998-1.107 2.301-.356 3.386-.356 3.386s1.136 1.314 2.259 1.221z"/><path fill="#FA743E" d="M29.126 32.334c.748 2.158-1.786 3.587-3.434 2.993-.855-.308-1.36-1.539-1.973-3.658-.838-2.892-1.31-4.485-1.31-4.485s.882-.225 1.934-.685c1.042-.456 1.577-.915 1.577-.915s2.589 4.968 3.206 6.75z"/><path fill="#7C533E" d="M17.283 35.882h2.565c2.094 0 4.259-1.378 4.368-3.156.096-1.556-1.641-.279-3.392-.598-1.592-.291-2.97.074-2.97.074s.112 2.503-.571 3.68z"/><path fill="#FA743E" d="M6.516 30.976c.653-1.477 3.431-.958 5.844-.364 2.118.521 4.292 1.188 5.903 1.473 0 0 .334.755.171 2.106-.091.752-.506 1.665-.506 1.665s-3.248.091-5.405-.195c-3.238-.428-7.188-2.012-6.007-4.685z"/></svg>