<svg xmlns="http://www.w3.org/2000/svg" viewBox="0 0 36 36"><path fill="#77B255" d="M36 36v-2c0-3.314-2.686-6-6-6H14c-3.313 0-6 2.686-6 6v2h28z"/><path fill="#3E721D" d="M22 34c.767 0 5-3 5-6H17c0 3 4.233 6 5 6z"/><path fill="#FFDC5D" d="M17.64 28.038c0 2.846 8.72 2.962 8.72 0v-3.749h-8.72v3.749z"/><path fill="#F9CA55" d="M17.632 25.973c1.216 1.374 2.724 1.746 4.364 1.746 1.639 0 3.147-.372 4.364-1.746v-3.491h-8.728v3.491z"/><path fill="#FFAC33" d="M25.152 3.3c-1.925-.623-5.876-.46-7.008 1.012-1.873.036-1.596 3.71-5.113 2.967-.738 1.004-1.259 2.198-1.424 3.476-.448 3.475.235 4.874.591 7.486.403 2.96 2.067 3.907 3.397 4.303 1.914 2.529 3.949 2.421 7.366 2.421 6.672 0 9.271-4.458 9.552-12.04.08-2.157-.473-4.067-1.584-5.649-3.837 1.49-3.213-3.146-5.777-3.976z"/><path fill="#FFDC5D" d="M29.547 13.243c-.646-.894-1.472-1.614-3.284-1.868.68.311 1.874 2.202 1.959 2.797.085.595.17 1.076-.368.481-2.155-2.382-5.045-2.259-7.37-3.714-1.624-1.016-2.119-2.141-2.119-2.141s-.198 1.5-2.661 3.029c-.714.443-1.566 1.43-2.038 2.888-.34 1.048-.234 1.982-.234 3.578 0 4.66 3.841 8.578 8.578 8.578s8.578-3.953 8.578-8.578c-.002-2.898-.305-4.03-1.041-5.05z"/><path fill="#C1694F" d="M22.961 20.677h-1.906c-.263 0-.477-.213-.477-.477s.213-.477.477-.477h1.906c.263 0 .477.213.477.477s-.213.477-.477.477z"/><path fill="#662113" d="M18.195 17.341c-.526 0-.953-.427-.953-.953v-.953c0-.526.427-.953.953-.953s.953.427.953.953v.953c0 .526-.426.953-.953.953zm7.626 0c-.526 0-.953-.427-.953-.953v-.953c0-.526.427-.953.953-.953s.953.427.953.953v.953c0 .526-.427.953-.953.953z"/><path fill="#C1694F" d="M22.134 24.657c-2.754 0-3.6-.705-3.741-.848-.256-.256-.256-.671 0-.927.248-.248.646-.255.902-.023.052.037.721.487 2.839.487 2.2 0 2.836-.485 2.842-.49.256-.255.657-.243.913.015.256.256.242.683-.014.939-.142.142-.987.847-3.741.847"/><path fill="#3B88C3" d="M13 28h3v8h-3zm15 0h3v8h-3z"/><path fill="#3B88C3" d="M13.125 35H31v1H13.125z"/><path fill="#C1694F" d="M30 8.8c0 1.32-3.092 2.2-8 2.2-4.909 0-8-.88-8-2.2C14 5.253 18 0 19.333 0 20.667 0 21.556 1.76 22 1.76S23.333 0 24.667 0C26 0 30 5.253 30 8.8z"/><path fill="#C1694F" d="M35.941 8c0 1.657-3.5 6-14 6s-14-4.343-14-6 6.82-1 14-1 14-.657 14 1z"/><path fill="#292F33" d="M30 8.8c0 1.32-3.092 2.2-8 2.2-4.909 0-8-.88-8-2.2 0-.566.102-1.175.279-1.8 2.388 2 13.054 2 15.443.004.175.623.278 1.231.278 1.796z"/><path fill="#C1694F" d="M7 31.75c0-.69-.56-1.25-1.25-1.25s-1.25.56-1.25 1.25V36H7v-4.25z"/><path fill="#66757F" d="M10.003 22.75c0 2.35-1.904 4.253-4.253 4.253S1.497 25.1 1.497 22.75c0-.086-1.497-.084-1.497 0 0 3.176 2.575 5.75 5.75 5.75s5.75-2.574 5.75-5.75c0-.084-1.497-.086-1.497 0z"/><path fill="#66757F" d="M1.5 22.75c0 .414-.336.75-.75.75S0 23.164 0 22.75v-8.5c0-.414.336-.75.75-.75s.75.336.75.75v8.5zm10 0c0 .414-.336.75-.75.75s-.75-.336-.75-.75v-8.5c0-.414.336-.75.75-.75s.75.336.75.75v8.5zM6.5 31c0 .414-.336.75-.75.75S5 31.414 5 31V14.25c0-.414.336-.75.75-.75s.75.336.75.75V31z"/></svg>