<svg xmlns="http://www.w3.org/2000/svg" viewBox="0 0 36 36"><path fill="#CCD6DD" d="M12.154 19.416l.802.598L3.988 32.04l-.802-.598z"/><path fill="#DD2E44" d="M3.186 31.444L1.093 34.25c-.164.22-.119.535.102.7s.535.119.7-.102l2.092-2.806-.801-.598z"/><path fill="#292F33" d="M11.359 21.319c-.22-.164-.266-.479-.102-.7l1.793-2.405c.164-.22.479-.266.7-.102.22.164.266.479.102.7l-1.793 2.405c-.164.221-.479.267-.7.102z"/><path fill="#292F33" d="M11.76 21.618l-.802-.598c-.22-.164-.266-.479-.102-.7.164-.22.479-.266.7-.102l.802.598c.22.164.266.479.102.7-.164.221-.479.267-.7.102z"/><path fill="#99AAB5" d="M.598 35.751c-.22-.164-.266-.479-.102-.7.164-.22.479-.266.7-.102.22.164.266.479.102.7-.165.22-.48.266-.7.102z"/><path fill="#292F33" d="M20.436 35.056s.061-.144.061-.448c0-.303-.156-.869-.199-.95-.043-.081-.09-.139-.194-.11-.079.022-.685.326-1.072.341-.719.027-1.066-.618-1.066-.618s-.399.228-.716.413c-.318.185-.687.462-.959.627-.232.141-.497.208-.771.243s-.497.023-.563.029c-.066.006-.621-.061-.641.488l.004.16s.987.397 2.344.397 1.566-.399 2.444-.399c.877 0 1.328-.173 1.328-.173z"/><path fill="#292F33" d="M18.685 35.926c-.058-.052-.123-.22-.173-.243-.05-.023-.57.089-.813.146-.243.058-.66.156-1.152.156-.491 0-1.126-.144-1.519-.243-.393-.098-.701-.23-.77-.274-.07-.043-.05-.063-.046-.096.004-.033.052-.202.052-.202s.251.132.678.237c.426.104.851.183 1.584.183s1.193-.109 1.574-.211c.475-.128 1.163-.267 1.656-.267.38 0 .648-.112.751-.139.024-.006.046.012.046.037v.649c0 .042-.035.139-.146.162-.112.024-1.664.157-1.722.105zm12.222-5.012s-.072-.142-.307-.343-.777-.454-.868-.473c-.091-.02-.167-.022-.213.078-.035.075-.199.746-.444 1.056-.454.575-1.184.418-1.184.418s-.087.46-.153.828-.096.838-.148 1.158c-.044.273-.167.523-.322.758-.154.236-.31.4-.35.456-.039.055-.457.441-.045.82l.127.101s.96-.502 1.857-1.555c.897-1.052.726-1.477 1.306-2.158.58-.68.744-1.144.744-1.144z"/><path fill="#292F33" d="M30.425 32.846c-.078.01-.252-.05-.303-.026-.051.024-.308.5-.424.727-.116.226-.316.615-.64.996s-.856.778-1.192 1.018c-.336.24-.642.391-.721.416s-.082-.003-.104-.028c-.022-.025-.122-.174-.122-.174s.269-.107.631-.369c.363-.261.705-.538 1.189-1.107.484-.568.704-.997.876-1.36.214-.452.562-1.078.887-1.46.251-.295.342-.576.388-.674.011-.023.04-.028.059-.012l.503.429c.033.028.085.118.029.22-.055.103-.978 1.394-1.056 1.404z"/><path fill="#F7DECE" d="M21.001 1.418c-1.616-.481-3.893.53-4.11 2.372-.303 2.57 1.323 4.585 2.901 4.276 1.654-.324 2.648-.782 3.177-2.559.528-1.777-.353-3.608-1.968-4.089z"/><path fill="#F7DECE" d="M22.562 5.988c2.045-2.867-3.411-2.136-3.411-2.136-1.034.127-.172 1.793-.579 2.778-.279.682 1.16.907 1.16.907s.646-.065.748.716v.007c.025.199.024.438-.042.763-.329 1.61 1.862 2.392 2.19.779.13-.638.012-1.18-.124-1.677l-.012-.045c-.205-.74-.436-1.383.07-2.092z"/><path fill="#292F33" d="M23.013 1.791c-.861-.977-3.527-1.676-5.056-.215-1.154-.1-1.497 1.019-1.347 1.633.12.49 1.352.514 1.739 1.431.193-.255.207-.744.139-.999.421.341.336 1.339 1.92 1.85 1.532.494 1.382 1.822 1.382 1.822s.747-.435 1.235-1.109c.934-1.286.937-3.336-.012-4.413z"/><path fill="#2A6797" d="M18.558 34.203c-1.266.109-1.853-.233-1.721-.416.165-.228.128-.397.13-.536.028-2.441-.472-5.991-.472-5.991 0-.348.003-.813.312-1.562.778-1.883 3.951-7.69 3.951-7.69.548-.958 1.771-1.293 2.729-.744.959.548 1.122 1.405.744 2.729-.715 2.508-2.965 5.602-3.903 7.477.224 2.121-.174 3.853.035 5.857.03.288-.54.767-1.805.876z"/><path fill="#4289C1" d="M29.292 31.931c-.364.553-.97.942-1.598.838-1.269-1.924-4.955-5.321-4.955-5.321-.241-.25-.562-.587-.86-1.341-.748-1.895-2.498-8.277-2.498-8.277-.272-1.07.376-2.16 1.446-2.43 1.07-.272 1.783.232 2.43 1.446 1.227 2.301 1.757 6.09 2.384 8.09 1.87 1.568 2.383 3.603 4.275 5.151-.064.857-.26 1.291-.624 1.844z"/><path fill="#FA743E" d="M25.397 20s0 1-2 1h-4.898c1-4.578-.094-5.84.241-8.581.361-2.954 2.287-4.771 3.475-4.34 1.822.661 2.693 2.641 2.932 5.858.238 3.217.25 6.063.25 6.063z"/><path fill="#F7DECE" d="M20.029 11.693c-.781 1.172-2.291 3.808-2.518 3.909-1.205.534-2.549 1.22-3.445 1.314-.649.068-1.254.68-1.508.925-.316.304-.75 1.008-.63 1.37.075.226.571.488.742.253.332-.458.973-.535 1.49-.889 1.038-.712 3.284-.765 4.556-1.709.528-.391 1.677-1.309 3.2-3.9-.592-.426-1.887-1.273-1.887-1.273z"/><path fill="#292F33" d="M14.21 17.018c.477.152.847.624.557 1.114-.29.49.403.185.512-.045.223-.468-.178-1.158-.646-1.314-.468-.156-.746.142-.423.245z"/></svg>