<svg xmlns="http://www.w3.org/2000/svg" viewBox="0 0 36 36"><path fill="#66757F" d="M32.75 36H4c-2.209 0-4-1.791-4-4V4c0-2.209 1.791-4 4-4h15.042s4.849.569 4.542 2c-.351 1.634-2.455 6.896-2.542 7.708-.173 1.62 4.735 4.393 4.5 6.292-.733 5.934-3.5 8.25-2.505 11.305.126.386 3.679.718 4.588 1.195C33 31.318 32.958 36 32.75 36z"/><path fill="#99AAB5" d="M30 36H4c-2.209 0-4-1.791-4-4V4c0-2.209 1.791-4 4-4h7.167s8.955.862 8.842 2.062c-.173 1.851-3.639 7.717-2.51 8.812s4.432 3.794 4.571 5.542c.179 2.244-4.284 8.299-1.918 13.304.756 1.598 5.061.957 6.329 1.852C29.644 33.807 30.304 36 30 36z"/><path fill="#7C533E" d="M33.013 3.746c-1.133-.847-3.219-.709-3.924.678-.983 1.936-.285 3.994 1.047 4.208 1.397.224 2.312.15 3.243-1.096.931-1.247.768-2.944-.366-3.79z"/><path fill="#7C533E" d="M32.92 7.797c2.44-1.666-2.068-2.67-2.068-2.67-.851-.2-.654 1.362-1.26 2.02-.417.456.651 1.05.651 1.05s.437.387.401.669-.176.331-.645.431c-.596 1.244 1.145 2.699 1.87 1.523.287-.465.351-.926.388-1.357l.56.118c-.338-.648-.5-1.372.103-1.784z"/><path fill="#0B0200" d="M34.49 4.622c-.395-1.019-2.292-2.341-3.92-1.633-.88-.412-1.474.369-1.534.896-.048.421.916.796.956 1.63.225-.145.379-.526.399-.747.233.39-.123 1.152.977 2.013 1.063.832.561 1.835.561 1.835s.714-.126 1.294-.516c1.107-.741 1.703-2.355 1.267-3.478z"/><path fill="#292F33" d="M29.759 29.818s.404.278 1.516.666c.443.154-.044 1.84-.305 2.08s-2.188.627-3.928.098c-1.593-.484-.405-.938.744-1.193 1.151-.254 1.973-1.651 1.973-1.651z"/><path fill="#664131" d="M28.313 14.316c-1.108.471-2.32.982-2.873.817-.415-.124-1.235-.382-1.886-.38-.651.002-.76.343-.325 1.021.435.679 1.324 1.039 2.032.823.708-.216 2.276-.29 3.233-.317.956-.025 1.692-2.759-.181-1.964z"/><path fill="#664131" d="M27.85 14.614c.484-.258 1.333-.391 1.333-.391l.929-2.272 2.482 1.636s-1.65 1.934-2.05 2.355c-.4.422-1.793.417-2.898.371-.833-.034-.337-1.411.204-1.699zm1.972 11.558s-2.739-1.872-2.937-1.076c-.198.796 2.252 2.908 2.846 4.888.24.799 1.68 1.663 1.697.079.03-2.735-1.606-3.891-1.606-3.891z"/><path fill="#664131" d="M27.162 25.501s.88 1.752 1.766 1.567 3.219-3.005 3.92-4.075c.701-1.07.419-3.671-1.168-2.416-1.586 1.253-4.518 4.924-4.518 4.924z"/><path fill="#C63900" d="M34.225 21.936l-6.368.815 3.175 2.892z"/><path fill="#7C533E" d="M27.622 22.132s-2.369 2.157-2.583 3.02c-.215.862.003 3.664-.642 6.25s1.079 3.016 1.294 2.154c.215-.862 1.84-4.249 1.592-5.859-.151-.982 2.495-3.196 2.495-3.196l-2.156-2.369z"/><path fill="#DD551F" d="M29.807 19.266c-1.291.84-1.944 2.066-3.733 4.052l2.395 2.554s6.032-2.286 6.953-5.358c.794-2.649-1.491-4.143-1.491-4.143s-2.89 2.092-4.124 2.895z"/><path fill="#7C533E" d="M25.146 7.833c-.942-1.226-2.325-2.46-2.501-3.247-.214-.957-.164-1.954-1.499-2.752-.842-.503-.278.882-.154 2.717.071 1.055 1.664 4.103 2.633 5.094.623.637 3.588 1.518 4.57 3.638.166.358.605 1.03 1.117 1.841.85 1.343 1.341 2.469.658 4.033 2.984.155 5.318-1.113 5.318-1.113-.883-2.313-.212-4.329-.94-6.15-1.15-2.879-2.429-2.989-4.35-2.598 0 0-1.071-.539-2.142-.546-.839-.331-1.635-.614-2.71-.917z"/><path fill="#FA743E" d="M29.779 19.141c2.984.155 5.625-.824 5.625-.824-.771-2.366-.328-4.602-1.056-6.423-.161-.404-.33-.736-.504-1.021-.011.256-.149.448-.597.356-.97-.2-1.585-1.274-2.541-1.898-.229-.01-.465-.019-.708-.035.76.597 1.077 2.165.639 3.292-.443 1.14-1.332 1.394-2.302 1.034-.109.925.458 1.364.881 2.219.634 1.28.91 1.864.563 3.3z"/><path fill="#C63900" d="M29.779 18.5c.01-.046 1.158.125 2.814-.125 1.297-.196 2.811-.54 2.811-.54l.095.649s-1.917.495-3.069.629-2.623.152-2.623.152-.111-.355-.028-.765z"/><path fill="#292F33" d="M24.3 31.985s.371 1.007 1.62.869c.277-.031-.079 1.164-.39 1.461-.311.297-3.405 1.719-4.959.855-1.553-.864-.345-1.208.864-1.553 1.208-.345 2.865-1.632 2.865-1.632z"/><path fill="#66757F" d="M6.333 2.417h4.708c.792 0-2.208 3.156-3.292 3.156S4.917 2.417 6.333 2.417zm4.334 6.208h4.458c.75 0-2.458 2.949-3.458 2.949s-2.292-2.949-1-2.949zm-1.792 9.118H18c1.292 0-5.542 5.098-6.667 5.098s-4.916-5.098-2.458-5.098zM3.167 29.052h8.071c1.888 0-3.281 4.531-5.113 4.531s-4.792-4.531-2.958-4.531z"/></svg>