<svg xmlns="http://www.w3.org/2000/svg" viewBox="0 0 36 36"><path fill="#F3D2A2" d="M5 8.316c-1.787 0-3.476.401-5 1.102v21.16c1.53 1 3.342 1.625 5.318 1.723.016.001.031.005.047.005 5.241.23 9.807-3.307 11.006-8.177.402-1.199.629-2.479.629-3.813 0-6.627-5.374-12-12-12z"/><path fill="#662113" d="M10 22.542c1.977 0 2.5-1.636 2.5-2.5 0-.276-.224-.5-.5-.5-.275 0-.499.223-.5.497-.003.252-.089 1.503-1.5 1.503-.276 0-.5.224-.5.5s.224.5.5.5zm-2.5-2.5c0-.276-.224-.5-.5-.5-.275 0-.499.223-.5.497-.003.252-.089 1.503-1.5 1.503-.276 0-.5.224-.5.5s.224.5.5.5c1.977 0 2.5-1.636 2.5-2.5z"/><path fill="#C1694F" d="M9.995 26.542c-.273.003-.495.226-.495.5 0 .272.218.494.489.5H10c.225.006.5.098.5.5s-.275.494-.506.5c-.273.007-.494.232-.49.506.003.274.223.494.496.494.602 0 1.5-.399 1.5-1.5 0-.438-.143-.765-.352-1 .209-.235.352-.562.352-1 0-1.101-.898-1.5-1.5-1.5-.276 0-.5.224-.5.5 0 .274.222.497.495.5.23.006.505.098.505.5s-.274.494-.505.5z"/><path fill="#FFE51E" d="M2.543 18.54c-1.17.957-1.657 2.437-1.576 3.417 2.691-4.234 8.495-2.335 10.977-7.127 0 0 5.82 1.809 4.529 8.956 0 0 2.474-2.568 2.474-5.143 0-3.11-.994-8.87-5.534-9.725C11.019 6.245 4.857 5.054 0 6.525v13.319c.821-.799 1.704-1.29 2.543-1.304z"/><path fill="#AF7E57" d="M31 8.316c-6.626 0-12 5.373-12 12 0 1.334.227 2.614.629 3.813 1.198 4.87 5.765 8.406 11.006 8.177.016-.001.031-.005.047-.005 1.976-.097 3.788-.723 5.318-1.723V9.418c-1.524-.701-3.213-1.102-5-1.102z"/><path fill="#662113" d="M26 21.542c-1.411 0-1.497-1.251-1.5-1.503-.001-.274-.225-.497-.5-.497-.276 0-.5.224-.5.5 0 .864.523 2.5 2.5 2.5.276 0 .5-.224.5-.5 0-.277-.224-.5-.5-.5zm5 0c-1.411 0-1.497-1.251-1.5-1.503-.001-.274-.225-.497-.5-.497-.276 0-.5.224-.5.5 0 .864.523 2.5 2.5 2.5.276 0 .5-.224.5-.5 0-.277-.224-.5-.5-.5z"/><path fill="#915A34" d="M26.005 25.542c.273-.003.495-.226.495-.5 0-.276-.224-.5-.5-.5-.602 0-1.5.399-1.5 1.5 0 .438.143.765.352 1-.209.235-.352.562-.352 1 0 1.101.898 1.5 1.5 1.5.273 0 .493-.22.496-.494.004-.273-.217-.499-.49-.506-.231-.006-.506-.098-.506-.5s.275-.494.5-.5h.011c.272-.006.489-.228.489-.5 0-.274-.222-.497-.495-.5-.23-.006-.505-.098-.505-.5 0-.403.274-.494.505-.5z"/><path fill="#60352A" d="M22.588 8.918c-4.54.855-5.534 6.614-5.534 9.725 0 2.575 2.474 5.143 2.474 5.143-1.291-7.147 4.529-8.956 4.529-8.956 2.482 4.792 8.286 2.893 10.977 7.127.08-.98-.406-2.459-1.576-3.417.839.014 1.722.505 2.543 1.304V6.525c-4.858-1.471-11.02-.28-13.413 2.393z"/><path fill="#DD2E44" d="M26.539 6.711c0-2.602-2.11-4.711-4.711-4.711-1.579 0-2.973.78-3.828 1.972C17.144 2.78 15.751 2 14.172 2c-2.601 0-4.711 2.109-4.711 4.711 0 .369.047.727.127 1.07.654 4.065 5.173 8.353 8.411 9.529 3.238-1.177 7.758-5.465 8.412-9.528.081-.344.128-.702.128-1.071z"/></svg>