<svg xmlns="http://www.w3.org/2000/svg" viewBox="0 0 36 36"><path fill="#9266CC" d="M31 36v-3.5c0-3.314-3.685-5.5-7-5.5H12c-3.313 0-7 2.186-7 5.5V36h26z"/><path fill="#744EAA" d="M27.235 16.761c0-8.494-5.309-11.026-9.229-11.026s-9.8 2.559-9.8 11.026c0 3.489 1.255 6.182.644 8.238C7.65 29.037 11.778 32.506 15 34c4.94 2.29 10-3 10-3 3.975 0 2.235-4.248 2.235-14.239z"/><path fill="#9266CC" d="M27.807 16.761C27.807 8.267 21.926 5 18.006 5s-9.8 3.294-9.8 11.761c0 8.494 7.187 11.761 11.107 11.761C22.252 28.521 23.065 30 25 30c5.281 0 2.807-4.419 2.807-13.239z"/><path fill="#D5AB88" d="M16.904 11.166c-2.167.265-6.558 3.877-6.719 5.799.2 5.341 3.62 9.596 7.821 9.596 4.178 0 7.583-4.208 7.818-9.507-.23-2.372-6.919-6.133-8.92-5.888z"/><path fill="#DF1F32" d="M17.944 23.543c-1.605 0-2.446-.794-2.536-.885-.268-.267-.268-.7 0-.967.266-.265.692-.267.96-.007.035.032.553.491 1.576.491 1.039 0 1.557-.473 1.577-.492.273-.256.703-.248.963.02.26.269.26.691-.004.955-.089.091-.929.885-2.536.885"/><path fill="#662113" d="M14.608 17.886c-.465 0-.846-.381-.846-.846v-.845c0-.465.381-.846.846-.846s.847.381.847.846v.845c0 .465-.382.846-.847.846m6.765 0c-.465 0-.846-.381-.846-.846v-.845c0-.465.381-.846.846-.846.465 0 .846.381.846.846v.845c0 .465-.381.846-.846.846"/><path fill="#C1694F" d="M18.837 20.5h-1.691c-.233 0-.423-.19-.423-.423v-.153c0-.233.189-.424.423-.424h1.691c.232 0 .423.19.423.424v.153c0 .233-.191.423-.423.423"/><path fill="#553788" d="M10 17s3-5 8-5 8 5 8 5-1-8-8-8-8 8-8 8z"/></svg>