<svg xmlns="http://www.w3.org/2000/svg" viewBox="0 0 36 36"><path fill="#EA596E" d="M29.896 26.667c.003.283-.07.653-.146.958-.531 2.145-2.889 4.552-6.208 4.333-3.008-.198-5.458-1.642-5.458-3.667s2.444-3.667 5.458-3.667 6.335.018 6.354 2.043z"/><path fill="#DD2E44" d="M23.542 24.964c-1.619 0-5.314.448-6.162.448-1.498 0-2.713.94-2.713 2.1 0 .558.286 1.062.744 1.438 0 0 1.006 1.009 2.818.525.793-.212 2.083-1.786 4.354-2.036 1.131-.125 3.25.75 6.974.771.16-.344.193-.583.193-.583 0-2.027-3.194-2.663-6.208-2.663z"/><path fill="#F4ABBA" d="M29.75 27.625s2.184-.443 3.542-2.229c1.583-2.083 1.375-4.312 1.375-4.312 1.604-3-.5-5.813-.5-5.813C33.958 12.104 32 10.792 32 10.792c-1.271-3.021-4.083-3.833-4.083-3.833-2.208-2.583-6.125-2.5-6.125-2.5s-3.67-1.345-8.708.167c-.833.25-3.625.833-5.667 2.083C.981 10.649.494 16.793.584 17.792 1.083 23.375 5 24.375 7.5 24.958c.583 1.583 2.729 4.5 6.583 3.417 4.75-.833 6.75-2.25 7.917-2.25s4.417 1.25 7.75 1.5z"/><g fill="#EA596E"><path d="M17.737 18.648c2.328-1.255 3.59-1.138 4.704-1.037.354.032.689.057 1.028.055 1.984-.045 3.591-.881 4.302-1.69.182-.208.161-.523-.046-.706-.206-.182-.521-.163-.706.045-.548.624-1.899 1.313-3.573 1.351-.3.009-.601-.021-.913-.05-1.195-.111-2.679-.247-5.271 1.152-.665.359-1.577.492-2.565.592-2.197-3.171-.875-5.933-.497-6.591.037.002.073.014.111.014.4 0 .802-.098 1.166-.304.24-.136.325-.441.189-.681s-.441-.325-.681-.189c-.64.362-1.482.153-1.88-.467-.149-.233-.458-.301-.69-.151-.232.149-.3.458-.151.69.237.371.571.65.948.837-.521 1.058-1.51 3.84.372 6.951-1.324.13-2.65.317-3.688.986-.67.432-1.355 1.064-1.878 1.791-.629-.108-2.932-.675-3.334-3.231.25-.194.452-.45.577-.766.102-.257-.024-.547-.281-.649s-.547.024-.649.281c-.089.225-.25.389-.454.461-.202.072-.431.048-.643-.07-.243-.135-.546-.046-.68.194-.134.241-.047.546.194.68.284.158.588.238.89.238.037 0 .072-.017.109-.019.476 2.413 2.383 3.473 3.732 3.794-.176.388-.295.788-.331 1.192-.024.274.179.518.454.542l.045.002c.256 0 .475-.195.498-.456.108-1.213 1.265-2.48 2.293-3.145.964-.621 2.375-.752 3.741-.879 1.325-.121 2.577-.237 3.558-.767zm12.866-1.504c-.131.242-.041.546.2.677.076.042.159.062.24.062.176 0 .347-.093.438-.259.019-.034 1.842-3.449-1.571-5.744-.228-.152-.539-.093-.694.136-.154.229-.093.54.136.694 2.644 1.778 1.309 4.326 1.251 4.434zM9.876 9.07c.156 0 .309-.072.406-.208 1.45-2.017 3.458-1.327 3.543-1.295.259.094.544-.038.64-.296.096-.259-.036-.546-.295-.642-.96-.356-3.177-.468-4.7 1.65-.161.223-.11.536.114.697.089.064.191.094.292.094zm13.072-1.888c2.225-.181 3.237 1.432 3.283 1.508.094.158.26.246.431.246.086 0 .174-.022.253-.069.238-.14.318-.446.179-.684-.054-.091-1.34-2.218-4.224-1.998-.275.021-.48.262-.459.538.022.275.271.484.537.459zm9.15 14.611c-.246-.014-.517.181-.539.457-.002.018-.161 1.719-1.91 2.294-.262.086-.405.368-.318.631.068.21.265.344.475.344.052 0 .104-.008.156-.025 2.372-.778 2.586-3.064 2.594-3.161.021-.276-.183-.518-.458-.54z"/><path d="M7.347 16.934c-.072.267.086.541.353.613.043.012.087.017.13.017.221 0 .422-.147.482-.37.19-.711.927-1.167 1.652-1.014.271.055.535-.116.592-.387.057-.27-.116-.535-.387-.592-.426-.09-.854-.048-1.248.086-1.166-1.994-.939-3.96-.936-3.981.036-.273-.156-.524-.429-.562-.272-.033-.524.154-.562.427-.013.097-.28 2.316 1.063 4.614-.334.301-.588.694-.71 1.149zm11.179-2.47c.407-.377 1.06-.37 1.455.015.098.094.223.141.349.141.131 0 .261-.051.358-.152.192-.198.188-.515-.01-.707-.23-.223-.505-.372-.797-.465.296-1.016.179-1.467-.096-2.312-.048-.147-.101-.311-.157-.498l-.03-.1c-.364-1.208-.605-2.005.087-3.13.145-.235.071-.543-.164-.688-.231-.144-.542-.073-.688.164-.928 1.508-.587 2.637-.192 3.944l.03.1c.059.194.113.364.163.517.247.761.322 1.016.02 1.936-.369.069-.722.236-1.01.504-.202.188-.213.505-.025.707.189.202.506.212.707.024zm6.365-2.985c.291 0 .585-.061.859-.191.25-.118.357-.416.239-.666-.117-.25-.419-.354-.665-.239-.502.236-1.121.031-1.384-.457-.131-.244-.436-.333-.677-.205-.243.13-.335.434-.204.677.18.336.448.601.76.785-.537 1.305-.232 2.691.017 3.426.07.209.265.34.474.34.053 0 .106-.008.16-.026.262-.088.402-.372.313-.633-.168-.498-.494-1.756-.002-2.826.038.002.073.015.11.015zm4.797 9.429c-.019-.275-.257-.492-.531-.467-1.014.072-1.878-.697-1.947-1.703-.02-.275-.265-.48-.533-.465-.275.019-.483.258-.465.533.041.59.266 1.122.608 1.555-.804.946-1.857 1.215-2.444 1.284-.519.062-.973.009-1.498-.053-.481-.055-1.025-.118-1.698-.098l-.005.001c-.02-.286-.088-.703-.305-1.05-.146-.233-.455-.304-.689-.158-.233.146-.305.455-.158.689.134.215.159.558.159.725-.504.181-.94.447-1.334.704-.704.458-1.259.82-2.094.632-.756-.173-1.513-.208-2.155-.118-.1-.251-.258-.551-.502-.782-.201-.19-.517-.182-.707.02-.189.2-.181.517.02.707.086.081.154.199.209.317-1.103.454-1.656 1.213-1.682 1.25-.16.224-.107.533.115.694.088.063.19.094.292.094.155 0 .308-.071.406-.205.005-.008.554-.743 1.637-1.04.56-.154 1.363-.141 2.146.037.219.05.422.067.619.07.093.218.129.477.134.573.016.266.236.472.499.472l.027-.001c.275-.015.486-.248.473-.523-.003-.05-.023-.346-.13-.686.461-.167.862-.428 1.239-.673.572-.373 1.113-.726 1.82-.749.592-.021 1.08.036 1.551.091.474.055.94.091 1.454.061.091.253.084.591.07.704-.033.273.16.523.434.559.021.003.042.004.063.004.247 0 .462-.183.495-.435.008-.062.059-.512-.059-.981.718-.193 1.608-.612 2.345-1.471.431.264.934.419 1.469.419.062 0 .125-.002.187-.006.275-.018.483-.255.465-.531z"/></g></svg>