<svg xmlns="http://www.w3.org/2000/svg" viewBox="0 0 36 36"><path fill="#78B159" d="M26.093 4.612c-.498.498-.629.839-.728 1.029-.66 1.266-1.455 1.676-2.78.351-.13-.13-4.087-4.267-4.741-5.017-.427-.49-1.081-.64-1.584-.262-.38.286-4.035 3.273-5.035 4.507-.774.955-.8 2.134-.079 2.856.326.326.727.449 1.151.578.552.169 1.763.068 2.47.775 1.133 1.133.54 2.924-.917 4.421-1.497 1.457-3.288 2.05-4.421.917-.708-.708-.606-1.918-.775-2.47-.129-.424-.252-.824-.578-1.151-.721-.721-1.9-.694-2.856.079-1.235 1-4.221 4.655-4.507 5.035-.379.503-.228 1.156.262 1.584.75.654 4.887 4.611 5.017 4.741 1.324 1.324.915 2.12-.351 2.78-.19.099-.53.229-1.029.728-1.462 1.462-1.462 3.833 0 5.295 1.462 1.462 3.833 1.462 5.295 0 .498-.498.629-.839.728-1.029.66-1.266 1.455-1.676 2.78-.351.13.13 4.087 4.267 4.741 5.017.427.49 1.081.64 1.584.262.38-.286 4.035-3.273 5.035-4.507.774-.955.8-2.134.079-2.856-.326-.326-.727-.449-1.151-.578-.552-.169-1.763-.068-2.47-.775-1.133-1.133-.54-2.924.917-4.421 1.497-1.457 3.288-2.05 4.421-.917.708.708.606 1.918.775 2.47.129.424.252.824.578 1.151.721.721 1.9.694 2.856-.079 1.235-1 4.221-4.655 4.507-5.035.379-.503.228-1.156-.262-1.584-.75-.654-4.887-4.611-5.017-4.741-1.324-1.324-.915-2.12.351-2.78.19-.099.53-.229 1.029-.728 1.462-1.462 1.462-3.833 0-5.295-1.462-1.463-3.833-1.463-5.295 0z"/></svg>