<svg xmlns="http://www.w3.org/2000/svg" viewBox="0 0 36 36"><path fill="#55ACEE" d="M30 9c-1-2-5-4-7-4 0 0 1.194-2.174-1-3-.987-.372-2-.5-4-.5-1.615 0-3.013.128-4 .5-2.194.826-1 3-1 3-2 0-6 2-7 4S1 30.969 1 34.5c0 1 4.632 1.43 5 .5.791-2 3-16 3-16v15c0 2 5 1 9 1s9 1 9-1V19s2.525 15.12 3 16c.499.923 5 .5 5-.5C35 30.969 31 11 30 9z"/><path fill="#269" d="M14 3c0-.552 0-1 4-1s4 .448 4 1-1.791 2-4 2-4-1.448-4-2z"/><path fill="#3B88C3" d="M18 34.5c-.276 0-.5-.224-.5-.5V6c0-.276.224-.5.5-.5s.5.224.5.5v28c0 .276-.224.5-.5.5zm-4.375-.972c-1.794 0-3.564-.177-3.675-.188-.275-.027-.475-.272-.447-.548.028-.273.273-.479.548-.446.041.003 4.044.401 5.985.007.272-.055.535.119.59.391.055.271-.119.534-.39.59-.72.145-1.669.194-2.611.194zm-.97-3.084c-1.378 0-2.627-.079-2.881-.096-.275-.019-.484-.257-.465-.532.019-.275.246-.49.533-.466 1.323.089 5.002.223 6.109-.219.257-.102.547.021.65.278.103.257-.022.548-.279.649-.763.306-2.28.386-3.667.386zm1.217-3.179c-1.65 0-3.551-.143-4.105-.188-.275-.022-.48-.264-.458-.538.023-.275.268-.479.539-.458 2.574.208 5.549.275 6.072.024.25-.119.548-.014.667.235s.014.548-.235.667c-.409.196-1.39.258-2.48.258zm-.039-3.09c-1.77 0-3.75-.208-4.08-.244-.274-.03-.473-.276-.443-.552.029-.274.272-.478.551-.442 1.344.147 5.059.438 6.091.032.255-.104.547.025.649.281.101.258-.025.548-.282.648-.527.208-1.472.277-2.486.277zm.047-3.524c-1.753 0-3.767-.112-4.102-.132-.276-.016-.486-.252-.47-.528.016-.275.249-.505.528-.47 1.382.08 5.187.237 6.189.012.27-.062.537.107.598.377.061.27-.108.537-.378.598-.475.106-1.379.143-2.365.143zm-4.073-3.276c-.27 0-.492-.371-.5-.642-.007-.276.211-.584.487-.591l6.328-.205c.246.011.506.191.513.467.007.276-.211.652-.487.659l-6.328.312h-.013zM16.552 7h-.024c-.973 0-2.588-.904-2.769-1.004-.242-.133-.331-.429-.197-.671.133-.242.438-.325.679-.194.606.333 1.775.872 2.334.898.276.013.489.233.476.508-.012.269-.234.463-.499.463zm10.02 5.784c-.104 0-.21-.033-.3-.1-.221-.166-.266-.479-.101-.7l2.293-3.068c.167-.222.48-.264.7-.1.221.166.266.479.101.7l-2.293 3.068c-.098.131-.248.2-.4.2z"/><path fill="#3B88C3" d="M18.044 34.5c-.276 0-.5-.224-.5-.5V6c0-.276.224-.5.5-.5s.5.224.5.5v28c0 .276-.224.5-.5.5zm9.473-18.76c-.209 0-.404-.132-.475-.342-.087-.262.055-.545.316-.632l3-1c.262-.087.545.054.633.316.087.262-.055.545-.316.632l-3 1c-.053.018-.106.026-.158.026zm.612 3.481c-.209 0-.404-.133-.475-.342-.087-.262.055-.545.316-.633l3-1c.263-.084.545.054.633.316.087.262-.055.545-.316.632l-3 1c-.053.019-.105.027-.158.027zm.576 3.485c-.209 0-.404-.133-.475-.342-.087-.262.055-.545.316-.633l3-1c.262-.087.545.055.633.316.087.262-.055.545-.316.633l-3 1c-.052.019-.105.026-.158.026zm.642 3.488c-.209-.003-.402-.139-.469-.349-.083-.263.063-.544.326-.628l3.014-.955c.263-.082.544.063.628.326.083.263-.063.544-.326.628l-3.014.955c-.054.017-.107.024-.159.023zm.594 3.405c-.208-.017-.392-.165-.445-.379-.065-.268.099-.539.367-.605l3.071-.754c.269-.065.539.099.605.367.065.268-.099.539-.367.605l-3.071.754c-.054.013-.107.017-.16.012zm.577 3.439c-.208-.02-.39-.171-.44-.386-.061-.269.107-.537.376-.599l3.082-.706c.269-.061.537.107.599.376.061.269-.107.537-.376.599l-3.082.706c-.053.013-.106.015-.159.01zm-8.099.49c-.942 0-1.891-.049-2.61-.195-.271-.056-.445-.319-.391-.59.056-.271.324-.446.59-.391 1.943.399 5.946-.003 5.985-.007.271-.032.521.171.548.446.028.275-.172.521-.446.548-.113.012-1.882.189-3.676.189zm.971-3.084c-1.388 0-2.904-.08-3.667-.385-.257-.102-.381-.393-.278-.649.103-.256.395-.383.649-.278 1.108.441 4.786.309 6.109.219.248-.017.514.189.532.466.019.275-.189.514-.466.532-.253.016-1.502.095-2.879.095zm-1.218-3.179c-1.091 0-2.071-.062-2.479-.258-.249-.119-.354-.418-.235-.667.119-.249.419-.353.667-.235.524.251 3.497.185 6.072-.024.271-.021.517.183.538.458.022.274-.183.516-.458.538-.553.045-2.455.188-4.105.188zm.038-3.09c-1.014 0-1.958-.068-2.485-.276-.257-.101-.383-.391-.281-.648.102-.257.392-.385.648-.281 1.031.404 4.746.115 6.09-.032.271-.03.521.167.552.442.03.275-.168.521-.442.552-.332.035-2.312.243-4.082.243zm-.064-3.524c1.753 0 3.767-.112 4.102-.132.276-.016.486-.252.47-.528-.016-.275-.249-.505-.528-.47-1.382.08-5.187.237-6.189.012-.269-.062-.537.107-.598.377-.061.27.108.537.378.598.476.106 1.38.143 2.365.143zm4.09-3.276h-.013l-6.328-.322c-.276-.007-.494-.315-.487-.591.007-.275.251-.511.513-.526l6.328.147c.276.007.494.383.487.659-.007.272-.229.633-.5.633zm-6.193-3.625c-.253 0-.47-.191-.496-.449-.028-.274.171-.52.445-.549l4.818-.499c.267-.028.521.171.549.446.028.274-.171.52-.445.549l-4.818.499-.053.003zm.084-3.547c-.197 0-.385-.118-.463-.312-.104-.256.02-.547.275-.651 1.6-.648 6.095-.93 6.307-.942.312-.025.511.199.524.474.015.276-.197.511-.474.525-1.393.072-4.783.383-5.982.869-.061.025-.125.037-.187.037zM9.496 12.784c.104 0 .21-.033.3-.1.221-.166.266-.479.101-.7L7.604 8.916c-.167-.222-.48-.264-.7-.1-.221.166-.266.479-.1.7l2.293 3.068c.097.131.248.2.399.2zm-.944 2.956c.209 0 .404-.132.475-.342.087-.262-.055-.545-.316-.632l-3-1c-.262-.087-.545.054-.633.316-.087.262.055.545.316.632l3 1c.052.018.105.026.158.026zm-.612 3.481c.209 0 .404-.133.475-.342.087-.262-.055-.545-.316-.633l-3-1c-.263-.084-.545.054-.633.316-.087.262.055.545.316.632l3 1c.052.019.105.027.158.027zm-.577 3.485c.209 0 .404-.133.475-.342.087-.262-.055-.545-.316-.633l-3-1c-.262-.087-.545.055-.633.316-.087.262.055.545.316.633l3 1c.053.019.106.026.158.026zm-.641 3.488c.209-.003.402-.139.469-.349.083-.263-.063-.544-.326-.628l-3.014-.955c-.263-.082-.544.063-.628.326-.083.263.063.544.326.628l3.014.955c.053.017.106.024.159.023zm-.595 3.405c.208-.017.392-.165.445-.379.065-.268-.099-.539-.367-.605l-3.071-.754c-.269-.065-.539.099-.605.367-.065.268.099.539.367.605l3.071.754c.055.013.108.017.16.012zm-.577 3.439c.208-.02.39-.171.44-.386.061-.269-.107-.537-.376-.599l-3.082-.706c-.269-.061-.537.107-.599.376-.061.269.107.537.376.599l3.082.706c.053.013.107.015.159.01zM16.025 13.75c.253 0 .47-.191.496-.449.028-.274-.171-.52-.445-.549l-4.818-.499c-.267-.028-.521.171-.549.446-.028.274.171.52.445.549l4.818.499.053.003zm-.083-3.547c.197 0 .385-.118.463-.312.104-.256-.02-.547-.275-.651-1.6-.648-6.095-.93-6.307-.942-.313-.026-.511.199-.525.473-.015.276.197.512.474.526 1.394.072 4.783.383 5.982.869.062.025.125.037.188.037zM19.492 7c-.266 0-.487-.193-.5-.461-.013-.276.201-.502.476-.515.561-.026 1.729-.56 2.334-.892.243-.132.548-.044.68.199.133.242.044.532-.197.664-.181.1-1.797 1.005-2.769 1.005h-.024z"/></svg>