<svg xmlns="http://www.w3.org/2000/svg" viewBox="0 0 36 36"><path fill="#CCD6DD" d="M3 16v-2h30v2zm0 7v-2h30v2zm0 7v-2h30v2zM3 9V7h30v2z"/><path fill="#D5AB88" d="M35 33V1c0-.552-.448-1-1-1h-1c-.552 0-1 .448-1 1H4c0-.552-.448-1-1-1H2c-.552 0-1 .448-1 1v32h34zM4 4h28v29H4V4z"/><path fill="#3B94D9" d="M19 5.5c-.829 0-1.5.671-1.5 1.5 0-.829-.671-1.5-1.5-1.5s-1.5.671-1.5 1.5c0-.829-.671-1.5-1.5-1.5s-1.5.671-1.5 1.5c0-.829-.671-1.5-1.5-1.5S8.5 6.171 8.5 7c0-.829-.671-1.5-1.5-1.5S5.5 6.171 5.5 7v2c0 .829.671 1.5 1.5 1.5S8.5 9.829 8.5 9c0 .829.671 1.5 1.5 1.5s1.5-.671 1.5-1.5c0 .829.671 1.5 1.5 1.5s1.5-.671 1.5-1.5c0 .829.671 1.5 1.5 1.5s1.5-.671 1.5-1.5c0 .829.671 1.5 1.5 1.5.828 0 1.5-.671 1.5-1.5V7c0-.829-.672-1.5-1.5-1.5z"/><path fill="#BE1931" d="M19 12.5c-.829 0-1.5.671-1.5 1.5 0-.829-.671-1.5-1.5-1.5s-1.5.671-1.5 1.5c0-.829-.671-1.5-1.5-1.5s-1.5.671-1.5 1.5c0-.829-.671-1.5-1.5-1.5s-1.5.671-1.5 1.5c0-.829-.671-1.5-1.5-1.5s-1.5.671-1.5 1.5v2c0 .829.671 1.5 1.5 1.5s1.5-.671 1.5-1.5c0 .829.671 1.5 1.5 1.5s1.5-.671 1.5-1.5c0 .829.671 1.5 1.5 1.5s1.5-.671 1.5-1.5c0 .829.671 1.5 1.5 1.5s1.5-.671 1.5-1.5c0 .829.671 1.5 1.5 1.5.828 0 1.5-.671 1.5-1.5v-2c0-.829-.672-1.5-1.5-1.5z"/><path fill="#5C913B" d="M19 19.5c-.829 0-1.5.672-1.5 1.5 0-.828-.671-1.5-1.5-1.5s-1.5.672-1.5 1.5c0-.828-.671-1.5-1.5-1.5s-1.5.672-1.5 1.5c0-.828-.671-1.5-1.5-1.5s-1.5.672-1.5 1.5c0-.828-.671-1.5-1.5-1.5s-1.5.672-1.5 1.5v2c0 .828.671 1.5 1.5 1.5s1.5-.672 1.5-1.5c0 .828.671 1.5 1.5 1.5s1.5-.672 1.5-1.5c0 .828.671 1.5 1.5 1.5s1.5-.672 1.5-1.5c0 .828.671 1.5 1.5 1.5s1.5-.672 1.5-1.5c0 .828.671 1.5 1.5 1.5.828 0 1.5-.672 1.5-1.5v-2c0-.828-.672-1.5-1.5-1.5z"/><path fill="#FFAC33" d="M19 26.5c-.829 0-1.5.672-1.5 1.5 0-.828-.671-1.5-1.5-1.5s-1.5.672-1.5 1.5c0-.828-.671-1.5-1.5-1.5s-1.5.672-1.5 1.5c0-.828-.671-1.5-1.5-1.5s-1.5.672-1.5 1.5c0-.828-.671-1.5-1.5-1.5s-1.5.672-1.5 1.5v2c0 .828.671 1.5 1.5 1.5s1.5-.672 1.5-1.5c0 .828.671 1.5 1.5 1.5s1.5-.672 1.5-1.5c0 .828.671 1.5 1.5 1.5s1.5-.672 1.5-1.5c0 .828.671 1.5 1.5 1.5s1.5-.672 1.5-1.5c0 .828.671 1.5 1.5 1.5.828 0 1.5-.672 1.5-1.5v-2c0-.828-.672-1.5-1.5-1.5z"/><path fill="#3B94D9" d="M29 10.5c-.828 0-1.5-.671-1.5-1.5V7c0-.829.672-1.5 1.5-1.5s1.5.671 1.5 1.5v2c0 .829-.672 1.5-1.5 1.5z"/><path fill="#BE1931" d="M29 17.5c-.828 0-1.5-.671-1.5-1.5v-2c0-.829.672-1.5 1.5-1.5s1.5.671 1.5 1.5v2c0 .829-.672 1.5-1.5 1.5z"/><path fill="#5C913B" d="M29 24.5c-.828 0-1.5-.672-1.5-1.5v-2c0-.828.672-1.5 1.5-1.5s1.5.672 1.5 1.5v2c0 .828-.672 1.5-1.5 1.5z"/><path fill="#FFAC33" d="M29 31.5c-.828 0-1.5-.672-1.5-1.5v-2c0-.828.672-1.5 1.5-1.5s1.5.672 1.5 1.5v2c0 .828-.672 1.5-1.5 1.5z"/><path fill="#BF6952" d="M35 33H1c-.552 0-1 .448-1 1v1c0 .552.448 1 1 1h34c.552 0 1-.448 1-1v-1c0-.552-.448-1-1-1z"/></svg>