<svg xmlns="http://www.w3.org/2000/svg" viewBox="0 0 36 36"><path fill="#C1694F" d="M19.175 16.825c-.706-.706-.706-1.861 0-2.567L32.433 1C33.139.294 34.294.294 35 1c.706.706.706 1.861 0 2.567L21.742 16.825c-.706.706-1.861.706-2.567 0z"/><path fill="#66757F" d="M8.839 27.365l-.204-.204c-.941-.941-.941-2.48 0-3.42l8.35-8.35c.941-.941 2.48-.941 3.42 0l.204.204c.941.941.941 2.48 0 3.42l-8.35 8.35c-.94.941-2.48.941-3.42 0z"/><path fill="#FFCC4D" d="M19.389 26.341c1.688-1.688.671-5.441-1.809-7.921s-6.233-3.497-7.921-1.809L0 26.16 9.84 36l9.549-9.659z"/><path fill="#FFAC33" d="M2.02 28.18l8.66-8.658.58.58L2.6 28.76zm1.74 1.74l8.66-8.659.58.58-8.66 8.66zm1.74 1.74L14.158 23l.58.58-8.66 8.66zm1.74 1.74l8.659-8.66.58.58-8.66 8.659z"/><path fill="#55ACEE" d="M9.875 16.43c-.073.059-.149.114-.216.181L7.46 18.779l9.761 9.761 2.167-2.199c.067-.067.123-.143.181-.216L9.875 16.43z"/><path fill="#269" d="M8.882 18.221l.235-.568 9.225 9.224-.572.232z"/></svg>