<svg xmlns="http://www.w3.org/2000/svg" viewBox="0 0 36 36"><path fill="#292F33" d="M22 2h-8c-.55 0-1-.45-1-1s.45-1 1-1h8c.55 0 1 .45 1 1s-.45 1-1 1z"/><path fill="#292F33" d="M13 1h2v2h-2zm8 0h2v2h-2z"/><path fill="#CCD6DD" d="M13 3h2v6h-2zm8 0h2v6h-2z"/><path fill="#292F33" d="M7 25c-.55 0-1-.45-1-1v-6c0-.55.45-1 1-1s1 .45 1 1v6c0 .55-.45 1-1 1zm3 9.2H9c-.55 0-1-.45-1-1v-1c0-.55.45-1 1-1h1c.55 0 1 .45 1 1v1c0 .55-.45 1-1 1zm17 0h-1c-.55 0-1-.45-1-1v-1c0-.55.45-1 1-1h1c.55 0 1 .45 1 1v1c0 .55-.45 1-1 1z"/><path fill="#4289C1" d="M27 33H9c-1.1 0-2-.9-2-2V10c0-1.1.9-2 2-2h18c1.1 0 2 .9 2 2v21c0 1.1-.9 2-2 2z"/><path fill="#5DADEC" d="M26 18H10c-.55 0-1-.45-1-1v-6c0-.55.45-1 1-1h16c.55 0 1 .45 1 1v6c0 .55-.45 1-1 1zm0 13H10c-.55 0-1-.45-1-1V20c0-.55.45-1 1-1h16c.55 0 1 .45 1 1v10c0 .55-.45 1-1 1z"/><circle fill="#292F33" cx="9" cy="35" r="1"/><circle fill="#292F33" cx="27" cy="35" r="1"/><path fill="#2A6797" d="M25.5 12h-15c-.275 0-.5-.225-.5-.5s.225-.5.5-.5h15c.275 0 .5.225.5.5s-.225.5-.5.5zm0 9h-15c-.275 0-.5-.225-.5-.5s.225-.5.5-.5h15c.275 0 .5.225.5.5s-.225.5-.5.5z"/><path fill="#F5F8FA" d="M11.5 12h-1c-.275 0-.5-.225-.5-.5s.225-.5.5-.5h1c.275 0 .5.225.5.5s-.225.5-.5.5zm0 9h-1c-.275 0-.5-.225-.5-.5s.225-.5.5-.5h1c.275 0 .5.225.5.5s-.225.5-.5.5z"/></svg>