<svg xmlns="http://www.w3.org/2000/svg" viewBox="0 0 36 36"><path fill="#CCD6DD" d="M19.469 8.319l-3.854-4.671c-.355-.43-.991-.491-1.421-.136l-3.376 2.785 5.138 6.228 3.376-2.785c.431-.355.492-.991.137-1.421z"/><path fill="#BE1931" d="M29.543 25.021l-6.228-5.138s-2.395 3.132-5.006 6.152c-1.986 2.298-6.093 2.215-8.406-.098s-2.395-6.42-.098-8.406c3.02-2.611 6.152-5.006 6.152-5.006l-5.138-6.228s-5.122 3.928-6.613 5.43c-5.468 5.508-5.487 14.418.001 19.906s14.398 5.468 19.906.001c1.502-1.491 5.43-6.613 5.43-6.613z"/><path fill="#CCD6DD" d="M27.521 16.371l4.671 3.854c.43.355.491.991.136 1.421l-2.785 3.376-6.228-5.138 2.785-3.376c.355-.431.992-.492 1.421-.137z"/><path fill="#FFAC33" d="M23.717 4.223L21.96 2.43 23.896.535c.006-.006.004-.015.009-.021.016-.019.021-.039.027-.063.007-.024.013-.044.01-.068-.001-.008.005-.015.004-.023-.004-.017-.02-.024-.028-.038-.008-.016-.005-.035-.018-.048-.006-.006-.015-.004-.022-.009-.02-.016-.042-.021-.067-.028-.022-.006-.041-.012-.063-.01-.008.001-.016-.006-.024-.004L18.588 1.48c-.064.016-.115.065-.134.129-.018.064 0 .133.046.18l1.757 1.794-1.935 1.896c-.006.006-.004.015-.009.021-.016.019-.021.04-.028.064-.007.024-.013.043-.01.067.001.008-.006.015-.004.024.006.025.023.043.038.062.005.007.003.016.009.023l.011.011c.042.036.095.044.147.036.007-.001.011.006.018.004l5.134-1.257c.064-.016.115-.065.134-.129.018-.066 0-.135-.045-.182zm-2.155-1.661l.005-.005-.005.005zm14.266 12.543l-2.055-1.443 1.557-2.217c.005-.007.001-.015.005-.022.012-.022.013-.042.015-.067s.005-.045-.002-.069c-.002-.008.003-.015-.001-.023-.007-.016-.024-.02-.034-.033-.011-.014-.012-.032-.027-.043-.007-.005-.016-.001-.023-.005-.023-.012-.045-.013-.071-.015-.023-.002-.043-.004-.064.002-.008.002-.016-.003-.024.001l-4.819 2.173c-.06.027-.101.085-.108.151-.006.066.025.131.078.169l2.055 1.443-1.556 2.217c-.005.007-.001.015-.005.022-.012.022-.013.043-.015.068-.002.024-.005.045.002.068.002.008-.003.016.001.024.011.023.031.038.049.054.006.006.006.015.013.02l.013.008c.048.028.102.026.151.008.006-.002.012.004.018.001l4.818-2.174c.06-.027.101-.085.108-.151.004-.064-.026-.129-.079-.167zm-2.422-1.24l.004-.006-.004.006z"/></svg>