<svg xmlns="http://www.w3.org/2000/svg" viewBox="0 0 36 36"><path fill="#662113" d="M15.477 21.039c-.682-.464-.034-.839.429-1.522L27.439.756c.464-.682 1.401-.862 2.084-.398.682.464.862 1.401.398 2.084L16.734 20.079c-.464.683-.574 1.424-1.257.96zm1.622-.041c-.554-.611.164-.824.775-1.378l15.62-15.524c.611-.554 1.564-.508 2.119.103.554.611.508 1.564-.103 2.119L18.545 20.36c-.611.555-.892 1.249-1.446.638z"/><path fill="#269" d="M16 32h18c1.1 0 2 .9 2 2s-.9 2-2 2H16c-1.1 0-2-.9-2-2s.9-2 2-2z"/><circle fill="#269" cx="16" cy="20" r="16"/><path fill="#55ACEE" d="M9.837 29.689c-2.814 0-4.662-.339-4.799-.365-.542-.103-.898-.625-.796-1.167.102-.543.625-.9 1.167-.798.058.012 5.858 1.062 12.58-.7 6.713-1.76 10.652-5.476 10.691-5.513.397-.382 1.031-.369 1.414.031.382.399.368 1.032-.031 1.414-.175.167-4.357 4.111-11.566 6.003-3.272.857-6.305 1.095-8.66 1.095z"/><path fill="#55ACEE" d="M8.135 26.209c-3.432 0-5.944-.38-6.127-.408-.546-.085-.919-.596-.834-1.142.084-.545.593-.916 1.141-.835.076.012 7.693 1.158 14.444-.613 6.723-1.762 12.347-6.895 12.403-6.946.407-.374 1.039-.348 1.413.058.374.406.349 1.039-.058 1.413-.243.225-6.051 5.523-13.251 7.411-3.155.827-6.428 1.062-9.131 1.062z"/><path fill="#55ACEE" d="M7.196 22.221c-3.104 0-5.268-.348-5.429-.374-.544-.09-.913-.604-.823-1.148.089-.545.599-.923 1.149-.824.067.011 6.863 1.093 13.603-.675 6.713-1.76 11.664-6.443 11.712-6.49.397-.381 1.032-.369 1.414.031.382.399.368 1.032-.031 1.414-.216.207-5.379 5.091-12.588 6.981-3.241.847-6.444 1.085-9.007 1.085z"/><path fill="#55ACEE" d="M7.443 18.566c-.479 0-.903-.346-.985-.834C5.276 10.701 7.91 7.346 8.022 7.207c.348-.429.978-.496 1.407-.149.427.346.495.971.154 1.4-.043.056-2.167 2.906-1.153 8.942.091.544-.276 1.06-.821 1.152-.055.01-.111.014-.166.014zm4.229-.242c-.501 0-.934-.377-.992-.887-.93-8.204 1.53-11.674 1.636-11.818.327-.446.951-.543 1.397-.216.443.324.541.945.222 1.39-.04.057-2.095 3.121-1.268 10.417.062.549-.332 1.044-.881 1.106-.038.006-.077.008-.114.008zm4.388-1.114c-.497 0-.928-.371-.991-.876-.841-6.771 1.093-10.446 1.176-10.599.264-.485.87-.666 1.355-.404.484.262.666.867.406 1.352-.035.068-1.704 3.358-.953 9.405.068.548-.321 1.048-.869 1.116-.041.004-.082.006-.124.006zm4.647-2.194c-.486 0-.912-.354-.987-.849-.762-4.989.236-7.384.279-7.483.217-.508.809-.742 1.313-.523.505.217.739.8.526 1.306-.021.054-.8 2.091-.143 6.398.084.546-.291 1.056-.837 1.14-.05.008-.101.011-.151.011zM13.122 34.5c-.125 0-.252-.023-.375-.073-1.233-.5-2.367-1.622-2.492-1.748-.389-.392-.386-1.023.005-1.413.391-.389 1.024-.387 1.414.004.263.264 1.102 1.011 1.825 1.304.512.208.758.791.551 1.303-.158.388-.533.623-.928.623zm5.703.156c-.175 0-.353-.046-.514-.143-1.365-.82-3.07-2.493-3.142-2.563-.394-.388-.398-1.021-.011-1.414.388-.395 1.021-.398 1.415-.012.016.016 1.608 1.577 2.768 2.274.474.285.627.899.343 1.372-.188.313-.519.486-.859.486zm4.33-1.681c-.16 0-.322-.038-.474-.12-1.143-.615-2.365-1.93-2.501-2.078-.374-.406-.347-1.038.06-1.412.407-.371 1.038-.346 1.413.06.307.334 1.26 1.284 1.978 1.671.486.262.668.868.405 1.354-.181.334-.524.525-.881.525zm3.445-2.792c-.153 0-.309-.035-.454-.109-.604-.309-1.288-.842-1.364-.901-.434-.341-.509-.97-.168-1.403.341-.433.97-.51 1.403-.169.165.129.674.506 1.039.692.492.251.687.854.436 1.346-.178.344-.528.544-.892.544zM3.207 18.736c-.492 0-.921-.364-.989-.866-.357-2.632.344-5.129.902-6.166.262-.486.869-.667 1.355-.406.486.262.667.869.406 1.355-.353.654-.983 2.724-.681 4.948.074.547-.309 1.051-.856 1.125-.047.007-.092.01-.137.01zm21.632-5.557c-.471 0-.891-.334-.981-.813-.279-1.47-.112-3.148.197-4.047.179-.522.746-.802 1.271-.621.522.18.8.749.62 1.271-.187.542-.348 1.839-.123 3.023.103.542-.253 1.066-.796 1.169-.064.013-.127.018-.188.018z"/></svg>