<svg xmlns="http://www.w3.org/2000/svg" viewBox="0 0 36 36"><path fill="#2976AA" d="M36 17.96V10l-8.296-2H8.348L.052 10v7.96C.052 21.426 12.376 32 14.835 32h6.382C23.4 32 36 21.715 36 17.96z"/><g fill="#5DADEC"><path d="M4.617 18.577l-1.892-.647C4 14.201 4 10.904 4 9.32h2c0 1.692 0 5.213-1.383 9.257zm26.818.152C30 14.622 30 11.041 30 9.32h2c0 1.611 0 4.963 1.323 8.75l-1.888.659z"/><path d="M36 10H.052V8.199c0-.735.596-1.331 1.331-1.331h33.286c.735 0 1.331.596 1.331 1.331V10z"/></g><path d="M3.702 18.154l-.03.099c.011-.033.018-.065.03-.099-1.464-.547-2.75-.865-3.649-1.019v.825C.052 21.426 12.409 32 14.854 32h.934c-1.155-8.143-7.473-12.122-12.086-13.846zM36 17.96v-.747c-.897.147-2.196.459-3.677 1.005.021.061.035.12.057.181-.021-.061-.036-.12-.057-.181-4.6 1.696-10.905 5.635-12.059 13.782h.934C23.369 32 36 21.715 36 17.96z" fill="#1D567C"/></svg>