<svg xmlns="http://www.w3.org/2000/svg" viewBox="0 0 36 36" xml:space="preserve"><path fill="#88C9F9" d="M33 31c0 1.103-.897 2-2 2H5c-1.103 0-2-.897-2-2V5c0-1.103.897-2 2-2h26c1.103 0 2 .897 2 2v26z"/><path fill="#1C6399" d="M5 4c-.551 0-1 .449-1 1v26c0 .551.449 1 1 1h26c.551 0 1-.449 1-1V5c0-.551-.449-1-1-1H5z"/><path fill="#50A5E6" d="M30.562 15.127c-.944-1.292-8.539 2.967-8.613 3.014-.715.445-1.282.591-1.682.622.536-.76 1.513-1.98 2.791-2.869 6.217-4.319 5.939-4.93 5.735-5.376a.7.7 0 0 0-.486-.387c-1.081-.245-4.839 2.221-5.89 3.085-1.187.975-3.103 2.391-3.874 2.957-.877-.885.321-2.108 1.268-3.458 3.616-5.156 4.267-6.488 3.484-7.124a.797.797 0 0 0-.596-.161c-1.413.177-5.446 5.792-6.488 7.196-.887 1.192-2.942 3.345-3.659 2.048-.207-.375-.31-1.06.022-1.855.59-1.415.628-4.899-.859-5.226-1.723-.375-1.466 3.027-3.329 6.409-.631 1.145-1.227 2.227-1.186 4.864.057 3.657.096 4.554-3.2 8.797V31c0 .551.449 1 1 1h6.952c.661-1.208 1.208-2.184 1.36-2.401.359-.512 1.928-1.661 2.963-1.98 1.223-.377 3.453-1.846 4.043-2.666.517-.716 5.397-.748 7.61-3.038.289-.298.89-.92.495-1.473-.176-.249-.507-.71-2.961.44-1.203.563-3.721.927-4.637.8.751-.615 3.056-1.518 3.96-1.87 1.205-.469 3.617-1.706 4.509-2.501.675-.602 1.366-.833 1.467-1.456.041-.246-.026-.491-.199-.728z"/><path fill="#FFF" d="M11.327 26.382a.59.59 0 0 0-.405-.702c-.191-.057-.377-.139-.495-.256a1.436 1.436 0 1 1 2.155-1.885c.179.25.413.449.688.586.106.053.205.122.294.211a1.239 1.239 0 0 1 0 1.75.781.781 0 0 0-.235.548.984.984 0 0 1-.287.687 1.005 1.005 0 0 1-1.421.002c-.327-.328-.359-.667-.294-.941zm-1.659-.147a.73.73 0 1 0 1.034 1.031.73.73 0 0 0-1.034-1.031zm5.456-1.931c.528-.634 1.148-1.161 1.807-1.645.728-.589 1.599-.952 2.363-1.472.605-.741-.519-1.663-1.128-.929-1.088 1.217-2.383 2.26-3.865 2.958-.481.19-.582.881-.166 1.197a.704.704 0 0 0 .989-.109zm-4.46-1.518a.568.568 0 0 0-.001-.804c-.566-.564-1.444-.5-1.54-.489-.311.03-.538.304-.51.615s.308.535.614.517c.143-.011.484.013.634.162a.565.565 0 0 0 .803-.001zm12.88.359a.429.429 0 1 0-.166-.837c-.744.241-1.516.342-2.294.407a5.167 5.167 0 0 1-.635.058c.121.219.201.464.221.73.008.116.004.23-.009.342.936-.331 1.892-.597 2.883-.7zm-9.734-.131c.687-.849 1.489-1.573 2.29-2.299.825-.7 1.649-1.4 2.57-1.995.496-.309.53-1.065.056-1.414a.864.864 0 0 0-1.213.161c-1.372 1.691-2.906 3.222-4.667 4.503a.718.718 0 1 0 .964 1.044zm11.278-4.897a.877.877 0 0 1 .031.493l2.269-1.434c.286-.169.059-.634-.252-.509l-2.55.949c.22.088.408.26.502.501zm.807 4.175c.279-.136.136-.594-.176-.541-.082.02-1.122.143-1.588.23.2.121.353.318.41.564a.88.88 0 0 1-.039.486l1.393-.739zm-17.148 6.98c.515-.284 1.255-1.352.664-1.558 0 0-.239-.083-.76-.603-.745-.743-.87-1.58-.87-1.58-.27-1.806-1.722 2.406-3.781 3.63V31c0 .551.449 1 1 1h1.626c.22-.335.424-1.793 2.121-2.728zm1.474-9.259c-.147-.837-.033-1.748.164-2.568.057-.588.563-1.133.283-1.74a1.036 1.036 0 0 0-1.9.824c.115.266.162.526.192.784.068.782-.017 1.584-.479 2.255-.942 1.578 1.809 2.285 1.74.445zm16.591-7.951 1.022-1.035c.115-.109-.029-.307-.169-.228l-1.307.686a.66.66 0 0 1 .364.277.634.634 0 0 1 .09.3zm.45 9.069-1.063.264a.656.656 0 0 1 .294.336.647.647 0 0 1 .033.297l.858-.641c.125-.086.027-.298-.122-.256zm-3.497-3.148c-.854.494-1.791.816-2.746 1.083-.434.133-.873.253-1.314.364a1.774 1.774 0 0 1 .666 1.551c1.216-.785 2.465-1.497 3.845-1.95.799-.258.283-1.448-.451-1.048zM8.621 25.716a.567.567 0 1 0 .987-.563c-.338-.594-.128-1.168-.022-1.388a.568.568 0 1 0-1.024-.494c-.389.806-.368 1.697.059 2.445zm1.716-14.058c-.141 1.009-.673 1.886-1.251 2.729a1.684 1.684 0 0 1 1.259.021c.256.108.466.276.633.475-.02-.996.023-1.997.447-2.895.393-.831-.956-1.237-1.088-.33zm.751-2.765c-.065.645-.262 1.256-.51 1.851.171-.048.35-.07.535-.032.143.03.272.09.387.166.057-.617.161-1.228.366-1.815.228-.59-.739-.8-.778-.17zm4.545 17.14c1.039-.85 2.252-1.504 3.577-1.764.588-.069.857-.857.42-1.268a.748.748 0 0 0-1.058-.002c-.496.471-1.064.822-1.669 1.119-.693.408-1.509.514-2.216.863-.686.622.257 1.667.946 1.052zm-.468-10.925c-1.13 2.07-2.45 4.012-4.039 5.753-.714.8.602 1.759 1.146.84 1.201-2.142 2.801-3.985 4.43-5.805a.864.864 0 1 0-1.537-.788zm13.9.76-1.415.42a.656.656 0 0 1 .303.343.656.656 0 0 1 .03.312l1.203-.818c.135-.085.031-.307-.121-.257zM11.841 29.515a.857.857 0 1 0-1.416-.95A38.098 38.098 0 0 1 8.279 32h1.736c.576-.85 1.164-1.693 1.826-2.485zm14.086-17.586-2.362 1.352a.894.894 0 0 1 .578.413c.09.151.115.317.111.481l2.005-1.785c.254-.214-.046-.635-.332-.461zm-7.164-1.192c-.47.824-1.093 1.539-1.76 2.219a7.76 7.76 0 0 1-.884.893 1.768 1.768 0 0 1 1.341.999c.615-1.226 1.299-2.41 2.216-3.432.567-.625-.481-1.398-.913-.679zm3.99 3.153c-.765.718-1.649 1.287-2.563 1.809a29.8 29.8 0 0 1-1.361.773 1.773 1.773 0 0 1 1.029 1.374c1.094-1.135 2.24-2.207 3.579-3.045.707-.439-.068-1.465-.684-.911zm-1.552-6.001-1.865 1.982a.893.893 0 0 1 .674.227c.13.118.202.27.246.428l1.397-2.292c.181-.279-.229-.595-.452-.345zm1.198-1.42-.934.858a.656.656 0 0 1 .421.165c.08.073.132.162.168.257l.571-1.107c.076-.136-.113-.283-.226-.173z"/></svg>