<svg xmlns="http://www.w3.org/2000/svg" viewBox="0 0 36 36"><path fill="#88C9F9" d="M19.5 1.299c7.253 1.456 8.185 11.081 5.258 18.46-2.516 6.344-3.042 14.215-7.231 14.965-5.506.985-8.05-3.674-6.279-11.312 1.176-5.07.265-9.632.279-14.707.014-4.797 3.261-8.352 7.973-7.406z"/><path fill="#269" d="M19.254 5.332c1.672.283.518 3.836.4 4.987-.118 1.151-1.769 1.107-1.667-.597s-.753-4.732 1.267-4.39z"/><path fill="#3B88C3" d="M19.254 5.332c1.672.283.065 3.213-.052 4.364-.118 1.151-.622 1.57-.716-.134-.09-1.611-1.252-4.572.768-4.23z"/><path fill="#269" d="M18.823 8.394c3.583.695 5.602 3.551 6.128 7.201.506 3.505-2.122 7.645-2.775 7.614-1.375-.066 2.149-4.571-.039-8.286-1.603-2.723-2.518-2.064-3.531-3.707-1.189 1.147-2.703.279-4.272 2.386-2.417 3.248.444 7.011-.57 7.367-.777.273-3.091-5.844-1.337-9.337 1.685-3.356 6.396-3.238 6.396-3.238z"/><path fill="#3B88C3" d="M18.823 8.394c3.583.695 5.602 3.551 6.128 7.201.506 3.505-2.008 7.464-2.661 7.44-1.209-.045 2.238-4.432.358-8.236-1.4-2.833-3.357-2.417-3.984-4.208-1.253 1.611-3.402.269-4.834 2.82-1.982 3.53.537 7.073-.179 7.386-.754.33-2.979-5.671-1.224-9.165 1.685-3.356 6.396-3.238 6.396-3.238z"/></svg>