<svg xmlns="http://www.w3.org/2000/svg" viewBox="0 0 36 36"><path fill="#31373D" d="M28.977 16.492l.011-.006c-1.466.66-3.102.795-4.676.372-1.626-.436-3.006-1.423-3.947-2.796.019.028.034.058.054.086L19 14l-.213 1.302c1.019 1.443 2.426 2.535 4.069 3.174l-.084.311c-.408 1.521-.275 3.296-.134 5.176.184 2.45.375 4.984-.665 6.933-.978 1.829-2.921 2.919-5.205 2.919h-.032c-2.129-.01-4.063-.98-4.813-2.415-.538-1.03-.597-2.431-.66-3.912-.101-2.393-.214-5.104-2.268-7.443l-3.949-4.501-1.503 1.319 3.949 4.5c1.588 1.811 1.682 4.046 1.773 6.209.069 1.636.14 3.328.885 4.754 1.101 2.106 3.682 3.476 6.577 3.489h.042c3.035 0 5.638-1.484 6.968-3.977 1.314-2.461 1.092-5.417.895-8.025-.128-1.704-.249-3.315.071-4.506l.085-.318c.451.069.902.113 1.352.113 1.252-.001 2.487-.277 3.644-.795L30 17l-1.023-.508z"/><path fill="#99AAB5" d="M1.258 18.867c-1.457-1.66-1.292-4.188.368-5.645 1.66-1.457 4.188-1.292 5.645.368 1.457 1.661 1.292 4.188-.368 5.645-1.66 1.457-4.188 1.293-5.645-.368z"/><path fill="#31373D" d="M2.762 17.548c-.729-.83-.646-2.094.184-2.822.83-.729 2.094-.646 2.822.184.729.83.646 2.094-.184 2.822-.83.729-2.094.646-2.822-.184z"/><path fill="#99AAB5" d="M29.791 18.318l-.814-1.826c1.936-.865 3.362-2.534 3.911-4.579l.778-2.897c.286-1.065-.348-2.164-1.413-2.451l.52-1.932c2.13.573 3.397 2.771 2.825 4.901l-.778 2.897c-.707 2.63-2.54 4.775-5.029 5.887zm-11.006-3.014c-1.555-2.197-2.047-4.946-1.35-7.542l.778-2.897c.572-2.131 2.771-3.398 4.9-2.826l-.519 1.932c-1.067-.286-2.164.348-2.45 1.413l-.778 2.898c-.543 2.019-.16 4.158 1.051 5.867l-1.632 1.155z"/><path fill="#31373D" d="M22.56 6.032c-.8-.215-1.274-1.038-1.059-1.838l.778-2.897c.215-.8 1.038-1.274 1.838-1.059.8.215 1.274 1.038 1.059 1.838l-.778 2.897c-.215.8-1.038 1.274-1.838 1.059zm8.692 2.335c-.8-.215-1.274-1.038-1.059-1.838l.778-2.897c.215-.8 1.038-1.274 1.838-1.059.8.215 1.274 1.038 1.06 1.838l-.778 2.897c-.216.8-1.039 1.274-1.839 1.059z"/></svg>