<svg xmlns="http://www.w3.org/2000/svg" viewBox="0 0 36 36"><path fill="#292F33" d="M3.651 29.852L29.926 3.576c.391-.391 2.888 2.107 2.497 2.497L6.148 32.349c-.39.391-2.888-2.107-2.497-2.497z"/><path fill="#66757F" d="M30.442 4.051L4.146 30.347l.883.883L31.325 4.934z"/><path fill="#E1E8ED" d="M34.546 2.537l-.412-.412-.671-.671c-.075-.075-.165-.123-.255-.169-.376-.194-.844-.146-1.159.169l-2.102 2.102.495.495.883.883 1.119 1.119 2.102-2.102c.391-.391.391-1.024 0-1.414zM5.029 31.23l-.883-.883-.495-.495-2.209 2.208c-.315.315-.363.783-.169 1.159.046.09.094.18.169.255l.671.671.412.412c.391.391 1.024.391 1.414 0l2.208-2.208-1.118-1.119z"/><path fill="#F5F8FA" d="M31.325 4.934l2.809-2.809-.671-.671c-.075-.075-.165-.123-.255-.169l-2.767 2.767.884.882zM4.146 30.347L1.273 33.22c.046.09.094.18.169.255l.671.671 2.916-2.916-.883-.883z"/><path d="M28.897 14.913l1.542-.571.6-2.2c.079-.29.343-.491.644-.491.3 0 .564.201.643.491l.6 2.2 1.542.571c.262.096.435.346.435.625s-.173.529-.435.625l-1.534.568-.605 2.415c-.074.296-.341.505-.646.505-.306 0-.573-.209-.647-.505l-.605-2.415-1.534-.568c-.262-.096-.435-.346-.435-.625 0-.278.173-.528.435-.625M11.961 5.285l2.61-.966.966-2.61c.16-.433.573-.72 1.035-.72.461 0 .874.287 1.035.72l.966 2.61 2.609.966c.434.161.721.573.721 1.035 0 .462-.287.874-.721 1.035l-2.609.966-.966 2.61c-.161.433-.574.72-1.035.72-.462 0-.875-.287-1.035-.72l-.966-2.61-2.61-.966c-.433-.161-.72-.573-.72-1.035.001-.462.288-.874.72-1.035M24.13 20.772l1.383-.512.512-1.382c.085-.229.304-.381.548-.381.244 0 .463.152.548.381l.512 1.382 1.382.512c.23.085.382.304.382.548 0 .245-.152.463-.382.548l-1.382.512-.512 1.382c-.085.229-.304.381-.548.381-.245 0-.463-.152-.548-.381l-.512-1.382-1.383-.512c-.229-.085-.381-.304-.381-.548 0-.245.152-.463.381-.548" fill="#FFAC33"/></svg>