<svg xmlns="http://www.w3.org/2000/svg" viewBox="0 0 36 36"><path fill="#BE1931" d="M7 23s1.5 9.5 2.5 10.5S15 35 18 35s7.5-.5 8.5-1.5S29 23 29 23H7z"/><path fill="#F5F8FA" d="M25.512 20.158c-1.502-5.263-13.521-5.263-15.024 0S11.99 32 18 32s9.014-6.579 7.512-11.842z"/><path fill="#292F33" d="M24.579 20.158c-1.316-5.263-11.842-5.263-13.158 0S12.737 30.684 18 30.684s7.895-5.263 6.579-10.526z"/><path fill="#77B255" d="M21.766 24.057c-.878-.306-2.789-.147-3.417.458v-4.048c0-.19-.154-.344-.344-.344-.19 0-.344.154-.344.344v4.048c-.628-.605-2.539-.764-3.417-.458-.255.089 1.81 3.008 3.269 1.55.058-.058.105-.113.148-.169v1.218c0 .19.154.344.344.344.19 0 .344-.154.344-.344v-1.218c.043.055.09.111.148.169 1.459 1.458 3.524-1.461 3.269-1.55z"/><ellipse fill="#EA596E" cx="18" cy="23" rx="11" ry="2"/><ellipse fill="#662113" cx="18" cy="23" rx="10.2" ry="1.5"/><path fill="#DD2E44" d="M9.614 23.853c1.842.391 4.909.647 8.386.647s6.544-.256 8.386-.647c.06-.75.096-1.449.096-2.046 0-4.453-3.635-6.633-3.635-9.904 0-1.09 1.212-3.271 1.212-5.451C24.058 4.271 21.635 1 18 1s-6.058 3.271-6.058 5.451c0 2.181 1.212 4.361 1.212 5.451 0 3.271-3.635 5.451-3.635 9.904-.001.598.035 1.297.095 2.047z"/><path fill="#F5F8FA" d="M18 24.5c1.733 0 3.36-.064 4.787-.177 1.16-1.791 1.53-4.195.922-6.323-1.142-4-3.425-5-1.142-9h-9.134c2.284 4 0 5-1.142 9-.607 2.128-.237 4.533.922 6.323 1.427.113 3.054.177 4.787.177z"/><path fill="#292F33" d="M18 24.5c1.312 0 2.562-.037 3.712-.104C23.101 22.863 23.609 20.434 23 18c-1-4-3-4-1-8h-8c2 4 0 4-1 8-.609 2.434-.101 4.863 1.288 6.396 1.15.067 2.4.104 3.712.104z"/><path fill="#F5F8FA" d="M22.721 5.421C22.057 3.438 20.206 2 18 2s-4.057 1.438-4.721 3.421c1.098-1.168 8.344-1.168 9.442 0z"/><path fill="#FFD983" d="M22.721 5.421C22.312 4.986 18 3.711 18 3.711s-4.312 1.276-4.721 1.711C13.112 5.92 13 6.445 13 7c0 2.761 2.239 5 5 5s5-2.239 5-5c0-.555-.112-1.08-.279-1.579z"/><path fill="#F4900C" d="M22.721 5.421c-2.41-2.555-7.032-2.555-9.442 0-.166.495-.276 1.015-.278 1.564C15.533 6.835 18 4 18 4s2.467 2.835 4.999 2.986c-.002-.55-.112-1.07-.278-1.565z"/><path fill="#662113" d="M16.5 8c-.275 0-.5-.225-.5-.5v-1c0-.275.225-.5.5-.5s.5.225.5.5v1c0 .275-.225.5-.5.5zm3 0c-.275 0-.5-.225-.5-.5v-1c0-.275.225-.5.5-.5s.5.225.5.5v1c0 .275-.225.5-.5.5z"/><path fill="#DD2E44" d="M18 10.499c-.771 0-1.525-.258-1.557-.269-.196-.068-.299-.281-.232-.477.067-.195.281-.301.477-.232.007.002.67.228 1.312.228.646 0 1.305-.225 1.311-.228.196-.067.41.036.478.232.067.196-.036.409-.231.477-.034.011-.787.269-1.558.269z"/><path fill="#77B255" d="M20.547 21.347c-.593-.207-1.885-.1-2.309.309V18.92c0-.128-.104-.232-.232-.232s-.232.104-.232.232v2.736c-.424-.409-1.716-.516-2.309-.309-.172.06 1.223 2.033 2.209 1.047.039-.039.071-.077.1-.114v.823c0 .128.104.232.232.232s.232-.104.232-.232v-.823c.029.037.061.075.1.114.986.986 2.382-.987 2.209-1.047z"/><path fill="#CCD6DD" d="M16.742 20.931c-.144-.062-.257-.194-.32-.351l-.294-.768-.757-.324c-.311-.133-.436-.447-.303-.757l.317-.739-.317-.759c-.126-.314.035-.666.349-.792l.76-.298.337-.786c.133-.311.446-.436.757-.303l.757.324.759-.317c.157-.063.328-.064.472-.002.144.062.259.19.322.347l.296.764.769.329c.31.133.436.446.303.757l-.337.786.317.759c.126.314-.035.666-.349.792l-.76.298-.317.74c-.133.31-.447.436-.757.303l-.769-.329-.759.317c-.158.061-.332.07-.476.009z"/><path fill="#E1E8ED" d="M20.644 16.498l-.769-.329-.013-.033c-.364.311-1.212 1.012-1.212 1.012l.002.028c-.178-.142-.401-.23-.647-.23v-1.578l-.736-.315c-.311-.133-.624-.007-.757.303l-.337.786-.014.006 1.104 1.105c-.189.189-.306.451-.306.739h-1.576l-.316.739c-.133.311-.007.624.303.757l.757.324.001.001 1.045-1.195c.191.253.491.419.833.419h.001l.003 1.58.735.315c.31.133.624.007.757-.303l.317-.739-1.206-1.05c.265-.19.439-.498.439-.849 0-.017-.004-.032-.005-.048.419.042 1.15.11 1.585.149l-.021-.051.337-.786c.132-.311.007-.624-.304-.757z"/><circle fill="#F4900C" cx="18.006" cy="17.991" r="1.162"/></svg>