<svg xmlns="http://www.w3.org/2000/svg" viewBox="0 0 36 36"><path fill="#77B255" d="M8.083 26.837c-.842-.177-1.12.053-1.12.053s-.012.456-.343.644c-.33.188-1.008.522-1.026.965-.018.443-.248 1.233-.353 1.712-.105.479-.561 1.3-.561 1.3l.694.191.083.642-.496.806.555.346s.19.694.633.652.869-.608.869-.608l.442.684 1.034-.097s-.233-.675-.103-.73.678-.334.678-.334l-.017-3.925-.969-2.301z"/><path fill="#E954D2" d="M7.619 26.928l-.536.612.531 2.049-.259 1.874.25 1.079.752-.341.732 1.432s.856-.337.83-.398c-.026-.062-.827-1.416-.827-1.416l.548-.642-1.071-1.023.648-.829-1.08-1.165-.518-1.232z"/><path fill="#3B88C3" d="M7.083 27.54l.703.211.106 1.527-.262 1.682.301 1.928-.346 1.669s-.855-.026-.838-.106c.017-.08.419-1.434.419-1.434l-.128-1.759.045-3.718z"/><path fill="#FFCC4D" d="M7.44 27.414l-.417-.26-.705.999.19.693-.466 1.261.011 1.18-.445 1.614.311.618.665.058-.216-1.118.427-1.05-.163-1.116.875-1.505-.277-.778z"/><path fill="#9266CC" d="M21.658 28.8c-.787-.12-1.032.107-1.032.107s.012.422-.284.613c-.296.19-.905.534-.899.944.006.41-.127.755-.2 1.204-.072.448-.325.988-.325.988l.651.141-.728.861.254 1.135-.106 1.137s1.138.116 1.322-.252l.431-.861 1.366.074.301.624s.947-.403 1.065-.461-.52-3.134-.52-3.134l-.208-2.124-1.088-.996z"/><path fill="#EA596E" d="M21.233 28.908l-.463.593.595 1.866-.143 1.745.286.984.765.155.662.777s.598-1.123.571-1.178-.661-.498-.661-.498l-.066-.987-.502-.525.557-.799-.768-1.379-.833-.754z"/><path fill="#55ACEE" d="M21.471 29.528l-.609-.03-.193 1.426.478 1.709-.377 1.766.234 1.559s.806-.906.794-.98c-.012-.075-.342-1.262-.342-1.262l.505-2.629-.49-1.559z"/><path fill="#FFCC4D" d="M21.004 29.337l-.398-.219-.382.974-.594.698.22 1.106.071 1.089-.329 1.514.364 1.355.461-.935-.145-.866.605-1.08-.472-.935-.092-1.233.528-.907z"/><path fill="#55ACEE" d="M3.371 12.819c.787-.12 1.032.107 1.032.107s-.012.422.284.613c.296.19.905.534.899.944-.006.41.417.804.2 1.204-.057.104.329.654.329.654l-.386.594.55 1.5-.564.342.324 1.173s-.915-.317-1.322-.252c-.19.03-.606.149-.606.149l-1.191-.936-.301.624s-.947-.403-1.065-.461c-.069-.034.189-1.037.344-1.811.015-.074-.163-1.025-.163-1.025l.564-.52-.089-1.619.52-.297.641-.983z"/><path fill="#EA596E" d="M3.796 12.927l.463.593-.595 1.866.143 1.745-.287.984-.764.155-.662.777s-.598-1.123-.571-1.178c.027-.056.661-.498.661-.498l.066-.987.502-.525-.556-.799.768-1.379.832-.754z"/><path fill="#F4900C" d="M3.558 13.547l.609-.03.193 1.426-.478 1.71.377 1.766-.234 1.559s-.806-.906-.794-.98c.012-.075.342-1.262.342-1.262l-.505-2.629.49-1.56z"/><path fill="#3B88C3" d="M4.025 13.356l.398-.218.382.973.594.698-.22 1.106-.071 1.09.329 1.514-.364 1.355-.461-.936.145-.866-.605-1.08.472-.935.092-1.233-.528-.907z"/><path fill="#EA596E" d="M12.694 12.864c-1.129.089-8.049-.03-8.614 0-.564.03-.713.564-.297.891.416.327 7.752 4.248 8.079 4.515s.832-5.406.832-5.406z"/><path fill="#77B255" d="M21.1 10.785c.772-.386 8.347-4.574 8.881-4.812.535-.238 1.188-.208.832.594-.356.802-5.941 9.475-6.119 9.802-.178.327-2.257-2.05-2.554-2.762-.297-.713-1.04-2.822-1.04-2.822z"/><path fill="#AA8DD8" d="M16.065 22.889s4.233 6.193 4.545 6.728.936.579 1.114-.178c.178-.757 1.069-8.554 1.069-8.554l-6.728 2.004z"/><path fill="#F4900C" d="M11.937 18.879c.256-.077 1.931 1.455 2.525 1.842.594.386 2.317 1.455 2.554 1.842.238.386.743.416-.238.921s-8.436 4.04-9.03 4.396c-.594.356-.906-.059-.327-.936.646-.976 4.219-7.976 4.516-8.065z"/><circle fill="#3E721D" cx="18.037" cy="16.128" r="7"/><path fill="#9266CC" d="M13.704 15.419c-.41 2.805.064 5.162.954 6.839l.004.002c-.873-1.648-1.344-3.953-.972-6.695 2.821-.472 6.881-.409 10.083 2.26.328.274.572.558.78.847.308-.789.484-1.645.484-2.543 0-3.557-2.656-6.488-6.091-6.934-2.034.406-4.692 2.458-5.242 6.224z"/><path fill="#3B88C3" d="M23.773 17.825c-3.202-2.668-7.262-2.732-10.083-2.26-.372 2.741.098 5.047.972 6.695 1.001.553 2.151.869 3.376.869 2.968 0 5.498-1.85 6.516-4.457-.209-.289-.452-.574-.781-.847z"/><path fill="#55ACEE" d="M9.037 17.128s2.264-1.863 4.162-3.046c1.884-1.175 4.405-.891 5.673.95 1.248 1.812.505 4.396-.743 5.228-1.177.784-2.97 1.277-4.752.089-1.86-1.24-4.34-3.221-4.34-3.221z"/><path fill="#E954D2" d="M21.575 16.339c.982-.507 2.673-.119 3.475.653s5.376 6.356 6.208 7.099.297.861-1.069.475c-1.366-.386-7.99-1.337-8.584-1.485-.594-.149-1.416-.517-1.782-1.723-.505-1.662.832-4.543 1.752-5.019z"/><path fill="#FFCC4D" d="M16.258 11.468c1.634-.609 2.97-1.248 2.525-2.079-.446-.832-4.769-7.813-5.049-8.317-.446-.802-.965-.906-.965.342s.208 9.312.267 10.025c.059.712 2.075.457 3.222.029z"/><path fill="#EA596E" d="M30.113 5.236c.816-.37 1.142-.189 1.142-.189s.1.476.47.6 1.118.327 1.221.787c.103.46.487 1.238.685 1.718.198.48.816 1.241.816 1.241l-.665.352.04.691.656.736-.494.484s-.059.769-.514.822c-.455.053-.995-.448-.995-.448l-.315.814-1.062.124s.106-.759-.036-.788c-.142-.029-.749-.202-.749-.202l-.737-4.12.537-2.622z"/><path fill="#FFCC4D" d="M30.6 5.23l.658.525-.143 2.265.622 1.909-.045 1.186-.825-.193-.464 1.662s-.929-.166-.915-.236c.014-.07.563-1.666.563-1.666l-.677-.553.886-1.309-.814-.728.866-1.458.288-1.404z"/><path fill="#77B255" d="M31.258 5.755l-.669.375.186 1.624.589 1.707.066 2.088.669 1.674s.859-.215.826-.295-.699-1.412-.699-1.412l-.209-1.873-.759-3.888z"/><path fill="#F4900C" d="M30.874 5.701l.371-.363.903.892-.058.769.713 1.22.215 1.239.76 1.596-.196.716-.66.206.003-1.219-.633-1.008-.049-1.206-1.173-1.387.13-.876z"/><path fill="#77B255" d="M30.338 25.013l.92-.743 1.396.535.208 1.871 1.099 1.277-.148 2.05-.505 1.663-1.337.475-1.218-1.901-.712 1.01-.743-1.663.327-2.02.713-1.366z"/><path fill="#E954D2" d="M30.823 24.237l.742 1.129-.475 1.901.535 1.426-.238 2.97-.713.178.357-2.911-.595-1.425.476-2.139z"/><path fill="#FFCC4D" d="M30.753 25.339l-.644 1.959c-.026.08-.482.511-.484.595l.621 1.401-.266 2.402 1.107-.87.022-2.041-.612-1.261.503-1.493-.247-.692z"/><path fill="#3E721D" d="M31.989 25.458l.297 1.248.713 1.128-.476.802.684 2.377-.713.386-.624-2.941.386-1.01-.564-.802z"/><path fill="#FFCC4D" d="M10.574 17.433l-1.004-.692-1.521.498-.227 1.743-1.198 1.19.162 1.909.55 1.55 1.457.442 1.328-1.771.777.941.809-1.549-.356-1.882-.777-1.273z"/><path fill="#EA596E" d="M9.416 16.855l-.486.632c-.203.264-.268.609-.174.928l.263.899c.069.235.053.487-.046.711l-.323.734c-.071.162-.1.34-.083.516l.234 2.498.777.166-.343-2.395c-.03-.206.003-.417.095-.604l.339-.694c.109-.223.134-.478.072-.719l-.375-1.443c-.03-.117-.04-.238-.029-.358l.079-.871z"/><path fill="#9266CC" d="M9.637 17.882l.702 1.825c.029.074.525.476.527.554l-.676 1.305.289 2.238-1.207-.811-.024-1.901.667-1.175-.548-1.391.27-.644z"/><path fill="#3B88C3" d="M8.774 17.848l-.323 1.162-.777 1.051.518.747-.745 2.214.777.36.68-2.74-.421-.941.615-.747z"/><path fill="#55ACEE" d="M3.371 12.819c.787-.12 1.032.107 1.032.107s-.012.422.284.613c.296.19.905.534.899.944-.006.41.417.804.2 1.204-.057.104.329.654.329.654l-.386.594.55 1.5-.564.342.324 1.173s-.915-.317-1.322-.252c-.19.03-.606.149-.606.149l-1.191-.936-.301.624s-.947-.403-1.065-.461c-.069-.034.189-1.037.344-1.811.015-.074-.163-1.025-.163-1.025l.564-.52-.089-1.619.52-.297.641-.983z"/><path fill="#EA596E" d="M3.796 12.927l.463.593-.595 1.866.143 1.745-.287.984-.764.155-.662.777s-.598-1.123-.571-1.178c.027-.056.661-.498.661-.498l.066-.987.502-.525-.556-.799.768-1.379.832-.754z"/><path fill="#F4900C" d="M3.558 13.547l.609-.03.193 1.426-.478 1.71.377 1.766-.234 1.559s-.806-.906-.794-.98c.012-.075.342-1.262.342-1.262l-.505-2.629.49-1.56z"/><path fill="#3B88C3" d="M4.025 13.356l.398-.218.382.973.594.698-.22 1.106-.071 1.09.329 1.514-.364 1.355-.461-.936.145-.866-.605-1.08.472-.935.092-1.233-.528-.907z"/><path fill="#FFCC4D" d="M13.763.079c-.885-.129-1.161.114-1.161.114s.014.453-.319.657-1.018.572-1.011 1.012c.007.44-.469.863-.225 1.291.064.112-.371.701-.371.701l.434.637-.618 1.608.635.366-.365 1.258s1.029-.34 1.487-.271c.214.032.682.16.682.16l1.34-1.004.339.669s1.066-.432 1.198-.494c.078-.036-.213-1.112-.387-1.942-.017-.08.184-1.099.184-1.099l-.635-.557.1-1.736-.585-.319-.722-1.051z"/><path fill="#AA8DD8" d="M13.285.195l-.521.636.67 2-.161 1.871.322 1.055.86.166.744.834s.673-1.204.642-1.264c-.031-.06-.744-.534-.744-.534L15.022 3.9l-.564-.563.626-.857-.864-1.479-.935-.806z"/><path fill="#EA596E" d="M13.553.86l-.685-.032-.217 1.529.538 1.833-.424 1.894.263 1.672s.906-.971.893-1.051c-.014-.08-.384-1.354-.384-1.354l.568-2.819L13.553.86z"/><path fill="#77B255" d="M13.027.655l-.448-.234-.43 1.044-.668.748.248 1.186.08 1.168-.37 1.624.41 1.453.518-1.004-.163-.928.681-1.158-.532-1.003-.103-1.322.594-.972z"/></svg>