<svg xmlns="http://www.w3.org/2000/svg" viewBox="0 0 36 36" xml:space="preserve"><path fill="#3B94D9" d="M31.496 20.326a.588.588 0 0 0 .406-.239.522.522 0 0 0 .078-.446C31.554 18.134 29.677 17 27.425 17c-.837 0-1.67.28-2.425.68V6.5a2.5 2.5 0 1 0-5 0v-4a2.5 2.5 0 1 0-5 0v4a2.5 2.5 0 1 0-5 0v11.181c-.755-.4-1.587-.681-2.425-.681-2.252 0-4.13 1.134-4.556 2.64a.522.522 0 0 0 .078.446.588.588 0 0 0 .406.239c6.94.885 1.222 15.255 13.996 15.666 12.776-.41 7.058-14.781 13.997-15.665z"/><path fill="#FFF" d="M24 26.5S21.09 30 17.5 30 11 26.5 11 26.5s2.91-3.5 6.5-3.5 6.5 3.5 6.5 3.5z"/><circle fill="#5DADEC" cx="17.5" cy="26.5" r="3.5"/><circle cx="17.5" cy="26.5" r="2.5"/><circle fill="#FFF" cx="16" cy="25" r="1"/><path d="M15 3.5v-1a2.5 2.5 0 1 1 5 0v1a2.5 2.5 0 1 0-5 0zm17.686 16.236C31.848 18.074 29.783 17 27.425 17c-3.018 0-3.722 2.079-6.425 2.195 0-13.845-.267-13.703.653-14.043C23.206 4.575 25 5.702 25 7.5v-1c0-2.385-3.037-3.421-4.489-1.5-.661.876-.511.284-.511 14.145-1.157-.178-1.91-.715-2.5-1.109-.621.414-1.316.927-2.5 1.109V7.5c-.067-.367.253-1.489-.511-2.5C13.042 3.085 10 4.112 10 6.5v1c0-1.799 1.794-2.924 3.347-2.348.923.342.653.21.653 14.043C11.277 19.078 10.639 17 7.575 17c-2.358 0-4.423 1.074-5.261 2.736l.91.459c.961-1.911 4.422-3.228 7.634-1.011 1.954 1.35 4.663 1.373 6.642.054 1.979 1.319 4.688 1.295 6.642-.054 3.129-2.159 6.644-.959 7.634 1.011l.91-.459z" fill="#A8E0F9"/></svg>