<svg xmlns="http://www.w3.org/2000/svg" viewBox="0 0 36 36" xml:space="preserve"><path fill="#E1E8ED" d="M18 0C11.373 0 6 1.343 6 3v29.7h24V3c0-1.657-5.373-3-12-3z"/><path fill="#D42544" d="M6 24.7v8c0 1.657 5.373 3.3 12 3.3s12-1.643 12-3.3v-8H6z"/><path fill="#FF475C" d="M30 24.7c0 1.657-5.373 3.3-12 3.3S6 26.357 6 24.7c0-1.657 5.373-2.7 12-2.7s12 1.043 12 2.7z"/><path fill="#99AAB5" d="M21.956 12.788c.091.544-.321 1.066-.922 1.136-.676.079-1.355.121-2.035.147V16a1 1 0 0 1-2 0v-1.93a26.188 26.188 0 0 1-2.035-.147c-.601-.07-1.012-.591-.922-1.136a1.042 1.042 0 0 1 1.152-.851c.6.07 1.202.109 1.804.133V10a1 1 0 0 1 2 0v2.07a24.781 24.781 0 0 0 1.804-.133 1.042 1.042 0 0 1 1.154.851zM26.651 3c-1.73-.597-4.952-1-8.651-1s-6.921.403-8.651 1H8v1c0 1.105 4.477 2 10 2s10-.895 10-2V3h-1.349z"/><ellipse fill="#CCD6DD" cx="18" cy="3" rx="10" ry="2"/><path fill="#99AAB5" d="M14 1v1.5c0 .552 1.791 1 4 1s4-.448 4-1V1h-8z"/><ellipse fill="#CCD6DD" cx="18" cy="1" rx="4" ry="1"/><path fill="#FFF" d="M15.478 32.522c-.609-.067-1.026-.59-.934-1.134a1.048 1.048 0 0 1 1.153-.854c1.531.168 3.076.168 4.607 0a1.048 1.048 0 0 1 1.153.854c.091.544-.326 1.067-.934 1.134a23.123 23.123 0 0 1-5.045 0z"/></svg>