<svg xmlns="http://www.w3.org/2000/svg" viewBox="0 0 36 36" xml:space="preserve"><path fill="#DFCEBF" d="M35 26.5a1.5 1.5 0 0 1-1.5 1.5h-31A1.5 1.5 0 0 1 1 26.5v-19A1.5 1.5 0 0 1 2.5 6h31A1.5 1.5 0 0 1 35 7.5v19z"/><path fill="#FFFFF5" d="M14 23a1 1 0 0 1-1 1H5a1 1 0 0 1-1-1V13a1 1 0 0 1 1-1h8a1 1 0 0 1 1 1v10z"/><path d="M30 15H18a1 1 0 0 1 0-2h12a1 1 0 0 1 0 2zm-4 3a1 1 0 0 0-1-1h-7a1 1 0 0 0 0 2h7a1 1 0 0 0 1-1zm3 4a1 1 0 0 0-1-1H18a1 1 0 0 0 0 2h10a1 1 0 0 0 1-1zm-16 2a1 1 0 0 0 1-1v-.003a.74.74 0 0 0-.34-.623c-.702-.453-1.778-.825-2.746-.991v-.819c.638-.43 1.302-1.206 1.501-2.2.059.033.066.054.132.054.316 0 .545-.411.545-.917 0-.498-.263-.902-.572-.914.06-.215.094-.503.094-.873 0-1.234-1.061-2.714-3.441-2.714-2.115 0-3.439 1.481-3.439 2.714 0 .358.022.652.06.879-.291.044-.52.431-.52.908 0 .506.257.917.573.917.066 0 .008-.021.067-.054.199.994.853 1.77 1.491 2.2v.77c-1.021.132-2.298.545-3.088 1.058a.7.7 0 0 0-.317.584V23a1 1 0 0 0 1 1h8zm6-15a1 1 0 0 0-1-1H5a1 1 0 0 0 0 2h13a1 1 0 0 0 1-1z" fill="#7D7585"/></svg>