<svg xmlns="http://www.w3.org/2000/svg" viewBox="0 0 36 36" xml:space="preserve"><path fill="#ADE3FF" d="M22.981 18.944c-.053 2.052-.272 4.003-.628 5.752a39.945 39.945 0 0 1-4.353.295v-5.992c1.888-.003 3.539-.022 4.981-.055zM21.294 5.353c.907.161 1.781.371 2.611.611a10.44 10.44 0 0 0-3.637-2.022c.362.398.705.868 1.026 1.411zm-8.625 5.834A69.042 69.042 0 0 1 17 11.006V6.015c-.92.024-1.814.107-2.671.24-.682 1.297-1.255 2.982-1.66 4.932zm-9.027 2.549a14.443 14.443 0 0 0-.604 3.518c.329.096 1.004.198 1.981.295a18.8 18.8 0 0 1 .62-4.409c-1.071.235-1.763.452-1.997.596zM17 17.998v-5.993c-1.602.012-3.12.082-4.518.189a34.576 34.576 0 0 0-.48 5.735c1.506.041 3.177.065 4.998.069zM13.706 5.353a8.52 8.52 0 0 1 1.027-1.411 10.44 10.44 0 0 0-3.637 2.022c.829-.24 1.703-.45 2.61-.611z"/><path fill="#F0FFFF" d="M22.331 11.187A69.042 69.042 0 0 0 18 11.006V6.015c.92.024 1.814.107 2.671.24.682 1.297 1.255 2.982 1.66 4.932zM5.738 23.198a18.727 18.727 0 0 1-.716-4.645c-.922-.107-1.567-.225-2.011-.343.02 1.42.237 2.794.64 4.088.209.18.943.519 2.087.9zm5.893-11.927c.363-1.836.871-3.46 1.492-4.798A23.65 23.65 0 0 0 9.576 7.52c-1.02 1.226-1.857 2.685-2.466 4.309 1.36-.23 2.917-.419 4.521-.558zm-3.92 16.34c-.999-.493-1.695-.945-2.016-1.222a14.415 14.415 0 0 1-1.546-2.735c.536.242 1.2.485 1.97.721.425 1.162.96 2.247 1.592 3.236zM23.998 17.9c2.008-.066 3.685-.158 4.987-.262a17.755 17.755 0 0 0-.728-4.719 53.996 53.996 0 0 0-4.704-.636c.281 1.734.44 3.622.445 5.617zm5.038-5.86c.729.15 1.368.313 1.884.489a14.443 14.443 0 0 0-1.718-3.055c-.326-.275-1.008-.705-1.968-1.175a16.574 16.574 0 0 1 1.802 3.741zM11.595 24.553a34.586 34.586 0 0 1-.577-5.635c-2.126-.061-3.751-.154-4.993-.263.062 1.725.352 3.376.853 4.894 1.282.365 2.885.73 4.717 1.004z"/><path fill="#A8C1FF" d="M20.715 29.658c-.865.131-1.774.212-2.715.234V25.99a41.391 41.391 0 0 0 4.12-.268c-.373 1.526-.851 2.86-1.405 3.936zm9.267-12.109c.976-.097 1.652-.199 1.981-.295a14.434 14.434 0 0 0-.604-3.518c-.234-.144-.926-.361-1.997-.596.372 1.394.584 2.873.62 4.409zM14.921 30.743c.633.913 1.338 1.502 2.079 1.688v-1.538a21.98 21.98 0 0 1-2.079-.15z"/><path fill="#F1C6FF" d="M31.989 18.21a14.416 14.416 0 0 1-.64 4.088c-.21.181-.943.519-2.088.9.421-1.461.669-3.02.716-4.645.923-.107 1.568-.225 2.012-.343zm-8.798 7.379c-.335 1.452-.768 2.746-1.274 3.855a23.18 23.18 0 0 0 3.587-1.052 14.81 14.81 0 0 0 2.18-3.677 40.811 40.811 0 0 1-4.493.874zm-9.537 4.965a24.664 24.664 0 0 1-2.676-.626 10.498 10.498 0 0 0 3.755 2.13 8.66 8.66 0 0 1-1.079-1.504zm6.425.189a21.98 21.98 0 0 1-2.079.15v1.538c.741-.186 1.446-.775 2.079-1.688z"/><path fill="#CCB3FF" d="M14.285 29.658c-.554-1.076-1.032-2.41-1.405-3.935 1.338.153 2.726.249 4.12.268v3.902a21.7 21.7 0 0 1-2.715-.235zm14.596-5.283a16.559 16.559 0 0 1-1.592 3.236c.999-.493 1.695-.945 2.016-1.222a14.47 14.47 0 0 0 1.546-2.735c-.535.242-1.2.485-1.97.721zm-4.9-5.457a34.366 34.366 0 0 1-.577 5.635 37.787 37.787 0 0 0 4.716-1.004c.501-1.518.791-3.169.853-4.894-1.24.109-2.866.202-4.992.263zm-2.635 11.636a8.66 8.66 0 0 1-1.079 1.504 10.475 10.475 0 0 0 3.755-2.13 24.61 24.61 0 0 1-2.676.626zM35.5 3A2.503 2.503 0 0 1 33 .5a.5.5 0 0 0-1 0C32 1.878 30.878 3 29.5 3a.5.5 0 0 0 0 1C30.878 4 32 5.122 32 6.5a.5.5 0 0 0 1 0C33 5.122 34.122 4 35.5 4a.5.5 0 0 0 0-1z"/><path fill="#B0F7FF" d="M18 5.016V3.569c.712.179 1.389.736 2.002 1.589-.66-.08-1.33-.125-2.002-.142zm3.877 1.456c.621 1.339 1.129 2.962 1.492 4.798 1.603.139 3.161.328 4.521.557-.609-1.624-1.446-3.083-2.466-4.309a23.974 23.974 0 0 0-3.547-1.046zM18 12.005v5.993c1.821-.004 3.492-.029 4.999-.069a34.595 34.595 0 0 0-.48-5.735A66.538 66.538 0 0 0 18 12.005zm-1 12.986v-5.992a235.782 235.782 0 0 1-4.981-.055c.053 2.052.272 4.003.628 5.752 1.356.166 2.817.275 4.353.295zm-5.553-12.708c-1.84.172-3.436.402-4.704.636a17.708 17.708 0 0 0-.728 4.719c1.303.104 2.98.196 4.987.262.005-1.995.164-3.883.445-5.617zm3.551-7.125c.66-.08 1.33-.125 2.002-.142V3.569c-.712.179-1.389.736-2.002 1.589zM5.964 12.04a16.574 16.574 0 0 1 1.802-3.741c-.96.469-1.642.9-1.968 1.175a14.487 14.487 0 0 0-1.718 3.055 16.116 16.116 0 0 1 1.884-.489zm7.12 17.403c-.506-1.109-.939-2.403-1.274-3.855a40.513 40.513 0 0 1-4.492-.874 14.829 14.829 0 0 0 2.18 3.677c1.04.4 2.25.775 3.586 1.052zM35.5 31a2.503 2.503 0 0 1-2.5-2.5.5.5 0 0 0-1 0c0 1.378-1.122 2.5-2.5 2.5a.5.5 0 0 0 0 1c1.378 0 2.5 1.122 2.5 2.5a.5.5 0 0 0 1 0c0-1.378 1.122-2.5 2.5-2.5a.5.5 0 0 0 0-1z"/><path fill="#49A8FF" d="M30.289 9.26a1.5 1.5 0 0 0-.232-.31C23.847.358 11.16.347 4.942 8.95c-.102.11-.181.214-.231.31a15.418 15.418 0 0 0 .216 17.769c.013.012.023.036.037.049 6.213 8.556 18.854 8.567 25.074 0l.046-.039a15.457 15.457 0 0 0 .205-17.779zm-.984 17.129c-.321.277-1.018.728-2.016 1.222a16.559 16.559 0 0 0 1.592-3.236 16.89 16.89 0 0 0 1.97-.721 14.47 14.47 0 0 1-1.546 2.735zM4.149 23.654c.536.242 1.2.485 1.97.721.425 1.162.96 2.248 1.592 3.236-.999-.493-1.695-.945-2.016-1.222a14.47 14.47 0 0 1-1.546-2.735zm27.2-1.357c-.21.181-.943.519-2.088.9.421-1.461.669-3.02.716-4.645.923-.107 1.568-.225 2.012-.344a14.412 14.412 0 0 1-.64 4.089zM3.038 17.254c.062-1.217.259-2.398.604-3.518.234-.144.926-.361 1.997-.596a18.8 18.8 0 0 0-.62 4.409c-.977-.097-1.652-.199-1.981-.295zm3.705-4.335a53.996 53.996 0 0 1 4.704-.636 35.79 35.79 0 0 0-.445 5.616 109.636 109.636 0 0 1-4.987-.262c.032-1.657.288-3.242.728-4.718zm25.219 4.335c-.329.096-1.004.198-1.981.295a18.8 18.8 0 0 0-.62-4.409c1.07.235 1.762.452 1.997.596.345 1.12.542 2.302.604 3.518zm-2.977.384c-1.303.104-2.98.196-4.987.262a35.79 35.79 0 0 0-.445-5.616c1.84.172 3.436.402 4.704.636.44 1.475.696 3.06.728 4.718zM18 6.015c.92.024 1.814.107 2.671.24.682 1.298 1.255 2.983 1.66 4.932A69.042 69.042 0 0 0 18 11.006V6.015zm-1 4.99a69.81 69.81 0 0 0-4.331.181c.405-1.95.978-3.634 1.66-4.932A20.83 20.83 0 0 1 17 6.015v4.99zm0 1v5.993a206.135 206.135 0 0 1-4.999-.069c.004-2.026.177-3.966.48-5.735A66.538 66.538 0 0 1 17 12.005zm0 6.994v5.992a40.197 40.197 0 0 1-4.353-.295c-.356-1.75-.575-3.701-.628-5.752 1.442.033 3.093.052 4.981.055zm0 6.992v3.902a21.513 21.513 0 0 1-2.715-.235c-.554-1.076-1.032-2.41-1.405-3.935 1.338.153 2.726.249 4.12.268zm1 0a41.391 41.391 0 0 0 4.12-.268c-.374 1.525-.852 2.859-1.405 3.935-.865.131-1.774.212-2.715.234v-3.901zm0-1v-5.992c1.888-.003 3.539-.022 4.981-.055-.053 2.052-.272 4.003-.628 5.752a40.197 40.197 0 0 1-4.353.295zm0-6.993v-5.993c1.602.012 3.12.082 4.518.189.303 1.768.476 3.708.48 5.735-1.506.041-3.177.065-4.998.069zm5.369-6.727c-.363-1.836-.871-3.46-1.492-4.798a23.65 23.65 0 0 1 3.547 1.047c1.02 1.226 1.857 2.685 2.466 4.309a57.483 57.483 0 0 0-4.521-.558zm-2.075-5.918a8.575 8.575 0 0 0-1.026-1.411 10.44 10.44 0 0 1 3.637 2.022c-.83-.24-1.704-.45-2.611-.611zm-1.292-.195c-.66-.08-1.33-.125-2.002-.142V3.569c.712.179 1.389.736 2.002 1.589zM17 5.016c-.672.017-1.342.062-2.002.142.614-.852 1.29-1.41 2.002-1.589v1.447zm-3.294.337c-.907.161-1.781.371-2.611.611a10.44 10.44 0 0 1 3.637-2.022 8.575 8.575 0 0 0-1.026 1.411zm-.583 1.119c-.621 1.339-1.129 2.962-1.492 4.798a58.043 58.043 0 0 0-4.521.557c.609-1.624 1.446-3.083 2.466-4.309a23.974 23.974 0 0 1 3.547-1.046zm-2.104 12.446c.047 2.015.247 3.913.577 5.635a37.787 37.787 0 0 1-4.716-1.004 17.658 17.658 0 0 1-.853-4.894c1.24.109 2.866.202 4.992.263zm.79 6.671c.335 1.452.768 2.746 1.274 3.855a23.18 23.18 0 0 1-3.587-1.052 14.81 14.81 0 0 1-2.18-3.677c1.323.341 2.856.646 4.493.874zm1.845 4.965a8.66 8.66 0 0 0 1.079 1.504 10.475 10.475 0 0 1-3.755-2.13c.838.247 1.735.46 2.676.626zm1.267.189a21.98 21.98 0 0 0 2.079.15v1.538c-.741-.186-1.446-.775-2.079-1.688zm3.079.15a21.653 21.653 0 0 0 2.079-.15c-.633.913-1.338 1.502-2.079 1.688v-1.538zm3.346-.339c.94-.166 1.838-.379 2.676-.626a10.498 10.498 0 0 1-3.755 2.13 8.66 8.66 0 0 0 1.079-1.504zm.57-1.111c.506-1.109.939-2.403 1.274-3.855a40.513 40.513 0 0 0 4.492-.874 14.829 14.829 0 0 1-2.18 3.677 23.1 23.1 0 0 1-3.586 1.052zm1.489-4.89c.329-1.722.529-3.62.577-5.635 2.126-.061 3.751-.154 4.993-.263a17.658 17.658 0 0 1-.853 4.894c-1.282.365-2.885.73-4.717 1.004zm7.515-12.024a16.318 16.318 0 0 0-1.884-.489 16.574 16.574 0 0 0-1.802-3.741c.96.469 1.642.9 1.968 1.175a14.443 14.443 0 0 1 1.718 3.055zM7.766 8.299a16.66 16.66 0 0 0-1.802 3.741 15.97 15.97 0 0 0-1.884.489 14.443 14.443 0 0 1 1.718-3.055c.326-.275 1.007-.705 1.968-1.175zM5.023 18.553c.047 1.625.294 3.183.716 4.645-1.145-.381-1.878-.72-2.088-.9a14.452 14.452 0 0 1-.64-4.088c.444.118 1.089.236 2.012.343zM4.5 6C3.673 6 3 6.673 3 7.5c0 .662-1 .661-1 0C2 6.673 1.327 6 .5 6c-.662 0-.661-1 0-1C1.327 5 2 4.327 2 3.5c0-.662 1-.661 1 0C3 4.327 3.673 5 4.5 5c.662 0 .661 1 0 1z"/></svg>