<svg xmlns="http://www.w3.org/2000/svg" viewBox="0 0 36 36"><path fill="#55ACEE" d="M2.295 34.394c-.341 0-.686-.105-.98-.325-.729-.542-.881-1.573-.338-2.302.812-1.093 2.049-2.665 3.583-4.327-.804-1.915-.982-4.193-.096-6.534 1.935-5.107 7.096-5.788 10.865-6.284l.669-.089c-.229-2.619-.111-5.109 1.224-7 3.262-4.62 7.495-4.763 10.37-3.355.773.379 1.47.868 2.077 1.442.993-1.142 1.909-2.286 2.726-3.361.549-.724 1.582-.864 2.306-.316.724.549.865 1.582.315 2.305-.997 1.313-2.138 2.724-3.39 4.121.886 1.941 1.09 4.211.431 6.376-1.811 5.944-8.045 7.213-11.887 7.624.071 2.535-.296 4.992-1.802 6.956-2.617 3.41-6.542 4.37-10.006 2.441-.688-.384-1.341-.888-1.926-1.488-1.018 1.138-1.969 2.311-2.818 3.453-.324.433-.82.663-1.323.663zm6.418-6.485c.376.398.801.73 1.249.98.968.537 3.467 1.462 5.794-1.569.896-1.169 1.16-2.789 1.133-4.6-2.627.59-5.522 2.641-8.176 5.189zm7.684-10.11l-.639.084c-4.216.556-7.066 1.147-8.218 4.188-.355.938-.44 1.86-.326 2.717 2.757-2.514 6.043-4.763 9.402-5.369-.068-.539-.144-1.08-.219-1.618v-.002zm3.236-.623l.023.17c.08.572.161 1.155.235 1.743 3.28-.347 7.791-1.282 9.016-5.304.295-.967.322-1.9.155-2.753-2.808 2.703-5.987 5.047-9.264 6.093l-.165.051zM24.274 6.68c-1.563 0-3.089.943-4.365 2.75-.7.992-.797 2.596-.667 4.408 2.846-1.035 5.672-3.268 8.184-5.799-.393-.376-.828-.684-1.282-.906-.621-.304-1.248-.453-1.87-.453z"/><path fill="#269" d="M8.462 30.276c.507-.648 1.104-1.07 1.538-1.367l-.038-.02c-.448-.25-.872-.582-1.249-.98 0 0-1.583 1.515-2.278 2.367.398.409.835.753 1.286 1.065.217-.348.465-.712.741-1.065zm7.556-7.304c.293-.098.584-.187.871-.251 0 0-.071-1.499-.273-3.302-.345.062-.689.153-1.032.248.078.494.196 1.189.38 2.167.078.415.079.787.054 1.138zm9.878-13.477c.719.403 1.64 1.116 2.219 2.418.32-.289.637-.582.948-.881 0 0-.299-1.644-1.637-2.993-.498.501-1.01.985-1.53 1.456zm-6.24 7.851l-.023-.17c-1.824.468-3.236.624-3.236.624v.001l.135.996c1.053-.201 2.275-.381 3.254-.492-.044-.32-.086-.644-.13-.959zm.918 1.663c-.232.03-.46.057-.682.08.174 1.555.277 3.278.277 3.278.263-.028.538-.061.821-.099-.066-1.056-.282-2.484-.416-3.259z"/><path d="M1.405 32.786c-.226 0-.431-.154-.486-.384-.064-.268.102-.539.371-.602 1.243-.297 2.784-.019 2.849-.005.271.05.45.311.4.582s-.307.452-.583.4c-.014-.002-1.4-.251-2.436-.005-.037.01-.076.014-.115.014zm1.719-2.217c-.226 0-.431-.154-.486-.384-.064-.269.102-.539.371-.603 1.244-.298 2.784-.018 2.85-.005.271.05.45.311.4.582-.05.271-.308.453-.583.4-.014-.002-1.4-.251-2.436-.005-.038.011-.077.015-.116.015zm4.625-2.212c-.041 0-.083-.005-.125-.016-.014-.003-1.375-.348-2.43-.175-.272.05-.53-.14-.575-.411-.045-.272.139-.53.412-.575 1.262-.212 2.778.176 2.842.192.267.069.428.342.359.609-.058.227-.261.376-.483.376zm2.255-1.853c-.064 0-.129-.013-.192-.039-.014-.005-1.321-.591-2.379-.52-.281.018-.504-.213-.51-.489-.005-.276.214-.505.49-.511 1.283-.002 2.725.571 2.785.598.255.106.375.398.269.653-.081.193-.267.308-.463.308zm2.221-1.749c-.091 0-.182-.024-.265-.076-.012-.008-1.208-.749-2.263-.9-.273-.039-.463-.293-.424-.566.04-.272.292-.456.566-.424 1.266.182 2.595 1.008 2.651 1.043.234.146.305.455.158.689-.094.151-.257.234-.423.234zm2.502-1.374c-.113 0-.227-.038-.32-.116-.011-.01-1.094-.908-2.118-1.202-.265-.076-.418-.354-.342-.618.076-.267.352-.42.619-.343 1.229.354 2.433 1.354 2.484 1.396.211.177.239.492.062.703-.1.118-.242.18-.385.18zm8.706-1.671c-.143 0-.284-.061-.383-.179-.01-.011-.918-1.085-1.874-1.556-.248-.121-.35-.421-.228-.669.122-.247.421-.35.669-.228 1.148.564 2.156 1.76 2.199 1.81.177.212.148.527-.062.704-.094.08-.208.118-.321.118zm2.985-1.068c-.108 0-.218-.035-.31-.107-.011-.009-1.121-.874-2.153-1.138-.268-.068-.429-.341-.36-.608.068-.268.337-.431.608-.361 1.239.316 2.473 1.28 2.524 1.321.217.171.254.484.083.701-.098.126-.245.192-.392.192zm2.933-2.077c-.052 0-.104-.008-.157-.025-.013-.004-1.349-.438-2.412-.338-.252.029-.519-.174-.546-.449-.026-.275.175-.52.45-.546 1.268-.128 2.759.363 2.822.384.262.087.404.37.317.631-.069.211-.264.343-.474.343zm-.749-2.232c-.188 0-.369-.107-.454-.29-.115-.25-.007-.547.244-.664 1.16-.538 2.726-.571 2.791-.572.255.016.504.215.509.491s-.215.503-.491.509c-.014 0-1.422.031-2.389.479-.068.032-.14.047-.21.047zm1.018-2.679c-.117 0-.234-.041-.329-.124-.208-.182-.229-.498-.048-.706.843-.964 2.257-1.63 2.317-1.658.248-.115.547-.009.664.242.116.25.009.547-.241.665-.013.006-1.285.607-1.986 1.41-.1.113-.238.171-.377.171zm-.049-2.86c-.05 0-.1-.007-.149-.023-.264-.083-.41-.363-.328-.626.383-1.221 1.412-2.4 1.455-2.449.184-.207.497-.228.706-.045.207.182.228.498.046.706-.01.01-.934 1.072-1.252 2.088-.068.212-.265.349-.478.349zm-1.28-2.296c-.239 0-.451-.172-.492-.417-.213-1.262.168-2.78.185-2.844.067-.267.338-.432.607-.361.268.068.43.34.361.608-.003.014-.345 1.379-.167 2.43.046.272-.138.53-.41.577-.027.005-.056.007-.084.007zm-2.27-1.632c-.142 0-.282-.06-.381-.177-.828-.976-1.276-2.475-1.295-2.538-.078-.265.073-.542.338-.621.264-.076.542.073.621.338.004.013.409 1.362 1.098 2.174.179.21.153.526-.058.705-.094.08-.209.119-.323.119zm-3.087-.135c-.029 0-.058-.002-.087-.007-1.261-.219-2.563-1.084-2.619-1.121-.23-.153-.291-.463-.138-.692.152-.229.463-.293.693-.139.012.008 1.186.784 2.235.967.271.047.454.306.406.578-.041.243-.252.414-.49.414zm-4.422 2.093c-.544 0-.945-.046-.977-.05-.274-.033-.47-.282-.437-.556.033-.274.285-.472.556-.437.012.001 1.413.162 2.43-.149.265-.082.544.067.625.332.08.264-.068.543-.332.625-.615.187-1.315.235-1.865.235zm-2.057 3.923c-.207 0-.4-.129-.472-.336-.09-.261.047-.545.308-.636.013-.005 1.341-.473 2.12-1.199.202-.189.518-.178.707.024.188.202.178.519-.024.707-.936.874-2.412 1.392-2.475 1.414-.055.017-.11.026-.164.026zm.847 8.547c-.176 0-.346-.093-.438-.257-.134-.241-.047-.546.194-.681.012-.007 1.24-.695 1.882-1.545.166-.221.48-.264.701-.098.22.167.264.48.097.701-.771 1.021-2.137 1.785-2.194 1.817-.077.042-.16.063-.242.063zm.118 3.33c-.176 0-.346-.093-.438-.257-.134-.241-.047-.546.194-.68.013-.008 1.24-.696 1.883-1.547.166-.22.479-.263.7-.097.22.166.264.479.097.7-.771 1.021-2.136 1.785-2.194 1.817-.076.044-.16.064-.242.064zm-.703 2.94c-.238 0-.449-.171-.492-.413-.048-.271.133-.531.405-.579.014-.003 1.399-.253 2.285-.846.229-.155.54-.093.693.137.154.229.093.54-.137.693-1.063.712-2.603.989-2.668 1-.029.006-.057.008-.086.008zm.164 2.561c-1.125 0-2.249-.347-2.303-.363-.264-.082-.41-.362-.328-.626.082-.264.361-.415.625-.329.013.005 1.36.419 2.418.296.271-.032.522.166.553.44.032.274-.166.522-.44.554-.171.019-.348.028-.525.028zm-2.356 2.048c-.074 0-.148-.017-.219-.051-1.149-.562-2.16-1.758-2.202-1.809-.178-.211-.15-.526.061-.704.211-.176.525-.151.705.062.009.011.92 1.085 1.876 1.553.248.122.351.421.229.669-.087.177-.265.28-.45.28zm-3.455.368c-.151 0-.3-.068-.398-.197-.775-1.019-1.143-2.539-1.158-2.603-.064-.269.102-.538.37-.603.271-.061.538.102.603.37.003.014.336 1.381.981 2.229.167.22.125.533-.095.701-.091.07-.198.103-.303.103zm-6.496-6.512c-.098 0-.197-.028-.283-.088-.228-.157-.285-.469-.128-.696.726-1.053 2.056-1.877 2.112-1.911.233-.147.542-.071.688.164.145.235.071.543-.164.688-.012.008-1.208.75-1.812 1.628-.098.14-.254.215-.413.215zm.318-3.954c-.174 0-.344-.091-.436-.254-.136-.24-.051-.546.189-.682 1.114-.63 2.67-.788 2.736-.795.278-.02.519.174.546.449.027.274-.174.52-.448.547-.014.001-1.414.146-2.342.67-.077.045-.161.065-.245.065zm4.932-3.107c-.059 0-.119-.011-.178-.033-.013-.005-1.325-.498-2.395-.445-.282.004-.511-.198-.525-.474-.014-.276.198-.511.474-.525 1.279-.059 2.742.486 2.803.51.258.099.387.387.289.645-.077.199-.267.322-.468.322zm3.419-.886c-.143 0-.285-.061-.383-.179-.009-.011-.917-1.087-1.873-1.558-.248-.122-.35-.421-.227-.669.122-.247.422-.349.669-.227 1.147.565 2.155 1.763 2.198 1.813.177.212.148.527-.063.704-.094.077-.208.116-.321.116zm4.172-.59c-.143 0-.285-.061-.383-.179-.009-.011-.917-1.086-1.873-1.558-.248-.122-.35-.421-.227-.669.122-.247.421-.348.669-.227 1.147.565 2.155 1.762 2.198 1.812.177.212.148.527-.063.704-.094.079-.208.117-.321.117zm3.981-1.215c-.112 0-.225-.037-.317-.113-.011-.009-1.103-.897-2.129-1.183-.266-.074-.422-.35-.348-.616.074-.266.345-.422.616-.348 1.232.343 2.445 1.332 2.496 1.374.213.175.244.49.069.703-.098.121-.242.183-.387.183zm3.314-1.943c-.079 0-.16-.019-.236-.06-.012-.007-1.254-.668-2.315-.75-.275-.021-.481-.262-.46-.537.021-.276.289-.482.536-.46 1.275.098 2.655.835 2.714.867.243.131.334.434.203.677-.091.168-.263.263-.442.263zm2.617-2.142c-.054 0-.108-.009-.162-.027-.014-.005-1.364-.456-2.408-.365-.276.02-.518-.181-.541-.456s.181-.517.455-.541c1.276-.109 2.757.393 2.818.415.262.089.4.374.311.635-.071.209-.266.339-.473.339zm5.676-5.862c-.041 0-.083-.005-.125-.016-.014-.003-1.377-.349-2.43-.176-.268.047-.529-.139-.574-.412s.14-.53.412-.575c1.261-.207 2.779.177 2.842.194.268.069.428.341.359.609-.058.226-.261.376-.484.376zm-.833-2.392c-.219 0-.42-.145-.481-.366-.074-.266.081-.542.347-.616 1.233-.345 2.781-.123 2.848-.114.273.04.462.293.422.566-.04.272-.29.465-.566.423-.014-.002-1.41-.198-2.434.087-.046.015-.092.02-.136.02z" fill="#BBDDF5"/></svg>