<svg xmlns="http://www.w3.org/2000/svg" viewBox="0 0 36 36"><path fill="#D99E82" d="M10.481 25.519c-.706-.706-.706-1.861 0-2.567L32.433 1C33.139.294 34.294.294 35 1c.706.706.706 1.861 0 2.567L13.048 25.519c-.706.706-1.861.706-2.567 0z"/><path fill="#DD637F" d="M15.009 24.848l-3.901-3.901c-.583-.583-.583-1.538 0-2.121l.298-.298c.583-.583 1.538-.583 2.121 0l3.901 3.901c.583.583.583 1.538 0 2.121l-.298.298c-.583.583-1.538.583-2.121 0z"/><path fill="#DD637F" d="M2.95 22.466c3.118-3.118 8.004-3.286 10.915-.376s2.742 7.797-.376 10.915L2.95 22.466z"/><path fill="#BF345D" d="M11.922 34.664l-10.63-10.63c-.389-.389-.389-1.025 0-1.414l.199-.199c.389-.389 1.025-.389 1.414 0l10.63 10.63c.389.389.389 1.025 0 1.414l-.199.199c-.389.389-1.025.389-1.414 0zm4.862-9.587l-5.905-5.905c-.239.434-.251.945-.029 1.385l4.548 4.548c.441.223.952.211 1.386-.028z"/><path fill="#EB8CAA" d="M6 25c3-3 5.5-3.5 5.5-3.5S7 20 4 23l2 2z"/></svg>