<svg xmlns="http://www.w3.org/2000/svg" viewBox="0 0 36 36" xml:space="preserve"><path fill="#65471B" d="M20.409 24.866 20 22l7.548-16.983a2.84 2.84 0 0 1 1.476-1.456l5.517-2.364A.759.759 0 0 0 35 .5a.373.373 0 0 0-.479-.356l-8.296 2.489a2.842 2.842 0 0 0-1.762 1.529L19 16 0 36h9l1.859-1.859a8.688 8.688 0 0 1 2.616-1.797L21 29c2.463-1.642 10.996-2.61 13.969-2.904A1.144 1.144 0 0 0 36 24.958a.905.905 0 0 0-.956-.904l-14.635.812z"/><path fill="#BD9366" d="M33.485 14.893c-.061-.147-.1-.604-.31-1.04-.049-.076-.382-.523-.329-.491-.532-.572-.838-.829-1.454-1.274-.265-.008-.437-.029-.808-.525-2.567-1.545-5.955-3.929-10.796-3.958-4.472-.027-10.333 2.143-14.46 4.496-3.746 2.136-3.565 2.492-3.531 5.144l3.061 3.893c1.07 1.36 2.073 2.97 3.414 4.081.826.684 2.663 2.118 10.134 2.661.91.066 1.728.08 2.255-.006 2.763-.451 5.445-2.886 6.183-3.243 3.455-1.671 6.286-2.989 6.659-8.219a8.202 8.202 0 0 0-.018-1.519z"/><path fill="#77B255" d="M35.889 30.561c-1.763-2.455-5.232-6.206-8.654-3.772a.553.553 0 0 0-.179.236.757.757 0 0 0-.536.061c-1.764.919-4.409 1.574-3.225 8.428.031.182.158.339.341.423s.4.085.584.002c3.122-1.414 3.831-4.042 3.772-6.076.358.524.785.973 1.309 1.309 1.737 1.111 3.945.879 5.248.591a8.793 8.793 0 0 0 1.1-.31.548.548 0 0 0 .329-.377.615.615 0 0 0-.089-.515z"/><path fill="#5C913B" d="M24.5 34a.501.501 0 0 1-.5-.495c-.023-2.39.562-3.425 1.306-4.736.242-.428.505-.891.772-1.455.194-.41.634-.647 1.079-.598 2.452.284 5.13 2.016 6.678 3.413a.499.499 0 1 1-.67.742c-1.158-1.045-3.751-2.887-6.123-3.162-.34.623-.613 1.106-.866 1.553-.695 1.226-1.197 2.112-1.176 4.233a.5.5 0 0 1-.495.505H24.5z"/><path fill="#A57F5A" d="M33.182 14.629c-.362-.516-.971-2.118-1.403-1.877a1.01 1.01 0 0 0-.482-.144c-.069 0-.143.027-.216.044-.688-1.375-1.999-2.436-3.602-3.009-.265-.095-.493-.075-.679.015a55.723 55.723 0 0 1-.603-.451c-.512-.39-1.01.478-.505.863 1.13.862 1.668.95 1.722 2.407.224 6.007-.481 10.022-9.002 9.794-2.399-.064-5.718-1.876-8.156-3.884a7.352 7.352 0 0 1-.706-1.262c-.215-.508-.956-.61-1.387-.364-.054.031-.083.076-.127.112a9.476 9.476 0 0 0-1.866-1.036c-.506-.211-1.115.228-1.247.708-.161.584.201 1.036.708 1.247 3.812 1.589 1.494 3.724 8.324 5.482 1.264.325.725 2.279-.539 1.954-3.22-.829-10.199-5.75-10.199-5.75.086.096.847 10.93 14.543 11.461.372.014 12.158.67 15.078-10.759.443-1.737 1.813-3.455.344-5.551z"/><path fill="#BD9366" d="M19.759 24.881c-.025-.554.483-1.003 1.013-1.013.238-.004.473-.023.711-.044l.04-.003.037-.007c.114-.02.228-.038.342-.06.394-.077.783-.181 1.167-.299.795-.245 1.569-.553 2.354-.83.535-.189 1.087.215 1.246.707.177.546-.209 1.07-.707 1.246-1.699.6-3.358 1.281-5.189 1.315-.569.011-.99-.472-1.014-1.012z"/><path fill="#936D46" d="M18.242 9.687c-3.366-.51-6.829-.297-9.155 1.931-.386.369-.566.895-.57 1.441-.463.533-.712 1.175-.508 2.015.258 1.062.364 1.804 1.388 2.269 6.479 2.941 17.775 3.036 18.668-4.408.425-3.538-6.808-2.791-9.823-3.248z"/><path d="M18.826 28.109c.024.537-.477 1.005-1 1a19.065 19.065 0 0 1-6.425-1.17c-.526-.195-.827-.664-.698-1.23.113-.495.739-.88 1.23-.698 1.964.727 3.854 1.079 5.893 1.098.561.005.976.454 1 1zm14.147-13.543c-.184-.507-.682-.848-1.231-.696-.49.136-.881.721-.696 1.231.526 1.451 1.138 3.071.791 4.635-.15.675-.441 1.255-.957 1.722-.624.566-1.359 1.03-2.037 1.529-.434.32-.65.869-.356 1.369.252.429.931.678 1.369.356.833-.613 1.741-1.187 2.497-1.895.686-.642 1.154-1.511 1.381-2.417.497-1.984-.085-3.969-.761-5.834z" fill="#BD9366"/><path fill="#77B255" d="M24.986 3.599a.485.485 0 0 0-.002-.221c-.001-.002-.003-.004-.003-.007-.004-.015-.014-.027-.02-.041a.508.508 0 0 0-.093-.159c-.007-.007-.008-.018-.015-.025C20.95-.757 18.173.329 16.84.85c-.182.071-.335.133-.462.165a.5.5 0 0 0-.326.709c.016.031 1.155 2.214 4.08 2.724-.343.578-.639 1.28-.883 2.116a.502.502 0 0 0 .277.597c.305.135.621.202.946.202 1.412 0 2.985-1.256 4.45-3.597.021-.034.029-.073.041-.11.005-.015.018-.025.021-.041.004-.006.001-.011.002-.016z"/><path fill="#5C913B" d="M20.722 3.03c-.598-.322-1.275-.688-2.38-1.056a.5.5 0 1 1 .317-.948c1.187.396 1.937.799 2.538 1.124.374.202.7.375 1.06.513-.108.029-.22.043-.325.086a3.071 3.071 0 0 0-.811.493 22.623 22.623 0 0 1-.399-.212zm1.253 2.628C22.347 4.542 23.173 4 24.5 4a.5.5 0 0 0 0-1c-1.763 0-2.964.81-3.475 2.342a.5.5 0 0 0 .95.316z"/><g fill="#DEAD74"><path d="M21.272 10.135C9.833 9.704 7.708 14.489 9.381 16.409c.519.595 1.148.951 1.852 1.297 1.173.576.227 2.37-.945 1.795-4.128-2.026-4.263-5.481-1.868-7.823-1.461.576-1.931-1.41-.768-1.88 1.62-.654 3.298-1.073 5.004-1.339-.515-.093-1.426-.053-1.514-1.032-.166-1.857 2.62-.745 4.557-.272 1.363-.834 2.896-1.02 4.496-.893 1.153.091 1.358 1.26.647 1.838 1.89.064 1.627 2.081.43 2.035z"/><path d="M8.764 23.59c-1.97-3.539-4.057-3.525-5.385-5.45-2.436-3.533 2.76-4.666 1.844-7.751-.372-1.249-2.33-.717-1.957.539.284.957-1.482 1.487-2.295 3.977a4.908 4.908 0 0 0 .134 3.408c-1.169.207-1.011 1.771-.097 1.953.735.146 1.158.293 1.759.524.266.175 2.663.983 4.245 3.824.625 1.121 2.428.19 1.752-1.024zm25.914-9.412c-.411-.843-1.103-1.522-1.865-2.1a18.34 18.34 0 0 0-.311-1.108c.815-.233 1.052-1.608.025-1.947-.97-.32-2.074.404-2.122 1.651a26.297 26.297 0 0 0-4.936-2.326c-1.219-.426-1.896 1.485-.589 1.941 3.732 1.304 1.823 4.862-1.373 6.759-2.489 1.074-5.175 1.31-7.567.49-1.086-.372-1.905 1.477-.432 1.982 3.262 1.118 7.204.335 10.223-1.365 1.709-.963 3.306-3.694 2.988-5.638-.051-.309.293-.519.548-.349.873.581 1.684 1.398 1.644 1.761-.21 1.925-.414 2.872-2.426 4.353-.413.304-.677.887-.511 1.421.15.482.716.8 1.174.554.925-.497 1.815-1.149 2.524-2.177.735-1.039.82-2.079 1.102-3.154.439.752.569 1.72.185 2.798-.19.533.185 1.154.674 1.231 1.752.341 1.89-3.044 1.045-4.777zm-12.126 7.521c-.392-2.012-4.323.709-7.849-1.502-1.196-.75-2.219 1.001-1.154 1.669 2.487 1.56 5.411 1.335 8.202 1.024.545-.062.9-.685.801-1.191z"/></g><path fill="#5DADEC" d="M22.445 9.049c-2.104-.534-4.604 2.159-5.291 4.864-.471 1.856.046 3.222 1.088 4.078 1.742.128 3.549-.203 5.265-.943a9.703 9.703 0 0 0 1.129-.795c.045-.136.101-.257.139-.404.686-2.706-.225-6.266-2.33-6.8z"/><path fill="#3B94D9" d="M23.862 10.161a.083.083 0 0 0-.048.095c.253 1.157.252 2.454-.039 3.6-.687 2.706-2.713 3.533-4.817 2.998-.718-.182-1.348-.504-1.844-.95a.044.044 0 0 0-.05-.006.044.044 0 0 0-.022.045 3.346 3.346 0 0 0 1.19 2.047c1.745.13 3.556-.201 5.275-.943a9.703 9.703 0 0 0 1.129-.795c.045-.136.101-.257.139-.405.488-1.92.168-4.265-.81-5.659a.087.087 0 0 0-.103-.027z"/><path fill="#A8E0F9" d="M21.33 10.255c-.574-.146-1.464.454-1.987 1.339-.523.886-.483 1.722.091 1.867s1.464-.454 1.987-1.339c.524-.885.483-1.721-.091-1.867z"/><path fill="#5DADEC" d="M18.823 14.933c-.685-2.706-3.178-5.399-5.276-4.864-2.098.534-3.007 4.094-2.322 6.8.134.53.333.968.56 1.358.969.293 1.987.531 3.028.697a.922.922 0 0 1-.081-.61c.107-.491.689-.953 1.207-.775.846.29 1.729.441 2.626.477.435-.806.575-1.831.258-3.083z"/><path fill="#3B94D9" d="M14.813 18.923a.922.922 0 0 1-.081-.61 1.02 1.02 0 0 1 .218-.421c-1.292.314-2.542.098-3.472-.744a.093.093 0 0 0-.151.098c.119.369.274.685.444.977a23.2 23.2 0 0 0 3.042.7zm4.01-3.99a7.864 7.864 0 0 0-1.026-2.303.044.044 0 0 0-.055-.016.043.043 0 0 0-.023.052c.03.097.057.193.082.29.578 2.277-.323 3.826-1.876 4.579.005.002.01.001.014.003.845.29 1.727.441 2.623.477.438-.804.579-1.829.261-3.082z"/><ellipse transform="rotate(-38.409 13.502 12.022)" fill="#A8E0F9" cx="13.501" cy="12.022" rx="1.274" ry=".784"/></svg>