<svg xmlns="http://www.w3.org/2000/svg" viewBox="0 0 36 36"><path fill="#DD637F" d="M32.407 22.743c-1.024-2.991-2.742-5.684-4.518-8.275-1.027-1.498-2.107-2.966-3.09-4.493-.666-1.034-1.669-2.643-1.077-3.916.407-.875 1.495-1.092 2.336-.781 1.492.551 2.009 2.31 2.101 3.733.174 2.697 4.404 2.723 4.531 0 .174-3.702-2.184-7.239-5.842-8.172-3.679-.939-7.597 1.497-8.099 5.303-.508 3.857 2.49 7.148 4.529 10.094 1.952 2.82 3.963 5.727 4.793 9.104.347 1.413.691 3.337-.163 4.634-.68 1.034-2.007.675-2.986.262-1.59-.671-1.976-1.979-2.156-3.601-.212-1.915-.241-3.84-.632-5.734-.73-3.533-2.647-7.084-6.106-8.534-3.431-1.44-7.713-1.578-10.728.873-3.472 2.822-3.656 7.694-2.457 11.668 1.238 4.101 4.069 7.995 8.697 8.183 2.66.108 3.307-3.749.644-4.377-2.879-.679-4.077-3.502-4.707-6.144-.541-2.271-.381-5.801 2.429-6.429 2.481-.555 4.979.657 6.158 2.834 1.504 2.777 1.311 5.923 1.782 8.949.526 3.383 2.661 5.989 6.052 6.823 3.06.753 6.511.167 8.259-2.692 1.685-2.753 1.249-6.395.25-9.312z"/><path fill="#EF8EA7" d="M16.763 14.112c1.278.804 3.358 3.594 3.876 5.97.535 2.45.585 4.058.535 6.037-.045 1.775-.998 1.634-.958 0s-.206-3.902-.652-5.595c-.446-1.693-1.821-4.63-3.425-5.343l-7.908-.713s-2.982.6-3.787 6.015c-.245 1.649-.792 1.115-.757-.401.034-1.516.601-5.48 4.344-6.861 0 0 8.91.535 8.732.891z"/><path opacity=".85" fill="#BF345D" d="M25.839 12.78c.23-.071.464-.149.697-.235-.328-.467-.643-.943-.964-1.414-.115.041-.227.085-.347.12-.687.197-1.391.317-2.106.344-1.133.042-2.235-.141-3.296-.493.345.664.746 1.311 1.17 1.941.73.131 1.471.2 2.2.173.894-.035 1.792-.173 2.646-.436zm1.215 4.956c.764-.222 1.498-.548 2.187-.946l.128-.074c-.299-.471-.603-.937-.914-1.399-.593.352-1.208.655-1.871.849-.651.19-1.32.301-1.999.315-.397.008-.801-.044-1.202-.081.382.552.764 1.109 1.14 1.672.044 0 .088.009.132.009.808-.007 1.624-.119 2.399-.345zm4.876 3.769c-.212-.511-.446-1.013-.692-1.509-.677.401-1.395.711-2.154.919-.738.202-1.483.324-2.249.336-.132.002-.262-.007-.393-.012.274.517.535 1.04.766 1.576.814-.025 1.635-.125 2.415-.344.802-.225 1.579-.557 2.307-.966zm1.33 6.772c.032-.556.024-1.116-.024-1.676-.946.1-1.887.132-2.865-.049-.746-.138-1.475-.349-2.171-.651.126.584.228 1.223.242 1.852.524.175 1.056.325 1.601.415 1.027.169 2.141.234 3.217.109zm-13.201-1.306c.721-.56 1.667-.921 2.639-1.097-.049-.542-.095-1.084-.139-1.626-.409.01-.818.057-1.224.164-.912.24-1.749.654-2.503 1.218-.425.318-.796.708-1.137 1.121.044.399.094.797.155 1.192.083.536.221 1.044.384 1.538.149-.371.295-.735.523-1.092.36-.563.758-.996 1.302-1.418zm-1.349-5.26c1.01-.692 2.147-1.031 3.325-1.204-.127-.546-.286-1.088-.472-1.623-1.36.072-2.721.56-3.82 1.306-.323.219-.616.468-.903.722.208.703.351 1.42.456 2.147.401-.513.879-.982 1.414-1.348zm-1.361-4.906c.448-.361 1.096-.748 1.624-.949.301-.115.616-.191.931-.255-.386-.545-.82-1.05-1.303-1.506-.512.16-1.016.364-1.474.636-1.05.623-1.923 1.469-2.685 2.413.493.365.925.81 1.283 1.324.441-.636 1.049-1.199 1.624-1.663zm-9.905-2.136c-.27-.748-.414-1.522-.366-2.319.004-.068.021-.132.029-.199-.636.285-1.241.651-1.802 1.107-.03.024-.055.051-.084.076.048.609.162 1.203.341 1.731.404 1.191 1.111 2.355 1.992 3.327.224-.653.579-1.228 1.106-1.644-.02-.025-.045-.045-.065-.07-.476-.613-.888-1.278-1.151-2.009zm-4.67 2.233c-.281.796-.46 1.631-.54 2.485.409.428.842.814 1.257 1.138 1.164.909 2.52 1.585 3.958 1.905-.124-.566-.203-1.198-.21-1.842-.798-.333-1.561-.746-2.254-1.273-.836-.634-1.692-1.453-2.211-2.413zm.582 7.08c-.295-.077-.561-.188-.827-.301.092.422.196.84.318 1.246.089.295.189.588.294.88.727.146 1.467.211 2.162.212 1.089.003 2.176-.149 3.234-.417-.259-.509-.469-1.049-.651-1.6-.799.135-1.602.241-2.418.24-.715-.001-1.418-.08-2.112-.26zm1.681 5.315c-.026.007-.053.011-.079.018.372.516.785.993 1.232 1.428.662-.22 1.314-.476 1.93-.798.94-.492 1.809-1.125 2.572-1.863-.498-.316-.929-.706-1.297-1.16-.673.564-1.391 1.073-2.169 1.491-.698.374-1.426.672-2.189.884zM24.163 8.922c-.277-.519-.507-1.081-.582-1.637-.78-.002-1.557-.098-2.33-.317-.72-.204-1.394-.507-2.041-.883-.137-.08-.261-.177-.393-.264-.021.113-.049.223-.065.339-.068.519-.069 1.027-.021 1.526.448.245.915.455 1.403.636 1.266.47 2.661.678 4.029.6zm-1.86-5.826c.107.854.462 1.6.984 2.281.157.205.321.412.491.614.316-.576.941-.839 1.572-.826-.104-.104-.201-.214-.314-.356-.418-.522-.782-1.048-.922-1.71-.019-.093-.023-.146-.028-.32-.005-.151.001-.304.012-.455.016-.208.066-.433.166-.714.116-.329.32-.656.576-.941-.801.049-1.579.249-2.3.568-.222.586-.317 1.219-.237 1.859zm5.35.831c-.57.381-1.064.872-1.434 1.449.579.262 1.001.711 1.299 1.251.017-.037.028-.077.048-.113.281-.519.697-.964 1.147-1.235.568-.342 1.193-.526 1.868-.537.351-.006.709.01 1.056.06.041.006.081.015.122.022-.333-.641-.749-1.234-1.238-1.762-.041.001-.084-.003-.124-.001-.972.047-1.931.323-2.744.866zm2.108 29.766c-.115-.107-.227-.217-.334-.332l-.13-.143-.082-.097c-.205-.258-.393-.531-.561-.815-.08-.135-.153-.274-.225-.413l-.04-.081c-.032-.072-.062-.144-.091-.217-.126-.319-.225-.648-.294-.984-.044-.212-.042-.475-.032-.735-.022.038-.036.079-.06.116-.436.662-1.137.75-1.842.621.022.216.052.42.083.582.145.759.455 1.498.842 2.164.317.545.732 1.04 1.184 1.485.707-.162 1.375-.429 1.989-.804l-.051-.039c-.122-.098-.241-.201-.356-.308zm-6.593-2.765c.251-.436.548-.839.881-1.211-.51-.431-.815-.981-1.005-1.62-.643.576-1.185 1.294-1.57 1.92-.509.831-.872 1.725-.971 2.699-.009.091-.001.188-.005.282.636.565 1.367 1.036 2.201 1.378-.118-.472-.224-.943-.208-1.446.024-.713.327-1.393.677-2.002z"/><path fill="#BF345D" d="M8.543 10.815c1.604-.757 6.861-.757 9 1.292-.089.98-2.871 6.032-3.876 5.347-.98-.668-2.495-.802-4.144-.446-.936-.356-2.435-5.506-.98-6.193z"/><path fill="#D65073" d="M11.885 14.58c1.76.156 3.096.802 3.787 1.158.06-.055.119-.116.173-.178.48-.731.927-1.539 1.243-2.211l.032-.084c-.98-.891-3.257-1.565-5.69-1.562-2.241.003-3.493.795-3.493.795s-.127.829.475 2.558c.001.001 1.465-.654 3.473-.476z"/></svg>