<svg xmlns="http://www.w3.org/2000/svg" viewBox="0 0 36 36" xml:space="preserve"><path fill="#EF8294" d="M15.274 20.121c-2.712 0-4.91-2.837-4.91-7.063 0-4.319 2.035-6.272 2.896-6.905a.5.5 0 0 1 .667.068c.891.989 3.528 4.137 3.528 6.778 0 4.227.528 7.122-2.181 7.122zm5.452 0c2.712 0 4.91-2.837 4.91-7.063 0-4.319-2.035-6.272-2.896-6.905a.5.5 0 0 0-.667.068c-.891.989-3.528 4.137-3.528 6.778 0 4.227-.528 7.122 2.181 7.122z"/><path fill="#F4ABBA" d="M18 21.182c-5.17-5.25-3.322-6.513-14.294-10.218a.5.5 0 0 0-.62.276c-1.804 4.216-1.369 7.359 4.201 8.894-2.141-.014-4.393.249-6.813.492a.5.5 0 0 0-.447.55c.325 3.099 3.617 7.551 11.214 5.121A2.68 2.68 0 0 0 11 27.392c0 2.683 5.164 4.224 6.62 4.605a1.528 1.528 0 0 0 .76 0c1.456-.381 6.62-1.922 6.62-4.605 0-.387-.089-.751-.241-1.094 7.596 2.43 10.888-2.022 11.214-5.121a.5.5 0 0 0-.447-.55c-2.42-.243-4.671-.507-6.813-.492 5.57-1.535 6.004-4.678 4.201-8.894a.5.5 0 0 0-.62-.277C21.322 14.668 23.17 15.932 18 21.182z"/><path fill="#EA596E" d="M26.975 8.577a.56.56 0 0 0-.931.007l-3.259 4.961-.426-.001c0-.023.005-.044.005-.067 0-3.677-3.182-5.798-4.111-6.339a.502.502 0 0 0-.503 0c-.929.541-4.113 2.662-4.113 6.339 0 .023.005.044.005.067l-.426.001-3.26-4.961a.56.56 0 0 0-.931-.006c-1.417 2.086-2.438 4.673-1.86 7.472 1.098 5.323 5.866 7.944 10.837 6.769 4.968 1.175 9.736-1.445 10.834-6.769.577-2.8-.444-5.387-1.861-7.473z"/><path fill="#F4900C" d="m15.142 21.727-2.597-7.636h10.91l-2.597 7.636z"/><ellipse fill="#FFDC5D" cx="18" cy="14.091" rx="5.455" ry="1.636"/><path fill="#EA596E" d="M18.001 26c-2.411 0-4.365-2.309-4.365-5.748 0-3.797 3.167-5.992 4.106-6.558a.502.502 0 0 1 .518 0c.938.567 4.104 2.761 4.104 6.559 0 3.438-1.954 5.747-4.363 5.747z"/><path fill="#EF8294" d="M32 14.716a.503.503 0 0 0-.617-.491c-2.67.644-13.348 3.72-13.382 11.737-.035-8.017-10.713-11.093-13.383-11.737a.499.499 0 0 0-.618.491c.021 2.451.999 11.282 13.998 11.284h.004C31.001 25.998 31.979 17.167 32 14.716z"/></svg>