<svg xmlns="http://www.w3.org/2000/svg" viewBox="0 0 36 36"><path fill="#C1694F" d="M4.048 29.644c-.811-.558-1.541-4.073-.936-4.404.738-.402.686.835 2.255 2.362 1.569 1.528 6.47.913 7.708 1.326 1.363.455-6.385 2.533-9.027.716z"/><path fill="#D99E82" d="M5.367 27.603C4 22 4.655 18.919 5.433 16.861 6.8 13.24 16.699 5.169 23.8 2.637 25.678 1.967 31.62 1 35 1c.589 2.332-1.174 6.717-1.62 7.518-1.009 1.81-3.564 4.273-8.646 9.482-.252.258-5.119-.46-5.376-.191-.283.296 4.044 1.579 3.755 1.889-.738.79-1.495 1.624-2.268 2.507-.172.196-8.311-.923-8.484-.722-.232.27 7.501 1.862 7.266 2.14-.645.765-1.299 1.564-1.959 2.397-1.725 2.178-12.301 1.583-12.301 1.583z"/><path fill="#C1694F" d="M19.15 12.787c1.588.966 5.331 1.943 8.316 2.422 1.898-1.937 3.299-3.378 4.302-4.529-2.259-.49-5.742-1.3-7.487-2.087l-.816-.403-4.872 4.17.557.427z"/><path fill="#662113" d="M35.088 1.514c-.02-.179-.047-.352-.088-.514-.378 0-.792.014-1.225.036-3.438.178-8.307 1.006-9.975 1.601-.345.123-.702.27-1.059.418-.478.198-.964.416-1.459.654.356 1.481 1.126 3.144 1.807 4.013-1.703 1.323-3.317 2.704-4.836 4.115-5.655 5.248-10.021 10.872-13.005 15.242.04.174.076.344.12.524 0 0 .219.012.589.026 1.482-2.288 5.703-8.239 13.194-14.841 1.565-1.379 3.276-2.786 5.13-4.195 1.745.787 5.228 1.597 7.487 2.087.322-.369.606-.712.849-1.028.316-.412.569-.785.763-1.134.415-.746 1.969-4.594 1.708-7.004z"/><path fill="#C1694F" d="M35 1c-.369 0-.751-.003-1.138-.008-3.915 1.874-7.509 4.194-10.772 6.73-.68-.87-1.451-2.532-1.807-4.013-1.467.708-2.987 1.575-4.484 2.539.309 1.911.852 4.377 1.455 5.589C6.827 22.441.638 34.605.553 34.776c-.124.247-.023.547.224.671.071.036.147.053.223.053.184 0 .36-.102.448-.276.119-.238 12.144-23.883 33.659-33.72-.032-.174-.066-.343-.107-.504z"/></svg>