<svg xmlns="http://www.w3.org/2000/svg" viewBox="0 0 36 36" xml:space="preserve"><path fill="#C4C9C8" d="M8 8c0 .64.254 1.254.707 1.707a.256.256 0 0 1-.1.424l-.556.185A3 3 0 0 0 6 13.162v18.451c0 .002.002.004.004.004 0 .007-.004.014-.004.021 0 1.796 5.373 3.252 12 3.252s12-1.456 12-3.252c0-.007-.004-.014-.004-.021a.004.004 0 0 0 .004-.004V13.162a3 3 0 0 0-2.051-2.846l-.795-.265a.1.1 0 0 1-.04-.165l.178-.178A2.415 2.415 0 0 0 28 8H8z"/><path fill="#F19020" d="M29 6.8c0 1.657-4.925 3.2-11 3.2S7 8.457 7 6.8 11.925 4 18 4s11 1.143 11 2.8z"/><path fill="#F19020" d="M7 4h22v2.8H7z"/><ellipse fill="#F9CA55" cx="18" cy="4" rx="11" ry="3"/><ellipse fill="#AEB3B2" cx="18" cy="30.5" rx="11" ry="3"/><path fill="#F19020" d="M10.465 4c1.099-.582 4.053-1 7.535-1s6.436.418 7.535 1c.296-.157.465-.324.465-.5 0-.828-3.582-1.5-8-1.5s-8 .672-8 1.5c0 .176.169.343.465.5z"/><path fill="#AEB3B2" d="M18 12c-1.145 0-5.129-.07-8.335-.974a.5.5 0 1 1 .271-.963c3.083.87 6.952.937 8.064.937s4.981-.067 8.063-.937a.501.501 0 0 1 .271.963C23.129 11.93 19.145 12 18 12z"/><path fill="#FFF" d="M10 31a1 1 0 0 1-1-1V14a1 1 0 1 1 2 0v16a1 1 0 0 1-1 1z"/></svg>