<svg xmlns="http://www.w3.org/2000/svg" viewBox="0 0 36 36" xml:space="preserve"><path fill="#C4C9C8" d="M27.777 6.502c-.029-.011-.088-.027-.088-.027L5.633.801l-.002.007C4.478.512 2.674 2.698 1.55 5.786.426 8.874.403 11.708 1.477 12.222l-.002.007 20.543 9.831s.055.025.085.036c1.435.522 3.869-2.545 5.437-6.851 1.565-4.306 1.672-8.22.237-8.743z"/><path fill="#FFF" d="M22.979 9.523a1.01 1.01 0 0 1-.286-.042l-9.25-2.767a1 1 0 0 1 .572-1.916l9.25 2.767a1 1 0 0 1-.286 1.958z"/><path fill="#AEB3B2" d="M23.38 13.731c1.573-4.321 3.542-6.172 4.06-6.18.313.311.632 2.995-.941 7.315s-3.542 6.172-4.06 6.18c-.314-.31-.632-2.994.941-7.315z"/><ellipse transform="rotate(-70.001 4.356 6.807)" fill="#D9DDDC" cx="4.356" cy="6.807" rx="5.175" ry="1.882"/><path fill="#A6373B" d="M30.9 33.036c-.408-3.986-1.164-8.323-3.954-11.455-1.016-1.146-2.406-1.955-3.836-2.479L7.65 12.751c-.604-.291-1.019.628-.432.902a435.999 435.999 0 0 1 7.539 3.575c.429.198 8.365 4.047 8.446 4.077 4.077 2.279 4.686 7.323 4.867 11.732-2.901.151-5.07.748-5.07 1.463 0 .828 2.91 1.5 6.5 1.5s6.5-.672 6.5-1.5c0-.717-2.184-1.316-5.1-1.464z"/><path fill="#C4C9C8" d="M22.439 21.047c-.313-.311-.632-2.995.941-7.315 1.573-4.321 3.542-6.172 4.06-6.18l.337-1.049c-1.435-.522-3.869 2.545-5.437 6.851-1.567 4.306-1.674 8.22-.239 8.742l.338-1.049z"/><path fill="#BF6952" d="M24.111 19.935c2.294 1.097 3.683 3.48 4.68 5.735a.339.339 0 1 1-.63.249c-.418-1.153-.949-2.27-1.623-3.287-.67-1.001-1.497-1.931-2.542-2.475-.141-.07-.028-.297.115-.222z"/></svg>