<svg xmlns="http://www.w3.org/2000/svg" viewBox="0 0 36 36"><ellipse fill="#269" cx="17.5" cy="31.5" rx="8" ry="2"/><path fill="#3B88C3" d="M11.173 31.777s3.297.757 6.371.668c2.539-.074 5.614-.356 6.505-.757 0 0-1.069 1.381-6.416 1.381s-6.46-1.292-6.46-1.292z"/><ellipse fill="#269" cx="17.5" cy="15.25" rx="8.5" ry="2.25"/><path fill="#3B88C3" d="M33.582 16.654c3.518-.202 2.185 1.133 1.072 1.712-.505.262-1.515 1.738-2.098 4.234-.455 1.948-.847 5.658-5.213 5.391-2.994-.183-.045-7.084-.045-7.084s1.871 3.119 3.876-1.47c.895-2.049 1.409-2.726 2.408-2.783zM5.829 28.351c-1.112 0-2.138-.351-3.021-1.04C.858 25.789.167 22.812.167 21c0-2.422 1.331-4.875 3.875-4.875 1.546 0 2.209.537 2.911 1.104.394.319.801.648 1.48.988l-.782 1.931c-.849-.424-1.375-.85-1.798-1.192-.607-.491-.884-.715-1.811-.715-1.46 0-2.125 1.254-2.125 2.759 0 1.531.608 3.551 1.967 4.611.822.643 1.815.822 2.945.54l.425 2.017c-.486.122-.963.183-1.425.183z"/><path fill="#3B88C3" d="M29 24.727C29 31.254 22.1 32 17.5 32S6 31.254 6 24.727 10.775 12 17.5 12 29 18.2 29 24.727z"/><path fill="#269" d="M29.485 26.965c-.489.039-1.069-.757-1.069-.757-.847 2.049-3.342 4.589-11.139 4.589-6.995 0-9.579-2.139-10.96-3.965 0 0 .33 1.202-1.782.757-.648-.137-1.926-.768-2.966-1.658.34.524.749.998 1.239 1.38.883.689 1.91 1.04 3.021 1.04.354 0 .718-.047 1.087-.118 2.02 3.3 6.932 3.847 10.521 3.847 3.679 0 8.883-.566 10.798-4.097 3.525-.265 3.898-3.577 4.32-5.382.439-1.88 1.12-3.18 1.645-3.82-.03.013-.051.016-.082.031-1.826.891-1.871 7.93-4.633 8.153zM4.891 17.698c-.64-.362-1.96-.223-2.629.891-.442.736-.471 1.642-.34 2.316.028-1.462.691-2.664 2.12-2.664.926 0 1.204.224 1.811.715.289.234.636.508 1.092.793l.174-.492s-1.203-.98-2.228-1.559zm19.663-3.704c.284.159.446.328.446.506 0 .828-3.358 1.5-7.5 1.5s-7.5-.672-7.5-1.5c0-.178.162-.347.446-.506C9.533 14.353 9 14.785 9 15.25c0 1.243 3.806 2.25 8.5 2.25s8.5-1.007 8.5-2.25c0-.465-.533-.897-1.446-1.256z"/><ellipse fill="#269" cx="17.5" cy="11" rx="2.8" ry="1.5"/><ellipse fill="#269" cx="34.364" cy="17.141" rx="1.047" ry=".334"/></svg>