<svg xmlns="http://www.w3.org/2000/svg" viewBox="0 0 36 36"><path fill="#FFCC4D" d="M33.78 27.231c-1.291 1.871-4.5 5.347-6.505 6.817-2.005 1.47-2.862 1.13-5.033-.491-.893-.667-2.386-1.98-4.591-4.677-1.087-1.33-1.409-1.758-2.429-2.65-2.851-2.496-13.511-12.855-13.511-12.855-1.211-1.367-.454-3.368.586-5s2.905-3.26 4.57-4.805 3.527-2.54 5.469-1.094c1.22.909 7.031 6.671 12.044 11.522.566.547 1.367 1.37 2.361 2.05 3.52 2.406 5.168 4.411 5.881 5.391 1.413 1.942 2.449 3.921 1.158 5.792z"/><path fill="#FFAC33" d="M6.899 14.801s3.797 3.054 4.581 4.003c.784.949 8.337 9.946 9.121 11.019.784 1.073 2.518 3.467 2.518 3.467s-7.14-8.419-8.172-9.657-8.048-8.832-8.048-8.832zm6.562-1.569s2.352 2.641 2.848 2.972c.495.33.612-.017.083-.66-.53-.644-2.931-2.312-2.931-2.312zm4.003 4.994s4.664 4.375 5.407 5.448c.743 1.073 4.457 5.283 4.953 6.067.495.784.619 2.064.619 2.064s-1.114-2.435-2.683-4.086-4.829-4.994-5.448-5.695c-.619-.702-2.848-3.798-2.848-3.798zm1.6-1.9s3.358 2.024 4.206 3.016 3.975 3.807 4.547 4.537.636 1.159.636 1.159-1.166-1.479-2.893-2.963c-1.727-1.484-2.921-2.421-3.608-3.056s-2.888-2.693-2.888-2.693zm-5.149-7.551s2.93 1.981 3.467 2.6c.537.619 1.733 1.898 1.527 2.146s-1.321-1.156-1.981-1.692c-.661-.536-3.013-3.054-3.013-3.054z"/><path fill="#FFE8B6" d="M6.008 13.141c2.422-1.523 5.049-4.117 6.289-6.797.977-2.109.65-3.813-1.055-4.57-1.055-.469-3.24.158-4.18.742-2.266 1.408-4.765 4.296-5.624 6.289-.63 1.461-.791 2.941.039 4.219s3.263.914 4.531.117z"/><path fill="#F4900C" d="M24.992 34.054c-.304 0-.595-.175-.729-.47-.575-1.271-1.422-2.395-2.102-3.297-.154-.205-.3-.398-.433-.581-1.5-2.052-3.386-4.594-3.769-5.006-.314-.338-.94-1.133-1.665-2.052-.499-.634-1.013-1.287-1.413-1.772-1.412-1.713-1.495-3.458-.216-4.554 1.303-1.117 2.316-2.479 2.938-3.425.591-.9 1.331-1.142 1.848-1.186 1.153-.099 2.462.634 3.898 2.172.976 1.045 2.886 2.529 4.42 3.721l.33.256c2.333 1.815 3.998 3.47 5.09 5.061.25.364.158.862-.206 1.112-.366.253-.863.157-1.112-.206-.984-1.434-2.583-3.017-4.754-4.704l-.329-.256c-1.579-1.227-3.545-2.754-4.608-3.893-1.022-1.096-1.992-1.721-2.593-1.67-.153.013-.388.076-.646.469-.678 1.033-1.789 2.523-3.234 3.762-.795.682.021 1.851.409 2.321.406.492.929 1.156 1.436 1.8.645.817 1.311 1.663 1.58 1.954.525.565 2.895 3.79 3.888 5.15.13.177.271.363.42.562.728.966 1.633 2.169 2.28 3.6.183.403.004.877-.398 1.059-.107.05-.219.073-.33.073z"/><path fill="#FFE8B6" d="M15.696 27.613c-.384 0-.75-.223-.916-.597-.223-.505.006-1.096.511-1.318 1.573-.693 4.542-2.287 6.76-5.164 2.202-2.856 1.835-6.188 1.831-6.221-.065-.547.323-1.046.87-1.113.55-.072 1.046.318 1.114.865.021.168.489 4.161-2.231 7.689-2.489 3.229-5.791 5.003-7.537 5.773-.13.059-.267.086-.402.086z"/><path fill="#FFE8B6" d="M24.327 27.031c-.463 0-.879-.323-.978-.795l-1.133-5.395c-.074-.351.046-.714.313-.952s.642-.315.982-.201l4.688 1.566c.523.175.806.741.631 1.266-.174.522-.737.807-1.266.631l-3.033-1.014.774 3.688c.113.54-.232 1.07-.773 1.184-.067.015-.136.022-.205.022z"/><path fill="#FFAC33" d="M7.805 3.297c1.953-.977 3.235-.554 3.555-.234.43.43.625 1.758.039 3.047-1.079 2.373-4.18 5.43-6.016 6.406-1.13.601-2.984.535-3.359-.117-.742-1.289.111-3.022.859-4.375C3.898 6.188 6.318 4.04 7.805 3.297z"/><path fill="#C1694F" d="M11.398 6.109c.586-1.289.391-2.617-.039-3.047l-.003-.002c-1.169-.145-1.954.148-2.482.479-.608.382-1.208 1.324-1.325 2.105S6.836 7.226 6.19 7.349c-.566.107-1.419.126-2.161.946s-.326 2.072-.326 2.072c-1.578.054-1.675 1.355-1.49 2.231.608.456 2.17.449 3.169-.083 1.837-.976 4.938-4.033 6.016-6.406z"/><circle fill="#D99E82" cx="9.008" cy="5.377" r=".691"/><path fill="#D99E82" d="M5.383 12.516c1.836-.977 4.937-4.033 6.016-6.406.51-1.122.428-2.272.115-2.835-.066-.011-.125-.039-.194-.039-.681 0-1.232.552-1.232 1.232 0 .429.232.788.565 1.009-.199.201-.313.472-.347.768-.169-.05-.344-.086-.529-.086-1.024 0-1.853.83-1.853 1.853 0 .161.027.314.065.462-.363.188-.65.498-.802.881-.145-.108-.305-.192-.478-.253.204-.153.345-.386.345-.66 0-.464-.376-.84-.84-.84s-.84.376-.84.84c0 .244.108.46.275.613-.786.203-1.37.911-1.37 1.76 0 .125.013.247.037.364-.065-.01-.123-.039-.191-.039-.734 0-1.328.595-1.328 1.328 0 .139.039.265.079.391.741.151 1.774.047 2.507-.343z"/><g fill="#FFD983"><circle cx="3.318" cy="11.729" r=".657"/><path d="M6.957 11.426c.029-.091.046-.186.046-.288 0-.36-.18-.666-.443-.872.189-.16.315-.389.315-.656 0-.48-.389-.87-.87-.87s-.87.389-.87.87c0 .213.086.402.213.553-.348.192-.594.549-.594.975 0 .598.47 1.075 1.059 1.111.359-.226.739-.492 1.144-.823zM9.95 4.947c.313.229.738.182.948-.105s.127-.706-.187-.935c-.313-.229-.738-.182-.948.105-.21.287-.127.705.187.935zm1.471 1.104c-.239-.284-.587-.474-.994-.474-.736 0-1.332.585-1.332 1.306 0 .621.456 1.108 1.049 1.237.52-.684.964-1.372 1.254-2.012.009-.018.014-.037.023-.057zm-2.424 3.43c-.084-.338-.382-.594-.756-.594-.438 0-.792.345-.792.77 0 .377.284.676.652.742.304-.293.603-.599.896-.918z"/><circle cx="7.848" cy="7.732" r=".78"/></g><g fill="#FFE8B6"><ellipse cx="5.735" cy="10.963" rx=".684" ry=".645"/><circle cx="10.47" cy="5.943" r=".739"/><circle cx="8.55" cy="8.786" r=".708"/><circle cx="2.882" cy="11.86" r=".449"/><circle cx="6.547" cy="6.658" r=".613"/><circle cx="3.428" cy="9.977" r=".568"/><circle cx="9.164" cy="6.892" r=".568"/></g><g fill="#FFAC33"><ellipse cx="4.798" cy="8.875" rx=".488" ry=".469"/><ellipse cx="8.184" cy="6.803" rx=".547" ry=".469"/><ellipse cx="4.219" cy="12.016" rx=".527" ry=".488"/><ellipse cx="9.32" cy="4.909" rx=".43" ry=".469"/></g><g fill="#DD2E44"><circle cx="3.666" cy="12.187" r=".371"/><ellipse cx="6.728" cy="10.096" rx=".488" ry=".449"/><circle cx="7.694" cy="5.177" r=".41"/><circle cx="8.952" cy="7.947" r=".371"/><circle cx="5.148" cy="7.188" r=".511"/><ellipse cx="10.88" cy="4.13" rx=".391" ry=".352"/></g></svg>