<svg xmlns="http://www.w3.org/2000/svg" viewBox="0 0 36 36" xml:space="preserve"><path fill="#FFCC4D" d="M35.07 32.558a1.92 1.92 0 0 0 .836-2.241c-.259-.81-1.07-1.317-1.921-1.317H32a1 1 0 0 1 0-2h1.5a1.5 1.5 0 1 0-.04-3c-.8.021-1.46-.623-1.46-1.423v-.003c0-.293.06-.578.176-.847a15.294 15.294 0 0 0 1.294-7.191C32.978 6.66 26.411.269 18.524.009 9.724-.281 2.5 6.766 2.5 15.5c0 2.371.548 4.609 1.5 6.619v1.88c0 1.086-.865 2.021-1.951 2a2 2 0 0 0-2.034 2.167C.101 29.225 1.069 30 2.133 30h8.039A1.17 1.17 0 0 1 11 32l-3.03.757a1.281 1.281 0 0 0 0 2.485c1.932.483 3.914.737 5.905.756l2.712.026c1.406.014 2.803-.31 4.029-1a8.289 8.289 0 0 1 5.642-.913c3.028.588 6.167.034 8.812-1.553z"/><path fill="#65471B" d="M18.736 24.003c-.754 0-1.504-.078-2.244-.234-2.693-.571-5.003-2.115-6.338-4.236a1 1 0 0 1 1.692-1.066c1.033 1.642 2.925 2.892 5.06 3.345 1.767.375 4.507.393 7.536-1.642a1 1 0 0 1 1.116 1.66c-2.129 1.43-4.489 2.173-6.822 2.173z"/><ellipse fill="#65471B" cx="14" cy="12" rx="2" ry="3"/><ellipse fill="#65471B" cx="23" cy="14" rx="2" ry="3"/></svg>