<svg xmlns="http://www.w3.org/2000/svg" viewBox="0 0 36 36" xml:space="preserve"><path fill="#FFCC4D" d="M36 21c0 8.282-6.718 15-15 15-8.284 0-15-6.718-15-15 0-8.284 6.716-15 15-15 8.282 0 15 6.716 15 15"/><path fill="#F4900C" d="M22.864 1.134A1.51 1.51 0 0 0 21.55.004a1.608 1.608 0 0 0-.799.119l-5.775 2.446c-3.314 1.074-3.116.975-3.626 1.281-.915.547-2.007 1.513-3.961 3.377C5.728 8.811.059 9.794.041 15.297.034 17.438 1.698 19.192 4 19.185c2.423-.008 3.816-1.29 4.482-2.159a4.161 4.161 0 0 1 1.52-1.228c3.93-1.875 2.256-3.522 5.185-7.281a.712.712 0 0 0-.226-1.071l6.858-4.024c.608-.357.878-1.004.698-1.674l.095-.051a.505.505 0 0 0 .252-.563z"/><path fill="#B55005" d="M22.823 1.239a.348.348 0 0 0-.467-.164l-2.698 1.294a1.741 1.741 0 0 0-.088-1.165 1.524 1.524 0 0 0-.316-.447l-.764.323a.825.825 0 0 1 .444.417c.209.454.062 1.12-.623 1.518l-2.585 1.24c.269-.54.338-1.093.21-1.542a1.476 1.476 0 0 0-.224-.456l-.691.293a.714.714 0 0 1 .242.354c.196.689-.333 1.747-1.56 2.323-1.171.55-1.534 1.431-1.955 2.452-.193.467-.411.996-.734 1.553-.859 1.48-2.983 3.885-3.93 4.816a.35.35 0 1 0 .491.499c.915-.898 3.111-3.354 4.045-4.963l.004-.007.001-.001c.903-1.66 1.893-2.288 2.478-2.17.419.084.529.545.557.813a.35.35 0 0 0 .696-.072c-.08-.77-.497-1.303-1.116-1.427-.401-.082-.919.021-1.478.403.274-.542.606-.963 1.24-1.26.05-.023.09-.053.137-.077.01-.004.021-.002.032-.007l8.348-4.004c-.002-.009 0-.017-.003-.026l.094-.051a.5.5 0 0 0 .246-.325.335.335 0 0 0-.033-.134z"/><path fill="#65471B" d="M21 29.25c-4.076 0-6.156-.508-6.243-.53a1.001 1.001 0 0 1-.728-1.213 1.005 1.005 0 0 1 1.211-.728c.039.01 1.982.471 5.759.471 3.796 0 5.74-.466 5.76-.471a.999.999 0 0 1 .483 1.94c-.086.023-2.166.531-6.242.531zM18 14h-4a1 1 0 0 0 0 2h.519c-.319.532-.519 1.228-.519 2 0 1.658.896 3 2 3s2-1.343 2-3c0-.772-.2-1.468-.519-2H18a1 1 0 0 0 0-2zm10 0h-4a1 1 0 0 0 0 2h.519c-.319.532-.519 1.228-.519 2 0 1.657.896 3 2 3s2-1.342 2-3c0-.772-.2-1.468-.519-2H28a1 1 0 0 0 0-2z"/></svg>