<svg xmlns="http://www.w3.org/2000/svg" viewBox="0 0 36 36" xml:space="preserve"><path fill="#FFCC4D" d="M35 18c0 9.389-7.611 17-17 17-9.388 0-17-7.611-17-17C1 8.612 8.612 1 18 1c9.389 0 17 7.612 17 17"/><ellipse fill="#65471B" cx="18" cy="28" rx="4" ry="3"/><path fill="#F4F7F9" d="M27.899 14.557a4.5 4.5 0 1 1-8.8 1.885 4.5 4.5 0 0 1 8.8-1.885z"/><ellipse fill="#292F33" cx="23.5" cy="16.498" rx="2.5" ry="2.498"/><path fill="#65471B" d="M26.963 9.931a.999.999 0 0 1-.445-.105 7.949 7.949 0 0 0-5.295-.658 1 1 0 1 1-.426-1.954 9.932 9.932 0 0 1 6.613.822 1 1 0 0 1-.447 1.895zm-17.926 0a1 1 0 0 1-.447-1.895 9.94 9.94 0 0 1 6.613-.822 1 1 0 1 1-.426 1.954 7.949 7.949 0 0 0-5.295.658.999.999 0 0 1-.445.105z"/><path fill="#F19020" d="m13.995 13.645.324-.473s.708-1.032 1.739-.324c1.032.708.325 1.739.325 1.739l-.683.997c.168.128.332.259.491.389 0 0 .708-1.032 1.739-.324 1.032.708.325 1.739.325 1.739l-1.375 1.94c.138.184.363.289.476.477 0 0 .708-1.032 1.739-.325 1.033.708.325 1.74.325 1.74l-5.661 8.257a7.51 7.51 0 0 1-10.438 1.946 7.51 7.51 0 0 1-2.465-9.559c.589-1.17 1.034-2.407 1.451-3.648l1.054-3.131s.342-1.204 1.545-.863c1.203.342.862 1.545.862 1.545l-.913 4.568c.172.118.337.24.494.366l6.037-8.784s.708-1.032 1.739-.324.324 1.739.324 1.739l.546.313z"/><path fill="#F19020" d="m34.764 24.896.844-5.591a1.069 1.069 0 0 0-.897-1.217l-.124-.019a1.07 1.07 0 0 0-1.217.898l-.517 3.422-.004.014c-.202 1.295-1.305 1.219-1.72-.769-.012-.057-.031-.108-.046-.162l-1.552-7.69a.99.99 0 0 0-1.166-.775l-.278.056c-.536.108-.839.555-.731 1.091l1.32 6.783c.005.037.004.069.012.108.281 1.395-.395 1.22-.638-.305a1.388 1.388 0 0 0-.057-.218L26.69 14.29l-.083-.411c-.116-.574-.622-.969-1.196-.853l-.138.028a1.06 1.06 0 0 0-.83 1.25l1.408 6.978c.002.135.012.276.042.43.294 1.506-.581.77-1.107.047l-.001-.001-4.418-5.991a1.062 1.062 0 0 0-1.484-.224l-.114.084a1.06 1.06 0 0 0-.224 1.483l1.149 1.499 3.132 4.294c.009.015.014.03.024.045.935 1.383.882 1.957-.038.902l-3.4-4.612c-.074-.1-.17-.163-.268-.228a1.012 1.012 0 0 0-1.167.012l-.17.126a1.027 1.027 0 0 0-.217 1.435l2.743 3.719c.519.705.974 2.768 1.553 4.247.58 1.479 3.598 5.883 8.8 3.843 4.654-1.824 4.052-5.582 4.078-7.496z"/><g fill="#B55005"><path d="m13.997 13.667-5.515 8.399a.339.339 0 0 1-.471.098.34.34 0 0 1-.098-.471l5.515-8.399.569.373zm2.25 2.303-5.005 7.826a.34.34 0 0 1-.47.103.34.34 0 0 1-.104-.47l5.005-7.826.574.367zm1.209 3.721-3.711 5.9a.34.34 0 0 1-.47.107.341.341 0 0 1-.107-.47l3.711-5.9.577.363zm2.24-1.082 4.127 5.676a.341.341 0 0 1-.274.542.338.338 0 0 1-.275-.14l-4.127-5.676.549-.402zm7.662-4.455 1.608 7.821a.34.34 0 0 1-.667.137l-1.608-7.821.667-.137z"/><path d="M17.592 20.584c-.178-.242-.225-.611-.157-.906l-.679-.093c-.114.488-.009.999.287 1.403l1.315 1.782.408-.595-1.174-1.591z"/></g></svg>