<svg xmlns="http://www.w3.org/2000/svg" viewBox="0 0 36 36" xml:space="preserve"><path fill="#EA596E" d="M22 8c-2.543 0-2.382 2-4 2s-1.75-2-4-2c-4 0-13 7-13 9 0 1.943 5.631 2.411 10 4 4.792 1.743 9.312 5 12 5 5.35 0 12-7 12-9s-9-9-13-9z"/><path fill="#78273B" d="M18 14c-7.617 0-7.982 2.72-12.315 2.98a.2.2 0 0 0-.08.377C8.289 18.735 10.344 17 15 17c3 0 7.991 2.664 9 3 2.833.944 4.775-.787 6.667-2.667a.2.2 0 0 0-.133-.341C25.992 16.811 25.743 14 18 14z"/><path fill="#F4F7F9" d="M18 14c-4.695 0-6.634 1.032-8.446 1.885l.095.237a2.036 2.036 0 0 0 1.389 1.217c1.139.29 3.31.661 6.962.661s5.823-.371 6.962-.661a2.039 2.039 0 0 0 1.389-1.217l.095-.237C24.634 15.032 22.695 14 18 14z"/></svg>