<svg xmlns="http://www.w3.org/2000/svg" viewBox="0 0 36 36" xml:space="preserve"><path fill="#FFCC4D" d="M35 17c0 9.389-7.611 17-17 17-9.388 0-17-7.611-17-17C1 7.612 8.612 0 18 0c9.389 0 17 7.612 17 17"/><ellipse fill="#65471B" cx="12.5" cy="11.998" rx="2.5" ry="2.998"/><ellipse fill="#65471B" cx="23.5" cy="11.998" rx="2.5" ry="2.998"/><path fill="#F4900C" d="M26.503 27.371s.997-.721.165-1.614c-.832-.893-1.621.052-1.621.052L20.9 29.675c-.069-.205-.459-.743-.55-.947l5.755-5.366s.998-.721.164-1.615c-.832-.892-1.622.051-1.622.051l-5.413 5.046c-.125-.158-.461-.54-.594-.698l6.276-5.85s.997-.722.164-1.614c-.832-.893-1.621.051-1.621.051l-6.278 5.848c-.15-.145-.612-.609-.764-.746l5.866-5.468s.996-.722.164-1.614c-.833-.893-1.621.051-1.621.051l-6.203 5.781-.497.464-.222.207s-.538.744-1.087.179l1.842-4.158s.58-1.074-.493-1.655c-1.075-.581-1.655.493-1.655.493l-1.668 2.758c-.663 1.093-1.349 2.178-2.159 3.167a7.328 7.328 0 0 0 10.673 9.993l.447-.418 6.699-6.244z"/></svg>