<svg xmlns="http://www.w3.org/2000/svg" viewBox="0 0 36 36" xml:space="preserve"><path fill="#F3D2A2" d="M13.996 23.498a10.866 10.866 0 0 1-5.905-5.316 7.288 7.288 0 0 1-.5-5.225 2.849 2.849 0 0 1 1.844-1.936 4.835 4.835 0 0 1 3.121.021l1.741.607c.449.225.791.619.95 1.096l.436 1.307c.19.566.72.948 1.317.948 0 0 1 0 1-1v-2.22a3.8 3.8 0 0 0-1.368-2.92l-3.82-3.183a2.001 2.001 0 0 0-1.83-.387L5.614 6.825a2 2 0 0 0-1.013.673L0 12v8.77l1.266 3.142 3.179 1.419C5.128 25.127 5.838 25 6.5 25c2.694 0 6.023.642 8.905 2.804l.937.703a.949.949 0 0 0 1.239-.088L18 28v-2c0-1-4.004-2.502-4.004-2.502z"/><path fill="#F3D2A2" d="M31.399 7.498a2 2 0 0 0-1.012-.674L25.018 5.29a2 2 0 0 0-1.83.387l-3.82 3.183A3.8 3.8 0 0 0 18 11.78V14c0 1 1 1 1 1 .597 0 1.127-.382 1.316-.949l.436-1.307c.159-.477.501-.871.95-1.096l1.741-.607a4.835 4.835 0 0 1 3.121-.021 2.85 2.85 0 0 1 1.844 1.936 7.288 7.288 0 0 1-.5 5.225 10.87 10.87 0 0 1-5.905 5.316C22.004 23.498 18 25 18 26v2l.419.419a.949.949 0 0 0 1.239.088l.937-.703C23.477 25.642 26.806 25 29.5 25c.661 0 1.372.128 2.054.332l3.18-1.42L36 20.77V12l-4.601-4.502z"/><path fill="#E2C196" d="M4.445 25.331c-1.571-1.3-2.176-.836-3.179-2.419-.085-.13-1.06-2.083-1.266-2.142V28l1.967-1.475c.636-.477 1.532-.91 2.479-1.193l-.001-.001zm30.289-2.419c-1.003 1.583-1.608 1.119-3.18 2.42.948.283 1.843.716 2.479 1.193L36 28v-7.23c-.206.059-1.181 2.012-1.266 2.142z"/></svg>