<svg xmlns="http://www.w3.org/2000/svg" viewBox="0 0 36 36" xml:space="preserve"><path fill="#E0AA94" d="M2.965 15.5a2.5 2.5 0 0 0 2.5 2.5h.005L.465 20.5a2.5 2.5 0 0 0 2.5 2.5H4.25l-1.535 2.5a2.5 2.5 0 0 0 2.5 2.5H8.75L18 29V15.458L2.965 15.5z"/><path fill="#F7DECE" d="M16.219 4.625c-.611 1.381.208 3.354 2.188 4.75 1.3.917 3.151 1.187 3.344 2.391.073.46-.313 1.234-1.397 1.234H4.5s-2 0-2 2 2 2 2 2h11.633c-.029 0-.064 1-.082 1H2s-2 0-2 2 2 2 2 2h14.053c.017 0 .041 1 .069 1H4.25s-2 0-2 2 2 2 2 2h12.638c.118 0 .251 1 .398 1H8.75s-2 0-2 2 2 2 2 2H24c6.627 0 12-5.373 12-12 0-4.775-2.598-8.06-5.292-9.896C28.423 8.547 26.051 8.096 25.334 8c0 0-1.479-.123-2.865-1.156a57.846 57.846 0 0 1-3.866-3.125c-.359-.317-1.707-.625-2.384.906z"/><path fill="#E0AA94" d="M21.471 12.561c-.266.297-.552.372-.808.417.259 1.892.789 4.457 2.715 6.427 2.499 2.556 5.2 2.992 7.007 2.971 1.457-.017 2.147-.812-.012-1.045-2.706-.292-8.063-2.254-8.58-8.784a78.15 78.15 0 0 1-.035-.591s-.06.352-.287.605z"/></svg>