<svg xmlns="http://www.w3.org/2000/svg" viewBox="0 0 36 36"><path d="M5.208 12.674H2.374c-1.248 0-1.768-.91-1.768-1.794 0-.91.65-1.794 1.768-1.794h9.568c1.118 0 1.768.884 1.768 1.794 0 .884-.52 1.794-1.768 1.794H9.108v13.053c0 1.299-.832 2.027-1.95 2.027-1.118 0-1.95-.729-1.95-2.027V12.674zm11.258-1.742c.156-.936 1.17-2.002 2.548-2.002 1.301 0 2.314.937 2.601 1.872l3.066 10.296h.053l3.068-10.296c.285-.936 1.301-1.872 2.6-1.872 1.379 0 2.393 1.066 2.549 2.002l2.418 14.507c.025.156.025.312.025.443 0 1.143-.832 1.871-1.871 1.871-1.326 0-1.848-.598-2.029-1.82l-1.533-10.581h-.053l-3.119 10.894c-.182.623-.676 1.508-2.08 1.508s-1.899-.885-2.08-1.508l-3.121-10.894h-.051l-1.535 10.581c-.182 1.223-.702 1.82-2.028 1.82-1.04 0-1.872-.729-1.872-1.871 0-.131 0-.287.026-.443l2.418-14.507z" fill="#31373D"/></svg>