<svg xmlns="http://www.w3.org/2000/svg" viewBox="0 0 36 36"><path fill="#FFCC4D" d="M20 6.042c0 1.112-.903 2.014-2 2.014s-2-.902-2-2.014V2.014C16 .901 16.903 0 18 0s2 .901 2 2.014v4.028z"/><path fill="#FFAC33" d="M9.18 36c-.224 0-.452-.052-.666-.159-.736-.374-1.035-1.28-.667-2.027l8.94-18.127c.252-.512.768-.835 1.333-.835s1.081.323 1.333.835l8.941 18.127c.368.747.07 1.653-.666 2.027-.736.372-1.631.07-1.999-.676L18.121 19.74l-7.607 15.425c-.262.529-.788.835-1.334.835z"/><path fill="#58595B" d="M18.121 20.392c-.263 0-.516-.106-.702-.295L3.512 5.998c-.388-.394-.388-1.031 0-1.424s1.017-.393 1.404 0L18.121 17.96 31.324 4.573c.389-.393 1.017-.393 1.405 0 .388.394.388 1.031 0 1.424l-13.905 14.1c-.187.188-.439.295-.703.295z"/><path fill="#DD2E44" d="M34.015 19.385c0 8.898-7.115 16.111-15.894 16.111-8.777 0-15.893-7.213-15.893-16.111 0-8.9 7.116-16.113 15.893-16.113 8.778-.001 15.894 7.213 15.894 16.113z"/><path fill="#E6E7E8" d="M30.041 19.385c0 6.674-5.335 12.084-11.92 12.084-6.583 0-11.919-5.41-11.919-12.084C6.202 12.71 11.538 7.3 18.121 7.3c6.585-.001 11.92 5.41 11.92 12.085z"/><path fill="#FFCC4D" d="M30.04 1.257c-1.646 0-3.135.676-4.214 1.77l8.429 8.544C35.333 10.478 36 8.968 36 7.299c0-3.336-2.669-6.042-5.96-6.042zm-24.08 0c1.645 0 3.135.676 4.214 1.77l-8.429 8.544C.667 10.478 0 8.968 0 7.299c0-3.336 2.668-6.042 5.96-6.042z"/><path fill="#414042" d="M23 20h-5c-.552 0-1-.447-1-1v-9c0-.552.448-1 1-1s1 .448 1 1v8h4c.553 0 1 .448 1 1 0 .553-.447 1-1 1z"/></svg>