<svg xmlns="http://www.w3.org/2000/svg" viewBox="0 0 36 36"><path fill="#5DADEC" d="M33.662.049c-1.148-.077-5.869-.75-17.522 6.665C4.488 14.129-1.646 26.609 3.604 33.329c1.104 1.413 5.518 4.283 10.682.53 3.247-2.359 4.242-7.52 7.15-14.434 1.986-4.723 6.444-13.594 12.668-17.611 1.942-.97.22-1.72-.442-1.765z"/><path fill="#8CCAF7" d="M16.625 13.651c-.265-1.059.971-4.281 1.324-5.164-6.437 2.929-12.509 11.616-12.47 13.18.006.227.139.305.42.193 5.398-2.166 8.882 1.07 9.807 3.751.095.274.214.414.339.44.171.036.352-.15.494-.557C18.565 19.675 23.112 9.055 27.835 5c-2.648 1.28-10.106 6.797-11.21 8.651z"/><path fill="#BDDDF4" d="M14.242 12.989c-1.737.827-7.275 6.192-8.762 8.678.006.227.139.305.42.193 5.398-2.166 8.882 1.07 9.807 3.751.095.274.214.414.339.44.057-2.328-.092-7.616 2.213-11.561-4.061 3.707-5.076 3.618-4.017-1.501z"/><path fill="#F5F8FA" d="M8.725 23.663c-2.925 0-5.297 2.371-5.297 5.297 0 2.925 2.372 5.296 5.297 5.296s5.296-2.371 5.296-5.296c0-2.926-2.371-5.297-5.296-5.297z"/></svg>