<svg xmlns="http://www.w3.org/2000/svg" viewBox="0 0 36 36"><path fill="#66757F" d="M9 28.5c0-.828.672-1.5 1.5-1.5s1.5.672 1.5 1.5v.5s0 3 3 3 3-3 3-3V3.5c0-.829.671-1.5 1.5-1.5s1.5.671 1.5 1.5V29s0 6-6 6-6-6-6-6v-.5z"/><path fill="#744EAA" d="M19.5 4C28.612 4 36 9.82 36 17c0 0 0 2-1 2s-3-2-3-2H7s-2 2-3 2-1-2-1-2C3 9.82 10.387 4 19.5 4z"/><path fill="#9266CC" d="M19.5 4C26.403 4 32 9.82 32 17c0 0 0 2-2 2s-5-2-5-2H14s-3 2-5 2-2-2-2-2C7 9.82 12.596 4 19.5 4z"/><path fill="#744EAA" d="M19.5 4C23.09 4 25 9.82 25 17c0 0-3 2-5 2h-1c-2 0-5-2-5-2 0-7.18 1.91-13 5.5-13z"/><path fill="#5DADEC" d="M30.383 4.472c-.863 1.413-.403 3.247 1.028 4.099 1.431.852 3.291.398 4.154-1.014.607-.992.557-2.192-.021-3.114L33.061.09l-2.678 4.382zm-8.001 3c-.863 1.413-.403 3.247 1.028 4.099 1.431.852 3.291.398 4.154-1.014.607-.992.557-2.192-.021-3.114L25.061 3.09l-2.679 4.382zm-11.947-3c-.863 1.413-.402 3.247 1.028 4.099 1.431.852 3.291.398 4.154-1.014.607-.992.558-2.192-.022-3.114L13.114.09l-2.679 4.382zm-10 5.91c-.863 1.413-.402 3.247 1.028 4.099 1.431.851 3.291.398 4.154-1.014.607-.992.558-2.192-.022-3.114L3.114 6 .435 10.382z"/></svg>