<svg xmlns="http://www.w3.org/2000/svg" viewBox="0 0 36 36"><path fill="#77B255" d="M32.34 19.208c.198-1.475 2.669-2.208 2.669-4.542C35.009 12.333 29.25 8.25 21 16c3.812-5.312 6.542-14.509 2.203-14.509-1.47 0-2.579 1.342-4.328 1.342C16.5 2.833 16.208 0 14 0c-2.583 0-5 6.25 1 15-1.5-1.625-11.083-6.625-13.002-1.269-.628 1.753 1.731 2.781 1.544 4.519-.178 1.654-2.597 2.037-2.597 4.372 0 3.293 8.048 4.834 16.044-1.613-.245 4.524.557 10.515 3.857 14.158 1.344 1.483 2.407.551 2.822.187.416-.365 1.604-1.414.185-2.822-3.834-3.807-5.225-8.174-5.619-11.381 2.043 2.215 12.357 8.742 15.517 2.767.881-1.668-1.643-2.977-1.411-4.71z"/></svg>