<svg xmlns="http://www.w3.org/2000/svg" viewBox="0 0 36 36"><path fill="#D2A077" d="M26.992 19.016c-.255-.255-.799-.611-1.44-.962l-1.911-2-2.113 2h-.58l-2.509-3.634c-1.379.01-2.497 1.136-2.487 2.515l-3.556-2.112c-.817.364-1.389 1.18-1.389 2.133v.96l-4 4.168.016 2.185 9.984 10.729S27.525 19.71 27.55 19.74c-.129-.223-.513-.702-.558-.724z"/><g fill="#F3D2A2"><path d="M25.552 5.81c0-1.107-.906-2.013-2.013-2.013-1.107 0-2.013.906-2.013 2.013v12.245h4.025V5.81zm-4.605 12.244V16.01c-.008-1.103-.909-1.991-2.012-1.983-1.103.008-1.991.909-1.983 2.012l.012 2.016h3.983zM8.916 16h.168c1.059 0 1.916.858 1.916 1.917v4.166C11 23.142 10.143 24 9.084 24h-.168C7.857 24 7 23.142 7 22.083v-4.166C7 16.858 7.857 16 8.916 16zm6.918 2.96l-.056.062C15.304 19.551 15 20.233 15 21c0 .063.013.123.018.185.044.678.308 1.292.728 1.774-.071.129-.163.243-.259.353-.366.417-.89.688-1.487.688-1.104 0-2-.896-2-2v-6c0-.441.147-.845.389-1.176.364-.497.947-.824 1.611-.824 1.104 0 2 .896 2 2v2.778c-.061.055-.109.123-.166.182z"/><path d="M9.062 25c1.024 0 1.925-.526 2.45-1.322.123.183.271.346.431.497 1.185 1.115 3.034 1.044 4.167-.086.152-.152.303-.305.419-.488l-.003-.003C16.727 23.713 17 24 18 24h2.537c-.37.279-.708.623-1.024 1-1.228 1.467-2.013 3.606-2.013 6 0 .276.224.5.5.5s.5-.224.5-.5c0-2.548.956-4.775 2.377-6 .732-.631 1.584-1 2.498-1 .713.079.847-1 .125-1H18c-1.104 0-2-.896-2-2s.896-2 2-2h8c.858 0 1.66.596 1.913 1.415L29 24c.103.335.479 1.871.411 2.191C29.411 31 24.715 36 19 36c-6.537 0-11.844-5.231-11.986-11.734l.014.01c.515.445 1.176.724 1.91.724h.124z"/></g></svg>