<svg xmlns="http://www.w3.org/2000/svg" viewBox="0 0 36 36"><circle fill="#F4900C" cx="18" cy="18" r="17"/><path fill="#FFF" d="M12.866 18.095c-.398-.153-.81-.246-1.246-.246-.087 0-.179.012-.269.019-.084.006-.173.031-.259.041.036 2.613 1.536 4.874 3.715 6.006.05-.079.105-.154.15-.237.113-.21.209-.432.286-.666.025-.076.058-.146.079-.223.049-.186.075-.369.098-.552-1.457-.842-2.455-2.366-2.554-4.142zm1.377-6.056c.206.566.532 1.065.955 1.471.799-.515 1.745-.823 2.764-.823.996 0 1.919.298 2.706.791.117-.115.238-.219.346-.352.28-.346.49-.714.632-1.109-1.066-.68-2.328-1.08-3.684-1.08-1.37.001-2.646.408-3.719 1.102zm6.207 10.226c.065.586.25 1.132.582 1.645.008.012.018.02.026.032 2.214-1.123 3.742-3.405 3.774-6.046-.163-.02-.327-.036-.49-.036-.443 0-.874.085-1.283.228-.098 1.801-1.121 3.342-2.609 4.177z"/><path d="M24.415 27.034c-2.882 0-5.217-2.336-5.217-5.217 0-.862.21-1.675.581-2.391l-.61-.354c-.277.335-.691.553-1.16.553-.474 0-.892-.223-1.169-.564l-.636.37c.369.715.578 1.526.578 2.386 0 2.882-2.336 5.217-5.217 5.217-1.574 0-2.985-.698-3.941-1.801l-.192.12c1.079 1.361 2.442 2.27 4.122 2.664.457.107.902.162 1.342.189.135.008.272.023.406.024.04 0 .078-.005.117-.005.346-.003.686-.035 1.021-.088.061-.009.121-.019.181-.03 1.163-.213 2.264-.71 3.3-1.49.006-.005.037-.021.068-.027.005-.001.006-.005.012-.005.039 0 .071.026.078.031.114.088.232.165.349.246.136.094.272.186.411.271.147.09.295.179.445.258.255.134.514.251.778.354.121.047.244.087.367.127.299.098.601.183.911.24.064.012.129.016.193.026.317.049.64.076.968.082.063.001.124.006.188.006.277-.002.558-.015.843-.047 2.06-.236 3.728-1.202 5.027-2.819l-.188-.142c-.959 1.111-2.375 1.816-3.956 1.816zM11.563 16.599c1.824 0 3.429.937 4.362 2.355l.027.035.008.009c.179-.103.364-.215.554-.318.05-.027.063-.058.064-.096-.049-.149-.083-.306-.083-.472 0-.742.535-1.357 1.24-1.485v-.711c-2.762-.134-4.96-2.416-4.96-5.211 0-2.542 1.819-4.659 4.226-5.122v-.247c-1.116.072-3.487 1.215-4.553 2.442-1.488 1.713-2.074 3.71-1.779 5.961.015.111-.003.164-.118.21-3.567 1.43-5.438 5.283-4.36 8.978.068.235.157.464.239.701l.206-.095c-.187-.538-.291-1.115-.291-1.717.001-2.881 2.337-5.217 5.218-5.217zm18.442 3.062c-.491-2.726-2.026-4.631-4.576-5.714-.1-.043-.127-.088-.111-.192.123-.796.107-1.59-.033-2.382-.238-1.343-.852-2.549-1.712-3.538l-.009-.011c-.193-.221-.399-.428-.617-.625l-.095-.084c-.205-.179-.418-.347-.643-.503-.053-.037-.108-.071-.162-.107-.217-.142-.437-.277-.669-.397-.073-.038-1.278-.622-2.393-.77v.244c2.407.463 4.226 2.58 4.226 5.122 0 2.796-2.199 5.078-4.962 5.211v.708c.72.116 1.272.735 1.272 1.488 0 .183-.037.356-.097.518.008.011.004.022.023.033.194.107.385.22.58.334.928-1.442 2.546-2.397 4.388-2.397 2.882 0 5.217 2.336 5.217 5.217 0 .596-.101 1.168-.285 1.701.065.035.195.105.204.106.018-.044.038-.089.055-.135.473-1.24.634-2.52.399-3.827z" fill="#FFF"/></svg>