<svg xmlns="http://www.w3.org/2000/svg" viewBox="0 0 36 36"><path fill="#9266CC" d="M36 32c0 2.209-1.791 4-4 4H4c-2.209 0-4-1.791-4-4V4c0-2.209 1.791-4 4-4h28c2.209 0 4 1.791 4 4v28z"/><g fill="#FFF"><path d="M32.664 18.705l-3.959-1.596.295-4.258-2.742 3.272-3.959-1.596 2.265 3.617-2.741 3.273 4.141-1.035L28.228 24l.295-4.258z"/><path d="M28.228 24.5c-.17 0-.331-.086-.424-.234l-2.071-3.311-3.788.947c-.21.053-.431-.036-.545-.22-.115-.184-.099-.421.04-.587l2.509-2.994-2.073-3.309c-.115-.184-.099-.42.04-.586.14-.167.37-.224.57-.143l3.622 1.459 2.51-2.993c.139-.166.367-.223.57-.143.2.081.326.282.312.499l-.271 3.896 3.622 1.459c.201.081.327.282.312.498-.015.216-.167.398-.378.451l-3.788.948-.271 3.896c-.016.217-.168.398-.378.451-.039.011-.08.016-.12.016zm-2.264-4.618c.17 0 .331.086.424.234l1.447 2.314.189-2.724c.016-.217.168-.398.378-.451l2.647-.663-2.531-1.02c-.201-.081-.327-.282-.312-.499l.188-2.723-1.754 2.092c-.139.166-.369.224-.569.143l-2.531-1.02 1.448 2.312c.115.184.099.42-.04.586l-1.754 2.094 2.648-.662c.041-.008.082-.013.122-.013z"/></g><path fill="#FFF" d="M27.093 28.209c-1.316.527-2.693.799-4.093.799-6.065 0-11-4.926-11-10.992S16.935 7.033 23 7.033c1.401 0 2.778.301 4.092.828.122.05.385.136.392.139.641.281 1.859-1.031.471-2.015C25.34 4.032 22.247 3 19 3 10.729 3 4 9.729 4 18s6.729 15 15 15c3.295 0 6.432-1.061 9.07-3.07.398-.304.511-.853.265-1.288-.248-.436-.782-.618-1.242-.433z"/></svg>