<svg xmlns="http://www.w3.org/2000/svg" viewBox="0 0 36 36"><path fill="#EA596E" d="M36 32c0 2.209-1.791 4-4 4H4c-2.209 0-4-1.791-4-4V4c0-2.209 1.791-4 4-4h28c2.209 0 4 1.791 4 4v28z"/><path fill="#FFF" d="M18 22.5c-4.687 0-8.5-3.813-8.5-8.5s3.813-8.5 8.5-8.5 8.5 3.813 8.5 8.5-3.813 8.5-8.5 8.5zm0-14c-3.033 0-5.5 2.468-5.5 5.5s2.467 5.5 5.5 5.5 5.5-2.468 5.5-5.5-2.467-5.5-5.5-5.5z"/><path fill="#FFF" d="M18 31.5c-.829 0-1.5-.672-1.5-1.5v-9c0-.828.671-1.5 1.5-1.5s1.5.672 1.5 1.5v9c0 .828-.671 1.5-1.5 1.5z"/><path fill="#FFF" d="M22.875 27.5h-9.75c-.829 0-1.5-.672-1.5-1.5s.671-1.5 1.5-1.5h9.75c.829 0 1.5.672 1.5 1.5s-.671 1.5-1.5 1.5z"/></svg>