<svg xmlns="http://www.w3.org/2000/svg" viewBox="0 0 36 36"><path fill="#9266CC" d="M36 32c0 2.209-1.791 4-4 4H4c-2.209 0-4-1.791-4-4V4c0-2.209 1.791-4 4-4h28c2.209 0 4 1.791 4 4v28z"/><g fill="#FFF"><path d="M18 29.5c-4.687 0-8.5-3.813-8.5-8.5 0-4.687 3.813-8.5 8.5-8.5 4.687 0 8.5 3.813 8.5 8.5 0 4.687-3.813 8.5-8.5 8.5zm0-14c-3.033 0-5.5 2.467-5.5 5.5 0 3.032 2.467 5.5 5.5 5.5 3.032 0 5.5-2.468 5.5-5.5 0-3.033-2.468-5.5-5.5-5.5z"/><path d="M18 15.5c-5.109 0-7.58-2.79-8.131-3.507C9.388 11.543 8.053 10.5 7 10.5c-1.297 0-1.94.563-1.967.587-.604.543-1.547.519-2.106-.07-.559-.59-.562-1.503.013-2.077C3.086 8.792 4.452 7.5 7 7.5s4.811 2.189 5.061 2.439c.07.07.133.146.188.229.057.08 1.69 2.332 5.752 2.332 4.083 0 5.736-2.309 5.752-2.332.055-.082.117-.159.188-.229C24.19 9.689 26.452 7.5 29 7.5s3.913 1.292 4.061 1.439c.586.585.586 1.536 0 2.121-.586.586-1.535.586-2.121 0-.002 0-.645-.561-1.94-.561-1.052 0-2.384 1.04-2.869 1.494-.552.718-3.024 3.507-8.131 3.507z"/></g></svg>