<svg xmlns="http://www.w3.org/2000/svg" viewBox="0 0 36 36"><path fill="#9266CC" d="M36 32c0 2.209-1.791 4-4 4H4c-2.209 0-4-1.791-4-4V4c0-2.209 1.791-4 4-4h28c2.209 0 4 1.791 4 4v28z"/><g fill="#FFF"><path d="M28.999 30.5c-.157 0-.317-.024-.475-.077-.02-.006-2.975-.923-10.525-.923s-10.505.917-10.535.926c-.785.253-1.631-.178-1.887-.962s.165-1.626.947-1.887c.133-.044 3.325-1.077 11.475-1.077 8.149 0 11.343 1.033 11.475 1.077.786.262 1.21 1.111.948 1.897-.209.629-.795 1.026-1.423 1.026z"/><path d="M12 8h3v20h-3zm9 0h3v20h-3z"/><path d="M17.999 9.5c-8.15 0-11.342-1.033-11.474-1.077-.786-.262-1.211-1.112-.949-1.898.261-.783 1.104-1.208 1.889-.951.046.014 3.006.926 10.534.926 7.551 0 10.506-.916 10.534-.926.785-.25 1.632.178 1.888.961.256.784-.165 1.626-.947 1.887-.132.044-3.326 1.078-11.475 1.078z"/></g></svg>