<svg xmlns="http://www.w3.org/2000/svg" viewBox="0 0 36 36"><path fill="#9266CC" d="M36 32c0 2.209-1.791 4-4 4H4c-2.209 0-4-1.791-4-4V4c0-2.209 1.791-4 4-4h28c2.209 0 4 1.791 4 4v28z"/><path fill="#FFF" d="M26 19.531c-1.616 0-3.027.477-4.117 1.316-.447-2.177-1.12-5.416-1.916-9.131-1.078-5.031-3.708-6.096-5.179-6.282-1.724-.221-3.451.536-4.787 1.982C8.963 5.671 7.431 5.531 7 5.531c-.829 0-1.5.671-1.5 1.5s.671 1.5 1.5 1.5c.155 0 1 .646 1 3.5v11c0 .828.671 1.5 1.5 1.5s1.5-.672 1.5-1.5V12.203c0-1.328.546-3.792 2.952-3.792 1.469 0 2.585 1.616 3.082 3.935 1.448 6.755 2.487 11.928 2.496 11.979.658 3.643-2.108 4.237-3.529 4.206-.828-.018-1.5.672-1.5 1.5s.671 1.5 1.5 1.5c2.573 0 5.171-1.198 6.122-3.511 1.252.735 2.759.998 4.141.859 3.083-.306 5.237-2.299 5.237-4.849-.001-2.606-2.314-4.499-5.501-4.499zm-.033 6.364c-1.153.117-2.562-.202-3.208-1.361.487-1.263 1.639-2.002 3.241-2.002 1.005 0 2.5.399 2.5 1.5 0 1.058-1.274 1.738-2.533 1.863z"/></svg>