<svg xmlns="http://www.w3.org/2000/svg" viewBox="0 0 36 36"><path fill="#9266CC" d="M36 32c0 2.209-1.791 4-4 4H4c-2.209 0-4-1.791-4-4V4c0-2.209 1.791-4 4-4h28c2.209 0 4 1.791 4 4v28z"/><path fill="#FFF" d="M30.5 18.5c0-.829-.672-1.5-1.5-1.5h-3.472c.291-6.296 3.25-8.705 3.371-8.8.662-.497.797-1.438.3-2.1-.497-.663-1.437-.796-2.101-.3-.18.135-4.242 3.296-4.567 11.2h-9.064C13.141 9.096 9.079 5.935 8.898 5.8c-.657-.494-1.583-.362-2.083.292-.5.652-.376 1.59.271 2.098.132.104 3.093 2.514 3.384 8.81H7c-.829 0-1.5.671-1.5 1.5 0 .828.671 1.5 1.5 1.5h3.398c-.535 5.524-3.161 7.691-3.31 7.809-.653.499-.784 1.433-.29 2.092.295.392.745.599 1.202.599.313 0 .629-.098.899-.3.173-.129 3.9-3.028 4.508-10.2h9.185c.607 7.172 4.335 10.071 4.507 10.2.269.201.582.298.892.298.451 0 .896-.204 1.192-.59.5-.652.376-1.591-.271-2.099-.125-.099-2.773-2.26-3.312-7.81H29c.828.001 1.5-.671 1.5-1.499z"/></svg>