<svg xmlns="http://www.w3.org/2000/svg" viewBox="0 0 36 36"><path fill="#3E721D" d="M30.001 29c-.348 0-.685-.181-.869-.504l-4.235-6.976c-.274-.479-.167-1.079.312-1.354l4.958-3c.156-.089.496-.166.664-.166.348 0 .672.198.856.521l3.107 5.122.164 2.232c.274.479-.958 1.184-1.438 1.458l-3.025 2.535c-.155.09-.326.132-.494.132z"/><path fill="#77B255" d="M23 32c-.553 0-1-.447-1-1v-6c0-.553.447-1 1-1h10c1.85 0 1.55-1.781 1.55-1.781s.327.562.375.651c.327.614.544 1.552.034 2.505l-3.089 6.122c-.145.289-.491.503-.87.503h-8z"/><path fill="#77B255" d="M22 35c-.26 0-.516-.102-.707-.293l-6-6c-.391-.391-.391-1.023 0-1.414l6-6c.191-.191.447-.293.707-.293.129 0 .259.024.383.076.374.154.617.52.617.924v12c0 .404-.243.77-.617.924-.124.052-.254.076-.383.076z"/><path fill="#3E721D" d="M20.593 3.299c.158.31.15.692-.054 1.004l-4.293 6.94c-.303.463-.886.639-1.348.336L9.974 8.525c-.15-.099-.374-.367-.45-.516-.158-.31-.129-.688.075-1l3.152-5.094L14.665.756c.303-.463 1.49.315 1.953.619l3.631 1.544c.152.099.268.232.344.38z"/><path fill="#77B255" d="M26.444 8.175c.251.493.057 1.094-.437 1.346l-5.347 2.724c-.492.25-1.094.055-1.344-.437l-4.542-8.91c-.839-1.649-2.29-.573-2.29-.573s.352-.546.41-.63c.399-.57 1.135-1.188 2.216-1.167L21.969.5c.324 0 .671.209.844.547l3.631 7.128z"/><path fill="#77B255" d="M29.571 7.705c.118.231.143.505.06.762l-2.621 8.071c-.17.525-.734.812-1.26.642l-8.07-2.623c-.258-.083-.464-.265-.583-.496-.059-.114-.096-.242-.107-.376-.032-.404.184-.786.544-.969l10.692-5.448c.36-.184.795-.134 1.103.13.103.086.184.192.242.307z"/><path fill="#3E721D" d="M3.375 24.542c.181-.297.51-.49.882-.479l8.161.005c.553.017 1.009.42.995.972l-.014 5.795c-.005.18-.116.512-.203.654-.181.297-.519.472-.891.461l-5.99-.008-1.993-1.019c-.551-.017-.513-1.435-.499-1.986l-.593-3.904c.004-.179.058-.348.145-.491z"/><path fill="#77B255" d="M4.451 17.002c.287-.472.902-.622 1.374-.335l5.126 3.119c.473.287.622.901.335 1.374l-5.197 8.543c-.96 1.58.717 2.25.717 2.25s-.65-.014-.751-.02c-.696-.038-1.609-.341-2.159-1.271L.27 24.842c-.171-.275-.174-.682.023-1.006l4.158-6.834z"/><path fill="#77B255" d="M2.407 14.589c.136-.224.355-.388.618-.454l8.245-2.006c.537-.132 1.077.197 1.208.734l2.007 8.244c.064.264.017.534-.118.757-.066.109-.155.208-.264.288-.326.238-.764.256-1.11.046l-10.25-6.235c-.346-.211-.531-.609-.469-1.008.02-.134.066-.256.133-.366z"/></svg>