<svg xmlns="http://www.w3.org/2000/svg" viewBox="0 0 36 36"><circle fill="#3B94D9" cx="18" cy="18" r="18"/><path fill="#FFF" d="M25.565 11.295c-2.116 0-4.195 1.322-5.799 2.712.609.669 1.021 1.198 1.147 1.364.172.227.423.534.733.882 1.236-1.084 2.689-2.044 3.919-2.044 2.09 0 3.79 1.7 3.79 3.79s-1.7 3.79-3.79 3.79c-2.337 0-5.484-3.456-6.402-4.668-.45-.596-4.521-5.826-8.729-5.826-3.697 0-6.705 3.008-6.705 6.705s3.008 6.704 6.705 6.704c2.055 0 4.073-1.248 5.657-2.594-.67-.726-1.122-1.307-1.255-1.483-.151-.199-.366-.462-.624-.757-1.204 1.032-2.594 1.919-3.778 1.919-2.09 0-3.79-1.7-3.79-3.79s1.7-3.79 3.79-3.79c2.338 0 5.484 3.456 6.402 4.668.45.596 4.521 5.826 8.729 5.826 3.697 0 6.704-3.007 6.704-6.704.001-3.696-3.006-6.704-6.704-6.704z"/></svg>