<svg xmlns="http://www.w3.org/2000/svg" viewBox="0 0 36 36"><path fill="#269" d="M36 32c0 2.209-1.791 4-4 4H4c-2.209 0-4-1.791-4-4V4c0-2.209 1.791-4 4-4h28c2.209 0 4 1.791 4 4v28z"/><circle fill="#FFF" cx="27" cy="7" r="3"/><path fill="#FFF" d="M13.06 13.06l2.367-2.366 3.859 1.158-2.635 2.847c1.766.694 3.282 1.875 4.392 3.379l5.017-5.017c.373-.373.523-.916.393-1.427-.129-.512-.518-.918-1.023-1.07l-9.999-3c-.529-.16-1.102-.015-1.492.376l-3 3c-.586.585-.586 1.536 0 2.121s1.535.585 2.121-.001zm16.065 4.949c-.316-.359-.787-.549-1.262-.503l-6.786.617c.632.867 1.135 1.833 1.464 2.879l3.548-.322-1.554 6.995c-.18.809.33 1.609 1.139 1.789.109.024.219.036.326.036.688 0 1.308-.476 1.463-1.175l2-9c.104-.468-.022-.956-.338-1.316zM13 16c-4.418 0-8 3.582-8 8s3.582 8 8 8 8-3.582 8-8-3.582-8-8-8zm0 14c-3.313 0-6-2.687-6-6s2.687-6 6-6c3.314 0 6 2.687 6 6s-2.687 6-6 6z"/></svg>