<svg xmlns="http://www.w3.org/2000/svg" viewBox="0 0 36 36"><path fill="#269" d="M30.5 18.572L26 25h2.575c-1.13 3.988-4.445 7.05-8.575 7.81V17h3c1.104 0 2-.896 2-2s-.896-2-2-2h-3v-1.349h-4V13h-3c-1.104 0-2 .896-2 2s.896 2 2 2h3v15.81c-4.13-.76-7.445-3.821-8.575-7.81H10l-4.5-6.428L1 25h3.33C5.705 31.289 11.299 36 18 36s12.295-4.711 13.67-11H35l-4.5-6.428z"/><path fill="#269" d="M18 0c-3.314 0-6 2.686-6 6s2.686 6 6 6 6-2.686 6-6-2.686-6-6-6zm0 9c-1.657 0-3-1.343-3-3s1.343-3 3-3 3 1.343 3 3-1.343 3-3 3z"/></svg>