<svg xmlns="http://www.w3.org/2000/svg" viewBox="0 0 36 36"><path fill="#9266CC" d="M36 32c0 2.209-1.791 4-4 4H4c-2.209 0-4-1.791-4-4V4c0-2.209 1.791-4 4-4h28c2.209 0 4 1.791 4 4v28z"/><circle fill="#FFF" cx="18" cy="4.5" r="2.5"/><path fill="#FFF" d="M17.472 18.27c3.113-.217 9.593-.668 9.593-3.598 0-2.993-6.341-3.215-9.049-3.31l-.305-.011c-10.314-.435-8.543-2.903-7.569-2.903.274.246 1.189.95 2.71.95.522 0 1.067-.084 1.62-.251.097-.029.165-.111.169-.205.004-.094-.055-.181-.149-.219l-1.461-.577 2.272-.449c.08-.016.146-.067.176-.137.03-.071.02-.151-.025-.212-.052-.068-1.269-1.803-3.355-1.803-2.849 0-5.141 1.483-5.141 4.039 0 3.09 7.322 3.957 10.597 3.957 6.272 0 6.59.839 6.59 1.007 0 .885-2.227 1.418-6.62 1.585-4.692.178-7.724 1.501-7.724 3.371 0 1.762 2.272 2.811 7.598 3.508 2.424.317 5.314.85 5.314 1.587-.001.009-.255.983-5.231 1.605-4.649.583-5.246 1.677-5.246 2.564 0 1.201 1.697 2.022 5.341 2.582 2.779.427 3.558 1.417 3.932 1.893.158.2.283.359.499.359.02 0 .07-.006.089-.01.207-.048.321-.268.306-.59-.01-.239-.229-2.357-4.521-3.005-2.677-.404-2.884-1.048-2.884-1.236 0-.094.12-.58 2.455-.907.324-.024 7.96-.626 7.96-3.32 0-2.216-4.462-3.023-8.398-3.733-1.984-.359-4.453-.805-4.453-1.273.001-.418.852-.976 4.91-1.258z"/><ellipse fill="#9266CC" cx="12.307" cy="6.9" rx=".76" ry=".442"/><path fill="#9266CC" d="M16 24.606h1v3.872h-1zm3 0h1v3.872h-1zm-3-9.531h1v3.872h-1zm3 0h1v3.872h-1z"/><path d="M17 19.81l2 .379v-8.541l-2-.084v8.246zm2 1.979l-2-.369v7.457c.538.065 1.438.277 2 .418v-7.506zm-2 8.546V33c0 .553.447 1 1 1s1-.447 1-1v-2.257c-.868-.199-1.422-.278-2-.408zm2-19.897V5.33c0-.553-.447-1-1-1s-1 .447-1 1v5.016l2 .092z" fill="#FFF"/></svg>