<svg xmlns="http://www.w3.org/2000/svg" viewBox="0 0 36 36"><path fill="#D99E82" d="M23 34c0 .553-2.687 1.466-6 1.466s-6-.913-6-1.466 2.686-1 6-1 6 .447 6 1z"/><path fill="#C1694F" d="M24 7.078s-1-1.039 0-2.039S25 2 25 2H9.031s0 2.039 1 3.039 0 2.02 0 2.02-5 1.971-5 9.971c0 8.001 5.977 16.995 5.977 16.995L17 34h6s6-8.961 6-16.961c0-8-5-9.961-5-9.961z"/><path fill="#D99E82" d="M25 2c0 .552-3.582 1-8 1s-8-.448-8-1S12.582.25 17 .25 25 1.448 25 2zm-8 31.225c-3.331 0-6.143-.565-7.25-1.304.725 1.294 1.246 2.084 1.256 2.1.063.555 2.72 1.445 5.994 1.445 3.313 0 6-.913 6-1.466 0 0 .52-.781 1.244-2.065-1.12.732-3.934 1.29-7.244 1.29z"/><path fill="#662113" d="M24.163 4.724c-.799.46-3.698 1.008-7.163 1.008s-6.365-.548-7.163-1.008c-.142.082-.226.167-.226.255 0 .583 3.308 1.262 7.389 1.262 4.08 0 7.389-.679 7.389-1.262 0-.088-.083-.173-.226-.255z"/><path fill="#662113" d="M10.387 6.467c2.594.71 5.403.814 6.613.814 1.215 0 4.037-.097 6.639-.815-.137-.388-.155-.912.361-1.427l.008-.01-.117.034c-2.479.682-7.009.969-7.009.969s-4.353-.287-6.832-.969h-.001c.497.513.476 1.025.338 1.404z"/><path fill="#D99E82" d="M17 18.612c4.808 0 9.216-.776 11.962-2.55-.072-1.319-.282-2.456-.583-3.434-.438.091-.862.348-1.345.509-3 1-8.034 1.25-10.034 1.25s-7.052-.293-10.052-1.293c-.48-.16-.843-.373-1.3-.464-.323 1.054-.539 2.295-.592 3.747 2.798 1.632 7.533 2.235 11.944 2.235z"/></svg>