<svg xmlns="http://www.w3.org/2000/svg" viewBox="0 0 36 36"><path fill="#9266CC" d="M36 32c0 2.209-1.791 4-4 4H4c-2.209 0-4-1.791-4-4V4c0-2.209 1.791-4 4-4h28c2.209 0 4 1.791 4 4v28z"/><path fill="#FFF" d="M18 30.5c-5.526 0-8-4.27-8-8.5V7c0-.829.671-1.5 1.5-1.5S13 6.171 13 7v15c0 1.29.36 5.5 5 5.5s5-4.21 5-5.5V7c0-.829.672-1.5 1.5-1.5S26 6.171 26 7v15c0 4.23-2.474 8.5-8 8.5z"/><path fill="#FFF" d="M4 21.5c-.384 0-.768-.146-1.061-.44-.586-.586-.586-1.535 0-2.121.525-.525.987-1.019 1.414-1.475C6.428 15.25 8.066 13.5 12 13.5c2.43 0 4.649 1.387 6.795 2.728C20.664 17.396 22.431 18.5 24 18.5c2.633 0 3.518-.945 5.457-3.015.447-.479.933-.996 1.483-1.545.586-.586 1.535-.586 2.121 0 .586.585.586 1.536 0 2.121-.524.525-.986 1.019-1.414 1.475C29.572 19.751 27.934 21.5 24 21.5c-2.431 0-4.649-1.387-6.795-2.728C15.335 17.604 13.57 16.5 12 16.5c-2.633 0-3.518.945-5.457 3.015-.448.479-.933.996-1.483 1.546-.292.293-.676.439-1.06.439z"/></svg>