<svg xmlns="http://www.w3.org/2000/svg" viewBox="0 0 36 36"><path fill="#C6D5DB" d="M33 34v2h-3.021v-2c0-1.657-1.353-3-3.021-3v-3C30.295 28 33 30.687 33 34z"/><path fill="#E1E8ED" d="M27.545 30c-.172 0-.337.026-.503.051v.957c1.628.045 2.937 1.363 2.937 2.992v2h1.091v-2.5c0-1.933-1.578-3.5-3.525-3.5zM21 34v2h3.021v-2c0-1.657 1.353-3 3.021-3v-3C23.705 28 21 30.687 21 34z"/><path fill="#C6D5DB" d="M26.538 30c.172 0 .337.026.503.051v.957c-1.628.045-2.937 1.363-2.937 2.992v2h-1.091v-2.5c.001-1.933 1.579-3.5 3.525-3.5zM33 2V0h-3.021v2c0 1.657-1.353 3-3.021 3v3C30.294 8 33 5.313 33 2z"/><path fill="#E1E8ED" d="M27.545 6c-.172 0-.337-.026-.503-.051v-.957C28.67 4.946 29.979 3.629 29.979 2V0h1.091v2.5c0 1.933-1.579 3.5-3.525 3.5zM21 2V0h3.021v2c0 1.657 1.353 3 3.021 3v3C23.705 8 21 5.313 21 2z"/><path fill="#C6D5DB" d="M26.538 6c.172 0 .337-.026.503-.051v-.957C25.414 4.946 24.105 3.629 24.105 2V0h-1.091v2.5c0 1.933 1.578 3.5 3.524 3.5zm.42 4v3c1.668 0 3.021 1.343 3.021 3v4c0 1.657-1.353 3-3.021 3v3C30.295 26 33 23.313 33 20v-4c0-3.313-2.705-6-6.042-6z"/><path fill="#E1E8ED" d="M27.545 12c-.172 0-.337.026-.504.051v.957c1.628.045 2.937 1.363 2.937 2.992v4c0 1.629-1.309 2.946-2.937 2.992v.957c.167.025.332.051.504.051 1.946 0 3.524-1.567 3.524-3.5v-5c.001-1.933-1.577-3.5-3.524-3.5z"/><path fill="#E1E8ED" d="M24.021 16c0-1.657 1.353-3 3.021-3v-3C23.705 10 21 12.687 21 16v4c0 3.313 2.705 6 6.042 6v-3c-1.668 0-3.021-1.343-3.021-3v-4z"/><path fill="#C6D5DB" d="M26.538 12c-1.946 0-3.524 1.567-3.524 3.5v5c0 1.933 1.578 3.5 3.524 3.5.172 0 .337-.026.503-.051v-.957c-1.628-.045-2.937-1.363-2.937-2.992v-4c0-1.629 1.309-2.946 2.937-2.992v-.957c-.165-.025-.33-.051-.503-.051zm-17.58 7v3c1.668 0 3.021 1.343 3.021 3v4c0 1.657-1.353 3-3.021 3v3C12.295 35 15 32.313 15 29v-4c0-3.313-2.705-6-6.042-6z"/><path fill="#E1E8ED" d="M9.545 21c-.172 0-.337.026-.504.051v.957c1.628.045 2.937 1.363 2.937 2.992v4c0 1.629-1.309 2.946-2.937 2.992v.957c.167.025.332.051.504.051 1.946 0 3.524-1.567 3.524-3.5v-5c.001-1.933-1.577-3.5-3.524-3.5z"/><path fill="#E1E8ED" d="M6.021 25c0-1.657 1.353-3 3.021-3v-3C5.705 19 3 21.687 3 25v4c0 3.313 2.705 6 6.042 6v-3c-1.668 0-3.021-1.343-3.021-3v-4z"/><path fill="#C6D5DB" d="M8.538 21c-1.946 0-3.524 1.567-3.524 3.5v5c0 1.933 1.578 3.5 3.524 3.5.172 0 .337-.026.503-.051v-.957C7.414 31.946 6.105 30.629 6.105 29v-4c0-1.629 1.309-2.946 2.937-2.992v-.957c-.166-.025-.331-.051-.504-.051zm.42-20v3c1.668 0 3.021 1.343 3.021 3v4c0 1.657-1.353 3-3.021 3v3C12.295 17 15 14.313 15 11V7c0-3.313-2.705-6-6.042-6z"/><path fill="#E1E8ED" d="M9.545 3c-.172 0-.337.026-.503.051v.957c1.628.046 2.937 1.363 2.937 2.992v4c0 1.629-1.309 2.946-2.937 2.992v.957c.166.025.331.051.503.051 1.946 0 3.524-1.567 3.524-3.5v-5C13.07 4.567 11.492 3 9.545 3zM6.021 7c0-1.657 1.353-3 3.021-3V1C5.705 1 3 3.687 3 7v4c0 3.313 2.705 6 6.042 6v-3c-1.668 0-3.021-1.343-3.021-3V7z"/><path fill="#C6D5DB" d="M8.538 3C6.592 3 5.014 4.567 5.014 6.5v5c0 1.933 1.578 3.5 3.524 3.5.172 0 .337-.026.503-.051v-.957C7.414 13.946 6.105 12.629 6.105 11V7c0-1.629 1.309-2.946 2.937-2.992v-.957C8.876 3.026 8.711 3 8.538 3zM29 33c0 1.104-.896 2-2 2s-2-.896-2-2V21c0-1.104.896-2 2-2s2 .896 2 2v12z"/><path fill="#EDF1F4" d="M25 21v12c0 1.104.896 2 2 2V19c-1.104 0-2 .896-2 2z"/><path fill="#C6D5DB" d="M29 15c0 1.104-.896 2-2 2s-2-.896-2-2V3c0-1.105.896-2 2-2s2 .895 2 2v12z"/><path fill="#EDF1F4" d="M25 3v12c0 1.104.896 2 2 2V1c-1.104 0-2 .896-2 2z"/><path fill="#C6D5DB" d="M11 36H7v-6c0-1.104.896-2 2-2s2 .896 2 2v6z"/><path fill="#EDF1F4" d="M9 28c-1.104 0-2 .896-2 2v6h2v-8z"/><path fill="#C6D5DB" d="M11 24c0 1.104-.896 2-2 2s-2-.896-2-2V12c0-1.104.896-2 2-2s2 .896 2 2v12z"/><path fill="#EDF1F4" d="M7 12v12c0 1.104.896 2 2 2V10c-1.104 0-2 .896-2 2z"/><path fill="#C6D5DB" d="M11 0H7v6c0 1.104.896 2 2 2s2-.896 2-2V0z"/><path fill="#EDF1F4" d="M9 8c-1.104 0-2-.896-2-2V0h2v8z"/></svg>