<svg xmlns="http://www.w3.org/2000/svg" viewBox="0 0 36 36"><path fill="#292F33" d="M19.083 35.5L12.25 12.292s-1.42.761-2.604 1.637c-.313.231-1.977 2.79-2.312 3.04-1.762 1.315-3.552 2.841-3.792 3.167C3.083 20.76 0 36 0 36l19.083-.5z"/><path fill="#4B545D" d="M26.5 15.25l-7.312-9.212L18 2.25l-5.373 6.484-.971 1.172C11.25 10.688 10 15.25 10 15.25L8.75 20 3.252 30.054.917 34.791 32 35l-5.5-19.75z"/><path fill="#292F33" d="M12 34h2l2-15.75 1.234-1.797 3.578-5.234.094-1.469-3.287 4.454L15 17.752l-2.388 7.362L12 27l-1.791 3.134L8 34zm12.059-17.616l-1.965 5.897L21 26l2.792 7.625 3.552-.062S23 26.625 23 26c0-.12.625-2.687.625-2.687l1.094-4.531L25 17.25l-.941-.866z"/><path fill="#292F33" d="M36 36s-.384-3.845-.854-7.083c0 0-.146-3.885-1.271-5.167-1.049-1.195-2.624-1.875-2.833-1.962l-1.229-3.523L27.953 13l-2.422-2.125-1.844-1.626-.505-.621L18 2.25l2.289 7.299.524 1.67 3.246 5.165.66 2.397 1.438 2.281.774 2.701L28 27.5 26 34l10 2z"/><path fill="#5C903F" d="M33.708 32.438c-1.345 0-4.958.562-5.458.562-2 0-4.25-1.75-5.25-1.75S19.406 33 17.406 33c-1.688 0-2.406-.812-4.719-.812-.748 0-4.096.871-4.812.781C6.052 32.741 5.115 32 4.656 32 2 32 0 36 0 36h36s-.875-3.562-2.292-3.562z"/></svg>