<svg xmlns="http://www.w3.org/2000/svg" viewBox="0 0 36 36"><path fill="#DD2E44" d="M16.806 10.675c-.92-2.047-2.003-4.066-3.026-6.26-.028-.068-.051-.138-.082-.206-.064-.142-.137-.277-.208-.413l-.052-.111-.002.003C11.798.698 8.343-.674 5.46.621 2.414 1.988 1.164 5.813 2.67 9.163c1.505 3.351 5.194 4.957 8.24 3.589.106-.047.205-.105.306-.159 1.935.438 1.994 1.877 1.994 1.877s4.618-1.521 3.596-3.795zM4.876 8.173c-.958-2.133-.252-4.527 1.575-5.347 1.826-.822 4.084.242 5.042 2.374.958 2.132.253 4.526-1.573 5.346-1.828.821-4.087-.241-5.044-2.373z"/><path fill="#99AAB5" d="M26.978 34.868c1.163-.657 2.187-2.474 1.529-3.638L16.754 10.559c-1.103.496-2.938 2.313-3.544 3.912l13.768 20.397z"/><path fill="#DD2E44" d="M30.54.62c-2.882-1.295-6.338.077-7.976 3.067l-.003-.003-.053.112c-.071.135-.145.27-.208.412-.03.068-.053.137-.081.206-1.023 2.194-2.107 4.213-3.026 6.26-1.021 2.274 3.597 3.796 3.597 3.796s.059-1.439 1.993-1.877c.102.054.2.111.307.159 3.045 1.368 6.733-.238 8.24-3.589 1.505-3.35.255-7.175-2.79-8.543zm.584 7.553c-.959 2.132-3.216 3.194-5.044 2.373-1.826-.82-2.531-3.214-1.572-5.346.956-2.132 3.214-3.195 5.041-2.374 1.827.82 2.532 3.214 1.575 5.347z"/><path fill="#CCD6DD" d="M9.022 34.868c-1.163-.657-2.187-2.474-1.529-3.638l11.753-20.671c1.103.496 2.938 2.313 3.544 3.912L9.022 34.868z"/><path fill="#99AAB5" d="M19.562 17.396c0 .863-.701 1.562-1.562 1.562-.863 0-1.562-.699-1.562-1.562 0-.863.699-1.562 1.562-1.562.862 0 1.562.699 1.562 1.562z"/></svg>