<svg xmlns="http://www.w3.org/2000/svg" viewBox="0 0 36 36"><path fill="#B78B60" d="M20.5 2.965c-1.381 0-2.5 1.119-2.5 2.5v.005L15.5.465c-1.381 0-2.5 1.119-2.5 2.5V4.25l-2.5-1.535c-1.381 0-2.5 1.119-2.5 2.5V8.75L7 18h13.542L20.5 2.965z"/><path fill="#D5AB88" d="M31.375 16.219c-1.381-.611-3.354.208-4.75 2.188-.917 1.3-1.187 3.151-2.391 3.344-.46.073-1.234-.313-1.234-1.397V4.5s0-2-2-2-2 2-2 2v11.633c0-.029-1-.064-1-.082V2s0-2-2-2-2 2-2 2v14.053c0 .017-1 .041-1 .069V4.25s0-2-2-2-2 2-2 2v12.638c0 .118-1 .251-1 .398V8.75s0-2-2-2-2 2-2 2V24c0 6.627 5.373 12 12 12 4.775 0 8.06-2.598 9.896-5.292 1.557-2.285 2.009-4.658 2.104-5.375 0 0 .123-1.479 1.156-2.865 1.469-1.969 2.5-3.156 3.125-3.866.317-.358.625-1.706-.906-2.383z"/><path fill="#B78B60" d="M23.439 21.471c-.297-.266-.372-.552-.417-.808-1.892.259-4.457.789-6.427 2.715-2.556 2.499-2.992 5.2-2.971 7.007.017 1.457.812 2.147 1.045-.012.292-2.706 2.254-8.063 8.784-8.58.028-.002.387-.024.591-.035 0 0-.352-.06-.605-.287z"/></svg>