<svg xmlns="http://www.w3.org/2000/svg" viewBox="0 0 36 36"><path fill="#90603E" d="M26.992 19.016c-.255-.255-.553-.47-.875-.636l-.4-1.356-8.012-.056-.307 1.091c-.467.095-1.041.389-1.393.718l-3.611-3.954c-.817.364-1.389 1.18-1.389 2.133v.96l-4 4.166.016 2.188 9.984 10.729s10.518-15.288 10.543-15.258c-.127-.224-.511-.703-.556-.725z"/><g fill="#AF7E57"><path d="M24.581 18H18c-.208 0-.411.021-.607.061l-.073-.278-3.273-12.464s-.416-1.957 1.54-2.372c1.956-.416 2.372 1.54 2.372 1.54l3.097 11.569c.446.024.878.063 1.305.107l2.061-10.512s.188-1.991 2.18-1.804c1.991.188 1.803 2.179 1.803 2.179L26.34 17.187l-.221 1.194c-.464-.235-.982-.381-1.538-.381zM8.916 16h.168c1.059 0 1.916.858 1.916 1.917v4.166C11 23.142 10.143 24 9.084 24h-.168C7.857 24 7 23.142 7 22.083v-4.166C7 16.858 7.857 16 8.916 16zm6.918 2.96l-.056.062C15.304 19.551 15 20.233 15 21c0 .063.013.123.018.185.044.678.308 1.292.728 1.774-.071.129-.163.243-.259.353-.366.417-.89.688-1.487.688-1.104 0-2-.896-2-2v-6c0-.441.147-.845.389-1.176.364-.497.947-.824 1.611-.824 1.104 0 2 .896 2 2v2.778c-.061.055-.109.123-.166.182z"/><path d="M9.062 25c1.024 0 1.925-.526 2.45-1.322.123.183.271.346.431.497 1.185 1.115 3.034 1.044 4.167-.086.152-.152.303-.305.419-.488l-.003-.003C16.727 23.713 17 24 18 24h2.537c-.37.279-.708.623-1.024 1-1.228 1.467-2.013 3.606-2.013 6 0 .276.224.5.5.5s.5-.224.5-.5c0-2.548.956-4.775 2.377-6 .732-.631 1.584-1 2.498-1 .713.079.847-1 .125-1H18c-1.104 0-2-.896-2-2s.896-2 2-2h8c.858 0 1.66.596 1.913 1.415L29 24c.103.335.479 1.871.411 2.191C29.411 31 24.715 36 19 36c-6.537 0-11.844-5.231-11.986-11.734l.014.01c.515.445 1.176.724 1.91.724h.124z"/></g></svg>