<svg xmlns="http://www.w3.org/2000/svg" viewBox="0 0 36 36"><path fill="#9266CC" d="M36 32c0 2.209-1.791 4-4 4H4c-2.209 0-4-1.791-4-4V4c0-2.209 1.791-4 4-4h28c2.209 0 4 1.791 4 4v28z"/><path fill="#FFF" d="M27.152 18l3.716-6.504c.177-.31.176-.69-.003-.998C30.686 10.19 30.356 10 30 10h-7.42l-3.712-6.496c-.355-.623-1.381-.623-1.736 0L13.42 10H6c-.356 0-.686.19-.865.498-.179.308-.18.688-.003.998L8.848 18l-3.716 6.504c-.177.31-.176.689.003.998.179.309.509.498.865.498h7.42l3.712 6.496c.178.312.509.504.868.504s.69-.192.868-.504L22.58 26H30c.356 0 .686-.189.865-.498.179-.309.18-.688.003-.998L27.152 18zm1.124-6L26 15.984 23.723 12h4.553zm-3.428 6l-3.428 6h-6.84l-3.429-6 3.429-6h6.839l3.429 6zM18 6.016L20.277 10h-4.553L18 6.016zM7.723 12h4.554L10 15.985 7.723 12zm0 12L10 20.015 12.277 24H7.723zM18 29.984L15.723 26h4.553L18 29.984zM23.723 24L26 20.016 28.276 24h-4.553z"/></svg>