<svg xmlns="http://www.w3.org/2000/svg" viewBox="0 0 36 36"><path fill="#88C9F9" d="M19 27.586V8.415l4.828-4.829s.707-.707 0-1.415c-.707-.707-1.414 0-1.414 0L19 5.586V1s0-1-1-1-1 1-1 1v4.586l-3.414-3.415s-.707-.707-1.414 0c-.707.708 0 1.415 0 1.415L17 8.415v19.171l-4.828 4.828s-.707.707 0 1.414 1.414 0 1.414 0L17 30.414V35s0 1 1 1 1-1 1-1v-4.586l3.414 3.414s.707.707 1.414 0 0-1.414 0-1.414L19 27.586z"/><path fill="#88C9F9" d="M34.622 20.866c-.259-.966-1.225-.707-1.225-.707l-6.595 1.767-16.603-9.586-1.767-6.595s-.259-.966-1.225-.707C6.24 5.297 6.5 6.263 6.5 6.263l1.25 4.664-3.972-2.294s-.866-.5-1.366.366c-.5.866.366 1.366.366 1.366l3.971 2.293-4.664 1.249s-.967.259-.707 1.225c.259.967 1.225.708 1.225.708l6.596-1.767 16.603 9.586 1.767 6.596s.259.966 1.225.707c.966-.26.707-1.225.707-1.225l-1.25-4.664 3.972 2.293s.867.5 1.367-.365c.5-.867-.367-1.367-.367-1.367l-3.971-2.293 4.663-1.249c0-.001.966-.26.707-1.226z"/><path fill="#88C9F9" d="M33.915 13.907l-4.664-1.25 3.972-2.293s.867-.501.367-1.367c-.501-.867-1.367-.366-1.367-.366l-3.971 2.292 1.249-4.663s.259-.966-.707-1.225c-.966-.259-1.225.707-1.225.707l-1.767 6.595-16.604 9.589-6.594-1.768s-.966-.259-1.225.707c-.26.967.707 1.225.707 1.225l4.663 1.249-3.971 2.293s-.865.501-.365 1.367c.5.865 1.365.365 1.365.365l3.972-2.293-1.25 4.663s-.259.967.707 1.225c.967.26 1.226-.706 1.226-.706l1.768-6.597 16.604-9.585 6.595 1.768s.966.259 1.225-.707c.255-.967-.71-1.225-.71-1.225z"/></svg>