<svg xmlns="http://www.w3.org/2000/svg" viewBox="0 0 36 36"><path fill="#F4900C" d="M33.629 16.565l-.092 1.608-.041.814c-.02.265-.092.529-.142.794l-.285 1.598c-.153.519-.326 1.028-.499 1.547-.743 2.025-1.791 4.029-3.246 5.698-1.445 1.689-3.134 3.175-5.006 4.396-1.903 1.221-3.867 2.167-6.126 2.859l-.385.121-.427-.142c-1.526-.499-2.798-1.099-4.101-1.832-1.272-.722-2.503-1.536-3.612-2.524l-.835-.732-.784-.794c-.529-.519-.987-1.109-1.455-1.689-.906-1.18-1.669-2.473-2.3-3.826-.611-1.353-1.109-2.768-1.404-4.213-.071-.366-.183-.722-.224-1.089l-.132-1.089c-.071-.733-.193-1.435-.153-2.279.061-1.618.56-3.175 1.313-4.508.773-1.343 1.75-2.503 2.849-3.48l3.46-3.053-1.669 4.174c-.57 1.435-.845 3.134-.193 4.202.315.529.885.814 1.587.824.733 0 1.475-.203 1.872-.692.407-.478.438-1.231.183-1.954-.326-.753-.631-1.77-.59-2.696 0-.946.275-1.893.753-2.717.488-.824 1.19-1.496 1.984-1.994l1.028-.641-.285 1.19c-.295 1.221-.081 2.503.733 3.287.804.784 2.076 1.058 3.103.794 1.028-.275 1.72-1.109 1.76-2.025.081-.946-.417-2.015-1.058-3.002L16.932 0l3.887 1.628c1.089.448 2.167.956 3.185 1.669 1.007.712 2.004 1.608 2.686 2.788.712 1.16 1.007 2.584.977 3.836 0 .315-.02.621-.041.926-.041.305-.051.55-.122.936-.122.682-.305 1.19-.458 1.709-.315.997-.519 2.025-.295 2.564.132.509 1.292.906 2.147.794.916-.092 1.77-.733 2.371-1.577.6-.855.916-1.923 1.079-2.981l.132-.834.295.763c.549 1.383.864 2.859.854 4.344z"/><path fill="#FFCC4D" d="M33.146 16.503c-.001-1.463.068-2.222-.507-3.52-.393 3.824-3.228 5.144-5.792 4.23-2.402-.857-.783-4.198-.664-5.793.202-2.703-.01-5.796-5.919-8.369 2.455 3.903.284 6.327-1.993 6.475-2.526.164-4.84-1.804-3.986-4.997-2.765 1.693-2.846 4.543-1.993 6.386.89 1.921-.036 3.518-2.206 3.695-2.426.199-3.773-2.158-2.531-5.913-2.151 2.104-3.676 4.837-3.449 7.805C5.142 30.035 17.841 33.93 17.841 33.93s15.319-3.757 15.305-17.427z"/><path fill="#DD2E44" d="M30.935 19.489c0-3.995-3.239-7.234-7.233-7.234-2.425 0-4.565 1.197-5.878 3.027-1.313-1.83-3.453-3.027-5.877-3.027-3.995 0-7.234 3.238-7.234 7.234 0 .566.072 1.114.195 1.643 1.004 6.24 7.943 12.824 12.915 14.632 4.972-1.808 11.911-8.391 12.914-14.631.126-.529.198-1.077.198-1.644z"/><path fill="#FFCC4D" d="M24.312 31.553s1.426-2.769 1.319-5.645c-.038-1.024-.327-2.019-.736-2.958-.958-2.196-2.806-7.706 1.147-10.661 0 0-.755 1.269-.085 3.581.265.915.761 1.741 1.35 2.49 1.36 1.732 4.219 6.501-.484 10.948l-2.511 2.245zm-7.659 3.728s-1.581-1.515-2.421-3.652c-.299-.761-.406-1.58-.406-2.398-.001-1.911-.409-6.529-4.242-7.427 0 0 .957.687 1.205 2.591.098.753-.001 1.516-.192 2.251-.441 1.701-.972 5.909 3.886 7.659l2.17.976z"/></svg>