<svg xmlns="http://www.w3.org/2000/svg" viewBox="0 0 36 36"><path fill="#DD2E44" d="M30.294 2.938c-1.294-.623-2.744-.972-4.276-.972-3.308 0-6.227 1.633-8.018 4.129-1.791-2.496-4.71-4.129-8.017-4.129-5.45 0-9.868 4.418-9.868 9.868 0 .772.098 1.52.266 2.241.06.371 1.578 2.584 1.578 2.584l.797 3.776C6.313 26.668 12.911 32.184 18 34.034c5.488-1.995 12.732-8.255 16.023-15.08L30.294 2.938z"/><path fill="#E6E7E8" d="M35.838 10.617l-1.354-.834 1.006-.835c-.077-.251-.168-.495-.264-.737l-1.3-.332.55-1.171c-.627-1.03-1.434-1.935-2.381-2.672l-2.031-.098L1.228 14.832l-.464 1.001c.297 1.044.699 2.088 1.196 3.119l32.091.015c.532-1.104.963-2.222 1.264-3.34l-.738-.818 1.098-.852c.153-.685.246-1.392.246-2.123-.001-.413-.034-.818-.083-1.217z"/><path fill="#D1D3D4" d="M35.489 8.947h-5.221l-4.434 1.67 10.003-.001c-.07-.572-.184-1.131-.348-1.669zm-3.395-4.911c-.554-.431-1.155-.802-1.795-1.108L.388 14.19c.092.546.219 1.094.375 1.643L32.094 4.036z"/><path fill="#BCBEC0" d="M15.525 15.628l19.789-.001c.14-.517.351-1.63.359-1.67l-15.712.001L35.226 8.21c-.207-.525-.46-1.026-.75-1.502L1.959 18.952c.241.5.5.998.781 1.491l12.785-4.815z"/></svg>