<svg xmlns="http://www.w3.org/2000/svg" viewBox="0 0 36 36"><path fill="#31373D" d="M18 32.625c-5.09 0-10.5-3.965-10.5-11.312 0-4.877 3.365-9.178 7.591-12.272C12.393 7.739 9.756 7 8 7c-2.708 0-5.499.914-5.527.923-.79.258-1.635-.165-1.896-.951-.261-.785.163-1.633.949-1.895C1.658 5.033 4.793 4 8 4c2.695 0 6.449 1.158 10.01 3.162C21.565 5.158 25.31 4 28 4c3.207 0 6.222 1.559 6.344 1.625.781.422 1.312.699 1.125 1.266-.182.551-.891.328-1.75.234-.029-.003-2.156-.391-5.688-.391-1.752 0-4.41 1.003-7.1 2.304 4.215 3.083 7.568 7.36 7.568 12.212C28.5 28.639 23.09 32.625 18 32.625zm.013-21.954c-4.03 2.585-7.513 6.345-7.513 10.642 0 6.056 4.6 8.312 7.5 8.312 2.899 0 7.5-2.273 7.5-8.375 0-4.27-3.468-8.005-7.487-10.579z"/></svg>