<svg xmlns="http://www.w3.org/2000/svg" viewBox="0 0 36 36"><path fill="#3B88C3" d="M36 32c0 2.209-1.791 4-4 4H4c-2.209 0-4-1.791-4-4V4c0-2.209 1.791-4 4-4h28c2.209 0 4 1.791 4 4v28z"/><path fill="#FFF" d="M24.109 12.226c0 1.954-.836 3.659-2.542 4.744 2.232 1.024 3.782 3.101 3.782 5.55 0 3.721-3.41 6.853-7.813 6.853-4.589 0-7.441-3.38-7.441-5.829 0-1.209 1.272-2.077 2.388-2.077 2.108 0 1.612 3.628 5.116 3.628 1.612 0 2.915-1.24 2.915-2.884 0-4.341-5.272-1.147-5.272-4.806 0-3.255 4.402-1.054 4.402-4.496 0-1.179-.836-2.078-2.232-2.078-2.945 0-2.542 3.038-4.651 3.038-1.271 0-2.015-1.147-2.015-2.294 0-2.418 3.317-5.023 6.759-5.023 4.466 0 6.604 3.256 6.604 5.674z"/></svg>