<svg xmlns="http://www.w3.org/2000/svg" viewBox="0 0 36 36"><path fill="#3B88C3" d="M36 32c0 2.209-1.791 4-4 4H4c-2.209 0-4-1.791-4-4V4c0-2.209 1.791-4 4-4h28c2.209 0 4 1.791 4 4v28z"/><path fill="#FFF" d="M10.219 21.683c0-4.682 4.744-11.255 7.875-14.17.248-.248.62-.496.992-.744.341-.217.683-.217.931-.217.867 0 2.201 1.147 2.201 2.264 0 .434-.279.806-.651 1.271-1.24 1.519-3.255 3.503-4.279 4.961l.062.062c.558-.248 1.271-.372 1.954-.372 3.721 0 6.479 3.287 6.479 6.945 0 4.03-3.194 7.69-7.783 7.69-4.773-.001-7.781-3.566-7.781-7.69zm4.837 0c0 1.736 1.085 3.225 2.945 3.225 1.768 0 2.946-1.427 2.946-3.225 0-1.643-.992-3.225-2.946-3.225-1.767 0-2.945 1.396-2.945 3.225z"/></svg>