<svg xmlns="http://www.w3.org/2000/svg" viewBox="0 0 36 36"><path fill="#3B88C3" d="M36 32c0 2.209-1.791 4-4 4H4c-2.209 0-4-1.791-4-4V4c0-2.209 1.791-4 4-4h28c2.209 0 4 1.791 4 4v28z"/><path fill="#FFF" d="M10.343 22.303c0-2.48 1.364-4.309 3.317-5.364-1.457-1.054-2.356-2.48-2.356-4.434 0-3.628 3.008-5.953 6.697-5.953 3.596 0 6.729 2.294 6.729 5.953 0 1.736-.869 3.473-2.389 4.434 2.109 1.055 3.318 2.977 3.318 5.364 0 4.31-3.504 7.069-7.659 7.069-4.277 0-7.657-2.915-7.657-7.069zm4.837-.311c0 1.582.93 3.102 2.821 3.102 1.768 0 2.822-1.52 2.822-3.102 0-1.953-1.116-3.1-2.822-3.1-1.797 0-2.821 1.364-2.821 3.1zm.589-8.991c0 1.395.807 2.356 2.232 2.356 1.426 0 2.264-.961 2.264-2.356 0-1.333-.807-2.357-2.264-2.357-1.457 0-2.232 1.024-2.232 2.357z"/></svg>