<svg xmlns="http://www.w3.org/2000/svg" viewBox="0 0 36 36"><path fill="#3B88C3" d="M36 32c0 2.209-1.791 4-4 4H4c-2.209 0-4-1.791-4-4V4c0-2.209 1.791-4 4-4h28c2.209 0 4 1.791 4 4v28z"/><path fill="#FFF" d="M25.784 14.241c0 4.682-4.743 11.255-7.875 14.17-.248.248-.62.496-.992.744-.341.217-.682.217-.93.217-.868 0-2.202-1.148-2.202-2.264 0-.434.279-.806.651-1.271 1.24-1.52 3.256-3.504 4.279-4.961l-.062-.062c-.558.248-1.271.372-1.953.372-3.721 0-6.48-3.287-6.48-6.945 0-4.031 3.193-7.689 7.782-7.689 4.775 0 7.782 3.565 7.782 7.689zm-4.837 0c0-1.736-1.086-3.225-2.946-3.225-1.767 0-2.945 1.426-2.945 3.225 0 1.644.992 3.225 2.945 3.225 1.769 0 2.946-1.396 2.946-3.225z"/></svg>