<svg xmlns="http://www.w3.org/2000/svg" viewBox="0 0 24 24" width="24" height="24"><path fill="none" d="M0 0h24v24H0z"/>
  <path d="M0,0H24V24H0V0Z" style="fill: none;"/>
  <path d="M22.15,3.78h-.02s-.04-.02-.04-.02c.02,.01,.03,.02,.05,.02h0Z" />
  <path d="M22.39,5.5h-.02s.02,0,.02,0Z" />
  <path d="M22.16,3.78s0,0,0,0c0,0,0,0,0,0,0,0,0,0,0,0h0Z" />
  <path d="M22.15,3.78h0s0,0,0,0Z" />
  <path d="M22.38,5.49l.03-.02h.01s0-.02,0-.02c-.02,0-.03,.02-.05,.03h0Z" />
  <path d="M22.2,3.82l-.03-.03h-.02s.03,.02,.05,.03h0Z" />
  <path d="M15.37,20.46s-.04,.02-.06,.04h.02s.03-.03,.04-.04Z" />
  <path d="M19.34,19.68s-.01-.02,0,.07c0,0,0-.01,0-.02,0-.02,0-.03,0-.05Z" />
  <path d="M18.93,20.46s-.04,.02-.06,.04h.02s.03-.03,.04-.04Z" />
  <path d="M12.58,20.64s-.04-.02-.06-.03c.02,0,.03,.02,.05,.02h.01Z" />
  <path d="M11.96,20.04s-.01-.05-.02-.07c0,.02,.02,.05,.02,.07h0Z" />
  <path d="M8.78,5.44h.01s0,.02,0,.02c0,0-.02-.01-.02-.02h0Z" />
  <path d="M12.53,11.16c-.79,.34-1.69,.72-2.85,.72-.49,0-.97-.07-1.44-.2l.8,8.25c.03,.34,.19,.67,.44,.9,.25,.23,.59,.36,.93,.36,0,0,1.14,.06,1.52,.06,.41,0,1.64-.06,1.64-.06,.35,0,.68-.13,.93-.36,.25-.23,.41-.56,.44-.9l.86-9.12c-.38-.13-.77-.22-1.21-.22-.76,0-1.37,.26-2.07,.56Z"/>
  <path d="M19.53,6.88l-.12-.61c-.11-.55-.36-1.07-.92-1.26-.18-.06-.38-.09-.52-.22-.14-.13-.18-.33-.21-.52-.06-.35-.11-.69-.18-1.04-.05-.3-.09-.63-.23-.9-.18-.37-.55-.58-.91-.72-.19-.07-.38-.13-.57-.18-.92-.24-1.88-.33-2.82-.38-1.13-.06-2.26-.04-3.39,.06-.84,.08-1.72,.17-2.52,.46-.29,.11-.59,.23-.81,.46-.27,.28-.36,.7-.16,1.05,.14,.25,.38,.42,.63,.53,.33,.15,.68,.26,1.03,.34,.99,.22,2.01,.3,3.01,.34,1.12,.05,2.23,0,3.34-.11,.27-.03,.55-.07,.82-.11,.32-.05,.53-.47,.43-.76-.11-.35-.42-.49-.76-.43-.05,0-.1,.02-.15,.02h-.04c-.12,.02-.23,.03-.35,.05-.24,.03-.48,.05-.73,.06-.54,.04-1.09,.06-1.63,.06-.54,0-1.07-.02-1.61-.05-.24-.02-.49-.04-.73-.06-.11-.01-.22-.02-.33-.04h-.1s-.02-.02-.02-.02l-.11-.02c-.22-.03-.44-.07-.66-.12-.02,0-.04-.02-.06-.03-.01-.02-.02-.04-.02-.06s0-.04,.02-.06c.01-.02,.03-.03,.06-.03h0c.19-.04,.38-.08,.57-.11,.06-.01,.13-.02,.19-.03h0c.12,0,.24-.03,.36-.04,1.04-.11,2.09-.15,3.14-.11,.51,.01,1.02,.04,1.52,.1,.11,.01,.22,.02,.33,.04,.04,0,.08,.01,.12,.02h.08c.25,.05,.49,.09,.73,.15,.36,.08,.82,.1,.98,.5,.05,.12,.07,.26,.1,.39l.04,.17s0,0,0,0c.08,.39,.17,.79,.25,1.18,0,.03,0,.06,0,.09,0,.03-.02,.06-.03,.08-.02,.02-.04,.05-.06,.06-.03,.02-.05,.03-.08,.03h-.05s-.05,.01-.05,.01c-.16,.02-.32,.04-.49,.06-.32,.04-.64,.07-.96,.09-.64,.05-1.28,.09-1.92,.1-.33,0-.65,.01-.98,.01-1.3,0-2.6-.08-3.89-.23-.14-.02-.28-.03-.42-.05,.11,.01-.08-.01-.12-.02-.09-.01-.18-.03-.27-.04-.3-.04-.59-.1-.89-.15-.36-.06-.7-.03-1.03,.15-.27,.15-.48,.37-.62,.64-.14,.29-.18,.61-.24,.92-.06,.31-.16,.65-.12,.97,.08,.69,.56,1.25,1.26,1.38,.65,.12,1.31,.21,1.97,.3,2.59,.32,5.2,.35,7.8,.11,.21-.02,.42-.04,.63-.06,.07,0,.13,0,.19,.02,.06,.02,.12,.06,.17,.1,.05,.05,.08,.1,.11,.17,.02,.06,.03,.13,.02,.19l-.07,.64c-.13,1.29-.26,2.58-.4,3.87-.14,1.36-.28,2.71-.42,4.07-.04,.38-.08,.76-.12,1.14-.04,.38-.04,.76-.11,1.13-.11,.58-.51,.94-1.08,1.07-.53,.12-1.07,.18-1.61,.19-.6,0-1.2-.02-1.8-.02-.64,0-1.43-.06-1.92-.53-.43-.42-.49-1.08-.55-1.64-.08-.75-.16-1.5-.23-2.25l-.44-4.18-.28-2.7s0-.09-.01-.13c-.03-.32-.26-.64-.62-.62-.31,.01-.66,.28-.62,.62l.21,2,.43,4.14c.12,1.18,.25,2.35,.37,3.53,.02,.23,.05,.45,.07,.68,.14,1.23,1.08,1.9,2.24,2.08,.68,.11,1.38,.13,2.07,.14,.89,.01,1.78,.05,2.65-.11,1.29-.24,2.26-1.1,2.4-2.44,.04-.39,.08-.77,.12-1.16,.13-1.28,.26-2.55,.39-3.83l.43-4.17,.2-1.91c0-.09,.05-.18,.11-.25,.06-.07,.15-.12,.24-.14,.37-.07,.72-.19,.98-.48,.42-.45,.5-1.03,.35-1.62Zm-13.88,.41s0,.05,0,.07c0-.03,0-.06,0-.07Zm.04,.28s.01,0,.02,.02c-.01-.01-.02-.02-.02-.02h0Zm.04,.05s.02,.04,0,0h0Zm.07,.06h0s0,0,0,0c0,0,0,0,0,0h0Zm12.39-.09c-.13,.13-.33,.18-.53,.21-2.21,.33-4.46,.49-6.7,.42-1.6-.05-3.19-.23-4.77-.46-.16-.02-.32-.05-.43-.16-.2-.22-.1-.65-.05-.91,.05-.24,.14-.56,.42-.59,.44-.05,.96,.14,1.4,.2,.53,.08,1.06,.15,1.59,.19,2.27,.21,4.59,.17,6.85-.13,.41-.06,.82-.12,1.23-.19,.36-.07,.77-.19,.99,.19,.15,.26,.17,.6,.15,.89,0,.13-.06,.25-.15,.33h0Z"/>
</svg>