<svg xmlns="http://www.w3.org/2000/svg" viewBox="0 0 100% 100%" width="24" height="24">
	<path d="M20.2,5.4l-6.6-4c-0.9-0.6-2.2-0.6-3.1,0l-6.6,4C2.9,6,2.3,7,2.3,8V16c0,1.1,0.6,2.1,1.5,2.6l6.6,4c0.5,0.3,1,0.4,1.6,0.4
		c0.6,0,1.1-0.1,1.6-0.4l6.6-4c0.9-0.5,1.5-1.5,1.5-2.6V8C21.7,7,21.1,6,20.2,5.4z M11.3,21.1l-6.6-4C4.2,16.9,4,16.5,4,16V8
		c0,0,0,0,0,0l7.4,4.4L11.3,21.1C11.3,21.2,11.3,21.2,11.3,21.1z M12.7,2.9l6.6,4c0,0,0,0,0,0L12,11.3L4.6,6.9c0,0,0,0,0,0l6.6-4
		C11.7,2.6,12.3,2.6,12.7,2.9z M12.7,21.2v-8.7L20,8c0,0,0,0,0,0V16c0,0.5-0.3,0.9-0.7,1.2L12.7,21.2C12.7,21.2,12.7,21.2,12.7,21.2
		z"/>
	<path d="M9.8,12.6c-0.5-0.3-0.8-0.1-0.8,0.4c0,0.5,0.4,1,0.8,1.3c0.5,0.3,0.8,0.1,0.8-0.4C10.6,13.4,10.2,12.8,9.8,12.6z"/>
	<path d="M5.1,14.7c-0.5-0.3-0.8-0.1-0.8,0.4c0,0.5,0.4,1,0.8,1.3C5.6,16.6,6,16.4,6,16C6,15.5,5.6,14.9,5.1,14.7z"/>
	<path d="M7.4,13.6C7,13.4,6.6,13.5,6.6,14c0,0.5,0.4,1,0.8,1.3c0.5,0.3,0.8,0.1,0.8-0.4C8.3,14.4,7.9,13.9,7.4,13.6z"/>
	<path d="M18.7,11.7c0.5-0.3,0.8-0.8,0.8-1.3c0-0.5-0.4-0.6-0.8-0.4c-0.5,0.3-0.8,0.8-0.8,1.3C17.9,11.8,18.2,11.9,18.7,11.7z"/>
	<path d="M14,12.6c-0.5,0.3-0.8,0.8-0.8,1.3c0,0.5,0.4,0.6,0.8,0.4c0.5-0.3,0.8-0.8,0.8-1.3C14.9,12.5,14.5,12.3,14,12.6z"/>
	<path d="M18.7,14.7c-0.5,0.3-0.8,0.8-0.8,1.3c0,0.5,0.4,0.6,0.8,0.4c0.5-0.3,0.8-0.8,0.8-1.3C19.5,14.6,19.2,14.4,18.7,14.7z"/>
	<path d="M14,17.2c-0.5,0.3-0.8,0.8-0.8,1.3c0,0.5,0.4,0.6,0.8,0.4c0.5-0.3,0.8-0.8,0.8-1.3C14.9,17.1,14.5,17,14,17.2z"/>
	<path d="M10.8,7.5c0.6,0.5,1.7,0.5,2.4,0c0.7-0.5,0.7-1.2,0-1.7c-0.6-0.5-1.7-0.5-2.4,0C10.1,6.3,10.1,7.1,10.8,7.5z"/>
</svg>
