<svg xmlns="http://www.w3.org/2000/svg" viewBox="0 0 24 24" width="24" height="24"><path fill="none" d="M0 0H24V24H0z"/><path d="M19.562 12.097l1.531 2.653c.967 1.674.393 3.815-1.28 4.781-.533.307-1.136.469-1.75.469H16v2.5L11 19l5-3.5V18h2.062c.263 0 .522-.07.75-.201.718-.414.963-1.332.55-2.049l-1.532-2.653 1.732-1zM7.304 9.134l.53 6.08-2.164-1.25-1.031 1.786c-.132.228-.201.487-.201.75 0 .828.671 1.5 1.5 1.5H9v2H5.938c-1.933 0-3.5-1.567-3.5-3.5 0-.614.162-1.218.469-1.75l1.03-1.787-2.164-1.249 5.53-2.58zm6.446-6.165c.532.307.974.749 1.281 1.281l1.03 1.785 2.166-1.25-.53 6.081-5.532-2.58 2.165-1.25-1.031-1.786c-.132-.228-.321-.417-.549-.549-.717-.414-1.635-.168-2.049.549L9.169 7.903l-1.732-1L8.97 4.25c.966-1.674 3.107-2.248 4.781-1.281z"/></svg>