<svg xmlns="http://www.w3.org/2000/svg" viewBox="0 0 24 24"><path d="M10.5621 4.14773C11.0262 4.05083 11.5071 3.99989 12 3.99989C12.4929 3.99989 12.9738 4.05083 13.4379 4.14773L15.1213 2.46436L16.5355 3.87857L15.4859 4.92822C16.7177 5.63698 17.7135 6.70984 18.3264 7.99989H21V9.99989H18.9291C18.9758 10.3265 19 10.6604 19 10.9999V11.9999H21V13.9999H19V14.9999C19 15.3394 18.9758 15.6733 18.9291 15.9999H21V17.9999H18.3264C17.2029 20.3648 14.7924 21.9999 12 21.9999C9.2076 21.9999 6.7971 20.3648 5.67363 17.9999H3V15.9999H5.07089C5.02417 15.6733 5 15.3394 5 14.9999V13.9999H3V11.9999H5V10.9999C5 10.6604 5.02417 10.3265 5.07089 9.99989H3V7.99989H5.67363C6.28647 6.70984 7.28227 5.63698 8.51412 4.92822L7.46447 3.87857L8.87868 2.46436L10.5621 4.14773ZM12 5.99989C9.23858 5.99989 7 8.23847 7 10.9999V14.9999C7 17.7613 9.23858 19.9999 12 19.9999C14.7614 19.9999 17 17.7613 17 14.9999V10.9999C17 8.23847 14.7614 5.99989 12 5.99989ZM9 13.9999H15V15.9999H9V13.9999ZM9 9.99989H15V11.9999H9V9.99989Z"></path></svg>