<svg xmlns="http://www.w3.org/2000/svg" viewBox="0 0 24 24" width="24" height="24">
  <path d="M0,0H24V24H0V0Z" style="fill: none;"/>
  <path d="M21.14,10.92h0s0-2.91,0-2.91L12.04,3.02v2.91l6.45,3.54-1.95,1.07-4.5-2.47v2.91l1.85,1.01-1.88,1.03-1.85-1.02,1.89-1.03v-2.93l-4.56,2.49-1.94-1.06,6.5-3.55V3L2.86,8.01h0s0,0,0,0v2.93l1.94,1.06-1.94,1.06h0s0,0,0,0v2.93l9.14,5.01,9.14-5.01v-.02h0s0-2.91,0-2.91l-1.94-1.06,1.93-1.06v-.02Zm-2.65,3.6l-6.49,3.56-6.46-3.54,1.94-1.06,4.53,2.48h0s4.55-2.5,4.55-2.5l1.93,1.06Z"/>
</svg>