<svg xmlns="http://www.w3.org/2000/svg" viewBox="0 0 24 24" width="24" height="24"><path fill="none" d="M0 0h24v24H0z"/>
<g>
	<path d="M21.8,7.2c0-0.2,0-0.5,0-0.7c-0.2-1.7-1.8-3.1-3.5-3c-0.4,0-0.7,0.2-0.9,0.4c-0.2,0.2-0.3,0.6-0.2,0.9
		c0.1,0.5,0.5,0.8,1.1,0.9c0.9,0.1,1.4,0.6,1.4,1.5c0,3.2,0,6.4,0,9.6c0,1-0.6,1.5-1.5,1.5c-2,0-3.9,0-5.9,0l0,0
		c0.2-0.2,0.4-0.4,0.6-0.6c0.4-0.5,0.4-1.1,0-1.6c-0.4-0.4-1.1-0.4-1.5,0c-0.8,0.8-1.7,1.7-2.5,2.5c-0.4,0.4-0.4,1.1,0,1.5
		c0.8,0.8,1.7,1.7,2.5,2.5c0.2,0.2,0.5,0.3,0.8,0.3c0.3,0,0.5-0.1,0.7-0.3c0.4-0.4,0.5-1.1,0-1.6c-0.2-0.2-0.4-0.4-0.6-0.6l5.8,0
		c0.3,0,0.5,0,0.8,0c1.8-0.3,3-1.8,3-3.7C21.8,13.6,21.8,10.4,21.8,7.2z"/>
	<path d="M5.8,18.3c-0.9-0.1-1.4-0.6-1.4-1.5c0-3.2,0-6.5,0-9.7c0-0.9,0.6-1.5,1.5-1.5c1.8,0,3.6,0,5.5,0h0.4l-0.5,0.5
		c-0.3,0.3-0.4,0.6-0.4,0.9c0,0.3,0.1,0.5,0.3,0.8c0.5,0.5,1.1,0.4,1.6-0.1c0.8-0.8,1.5-1.5,2.3-2.3c0.5-0.5,0.5-1.2,0-1.7l-1.9-1.9
		c-0.2-0.2-0.3-0.3-0.5-0.5c-0.5-0.4-1.1-0.4-1.5,0c-0.4,0.4-0.5,1.1,0,1.5c0.1,0.1,0.1,0.1,0.3,0.3l0.4,0.4l-1.3,0
		c-1.6,0-3.2,0-4.8,0C3.8,3.5,2.3,5,2.3,6.9c0,0.5,0,0.9,0,1.4l0,0.5l0,2.4c0,2,0,4,0,6c0,1.8,1.6,3.4,3.5,3.4c0,0,0,0,0,0
		c0.6,0,1.1-0.4,1.2-1C6.9,18.9,6.5,18.4,5.8,18.3z"/>
</g>
</svg>
