<svg xmlns="http://www.w3.org/2000/svg" viewBox="0 0 24 24" width="24" height="24"><path fill="none" d="M0 0h24v24H0z"/><path d="M15.199 9.945a2.6 2.6 0 0 1-.79-1.551l-.403-3.083-2.73 1.486a2.6 2.6 0 0 1-1.72.273L6.5 6.5l.57 3.056a2.6 2.6 0 0 1-.273 1.72l-1.486 2.73 3.083.403a2.6 2.6 0 0 1 1.55.79l2.138 2.257 1.336-2.807a2.6 2.6 0 0 1 1.23-1.231l2.808-1.336-2.257-2.137zm.025 5.563l-2.213 4.65a.6.6 0 0 1-.977.155l-3.542-3.739a.6.6 0 0 0-.357-.182l-5.107-.668a.6.6 0 0 1-.449-.881l2.462-4.524a.6.6 0 0 0 .062-.396L4.16 4.86a.6.6 0 0 1 .7-.7l5.063.943a.6.6 0 0 0 .396-.062l4.524-2.462a.6.6 0 0 1 .881.45l.668 5.106a.6.6 0 0 0 .182.357l3.739 3.542a.6.6 0 0 1-.155.977l-4.65 2.213a.6.6 0 0 0-.284.284zm.797 1.927l1.414-1.414 4.243 4.242-1.415 1.415-4.242-4.243z"/></svg>