<svg xmlns="http://www.w3.org/2000/svg" viewBox="0 0 24 24"><path d="M10 10.4966L11.0385 6.86192C11.1902 6.33088 11.7437 6.02339 12.2747 6.17511C12.6069 6.27003 12.8666 6.52971 12.9615 6.86192L14 10.4966V11.9966H14.7192C15.1781 11.9966 15.5781 12.3089 15.6894 12.754L17.051 18.2007C18.8507 16.7338 20 14.4994 20 11.9966C20 7.5783 16.4183 3.99658 12 3.99658C7.58172 3.99658 4 7.5783 4 11.9966C4 14.4994 5.14932 16.7338 6.94897 18.2007L8.31063 12.754C8.42193 12.3089 8.82191 11.9966 9.28078 11.9966H10V10.4966ZM12 19.9966C12.2415 19.9966 12.4813 19.9859 12.7189 19.9648C13.6187 19.8846 14.4756 19.6555 15.2649 19.3022L13.9384 13.9966H10.0616L8.73514 19.3022C9.52438 19.6555 10.3813 19.8846 11.2811 19.9647C11.5187 19.9859 11.7585 19.9966 12 19.9966ZM12 21.9966C6.47715 21.9966 2 17.5194 2 11.9966C2 6.47373 6.47715 1.99658 12 1.99658C17.5228 1.99658 22 6.47373 22 11.9966C22 17.5194 17.5228 21.9966 12 21.9966Z"></path></svg>