<svg xmlns="http://www.w3.org/2000/svg" viewBox="0 0 24 24" width="24" height="24"><path fill="none" d="M0 0h24v24H0z"/><path d="M5.764 8l-.295-.73a1 1 0 0 1 .553-1.302l9.272-3.746a1 1 0 0 1 1.301.552l5.62 13.908a1 1 0 0 1-.553 1.302L12.39 21.73a1 1 0 0 1-1.302-.553L11 20.96V21H7a1 1 0 0 1-1-1v-.27l-3.35-1.353a1 1 0 0 1-.552-1.302L5.764 8zM8 19h2.209L8 13.533V19zm-2-6.244l-1.673 4.141L6 17.608v-4.852zm1.698-5.309l4.87 12.054 7.418-2.997-4.87-12.053-7.418 2.996zm2.978 2.033a1 1 0 1 1-.749-1.855 1 1 0 0 1 .75 1.855z"/></svg>