<svg xmlns="http://www.w3.org/2000/svg" viewBox="0 0 24 24"><path d="M3.91762 8.0366C3.32984 9.23328 3 10.5792 3 11.9999C3 16.9704 7.02944 20.9999 12 20.9999C13.4216 20.9999 14.7684 20.6696 15.9657 20.081C16.8385 20.4544 17.6848 20.6991 18.4564 20.762C19.3582 20.8356 20.3 20.6665 20.9818 19.9847C21.7339 19.2325 21.8625 18.1689 21.7279 17.1727C21.6052 16.2638 21.2481 15.2537 20.726 14.2114C20.9051 13.503 21 12.7619 21 11.9999C21 7.02929 16.9706 2.99986 12 2.99986C11.2389 2.99986 10.4987 3.09454 9.79103 3.27318C8.7474 2.7498 7.73605 2.39172 6.8261 2.26834C5.82897 2.13315 4.76406 2.26128 4.01121 3.01413C3.3287 3.69664 3.16001 4.63956 3.2341 5.54233C3.29752 6.315 3.54313 7.16247 3.91762 8.0366ZM5.3224 5.96574C5.2734 5.75321 5.24204 5.55715 5.2274 5.37873C5.17928 4.79243 5.31727 4.53649 5.42543 4.42834C5.54452 4.30925 5.84797 4.15403 6.55739 4.25021C6.75482 4.27698 6.96951 4.32189 7.2 4.38547C6.50364 4.82527 5.87203 5.35784 5.3224 5.96574ZM19.6124 16.803C19.6751 17.0316 19.7195 17.2445 19.7459 17.4404C19.8416 18.1485 19.6865 18.4515 19.5676 18.5705C19.4595 18.6785 19.204 18.8163 18.6189 18.7686C18.4419 18.7542 18.2475 18.7233 18.0368 18.675C18.6427 18.1268 19.1736 17.4971 19.6124 16.803ZM15.8812 17.8264C14.2046 16.9482 12.2571 15.5026 10.3752 13.6207C8.4954 11.741 7.05092 9.79561 6.17241 8.12028C7.06357 6.78465 8.40124 5.77312 9.96933 5.29866C10.6108 5.10457 11.2923 4.99986 12 4.99986C15.866 4.99986 19 8.13386 19 11.9999C19 12.7083 18.8951 13.3904 18.7006 14.0325C18.2261 15.5991 17.2155 16.9356 15.8812 17.8264ZM13.6052 18.8152C13.0901 18.9359 12.5528 18.9999 12 18.9999C8.13401 18.9999 5 15.8658 5 11.9999C5 11.4476 5.06377 10.9109 5.18429 10.3963C6.14883 11.913 7.43475 13.5087 8.96096 15.0349C10.489 16.563 12.0868 17.8502 13.6052 18.8152Z"></path></svg>