<svg xmlns="http://www.w3.org/2000/svg" viewBox="0 0 24 24" width="24" height="24"><path fill="none" d="M0 0h24v24H0z"/><path d="M6.2,9.6c0.5-0.7,1-1.4,1.6-2c3.1-3.1,7.5-4,11.1-2.5c1.4,3.6,0.6,8-2.5,11.1c-0.6,0.6-1.3,1.1-2,1.6l0.1,2.3c0,0.2-0.1,0.4-0.3,0.4l-4,1c-0.2,0.1-0.5-0.1-0.5-0.3c0,0,0-0.1,0-0.1v-2.7c0-0.2-0.1-0.4-0.3-0.6l-3.2-3.2c-0.2-0.2-0.4-0.3-0.6-0.3H2.9c-0.2,0-0.4-0.2-0.4-0.4c0,0,0-0.1,0-0.1l1-4c0.1-0.2,0.2-0.3,0.4-0.3C3.9,9.5,6.2,9.6,6.2,9.6zM12.1,11.9c0.7,0.7,1.8,0.7,2.4,0c0.7-0.7,0.7-1.8,0-2.4c-0.7-0.7-1.8-0.7-2.4,0C11.4,10.2,11.4,11.3,12.1,11.9z"/></svg>				
			