<svg xmlns="http://www.w3.org/2000/svg" viewBox="0 0 24 24"><path d="M8 3C4.13401 3 1 6.13401 1 10C1 13.866 4.13401 17 8 17H9.07089C9.02417 16.6734 9 16.3395 9 16C9 15.6605 9.02417 15.3266 9.07089 15H8C5.23858 15 3 12.7614 3 10C3 7.23858 5.23858 5 8 5H16C18.7614 5 21 7.23858 21 10C21 10.3428 20.9655 10.6775 20.8998 11.0008C21.4853 11.5748 21.9704 12.2508 22.3264 13C22.7583 12.0907 23 11.0736 23 10C23 6.13401 19.866 3 16 3H8ZM16 13C14.3431 13 13 14.3431 13 16C13 17.6569 14.3431 19 16 19C17.6569 19 19 17.6569 19 16C19 14.3431 17.6569 13 16 13ZM11 16C11 13.2386 13.2386 11 16 11C18.7614 11 21 13.2386 21 16C21 17.0191 20.6951 17.967 20.1716 18.7574L22.7071 21.2929L21.2929 22.7071L18.7574 20.1716C17.967 20.6951 17.0191 21 16 21C13.2386 21 11 18.7614 11 16Z"></path></svg>