<svg xmlns="http://www.w3.org/2000/svg" viewBox="0 0 24 24"><path d="M20.9701 17.1715 19.5559 18.5858 16.0214 15.0513 15.9476 15.125 15.2405 18.6605 13.8263 20.0747 9.58369 15.8321 4.63394 20.7818 3.21973 19.3676 8.16947 14.4179 3.92683 10.1752 5.34105 8.76101 8.87658 8.0539 8.95029 7.98019 5.41373 4.44362 6.82794 3.02941 20.9701 17.1715ZM10.3645 9.3944 9.86261 9.89631 7.04072 10.4607 13.5409 16.9608 14.1052 14.1389 14.6071 13.637 10.3645 9.3944ZM18.7761 9.46812 17.4356 10.8086 18.8498 12.2228 20.1903 10.8823 20.8974 11.5894 22.3116 10.1752 13.8263 1.68994 12.4121 3.10416 13.1192 3.81126 11.7787 5.15176 13.1929 6.56597 14.5334 5.22548 18.7761 9.46812Z"></path></svg>