<svg viewBox="0 0 24 24" xmlns="http://www.w3.org/2000/svg"><path d="m22.5 23h-21c-.971 0-1.5-1.373-1.5-2.079v-19.375c0-.853.673-1.546 1.5-1.546h21c.827 0 1.5.693 1.5 1.546v19.375c0 .706-.529 2.079-1.5 2.079zm-21-22c-.276 0-.5.245-.5.546v19.375c0 .433.339 1.079.506 1.079h20.994c.161 0 .5-.646.5-1.079v-19.375c0-.301-.224-.546-.5-.546z"/><path d="m20 8h-2c-.276 0-.5-.224-.5-.5s.224-.5.5-.5h2c.276 0 .5.224.5.5s-.224.5-.5.5z"/><path d="m12 8h-8c-.276 0-.5-.224-.5-.5s.224-.5.5-.5h8c.276 0 .5.224.5.5s-.224.5-.5.5z"/><path d="m20 16h-8c-.276 0-.5-.224-.5-.5s.224-.5.5-.5h8c.276 0 .5.224.5.5s-.224.5-.5.5z"/><path d="m7 16h-3c-.276 0-.5-.224-.5-.5s.224-.5.5-.5h3c.276 0 .5.224.5.5s-.224.5-.5.5z"/><path d="m15.5 10.5c-1.654 0-3-1.346-3-3s1.346-3 3-3 3 1.346 3 3-1.346 3-3 3zm0-5c-1.103 0-2 .897-2 2s.897 2 2 2 2-.897 2-2-.897-2-2-2z"/><path d="m9.5 18.5c-1.654 0-3-1.346-3-3s1.346-3 3-3 3 1.346 3 3-1.346 3-3 3zm0-5c-1.103 0-2 .897-2 2s.897 2 2 2 2-.897 2-2-.897-2-2-2z"/></svg>