<svg width="28" height="28" viewBox="0 0 28 28" fill="none" xmlns="http://www.w3.org/2000/svg">
<path fill-rule="evenodd" clip-rule="evenodd" d="M26.9425 2.94265C27.4632 2.42195 27.4632 1.57773 26.9425 1.05703C26.4218 0.536329 25.5776 0.536329 25.0569 1.05703L22.5713 3.54256C21.1213 2.59333 19.5367 2.43378 18.1753 2.64006C16.5495 2.88638 15.1127 3.66838 14.3905 4.39053L12.3905 6.39053C12.1405 6.64058 12 6.97972 12 7.33334C12 7.68697 12.1405 8.0261 12.3905 8.27615L19.7239 15.6095C20.2446 16.1302 21.0888 16.1302 21.6095 15.6095L23.6095 13.6095C24.3316 12.8873 25.1136 11.4505 25.36 9.82475C25.5663 8.46312 25.4066 6.87827 24.4571 5.42807L26.9425 2.94265Z" fill="#3c4555"/>
<path fill-rule="evenodd" clip-rule="evenodd" d="M12.276 12.9426C12.7967 12.4219 12.7967 11.5777 12.276 11.057C11.7553 10.5363 10.9111 10.5363 10.3904 11.057L8.66651 12.7809L8.27615 12.3905C8.0261 12.1405 7.68697 12 7.33334 12C6.97972 12 6.64058 12.1405 6.39053 12.3905L4.39053 14.3905C3.66838 15.1127 2.88638 16.5495 2.64006 18.1753C2.43377 19.5367 2.59333 21.1214 3.54262 22.5714L1.05703 25.057C0.536329 25.5777 0.536329 26.4219 1.05703 26.9426C1.57773 27.4633 2.42195 27.4633 2.94265 26.9426L5.42817 24.4571C6.87835 25.4066 8.46315 25.5663 9.82475 25.36C11.4505 25.1136 12.8873 24.3316 13.6095 23.6095L15.6095 21.6095C16.1302 21.0888 16.1302 20.2446 15.6095 19.7239L15.2188 19.3332L16.9426 17.6093C17.4633 17.0886 17.4633 16.2444 16.9426 15.7237C16.4219 15.203 15.5777 15.203 15.057 15.7237L13.3332 17.4475L10.5521 14.6665L12.276 12.9426Z" fill="#FF7C00"/>
</svg>
