<svg
	xmlns="http://www.w3.org/2000/svg"
	xmlns:xlink="http://www.w3.org/1999/xlink"
	aria-hidden="true"
	focusable="false"
	role="img"
	width="1em"
	height="1em"
	preserveAspectRatio="xMidYMid meet"
	viewBox="0 0 32 32"
>
	<rect width="32" height="32" fill="#f7df1e"></rect>
	<path
		d="M21.5,25a3.27,3.27,0,0,0,3,1.83c1.25,0,2-.63,2-1.49,0-1-.81-1.39-2.19-2L23.56,23C21.39,22.1,20,20.94,20,18.49c0-2.25,1.72-4,4.41-4a4.44,4.44,0,0,1,4.27,2.41l-2.34,1.5a2,2,0,0,0-1.93-1.29,1.31,1.31,0,0,0-1.44,1.29c0,.9.56,1.27,1.85,1.83l.75.32c2.55,1.1,4,2.21,4,4.72,0,2.71-2.12,4.19-5,4.19a5.78,5.78,0,0,1-5.48-3.07Zm-10.63.26c.48.84.91,1.55,1.94,1.55s1.61-.39,1.61-1.89V14.69h3V25c0,3.11-1.83,4.53-4.49,4.53a4.66,4.66,0,0,1-4.51-2.75Z"
	></path>
</svg>
