<svg
	xmlns="http://www.w3.org/2000/svg"
	xmlns:xlink="http://www.w3.org/1999/xlink"
	aria-hidden="true"
	focusable="false"
	role="img"
	width="1em"
	height="1em"
	preserveAspectRatio="xMidYMid meet"
	viewBox="0 0 32 32"
>
	<path
		d="M15.84.5a16.4,16.4,0,0,0-3.57.32C9.1,1.39,8.53,2.53,8.53,4.64V7.48H16v1H5.77a4.73,4.73,0,0,0-4.7,3.74,14.82,14.82,0,0,0,0,7.54c.57,2.28,1.86,3.82,4,3.82h2.6V20.14a4.73,4.73,0,0,1,4.63-4.63h7.38a3.72,3.72,0,0,0,3.73-3.73V4.64A4.16,4.16,0,0,0,19.65.82,20.49,20.49,0,0,0,15.84.5ZM11.78,2.77a1.39,1.39,0,0,1,1.38,1.46,1.37,1.37,0,0,1-1.38,1.38A1.42,1.42,0,0,1,10.4,4.23,1.44,1.44,0,0,1,11.78,2.77Z"
		fill="#5a9fd4"
	></path>
	<path
		d="M16.16,31.5a16.4,16.4,0,0,0,3.57-.32c3.17-.57,3.74-1.71,3.74-3.82V24.52H16v-1H26.23a4.73,4.73,0,0,0,4.7-3.74,14.82,14.82,0,0,0,0-7.54c-.57-2.28-1.86-3.82-4-3.82h-2.6v3.41a4.73,4.73,0,0,1-4.63,4.63H12.35a3.72,3.72,0,0,0-3.73,3.73v7.14a4.16,4.16,0,0,0,3.73,3.82A20.49,20.49,0,0,0,16.16,31.5Zm4.06-2.27a1.39,1.39,0,0,1-1.38-1.46,1.37,1.37,0,0,1,1.38-1.38,1.42,1.42,0,0,1,1.38,1.38A1.44,1.44,0,0,1,20.22,29.23Z"
		fill="#ffd43b"
	></path>
</svg>
