<svg width="16" height="16" viewBox="0 0 16 16" fill="none" xmlns="http://www.w3.org/2000/svg">
   <path d="M8.03076 0.0166016L15.9999 4.38717V6.93362L8.03076 2.56305V0.0166016Z" fill="#FF7C00" fill-opacity="0.75"/>
   <path d="M15.9974 4.38672L7.99902 8.77375V11.3366L15.9974 6.94955V4.38672Z" fill="#FF7C00"/>
   <path d="M0 4.38672L7.9991 8.77375V11.3366L0 6.94957V4.38672Z" fill="#FF7C00" fill-opacity="0.75"/>
   <path d="M8.03008 0L0.000976562 4.38697V6.94982L8.03008 2.56286V0Z" fill="#FF7C00"/>
   <path d="M8.03076 4.43604L15.9999 8.80659V11.353L8.03076 6.98248V4.43604Z" fill="#FF7C00" fill-opacity="0.75"/>
   <path d="M15.9974 8.80664L7.99902 13.1937V15.7565L15.9974 11.3695V8.80664Z" fill="#FF7C00"/>
   <path d="M0 8.80664L7.9991 13.1937V15.7565L0 11.3695V8.80664Z" fill="#FF7C00" fill-opacity="0.75"/>
   <path d="M8.03008 4.41992L0.000976562 8.8069V11.3697L8.03008 6.98279V4.41992Z" fill="#FF7C00"/>
</svg>
