<svg xmlns="http://www.w3.org/2000/svg" width="10" height="10" fill="none">
  <path fill="#FF3270" d="M1.93 6.03v2.04h2.04V6.03H1.93Z"/>
  <path fill="#861FFF" d="M6.03 6.03v2.04h2.04V6.03H6.03Z"/>
  <path fill="#097EFF" d="M1.93 1.93v2.04h2.04V1.93H1.93Z"/>
  <path fill="#000" fill-rule="evenodd" d="M.5 1.4c0-.5.4-.9.9-.9h3.1a.9.9 0 0 1 .87.67A2.44 2.44 0 0 1 9.5 2.95c0 .65-.25 1.24-.67 1.68.39.1.67.46.67.88v3.08c0 .5-.4.91-.9.91H1.4a.9.9 0 0 1-.9-.9V1.4Zm1.43.53v2.04h2.04V1.93H1.93Zm0 6.14V6.03h2.04v2.04H1.93Zm4.1 0V6.03h2.04v2.04H6.03Zm0-5.12a1.02 1.02 0 1 1 2.04 0 1.02 1.02 0 0 1-2.04 0Z" clip-rule="evenodd"/>
  <path fill="#FFD702" d="M7.05 1.93a1.02 1.02 0 1 0 0 2.04 1.02 1.02 0 0 0 0-2.04Z"/>
</svg>